<svg width="32" height="32" viewBox="0 0 32 32" fill="none" xmlns="http://www.w3.org/2000/svg">
  <path fill="url(#stk_full_gradient)" d="M19.91.49 19.5 1.9c-1.12-.28-2.3-.43-3.51-.43s-2.34.15-3.45.42l-.41-1.4C5.17 2.21 0 8.51 0 16c0 1.5.21 2.96.6 4.33l1.46-.35c.66 2.29 1.87 4.35 3.48 6.02l-1.05 1.1C7.4 30.12 11.48 32 16 32s8.57-1.87 11.48-4.87l-1.06-1.11c1.61-1.67 2.82-3.72 3.48-6l1.49.36c.4-1.39.61-2.86.61-4.38C32 8.53 26.85 2.24 19.91.49ZM16.02 29.5c-7.46 0-13.5-6.04-13.5-13.5S8.56 2.5 16.02 2.5s13.5 6.04 13.5 13.5-6.04 13.5-13.5 13.5Z"/>
  <g clip-path="url(#circleClip)">
    <template />
  </g>
  <defs>
    <linearGradient id="stk_full_gradient" x1="16" x2="16" y1="32" y2=".48" gradientUnits="userSpaceOnUse">
      <stop offset="0" stop-color="#614cb1"/>
      <stop offset=".5" stop-color="#9c99f8"/>
      <stop offset="1" stop-color="#5f48ae"/>
    </linearGradient>
    <clipPath id="circleClip">
      <circle cx="16" cy="16" r="13"/>
    </clipPath>
  </defs>
</svg>