<svg width="32" height="32" viewBox="0 0 32 32" fill="none" xmlns="http://www.w3.org/2000/svg">

    <path d="M11.35 2.79C12.81 2.28 14.37 1.98 16 1.98C17.63 1.98 19.22 2.28 20.68 2.8L21.83 0.04C21.7 0.02 21.56 0 21.42 0H10.58C10.46 0 10.33 0.02 10.21 0.04L11.35 2.79Z" fill="currentColor"/>
    <path d="M3.35999 9.95998C4.73999 7.07998 7.06999 4.73998 9.94999 3.35998L8.80999 0.599976C8.70999 0.679976 8.59999 0.749976 8.50999 0.849976L0.849985 8.51998C0.759985 8.60998 0.679985 8.71997 0.609985 8.81997L3.35999 9.95998Z" fill="currentColor"/>
    <path d="M30.02 16C30.02 17.65 29.72 19.23 29.2 20.7L31.96 21.85C31.98 21.71 32 21.57 32 21.43V10.59C32 10.48 31.98 10.37 31.97 10.26L29.23 11.39C29.74 12.84 30.03 14.39 30.03 16.01L30.02 16Z" fill="currentColor"/>
    <path d="M23.21 0.630005L22.07 3.38C24.95 4.77 27.28 7.1 28.65 9.99L31.41 8.85001C31.33 8.74001 31.24 8.62001 31.14 8.52001L23.48 0.850005C23.4 0.770005 23.3 0.700005 23.21 0.630005Z" fill="currentColor"/>
    <path d="M1.98 16C1.98 14.37 2.27 12.81 2.79 11.35L0.04 10.21C0.02 10.33 0 10.45 0 10.58V21.42C0 21.55 0.02 21.68 0.04 21.8L2.79 20.66C2.27 19.2 1.98 17.63 1.98 15.99V16Z" fill="currentColor"/>
    <path d="M28.62 22.08C27.23 24.95 24.9 27.27 22.03 28.64L23.17 31.4C23.28 31.32 23.39 31.24 23.49 31.14L31.16 23.47C31.24 23.39 31.3 23.3 31.37 23.21L28.63 22.07L28.62 22.08Z" fill="currentColor"/>
    <path d="M20.63 29.22C19.18 29.73 17.62 30.02 16 30.02C14.38 30.02 12.8 29.72 11.34 29.21L10.2 31.96C10.33 31.98 10.45 32 10.59 32H21.43C21.55 32 21.66 31.98 21.78 31.97L20.65 29.22H20.63Z" fill="currentColor"/>
    <path d="M8.81 31.38L9.95 28.63C7.08 27.25 4.75 24.93 3.37 22.06L0.619995 23.2C0.699995 23.3 0.769995 23.4 0.859995 23.49L8.52999 31.16C8.62 31.25 8.71999 31.32 8.81999 31.4L8.81 31.38Z" fill="currentColor"/>
    <g clip-path="url(#circleClip)">
        <template />
    </g>
    <defs>
        <clipPath id="circleClip">
            <circle cx="16" cy="16" r="13" />
        </clipPath>
    </defs>
</svg>
