<svg width="32" height="32" viewBox="0 0 32 32" fill="none" xmlns="http://www.w3.org/2000/svg">
  <path fill-rule="evenodd" clip-rule="evenodd" fill="currentColor" d="M19.916 0.485925L19.5029 1.89519C18.3771 1.61172 17.2027 1.46593 15.9879 1.46593C14.773 1.46593 13.6472 1.61172 12.5376 1.87899L12.1326 0.477826C5.1754 2.21106 0 8.51225 0 16.004C0 17.5105 0.21058 18.9602 0.599342 20.3371L2.0572 19.9807C2.72134 22.2728 3.92812 24.33 5.53986 25.9985L4.48697 27.0918C7.40268 30.1129 11.4847 31.9919 15.996 31.9919C20.5072 31.9919 24.5649 30.121 27.4806 27.1161L26.4196 25.9985C28.0233 24.33 29.2382 22.2809 29.9023 19.9969L31.3845 20.3614C31.7813 18.9683 32 17.5024 32 15.9878C32 8.51225 26.8489 2.21916 19.9079 0.469727L19.916 0.485925ZM16.0202 29.5054C8.56087 29.5054 2.51886 23.4634 2.51886 16.004C2.51886 8.54464 8.56087 2.50263 16.0202 2.50263C23.4796 2.50263 29.5216 8.54464 29.5216 16.004C29.5216 23.4634 23.4796 29.5054 16.0202 29.5054Z" />
  <g clip-path="url(#circleClip)">
    <template />
  </g>
  <defs>
    <clipPath id="circleClip">
      <circle cx="16" cy="16" r="13" />
    </clipPath>
  </defs>
</svg>

