<svg xmlns="http://www.w3.org/2000/svg" width="33" height="32" fill="none"><path fill="url(#a)" d="M16.21 32c8.837 0 16-7.163 16-16s-7.163-16-16-16-16 7.163-16 16 7.163 16 16 16"/><path fill="#fff" d="M23.21 22.37 17.8 9.29c-.19-.59-.74-.99-1.36-1.01h-.48c-.62.01-1.16.42-1.36 1.01l-2.35 5.7h-1.78a.97.97 0 0 0-.97.97c0 .55.44.98.97.98h.96l-2.25 5.43c-.04.12-.07.24-.07.37-.01.27.09.53.27.73.19.19.45.29.72.28.2 0 .4-.07.56-.19.17-.13.3-.3.39-.49l2.47-6.13h1.72c.53 0 .97-.43.97-.97v-.03c0-.53-.44-.96-.97-.97h-.92l1.89-4.71 5.15 12.8c.08.2.22.36.39.49.16.12.36.18.56.19.27.01.53-.09.72-.28.18-.2.28-.46.27-.73 0-.13-.02-.25-.07-.37z"/><defs><linearGradient id="a" x1="28.08" x2="4.32" y1="5.91" y2="26.07" gradientUnits="userSpaceOnUse"><stop stop-color="#B6509E"/><stop offset="1" stop-color="#2EBAC6"/></linearGradient></defs></svg>