<svg width="32" height="32" viewBox="0 0 32 32" fill="none" xmlns="http://www.w3.org/2000/svg">
  <circle cx="16" cy="16" r="15" stroke="url(#paint0_linear_40_91)" stroke-width="2" />
  <g clip-path="url(#circleClip)">
    <g style="transform: scale(0.8125); transform-origin: 50% 50%;"><path fill="#F0B90B" fill-rule="evenodd" d="M16.93 0c8.84 0 16 7.16 16 16s-7.16 16-16 16-16-7.16-16-16 7.16-16 16-16" clip-rule="evenodd"/><path fill="#fff" d="m9.72 16 .02 4.23 3.59 2.12v2.47l-5.7-3.34v-6.72zM9.72 11.77v2.46L7.63 13v-2.47l2.09-1.24 2.11 1.24zM14.83 10.53l2.1-1.24 2.1 1.24-2.1 1.24z"/><path fill="#fff" d="M11.24 19.35v-2.47l2.09 1.24v2.46zM14.83 23.23l2.1 1.24 2.1-1.24v2.47l-2.1 1.24-2.1-1.24zM22.03 10.53l2.1-1.24 2.1 1.24V13l-2.1 1.23v-2.46zM24.13 20.23l.01-4.23 2.09-1.24v6.72l-5.7 3.34v-2.48z"/><path fill="#fff" d="m22.62 19.35-2.09 1.23v-2.47l2.09-1.24z"/><path fill="#fff" d="m22.62 12.65.02 2.47-3.61 2.12v4.24l-2.09 1.23-2.1-1.23v-4.24l-3.6-2.12v-2.47l2.1-1.24 3.58 2.12 3.61-2.12 2.1 1.24zM11.24 8.42l5.69-3.36 5.69 3.36-2.09 1.24-3.6-2.13-3.6 2.13z"/></g>
  </g>
  <defs>
    <clipPath id="circleClip">
      <circle cx="16" cy="16" r="13" />
    </clipPath>
    <linearGradient id="paint0_linear_40_91" x1="26.976" y1="4.32" x2="6.59198" y2="28.352"
      gradientUnits="userSpaceOnUse">
      <stop stop-color="#B6509E" />
      <stop offset="1" stop-color="#2EBAC6" />
    </linearGradient>
  </defs>
</svg>