<svg width="32" height="32" viewBox="0 0 32 32" fill="none" xmlns="http://www.w3.org/2000/svg">
  <circle cx="16" cy="16" r="15" stroke="url(#paint0_linear_40_91)" stroke-width="2" />
  <g clip-path="url(#circleClip)">
    <g style="transform: scale(0.8125); transform-origin: 50% 50%;"><path fill="#F7931A" d="M31.87 19.87c-2.14 8.57-10.82 13.79-19.39 11.65S-1.31 20.7.83 12.13 11.65-1.66 20.22.48 34.01 11.3 31.87 19.87"/><path fill="#fff" d="M23.4 13.72c.32-2.13-1.3-3.27-3.52-4.04l.72-2.88-1.76-.44-.7 2.81c-.46-.11-.94-.22-1.41-.33l.7-2.83-1.75-.44-.72 2.88c-.38-.09-.76-.17-1.12-.26l-2.42-.61-.47 1.87s1.3.3 1.27.32c.71.18.84.65.82 1.02l-.82 3.29s.11.03.18.06c-.06-.01-.12-.03-.19-.05l-1.15 4.6c-.09.22-.31.54-.8.42.02.03-1.28-.32-1.28-.32l-.87 2.01 2.28.57c.42.11.84.22 1.25.32l-.73 2.92 1.75.44.72-2.89c.48.13.94.25 1.4.36l-.72 2.87 1.76.44.73-2.91c2.99.57 5.24.34 6.19-2.37.76-2.18-.04-3.44-1.61-4.26 1.15-.26 2.01-1.02 2.24-2.58zm-4.01 5.63c-.54 2.18-4.21 1-5.4.71l.96-3.86c1.19.3 5.01.88 4.44 3.16zm.54-5.66c-.49 1.98-3.55.98-4.54.73l.87-3.5c.99.25 4.18.71 3.67 2.78z"/></g>
  </g>
  <defs>
    <clipPath id="circleClip">
      <circle cx="16" cy="16" r="13" />
    </clipPath>
    <linearGradient id="paint0_linear_40_91" x1="26.976" y1="4.32" x2="6.59198" y2="28.352"
      gradientUnits="userSpaceOnUse">
      <stop stop-color="#B6509E" />
      <stop offset="1" stop-color="#2EBAC6" />
    </linearGradient>
  </defs>
</svg>