<svg width="32" height="32" fill="none" viewBox="0 0 32 32" xmlns="http://www.w3.org/2000/svg"><path stroke="#9896FF" stroke-width="2" d="M16 31c8.284 0 15-6.716 15-15S24.284 1 16 1 1 7.716 1 16s6.716 15 15 15Z"/><g clip-path="url(#aceur__circleClip)"><g style="transform:scale(.8125);transform-origin:50% 50%"><path fill="#000" fill-rule="evenodd" d="M21.606 3.194c-2.147.62-4.033 2.147-4.891 3.961l-.47.993h-2.087l-.232.796-.232.796 1.081.084 1.081.083.022.964.022.964h-1.74l-.182.68c-.1.375-.224.79-.274.923-.076.197.152.24 1.255.24h1.349l.43.913c.555 1.178 1.647 2.384 2.774 3.06 2.12 1.274 5.224 1.419 7.68.358l.808-.35v-1.25c0-.687-.056-1.221-.125-1.187-2.367 1.199-2.41 1.212-4.064 1.217-1.507.005-1.67-.03-2.744-.582-.84-.43-1.293-.797-1.71-1.382l-.567-.796h6.36l.257-.869c.141-.478.256-.93.256-1.006s-1.694-.137-3.764-.137h-3.764l.05-.796.052-.796 4.026-.045 4.027-.045.243-.876.243-.878-3.978-.044c-2.187-.025-3.977-.083-3.977-.13 0-.046.197-.383.438-.749.502-.762 1.653-1.584 2.64-1.886 1.134-.346 3.186-.235 4.452.242l1.105.415.272-.866c.41-1.307.392-1.35-.771-1.76-1.325-.469-4.153-.605-5.351-.26m-11.88 5.57c-1.508.775-3.622 2.882-4.41 4.394-1.284 2.46-1.629 4.953-1.032 7.455.517 2.169 1.33 3.617 2.93 5.224C9.45 28.084 11.629 29 14.732 29c2.09 0 3.152-.257 5.007-1.212 1.592-.82 3.635-2.875 4.472-4.497.34-.659.618-1.243.618-1.299s-.659-.101-1.464-.101H21.9l-.324.604c-.938 1.749-3.418 3.393-5.658 3.751-5.206.832-9.94-3.922-9.112-9.15.356-2.25 1.993-4.74 3.735-5.682l.602-.326v-1.47c0-.809-.057-1.467-.126-1.462-.068.004-.65.278-1.293.609" clip-rule="evenodd"/></g></g><defs><clipPath id="aceur__circleClip"><circle cx="16" cy="16" r="13"/></clipPath></defs></svg>