<svg xmlns="http://www.w3.org/2000/svg" width="32" height="32" fill="none" viewBox="0 0 32 32"><circle cx="16" cy="16" r="15" stroke="url(#ta9q__paint0_linear_40_91)" stroke-width="2"/><g clip-path="url(#ta9q__circleClip)"><g style="transform:scale(.8125);transform-origin:50% 50%"><g clip-path="url(#ta9q__wnlkk__clip0_294_266)"><path fill="#fff" d="M16 32c8.837 0 16-7.163 16-16S24.837 0 16 0 0 7.163 0 16s7.163 16 16 16"/><path fill="url(#ta9q__wnlkk__paint0_linear_294_266)" d="M25.19 13.5v-5h-2.5V6h-5V3.5h-5V6h-5v2.5h-2.5v15h2.5V26h5v2.5h5V26h5v-2.5h2.5v-5h-5V21h-2.5v2.5h-5V21h-2.5V11h2.5V8.5h5V11h2.5v2.5z"/><path fill="#1682FE" d="M17.69 8.38h1.74V11h-1.74zm-5-4.88h1.74v2.62h-1.74z"/><path fill="#60D8A4" d="M7.69 6h1.74v2.62H7.69z"/><path fill="#F4BB3B" d="M5.19 16h1.76v7.5H5.19z"/><path fill="#60D8A4" d="M5.19 8.5h1.76V16H5.19z"/><path fill="#1682FE" d="M20.19 10.87h1.74v2.62h-1.74z"/><path fill="#FF5A5A" d="M20.19 18.5h1.74v2.62h-1.74zm-2.5 2.5h1.74v2.62h-1.74zm-5 4.87h1.74v2.62h-1.74z"/><path fill="#F4BB3B" d="M7.69 23.37h1.74v2.62H7.69z"/><path fill="#3A3A3A" d="M26.82 13.5v-5h-2.5V6h-5V3.5h-5V6h-5v2.5h-2.5v15h2.5V26h5v2.5h5V26h5v-2.5h2.5v-5h-5V21h-2.5v2.5h-5V21h-2.5V11h2.5V8.5h5V11h2.5v2.5z"/></g><defs><linearGradient id="ta9q__wnlkk__paint0_linear_294_266" x1="24.031" x2="10.449" y1="6.358" y2="32.882" gradientUnits="userSpaceOnUse"><stop stop-color="#1682FE"/><stop offset=".3" stop-color="#60D8A4"/><stop offset=".7" stop-color="#FCA75B"/><stop offset="1" stop-color="#FF5A5A"/></linearGradient><clipPath id="ta9q__wnlkk__clip0_294_266"><path fill="#fff" d="M0 0h32v32H0z"/></clipPath></defs></g></g><defs><linearGradient id="ta9q__paint0_linear_40_91" x1="26.976" x2="6.592" y1="4.32" y2="28.352" gradientUnits="userSpaceOnUse"><stop stop-color="#B6509E"/><stop offset="1" stop-color="#2EBAC6"/></linearGradient><clipPath id="ta9q__circleClip"><circle cx="16" cy="16" r="13"/></clipPath></defs></svg>