<svg width="32" height="32" viewBox="0 0 32 32" fill="none" xmlns="http://www.w3.org/2000/svg">
  <circle cx="16" cy="16" r="15" stroke="url(#paint0_linear_40_91)" stroke-width="2" />
  <g clip-path="url(#circleClip)">
    <g style="transform: scale(0.8125); transform-origin: 50% 50%;"><path fill="#fff" d="M16.51 32.01c8.837 0 16-7.163 16-16s-7.163-16-16-16-16 7.163-16 16 7.163 16 16 16"/><path fill="url(#a)" d="M25.7 13.51v-5h-2.5v-2.5h-5v-2.5h-5v2.5h-5v2.5H5.7v15h2.5v2.5h5v2.5h5v-2.5h5v-2.5h2.5v-5h-5v2.5h-2.5v2.5h-5v-2.5h-2.5v-10h2.5v-2.5h5v2.5h2.5v2.5z"/><path fill="#1682FE" d="M18.2 8.39h1.74v2.62H18.2zm-5-4.88h1.74v2.62H13.2z"/><path fill="#60D8A4" d="M8.2 6.01h1.74v2.62H8.2z"/><path fill="#F4BB3B" d="M5.7 16.01h1.76v7.5H5.7z"/><path fill="#60D8A4" d="M5.7 8.51h1.76v7.5H5.7z"/><path fill="#1682FE" d="M20.7 10.88h1.74v2.62H20.7z"/><path fill="#FF5A5A" d="M20.7 18.51h1.74v2.62H20.7zm-2.5 2.5h1.74v2.62H18.2zm-5 4.87h1.74v2.62H13.2z"/><path fill="#F4BB3B" d="M8.2 23.38h1.74V26H8.2z"/><path fill="#3A3A3A" d="M27.33 13.51v-5h-2.5v-2.5h-5v-2.5h-5v2.5h-5v2.5h-2.5v15h2.5v2.5h5v2.5h5v-2.5h5v-2.5h2.5v-5h-5v2.5h-2.5v2.5h-5v-2.5h-2.5v-10h2.5v-2.5h5v2.5h2.5v2.5z"/><defs><linearGradient id="a" x1="20.719" x2="8.844" y1="8.477" y2="27.031" gradientUnits="userSpaceOnUse"><stop stop-color="#1682FE"/><stop offset=".3" stop-color="#60D8A4"/><stop offset=".7" stop-color="#FCA75B"/><stop offset="1" stop-color="#FF5A5A"/></linearGradient></defs></g>
  </g>
  <defs>
    <clipPath id="circleClip">
      <circle cx="16" cy="16" r="13" />
    </clipPath>
    <linearGradient id="paint0_linear_40_91" x1="26.976" y1="4.32" x2="6.59198" y2="28.352"
      gradientUnits="userSpaceOnUse">
      <stop stop-color="#B6509E" />
      <stop offset="1" stop-color="#2EBAC6" />
    </linearGradient>
  </defs>
</svg>