<svg width="32" height="32" fill="none" viewBox="0 0 32 32" xmlns="http://www.w3.org/2000/svg"><path stroke="#9896FF" stroke-width="2" d="M16 31c8.284 0 15-6.716 15-15S24.284 1 16 1 1 7.716 1 16s6.716 15 15 15Z"/><g clip-path="url(#aeurc__circleClip)"><g style="transform:scale(.8125);transform-origin:50% 50%"><path fill="#3E73C4" d="M16 32c8.8 0 16-7.2 16-16S24.8 0 16 0 0 7.2 0 16s7.2 16 16 16"/><path fill="#fff" d="m10.22 16.75-.59.8c-.14.28.06.6.37.6h1.93c.61 2.52 2.37 4.24 4.72 4.21 1.67 0 2.93-.83 3.77-2.49.11-.21.01-.47-.2-.57l-.92-.41c-.2-.09-.44 0-.54.19-.43.88-1.16 1.44-2.11 1.44-.86 0-1.56-.42-2.09-1.28-.21-.33-.37-.7-.5-1.1h2.47c.16 0 .3-.09.37-.23l.59-.8c.14-.28-.06-.6-.37-.6h-3.34c0-.17-.02-.35-.02-.53s0-.35.01-.53h2.75c.16 0 .3-.09.37-.23l.59-.8c.14-.28-.06-.6-.37-.6h-3.06c.45-1.46 1.38-2.42 2.59-2.4.92 0 1.63.5 2.09 1.32.1.18.33.26.53.17l.93-.41c.22-.1.32-.37.2-.58-.85-1.54-2.1-2.32-3.74-2.32q-2.235 0-3.6 1.77c-.53.69-.9 1.51-1.12 2.44h-1.34c-.16 0-.3.09-.37.23l-.59.8c-.14.28.06.6.37.6h1.71c0 .17-.02.35-.02.53v.53h-1.12c-.16 0-.3.09-.37.23z"/><path fill="#fff" d="M8.31 23.49c-3.75-3.83-4.07-9.93-.74-14.13 1.75-2.21 4.16-3.53 6.71-3.94.25-.04.43-.25.43-.5V3.86c0-.31-.27-.56-.58-.51-3.01.44-5.88 1.95-7.99 4.5-4.19 5.05-3.85 12.54.78 17.18 2 2.01 4.49 3.21 7.07 3.61.31.05.59-.19.59-.51v-1.06c0-.25-.17-.46-.42-.51-2.14-.37-4.19-1.39-5.85-3.08zm9.71-20.13a.51.51 0 0 0-.59.51v1.06c0 .25.17.46.42.51 2.14.37 4.19 1.39 5.85 3.08 3.75 3.83 4.07 9.93.74 14.13a10.67 10.67 0 0 1-6.71 3.94c-.25.04-.43.25-.43.5v1.06c0 .31.27.56.58.51 3.01-.44 5.88-1.95 7.99-4.5 4.19-5.05 3.85-12.54-.78-17.18-2-2.01-4.49-3.21-7.07-3.61z"/></g></g><defs><clipPath id="aeurc__circleClip"><circle cx="16" cy="16" r="13"/></clipPath></defs></svg>