<svg xmlns="http://www.w3.org/2000/svg" width="32" height="32" fill="none" viewBox="0 0 32 32"><circle cx="16" cy="16" r="15" stroke="url(#dghs9__paint0_linear_40_91)" stroke-width="2"/><g clip-path="url(#dghs9__circleClip)"><g style="transform:scale(.8125);transform-origin:50% 50%"><g clip-path="url(#dghs9__o2ykg__clip0_294_3389)"><path fill="#1969FF" d="M16 32c8.83 0 16-7.16 16-16S24.84 0 16 0 0 7.17 0 16s7.16 16 16 16"/><path fill="#fff" d="M15.03 5.09c.54-.28 1.36-.28 1.9 0l5.5 2.9c.32.17.5.43.53.69v14.57c0 .29-.19.57-.54.76l-5.5 2.9c-.54.28-1.36.28-1.9 0l-5.5-2.9c-.35-.19-.52-.47-.53-.76V8.68c.02-.27.19-.51.53-.69l5.5-2.9zm7.06 11.69-5.17 2.73c-.54.28-1.36.28-1.9 0l-5.15-2.73v6.42l5.15 2.71c.3.16.62.32.93.33h.02c.31 0 .61-.16.91-.3l5.2-2.76v-6.4zM8.14 22.94c0 .56.06.93.19 1.18.11.21.26.38.55.58h.02c.06.05.13.1.22.15l.1.06.31.19-.44.74-.35-.21-.06-.04c-.09-.05-.17-.11-.26-.17-.83-.56-1.14-1.18-1.14-2.45v-.04h.86zm7.42-10.03s-.08.03-.11.05l-5.49 2.91h-.02v.01l.01.01 5.49 2.91s.07.03.11.05v-5.94zm.87 0v5.94s.08-.03.11-.05l5.49-2.91h.02v-.01l-.01-.01-5.49-2.91s-.07-.03-.11-.05zm5.66-3.19-4.94 2.59 4.94 2.59V9.71zm-12.22 0v5.19l4.94-2.59-4.94-2.59zm6.67-3.85c-.29-.15-.8-.15-1.09 0l-5.5 2.91h-.02v.01l.01.01 5.5 2.91c.29.15.8.15 1.09 0l5.5-2.91h.02v-.01l-.01-.01zm6.37.29.35.21.06.04c.1.06.18.12.26.17.83.56 1.14 1.18 1.14 2.45v.04h-.86c0-.56-.06-.93-.19-1.18-.11-.21-.26-.38-.56-.58h-.02c-.07-.06-.15-.11-.22-.15l-.1-.06-.31-.19.44-.74z"/></g><defs><clipPath id="dghs9__o2ykg__clip0_294_3389"><path fill="#fff" d="M0 0h32v32H0z"/></clipPath></defs></g></g><defs><linearGradient id="dghs9__paint0_linear_40_91" x1="26.976" x2="6.592" y1="4.32" y2="28.352" gradientUnits="userSpaceOnUse"><stop stop-color="#B6509E"/><stop offset="1" stop-color="#2EBAC6"/></linearGradient><clipPath id="dghs9__circleClip"><circle cx="16" cy="16" r="13"/></clipPath></defs></svg>