<svg xmlns="http://www.w3.org/2000/svg" width="32" height="32" fill="none" viewBox="0 0 32 32"><circle cx="16" cy="16" r="15" stroke="url(#kzxa4__paint0_linear_40_91)" stroke-width="2"/><g clip-path="url(#kzxa4__circleClip)"><g style="transform:scale(.8125);transform-origin:50% 50%"><path fill="#66CF67" d="M16 32c8.837 0 16-7.163 16-16S24.837 0 16 0 0 7.163 0 16s7.163 16 16 16"/><path fill="#fff" d="M10.12 13.91c0 1.44 1.17 2.6 2.6 2.6s2.6-1.17 2.6-2.6-1.17-2.6-2.6-2.6-2.6 1.17-2.6 2.6m6.56 0c0 1.44 1.17 2.6 2.6 2.6s2.6-1.17 2.6-2.6-1.17-2.6-2.6-2.6-2.6 1.17-2.6 2.6"/><path fill="#fff" d="M28.34 26.18V17.3h-3.35c-.68 4.48-4.37 7.74-9 7.74-5.11 0-9.19-3.98-9.19-9.19s4.08-9.26 9.19-9.26c4.45 0 8.13 3.08 9 7.32h3.35c-.92-6.03-6.17-10.64-12.35-10.64-6.82 0-12.35 5.63-12.35 12.58s5.53 12.58 12.35 12.58c4.29 0 7.28-1.99 9.12-5.12.04.01.09.02.13.04v5.7c1.15-.82 2.2-1.79 3.1-2.88z"/></g></g><defs><linearGradient id="kzxa4__paint0_linear_40_91" x1="26.976" x2="6.592" y1="4.32" y2="28.352" gradientUnits="userSpaceOnUse"><stop stop-color="#B6509E"/><stop offset="1" stop-color="#2EBAC6"/></linearGradient><clipPath id="kzxa4__circleClip"><circle cx="16" cy="16" r="13"/></clipPath></defs></svg>