<svg width="32" height="32" fill="none" viewBox="0 0 32 32" xmlns="http://www.w3.org/2000/svg"><circle cx="16" cy="16" r="15" stroke="url(#agnosissdai__paint0_linear_40_91)" stroke-width="2"/><g clip-path="url(#agnosissdai__circleClip)"><g style="transform:scale(.8125);transform-origin:50% 50%"><g clip-path="url(#agnosissdai__savingsxdai__clip0_294_295)"><path fill="#33453D" d="M16 32c8.837 0 16-7.163 16-16S24.837 0 16 0 0 7.163 0 16s7.163 16 16 16"/><path fill="#F7C04B" d="M17.24 8.01h-6.86v4.47H8.34v1.15c0 .78.63 1.42 1.42 1.42h.62v1.91h-.62c-.78 0-1.42.63-1.42 1.42v1.15h2.04v4.53h6.86a8.02 8.02 0 0 0 8.02-8.02 8.02 8.02 0 0 0-8.02-8.02zm.01 13.52h-4.31v-2.01h4.87a2.57 2.57 0 0 0 2.57-2.57h-7.44v-1.91h7.44a2.57 2.57 0 0 0-2.57-2.57h-4.87v-1.94h4.31c3.04 0 5.5 2.46 5.5 5.5s-2.46 5.5-5.5 5.5"/></g><defs><clipPath id="agnosissdai__savingsxdai__clip0_294_295"><path fill="#fff" d="M0 0h32v32H0z"/></clipPath></defs></g></g><defs><linearGradient id="agnosissdai__paint0_linear_40_91" x1="26.976" x2="6.592" y1="4.32" y2="28.352" gradientUnits="userSpaceOnUse"><stop stop-color="#B6509E"/><stop offset="1" stop-color="#2EBAC6"/></linearGradient><clipPath id="agnosissdai__circleClip"><circle cx="16" cy="16" r="13"/></clipPath></defs></svg>