<svg xmlns="http://www.w3.org/2000/svg" fill="none" viewBox="0 0 32 32"><circle cx="16" cy="16" r="15" stroke="url(#agusd__paint0_linear_40_91)" stroke-width="2"/><g clip-path="url(#agusd__circleClip)"><g style="transform:scale(.8125);transform-origin:50% 50%"><g clip-path="url(#agusd__geminidollar__clip0_294_3797)"><path fill="#fff" d="M16 32c8.836 0 16-7.164 16-16S24.836 0 16 0 0 7.164 0 16s7.164 16 16 16"/><path fill="#26DDF9" d="M19.12 6.117a6.923 6.923 0 0 0-6.846 6.147 6.89 6.89 0 0 0-5.757 4.557 6.884 6.884 0 0 0 4.208 8.785c.246.093.503.164.77.226a6.886 6.886 0 0 0 8.374-5.983 6.89 6.89 0 0 0 6.148-7.215c-.195-3.654-3.223-6.517-6.887-6.517zm5.265 7.666a5.38 5.38 0 0 1-1.509 2.987 5.38 5.38 0 0 1-2.986 1.508v-4.495zM7.728 18.34a5.36 5.36 0 0 1 4.495-4.495v4.495zm10.55 1.55a5.33 5.33 0 0 1-6.055 4.495 5.31 5.31 0 0 1-4.495-4.495zm.062-6.107v4.557h-4.557v-4.557zm6.045-1.56h-10.55a5.33 5.33 0 0 1 6.055-4.495 5.31 5.31 0 0 1 4.495 4.495"/><path fill="#26DDF9" d="M16 32a15.9 15.9 0 0 1-8.94-2.74A16 16 0 0 1 .329 19.212a16.2 16.2 0 0 1 0-6.445A15.9 15.9 0 0 1 2.74 7.051 16 16 0 0 1 12.788.318a16.2 16.2 0 0 1 6.445 0 15.9 15.9 0 0 1 5.716 2.412 16 16 0 0 1 6.733 10.048c.43 2.124.43 4.32 0 6.445a15.9 15.9 0 0 1-2.412 5.716A15.99 15.99 0 0 1 16 32M16 .503a15.531 15.531 0 0 0-8.662 2.648 15.54 15.54 0 0 0-5.614 6.814c-.4.934-.698 1.91-.903 2.905a15.6 15.6 0 0 0 0 6.25c.41 1.98 1.2 3.87 2.33 5.542a15.54 15.54 0 0 0 6.814 5.614c.934.4 1.91.698 2.905.903 2.063.42 4.187.42 6.25 0 1.98-.41 3.869-1.2 5.542-2.33a15.54 15.54 0 0 0 5.614-6.814c.4-.934.698-1.91.903-2.905a15.6 15.6 0 0 0 0-6.25 15.6 15.6 0 0 0-2.33-5.542 15.54 15.54 0 0 0-6.815-5.614c-.933-.4-1.908-.698-2.904-.903a16 16 0 0 0-3.12-.318z"/></g><defs><clipPath id="agusd__geminidollar__clip0_294_3797"><path fill="#fff" d="M0 0h32v32H0z"/></clipPath></defs></g></g><defs><linearGradient id="agusd__paint0_linear_40_91" x1="26.976" x2="6.592" y1="4.32" y2="28.352" gradientUnits="userSpaceOnUse"><stop stop-color="#B6509E"/><stop offset="1" stop-color="#2EBAC6"/></linearGradient><clipPath id="agusd__circleClip"><circle cx="16" cy="16" r="13"/></clipPath></defs></svg>