<svg width="32" height="32" fill="none" viewBox="0 0 32 32" xmlns="http://www.w3.org/2000/svg"><path stroke="#9896FF" stroke-width="2" d="M16 31c8.284 0 15-6.716 15-15S24.284 1 16 1 1 7.716 1 16s6.716 15 15 15Z"/><g clip-path="url(#akncl__circleClip)"><g style="transform:scale(.8125);transform-origin:50% 50%"><path fill="#fff" d="M16 32c8.837 0 16-7.163 16-16S24.837 0 16 0 0 7.163 0 16s7.163 16 16 16"/><path fill="#65C7A0" d="m14.65 15.79 9.63 5.52c.24.14.55.07.7-.17.05-.08.07-.17.07-.27V10.71c0-.28-.22-.51-.5-.51-.1 0-.19.03-.27.08l-9.63 5.52zm9.42-7.96-6.58-4.84a.514.514 0 0 0-.73.1c-.04.05-.07.12-.09.18l-2.4 10.78 9.75-5.39c.24-.12.33-.42.21-.65a.5.5 0 0 0-.15-.17m-6.6 20.75 6.59-4.84a.495.495 0 0 0-.06-.84l-9.76-5.39 2.4 10.78c.07.28.35.45.63.39.07-.02.13-.05.19-.09"/><path fill="#65C7A0" d="m12.14 15.6 2.5-11.71a.49.49 0 0 0-.39-.58.47.47 0 0 0-.38.08L7.46 8.31c-.33.25-.52.64-.52 1.06v12.48c0 .42.19.82.52 1.08l6.38 4.9c.23.16.54.1.69-.13.08-.11.1-.25.08-.38l-2.47-11.71z"/></g></g><defs><clipPath id="akncl__circleClip"><circle cx="16" cy="16" r="13"/></clipPath></defs></svg>