<svg xmlns="http://www.w3.org/2000/svg" width="32" height="32" fill="none" viewBox="0 0 32 32"><circle cx="16" cy="16" r="15" stroke="url(#5tefy__paint0_linear_40_91)" stroke-width="2"/><g clip-path="url(#5tefy__circleClip)"><g style="transform:scale(.8125);transform-origin:50% 50%"><g clip-path="url(#5tefy__sh8yg__clip0_297_35)"><path fill="#F69988" d="M16 32c8.837 0 16-7.163 16-16S24.837 0 16 0 0 7.163 0 16s7.163 16 16 16"/><path fill="#fff" fill-rule="evenodd" d="m16.01 4.69 5.614 8.765-5.614 3.263-5.614-3.263zm-3.9 8.354L16 6.958l3.89 6.086L16 15.312z" clip-rule="evenodd"/><path fill="#fff" d="M16 18.648 9.493 14.86l-.174.277A7.91 7.91 0 0 0 10.396 25c3.1 3.089 8.129 3.089 11.228 0a7.91 7.91 0 0 0 1.078-9.863l-.175-.277-6.507 3.787z"/></g><defs><clipPath id="5tefy__sh8yg__clip0_297_35"><path fill="#fff" d="M0 0h32v32H0z"/></clipPath></defs></g></g><defs><linearGradient id="5tefy__paint0_linear_40_91" x1="26.976" x2="6.592" y1="4.32" y2="28.352" gradientUnits="userSpaceOnUse"><stop stop-color="#B6509E"/><stop offset="1" stop-color="#2EBAC6"/></linearGradient><clipPath id="5tefy__circleClip"><circle cx="16" cy="16" r="13"/></clipPath></defs></svg>