<svg xmlns="http://www.w3.org/2000/svg" width="32" height="32" fill="none" viewBox="0 0 32 32"><circle cx="16" cy="16" r="15" stroke="url(#mt0qq__paint0_linear_40_91)" stroke-width="2"/><g clip-path="url(#mt0qq__circleClip)"><g style="transform:scale(.8125);transform-origin:50% 50%"><g clip-path="url(#mt0qq__wk992__clip0_297_24)"><path fill="url(#mt0qq__wk992__paint0_linear_297_24)" d="M16 32c8.836 0 16-7.164 16-16S24.836 0 16 0 0 7.164 0 16s7.164 16 16 16"/><path fill="#fff" d="m23.04 6.343-1.96-1.96-6.537 6.537 6.537 6.537 1.96-1.96-4.587-4.587 4.587-4.588zM17.457 21.08l-6.537-6.537-1.96 1.96 4.587 4.587-4.587 4.588 1.96 1.96 6.537-6.537zm-3.756-9.329 6.538 6.538-1.95 1.95L11.75 13.7z"/></g><defs><linearGradient id="mt0qq__wk992__paint0_linear_297_24" x1="0" x2="32" y1="16" y2="16" gradientUnits="userSpaceOnUse"><stop stop-color="#01AEC9"/><stop offset="1" stop-color="#1E8FCA"/></linearGradient><clipPath id="mt0qq__wk992__clip0_297_24"><path fill="#fff" d="M0 0h32v32H0z"/></clipPath></defs></g></g><defs><linearGradient id="mt0qq__paint0_linear_40_91" x1="26.976" x2="6.592" y1="4.32" y2="28.352" gradientUnits="userSpaceOnUse"><stop stop-color="#B6509E"/><stop offset="1" stop-color="#2EBAC6"/></linearGradient><clipPath id="mt0qq__circleClip"><circle cx="16" cy="16" r="13"/></clipPath></defs></svg>