<svg width="32" height="32" fill="none" viewBox="0 0 32 32" xmlns="http://www.w3.org/2000/svg"><path stroke="#9896FF" stroke-width="2" d="M16 31c8.284 0 15-6.716 15-15S24.284 1 16 1 1 7.716 1 16s6.716 15 15 15Z"/><g clip-path="url(#alend__circleClip)"><g style="transform:scale(.8125);transform-origin:50% 50%"><g clip-path="url(#alend__aave[old]__clip0_297_24)"><path fill="url(#alend__aave[old]__paint0_linear_297_24)" d="M16 32c8.836 0 16-7.164 16-16S24.836 0 16 0 0 7.164 0 16s7.164 16 16 16"/><path fill="#fff" d="m23.04 6.343-1.96-1.96-6.537 6.537 6.537 6.537 1.96-1.96-4.587-4.587 4.587-4.588zM17.457 21.08l-6.537-6.537-1.96 1.96 4.587 4.587-4.587 4.588 1.96 1.96 6.537-6.537zm-3.756-9.329 6.538 6.538-1.95 1.95L11.75 13.7z"/></g><defs><linearGradient id="alend__aave[old]__paint0_linear_297_24" x1="0" x2="32" y1="16" y2="16" gradientUnits="userSpaceOnUse"><stop stop-color="#01AEC9"/><stop offset="1" stop-color="#1E8FCA"/></linearGradient><clipPath id="alend__aave[old]__clip0_297_24"><path fill="#fff" d="M0 0h32v32H0z"/></clipPath></defs></g></g><defs><clipPath id="alend__circleClip"><circle cx="16" cy="16" r="13"/></clipPath></defs></svg>