<svg width="32" height="32" viewBox="0 0 32 32" fill="none" xmlns="http://www.w3.org/2000/svg">
  <circle cx="16" cy="16" r="15" stroke="url(#paint0_linear_40_91)" stroke-width="2" />
  <g clip-path="url(#circleClip)">
    <g style="transform: scale(0.8125); transform-origin: 50% 50%;"><g clip-path="url(#clip0_297_158)"><path fill="#fff" d="M16 32c8.84 0 16-7.16 16-16S24.84 0 16 0 0 7.16 0 16s7.16 16 16 16"/><path fill="#3659D1" d="m16.02 2.43-2.49 1.43-6.79 3.92-2.49 1.43v13.57l2.49 1.43 6.85 3.92 2.49 1.43 2.49-1.43 6.72-3.92 2.49-1.43V9.21l-2.49-1.43-6.79-3.92-2.49-1.43zm-6.78 17.5v-7.85l6.79-3.92 6.79 3.92v7.84l-6.79 3.92-6.79-3.92z"/></g><defs><clipPath id="clip0_297_158"><path fill="#fff" d="M0 0h32v32H0z"/></clipPath></defs></g>
  </g>
  <defs>
    <clipPath id="circleClip">
      <circle cx="16" cy="16" r="13" />
    </clipPath>
    <linearGradient id="paint0_linear_40_91" x1="26.976" y1="4.32" x2="6.59198" y2="28.352"
      gradientUnits="userSpaceOnUse">
      <stop stop-color="#B6509E" />
      <stop offset="1" stop-color="#2EBAC6" />
    </linearGradient>
  </defs>
</svg>