<svg xmlns="http://www.w3.org/2000/svg" xmlns:xlink="http://www.w3.org/1999/xlink" viewBox="0 0 40 40"><defs><path id="1g3ab__a" d="M0 .01h22.177v22.553H0z"/></defs><g fill="none" fill-rule="evenodd"><path fill="#FFF" d="M0 0h40v40H0z"/><path fill="#81BA28" d="m29.55 17.398-.099.126q.048-.064.1-.126"/><path fill="#FFF" d="m29.55 17.398-.099.126q.048-.064.1-.126"/><path fill="#81BA28" d="M34.918 8.923c-.315.502-4.53 7.132-4.936 7.768l-.275.432-.175.274a4.47 4.47 0 0 0-3.623-3.288c.08-.126 2.553-4.038 3.178-5.032.07-.114.133-.198.291-.198q2.729.007 5.456.008c.016 0 .033.013.084.036"/><path fill="#E52F2E" d="M35.97 28.144c-.91 1.08-1.936 1.843-3.24 2.15-1.79.42-3.495.23-5.023-.877-1.112-.803-1.788-1.927-2.28-3.178l-.052-.134-.012-.03a41 41 0 0 1-.564-1.598 21 21 0 0 1-.463-1.585 4.45 4.45 0 0 0 4.208-1.41l.01-.009c.3.744.612 1.91.908 2.818a10 10 0 0 0 .242.679c.33.821.679 1.624 1.34 2.235q.066.06.136.118c.86.713 1.89.899 2.963.934.584.02 1.162-.06 1.827-.113"/><g transform="translate(4 8)"><mask id="1g3ab__b" fill="#fff"><use xlink:href="#1g3ab__a"/></mask><path fill="#4BBCEC" d="M17.438 12.897c-1.057 1.479-2.204 2.885-3.552 4.133-1.137 1.05-2.347 1.99-3.808 2.557a4.6 4.6 0 0 1-1.735.332c-1.696.003-2.914-1.06-3.274-2.835-.32-1.579-.159-3.133.284-4.654.82-2.818 2.26-5.31 4.172-7.524.865-1.001 1.858-1.862 3.156-2.274.917-.292 1.84-.374 2.736.086.69.355 1.172.928 1.556 1.583.547.932.886 1.943 1.18 2.97a4.44 4.44 0 0 1 3.755-1.161l.269-.423c-.204-.469-.376-.895-.57-1.31-.607-1.29-1.436-2.407-2.63-3.213C17.56.208 15.986-.1 14.297.042c-2.154.18-4.163.806-5.999 1.94-2.916 1.803-5.206 4.216-6.813 7.247-1.03 1.94-1.622 4.007-1.458 6.23.213 2.87 1.659 4.921 4.23 6.176 2 .976 4.129 1.064 6.286.799a13.2 13.2 0 0 0 5.04-1.71c1.891-1.094 3.53-2.52 5.056-4.075.052-.054.086-.134.16-.172a20 20 0 0 1-.462-1.585 4.47 4.47 0 0 1-2.899-1.995" mask="url(#1g3ab__b)"/></g><path fill="#FFD400" d="M27.469 18.517a2.256 2.256 0 1 1-4.513 0 2.256 2.256 0 0 1 4.513 0"/></g></svg>