<svg xmlns="http://www.w3.org/2000/svg" fill="none" viewBox="0 0 32 32"><circle cx="16" cy="16" r="15" stroke="url(#alusd__paint0_linear_40_91)" stroke-width="2"/><g clip-path="url(#alusd__circleClip)"><g style="transform:scale(.8125);transform-origin:50% 50%"><g clip-path="url(#alusd__lusdstablecoin__clip0_297_185)"><path fill="#705ED6" d="M31.368 20.52a15.98 15.98 0 0 1-12.517 11.294v-4.56a7.5 7.5 0 0 0 3.962-3.487c.57-1.082.87-2.295.86-3.528 0-4.029-2.911-5.642-5.633-6.844l-1.38-.612c-1.481-.661-2.602-1.252-2.602-2.265 0-1.393 1.22-2.144 2.361-2.144 1.221 0 1.912.45 2.642 1.723l.57.982 3.652-2.345-.48-.881a7.12 7.12 0 0 0-3.952-3.408V.276c.35.06.7.14 1.06.23.03 0 .07.02.11.02s.08.02.12.03h.03c.1.021.19.051.29.081C28.948 3.112 33.83 12.012 31.359 20.51z"/><path fill="#5BB2E4" d="M19.201 20.48c0 1.834-1.66 2.976-3.192 2.976-1.84 0-2.891-1.523-3.092-2.936l-.17-1.223-4.412 1.243.2.992c.63 3.117 2.752 5.351 5.643 6.033v4.42a15 15 0 0 1-2.321-.452c-.11-.02-.21-.06-.32-.09A16.03 16.03 0 0 1 0 16.05V.637C0 .287.28.006.63.006h13.548v4.41a6.5 6.5 0 0 0-3.772 2.925 6.13 6.13 0 0 0-.81 3.107v.09c.04 3.598 2.681 5.101 5.172 6.234l1.251.54.1.051c1.981.902 3.092 1.503 3.092 3.107z"/><path fill="#fff" d="M23.684 20.26c0 1.232-.29 2.435-.86 3.527a7.5 7.5 0 0 1-1.122 1.573 7.6 7.6 0 0 1-2.841 1.914v4.58l-1.28.11s-2.742.08-3.403 0v-4.4c-2.892-.67-5.013-2.915-5.653-6.032l-.2-.992 4.412-1.243.17 1.223c.2 1.413 1.261 2.936 3.092 2.936 1.531 0 3.192-1.132 3.192-2.976 0-1.614-1.12-2.205-3.092-3.107l-.1-.05-1.25-.541c-2.492-1.133-5.133-2.636-5.173-6.234v-.09c0-1.092.27-2.164.81-3.107a6.5 6.5 0 0 1 3.772-2.926V.005c2.882-.02 3.102 0 4.683.271v4.19a7.12 7.12 0 0 1 3.952 3.407l.48.882-3.642 2.345-.57-.983c-.73-1.272-1.42-1.723-2.642-1.723-1.15 0-2.36.751-2.36 2.144 0 1.012 1.13 1.604 2.6 2.265l1.381.611c2.732 1.193 5.634 2.807 5.634 6.845z"/></g><defs><clipPath id="alusd__lusdstablecoin__clip0_297_185"><path fill="#fff" d="M0 0h32v32H0z"/></clipPath></defs></g></g><defs><linearGradient id="alusd__paint0_linear_40_91" x1="26.976" x2="6.592" y1="4.32" y2="28.352" gradientUnits="userSpaceOnUse"><stop stop-color="#B6509E"/><stop offset="1" stop-color="#2EBAC6"/></linearGradient><clipPath id="alusd__circleClip"><circle cx="16" cy="16" r="13"/></clipPath></defs></svg>