<svg xmlns="http://www.w3.org/2000/svg" width="32" height="32" fill="none" viewBox="0 0 32 32"><circle cx="16" cy="16" r="15" stroke="url(#mai(mimatic)__paint0_linear_40_91)" stroke-width="2"/><g clip-path="url(#mai(mimatic)__circleClip)"><g style="transform:scale(.8125);transform-origin:50% 50%"><g clip-path="url(#mai(mimatic)__mai(mimatic)__clip0_298_258)"><path fill="url(#mai(mimatic)__mai(mimatic)__paint0_linear_298_258)" d="M16 32c8.837 0 16-7.163 16-16S24.837 0 16 0 0 7.163 0 16s7.163 16 16 16"/><path stroke="url(#mai(mimatic)__mai(mimatic)__paint1_linear_298_258)" stroke-miterlimit="5.12" stroke-width=".75" d="M16 28.81c7.075 0 12.81-5.735 12.81-12.81S23.075 3.19 16 3.19 3.19 8.925 3.19 16 8.925 28.81 16 28.81Z"/><path fill="#fff" d="M24.61 17.54h-2.56v-2.29h2.56v-1.84h-2.56V9.68h-1.56l-1.77 3.73h-5.64l-1.76-3.73H9.74v3.73H7.18v1.84h2.56v2.29H7.18v1.84h2.56v3.12h1.74v-3.12H14l1.47 3.12h.86l1.46-3.12h2.51v3.12h1.74v-3.12h2.56v-1.84zm-6.76-2.29-1.09 2.29h-1.74l-1.08-2.29zm-6.37 2.29v-2.29h.58l1.08 2.29zm7.17 0 1.08-2.29h.57v2.29z"/></g></g></g><defs><linearGradient id="mai(mimatic)__paint0_linear_40_91" x1="26.976" x2="6.592" y1="4.32" y2="28.352" gradientUnits="userSpaceOnUse"><stop stop-color="#B6509E"/><stop offset="1" stop-color="#2EBAC6"/></linearGradient><clipPath id="mai(mimatic)__circleClip"><circle cx="16" cy="16" r="13"/></clipPath></defs></svg>