<svg xmlns="http://www.w3.org/2000/svg" width="32" height="32" fill="none" viewBox="0 0 32 32"><circle cx="16" cy="16" r="15" stroke="url(#a68f9__paint0_linear_40_91)" stroke-width="2"/><g clip-path="url(#a68f9__circleClip)"><g style="transform:scale(.8125);transform-origin:50% 50%"><g clip-path="url(#a68f9__qku1q__clip0_297_229)"><path fill="url(#a68f9__qku1q__paint0_linear_297_229)" d="M16 32c8.837 0 16-7.163 16-16S24.837 0 16 0 0 7.163 0 16s7.163 16 16 16"/><path fill="url(#a68f9__qku1q__paint1_linear_297_229)" fill-rule="evenodd" d="M11.32 10.4v11.99h9.99z" clip-rule="evenodd"/><path fill="#fff" fill-rule="evenodd" d="M1.33 22.38h9.99V10.39z" clip-rule="evenodd"/><path fill="#ED9D6F" fill-rule="evenodd" d="M3.19 25.58c.91 1.21 1.99 2.28 3.2 3.2h19.18c1.21-.91 2.28-1.99 3.2-3.2z" clip-rule="evenodd"/><path fill="#EA445A" fill-rule="evenodd" d="M6.39 28.78a15.99 15.99 0 0 0 19.18 0z" clip-rule="evenodd"/><path fill="url(#a68f9__qku1q__paint2_linear_297_229)" fill-rule="evenodd" d="M21.44 16.79v8.79h7.33z" clip-rule="evenodd"/><path fill="#F4BE6C" fill-rule="evenodd" d="M1.33 22.38c.49 1.13 1.12 2.21 1.86 3.2h18.26v-3.2z" clip-rule="evenodd"/><path fill="#fff" fill-rule="evenodd" d="M14.12 25.58h7.32v-8.79z" clip-rule="evenodd"/><path fill="#F6CA6E" d="M21.44 14.4a4 4 0 1 0 0-8 4 4 0 0 0 0 8M11.32 8a2 2 0 1 0 0-4 2 2 0 0 0 0 4"/></g><defs><linearGradient id="a68f9__qku1q__paint0_linear_297_229" x1="26.92" x2="3.88" y1="5.07" y2="28.11" gradientUnits="userSpaceOnUse"><stop stop-color="#EA445A"/><stop offset="1" stop-color="#F4BE6C"/></linearGradient><linearGradient id="a68f9__qku1q__paint1_linear_297_229" x1="15.936" x2="15.936" y1="1.936" y2="32.653" gradientUnits="userSpaceOnUse"><stop stop-color="#9730AC"/><stop offset="1" stop-color="#EA445A"/></linearGradient><linearGradient id="a68f9__qku1q__paint2_linear_297_229" x1="15.198" x2="15.198" y1="-2.891" y2="30.398" gradientUnits="userSpaceOnUse"><stop stop-color="#9730AC"/><stop offset="1" stop-color="#EA445A"/></linearGradient><clipPath id="a68f9__qku1q__clip0_297_229"><path fill="#fff" d="M0 0h32v32H0z"/></clipPath></defs></g></g><defs><linearGradient id="a68f9__paint0_linear_40_91" x1="26.976" x2="6.592" y1="4.32" y2="28.352" gradientUnits="userSpaceOnUse"><stop stop-color="#B6509E"/><stop offset="1" stop-color="#2EBAC6"/></linearGradient><clipPath id="a68f9__circleClip"><circle cx="16" cy="16" r="13"/></clipPath></defs></svg>