<svg xmlns="http://www.w3.org/2000/svg" width="32" height="32" fill="none" viewBox="0 0 32 32"><circle cx="16" cy="16" r="15" stroke="url(#cm0rd__paint0_linear_40_91)" stroke-width="2"/><g clip-path="url(#cm0rd__circleClip)"><g style="transform:scale(.8125);transform-origin:50% 50%"><g clip-path="url(#cm0rd__i99c2f__clip0_298_364)"><path fill="url(#cm0rd__i99c2f__paint0_linear_298_364)" d="M16 32c8.837 0 16-7.163 16-16S24.837 0 16 0 0 7.163 0 16s7.163 16 16 16"/><path fill="#fff" d="m20.22 19.15 4.14-2.39c.22-.13.35-.36.35-.61v-4.78c0-.25-.14-.49-.35-.61l-4.14-2.39a.7.7 0 0 0-.71 0l-4.14 2.39c-.22.13-.35.36-.35.61v8.53l-2.9 1.67-2.9-1.67v-3.35l2.9-1.67 1.91 1.1v-2.25l-1.56-.9a.7.7 0 0 0-.71 0l-4.14 2.39c-.22.13-.35.36-.35.61v4.77c0 .25.14.49.35.61l4.14 2.39c.22.13.49.13.71 0l4.14-2.39c.22-.13.35-.36.35-.61v-8.53l.05-.03 2.85-1.64 2.9 1.67v3.35l-2.9 1.67-1.91-1.1v2.25l1.56.9c.22.13.49.13.71 0z"/></g><defs><linearGradient id="cm0rd__i99c2f__paint0_linear_298_364" x1=".1" x2="24.13" y1="6.27" y2="20.98" gradientUnits="userSpaceOnUse"><stop stop-color="#9433BD"/><stop offset="1" stop-color="#7342DB"/></linearGradient><clipPath id="cm0rd__i99c2f__clip0_298_364"><path fill="#fff" d="M0 0h32v32H0z"/></clipPath></defs></g></g><defs><linearGradient id="cm0rd__paint0_linear_40_91" x1="26.976" x2="6.592" y1="4.32" y2="28.352" gradientUnits="userSpaceOnUse"><stop stop-color="#B6509E"/><stop offset="1" stop-color="#2EBAC6"/></linearGradient><clipPath id="cm0rd__circleClip"><circle cx="16" cy="16" r="13"/></clipPath></defs></svg>