<svg width="32" height="32" fill="none" viewBox="0 0 32 32" xmlns="http://www.w3.org/2000/svg"><path stroke="#9896FF" stroke-width="2" d="M16 31c8.284 0 15-6.716 15-15S24.284 1 16 1 1 7.716 1 16s6.716 15 15 15Z"/><g clip-path="url(#amusd__circleClip)"><g style="transform:scale(.8125);transform-origin:50% 50%"><path fill="#D0E5FC" d="M16 0c8.84 0 16 7.16 16 16s-7.16 16-16 16S0 24.84 0 16 7.16 0 16 0"/><path fill="#EB6732" d="m4.62 20.33 8.8 5.23-.35 3.59-8.45-8.81zm22.72 0-8.8 5.23.35 3.59 8.45-8.81z"/><path fill="#160162" d="M9.51 16.87h8.52V15.2h-6.26L9.5 13.24V9.23l2.27-2.28h2.12v-2.2h4.14v2.2h4.38v3.35h-8.52v1.67h6.29l2.27 2.16v3.82l-2.27 2.28h-2.15v2.2l-4.14.03v-2.22H9.51z"/><path fill="#EB6732" d="m13.47 31.74-.4-2.59-2.63 1.8c.97.36 1.98.62 3.03.79m8.05-.79-2.63-1.8-.4 2.59c1.05-.17 2.06-.43 3.03-.79"/><path fill="#EF9267" d="M15.98 31.95c.86 0 1.69-.09 2.51-.22l.4-2.59-.35-3.59h-5.13l-.35 3.59.4 2.59c.82.13 1.65.22 2.51.22z"/><path fill="#5E1E0A" d="m10.43 30.94 2.63-1.8-8.45-8.81-1.35 5.28c1.82 2.4 4.3 4.26 7.17 5.33m18.26-5.33-1.35-5.28-8.45 8.81 2.63 1.8c2.87-1.07 5.35-2.93 7.17-5.33"/></g></g><defs><clipPath id="amusd__circleClip"><circle cx="16" cy="16" r="13"/></clipPath></defs></svg>