<svg xmlns="http://www.w3.org/2000/svg" width="33" height="32" fill="none"><path fill="#213147" d="M16.59 32c8.84 0 16-7.16 16-16s-7.17-16-16-16-16 7.16-16 16 7.16 16 16 16"/><path fill="#12AAFF" d="m18.39 17.86-1.19 3.25c-.03.09-.03.19 0 .28l2.04 5.6 2.36-1.36-2.83-7.77c-.06-.18-.32-.18-.38 0m2.37-5.47c-.06-.18-.32-.18-.38 0l-1.19 3.25c-.03.09-.03.19 0 .28l3.34 9.16 2.36-1.36-4.14-11.33z"/><path fill="#9DCCED" d="m26.5 9.19-9-5.2c-.28-.16-.6-.25-.93-.25-.32 0-.64.08-.93.25l-9 5.2c-.57.33-.93.94-.93 1.61v10.39c0 .66.35 1.28.93 1.61l3.98 2.3.53-1.45-3.75-2.16a.35.35 0 0 1-.17-.29V10.8c0-.12.06-.23.17-.29l9-5.2c.05-.03.11-.05.17-.05s.12.02.17.04l9 5.2c.1.06.17.17.17.29v10.39c0 .12-.06.23-.17.29l-9 5.2c-.05.03-.11.04-.17.04s-.12-.02-.17-.04l-3.67-2.12-1.18 1.08 4.09 2.36c.28.16.6.25.93.25.32 0 .64-.08.93-.25l9-5.2c.57-.33.93-.94.93-1.61V10.79c0-.66-.35-1.28-.93-1.61z"/><path fill="#fff" d="M15.81 10.06h-2.28a.41.41 0 0 0-.38.27L8.26 23.74l2.36 1.36 5.39-14.77a.2.2 0 0 0-.19-.27zm3.99 0h-2.28a.41.41 0 0 0-.38.27l-5.59 15.31L13.91 27l6.08-16.67a.204.204 0 0 0-.12-.26c-.02 0-.05-.01-.07-.01"/></svg>