<svg xmlns="http://www.w3.org/2000/svg" width="32" height="32" fill="none" viewBox="0 0 32 32"><circle cx="16" cy="16" r="15" stroke="url(#prtsu__paint0_linear_40_91)" stroke-width="2"/><g clip-path="url(#prtsu__circleClip)"><g style="transform:scale(.8125);transform-origin:50% 50%"><g clip-path="url(#prtsu__adhtr__clip0_298_750)"><path fill="#183055" d="M16 32c8.837 0 16-7.163 16-16S24.837 0 16 0 0 7.163 0 16s7.163 16 16 16"/><path fill="#fff" d="m9.53 9.84 1.56-.9.21.36 5.76-3.32-.42-.24-.42-.25-.21-.12-9.38 5.42v.24l2.69-1.56.21.36zm0 3.41 4.51-2.61.21.37 5.76-3.32-.42-.25-.63-.36L6.64 14.2v.24l2.69-1.56.21.37zm0 1.7 5.99-3.46.21.36 5.76-3.33-.42-.24-.42-.25-.21-.12-13.8 7.97v.25l2.69-1.56.21.37zm0 1.7 7.5-4.33.21.36 5.71-3.3-.42-.25-.63-.36-15.27 8.82v.24l2.69-1.56.21.37zm0 1.7 8.98-5.18.21.37 5.71-3.3-.42-.24-.42-.25-.21-.12L6.63 19.3v.24l2.69-1.55zm15.53-7.74-.21-.12L6.63 21.02v.24l2.69-1.55.21.36 8.98-5.18.21.36 6.66-3.84v-.61l-.32-.18zM7.78 22.28l1.51-.87.21.36 8.96-5.17.21.37 6.7-3.87v-1.22L7.57 22.16zm10.68-3.97.21.37 6.7-3.87v-1.22L9.04 23.02l.21.12 1.53-.89.21.37m-.26 1.37 1.53-.89.21.37 5.98-3.46.21.37 6.7-3.87v-1.22L10.5 23.87l.21.12zm1.48.85 1.53-.89.21.36 4.51-2.6.21.36 6.7-3.87v-1.21l-13.38 7.73.21.12zm1.26.73.21.12 1.54-.89.21.37 3.03-1.76.21.37 6.7-3.87v-1.22l-11.9 6.87zm1.69.97 1.53-.89.21.37 1.56-.91.21.37 6.7-3.87v-1.22l-10.43 6.02.21.12zm3.37-19.71-.84-.48-.21-.13-10.85 6.27v.24l2.69-1.55.21.36 3.04-1.75.21.37 5.75-3.32z"/></g><defs><clipPath id="prtsu__adhtr__clip0_298_750"><path fill="#fff" d="M0 0h32v32H0z"/></clipPath></defs></g></g><defs><linearGradient id="prtsu__paint0_linear_40_91" x1="26.976" x2="6.592" y1="4.32" y2="28.352" gradientUnits="userSpaceOnUse"><stop stop-color="#B6509E"/><stop offset="1" stop-color="#2EBAC6"/></linearGradient><clipPath id="prtsu__circleClip"><circle cx="16" cy="16" r="13"/></clipPath></defs></svg>