<svg xmlns="http://www.w3.org/2000/svg" width="32" height="32" fill="none" viewBox="0 0 32 32"><circle cx="16" cy="16" r="15" stroke="url(#7wcbrk__paint0_linear_40_91)" stroke-width="2"/><g clip-path="url(#7wcbrk__circleClip)"><g style="transform:scale(.8125);transform-origin:50% 50%"><g clip-path="url(#7wcbrk__bgomq__clip0_298_417)"><path fill="#B4BCC5" fill-rule="evenodd" d="M2.354 24.372c.26.43.55.84.85 1.24l1.97-1.13c-.31-.4-.6-.81-.86-1.23l-1.95 1.13zM28.119 9.497c.24.44.45.9.64 1.36l1.97-1.13q-.3-.69-.66-1.35l-1.95 1.13zm1.17-2.4-1.95 1.13q-.435-.63-.93-1.2l1.98-1.139c.32.39.62.79.9 1.21M3.584 21.924l-1.95 1.13a17 17 0 0 1-.6-1.38l1.98-1.14c.17.48.36.94.58 1.4zm-3.39-8.427c.11-.67.25-1.34.45-1.99l3.14-1.809a13 13 0 0 0-.93 2.27l-2.66 1.539zm5.58-6.688a13.77 13.77 0 0 1 7.382-4.259l4.3-2.479c-.48-.04-.97-.07-1.45-.07C9.567 0 4.015 3.809 1.474 9.287l4.311-2.49zM19.067 2.6q-1.2-.27-2.43-.33l3.14-1.81c.66.16 1.31.36 1.95.61l-2.66 1.54zm-5.591 29.2c.83.13 1.68.2 2.52.2 6.822 0 12.653-4.269 14.954-10.277l-3.631 2.1a13.74 13.74 0 0 1-10.202 5.888l-3.631 2.1zm15.223-10.517 2.89-1.67c.15-.629.251-1.269.321-1.918l-2.52 1.459q-.255 1.095-.69 2.13m-14.473 8.358-2.9 1.67c-.62-.19-1.23-.42-1.82-.68l2.53-1.46c.72.22 1.45.37 2.19.47M.553 20.214c-.14-.51-.25-1.02-.34-1.54l2.1-1.21c.06.53.14 1.06.26 1.58l-2.03 1.17zM25.34 5.908c-.39-.36-.8-.7-1.24-1.02l2.1-1.21c.4.33.79.69 1.16 1.06l-2.03 1.17zm-2.661-1.92 2.22-1.279c-.48-.32-.97-.61-1.48-.88l-2.39 1.38q.855.33 1.65.78M.033 17.056l2.22-1.28c.01-.62.06-1.22.15-1.82l-2.39 1.38c-.02.57-.02 1.15.02 1.72M6.515 28.89c.45.33.92.64 1.4.92l2.31-1.33c-.53-.25-1.05-.53-1.55-.84zM29.74 15.495c.02.59 0 1.17-.05 1.76l2.31-1.33c0-.56-.03-1.12-.1-1.68zm1.91-2.839-2.07 1.19c-.08-.52-.19-1.03-.33-1.54l2-1.16c.16.49.29 1 .4 1.5zM7.345 26.682l-2.07 1.19c-.38-.35-.75-.71-1.101-1.1l2-1.16c.37.37.76.73 1.16 1.06z" clip-rule="evenodd"/><path fill="#fff" d="M15.997 28.501c6.905 0 12.502-5.595 12.502-12.496S22.902 3.509 15.997 3.509 3.494 9.104 3.494 16.005s5.598 12.496 12.503 12.496"/><path fill="#3F8DF6" fill-rule="evenodd" d="M16.047 3.509C9.115 3.449 3.564 9.067 3.494 15.945c0 6.938 5.621 12.556 12.483 12.556 6.891.02 12.502-5.568 12.522-12.466S22.94 3.529 16.047 3.509m5.93 5.628c-.25.19-.56.12-.81-.13-.19-.19-.31-.38-.51-.56-.37-.51-.94-.56-1.37-.13-.34.34-.61.74-.81 1.18-.44 1.31-.75 2.69-1.18 4.049l3.43.51-.25.94-3.31-.49-.37 2.009 3.56.51-.25.94-3.5-.51c-.25.81-.37 1.689-.69 2.439-.31.88-.62 1.75-1 2.559-.51 1.06-1.37 1.81-2.561 2-.69.13-1.44.06-2-.38a.83.83 0 0 1-.37-.56c0-.26.11-.52.31-.69.12-.06.44 0 .62.06q.3.3.51.69c.37.51.87.56 1.37.19.56-.51.87-1.18 1.06-1.87.37-1.5.75-2.939 1.06-4.439v-.26l-3.31-.51.12-.939 3.43.51.43-1.93-3.56-.56.12-.999 3.68.51c.12-.38.19-.69.31-1 .31-1.13.62-2.25 1.37-3.249s1.621-1.63 2.932-1.56c.57-.02 1.11.21 1.5.63.1.08.16.19.19.31 0 .24 0 .56-.19.74z" clip-rule="evenodd"/></g><defs><clipPath id="7wcbrk__bgomq__clip0_298_417"><path fill="#fff" d="M0 0h32v32H0z"/></clipPath></defs></g></g><defs><linearGradient id="7wcbrk__paint0_linear_40_91" x1="26.976" x2="6.592" y1="4.32" y2="28.352" gradientUnits="userSpaceOnUse"><stop stop-color="#B6509E"/><stop offset="1" stop-color="#2EBAC6"/></linearGradient><clipPath id="7wcbrk__circleClip"><circle cx="16" cy="16" r="13"/></clipPath></defs></svg>