<svg width="32" height="32" fill="none" viewBox="0 0 32 32" xmlns="http://www.w3.org/2000/svg"><path stroke="#9896FF" stroke-width="2" d="M16 31c8.284 0 15-6.716 15-15S24.284 1 16 1 1 7.716 1 16s6.716 15 15 15Z"/><g clip-path="url(#arlusd__circleClip)"><g style="transform:scale(.8125);transform-origin:50% 50%"><path fill="#fff" d="M16 0c8.84 0 16 7.16 16 16s-7.16 16-16 16S0 24.84 0 16 7.16 0 16 0"/><path fill="#2C68F5" d="M21.46 18.19c-.7-.4-1.48-.52-2.26-.55-.65-.02-1.63-.44-1.63-1.64a1.654 1.654 0 0 1 1.63-1.64c.78-.03 1.57-.14 2.26-.55.63-.36 1.15-.88 1.51-1.51s.55-1.34.55-2.06-.19-1.44-.55-2.06c-.36-.63-.88-1.15-1.51-1.51s-1.34-.55-2.06-.55-1.44.19-2.06.55c-.63.36-1.15.88-1.51 1.51s-.55 1.34-.55 2.06c0 .8.28 1.54.65 2.22.3.57.46 1.64-.59 2.24-.38.21-.82.26-1.24.15s-.77-.39-.99-.76c-.41-.66-.91-1.28-1.6-1.67a4.13 4.13 0 0 0-4.12 0c-.63.36-1.15.88-1.51 1.51s-.55 1.34-.55 2.06.19 1.44.55 2.06c.36.63.88 1.15 1.51 1.51s1.34.55 2.06.55 1.44-.19 2.06-.55c.69-.4 1.19-1.01 1.6-1.67.34-.55 1.18-1.22 2.24-.61.37.22.64.58.75 1s.05.86-.16 1.24c-.36.68-.65 1.42-.65 2.22 0 .72.19 1.44.55 2.06.36.63.88 1.15 1.51 1.51s1.34.55 2.06.55 1.44-.19 2.06-.55c.63-.36 1.15-.88 1.51-1.51s.55-1.34.55-2.06-.19-1.44-.55-2.06c-.36-.63-.88-1.15-1.51-1.51z"/></g></g><defs><clipPath id="arlusd__circleClip"><circle cx="16" cy="16" r="13"/></clipPath></defs></svg>