<svg width="32" height="32" fill="none" viewBox="0 0 32 32" xmlns="http://www.w3.org/2000/svg"><path stroke="#9896FF" stroke-width="2" d="M16 31c8.284 0 15-6.716 15-15S24.284 1 16 1 1 7.716 1 16s6.716 15 15 15Z"/><g clip-path="url(#arseth__circleClip)"><g style="transform:scale(.8125);transform-origin:50% 50%"><path fill="url(#arseth__kelpdaorestakedeth__paint0_radial_2353_15)" d="M16 32c8.837 0 16-7.163 16-16S24.837 0 16 0 0 7.163 0 16s7.163 16 16 16"/><path fill="#C8ECED" d="m19.29 5.04-3.4 1.92c-1.23.7-1.34 2.42-.21 3.27l3.47 2.59c.71.53.64 1.61-.13 2.04l-3.13 1.77c-1.23.7-1.34 2.43-.2 3.27l3.3 2.46c.34.25.54.66.54 1.08v.1c0 .31.34.51.61.35l3.42-1.95c1.23-.7 1.33-2.43.19-3.27l-3.47-2.55c-.71-.52-.65-1.61.12-2.05l3.17-1.81c1.23-.7 1.33-2.43.19-3.27l-3.31-2.44c-.35-.25-.55-.66-.55-1.09v-.08c0-.31-.33-.51-.6-.35z"/><path fill="#C8ECED" d="m11.84 8.1-3.4 1.92c-1.23.7-1.34 2.42-.21 3.27l3.47 2.59c.71.53.64 1.61-.13 2.04l-3.13 1.77c-1.23.7-1.34 2.43-.2 3.27l3.3 2.46c.34.25.54.66.54 1.08v.1c0 .31.34.51.61.35L16.11 25c1.23-.7 1.33-2.43.19-3.27l-3.47-2.55c-.71-.52-.65-1.61.12-2.05l3.17-1.81c1.23-.7 1.33-2.43.19-3.27L13 9.61c-.35-.25-.55-.66-.55-1.09v-.08c0-.31-.33-.51-.6-.35z"/><defs><radialGradient id="arseth__kelpdaorestakedeth__paint0_radial_2353_15" cx="0" cy="0" r="1" gradientTransform="matrix(16 0 0 16 16 16)" gradientUnits="userSpaceOnUse"><stop stop-color="#00767C"/><stop offset="1" stop-color="#005C5B"/></radialGradient></defs></g></g><defs><clipPath id="arseth__circleClip"><circle cx="16" cy="16" r="13"/></clipPath></defs></svg>