<svg width="32" height="32" viewBox="0 0 32 32" fill="none" xmlns="http://www.w3.org/2000/svg">
  <circle cx="16" cy="16" r="15" stroke="url(#paint0_linear_40_91)" stroke-width="2" />
  <g clip-path="url(#circleClip)">
    <g style="transform: scale(0.8125); transform-origin: 50% 50%;"><path fill="#1D1A2F" d="M16.09 32.1c8.837 0 16-7.164 16-16s-7.163-16-16-16-16 7.163-16 16 7.163 16 16 16"/><path fill="#fff" fill-rule="evenodd" d="M13.17 15.58c.44 0 .78.36.78.8 0 .43-.35.77-.78.78h-2.04c-1.98 0-3.59-1.61-3.59-3.59s1.61-3.59 3.59-3.59h5.25c.44 0 .78.36.78.8 0 .43-.35.77-.78.78h-5.25c-1.11 0-2.01.91-2.01 2.02s.9 2 2.01 2.01h2.04z" clip-rule="evenodd"/><path fill="#fff" fill-rule="evenodd" d="M11.57 17.15c-.44 0-.78-.36-.78-.8 0-.43.35-.77.78-.78h2.04c1.98 0 3.59 1.61 3.59 3.59s-1.61 3.59-3.59 3.59H8.36c-.44 0-.78-.36-.78-.8 0-.43.35-.77.78-.78h5.25c1.11 0 2.01-.91 2.01-2.02s-.9-2-2.01-2.01h-2.04z" clip-rule="evenodd"/><path fill="#000" fill-rule="evenodd" d="m8.97 22.43-1.28-.92 8.03-11.25 1.28.92z" clip-rule="evenodd"/><path fill="#fff" d="M21.3 19.32v1.86h1.17v-2.2h.91v3.38h-4.91v-3.39h.91v2.2h1.04v-1.86h.88zm-1.91-4.74v1.47h3.99v1.18h-3.99v1.45h-.91v-4.1zm3.99-4.6v1.18h-2.05v1.74h2.05v1.18h-4.91V12.9h1.95v-1.74h-1.95V9.98z"/></g>
  </g>
  <defs>
    <clipPath id="circleClip">
      <circle cx="16" cy="16" r="13" />
    </clipPath>
    <linearGradient id="paint0_linear_40_91" x1="26.976" y1="4.32" x2="6.59198" y2="28.352"
      gradientUnits="userSpaceOnUse">
      <stop stop-color="#B6509E" />
      <stop offset="1" stop-color="#2EBAC6" />
    </linearGradient>
  </defs>
</svg>