<svg xmlns="http://www.w3.org/2000/svg" width="32" height="32" fill="none" viewBox="0 0 32 32"><circle cx="16" cy="16" r="15" stroke="url(#qrkwm__paint0_linear_40_91)" stroke-width="2"/><g clip-path="url(#qrkwm__circleClip)"><g style="transform:scale(.8125);transform-origin:50% 50%"><path fill="#fff" d="M16.01 32.68c-2.16 0-4.25-.42-6.23-1.26a16 16 0 0 1-5.09-3.43A15.98 15.98 0 0 1 0 16.67c0-2.16.42-4.25 1.26-6.23a16 16 0 0 1 3.43-5.09A15.98 15.98 0 0 1 16.01.66c2.16 0 4.25.42 6.23 1.26 1.91.81 3.62 1.96 5.09 3.43a15.98 15.98 0 0 1 4.69 11.32c0 2.16-.42 4.25-1.26 6.23a16 16 0 0 1-3.43 5.09 16 16 0 0 1-5.09 3.43c-1.97.84-4.07 1.26-6.23 1.26"/><path fill="#000" d="M16.01 31.83c8.367 0 15.15-6.783 15.15-15.15S24.377 1.53 16.01 1.53.86 8.313.86 16.68s6.783 15.15 15.15 15.15"/><path fill="#fff" d="M16.38 10.65a4.04 4.04 0 0 1 3.67 3.92l3.11 1.29-1.62-2.64 3.44-3.44-2.06-2.06-2.95 2.95-3.59-5.85zM20 15.34a4.046 4.046 0 0 1-3.61 3.35v2.13l6.83-4.14zm-7.96 0-3.22 1.34 6.83 4.14v-2.13a4.026 4.026 0 0 1-3.61-3.35m11.1 3.51-6.76 4.09v5.43l2.78-3.92 2.91 2.9 2.05-2.05-3.25-3.26zm-7.48 4.09L8.9 18.85l2.27 3.19-3.25 3.26 2.05 2.05 2.9-2.9 2.79 3.92zm-6.78-7.08 3.11-1.29a4.03 4.03 0 0 1 3.67-3.92V4.81l-3.59 5.85-2.95-2.95-2.06 2.06 3.44 3.44-1.62 2.64zm7.28-1.65c-1-.31-1-.48-1-.61 0-.19.29-.45.83-.45.32 0 .85.08.85.61h.97c0-.95-.73-1.58-1.82-1.58-1.17 0-1.79.73-1.79 1.42 0 .94.83 1.28 1.68 1.54 1 .31 1 .48 1 .61 0 .19-.29.45-.83.45-.32 0-.85-.08-.85-.61h-.97c0 .95.73 1.58 1.82 1.58 1.17 0 1.79-.73 1.79-1.42 0-.94-.83-1.28-1.68-1.54"/></g></g><defs><linearGradient id="qrkwm__paint0_linear_40_91" x1="26.976" x2="6.592" y1="4.32" y2="28.352" gradientUnits="userSpaceOnUse"><stop stop-color="#B6509E"/><stop offset="1" stop-color="#2EBAC6"/></linearGradient><clipPath id="qrkwm__circleClip"><circle cx="16" cy="16" r="13"/></clipPath></defs></svg>