<svg width="32" height="32" viewBox="0 0 32 32" fill="none" xmlns="http://www.w3.org/2000/svg">
  <circle cx="16" cy="16" r="15" stroke="url(#paint0_linear_40_91)" stroke-width="2" />
  <g clip-path="url(#circleClip)">
    <g style="transform: scale(0.8125); transform-origin: 50% 50%;"><path fill="url(#a)" d="M16.71 32.25c8.837 0 16-7.163 16-16s-7.163-16-16-16-16 7.163-16 16 7.163 16 16 16"/><path fill="#5FCDF9" d="M11.44 12.27a.64.64 0 0 0-.53-.24H6.64s-.07-.01-.09-.04c-.02-.02-.04-.05-.04-.08V9.03s.01-.06.04-.08c.02-.02.06-.04.09-.04h4.52c1.14 0 2.12.47 2.95 1.4l1.1 1.34-2.14 2.61-1.62-1.99zm7.89-1.97c.83-.92 1.81-1.38 2.96-1.38h4.5s.06 0 .09.03c.02.02.03.06.03.09v2.88s-.01.06-.03.08-.05.04-.09.04h-4.27c-.2 0-.4.09-.53.24l-3.15 3.83L22 19.97c.13.15.32.23.51.23h4.27s.06.01.09.04q.03.045.03.09v2.88s-.01.06-.03.08-.05.04-.09.04h-4.5c-1.15 0-2.13-.47-2.95-1.4l-2.62-3.2-2.62 3.2c-.83.93-1.81 1.4-2.96 1.4h-4.5s-.06-.01-.09-.04a.16.16 0 0 1-.03-.09v-2.88s0-.06.03-.08c.02-.02.05-.04.09-.04h4.27c.2 0 .4-.09.53-.25l3.09-3.77 4.8-5.87z"/><defs><linearGradient id="a" x1="16.54" x2="16.54" y1=".92" y2="31.64" gradientUnits="userSpaceOnUse"><stop stop-color="#08021E"/><stop offset="1" stop-color="#150755"/></linearGradient></defs></g>
  </g>
  <defs>
    <clipPath id="circleClip">
      <circle cx="16" cy="16" r="13" />
    </clipPath>
    <linearGradient id="paint0_linear_40_91" x1="26.976" y1="4.32" x2="6.59198" y2="28.352"
      gradientUnits="userSpaceOnUse">
      <stop stop-color="#B6509E" />
      <stop offset="1" stop-color="#2EBAC6" />
    </linearGradient>
  </defs>
</svg>