<svg width="32" height="32" fill="none" viewBox="0 0 32 32" xmlns="http://www.w3.org/2000/svg"><path stroke="#9896FF" stroke-width="2" d="M16 31c8.284 0 15-6.716 15-15S24.284 1 16 1 1 7.716 1 16s6.716 15 15 15Z"/><g clip-path="url(#asnx__circleClip)"><g style="transform:scale(.8125);transform-origin:50% 50%"><g clip-path="url(#asnx__synthetixnetworktoken__clip0_298_407)"><path fill="url(#asnx__synthetixnetworktoken__paint0_linear_298_407)" d="M16 32c8.837 0 16-7.163 16-16S24.837 0 16 0 0 7.163 0 16s7.163 16 16 16"/><path fill="#5FCDF9" d="M10.73 12.02a.64.64 0 0 0-.53-.24H5.93s-.07-.01-.09-.04c-.02-.02-.04-.05-.04-.08V8.78s.01-.06.04-.08c.02-.02.06-.04.09-.04h4.52c1.14 0 2.12.47 2.95 1.4l1.1 1.34-2.14 2.61-1.62-1.99zm7.89-1.97c.83-.92 1.81-1.38 2.96-1.38h4.5s.06 0 .09.03c.02.02.03.06.03.09v2.88s-.01.06-.03.08-.05.04-.09.04h-4.27c-.2 0-.4.09-.53.24l-3.15 3.83 3.16 3.86c.13.15.32.23.51.23h4.27s.06.01.09.04q.03.045.03.09v2.88s-.01.06-.03.08-.05.04-.09.04h-4.5c-1.15 0-2.13-.47-2.95-1.4L16 18.48l-2.62 3.2c-.83.93-1.81 1.4-2.96 1.4h-4.5s-.06-.01-.09-.04a.16.16 0 0 1-.03-.09v-2.88s0-.06.03-.08c.02-.02.05-.04.09-.04h4.27c.2 0 .4-.09.53-.25l3.09-3.77 4.8-5.87z"/></g><defs><linearGradient id="asnx__synthetixnetworktoken__paint0_linear_298_407" x1="15.83" x2="15.83" y1=".67" y2="31.39" gradientUnits="userSpaceOnUse"><stop stop-color="#08021E"/><stop offset="1" stop-color="#150755"/></linearGradient><clipPath id="asnx__synthetixnetworktoken__clip0_298_407"><path fill="#fff" d="M0 0h32v32H0z"/></clipPath></defs></g></g><defs><clipPath id="asnx__circleClip"><circle cx="16" cy="16" r="13"/></clipPath></defs></svg>