<svg width="32" height="32" viewBox="0 0 32 32" fill="none" xmlns="http://www.w3.org/2000/svg">
  <circle cx="16" cy="16" r="15" stroke="url(#paint0_linear_40_91)" stroke-width="2" />
  <g clip-path="url(#circleClip)">
    <g style="transform: scale(0.8125); transform-origin: 50% 50%;"><g clip-path="url(#a)"><path fill="url(#b)" d="M16 32c8.837 0 16-7.163 16-16S24.837 0 16 0 0 7.163 0 16s7.163 16 16 16"/><path fill="#fff" d="m25.02 8.16-8.78-2.63a.6.6 0 0 0-.38 0L7.08 8.16c-.28.08-.47.34-.47.63v9.66c.06 1.41.59 2.75 1.51 3.82.91 1.11 1.97 2.09 3.15 2.92a28.3 28.3 0 0 0 4.51 2.64c.17.08.36.08.53 0a28.3 28.3 0 0 0 4.51-2.64c1.18-.82 2.24-1.8 3.15-2.92a6.26 6.26 0 0 0 1.51-3.82V8.79c0-.29-.19-.54-.47-.63z"/><path fill="url(#c)" d="m21.45 20.33-4.16-10.05c-.15-.45-.57-.76-1.04-.77h-.37c-.48 0-.9.32-1.04.77l-1.81 4.37h-1.36c-.41 0-.75.33-.75.75s.33.76.75.76h.74l-1.73 4.17a.853.853 0 0 0 .15.84c.14.15.35.22.55.21.15 0 .3-.05.43-.14.13-.1.23-.23.3-.38l1.9-4.71h1.32c.41 0 .75-.33.75-.75v-.02c0-.41-.33-.75-.75-.75h-.7l1.45-3.61 3.95 9.83c.06.15.17.28.3.38.12.09.27.14.43.14.21.01.41-.07.55-.21a.76.76 0 0 0 .2-.56c0-.1 0-.19-.04-.29z"/></g><defs><linearGradient id="b" x1="27.83" x2="4.13" y1="6.01" y2="26.11" gradientUnits="userSpaceOnUse"><stop stop-color="#A85699"/><stop offset="1" stop-color="#5DB6C3"/></linearGradient><linearGradient id="c" x1="19.197" x2="11.542" y1="13.661" y2="21.899" gradientUnits="userSpaceOnUse"><stop stop-color="#A85699"/><stop offset="1" stop-color="#5DB6C3"/></linearGradient><clipPath id="a"><path fill="#fff" d="M0 0h32v32H0z"/></clipPath></defs></g>
  </g>
  <defs>
    <clipPath id="circleClip">
      <circle cx="16" cy="16" r="13" />
    </clipPath>
    <linearGradient id="paint0_linear_40_91" x1="26.976" y1="4.32" x2="6.59198" y2="28.352"
      gradientUnits="userSpaceOnUse">
      <stop stop-color="#B6509E" />
      <stop offset="1" stop-color="#2EBAC6" />
    </linearGradient>
  </defs>
</svg>