<svg width="32" height="32" fill="none" viewBox="0 0 32 32" xmlns="http://www.w3.org/2000/svg"><path stroke="#9896FF" stroke-width="2" d="M16 31c8.284 0 15-6.716 15-15S24.284 1 16 1 1 7.716 1 16s6.716 15 15 15Z"/><g clip-path="url(#astmatic__circleClip)"><g style="transform:scale(.8125);transform-origin:50% 50%"><g clip-path="url(#astmatic__stakedmaticpos__clip0_298_712)"><path fill="#fff" d="M16 0c8.84 0 16 7.16 16 16s-7.16 16-16 16S0 24.84 0 16 7.16 0 16 0"/><path fill="url(#astmatic__stakedmaticpos__paint0_linear_298_712)" d="M21.31 12.37c-.41-.24-.92-.24-1.33 0l-3.05 1.82-2.07 1.18-3.05 1.82c-.41.24-.92.24-1.33 0l-2.42-1.42c-.4-.24-.65-.67-.66-1.14v-2.8c0-.48.25-.92.66-1.15l2.39-1.38c.41-.24.92-.24 1.33 0l2.38 1.38c.4.24.66.67.66 1.15v1.81l2.07-1.22V10.6c0-.47-.25-.92-.66-1.14l-4.42-2.61c-.41-.24-.92-.24-1.33 0L5.99 9.46c-.42.23-.67.67-.66 1.14v5.25c0 .47.25.92.66 1.14l4.49 2.6c.41.24.92.24 1.33 0l3.05-1.78 2.07-1.22 3.05-1.78c.41-.24.92-.24 1.33 0l2.38 1.38c.4.24.66.67.67 1.14v2.8c0 .47-.25.92-.66 1.14l-2.38 1.42c-.41.24-.92.24-1.33 0l-2.38-1.38c-.4-.24-.66-.67-.66-1.15v-1.81l-2.07 1.22v1.82c0 .48.25.92.66 1.14l4.49 2.61c.41.24.92.24 1.33 0l4.49-2.61c.4-.24.65-.67.66-1.14v-5.25c0-.47-.25-.91-.66-1.14l-4.53-2.64z"/></g><defs><linearGradient id="astmatic__stakedmaticpos__paint0_linear_298_712" x1="27.22" x2="4.64" y1="7.62" y2="24.35" gradientUnits="userSpaceOnUse"><stop stop-color="#48A0F7"/><stop offset="1" stop-color="#70D8FA"/></linearGradient><clipPath id="astmatic__stakedmaticpos__clip0_298_712"><path fill="#fff" d="M0 0h32v32H0z"/></clipPath></defs></g></g><defs><clipPath id="astmatic__circleClip"><circle cx="16" cy="16" r="13"/></clipPath></defs></svg>