<svg width="32" height="32" fill="none" viewBox="0 0 32 32" xmlns="http://www.w3.org/2000/svg"><path stroke="#9896FF" stroke-width="2" d="M16 31c8.284 0 15-6.716 15-15S24.284 1 16 1 1 7.716 1 16s6.716 15 15 15Z"/><g clip-path="url(#asts__circleClip)"><g style="transform:scale(.8125);transform-origin:50% 50%"><g clip-path="url(#asts__beetsstakedsonic__clip0_2485_47)"><path fill="#EA3323" d="M16 29.72c7.577 0 13.72-6.143 13.72-13.72S23.577 2.28 16 2.28 2.28 8.422 2.28 16c0 7.577 6.143 13.72 13.72 13.72"/><path fill="#EA3323" d="M16 29.72c7.577 0 13.72-6.143 13.72-13.72S23.577 2.28 16 2.28 2.28 8.422 2.28 16c0 7.577 6.143 13.72 13.72 13.72"/><path fill="#1A1A1A" d="M16 32c8.837 0 16-7.163 16-16S24.837 0 16 0 0 7.163 0 16s7.163 16 16 16"/><path fill="#EA3323" d="m20.9 16.07 6.96-6.96a13.7 13.7 0 0 0-4.89-4.94l-6.96 6.96-6.98-6.98a13.7 13.7 0 0 0-4.9 4.93l6.94 6.94-6.9 6.9a13.7 13.7 0 0 0 4.93 4.9l6.86-6.86 6.88 6.88a13.7 13.7 0 0 0 4.94-4.89z"/><path fill="url(#asts__beetsstakedsonic__paint0_radial_2485_47)" d="m20.59 6.56-4.57 4.58-4.59-4.59a10.5 10.5 0 0 0-4.89 4.93l4.55 4.55-4.51 4.51c1.04 2.14 2.78 3.87 4.93 4.89l4.46-4.46 4.48 4.48c2.15-1.01 3.9-2.74 4.95-4.87l-4.49-4.49 4.56-4.56c-1.01-2.16-2.74-3.9-4.87-4.95z"/><path fill="#fff" d="M24.66 14.96c-4.12-.78-7.88-2.81-10.87-5.88-.47-.48-.93-1-1.36-1.53-.42.18-.83.39-1.21.64l.12.15c.48.6.98 1.18 1.51 1.72 1.42 1.46 3.05 2.72 4.8 3.74-3.36-1.04-6.13-2.55-7.87-4.33l-.07-.07c-.32.32-.62.66-.89 1.02l.04.04c1.08 1.09 2.48 2.09 4.17 2.95 1.48.76 3.18 1.41 5.01 1.93H7.28v1.37h10.76c-1.83.51-3.53 1.17-5.01 1.93-1.69.87-3.09 1.86-4.17 2.95l-.04.04c.27.36.57.7.89 1.02l.07-.07c1.74-1.77 4.51-3.29 7.87-4.33a22.5 22.5 0 0 0-4.8 3.73c-.53.54-1.04 1.12-1.51 1.72l-.12.15c.39.24.79.46 1.21.64.43-.53.88-1.05 1.36-1.53 2.99-3.07 6.75-5.1 10.87-5.88a9 9 0 0 0 0-2.08z"/></g><defs><radialGradient id="asts__beetsstakedsonic__paint0_radial_2485_47" cx="0" cy="0" r="1" gradientTransform="matrix(15.9915 0 0 16.0169 15.992 15.983)" gradientUnits="userSpaceOnUse"><stop stop-color="#281A19"/><stop offset="1" stop-color="#821E16"/></radialGradient><clipPath id="asts__beetsstakedsonic__clip0_2485_47"><path fill="#fff" d="M0 0h32v32H0z"/></clipPath></defs></g></g><defs><clipPath id="asts__circleClip"><circle cx="16" cy="16" r="13"/></clipPath></defs></svg>