<svg width="32" height="32" fill="none" viewBox="0 0 32 32" xmlns="http://www.w3.org/2000/svg"><path stroke="#9896FF" stroke-width="2" d="M16 31c8.284 0 15-6.716 15-15S24.284 1 16 1 1 7.716 1 16s6.716 15 15 15Z"/><g clip-path="url(#asusde__circleClip)"><g style="transform:scale(.8125);transform-origin:50% 50%"><g clip-path="url(#asusde__ethenastakedusde__clip0_2491_158)"><path fill="#fff" d="M16 .57C24.52.57 31.43 7.48 31.43 16S24.52 31.43 16 31.43.57 24.52.57 16 7.48.57 16 .57"/><path fill="url(#asusde__ethenastakedusde__paint0_radial_2491_158)" fill-opacity=".7" d="M16 .29C7.32.29.29 7.32.29 16S7.32 31.71 16 31.71 31.71 24.68 31.71 16 24.68.29 16 .29"/><path fill="url(#asusde__ethenastakedusde__paint1_linear_2491_158)" d="M16 32C7.18 32 0 24.82 0 16S7.18 0 16 0s16 7.18 16 16-7.18 16-16 16M16 .58C7.5.58.58 7.5.58 16S7.5 31.42 16 31.42 31.42 24.5 31.42 16 24.51.58 16 .58"/><path fill="#000" fill-rule="evenodd" d="M13.44 2.83C7.26 4.02 2.6 9.46 2.6 15.98s4.67 11.96 10.84 13.15v-1.25c-5.49-1.17-9.61-6.05-9.61-11.89s4.12-10.73 9.61-11.9zm5.12 1.26V2.83c6.16 1.2 10.82 6.63 10.82 13.14s-4.65 11.94-10.82 13.14v-1.26c5.48-1.18 9.59-6.05 9.59-11.89S24.04 5.25 18.56 4.07z" clip-rule="evenodd"/><path fill="#000" d="M20.87 13.46 16.05 5.1l-4.82 8.36H8.42v1.31h15.27v-1.31zm-4.82-5.44 3.14 5.44h-6.28zm-4.82 10.62L16.05 27l4.82-8.36h2.81v-1.31H8.41v1.31zm4.82 5.44-3.14-5.44h6.28z"/></g><defs><radialGradient id="asusde__ethenastakedusde__paint0_radial_2491_158" cx="0" cy="0" r="1" gradientTransform="matrix(0 33.4971 -23.5777 0 21.75 4.73)" gradientUnits="userSpaceOnUse"><stop offset=".03" stop-color="#F9F9F9"/><stop offset="1" stop-color="#E2E2E2"/></radialGradient><linearGradient id="asusde__ethenastakedusde__paint1_linear_2491_158" x1="4.69" x2="27.31" y1="4.69" y2="27.31" gradientUnits="userSpaceOnUse"><stop stop-color="#F3F3F3"/><stop offset="1" stop-color="#BDBDBD"/></linearGradient><clipPath id="asusde__ethenastakedusde__clip0_2491_158"><path fill="#fff" d="M0 0h32v32H0z"/></clipPath></defs></g></g><defs><clipPath id="asusde__circleClip"><circle cx="16" cy="16" r="13"/></clipPath></defs></svg>