<svg xmlns="http://www.w3.org/2000/svg" fill="none" viewBox="0 0 512 512"><g clip-path="url(#96fos__a)"><path fill="url(#96fos__b)" d="M12.886 509.82H83.34a7.96 7.96 0 0 0 7.115-4.386L298.671 91.34a7.96 7.96 0 0 0-.085-7.32l-38.375-72.119c-2.432-4.569-9.009-4.486-11.324.144L5.763 498.294c-2.648 5.295 1.203 11.526 7.123 11.526"/><path fill="url(#96fos__c)" d="M321.91 510.615H188.853c-5.984 0-9.83-6.352-7.058-11.654L250.319 367.9c3.021-5.777 11.323-5.676 14.203.172l64.532 131.061c2.606 5.292-1.245 11.482-7.144 11.482"/><path fill="url(#96fos__d)" d="M499.1 510.615h-72.023a7.96 7.96 0 0 1-7.119-4.393L301.499 270.074a7.97 7.97 0 0 1-.029-7.082l35.702-72.679c2.903-5.911 11.318-5.944 14.268-.057l154.78 308.826c2.654 5.296-1.196 11.533-7.12 11.533"/></g><defs><linearGradient id="96fos__b" x1="17.491" x2="257.59" y1="509.82" y2="7.36" gradientUnits="userSpaceOnUse"><stop stop-color="#1FA2F2"/><stop offset="1" stop-color="#3ECCF9"/></linearGradient><linearGradient id="96fos__c" x1="255.205" x2="255.205" y1="363.534" y2="510.615" gradientUnits="userSpaceOnUse"><stop stop-color="#27AEF4"/><stop offset="1" stop-color="#1EA2F2"/></linearGradient><linearGradient id="96fos__d" x1="345.044" x2="461.913" y1="184.652" y2="501.075" gradientUnits="userSpaceOnUse"><stop stop-color="#33BDF7"/><stop offset="1" stop-color="#1EA1F2"/></linearGradient><clipPath id="96fos__a"><path fill="#fff" d="M0 0h512v512H0z"/></clipPath></defs></svg>