<svg width="32" height="32" fill="none" viewBox="0 0 32 32" xmlns="http://www.w3.org/2000/svg"><path fill="#fff" d="M16 32c8.837 0 16-7.163 16-16S24.837 0 16 0 0 7.163 0 16s7.163 16 16 16"/><path fill="url(#atokenwallet__paint0_linear_1208_2999)" d="M5.04 25.47h3.17c.14 0 .26-.08.32-.2l9.38-18.66c.05-.1.05-.23 0-.33l-1.73-3.25a.288.288 0 0 0-.51 0L4.72 24.94c-.12.24.05.52.32.52z"/><path fill="url(#atokenwallet__paint1_linear_1208_2999)" d="M18.97 25.51h-6c-.27 0-.44-.29-.32-.53l3.09-5.91c.14-.26.51-.26.64 0l2.91 5.91a.36.36 0 0 1-.32.52z"/><path fill="url(#atokenwallet__paint2_linear_1208_2999)" d="M26.95 25.51H23.7c-.14 0-.26-.08-.32-.2l-5.34-10.64a.36.36 0 0 1 0-.32l1.61-3.27c.13-.27.51-.27.64 0L27.26 25c.12.24-.05.52-.32.52z"/><defs><linearGradient id="atokenwallet__paint0_linear_1208_2999" x1="6.42" x2="17.24" y1="26.03" y2="3.39" gradientUnits="userSpaceOnUse"><stop stop-color="#4E9FEB"/><stop offset="1" stop-color="#6BC8F3"/></linearGradient><linearGradient id="atokenwallet__paint1_linear_1208_2999" x1="15.97" x2="15.97" y1="18.88" y2="25.51" gradientUnits="userSpaceOnUse"><stop stop-color="#55AAED"/><stop offset="1" stop-color="#4D9FEB"/></linearGradient><linearGradient id="atokenwallet__paint2_linear_1208_2999" x1="19.41" x2="24.68" y1="11.04" y2="25.3" gradientUnits="userSpaceOnUse"><stop stop-color="#60B9F1"/><stop offset="1" stop-color="#4D9EEA"/></linearGradient></defs></svg>