<svg xmlns="http://www.w3.org/2000/svg" width="32" height="32" fill="none" viewBox="0 0 32 32"><circle cx="16" cy="16" r="15" stroke="url(#wrappedbtc__paint0_linear_40_91)" stroke-width="2"/><g clip-path="url(#wrappedbtc__circleClip)"><g style="transform:scale(.8125);transform-origin:50% 50%"><g clip-path="url(#wrappedbtc__clip0_298_911)"><path fill="#595563" d="m26.09 6.72-.88.88c4.35 4.75 4.35 12.03 0 16.79l.88.88a13.69 13.69 0 0 0 0-18.57zm-18.47.07c4.75-4.35 12.03-4.35 16.79 0l.88-.88a13.69 13.69 0 0 0-18.57 0zm-.83 17.6a12.44 12.44 0 0 1 0-16.78l-.88-.88a13.69 13.69 0 0 0 0 18.57zm17.6.81c-4.75 4.35-12.03 4.35-16.79 0l-.88.88a13.69 13.69 0 0 0 18.57 0z"/><path fill="#E29552" d="M21.55 13.07c-.18-1.83-1.76-2.45-3.76-2.64V7.91h-1.55v2.48H15V7.91h-1.53v2.54h-3.14v1.65s1.14-.02 1.12 0c.43-.05.82.25.88.68v6.96c0 .15-.08.28-.19.38a.49.49 0 0 1-.4.13c.02.02-1.12 0-1.12 0l-.29 1.85h3.11v2.58h1.55v-2.55h1.24v2.53h1.55v-2.55c2.61-.16 4.43-.8 4.66-3.25.18-1.97-.74-2.85-2.22-3.2.9-.44 1.46-1.26 1.33-2.6zm-2.17 5.5c0 1.92-3.29 1.7-4.34 1.7v-3.41c1.05 0 4.34-.3 4.34 1.71m-.72-4.8c0 1.76-2.75 1.54-3.62 1.54v-3.1c.87 0 3.62-.28 3.62 1.56"/><path fill="#272136" d="M16 32C7.16 32 0 24.83 0 16S7.17 0 16 0s15.99 7.16 16 16c0 8.84-7.16 16-16 16m0-30.75c-8.14 0-14.74 6.61-14.73 14.76 0 8.14 6.61 14.74 14.76 14.73 8.14 0 14.73-6.6 14.73-14.74S24.16 1.25 16.02 1.25z"/></g><defs><clipPath id="wrappedbtc__clip0_298_911"><path fill="#fff" d="M0 0h32v32H0z"/></clipPath></defs></g></g><defs><linearGradient id="wrappedbtc__paint0_linear_40_91" x1="26.976" x2="6.592" y1="4.32" y2="28.352" gradientUnits="userSpaceOnUse"><stop stop-color="#B6509E"/><stop offset="1" stop-color="#2EBAC6"/></linearGradient><clipPath id="wrappedbtc__circleClip"><circle cx="16" cy="16" r="13"/></clipPath></defs></svg>