<svg width="32" height="32" fill="none" viewBox="0 0 32 32" xmlns="http://www.w3.org/2000/svg"><path stroke="#9896FF" stroke-width="2" d="M16 31c8.284 0 15-6.716 15-15S24.284 1 16 1 1 7.716 1 16s6.716 15 15 15Z"/><g clip-path="url(#awmatic__circleClip)"><g style="transform:scale(.8125);transform-origin:50% 50%"><g clip-path="url(#awmatic__wrappedmatic__clip0_297_199)"><path fill="#fff" d="M16 32c8.84 0 16-7.16 16-16S24.84 0 16 0 0 7.16 0 16s7.16 16 16 16"/><path fill="url(#awmatic__wrappedmatic__paint0_linear_297_199)" d="m21.44 20.06 5.32-3.07c.28-.16.46-.46.46-.79v-6.14c0-.32-.17-.63-.46-.79L21.44 6.2a.92.92 0 0 0-.91 0l-5.32 3.07c-.28.16-.46.46-.46.79v10.97l-3.73 2.15-3.73-2.15v-4.3l3.73-2.15L13.48 16v-2.89l-2-1.16a.92.92 0 0 0-.91 0l-5.32 3.07c-.28.16-.46.46-.46.79v6.14c0 .32.17.63.46.79l5.32 3.07c.28.16.63.16.91 0l5.32-3.07c.28-.16.46-.46.46-.79V10.98l.07-.04 3.66-2.11 3.73 2.15v4.3l-3.73 2.15-2.46-1.42v2.89l2 1.15c.28.16.63.16.91 0z"/></g><defs><linearGradient id="awmatic__wrappedmatic__paint0_linear_297_199" x1="6.7" x2="25.96" y1="22.78" y2="8.74" gradientUnits="userSpaceOnUse"><stop stop-color="#9932B9"/><stop offset=".88" stop-color="#773FD6"/><stop offset="1" stop-color="#7342DB"/></linearGradient><clipPath id="awmatic__wrappedmatic__clip0_297_199"><path fill="#fff" d="M0 0h32v32H0z"/></clipPath></defs></g></g><defs><clipPath id="awmatic__circleClip"><circle cx="16" cy="16" r="13"/></clipPath></defs></svg>