<svg width="32" height="32" viewBox="0 0 32 32" fill="none" xmlns="http://www.w3.org/2000/svg">
  <circle cx="16" cy="16" r="15" stroke="url(#paint0_linear_40_91)" stroke-width="2" />
  <g clip-path="url(#circleClip)">
    <g style="transform: scale(0.8125); transform-origin: 50% 50%;"><path fill="#48A0F7" d="M16.09.45c8.84 0 16 7.16 16 16s-7.16 16-16 16-16-7.16-16-16 7.16-16 16-16"/><path fill="#fff" d="m22.66 15.32.18.27a7.724 7.724 0 0 1-1.08 9.76c-1.56 1.53-3.61 2.29-5.65 2.3l6.56-12.33z" opacity=".6"/><path fill="#fff" d="m16.1 19.06 6.56-3.75-6.56 12.33z" opacity=".2"/><path fill="#fff" d="m9.53 15.32-.18.27a7.724 7.724 0 0 0 1.08 9.76c1.56 1.53 3.61 2.29 5.65 2.3L9.52 15.32z"/><path fill="#fff" d="m16.09 19.06-6.56-3.75 6.56 12.33z" opacity=".6"/><path fill="#fff" d="M16.1 10.69v6.46l5.65-3.23z" opacity=".2"/><path fill="#fff" d="m16.1 10.69-5.65 3.23 5.65 3.23z" opacity=".6"/><path fill="#fff" d="m16.1 5.26-5.65 8.67 5.65-3.24z"/><path fill="#fff" d="m16.1 10.69 5.65 3.24-5.65-8.67z" opacity=".6"/></g>
  </g>
  <defs>
    <clipPath id="circleClip">
      <circle cx="16" cy="16" r="13" />
    </clipPath>
    <linearGradient id="paint0_linear_40_91" x1="26.976" y1="4.32" x2="6.59198" y2="28.352"
      gradientUnits="userSpaceOnUse">
      <stop stop-color="#B6509E" />
      <stop offset="1" stop-color="#2EBAC6" />
    </linearGradient>
  </defs>
</svg>