<svg width="32" height="32" viewBox="0 0 32 32" fill="none" xmlns="http://www.w3.org/2000/svg">
  <circle cx="16" cy="16" r="15" stroke="url(#paint0_linear_40_91)" stroke-width="2" />
  <g clip-path="url(#circleClip)">
    <g style="transform: scale(0.8125); transform-origin: 50% 50%;"><g clip-path="url(#a)"><path fill="#FDFDFD" d="M16 32c8.837 0 16-7.163 16-16S24.837 0 16 0 0 7.163 0 16s7.163 16 16 16"/><path fill="#34775D" d="m20.97 15.38 4.45-4.45c1.14-1.14 1.36-3 .34-4.24a3.09 3.09 0 0 0-4.57-.24L11.64 16l9.55 9.55c1.2 1.2 3.15 1.2 4.35 0s1.2-3.15 0-4.35l-4.57-4.57a.887.887 0 0 1 0-1.26z"/><path fill="#52B136" d="M11.643 16.02 16 11.666l9.553 9.553a3.08 3.08 0 0 1 0 4.356 3.08 3.08 0 0 1-4.356 0z"/><path fill="#68DF57" d="m25.582 6.487-.07-.07a3.03 3.03 0 1 0-4.285 4.285l.07.07a3.03 3.03 0 0 0 4.285-4.285M18.19 13.89l-7.4-7.43c-1.2-1.2-3.15-1.2-4.35 0s-1.2 3.15 0 4.35l4.53 4.53c.37.37.37.97 0 1.34l-4.53 4.53c-1.2 1.2-1.2 3.15 0 4.35s3.15 1.2 4.35 0l7.4-7.4a3.03 3.03 0 0 0 0-4.28z"/></g><defs><clipPath id="a"><path fill="#fff" d="M0 0h32v32H0z"/></clipPath></defs></g>
  </g>
  <defs>
    <clipPath id="circleClip">
      <circle cx="16" cy="16" r="13" />
    </clipPath>
    <linearGradient id="paint0_linear_40_91" x1="26.976" y1="4.32" x2="6.59198" y2="28.352"
      gradientUnits="userSpaceOnUse">
      <stop stop-color="#B6509E" />
      <stop offset="1" stop-color="#2EBAC6" />
    </linearGradient>
  </defs>
</svg>