<svg width="32" height="32" fill="none" viewBox="0 0 32 32" xmlns="http://www.w3.org/2000/svg"><path stroke="#9896FF" stroke-width="2" d="M16 31c8.284 0 15-6.716 15-15S24.284 1 16 1 1 7.716 1 16s6.716 15 15 15Z"/><g clip-path="url(#axpl__circleClip)"><g style="transform:scale(.8125);transform-origin:50% 50%"><g clip-path="url(#axpl__plasma__clip0_3036_5)"><path fill="#202E29" d="M16 32c8.837 0 16-7.163 16-16S24.837 0 16 0 0 7.163 0 16s7.163 16 16 16"/><path fill="#fff" d="M28.84 16.07v.39H22.6v-.29h-6.01v-.36h6.01v-.28h6.24c0 .18.01.36.01.53zm-12.37-1.29 5.88-.73.04.28 6.21-.77c-.06-.31-.13-.61-.21-.91l-6.11.76.04.28-5.91.73c.03.12.05.23.07.35zm-.3-1.15 5.62-1.41.07.28 5.97-1.5a10 10 0 0 0-.4-.86l-5.79 1.46.07.28-5.67 1.43c.05.11.09.22.13.33zm-.5-1.07 5.25-2 .1.27 5.56-2.11c-.18-.27-.37-.52-.57-.77L20.7 9.97l.1.27-5.32 2.02c.07.1.13.2.19.31zm-.69-.99 4.64-2.43.13.25 5.13-2.69c-.24-.23-.48-.45-.73-.66l-4.82 2.53.13.25-4.72 2.48zm-1.12-1.07 4.2-2.69.15.24 4.64-2.97c-.29-.19-.59-.36-.9-.52l-4.23 2.71.15.24-4.32 2.77c.11.07.21.15.31.22m-1-.63 3.52-2.91.18.22 3.97-3.28c-.34-.13-.68-.25-1.03-.35l-3.52 2.9.18.22-3.65 3.01c.12.05.24.11.35.17zm-1.31-.51 2.78-2.79.2.2 3.53-3.54c-.38-.06-.77-.11-1.17-.14l-3.01 3.02.2.2-2.94 2.94c.14.03.27.06.4.1zm-1.54-.23 2.22-2.71.22.18 2.89-3.52c-.44.02-.87.06-1.3.13l-2.3 2.81.22.18-2.4 2.93zm-1.33.08 1.71-2.66.24.16 2.07-3.22q-.705.18-1.38.45L9.87 6.21l.24.16-1.89 2.95c.16-.04.32-.07.48-.1zm-1.47.41L8.44 7.3l.25.13 1.63-3.07q-.78.39-1.5.87l-.94 1.76.25.13-1.45 2.73c.17-.09.35-.17.53-.24zm-1.06.54.52-1.49.27.1 1.02-2.9c-.52.41-1 .86-1.45 1.35l-.44 1.25.27.1-.68 1.95c.16-.12.32-.24.49-.34zm-1.31 1.07.23-1.09.28.06.46-2.19q-.735.945-1.29 2.01l.21.04-.42 1.8c.17-.22.35-.44.54-.64zm-.95 1.27v-1.44c-.35.92-.59 2.06-.72 3.18.16-.62.41-1.21.72-1.75zm-.72 5.29c.14.96.37 1.88.7 2.76v-1.06c-.3-.52-.54-1.09-.7-1.7m1.18 2.4.37 1.74-.21.04q.555 1.065 1.29 2.01l-.46-2.19-.28.06-.23-1.1q-.255-.27-.48-.57zm1.29 1.29.69 1.97-.27.1.44 1.25c.45.48.93.93 1.45 1.35l-1.02-2.9-.27.1-.52-1.5c-.17-.11-.33-.22-.49-.34zm1.03.65 1.45 2.74-.25.13.94 1.76q.72.48 1.5.87l-1.63-3.07-.25.13-1.23-2.32c-.18-.07-.36-.16-.53-.24m1.52.57 1.89 2.95-.24.16 1.45 2.27q.675.255 1.38.45l-2.07-3.22-.24.16-1.71-2.66c-.16-.03-.32-.06-.48-.1zm1.36.18 2.4 2.93-.22.18 2.3 2.81c.43.06.86.11 1.3.13l-2.89-3.52-.22.18L10 22.88zm1.59-.14 2.94 2.94-.2.2 3.01 3.02c.39-.03.78-.08 1.17-.14l-3.53-3.54-.2.2-2.78-2.78c-.13.04-.27.07-.4.1zm1.37-.44 3.65 3.01-.18.22 3.52 2.9c.35-.1.7-.22 1.03-.35l-3.97-3.28-.18.22-3.52-2.9c-.12.06-.23.12-.35.17zm1.03-.58 4.32 2.76-.15.24 4.23 2.71c.31-.16.61-.34.9-.52l-4.64-2.97-.15.24-4.2-2.69c-.1.08-.2.15-.31.22zm1.19-1.01 4.71 2.47-.13.25 4.82 2.53c.25-.21.5-.43.73-.66l-5.13-2.69-.13.25-4.64-2.43c-.08.09-.16.19-.24.27zm.75-.96 5.31 2.02-.1.27L26 24.06c.2-.25.39-.51.57-.77l-5.56-2.11-.1.27-5.25-2c-.06.1-.12.21-.19.31zm.55-1.05 5.66 1.42-.07.28 5.79 1.46c.14-.28.28-.57.4-.86l-5.97-1.5-.07.28-5.61-1.41c-.04.11-.09.22-.13.33m.37-1.13 5.9.73-.04.28 6.11.76c.08-.3.15-.6.21-.91l-6.21-.77-.04.28-5.87-.73c-.02.12-.04.23-.07.35z"/></g><defs><clipPath id="axpl__plasma__clip0_3036_5"><path fill="#fff" d="M0 0h32v32H0z"/></clipPath></defs></g></g><defs><clipPath id="axpl__circleClip"><circle cx="16" cy="16" r="13"/></clipPath></defs></svg>