<svg width="32" height="32" fill="none" viewBox="0 0 32 32" xmlns="http://www.w3.org/2000/svg"><path fill="#fff" d="M16.15 28.29c6.71 0 12.14-5.44 12.14-12.14S22.85 4.01 16.15 4.01 4.01 9.45 4.01 16.15s5.44 12.14 12.14 12.14"/><path fill="url(#bitpiewallet__paint0_linear_1208_2939)" fill-rule="evenodd" d="M16 0c8.84 0 16 7.16 16 16s-7.16 16-16 16S0 24.84 0 16 7.16 0 16 0m-.07 3.8C9.19 3.8 3.73 9.26 3.73 16s5.46 12.2 12.2 12.2 12.2-5.46 12.2-12.2-5.46-12.2-12.2-12.2" clip-rule="evenodd"/><path fill="url(#bitpiewallet__paint1_linear_1208_2939)" fill-rule="evenodd" d="M17.84 22.08a1.819 1.819 0 0 1-3.15 1.82l-.55-.94-.94.55c-.86.51-1.98.22-2.49-.64s-.22-1.98.64-2.49c0 0 .02-.01.03-.02l.94-.55-1.45-2.52-.94.54c-.86.51-1.98.22-2.49-.64s-.22-1.98.64-2.49c0 0 .02-.01.03-.02l.94-.55-.54-.94c-.51-.86-.22-1.98.64-2.49a1.823 1.823 0 0 1 2.51.67l.54.94 2.52-1.45-.54-.94a1.816 1.816 0 1 1 3.15-1.81l.55.95.95-.55a1.81 1.81 0 0 1 2.47.71c.47.86.19 1.93-.65 2.44l-.94.55 1.45 2.52.94-.54c.88-.48 1.99-.16 2.47.72.47.85.18 1.92-.65 2.43l-.94.55.55.95a1.816 1.816 0 1 1-3.15 1.81l-.55-.95-2.52 1.45.55.94zm-2.37-4.09 2.52-1.45-1.45-2.52-2.52 1.45z" clip-rule="evenodd"/><defs><linearGradient id="bitpiewallet__paint0_linear_1208_2939" x1="16" x2="16" y1="32" y2="0" gradientUnits="userSpaceOnUse"><stop stop-color="#263C99"/><stop offset="1" stop-color="#3C4FD5"/></linearGradient><linearGradient id="bitpiewallet__paint1_linear_1208_2939" x1="19.98" x2="11.98" y1="22.94" y2="9.08" gradientUnits="userSpaceOnUse"><stop stop-color="#263C99"/><stop offset="1" stop-color="#3C4FD5"/></linearGradient></defs></svg>