<svg width="32" height="32" fill="none" viewBox="0 0 32 32" xmlns="http://www.w3.org/2000/svg"><g clip-path="url(#bob__clip0_2632_5)"><path fill="#E1672A" d="M16 32c8.84 0 16-7.16 16-16S24.84 0 16 0 0 7.16 0 16s7.16 16 16 16"/><path fill="#E1672A" d="M16 32c8.84 0 16-7.16 16-16S24.84 0 16 0 0 7.16 0 16s7.16 16 16 16"/><path fill="#fff" d="M15.17 5.5h-4.88a.3.3 0 0 0-.3.3v4.88c0 .17.14.3.3.3h4.88a.3.3 0 0 0 .3-.3V5.8a.3.3 0 0 0-.3-.3M9.99 19.52v4.88c0 .17.14.3.3.3h4.88a.3.3 0 0 0 .3-.3v-4.88a.3.3 0 0 0-.3-.3h-4.88a.3.3 0 0 0-.3.3M9.99 12.67v4.88c0 .17.14.3.3.3h4.88a.3.3 0 0 0 .3-.3v-4.88a.3.3 0 0 0-.3-.3h-4.88a.3.3 0 0 0-.3.3M16.85 19.52v4.88c0 .17.14.3.3.3h4.88a.3.3 0 0 0 .3-.3v-4.88a.3.3 0 0 0-.3-.3h-4.88a.3.3 0 0 0-.3.3M16.85 12.66v4.88c0 .17.14.3.3.3h4.88a.3.3 0 0 0 .3-.3v-4.88a.3.3 0 0 0-.3-.3h-4.88a.3.3 0 0 0-.3.3"/></g><defs><clipPath id="bob__clip0_2632_5"><path fill="#fff" d="M0 0h32v32H0z"/></clipPath></defs></svg>