<svg xmlns="http://www.w3.org/2000/svg" width="32" height="32" fill="none" viewBox="0 0 32 32"><g clip-path="url(#yxzeg__clip0_292_80)"><path fill="#fff" d="M16 32.002c8.837 0 16-7.163 16-16s-7.163-16-16-16-16 7.164-16 16 7.163 16 16 16"/><path fill="#000" d="M15.98 32.002V8.932c-1.94 0-3.5-.53-3.5-1.18 0-.48.87-.9 2.11-1.08.47.09.95.14 1.43.14.47 0 .94-.04 1.4-.13h.03c1.24.18 2.11.59 2.11 1.08 0 .64-1.54 1.17-3.45 1.18v23.07h-.12zm-2.79-26.37c0-.42.81-.77 1.93-.9.3.05.6.07.9.07.29 0 .58-.02.87-.07h.03c1.12.12 1.93.47 1.93.89 0 .52-1.27.95-2.83.95s-2.83-.42-2.83-.95zm.7-1.73c0-.39.95-.71 2.12-.71s2.12.32 2.12.71-.95.71-2.12.71-2.12-.32-2.12-.71m2.09-.78V.002h.12v3.12z"/><path fill="url(#yxzeg__paint0_linear_292_80)" d="M16 32.002c-1.08 0-2.16-.11-3.22-.33-2.05-.42-3.99-1.24-5.72-2.41a16.07 16.07 0 0 1-5.8-7.04q-.615-1.455-.93-3c-.43-2.13-.43-4.32 0-6.45.42-2.05 1.24-3.99 2.41-5.72 1.74-2.57 4.18-4.59 7.04-5.8q1.455-.615 3-.93c2.13-.43 4.32-.43 6.45 0 2.05.42 3.99 1.24 5.72 2.41 2.57 1.74 4.59 4.18 5.8 7.04q.615 1.455.93 3c.43 2.13.43 4.32 0 6.45-.42 2.05-1.24 3.99-2.41 5.72a16.07 16.07 0 0 1-7.04 5.8q-1.455.615-3 .93c-1.06.22-2.14.33-3.22.33zm0-30.75q-1.5 0-2.97.3a14.773 14.773 0 0 0-11.47 11.48c-.4 1.96-.4 3.98 0 5.95a14.773 14.773 0 0 0 11.48 11.47c1.96.4 3.98.4 5.95 0a14.773 14.773 0 0 0 11.47-11.48c.4-1.96.4-3.98 0-5.95a14.773 14.773 0 0 0-11.48-11.47q-1.47-.3-2.97-.3z"/><path fill="#3B3735" d="m23.15 23.373 3.06-4.31-3.06 1.83zm2.94-5.11-2.94-4.89v3.56z"/><path fill="#1F1D19" d="M23.15 17.213v3.03l2.92-1.69-2.92-1.33z"/><path fill="#959190" d="m19.92 18.263 2.94-4.89v3.56z"/><path fill="#403C3A" d="M22.87 17.213v3.03l-2.92-1.69 2.92-1.33z"/><path fill="#959190" d="m22.87 23.373-3.06-4.31 3.06 1.83z"/><path fill="url(#yxzeg__paint1_linear_292_80)" d="M8.61 23.373a5 5 0 1 0 0-10 5 5 0 0 0 0 10"/><path fill="#fff" d="m10.8 20.373-1.69-4.09c-.1-.21-.24-.31-.42-.31h-.15c-.19 0-.33.1-.42.31l-.74 1.78h-.56a.3.3 0 0 0-.3.3c0 .17.14.31.3.31h.3l-.7 1.7s-.02.08-.02.12c0 .08.03.17.08.23.06.06.14.09.22.09.06 0 .12-.02.17-.06q.075-.06.12-.15l.77-1.92h.54a.3.3 0 0 0 .3-.3.31.31 0 0 0-.3-.31h-.29l.59-1.47 1.61 4q.045.09.12.15a.294.294 0 0 0 .39-.03c.06-.06.09-.14.08-.23 0-.04 0-.08-.02-.12z"/></g><defs><linearGradient id="yxzeg__paint0_linear_292_80" x1="24.528" x2="9.523" y1="1.143" y2="31.151" gradientUnits="userSpaceOnUse"><stop stop-color="#B6509E"/><stop offset="1" stop-color="#2EBAC6"/></linearGradient><linearGradient id="yxzeg__paint1_linear_292_80" x1="28.746" x2="3.738" y1="6.483" y2="26.483" gradientUnits="userSpaceOnUse"><stop stop-color="#B6509E"/><stop offset="1" stop-color="#2EBAC6"/></linearGradient><clipPath id="yxzeg__clip0_292_80"><path fill="#fff" d="M0 0h32v32H0z"/></clipPath></defs></svg>