<svg xmlns="http://www.w3.org/2000/svg" fill="none" viewBox="0 0 32 32"><g clip-path="url(#bitcoin__clip0_97_2747)"><path fill="#F7931A" d="M31.52 19.87c-2.14 8.57-10.82 13.79-19.39 11.65S-1.66 20.7.48 12.13 11.3-1.66 19.87.48 33.66 11.3 31.52 19.87"/><path fill="#fff" d="M23.05 13.72c.32-2.13-1.3-3.27-3.52-4.04l.72-2.88-1.76-.44-.7 2.81c-.46-.11-.94-.22-1.41-.33l.7-2.83-1.75-.44-.72 2.88c-.38-.09-.76-.17-1.12-.26l-2.42-.61-.47 1.87s1.3.3 1.27.32c.71.18.84.65.82 1.02l-.82 3.29s.11.03.18.06c-.06-.01-.12-.03-.19-.05l-1.15 4.6c-.09.22-.31.54-.8.42.02.03-1.28-.32-1.28-.32l-.87 2.01 2.28.57c.42.11.84.22 1.25.32l-.73 2.92 1.75.44.72-2.89c.48.13.94.25 1.4.36l-.72 2.87 1.76.44.73-2.91c2.99.57 5.24.34 6.19-2.37.76-2.18-.04-3.44-1.61-4.26 1.15-.26 2.01-1.02 2.24-2.58zm-4.01 5.63c-.54 2.18-4.21 1-5.4.71l.96-3.86c1.19.3 5.01.88 4.44 3.16zm.54-5.66c-.49 1.98-3.55.98-4.54.73l.87-3.5c.99.25 4.18.71 3.67 2.78z"/></g><defs><clipPath id="bitcoin__clip0_97_2747"><path fill="#fff" d="M0 0h32v32H0z"/></clipPath></defs></svg>