<svg xmlns="http://www.w3.org/2000/svg" width="32" height="32" fill="none" viewBox="0 0 32 32"><g clip-path="url(#pancakeswaptoken__clip0_98_2762)"><path fill="url(#pancakeswaptoken__paint0_linear_98_2762)" d="M16 32c8.837 0 16-7.163 16-16S24.837 0 16 0 0 7.163 0 16s7.163 16 16 16"/><path fill="#633001" fill-rule="evenodd" d="M15.96 26.62c-3.11 0-5.62-.75-7.37-2.09-1.77-1.36-2.71-3.29-2.71-5.47s.94-3.62 2-4.64c.83-.8 1.75-1.32 2.39-1.61-.18-.54-.34-1.08-.49-1.63-.22-.8-.43-1.75-.43-2.44 0-.82.18-1.64.66-2.28.51-.67 1.27-1.03 2.19-1.03.72 0 1.33.27 1.81.73.46.44.76 1.02.97 1.63.37 1.07.51 2.41.55 3.75h.88c.04-1.34.18-2.68.55-3.75.21-.61.51-1.19.97-1.63.48-.46 1.09-.73 1.81-.73.92 0 1.68.36 2.19 1.03.48.64.66 1.46.66 2.28 0 .69-.21 1.63-.43 2.44-.15.55-.31 1.09-.49 1.63.64.3 1.56.81 2.39 1.61 1.06 1.02 2 2.54 2 4.64s-.94 4.11-2.71 5.47c-1.75 1.34-4.26 2.09-7.37 2.09z" clip-rule="evenodd"/><path fill="#D1884F" d="M12.2 6.22c-1.35 0-1.97 1.02-1.97 2.42 0 1.12.72 3.35 1.02 4.22.06.2-.04.41-.23.49-1.08.43-4.26 2-4.26 5.61 0 3.8 3.24 6.66 9.21 6.67h.01c5.97 0 9.21-2.87 9.21-6.67s-3.19-5.18-4.26-5.61a.404.404 0 0 1-.23-.49c.3-.87 1.02-3.1 1.02-4.22 0-1.4-.62-2.42-1.97-2.42-1.94 0-2.42 2.77-2.46 5.75 0 .2-.16.36-.36.36h-1.91c-.2 0-.36-.16-.36-.36-.03-2.98-.52-5.75-2.46-5.75"/><path fill="#FEDC90" d="M15.97 24.4c-4.39 0-9.21-2.37-9.22-5.44 0 3.82 3.24 6.68 9.22 6.68s9.22-2.86 9.22-6.67c0 3.06-4.83 5.43-9.22 5.43"/><path fill="#633001" d="M13.54 18.02c0 1.04-.49 1.58-1.08 1.58s-1.08-.54-1.08-1.58.49-1.58 1.08-1.58 1.08.54 1.08 1.58m7.04 0c0 1.04-.49 1.58-1.08 1.58s-1.08-.54-1.08-1.58.48-1.58 1.08-1.58 1.08.54 1.08 1.58"/></g><defs><linearGradient id="pancakeswaptoken__paint0_linear_98_2762" x1="16" x2="16" y1="0" y2="32" gradientUnits="userSpaceOnUse"><stop stop-color="#53DEE9"/><stop offset="1" stop-color="#1FC7D4"/></linearGradient><clipPath id="pancakeswaptoken__clip0_98_2762"><path fill="#fff" d="M0 0h32v32H0z"/></clipPath></defs></svg>