<svg width="32" height="32" fill="none" viewBox="0 0 32 32" xmlns="http://www.w3.org/2000/svg"><path fill="#2151F4" d="M16 0c8.84 0 16 7.16 16 16s-7.16 16-16 16S0 24.84 0 16 7.16 0 16 0"/><path fill="#fff" d="M16 21.62c-3.11 0-5.62-2.52-5.62-5.62s2.52-5.62 5.62-5.62c2.78 0 5.1 2.03 5.54 4.69h5.67C26.73 9.3 21.9 4.76 16 4.76 9.79 4.76 4.75 9.8 4.75 16.01S9.79 27.26 16 27.26s10.73-4.54 11.21-10.31h-5.67c-.45 2.66-2.75 4.69-5.54 4.69z"/><path fill="#F7931A" d="M23.55 17.89a7.794 7.794 0 0 1-9.45 5.68 7.794 7.794 0 0 1-5.68-9.45 7.794 7.794 0 0 1 9.45-5.68 7.794 7.794 0 0 1 5.68 9.45"/><path fill="#fff" d="M19.42 14.89c.16-1.04-.63-1.6-1.72-1.97l.35-1.41-.86-.21-.34 1.37c-.22-.06-.46-.11-.69-.16l.34-1.38-.86-.21-.35 1.41a9 9 0 0 1-.55-.13l-1.18-.3-.23.91s.63.15.62.15c.35.09.41.32.4.5l-.4 1.6s.05.01.09.03c-.03 0-.06-.01-.09-.02l-.56 2.24c-.04.11-.15.26-.39.2 0 .01-.62-.16-.62-.16l-.42.98 1.11.28c.21.05.41.11.61.16l-.35 1.42.85.21.35-1.41c.23.06.46.12.68.18l-.35 1.4.86.21.35-1.42c1.46.28 2.56.16 3.02-1.16.37-1.06-.02-1.68-.79-2.08.56-.13.98-.5 1.09-1.26zm-1.96 2.74c-.26 1.06-2.05.49-2.63.34l.47-1.88c.58.14 2.44.43 2.16 1.54m.27-2.76c-.24.97-1.73.48-2.21.36l.43-1.71c.48.12 2.04.35 1.79 1.35z"/></svg>