<svg width="32" height="32" fill="none" viewBox="0 0 32 32" xmlns="http://www.w3.org/2000/svg"><g clip-path="url(#coinbasewrappedstakedeth__clip0_292_184)"><path fill="#fff" d="M31.78 16.11C31.78 7.33 24.67.22 15.89.22S0 7.33 0 16.11 7.11 32 15.89 32s15.89-7.11 15.89-15.89"/><path fill="#0052FF" d="M15.89 4.77 9.17 16.11l6.72-3.12z"/><path fill="#6697FF" d="M15.89 20.12 9.17 16.1l6.72-3.1v7.13z"/><path fill="#0052FF" d="m15.89 21.43-6.71-4.02 6.71 9.6z"/><path fill="#6697FF" d="m15.89 4.77 6.72 11.34-6.72-3.12z"/><path fill="#CCDCFF" d="m15.89 20.12 6.72-4.01-6.72-3.12z"/><path fill="#6697FF" d="m15.89 21.43 6.72-3.95-6.72 9.53z"/><path fill="#0052FF" fill-rule="evenodd" d="M15.89.22C7.11.22 0 7.33 0 16.11S7.11 32 15.89 32s15.89-7.11 15.89-15.89S24.67.22 15.89.22m0 30.19c-7.9 0-14.3-6.4-14.3-14.3s6.4-14.3 14.3-14.3 14.3 6.4 14.3 14.3-6.4 14.3-14.3 14.3" clip-rule="evenodd"/></g><defs><clipPath id="coinbasewrappedstakedeth__clip0_292_184"><path fill="#fff" d="M0 0h32v32H0z"/></clipPath></defs></svg>