<svg width="32" height="32" fill="none" viewBox="0 0 32 32" xmlns="http://www.w3.org/2000/svg"><g clip-path="url(#daistablecoin__clip0_294_3770)"><path fill="url(#daistablecoin__paint0_linear_294_3770)" d="M16 32c8.837 0 16-7.163 16-16S24.837 0 16 0 0 7.163 0 16s7.163 16 16 16"/><path fill="#fff" d="M23.584 13.362c-1.046-2.904-3.859-4.895-7.564-4.895H9.924v4.895H7.81v1.755h2.114v1.837H7.81v1.755h2.114v4.834h6.096c3.664 0 6.456-1.97 7.523-4.834h1.94v-1.755h-1.509c.041-.318.062-.636.062-.944v-.04c0-.288-.02-.575-.041-.853h1.498v-1.755zm-11.946-3.325h4.393c2.72 0 4.741 1.334 5.675 3.325H11.638zm4.382 11.926h-4.392v-3.264h10.047c-.934 1.95-2.955 3.253-5.665 3.253zm6.25-5.922c0 .308-.02.606-.06.903H11.637v-1.837H22.21q.062.446.062.893z"/></g><defs><linearGradient id="daistablecoin__paint0_linear_294_3770" x1="16.174" x2="16.174" y1="36.505" y2="-3.52" gradientUnits="userSpaceOnUse"><stop stop-color="#F9A606"/><stop offset="1" stop-color="#FBCC5F"/></linearGradient><clipPath id="daistablecoin__clip0_294_3770"><path fill="#fff" d="M0 0h32v32H0z"/></clipPath></defs></svg>