<svg width="32" height="32" fill="none" viewBox="0 0 32 32" xmlns="http://www.w3.org/2000/svg"><path fill="#fff" d="M16 32c8.837 0 16-7.163 16-16S24.837 0 16 0 0 7.163 0 16s7.163 16 16 16"/><path fill="#B2B4B4" d="m16.33 7.22 2.1-1.21v-2.9l-2.1-1.21v5.33z"/><path fill="#83BCBA" d="M8.59 19.84v-8.16l7.03-4.05V1.89L3.98 8.61a.73.73 0 0 0-.36.62v13.48z"/><path fill="#6D6E70" d="m23.01 20.41-7.03 4.06-6.99-4.04-4.97 2.87L15.63 30c.22.13.49.13.71 0l11.64-6.72L23 20.41z"/><path fill="#B2B4B4" d="m27.97 8.61-4.61-2.66v2.9l-4.96 2.86 4.96 2.86v5.22l4.97 2.87V9.23a.73.73 0 0 0-.36-.62"/><path fill="#6D6E70" d="M13.51 14.53v5.69l4.83-2.79v-5.69z"/></svg>