<svg xmlns="http://www.w3.org/2000/svg" width="32" height="32" fill="none"><path fill="#8150E6" d="M31.76 16.27c0 8.64-6.98 15.64-15.59 15.64S.58 24.91.58 16.27 7.56.63 16.17.63s15.59 7 15.59 15.64"/><path fill="#3C176B" d="M31.17 20.52 20.07 9.56l-6.32-1.19-3.7 13.98 9.34 9.23c5.68-1.2 10.22-5.5 11.78-11.06"/><path fill="#6B42BD" d="M14.82 21.13v-8.65H17c.73 0 1.4.09 2.02.28q.915.285 1.59.87c.06.05.12.11.18.17 0-1.17-.42-2.34-1.01-3.4-.67-.19-1.36-.29-2.05-.28h-5.28v11c.8 0 1.59.07 2.39.01z"/><path fill="#9B74EC" d="M23.97 14.21c-.38-.92-.88-1.68-1.52-2.29a6.1 6.1 0 0 0-2.18-1.36c-.17-.06-.33-.11-.5-.16.6 1.06 1.02 2.22 1.01 3.4.36.37.6 1.8.81 2.34l-6.78 6.21v-1.23c-.8.06-1.58 0-2.39-.01v3.6h5c.81 0 1.63-.15 2.47-.45s1.6-.75 2.29-1.35 1.25-1.36 1.69-2.28.65-2.01.65-3.26-.19-2.25-.57-3.17z"/><path fill="#fff" d="M14.22 19.99c.74 0 1.45-.09 2.11-.28s1.24-.48 1.73-.87.88-.9 1.16-1.53.43-1.39.43-2.29-.13-1.57-.38-2.21-.6-1.15-1.05-1.54q-.675-.585-1.59-.87c-.61-.19-1.28-.28-2.02-.28h-2.18v9.87h1.79M10.05 7.75h5.28c.88 0 1.74.15 2.56.45s1.55.75 2.18 1.36 1.14 1.37 1.52 2.29.57 1.93.57 3.17-.22 2.35-.65 3.26c-.44.92-1 1.68-1.69 2.28s-1.45 1.05-2.29 1.35-1.66.45-2.47.45h-5V7.76z"/></svg>