<svg width="32" height="32" fill="none" viewBox="0 0 32 32" xmlns="http://www.w3.org/2000/svg"><path fill="#fff" d="M16 32c8.837 0 16-7.163 16-16S24.837 0 16 0 0 7.163 0 16s7.163 16 16 16"/><path fill="url(#enkryptwallet__paint0_linear_1204_2411)" fill-rule="evenodd" d="M4.64 9.39c0-2.35 1.9-4.25 4.25-4.25h17.83V8.4a3.05 3.05 0 0 1-3.05 3.05h-8.38c-2.35 0-4.25 1.9-4.25 4.25v1.08c0 2.35 1.9 4.25 4.25 4.25h8.38a3.05 3.05 0 0 1 3.05 3.05v3.13H8.89c-2.35 0-4.25-1.9-4.25-4.25V9.38zm10.82 3.84h8.6a2.65 2.65 0 0 1 2.65 2.66v.71c0 1.47-1.19 2.66-2.65 2.66h-8.6c-1.47 0-2.66-1.19-2.66-2.66v-.71c0-1.47 1.19-2.66 2.66-2.66" clip-rule="evenodd"/><defs><linearGradient id="enkryptwallet__paint0_linear_1204_2411" x1="6.51" x2="27.34" y1="5.76" y2="26.6" gradientUnits="userSpaceOnUse"><stop stop-color="#B351F6"/><stop offset="1" stop-color="#6A4CF5"/></linearGradient></defs></svg>