<svg xmlns="http://www.w3.org/2000/svg" width="33" height="32" fill="none"><path fill="url(#a)" d="M16.75.12c8.78 0 15.89 7.11 15.89 15.89S25.53 31.9 16.75 31.9.86 24.79.86 16.01 7.97.12 16.75.12"/><path fill="#fff" d="M9.81 14c.21.44.72 1.31.72 1.31l5.9-9.72-5.76 4.01c-.34.23-.62.54-.82.9a4.18 4.18 0 0 0-.04 3.51zm-2.34 3.2c.07.93.33 1.83.77 2.65s1.06 1.54 1.8 2.1l6.37 4.42s-3.98-5.72-7.35-11.42a5.8 5.8 0 0 1-.68-1.94q-.075-.465 0-.93c-.09.16-.26.49-.26.49-.34.69-.57 1.43-.69 2.2-.07.81-.06 1.62.02 2.42zm16.25.76c-.21-.44-.72-1.31-.72-1.31l-5.9 9.72 5.76-4c.34-.23.62-.54.82-.9.53-1.11.55-2.39.04-3.51m2.34-3.2c-.07-.93-.33-1.83-.77-2.65a6.5 6.5 0 0 0-1.8-2.1l-6.37-4.42s3.98 5.72 7.35 11.42c.34.6.57 1.26.67 1.94q.075.465 0 .93c.09-.16.26-.49.26-.49.34-.69.57-1.43.69-2.2.07-.81.06-1.62-.02-2.42z"/><defs><linearGradient id="a" x1="26.47" x2="-4.41" y1="33.14" y2="-21.23" gradientUnits="userSpaceOnUse"><stop stop-color="#44BCF0"/><stop offset=".38" stop-color="#7298F8"/><stop offset="1" stop-color="#A099FF"/></linearGradient></defs></svg>