<svg width="32" height="32" fill="none" viewBox="0 0 60 60" xmlns="http://www.w3.org/2000/svg"><circle cx="30.001" cy="29.999" r="30" fill="url(#etherfi__paint0_linear_12938_73089)"/><g clip-path="url(#etherfi__clip0_12938_73089)"><path fill="url(#etherfi__paint1_linear_12938_73089)" d="m47.032 31.907-1.306-5.093a.42.42 0 0 0-.308-.304l-5.048-1.244a.6.6 0 0 0-.116-.013.41.41 0 0 0-.337.117l-8.519 8.518-1.127-4.403a.42.42 0 0 0-.308-.304l-4.336-1.07 8.514-8.513c.05-.05.079-.112.1-.175a.4.4 0 0 0 .025-.27l-1.307-5.094a.42.42 0 0 0-.308-.303l-5.048-1.245a.43.43 0 0 0-.287.034h-.004q-.036.02-.07.045c-.022.017-.05.025-.067.046L12.643 27.16s-.024.042-.041.062a.41.41 0 0 0-.083.387l1.41 4.923c.042.142.15.25.287.287l4.728 1.357 1.356 4.723c.042.141.15.25.287.287l4.744 1.36 1.361 4.745c.042.141.15.25.287.287l4.944 1.419c.037.012.079.017.116.017.009 0 .017-.005.03-.005h.008a.42.42 0 0 0 .3-.125l14.535-14.535c.05-.05.079-.112.1-.175a.4.4 0 0 0 .025-.27zm-6.516 5.647-1.061-4.14 2.35-2.348 4.041 1.161-5.326 5.331zm-8.244 8.243-1.06-4.14 4.252-4.253 4.04 1.161zm3.28-9.67-1.016-3.538 3.65.9-2.635 2.633zm3.212-2.023.932 3.633-3.55-1.02 2.618-2.617zm.12-1.31-4.136-1.02 5.314-5.314 1.149 4.007zm-5.164.004 1.149 4.007-4.232 4.232-4.136-1.02zm11.253-5.54 1.06 4.141-4.01-1.152-1.15-4zM25.876 39.403l-1.06-4.141 1.53-1.531 4.041 1.16zm.558-6.95-1.015-3.537 3.65.899-2.635 2.634zm4.145 1.615-3.55-1.02 2.617-2.617.933 3.633zm-4.823-.932-1.51 1.51-4.137-1.02 4.498-4.498zm-4.76-13.138 1.148 4.008-4.27 4.27-4.136-1.02zm6.304-6.304 1.148 4.007-2.289 2.29-4.136-1.02zm.49 11.057-1.06-4.137 2.313-2.313 4.04 1.156zm-4.964-1.424-1.015-3.537 3.65.9-2.635 2.633zm3.213-2.022.932 3.633-3.546-1.02 2.618-2.617zM22.743 24.6l4.04 1.157-7.27 7.27-1.06-4.137zm9.467-10.1 1.061 4.14-4.011-1.152-1.149-3.999zM13.53 28.074l3.65.9-2.635 2.633-1.015-3.537zm1.61 4.133 2.618-2.618.932 3.633-3.546-1.02zm5.905 6.237-1.148-3.999 4.099 1.012 1.06 4.14zm5.247 2.393 3.65.899-2.634 2.634-1.016-3.537zm1.61 4.132 2.618-2.617.932 3.633-3.55-1.02z"/></g><path fill="url(#etherfi__paint2_linear_12938_73089)" fill-rule="evenodd" d="M30 58.5c15.74 0 28.5-12.76 28.5-28.5S45.74 1.5 30 1.5 1.5 14.26 1.5 30 14.26 58.5 30 58.5m0-1.502c14.911 0 27-12.088 27-27 0-14.911-12.089-27-27-27s-27 12.089-27 27c0 14.912 12.088 27 27 27" clip-rule="evenodd"/><defs><linearGradient id="etherfi__paint0_linear_12938_73089" x1="-8.374" x2="100.608" y1="59.299" y2="-25.207" gradientUnits="userSpaceOnUse"><stop offset=".148" stop-color="#19163B"/><stop offset=".332" stop-color="#19163B"/><stop offset="1" stop-color="#4C09A2"/></linearGradient><linearGradient id="etherfi__paint1_linear_12938_73089" x1="14.895" x2="44.81" y1="35.174" y2="24.284" gradientUnits="userSpaceOnUse"><stop stop-color="#29BCFA"/><stop offset=".43" stop-color="#6464E4"/><stop offset="1" stop-color="#B45AFA"/></linearGradient><linearGradient id="etherfi__paint2_linear_12938_73089" x1="-6.456" x2="97.077" y1="57.834" y2="-22.447" gradientUnits="userSpaceOnUse"><stop stop-color="#4C09A2"/><stop offset=".668" stop-color="#19163B"/><stop offset=".852" stop-color="#19163B"/></linearGradient><clipPath id="etherfi__clip0_12938_73089"><path fill="#fff" d="M12.5 12.5h35v35h-35z"/></clipPath></defs><script type="text/javascript"/></svg>