<svg width="32" height="32" fill="none" viewBox="0 0 32 32" xmlns="http://www.w3.org/2000/svg"><path fill="url(#etherfi__paint0_linear_1629_13)" d="M16 32c8.837 0 16-7.163 16-16S24.837 0 16 0 0 7.163 0 16s7.163 16 16 16"/><path fill="url(#etherfi__paint1_linear_1629_13)" d="m25.08 17.02-.7-2.72a.22.22 0 0 0-.16-.16l-2.69-.66h-.06c-.06 0-.13.01-.18.06l-4.54 4.54-.6-2.35a.22.22 0 0 0-.16-.16L13.68 15l4.54-4.54s.04-.06.05-.09c.02-.04.03-.1.01-.14l-.7-2.72a.22.22 0 0 0-.16-.16l-2.69-.66c-.05-.01-.11 0-.15.02 0 0-.02.02-.04.02-.01 0-.03.01-.04.02L6.75 14.5s-.01.02-.02.03a.2.2 0 0 0-.04.21l.75 2.63c.02.08.08.13.15.15l2.52.72.72 2.52c.02.08.08.13.15.15l2.53.73.73 2.53c.02.08.08.13.15.15l2.64.76h.08c.06 0 .12-.02.16-.07l7.75-7.75s.04-.06.05-.09c.02-.04.03-.1.01-.14zm-3.47 3.01-.57-2.21 1.25-1.25 2.15.62-2.84 2.84zm-4.4 4.4-.57-2.21 2.27-2.27 2.15.62-3.86 3.86zm1.75-5.16-.54-1.89 1.95.48zm1.71-1.08.5 1.94-1.89-.54 1.4-1.4zm.07-.7-2.21-.54 2.83-2.83.61 2.14-1.24 1.24zm-2.76 0 .61 2.14-2.26 2.26-2.21-.54zm6-2.95.57 2.21-2.14-.61-.61-2.13 2.19.54zM13.8 21.01l-.57-2.21.82-.82 2.16.62zm.3-3.7-.54-1.89 1.95.48zm2.21.86-1.89-.54 1.4-1.4.5 1.94zm-2.57-.5-.81.81-2.21-.54 2.4-2.4.61 2.14zm-2.54-7 .61 2.14-2.28 2.28-2.21-.54zm3.36-3.37.61 2.14-1.22 1.22-2.21-.54zm.26 5.9-.57-2.21 1.23-1.23 2.15.62-2.82 2.82zm-2.65-.76-.54-1.89 1.95.48zm1.72-1.08.5 1.94-1.89-.54 1.4-1.4zm-1.76 1.76 2.15.62-3.88 3.88-.57-2.21 2.29-2.29zm5.05-5.39.57 2.21-2.14-.61L15 7.2l2.19.54zm-9.96 7.24 1.95.48-1.4 1.4-.54-1.89zm.85 2.21 1.4-1.4.5 1.94-1.89-.54zm3.15 3.32-.61-2.13 2.19.54.57 2.21-2.14-.61zm2.8 1.28 1.95.48-1.4 1.4-.54-1.89zm.86 2.2 1.4-1.4.5 1.94-1.89-.54z"/><path fill="url(#etherfi__paint2_linear_1629_13)" fill-rule="evenodd" d="M16 31.2c8.39 0 15.2-6.81 15.2-15.2S24.39.8 16 .8.8 7.61.8 16 7.61 31.2 16 31.2m0-.8c7.95 0 14.4-6.45 14.4-14.4S23.95 1.6 16 1.6 1.6 8.05 1.6 16 8.05 30.4 16 30.4" clip-rule="evenodd"/><defs><linearGradient id="etherfi__paint0_linear_1629_13" x1="-4.35" x2="53.78" y1="31.78" y2="-13.29" gradientUnits="userSpaceOnUse"><stop offset=".15" stop-color="#181639"/><stop offset=".33" stop-color="#181639"/><stop offset="1" stop-color="#45109B"/></linearGradient><linearGradient id="etherfi__paint1_linear_1629_13" x1="2.197" x2="29.938" y1="21.005" y2="10.935" gradientUnits="userSpaceOnUse"><stop stop-color="#5CB8F3"/><stop offset=".43" stop-color="#6464DB"/><stop offset="1" stop-color="#A75FF1"/></linearGradient><linearGradient id="etherfi__paint2_linear_1629_13" x1="-3.33" x2="51.89" y1="30.99" y2="-11.82" gradientUnits="userSpaceOnUse"><stop stop-color="#45109B"/><stop offset=".67" stop-color="#181639"/><stop offset=".85" stop-color="#181639"/></linearGradient></defs></svg>