<svg xmlns="http://www.w3.org/2000/svg" width="32" height="33" fill="none" viewBox="0 0 32 33"><path fill="#000" d="M16 .17c8.84 0 16 7.16 16 16s-7.16 16-16 16-16-7.16-16-16 7.16-16 16-16"/><path fill="#fff" d="m5.13 9.74 17.35 17.35 4.46-4.46L9.59 5.28z"/><path fill="#fff" d="M9.59 27.09 26.94 9.74l-4.46-4.46L5.13 22.63z"/><path fill="#000" d="M16 6.09c5.57 0 10.08 4.51 10.08 10.08S21.57 26.25 16 26.25 5.92 21.74 5.92 16.17 10.43 6.09 16 6.09"/><path fill="#fff" d="m16 8.12-4.86 8.21L16 14.07z"/><path fill="#B1B1B1" d="m16 19.23-4.86-2.91L16 14.07z"/><path fill="#fff" d="m16 20.18-4.86-2.91L16 24.22z"/><path fill="#B7B7B7" d="m16 8.12 4.86 8.21L16 14.07z"/><path fill="#949090" d="m16 19.23 4.86-2.9L16 14.07zM16 20.18l4.86-2.86-4.86 6.9z"/></svg>