<svg xmlns="http://www.w3.org/2000/svg" width="33" height="33" fill="none"><path fill="#fff" d="M16.22 31.86c8.61 0 15.59-6.98 15.59-15.59S24.83.68 16.22.68.63 7.66.63 16.27s6.98 15.59 15.59 15.59"/><path fill="url(#a)" d="M16.22 32.27c8.837 0 16-7.164 16-16s-7.163-16-16-16-16 7.163-16 16 7.163 16 16 16"/><path fill="#fff" d="m23.71 21.18-2.02-1.16s-.06-.02-.09-.02h-.05c-.05.01-.09.05-.11.09-.17.32-.39.61-.64.87-.34.35-.73.65-1.15.89-.41.23-.85.4-1.31.5-.43.1-.87.15-1.32.16-.78 0-1.55-.18-2.25-.53-.67-.34-1.26-.82-1.74-1.4-.23-.28-.44-.59-.62-.91l-.24-.42h5.12c.1 0 .18-.08.18-.18v-1.6c0-.1-.08-.18-.18-.18H11.6l-.03-.25c-.03-.27-.05-.55-.05-.82 0-.23.01-.47.04-.72l.03-.25h5.7c.1 0 .18-.08.18-.18v-1.6c0-.1-.08-.18-.18-.18h-5.18l.22-.42c.16-.29.33-.58.54-.84.46-.6 1.03-1.09 1.69-1.44.68-.37 1.49-.56 2.4-.56.43 0 .86.05 1.29.14.44.1.87.25 1.27.46.75.4 1.38 1 1.81 1.74.03.04.07.08.12.09h.04c.04 0 .07-.01.1-.03l1.87-1.29c.08-.05.1-.16.05-.24a6.7 6.7 0 0 0-2.36-2.32c-1.14-.69-2.52-1.04-4.1-1.04-1.34 0-2.54.25-3.58.75A8.3 8.3 0 0 0 9.15 13c0 .02-.01.03-.02.05 0 0-.01.04-.02.05l-.07.19H5.1c-.1 0-.18.08-.18.18v1.6c0 .1.08.18.18.18h3.51l-.02.3c-.01.22-.02.4-.02.57 0 .28.01.57.04.86l.03.31H5.1c-.1 0-.18.08-.18.18v1.6c0 .1.08.18.18.18h4.04l.07.18c.4 1.02.97 1.95 1.7 2.77.74.84 1.63 1.52 2.63 2.03 1.01.51 2.13.77 3.35.77.72 0 1.44-.09 2.14-.27.71-.17 1.4-.43 2.05-.78.63-.33 1.2-.75 1.71-1.24.39-.37.71-.81.97-1.28a.17.17 0 0 0-.07-.24z"/><defs><linearGradient id="a" x1="8.22" x2="24.22" y1="2.41" y2="30.13" gradientUnits="userSpaceOnUse"><stop stop-color="#0095D7"/><stop offset="1" stop-color="#0072AA"/></linearGradient></defs></svg>