<svg width="32" height="32" fill="none" viewBox="0 0 32 32" xmlns="http://www.w3.org/2000/svg"><path fill="#fff" d="M16 32c8.837 0 16-7.163 16-16S24.837 0 16 0 0 7.163 0 16s7.163 16 16 16"/><path fill="#000" d="M25.23 15.63V7.82c0-.69-.56-1.25-1.25-1.25h-7.84q-.12 0-.21-.09l-.94-.94a.3.3 0 0 0-.22-.09H6.94c-.69 0-1.25.56-1.25 1.25v7.81q0 .12.09.21l.94.94c.06.05.09.13.09.21v7.81c0 .69.56 1.25 1.25 1.25h7.84q.12 0 .21.09l.94.94c.06.05.13.09.21.09h7.84c.69 0 1.25-.56 1.25-1.25v-7.81q0-.12-.09-.21l-.94-.94a.3.3 0 0 1-.08-.2zm-4.35 5.19h-9.72c-.12 0-.22-.1-.22-.22v-9.69c0-.12.1-.22.22-.22h9.72c.12 0 .22.1.22.22v9.69c0 .12-.1.22-.22.22"/></svg>