<svg xmlns="http://www.w3.org/2000/svg" width="32" height="32" fill="none"><path fill="#000" d="M30.47 10.2c-.79-1.86-1.91-3.52-3.34-4.96a15.4 15.4 0 0 0-4.96-3.34A15.5 15.5 0 0 0 16.1.67c-2.11 0-4.15.41-6.07 1.23-1.86.79-3.52 1.91-4.96 3.34a15.4 15.4 0 0 0-3.34 4.96A15.5 15.5 0 0 0 .5 16.27c0 2.11.41 4.15 1.23 6.07.79 1.86 1.91 3.52 3.34 4.96a15.4 15.4 0 0 0 4.96 3.34c1.92.81 3.96 1.23 6.07 1.23 2.1 0 4.15-.41 6.07-1.23 1.86-.79 3.52-1.91 4.96-3.34a15.4 15.4 0 0 0 3.34-4.96 15.5 15.5 0 0 0 1.23-6.07c0-2.11-.41-4.15-1.23-6.07"/><path fill="#fff" d="M22.11 19.86c0-1.36-.57-2.49-1.69-3.33-.83-.63-1.98-1.14-3.86-1.72-3.38-1.04-3.38-1.63-3.38-2.12 0-.66.98-1.58 2.83-1.58 1.09 0 2.92.27 2.92 2.12H22c0-.87-.19-1.68-.56-2.39l2.46-2.46-2.17-2.17-2.51 2.51c-.91-.45-2-.68-3.21-.68-1.13 0-2.17.22-3.06.64l-2.47-2.47-2.17 2.17 2.34 2.34c-.35.61-.54 1.29-.54 1.97 0 1.36.57 2.49 1.69 3.33.83.63 1.98 1.14 3.86 1.72 3.38 1.04 3.38 1.64 3.38 2.12 0 .66-.98 1.58-2.83 1.58-1.09 0-2.92-.27-2.92-2.12h-3.07c0 .87.2 1.69.57 2.39l-2.47 2.47 2.17 2.17 2.52-2.52c.91.44 2 .68 3.21.68 1.13 0 2.16-.22 3.05-.63l2.48 2.48 2.17-2.17-2.35-2.35c.35-.62.54-1.29.54-1.98"/></svg>