<svg width="32" height="32" fill="none" viewBox="0 0 32 32" xmlns="http://www.w3.org/2000/svg"><path fill="#000" d="M16 32c8.837 0 16-7.163 16-16S24.837 0 16 0 0 7.163 0 16s7.163 16 16 16"/><path fill="#fff" fill-rule="evenodd" d="M21.51 11.53h-.3V8.5h-9.98c-1.39 0-2.48 1.09-2.48 2.46v10.36a2.454 2.454 0 0 0 2.48 2.42h9.82c1.35 0 2.45-1.11 2.44-2.46V13.5c0-1.11-.87-1.97-1.99-1.97zm-11.47-.56v-.04c.01-.65.55-1.16 1.19-1.15h8.69v1.76h-4.44v3.69h-4.29c-.65 0-1.17-.54-1.16-1.19v-3.07zm12.17 10.36c-.01.65-.55 1.16-1.2 1.15h-9.82c-.65 0-1.17-.54-1.16-1.19V16.2c.36.19.76.31 1.19.31H21.5c.25 0 .48-.05.7-.13v4.95zm0-6.8v.05c-.01.37-.33.67-.7.65h-4.74v-2.42h4.79c.37.01.67.33.65.7z" clip-rule="evenodd"/></svg>