<svg xmlns="http://www.w3.org/2000/svg" width="32" height="32" fill="none" viewBox="0 0 32 32"><g clip-path="url(#clip0_292_229)"><path fill="url(#paint0_linear_292_229)" d="M16 0c8.84 0 16 7.16 16 16s-7.16 16-16 16S0 24.84 0 16 7.16 0 16 0"/><path fill="#fff" fill-rule="evenodd" d="m24.93 20.61-2.18-5.04h-3.5l2.08 4.93h-6.77a4.84 4.84 0 0 1-3.47-1.45 4.904 4.904 0 0 1 0-6.96c.93-.93 2.16-1.45 3.47-1.45h6.45l-1.37-3.29h-5.08c-4.52 0-8.35 3.69-8.35 8.21s3.84 8.21 8.35 8.21h10.38V20.6z" clip-rule="evenodd"/><path fill="#fff" fill-rule="evenodd" d="M14.01 11.86a1.641 1.641 0 0 0 0 3.28 1.641 1.641 0 0 0 0-3.28M14.01 16.07a1.641 1.641 0 0 0 0 3.28 1.641 1.641 0 0 0 0-3.28" clip-rule="evenodd"/></g><defs><linearGradient id="paint0_linear_292_229" x1="15.99" x2="15.99" y1="0" y2="32" gradientUnits="userSpaceOnUse"><stop stop-color="#B3B2D3"/><stop offset=".53" stop-color="#8C8ADA"/><stop offset="1" stop-color="#6D69DE"/></linearGradient><clipPath id="clip0_292_229"><path fill="#fff" d="M0 0h32v32H0z"/></clipPath></defs></svg>