<svg xmlns="http://www.w3.org/2000/svg" width="32" height="32" fill="none" viewBox="0 0 32 32"><g clip-path="url(#xdfyn__clip0_294_317)"><path fill="#fff" d="M15.99 30.87c8.146 0 14.75-6.604 14.75-14.75S24.136 1.37 15.99 1.37 1.24 7.974 1.24 16.12s6.604 14.75 14.75 14.75"/><path fill="#35775D" fill-rule="evenodd" d="M16 32C7.16 32 0 24.84 0 16S7.16 0 16 0s16 7.16 16 16-7.16 16-16 16m8.78-21.5-.8.81c.64 1.01.83 2.28.4 3.49-.73 2.06-2.98 3.15-5.02 2.41-.29-.11-.56-.24-.8-.41L16 19.39l-2.23-2.28c-1.06.72-2.4.89-3.61.46a4.087 4.087 0 0 1-2.43-5.22c.11-.33.27-.63.45-.9l-.96-.98-.18.31a10.7 10.7 0 0 0-1.54 5.54c-.02 5.87 4.7 10.67 10.48 10.67H16c5.78 0 10.48-4.76 10.5-10.63 0-1.95-.53-3.86-1.52-5.54l-.2-.33zM9.37 12.65c-.28.38-.44.85-.44 1.32 0 1.19.96 2.17 2.14 2.17.49 0 .94-.16 1.31-.46zm10.5 2.85c.34.24.74.37 1.2.37 1.18 0 2.14-.98 2.14-2.17 0-.44-.13-.86-.36-1.21l-2.97 3.02zm-3.83 2.28 8.56-8.65-.33-.37a11.2 11.2 0 0 0-8.34-3.77h-.02c-3.14 0-6.06 1.29-8.2 3.59l-.34.37zM8.79 8.95c1.9-1.88 4.47-2.94 7.15-2.92h.02c2.72 0 5.33 1.12 7.25 3.07l-7.16 7.23L8.8 8.95z" clip-rule="evenodd"/></g><defs><clipPath id="xdfyn__clip0_294_317"><path fill="#fff" d="M0 0h32v32H0z"/></clipPath></defs></svg>