<svg xmlns="http://www.w3.org/2000/svg" style="shape-rendering:geometricPrecision;text-rendering:geometricPrecision;fill-rule:evenodd;clip-rule:evenodd" viewBox="0 0 512 512"><path d="M266.5-.5h31q15.216 2.81 30 8.5 6.419 7.55-1 14a16.25 16.25 0 0 1-8 0q-56.511-19.798-103 18 72.843 21.34 88.5 95.5 3.648 25.754-2.5 51 26.505.25 53-.5 11.905-12.052 19-27.5-13.702-13.599-12-33-34.922 2.564-39-32 4.254-34.24 39-33 .746-5.58-2.5-10l-18-18q-.541-13.61 12.5-9.5A119 119 0 0 1 367 35.5q21.526-24 48.5-6.5 13.382 12.891 11 31.5 45.414.642 37.5 45a72.5 72.5 0 0 1-5.5 10q16.233 17.967 20.5 42a9948 9948 0 0 1 1 280q-5.721 48.191-49.5 68.5a190 190 0 0 1-18 5.5h-336q-39.806-10.067-45.5-51a25439 25439 0 0 1 0-319Q40.24 92.271 90.5 90q38.324-53.912 105-53 29.27-30.634 71-37.5m124 38q11.98-.885 18.5 9a169 169 0 0 1 2 24q.52 3.522 3.5 5.5 12.591.195 25 2 14.97 7.914 8.5 23.5-2.25 4.25-6.5 6.5a169 169 0 0 1-24 2q-3.522.52-5.5 3.5l-3 27q-9.72 13.905-24.5 5.5-3.909-2.907-5.5-7.5a194 194 0 0 1-2-25q-1.978-2.98-5.5-3.5l-22-1q-14.05-7.347-9.5-22.5 4.26-8.255 13.5-9.5l20-1a9.5 9.5 0 0 0 2.5-1.5q1.6-12.935 3-26 3.656-7.91 11.5-11m-213 16q73.264-2.766 104.5 63 13.306 34.071 2.5 69a434 434 0 0 1-51 .5q16.908-20.572-2-39-8.057-3.889-17-3.5a582 582 0 0 0-1.5-58q-6.484-12.344-20.5-10.5-5.061.781-9 4a5610 5610 0 0 0-43.5 56.5q-8.394 13.65-1 28 4.483 5.986 11.5 8.5 10.488.75 21 .5v14q-39.513.5-79-1-17.797-63.85 31-108.5 24.018-18.763 54-23.5m17 37q2.276.015 3.5 2l1 62a11.53 11.53 0 0 0 3.5 4.5l18 1q6.807 2.57 4.5 9.5a446 446 0 0 1-11.5 16.5q-12.99.75-26 .5.25-12.51-.5-25-1.25-2.25-3.5-3.5l-26-1q-9.048-2.93-4.5-11.5a1335 1335 0 0 0 41.5-55m-118 17h4q-14.738 37.498-5 76.5-18.088-4.063-25.5-21.5-10.9-39.199 26.5-55m365 17a4.93 4.93 0 0 1 3 .5q16.804 17.362 19.5 41.5a702 702 0 0 1 0 53q-19.107-26.197-51.5-31.5a596 596 0 0 0-37-2 85.2 85.2 0 0 0 13-21q39.987.759 38-39.5 7.793.481 15-1m-395 62q12.636 12.07 30 15.5l326 1q43.104 4.111 58.5 44.5a80.6 80.6 0 0 1 3 15q1 87 0 174-6.34 43.842-48.5 57.5a115 115 0 0 1-15 2q-38.497.75-77 .5-.25-40.503.5-81l31.5-31.5q43.366-1.362 40.5-44.5-7.259-26.755-35-28-36.671 3.72-37 41l-39 39a36.2 36.2 0 0 0-4 7 1634 1634 0 0 0-1.5 98h-9q.25-69.502-.5-139a32.5 32.5 0 0 0-3-7l-23-23q-.016-37.506-37-42-39.408 5.274-35 45 9.475 28.373 39.5 27.5l14.5 14.5q.207 9.121 2 18 7.55 6.419 14-1 1-12 0-24a138 138 0 0 0-13.5-14.5 28.6 28.6 0 0 0 8-7.5 420 420 0 0 1 17.5 17q.75 67.998.5 136h-12q.25-42.003-.5-84-4.474-7.602-12.5-3.5a29.5 29.5 0 0 0-2.5 4.5q-.75 41.497-.5 83h-9q.25-30.005-.5-60a23 23 0 0 0-2-5 1275 1275 0 0 0-42-43q-1.728-45.224-46.5-39.5-30.92 12.583-24.5 45.5 10.415 26.851 39.5 25.5l31.5 31.5q.75 22.494.5 45-47.543.657-95-1.5-27.387-7.389-31.5-35.5-.75-136.499-.5-273m158 115q25.62 1.854 21.5 27-9.68 18.897-29.5 10.5-13.916-11.192-6.5-27.5 5.4-7.815 14.5-10m151 26q26.985-.767 24.5 26-9.963 20.488-30.5 10.5-16.518-14.849-2-31.5 3.642-3.308 8-5m-223 36q25.527-.227 23.5 25-8.48 20.862-29.5 12.5-19.285-16.335-1-34zm198 5a107 107 0 0 1 9 8.5 723 723 0 0 0-31.5 32.5 3783 3783 0 0 0-.5 87h-12q-.25-46.002.5-92a1762 1762 0 0 1 34.5-36m-165 37a351.5 351.5 0 0 1 35.5 35q.75 27.995.5 56h-12q.25-26.005-.5-52l-30-30q-1-1 0-2a64 64 0 0 0 6.5-7"/></svg>