<svg width="32" height="32" fill="none" viewBox="0 0 32 32" xmlns="http://www.w3.org/2000/svg"><path fill="url(#imtokenwallet__paint0_linear_1209_3030)" d="M16 32c8.837 0 16-7.163 16-16S24.837 0 16 0 0 7.163 0 16s7.163 16 16 16"/><path fill="#fff" d="M26.51 10.28c.66 9.08-5.4 13.4-10.84 13.87-5.05.44-9.79-2.53-10.2-7.13-.34-3.79 2.1-5.43 4.01-5.58 1.97-.17 3.61 1.13 3.76 2.71.14 1.52-.85 2.22-1.54 2.27-.54.05-1.22-.27-1.29-.94-.05-.59.19-.66.12-1.28-.1-1.11-1.1-1.23-1.64-1.18-.66.05-1.86.81-1.71 2.66.17 1.87 2.03 3.35 4.47 3.13 2.64-.24 4.49-2.21 4.62-4.99 0-.15.03-.29.1-.42.03-.05.05-.1.1-.15.07-.1.14-.19.22-.27l.24-.24c1.15-1.04 5.32-3.54 9.23-2.76.03 0 .07.02.08.03.15 0 .24.12.25.25"/><defs><linearGradient id="imtokenwallet__paint0_linear_1209_3030" x1="29.86" x2="2.14" y1="8" y2="24" gradientUnits="userSpaceOnUse"><stop stop-color="#5AC0CE"/><stop offset="1" stop-color="#2860A7"/></linearGradient></defs></svg>