<svg xmlns="http://www.w3.org/2000/svg" width="33" height="32" fill="none"><path fill="#FC0" d="M16.44 32.01c8.84 0 16-7.16 16-16s-7.16-16-16-16-16 7.16-16 16 7.16 16 16 16"/><path fill="#039" d="M16.44 1.34C8.38 1.36 1.86 7.9 1.87 15.97c.02 8.06 6.56 14.58 14.63 14.57 8.06-.02 14.58-6.56 14.57-14.63 0-3.85-1.54-7.54-4.25-10.27a14.67 14.67 0 0 0-10.37-4.3zm0-1.33c8.84 0 16 7.16 16 16 0 4.24-1.69 8.31-4.69 11.31-6.25 6.25-16.38 6.25-22.63 0s-6.25-16.38 0-22.63c3-3 7.07-4.69 11.31-4.69z"/><path fill="#039" d="M29.78 16.01c0 5.39-3.25 10.25-8.23 12.32-6.8 2.82-14.6-.41-17.42-7.22-.33-.81-.59-1.64-.76-2.5C1.93 11.39 6.62 4.37 13.85 2.93c.86-.17 1.73-.26 2.6-.26 7.35 0 13.32 5.94 13.33 13.3z"/><path fill="#FC0" d="m16.44 5.56.32.96h.96l-.75.64.32.85-.85-.53-.85.53.32-.85-.75-.64h.96zm-4.69 1.28.32.96h.96l-.85.53.32.96-.75-.53-.85.53.32-.96-.85-.53h1.07l.32-.96zm-3.52 3.41.32.96h1.07l-.85.53.32.96-.85-.64-.75.64.32-.96-.85-.53h.96l.32-.96zm12.91-3.41.32.96h1.07l-.85.53.32.96-.85-.53-.75.53.32-.96-.85-.53h.96l.32-.96zm4.69 4.26-.85.53.32.96-.85-.53-.75.53.32-.96-.85-.53h.96l.32-.96.32.96h1.07zm1.28 4.7-.85.53.32.96-.75-.64-.85.64.32-.96-.85-.53h1.07l.32-.96.21.96h1.07zm-1.71 5.97-.85-.64-.85.64.32-.96-.75-.53h.96l.32-.96.32.96h1.07l-.85.53.32.96zm-9.7 4.69.32-.96-.85-.64h1.07l.32-.96.32.96h.96l-.75.64.21.96-.75-.64zM11 25.18l.32-.96-.85-.53h.96l.32-.96.32.96h1.07l-.85.53.32.96-.85-.53-.75.53zm10.88 0-.75-.64-.85.64.32-.96-.85-.53h1.07l.32-.96.32.96h.96l-.85.53.32.96zM5.78 15.8h1.07l.21-.96.32.96h1.07l-.85.53.32.96-.85-.53-.75.53.32-.96-.85-.53zm1.7 5.97.32-.96-.85-.53h1.07l.32-.96.32.96h.96l-.75.53.32.96-.85-.64-.85.64z"/></svg>