<svg xmlns="http://www.w3.org/2000/svg" width="32" height="32" fill="none" viewBox="0 0 32 32"><g clip-path="url(#a1dfq__clip0_297_24)"><path fill="url(#a1dfq__paint0_linear_297_24)" d="M16 32c8.836 0 16-7.164 16-16S24.836 0 16 0 0 7.164 0 16s7.164 16 16 16"/><path fill="#fff" d="m23.04 6.343-1.96-1.96-6.537 6.537 6.537 6.537 1.96-1.96-4.587-4.587 4.587-4.588zM17.457 21.08l-6.537-6.537-1.96 1.96 4.587 4.587-4.587 4.588 1.96 1.96 6.537-6.537zm-3.756-9.329 6.538 6.538-1.95 1.95L11.75 13.7z"/></g><defs><linearGradient id="a1dfq__paint0_linear_297_24" x1="0" x2="32" y1="16" y2="16" gradientUnits="userSpaceOnUse"><stop stop-color="#01AEC9"/><stop offset="1" stop-color="#1E8FCA"/></linearGradient><clipPath id="a1dfq__clip0_297_24"><path fill="#fff" d="M0 0h32v32H0z"/></clipPath></defs></svg>