<svg xmlns="http://www.w3.org/2000/svg" width="33" height="33" fill="none"><path fill="#705ED6" d="M31.73 21.03A15.96 15.96 0 0 1 19.22 32.3v-4.55a7.5 7.5 0 0 0 3.96-3.48c.57-1.08.87-2.29.86-3.52 0-4.02-2.91-5.63-5.63-6.83l-1.38-.61c-1.48-.66-2.6-1.25-2.6-2.26 0-1.39 1.22-2.14 2.36-2.14 1.22 0 1.91.45 2.64 1.72l.57.98 3.65-2.34-.48-.88a7.1 7.1 0 0 0-3.95-3.4V.83c.35.06.7.14 1.06.23.03 0 .07.02.11.02s.08.02.12.03h.03c.1.02.19.05.29.08 8.48 2.47 13.36 11.35 10.89 19.83z"/><path fill="#5BB2E4" d="M19.57 20.99c0 1.83-1.66 2.97-3.19 2.97-1.84 0-2.89-1.52-3.09-2.93l-.17-1.22-4.41 1.24.2.99c.63 3.11 2.75 5.34 5.64 6.02v4.41c-.78-.09-1.56-.24-2.32-.45-.11-.02-.21-.06-.32-.09A15.996 15.996 0 0 1 .38 16.57V1.19c0-.35.28-.63.63-.63h13.54v4.4a6.48 6.48 0 0 0-3.77 2.92 6.1 6.1 0 0 0-.81 3.1v.09c.04 3.59 2.68 5.09 5.17 6.22l1.25.54.1.05c1.98.9 3.09 1.5 3.09 3.1z"/><path fill="#fff" d="M24.05 20.77c0 1.23-.29 2.43-.86 3.52-.3.57-.68 1.09-1.12 1.57-.79.84-1.76 1.5-2.84 1.91v4.57l-1.28.11s-2.74.08-3.4 0v-4.39c-2.89-.67-5.01-2.91-5.65-6.02l-.2-.99 4.41-1.24.17 1.22c.2 1.41 1.26 2.93 3.09 2.93 1.53 0 3.19-1.13 3.19-2.97 0-1.61-1.12-2.2-3.09-3.1l-.1-.05-1.25-.54c-2.49-1.13-5.13-2.63-5.17-6.22v-.09c0-1.09.27-2.16.81-3.1a6.48 6.48 0 0 1 3.77-2.92V.56c2.88-.02 3.1 0 4.68.27v4.18c1.7.59 3.11 1.81 3.95 3.4l.48.88L20 11.63l-.57-.98c-.73-1.27-1.42-1.72-2.64-1.72-1.15 0-2.36.75-2.36 2.14 0 1.01 1.13 1.6 2.6 2.26l1.38.61c2.73 1.19 5.63 2.8 5.63 6.83z"/></svg>