<svg xmlns="http://www.w3.org/2000/svg" width="32" height="32" fill="none" viewBox="0 0 32 32"><g clip-path="url(#0s5u2__clip0_298_258)"><path fill="url(#0s5u2__paint0_linear_298_258)" d="M16 32c8.837 0 16-7.163 16-16S24.837 0 16 0 0 7.163 0 16s7.163 16 16 16"/><path stroke="url(#0s5u2__paint1_linear_298_258)" stroke-miterlimit="5.12" stroke-width=".75" d="M16 28.81c7.075 0 12.81-5.735 12.81-12.81S23.075 3.19 16 3.19 3.19 8.925 3.19 16 8.925 28.81 16 28.81Z"/><path fill="#fff" d="M24.61 17.54h-2.56v-2.29h2.56v-1.84h-2.56V9.68h-1.56l-1.77 3.73h-5.64l-1.76-3.73H9.74v3.73H7.18v1.84h2.56v2.29H7.18v1.84h2.56v3.12h1.74v-3.12H14l1.47 3.12h.86l1.46-3.12h2.51v3.12h1.74v-3.12h2.56v-1.84zm-6.76-2.29-1.09 2.29h-1.74l-1.08-2.29zm-6.37 2.29v-2.29h.58l1.08 2.29zm7.17 0 1.08-2.29h.57v2.29z"/></g><defs><linearGradient id="0s5u2__paint0_linear_298_258" x1="16.002" x2="16.002" y1=".004" y2="32.004" gradientUnits="userSpaceOnUse"><stop stop-color="#F1A9AB"/><stop offset=".21" stop-color="#EA8285"/><stop offset=".52" stop-color="#E65E5F"/><stop offset="1" stop-color="#EB676A"/></linearGradient><linearGradient id="0s5u2__paint1_linear_298_258" x1="16.002" x2="16.002" y1="2.756" y2="29.239" gradientUnits="userSpaceOnUse"><stop stop-color="#D03B38"/><stop offset="1" stop-color="#EE8E90"/></linearGradient><clipPath id="0s5u2__clip0_298_258"><path fill="#fff" d="M0 0h32v32H0z"/></clipPath></defs></svg>