<svg xmlns="http://www.w3.org/2000/svg" width="33" height="33" fill="none"><mask id="a" width="33" height="33" x="0" y="0" maskUnits="userSpaceOnUse" style="mask-type:luminance"><path fill="#fff" d="M32.02.45h-32v32h32z"/></mask><g mask="url(#a)"><path fill="url(#b)" d="M16.02 32.45c8.837 0 16-7.163 16-16s-7.164-16-16-16-16 7.163-16 16 7.163 16 16 16"/><path fill="url(#c)" fill-rule="evenodd" d="M11.34 10.85v11.99h9.99z" clip-rule="evenodd"/><path fill="#fff" fill-rule="evenodd" d="M1.35 22.83h9.99V10.84z" clip-rule="evenodd"/><path fill="#ED9D6F" fill-rule="evenodd" d="M3.21 26.03c.91 1.21 1.99 2.28 3.2 3.2h19.18c1.21-.91 2.28-1.99 3.2-3.2z" clip-rule="evenodd"/><path fill="#EA445A" fill-rule="evenodd" d="M6.41 29.23a15.99 15.99 0 0 0 19.18 0z" clip-rule="evenodd"/><path fill="url(#d)" fill-rule="evenodd" d="M21.46 17.24v8.79h7.33z" clip-rule="evenodd"/><path fill="#F4BE6C" fill-rule="evenodd" d="M21.46 22.83H1.35c.49 1.13 1.12 2.21 1.86 3.2h18.26v-3.2z" clip-rule="evenodd"/><path fill="#fff" fill-rule="evenodd" d="M14.14 26.03h7.32v-8.79z" clip-rule="evenodd"/><path fill="#F6CA6E" d="M21.46 14.85a4 4 0 1 0 0-8 4 4 0 0 0 0 8M11.34 8.45a2 2 0 1 0 0-4 2 2 0 0 0 0 4"/></g><defs><linearGradient id="b" x1="26.94" x2="3.9" y1="5.52" y2="28.56" gradientUnits="userSpaceOnUse"><stop stop-color="#EA445A"/><stop offset="1" stop-color="#F4BE6C"/></linearGradient><linearGradient id="c" x1="16.315" x2="16.315" y1="11.575" y2="23.085" gradientUnits="userSpaceOnUse"><stop stop-color="#9730AC"/><stop offset="1" stop-color="#EA445A"/></linearGradient><linearGradient id="d" x1="24.941" x2="24.941" y1="16.446" y2="25.59" gradientUnits="userSpaceOnUse"><stop stop-color="#9730AC"/><stop offset="1" stop-color="#EA445A"/></linearGradient></defs></svg>