<svg width="32" height="32" fill="none" viewBox="0 0 32 32" xmlns="http://www.w3.org/2000/svg"><path fill="#CB9999" d="M16 32c8.837 0 16-7.163 16-16S24.837 0 16 0 0 7.163 0 16s7.163 16 16 16"/><path fill="#EDBCBB" fill-rule="evenodd" d="M22.28 14.57a1.34 1.34 0 0 1 0-1.89 1.34 1.34 0 0 1 1.89 0c.52.52.52 1.37 0 1.89s-1.37.52-1.89 0m-4.48 4.49c-.39-.39-.39-1.02 0-1.42.39-.39 1.02-.39 1.42 0 .39.39.38 1.03-.01 1.42-.39.38-1.01.38-1.4 0zm7.08-2.36c-.39-.39-.4-1.02-.01-1.42s1.02-.4 1.42-.01l.01.01c.39.39.38 1.03-.01 1.42-.39.38-1.01.38-1.4 0zm-2.36 2.36c-.39-.39-.4-1.02-.01-1.42s1.02-.4 1.42-.01l.01.01c.39.39.38 1.03-.01 1.42-.39.38-1.01.38-1.4 0zm4.95-.24a.664.664 0 0 1 .03-.94c.26-.24.66-.24.92 0 .25.27.24.69-.03.94-.26.24-.66.24-.92 0m-2.36 2.36a.664.664 0 1 1 .938-.94.664.664 0 0 1-.938.94m-5.19-4.25a1.34 1.34 0 0 1 0-1.89 1.34 1.34 0 0 1 1.89 0c.52.52.52 1.37 0 1.89s-1.37.52-1.89 0m0-4.72a1.34 1.34 0 0 1-.03-1.89 1.34 1.34 0 0 1 1.92 0c.51.53.5 1.37-.03 1.89-.52.5-1.34.5-1.86 0m-2.36 2.36a1.34 1.34 0 0 1 0-1.89 1.34 1.34 0 0 1 1.89 0c.52.52.52 1.37 0 1.89s-1.37.52-1.89 0m-4.74 0a1.34 1.34 0 0 1 0-1.89 1.34 1.34 0 0 1 1.89 0c.52.52.52 1.37 0 1.89s-1.37.52-1.89 0m-4.48 4.49c-.39-.39-.4-1.02-.01-1.42a1.01 1.01 0 0 1 1.43 0c.39.39.38 1.03-.01 1.42-.39.38-1.01.38-1.4 0zm7.08-2.36c-.39-.39-.4-1.02-.01-1.42.39-.39 1.02-.4 1.42-.01l.01.01c.39.39.38 1.03-.01 1.42-.39.38-1.01.38-1.4 0zm-2.36 2.36c-.39-.39-.4-1.02-.01-1.42.39-.39 1.02-.4 1.42-.01l.01.01c.39.39.38 1.03-.01 1.42-.39.38-1.01.38-1.4 0zm-9.2-.24a.664.664 0 1 1 .938-.94.664.664 0 0 1-.938.94m2.36 2.36a.664.664 0 1 1 .938-.94.664.664 0 0 1-.938.94m9.44 0a.664.664 0 1 1 .938-.94.664.664 0 0 1-.938.94M5.98 16.7c-.39-.39-.4-1.02-.01-1.42a1 1 0 0 1 1.43 0c.39.39.38 1.03-.01 1.42-.39.38-1.01.38-1.4 0zm4.49.23a1.34 1.34 0 0 1 0-1.89 1.34 1.34 0 0 1 1.89 0c.52.52.52 1.37 0 1.89s-1.37.52-1.89 0m0-4.72a1.34 1.34 0 0 1-.03-1.89 1.34 1.34 0 0 1 1.92 0c.51.53.5 1.37-.03 1.89-.52.5-1.34.5-1.86 0m-2.36 2.36a1.34 1.34 0 0 1 0-1.89 1.34 1.34 0 0 1 1.89 0c.52.52.52 1.37 0 1.89s-1.37.52-1.89 0" clip-rule="evenodd"/></svg>