<svg xmlns="http://www.w3.org/2000/svg" width="33" height="33" fill="none"><path fill="url(#a)" d="M16.41 32.25c8.837 0 16-7.163 16-16s-7.163-16-16-16-16 7.163-16 16 7.163 16 16 16"/><path fill="#fff" d="m20.63 19.4 4.14-2.39c.22-.13.35-.36.35-.61v-4.78c0-.25-.14-.49-.35-.61l-4.14-2.39a.7.7 0 0 0-.71 0l-4.14 2.39c-.22.13-.35.36-.35.61v8.53l-2.9 1.67-2.9-1.67V16.8l2.9-1.67 1.91 1.1v-2.25l-1.56-.9a.7.7 0 0 0-.71 0l-4.14 2.39c-.22.13-.35.36-.35.61v4.77c0 .25.14.49.35.61l4.14 2.39c.22.13.49.13.71 0l4.14-2.39c.22-.13.35-.36.35-.61v-8.53l.05-.03 2.85-1.64 2.9 1.67v3.35l-2.9 1.67-1.91-1.1v2.25l1.56.9c.22.13.49.13.71 0z"/><defs><linearGradient id="a" x1=".51" x2="24.54" y1="6.52" y2="21.23" gradientUnits="userSpaceOnUse"><stop stop-color="#9433BD"/><stop offset="1" stop-color="#7342DB"/></linearGradient></defs></svg>