<svg width="32" height="32" fill="none" viewBox="0 0 32 32" xmlns="http://www.w3.org/2000/svg"><path fill="#000" d="M16 32c8.837 0 16-7.163 16-16S24.837 0 16 0 0 7.163 0 16s7.163 16 16 16"/><path fill="#fff" fill-rule="evenodd" d="M12.59 6.98H7.38c-.22 0-.4.18-.4.4v5.21c0 .22.18.4.4.4h5.21c.22 0 .4-.18.4-.4V7.38c0-.22-.18-.4-.4-.4m6.02 6.01H13.4c-.22 0-.4.18-.4.4v5.21c0 .22.18.4.4.4h5.21c.22 0 .4-.18.4-.4v-5.21c0-.22-.18-.4-.4-.4m.8-6.01h5.21c.22 0 .4.18.4.4v5.21c0 .22-.18.4-.4.4h-5.21c-.22 0-.4-.18-.4-.4V7.38c0-.22.18-.4.4-.4m-6.82 12.03H7.38c-.22 0-.4.18-.4.4v5.21c0 .22.18.4.4.4h5.21c.22 0 .4-.18.4-.4v-5.21c0-.22-.18-.4-.4-.4m6.82 0h5.21c.22 0 .4.18.4.4v5.21c0 .22-.18.4-.4.4h-5.21c-.22 0-.4-.18-.4-.4v-5.21c0-.22.18-.4.4-.4" clip-rule="evenodd"/></svg>