<svg xmlns="http://www.w3.org/2000/svg" width="32" height="32" fill="none" viewBox="0 0 32 32"><g clip-path="url(#kcbqe__clip0_298_376)"><path fill="#fff" d="M16 32c8.837 0 16-7.163 16-16S24.837 0 16 0 0 7.163 0 16s7.163 16 16 16"/><path fill="url(#kcbqe__paint0_linear_298_376)" d="M22.17 5.2c-2.55 0-4.63 2.09-4.7 4.64v5.18c-.47 0-.94.07-1.48.07s-1.01 0-1.48.07V9.85c0-2.56-2.15-4.64-4.76-4.57-2.48 0-4.49 2.09-4.56 4.57v12.38c.07 2.56 2.15 4.64 4.76 4.57 2.55-.07 4.56-2.09 4.56-4.57v-5.18c.47 0 .94-.07 1.48-.07s1.01 0 1.48-.07v5.25c.07 2.56 2.15 4.64 4.76 4.57 2.55-.07 4.56-2.09 4.56-4.57V9.85c0-2.56-2.08-4.64-4.63-4.64zM9.89 7.09c1.54 0 2.75 1.21 2.75 2.76v5.45c-1.34.2-2.68.61-3.96 1.14-.54.27-1.07.54-1.54.94V9.84c0-1.48 1.21-2.76 2.75-2.76zm2.75 15.13c0 1.55-1.21 2.76-2.75 2.76s-2.75-1.21-2.75-2.76v-1.21c0-1.08.87-2.15 2.35-2.76 1.01-.47 2.08-.74 3.22-.94zm9.53 2.76c-1.54 0-2.75-1.21-2.75-2.76v-5.45c1.34-.2 2.68-.61 3.96-1.14.54-.27 1.07-.54 1.54-.94v7.54c0 1.55-1.27 2.76-2.75 2.76zm.4-11.1c-1.01.47-2.08.74-3.22.94V9.84c0-1.55 1.21-2.76 2.75-2.76s2.75 1.21 2.75 2.76v1.21c.07 1.14-.8 2.15-2.28 2.83"/></g><defs><linearGradient id="kcbqe__paint0_linear_298_376" x1="21.4" x2="6.46" y1="10.62" y2="25.51" gradientUnits="userSpaceOnUse"><stop stop-color="#6AE4A6"/><stop offset="1" stop-color="#4DA9E2"/></linearGradient><clipPath id="kcbqe__clip0_298_376"><path fill="#fff" d="M0 0h32v32H0z"/></clipPath></defs></svg>