<svg width="32" height="32" fill="none" viewBox="0 0 32 32" xmlns="http://www.w3.org/2000/svg"><path fill="#fff" d="M16 32c8.837 0 16-7.163 16-16S24.837 0 16 0 0 7.163 0 16s7.163 16 16 16"/><path fill="url(#operawallet__paint0_linear_1204_2522)" d="M11.32 23.87c-1.58-1.86-2.59-4.6-2.65-7.68v-.67c.07-3.08 1.09-5.82 2.65-7.68 2.04-2.64 5.04-3.83 8.43-3.83 2.09 0 4.05.14 5.72 1.26-2.5-2.26-5.8-3.62-9.42-3.63h-.06c-7.85 0-14.22 6.37-14.22 14.22s6 13.85 13.54 14.21c.22.01.46.01.68.01 3.64 0 6.96-1.37 9.48-3.62-1.67 1.11-3.52 1.16-5.61 1.16-3.38.01-6.51-1.09-8.54-3.74z"/><path fill="url(#operawallet__paint1_linear_1204_2522)" d="M11.32 7.86c1.3-1.54 2.99-2.47 4.83-2.47 4.14 0 7.5 4.69 7.5 10.49s-3.35 10.49-7.5 10.49c-1.84 0-3.52-.93-4.83-2.47 2.04 2.64 5.08 4.33 8.45 4.33 2.08 0 4.03-.63 5.7-1.74 2.91-2.62 4.74-6.41 4.74-10.62s-1.83-8-4.74-10.6c-1.67-1.11-3.61-1.74-5.7-1.74-3.39 0-6.42 1.68-8.45 4.33"/><defs><linearGradient id="operawallet__paint0_linear_1204_2522" x1="15.619" x2="15.619" y1="-.338" y2="31.347" gradientUnits="userSpaceOnUse"><stop offset=".3" stop-color="#E93B3A"/><stop offset=".44" stop-color="#E53A38"/><stop offset=".59" stop-color="#D93534"/><stop offset=".76" stop-color="#C32D2C"/><stop offset=".93" stop-color="#A72323"/><stop offset="1" stop-color="#981E1E"/></linearGradient><linearGradient id="operawallet__paint1_linear_1204_2522" x1="21.598" x2="21.598" y1="2.79" y2="27.254" gradientUnits="userSpaceOnUse"><stop stop-color="#8E1B11"/><stop offset=".7" stop-color="#EB5A53"/></linearGradient></defs></svg>