<svg xmlns="http://www.w3.org/2000/svg" width="32" height="32" fill="none" viewBox="0 0 32 32"><g clip-path="url(#7657j__clip0_298_1033)"><path fill="#fff" d="M16 32c8.837 0 16-7.163 16-16S24.837 0 16 0 0 7.163 0 16s7.163 16 16 16"/><path fill="url(#7657j__paint0_linear_298_1033)" d="m16.21 18.09 10.87 5.32-10.87 5.55z"/><path fill="url(#7657j__paint1_linear_298_1033)" d="m22.6 14.9 4.49 8.52-10.87-5.32 6.39-3.19z"/><path fill="url(#7657j__paint2_linear_298_1033)" d="M16.21 18.09V2.66L9.82 14.9z"/><path fill="url(#7657j__paint3_linear_298_1033)" d="M16.21 18.09V2.66L22.6 14.9z"/><path fill="url(#7657j__paint4_linear_298_1033)" d="M16.21 28.97 5.34 23.42l10.87-5.32z"/><path fill="url(#7657j__paint5_linear_298_1033)" d="m9.83 14.9 6.39 3.19-10.87 5.32 4.49-8.52z"/></g><defs><linearGradient id="7657j__paint0_linear_298_1033" x1="20.75" x2="22.83" y1="24.15" y2="28.87" gradientUnits="userSpaceOnUse"><stop stop-color="#5C76E5"/><stop offset="1" stop-color="#8AA4F7"/></linearGradient><linearGradient id="7657j__paint1_linear_298_1033" x1="21.41" x2="29.9" y1="21.03" y2="11.67" gradientUnits="userSpaceOnUse"><stop stop-color="#5DB2F8"/><stop offset="1" stop-color="#6462F3"/></linearGradient><linearGradient id="7657j__paint2_linear_298_1033" x1="17.65" x2="12.05" y1="10.38" y2="10.38" gradientUnits="userSpaceOnUse"><stop stop-color="#675CF1"/><stop offset="1" stop-color="#5D97F5"/></linearGradient><linearGradient id="7657j__paint3_linear_298_1033" x1="18.07" x2="22.06" y1="12.11" y2="15.87" gradientUnits="userSpaceOnUse"><stop stop-color="#5C76E5"/><stop offset="1" stop-color="#8AA4F7"/></linearGradient><linearGradient id="7657j__paint4_linear_298_1033" x1="7.91" x2="19.02" y1="19.35" y2="24.95" gradientUnits="userSpaceOnUse"><stop stop-color="#6CC3F9"/><stop offset="1" stop-color="#13234D"/></linearGradient><linearGradient id="7657j__paint5_linear_298_1033" x1="10.96" x2="12.16" y1="20.2" y2="16.61" gradientUnits="userSpaceOnUse"><stop stop-color="#66ADE4"/><stop offset="1" stop-color="#707E98"/></linearGradient><clipPath id="7657j__clip0_298_1033"><path fill="#fff" d="M0 0h32v32H0z"/></clipPath></defs></svg>