<svg width="32" height="32" fill="none" viewBox="0 0 32 32" xmlns="http://www.w3.org/2000/svg"><g clip-path="url(#plasma__clip0_2792_2066)"><path fill="#000" d="M32 16.086c0 .163 0 .326-.009.485H24.21v-.353h-7.49v-.44h7.49v-.353h7.777q.013.33.013.661M16.588 14.49l7.329-.904.044.353 7.742-.952q-.114-.57-.262-1.124l-7.622.939.045.352-7.365.909c.031.145.062.286.089.432zm-.382-1.42 7.005-1.75.085.344L30.73 9.81c-.15-.358-.32-.715-.492-1.058l-7.218 1.803.084.343-7.063 1.768q.086.204.164.415zm-.62-1.326 6.547-2.473.125.33 6.93-2.618q-.34-.493-.71-.961l-6.624 2.5.124.33-6.628 2.504q.121.185.235.383zm-.861-1.23 5.785-3.015.164.317 6.397-3.337a16 16 0 0 0-.914-.82l-6.011 3.134.164.318-5.883 3.068c.102.11.204.22.302.34zm-1.393-1.327 5.239-3.328.19.3 5.781-3.677a16 16 0 0 0-1.118-.648L18.15 5.189l.19.3-5.386 3.425q.2.132.386.277zm-1.238-.772 4.387-3.597.227.274 4.942-4.056a16 16 0 0 0-1.287-.428L15.98 4.206l.226.273-4.547 3.73q.22.096.44.206zm-1.642-.639 3.465-3.451.248.25 4.41-4.377Q17.858.08 17.12.026l-3.758 3.739.249.251-3.66 3.641q.253.053.501.12M8.536 7.49 11.3 4.14l.275.224L15.173 0q-.82.04-1.62.159l-2.866 3.473.275.225-2.994 3.628q.126-.002.253-.004.16-.001.315.004zm-1.655.097 2.13-3.298.297.194L11.88.498q-.883.232-1.726.556l-1.81 2.808.297.194-2.36 3.654c.195-.048.395-.084.599-.119zm-1.841.511 1.53-2.87.31.168 2.028-3.8A16 16 0 0 0 7.032 2.67L5.865 4.854l.315.167-1.801 3.377c.213-.11.435-.207.656-.3zm-1.322.675L4.37 6.92l.333.12 1.264-3.594a16 16 0 0 0-1.801 1.667L3.62 6.66l.333.119L3.1 9.2q.3-.224.612-.423zM2.094 10.1l.288-1.345.346.075.582-2.707A16.3 16.3 0 0 0 1.7 8.61l.256.058-.527 2.226c.204-.278.43-.538.67-.79zM.901 11.669V9.888C.47 11.025.164 12.44 0 13.828a8.4 8.4 0 0 1 .9-2.164zM.013 18.21c.169 1.186.466 2.327.879 3.412v-1.314a8.4 8.4 0 0 1-.879-2.098m1.469 2.98.461 2.151-.257.057c.461.882 1.002 1.71 1.61 2.487l-.58-2.707-.347.075-.293-1.362a8 8 0 0 1-.599-.701zm1.606 1.596.856 2.433-.333.119.546 1.547q.84.9 1.801 1.667L4.694 24.96l-.333.119-.652-1.86a10 10 0 0 1-.617-.428zm1.277.806 1.806 3.39-.315.168 1.167 2.182q.898.597 1.876 1.076l-2.027-3.8-.315.167-1.535-2.878a11 11 0 0 1-.661-.3zm1.904.701 2.36 3.66-.297.193 1.81 2.808q.839.324 1.726.556l-2.574-3.985-.297.194-2.134-3.302a7 7 0 0 1-.599-.12zm1.686.22 2.994 3.629-.275.224 2.866 3.474q.796.12 1.62.159l-3.599-4.364-.275.225-2.764-3.35q-.147.005-.301.004-.134.001-.266-.005zm1.987-.171 3.66 3.641-.248.251 3.757 3.739a18 18 0 0 0 1.456-.172l-4.401-4.382-.249.251-3.465-3.447a9 9 0 0 1-.501.119zm1.704-.543 4.543 3.73-.227.273 4.384 3.598c.434-.124.865-.27 1.286-.428l-4.947-4.056-.226.273-4.383-3.597a5 5 0 0 1-.44.207zm1.29-.71 5.382 3.422-.19.3 5.274 3.354q.573-.305 1.118-.648l-5.78-3.676-.191.3-5.23-3.325c-.13.097-.254.19-.387.278zm1.482-1.26 5.874 3.06-.164.317 6.012 3.134q.472-.39.913-.82l-6.397-3.337-.164.317-5.776-3.01a7 7 0 0 1-.302.339zm.932-1.186 6.62 2.5-.125.33 6.624 2.5q.37-.464.71-.961l-6.93-2.619-.124.33-6.54-2.468c-.075.128-.15.256-.235.384zm.692-1.3 7.054 1.763-.084.344 7.218 1.803c.177-.344.341-.701.497-1.058L23.29 20.34l-.084.344-6.996-1.746a7 7 0 0 1-.164.415zm.457-1.398 7.351.904-.044.353 7.622.939q.147-.555.261-1.125l-7.741-.952-.044.353-7.32-.904q-.041.22-.09.432z"/></g><defs><clipPath id="plasma__clip0_2792_2066"><path fill="#fff" d="M0 0h32v32H0z"/></clipPath></defs></svg>