<svg width="32" height="32" fill="none" viewBox="0 0 32 32" xmlns="http://www.w3.org/2000/svg"><path fill="#fff" d="M16 32c8.837 0 16-7.163 16-16S24.837 0 16 0 0 7.163 0 16s7.163 16 16 16"/><path fill="url(#rabbywallet__paint0_linear_1307_1961)" d="M29.04 17.65c1.03-2.31-4.08-8.77-8.97-11.46-3.08-2.08-6.29-1.8-6.94-.88-1.43 2.01 4.73 3.71 8.84 5.7-.88.38-1.72 1.07-2.21 1.96-1.53-1.67-4.9-3.12-8.85-1.96-2.66.78-4.87 2.63-5.73 5.42-.21-.1-.45-.14-.68-.14-.93 0-1.68.75-1.68 1.68s.75 1.68 1.68 1.68c.17 0 .71-.12.71-.12l8.57.06c-3.43 5.44-6.14 6.23-6.14 7.17s2.59.69 3.57.34c4.66-1.68 9.66-6.92 10.52-8.43 3.61.45 6.64.5 7.31-1z"/><path fill="url(#rabbywallet__paint1_linear_1307_1961)" fill-rule="evenodd" d="M21.97 11c.19-.08.16-.36.11-.58-.12-.51-2.2-2.56-4.15-3.48-2.66-1.25-4.61-1.19-4.9-.61.54 1.11 3.05 2.15 5.67 3.24 1.12.46 2.26.94 3.27 1.43" clip-rule="evenodd"/><path fill="url(#rabbywallet__paint2_linear_1307_1961)" fill-rule="evenodd" d="M18.6 22.17c-.54-.21-1.14-.39-1.83-.56.74-1.32.89-3.27.2-4.5-.98-1.73-2.2-2.65-5.04-2.65-1.56 0-5.78.53-5.85 4.04 0 .37 0 .71.03 1.02l7.69.06c-1.04 1.65-2.01 2.87-2.86 3.79 1.02.26 1.86.48 2.64.68.7.18 1.41.37 2.11.55a32 32 0 0 0 2.93-2.43z" clip-rule="evenodd"/><path fill="url(#rabbywallet__paint3_linear_1307_1961)" d="M5.08 19.15c.31 2.67 1.83 3.72 4.94 4.03 3.1.31 4.88.1 7.25.32 1.98.18 3.75 1.19 4.4.84.59-.31.26-1.45-.53-2.17-1.02-.94-2.44-1.6-4.93-1.83.5-1.36.36-3.27-.41-4.3-1.12-1.5-3.17-2.18-5.78-1.88-2.72.31-5.33 1.65-4.94 5z"/><defs><linearGradient id="rabbywallet__paint0_linear_1307_1961" x1="9.483" x2="32.029" y1="15.265" y2="20.8" gradientUnits="userSpaceOnUse"><stop stop-color="#8996F7"/><stop offset="1" stop-color="#A9A7F8"/></linearGradient><linearGradient id="rabbywallet__paint1_linear_1307_1961" x1="25.1" x2="11.96" y1="15.9" y2="2.72" gradientUnits="userSpaceOnUse"><stop stop-color="#372399"/><stop offset="1" stop-color="#5256CF" stop-opacity="0"/></linearGradient><linearGradient id="rabbywallet__paint2_linear_1307_1961" x1="18.95" x2="6.32" y1="22.65" y2="15.39" gradientUnits="userSpaceOnUse"><stop stop-color="#371F88"/><stop offset="1" stop-color="#6B6FF2" stop-opacity="0"/></linearGradient><linearGradient id="rabbywallet__paint3_linear_1307_1961" x1="9.75" x2="18.28" y1="16.99" y2="27.83" gradientUnits="userSpaceOnUse"><stop stop-color="#8A96F7"/><stop offset=".98" stop-color="#5B48E7"/></linearGradient></defs></svg>