<svg xmlns="http://www.w3.org/2000/svg" width="32" height="32" fill="none" viewBox="0 0 32 32"><g clip-path="url(#k9qpu__clip0_298_431)"><path fill="url(#k9qpu__paint0_linear_298_431)" d="M16 32c8.837 0 16-7.163 16-16S24.837 0 16 0 0 7.163 0 16s7.163 16 16 16"/><path fill="#1B2123" d="M15.97 30.81c8.174 0 14.8-6.626 14.8-14.8s-6.626-14.8-14.8-14.8-14.8 6.626-14.8 14.8 6.626 14.8 14.8 14.8"/><path fill="#91F9E1" d="m8.62 15.01 2.25 4.57c.31.63 1.19.69 1.58.1L18.84 10c.05-.08.09-.17.12-.26l.51-1.87c.22-.8-.66-1.45-1.36-1.02l-8.76 5.42c-.12.06-.15.16-.22.37l-.56 1.7c-.07.23-.06.47.05.69z"/><path fill="#5FC4A7" d="M9.35 12.26q-.09.045-.12.12l2.08 7.63c.28.13.6.11.87-.05l5.19-9.57-8.01 1.88"/><path fill="#B2E5DA" d="m12.35 11.55 1.34 5.59 1.03-1.88-.96-4.05zM14.8 10.98l.69 2.86.51-.96-.5-2.07z"/><path fill="#408587" d="m17.38 10.36 1.84-3.39a.9.9 0 0 0-1.11-.13l-8.76 5.42 8.02-1.89z"/><path fill="#91F9E1" d="m23.23 17.07-2.25-4.57a.913.913 0 0 0-1.58-.1l-6.39 9.68c-.05.08-.09.17-.12.26l-.51 1.87c-.22.8.66 1.45 1.36 1.02l8.76-5.42c.12-.06.15-.16.22-.37l.56-1.7c.07-.23.06-.47-.05-.69z"/><path fill="#5FC4A7" d="M22.5 19.82q.09-.045.12-.12l-2.08-7.63a.93.93 0 0 0-.87.05l-5.19 9.57 8.01-1.88"/><path fill="#408587" d="m14.47 21.72-1.84 3.39c.28.27.72.37 1.11.13l8.76-5.42-8.02 1.89z"/><path fill="#B2E5DA" d="m17.25 16.61 5.34 2.96-.46-1.68-4.29-2.37zM18.36 14.55l.39-.71 2.68 1.49.28 1.01z"/><path fill="#fff" d="m11.42 10.4.1.26c.12.33.39.6.72.72l.26.1-.26.1c-.33.12-.6.39-.72.72l-.1.26-.1-.26c-.12-.33-.39-.6-.72-.72l-.26-.1.26-.1c.33-.12.6-.39.72-.72zM14.64 11.87l.04.12c.05.14.16.25.3.3l.12.04-.12.04c-.14.05-.25.16-.3.3l-.04.12-.04-.12a.5.5 0 0 0-.3-.3l-.12-.04.12-.04c.14-.05.25-.16.3-.3zM17.22 21.34l.04.11c.05.13.15.23.28.28l.11.04-.11.04c-.13.05-.23.15-.28.28l-.04.11-.04-.11a.48.48 0 0 0-.28-.28l-.11-.04.11-.04c.13-.05.23-.15.28-.28z"/></g><defs><linearGradient id="k9qpu__paint0_linear_298_431" x1="4.69" x2="27.32" y1="4.69" y2="27.31" gradientUnits="userSpaceOnUse"><stop stop-color="#2A3035"/><stop offset="1" stop-color="#539283"/></linearGradient><clipPath id="k9qpu__clip0_298_431"><path fill="#fff" d="M0 0h32v32H0z"/></clipPath></defs></svg>