<svg xmlns="http://www.w3.org/2000/svg" width="32" height="32" fill="none" viewBox="0 0 32 32"><g clip-path="url(#republictoken__clip0_298_750)"><path fill="#183055" d="M16 32c8.837 0 16-7.163 16-16S24.837 0 16 0 0 7.163 0 16s7.163 16 16 16"/><path fill="#fff" d="m9.53 9.84 1.56-.9.21.36 5.76-3.32-.42-.24-.42-.25-.21-.12-9.38 5.42v.24l2.69-1.56.21.36zM9.53 13.25l4.51-2.61.21.37 5.76-3.32-.42-.25-.63-.36L6.64 14.2v.24l2.69-1.56.21.37zM9.53 14.95l5.99-3.46.21.36 5.76-3.33-.42-.24-.42-.25-.21-.12-13.8 7.97v.25l2.69-1.56.21.37zM9.53 16.65l7.5-4.33.21.36 5.71-3.3-.42-.25-.63-.36-15.27 8.82v.24l2.69-1.56.21.37zM9.53 18.35l8.98-5.18.21.37 5.71-3.3-.42-.24-.42-.25-.21-.12L6.63 19.3v.24l2.69-1.55zM25.06 10.61l-.21-.12L6.63 21.02v.24l2.69-1.55.21.36 8.98-5.18.21.36 6.66-3.84v-.61l-.32-.18zM7.78 22.28l1.51-.87.21.36 8.96-5.17.21.37 6.7-3.87v-1.22L7.57 22.16zM18.46 18.31l.21.37 6.7-3.87v-1.22L9.04 23.02l.21.12 1.53-.89.21.37M10.73 23.99l1.53-.89.21.37 5.98-3.46.21.37 6.7-3.87v-1.22L10.5 23.87l.21.12zM12.21 24.84l1.53-.89.21.36 4.51-2.6.21.36 6.7-3.87v-1.21l-13.38 7.73.21.12zM13.47 25.57l.21.12 1.54-.89.21.37 3.03-1.76.21.37 6.7-3.87v-1.22l-11.9 6.87zM15.16 26.54l1.53-.89.21.37 1.56-.91.21.37 6.7-3.87v-1.22l-10.43 6.02.21.12zM18.53 6.83l-.84-.48-.21-.13-10.85 6.27v.24l2.69-1.55.21.36 3.04-1.75.21.37 5.75-3.32z"/></g><defs><clipPath id="republictoken__clip0_298_750"><path fill="#fff" d="M0 0h32v32H0z"/></clipPath></defs></svg>