<svg width="32" height="32" fill="none" viewBox="0 0 32 32" xmlns="http://www.w3.org/2000/svg"><g clip-path="url(#rusd__clip0_3133_10)"><path fill="#728FE2" d="M16.06.42c8.64 0 15.64 7 15.64 15.64s-7 15.64-15.64 15.64S.42 24.7.42 16.06 7.42.42 16.06.42"/><path fill="#fff" d="M16.06 32.12C7.21 32.12 0 24.92 0 16.06S7.2 0 16.06 0s16.06 7.2 16.06 16.06-7.2 16.06-16.06 16.06m0-31.28C7.67.84.84 7.67.84 16.06s6.83 15.22 15.22 15.22 15.22-6.83 15.22-15.22S24.45.84 16.06.84"/><path fill="#fff" d="M21.18 16.89v4.22l-2.05 2.05h-2.21v2.28h-1.76v-2.28h-2.44l-2.01-2.01v-1.57h1.97v.93l.89.91h1.59v-4.8h-2.4l-2.01-2.03v-3.91l2.01-2.01h2.4V6.39h1.76v2.28h2.09l2.01 2.01v1.59h-1.94v-.95l-.91-.91h-1.24v4.47h2.26l2.01 2.01zm-6.02-2.01v-4.47h-1.53l-.91.91v2.65l.91.91zm4.06 2.63-.91-.89h-1.39v4.8h1.39l.91-.93z"/><path fill="#fff" d="M13.49 3.96c-5.6 1.17-9.8 6.14-9.8 12.08s4.2 10.91 9.8 12.08V29C7.42 27.81 2.83 22.46 2.83 16.04S7.41 4.27 13.49 3.08zm5.12-.87c6.06 1.2 10.63 6.54 10.63 12.95S24.67 27.8 18.61 28.99v-.88c5.58-1.18 9.77-6.14 9.77-12.08S24.19 5.14 18.61 3.95v-.87z"/></g><defs><clipPath id="rusd__clip0_3133_10"><path fill="#fff" d="M0 0h32v32H0z"/></clipPath></defs></svg>