<svg xmlns="http://www.w3.org/2000/svg" fill="none" viewBox="0 0 32 32"><path fill="#FFEEDA" d="M28.72 20.458V3.24a2.643 2.643 0 0 0-2.66-2.6H7.763C3.812.699.64 3.873.64 7.761c0 1.312.358 2.437.907 3.42.465.82 1.192 1.593 1.908 2.168.203.163.108.093.728.468a8 8 0 0 0 1.837.773l-.012 10.295c.024.492.071.96.203 1.394a4.61 4.61 0 0 0 2.827 3.104c.621.24 1.279.371 1.944.387l14.614.046c2.91 0 5.272-2.319 5.272-5.188.012-1.699-.847-3.221-2.147-4.17"/><path fill="#EBC28E" d="M29.078 24.757c-.06 1.838-1.598 3.314-3.483 3.314l-10.056-.035a5.13 5.13 0 0 0 1.289-3.385c0-2.026-1.23-3.42-1.23-3.42h10.009c1.92 0 3.484 1.534 3.484 3.42z"/><path fill="#101010" d="M4.41 11.896C3.252 10.82 2.44 9.425 2.44 7.773v-.176c.096-2.822 2.458-5.094 5.332-5.177h18.3c.477.024.86.352.86.832v15.203c.417.07.62.13 1.025.27.322.117.763.363.763.363V3.252a2.643 2.643 0 0 0-2.66-2.6h-18.3C3.813.71.64 3.884.64 7.773c0 2.26 1.05 4.193 2.767 5.552.12.094.227.211.537.211.537 0 .919-.422.895-.879-.012-.386-.18-.526-.43-.76"/><path fill="#101010" d="M25.597 19.45h-14.35c-.967.012-1.742.773-1.742 1.722v2.027c.024.937.835 1.733 1.801 1.733h1.063v-1.733h-1.063v-1.98h.585c1.813 0 3.149 1.651 3.149 3.42 0 1.57-1.455 3.573-3.889 3.408-2.158-.14-3.328-2.026-3.328-3.408V7.47c0-.773-.644-1.406-1.431-1.406H4.96V7.82h1.062v16.83c-.06 3.421 2.481 5.143 5.13 5.143l14.457.046c2.911 0 5.274-2.318 5.274-5.188s-2.375-5.2-5.286-5.2m3.484 5.306c-.06 1.84-1.599 3.315-3.484 3.315l-10.056-.035a5.13 5.13 0 0 0 1.288-3.385c0-2.026-1.228-3.42-1.228-3.42H25.61c1.92 0 3.483 1.534 3.483 3.42zM21.73 8.136H10.91V6.38h10.82c.489 0 .895.386.895.878 0 .48-.394.878-.895.878"/><path fill="#101010" d="M21.73 16.405H10.91v-1.757h10.82c.489 0 .895.387.895.878 0 .48-.394.88-.895.88m1.908-4.134H10.91v-1.757h12.717c.489 0 .895.386.895.878.011.48-.395.879-.884.879"/></svg>