<svg xmlns="http://www.w3.org/2000/svg" width="32" height="32" fill="none" viewBox="0 0 32 32"><g clip-path="url(#stader__clip0_298_275)"><path fill="#fff" d="M32 16c0-8.84-7.16-16-16-16S0 7.16 0 16s7.16 16 16 16 16-7.16 16-16"/><path fill="#2C2C2E" d="M16.48 26.28v-1.75l4.33-2.55v-5.21l1.57-.82.05 6.93z"/><path fill="#2C2C2E" d="m17.73 13.48 1.78-1.01 4.38 2.76.03 8.34-1.49-.69-.05-6.93zM16.4 3.92l7.46 4.28v1.78l-7.46-4.2zM8.99 16.99l-.03-8.71L16.4 3.9v1.86l-6.05 3.45v6.8L9 16.99z"/><path fill="#2C2C2E" d="M13.38 19.43 9 16.99l1.35-1.01 7.52 4.33-4.49 2.55-1.49.85 4.59 2.6 5.95-3.43 1.49.69-7.49 4.46-7.44-4.25 5.92-3.51-1.54-.85zM10.35 9.21l6.05-3.43 7.46 4.2-4.36 2.5-1.78 1.01 4.62 2.47-1.54.82-5.95-3.37 5.92-3.51-1.41-.82-2.95-1.7L12 9.93l-1.67-.72z"/><path fill="#2C2C2E" d="m11.89 23.71 1.49-.85 3.08 1.7v1.75zm-2.87.08v-1.86l4.36-2.5 1.57.85-5.92 3.51zm5.84-10.39.03-1.78 4.49-2.52 1.41.82-5.92 3.48zM10.35 16l.03-6.8 1.65.74.03 5.34 5.82 3.24v1.83l-7.52-4.36z"/><path fill="#fff" fill-rule="evenodd" d="M22.42 15.88s.04.04.04.07l.05 6.93s-.02.06-.04.07l-5.95 3.4s-.09 0-.11-.03c0-.01-.01-.03-.01-.04v-1.75s.01-.05.04-.07l4.29-2.53v-5.16s.02-.06.04-.07l1.57-.82s.05-.01.08 0m-1.53.94v5.16s-.01.05-.04.07l-4.29 2.53v1.57l5.79-3.31-.05-6.75-1.41.74z" clip-rule="evenodd"/><path fill="#fff" fill-rule="evenodd" d="M19.47 12.4s.06-.01.08 0l4.38 2.76s.04.04.04.07l.03 8.34s-.04.08-.08.08h-.03l-1.49-.69s-.05-.04-.05-.07l-.05-6.88-4.61-2.45s-.05-.07-.03-.11c0-.01.02-.02.03-.03l1.78-1.01zm-1.57 1.08 4.52 2.4s.04.04.04.07l.05 6.88 1.33.62-.03-8.17-4.3-2.71zm-1.54-9.63s.05-.01.08 0l7.46 4.28s.04.04.04.07v1.78s-.04.08-.08.08c-.01 0-.03 0-.04-.01l-7.46-4.2s-.04-.04-.04-.07V3.92s.02-.05.04-.07m.12.21v1.67l7.3 4.11v-1.6z" clip-rule="evenodd"/><path fill="#fff" fill-rule="evenodd" d="M16.44 3.83s.04.04.04.07v1.86s-.02.06-.04.07l-6.01 3.43v6.75s-.01.05-.03.06l-1.35.98s-.09.02-.11-.02c0-.01-.02-.03-.02-.05l-.03-8.71s.01-.05.04-.07l7.44-4.38s.06-.01.08 0zM9.05 8.32l.03 8.51 1.2-.87V9.2s.02-.06.04-.07l6.01-3.43V4.03z" clip-rule="evenodd"/><path fill="#fff" fill-rule="evenodd" d="M10.3 15.91s.06-.02.09 0l7.52 4.33s.05.07.03.11c0 .01-.02.02-.03.03l-4.49 2.55-1.37.78 4.43 2.51 5.91-3.4s.05-.01.07 0l1.49.69s.06.07.04.11c0 .01-.02.03-.03.03l-7.49 4.46s-.06.02-.08 0l-7.44-4.25s-.05-.07-.03-.11c0-.01.02-.02.03-.03l5.8-3.43-1.42-.78-4.38-2.44c-.04-.02-.05-.07-.03-.11 0-.01.01-.02.02-.03l1.35-1.01zm.05.16-1.21.9 4.27 2.38 1.54.85c.04.02.05.07.03.11 0 .01-.02.02-.03.03l-5.8 3.44 7.28 4.16 7.32-4.36-1.31-.61-5.91 3.41s-.05.01-.08 0l-4.59-2.6s-.05-.07-.03-.11c0-.01.02-.02.03-.03l1.49-.85 4.37-2.48-7.35-4.23zm6.01-10.36s.05-.01.08 0l7.46 4.2s.05.07.03.11c0 .01-.02.02-.03.03l-4.36 2.5-1.65.94 4.49 2.4s.05.07.03.11c0 .01-.02.03-.03.03l-1.54.82s-.05.01-.08 0l-5.95-3.37s-.05-.07-.03-.11c0-.01.02-.02.03-.03l5.81-3.44-1.29-.75-2.91-1.68L12.05 10s-.05.01-.07 0l-1.67-.72s-.06-.06-.04-.1c0-.02.02-.03.03-.04l6.05-3.43zm.04.16-5.88 3.32 1.49.64 4.37-2.53s.06-.01.08 0L19.41 9l1.41.82s.05.07.03.11c0 .01-.02.02-.03.03l-5.8 3.44 5.79 3.28 1.37-.73-4.49-2.4s-.05-.07-.03-.11c0-.01.02-.02.03-.03l1.78-1.01 4.23-2.43z" clip-rule="evenodd"/><path fill="#fff" fill-rule="evenodd" d="M13.34 22.79s.05-.01.08 0l3.08 1.7s.04.04.04.07v1.75s-.04.08-.08.08c-.01 0-.03 0-.04-.01l-4.57-2.6s-.05-.07-.03-.11c0-.01.02-.02.03-.03zm.04.16-1.33.76 4.33 2.47v-1.57zm-.04-3.59s.05-.01.08 0l1.57.85s.05.07.03.11c0 .01-.02.02-.03.03l-5.92 3.51s-.09 0-.11-.03c0-.01-.01-.03-.01-.04v-1.86s.02-.06.04-.07l4.36-2.5zm.04.16L9.1 21.97v1.67l5.68-3.36zm5.96-10.49s.06-.01.08 0l1.41.82s.05.07.03.11c0 .01-.02.02-.03.03l-5.92 3.48s-.09.01-.11-.03c0-.01-.01-.03-.01-.04l.03-1.78s.02-.05.04-.07l4.49-2.52zm-4.37 2.64-.02 1.59 5.68-3.34-1.25-.73zm-4.64-2.53s.05-.02.08 0l1.65.74s.05.04.05.07l.03 5.29 5.78 3.22s.04.04.04.07v1.83s-.04.08-.08.08c-.01 0-.03 0-.04-.01l-7.52-4.36s-.04-.04-.04-.07l.03-6.8s.01-.05.04-.07zm.12.19-.03 6.63 7.36 4.26v-1.65l-5.77-3.22s-.04-.04-.04-.07l-.03-5.29-1.49-.67z" clip-rule="evenodd"/></g><defs><clipPath id="stader__clip0_298_275"><path fill="#fff" d="M0 0h32v32H0z"/></clipPath></defs></svg>