<svg xmlns="http://www.w3.org/2000/svg" fill="none" viewBox="0 0 31 25"><g clip-path="url(#y3edt__a)"><path fill="#111" d="M0 5.208V19.3c0 2.876 2.325 5.208 5.194 5.208h20.163c2.868 0 5.194-2.332 5.194-5.208V5.208C30.55 2.332 28.224 0 25.357 0H5.194C2.325 0 0 2.332 0 5.208"/><path fill="url(#y3edt__b)" d="M0 5.208V19.3c0 2.876 2.325 5.208 5.194 5.208h20.163c2.868 0 5.194-2.332 5.194-5.208V5.208C30.55 2.332 28.224 0 25.357 0H5.194C2.325 0 0 2.332 0 5.208"/><path fill="url(#y3edt__c)" d="M7.638 6.127A1.53 1.53 0 0 0 6.11 4.595a1.53 1.53 0 0 0-1.527 1.532A1.53 1.53 0 0 0 6.11 7.659a1.53 1.53 0 0 0 1.528-1.532"/><path fill="url(#y3edt__d)" d="M7.638 6.127A1.53 1.53 0 0 0 6.11 4.595a1.53 1.53 0 0 0-1.527 1.532A1.53 1.53 0 0 0 6.11 7.659a1.53 1.53 0 0 0 1.528-1.532"/><path fill="url(#y3edt__e)" d="M7.638 6.127A1.53 1.53 0 0 0 6.11 4.595a1.53 1.53 0 0 0-1.527 1.532A1.53 1.53 0 0 0 6.11 7.659a1.53 1.53 0 0 0 1.528-1.532"/><path fill="url(#y3edt__f)" d="M7.638 18.371a1.53 1.53 0 0 0-1.528-1.532 1.53 1.53 0 0 0-1.527 1.532 1.53 1.53 0 0 0 1.527 1.532 1.53 1.53 0 0 0 1.528-1.532"/><path fill="url(#y3edt__g)" d="M25.968 12.254a1.53 1.53 0 0 0-1.528-1.532 1.53 1.53 0 0 0-1.527 1.532 1.53 1.53 0 0 0 1.527 1.532 1.53 1.53 0 0 0 1.528-1.532"/><path fill="url(#y3edt__h)" d="M25.968 12.254a1.53 1.53 0 0 0-1.528-1.532 1.53 1.53 0 0 0-1.527 1.532 1.53 1.53 0 0 0 1.527 1.532 1.53 1.53 0 0 0 1.528-1.532"/><path fill="url(#y3edt__i)" d="M24.44 4.595H12.22a1.53 1.53 0 0 0-1.527 1.532 1.53 1.53 0 0 0 1.527 1.532h12.22a1.53 1.53 0 0 0 1.528-1.532 1.53 1.53 0 0 0-1.528-1.532"/><path fill="url(#y3edt__j)" d="M24.44 16.84H12.22a1.53 1.53 0 0 0-1.527 1.531 1.53 1.53 0 0 0 1.527 1.532h12.22a1.53 1.53 0 0 0 1.528-1.532 1.53 1.53 0 0 0-1.528-1.532Z"/><path fill="url(#y3edt__k)" d="M18.33 10.722H6.11a1.53 1.53 0 0 0-1.527 1.532 1.53 1.53 0 0 0 1.527 1.532h12.22a1.53 1.53 0 0 0 1.528-1.532 1.53 1.53 0 0 0-1.528-1.532"/></g><defs><linearGradient id="y3edt__b" x1="15.275" x2="15.275" y1="0" y2="24.533" gradientUnits="userSpaceOnUse"><stop stop-color="#1D273D"/><stop offset="1" stop-color="#0D0F13"/></linearGradient><linearGradient id="y3edt__c" x1="5.053" x2="7.136" y1="7.638" y2="4.86" gradientUnits="userSpaceOnUse"><stop stop-color="#4462FE"/><stop offset="1" stop-color="#7D69FA"/></linearGradient><linearGradient id="y3edt__d" x1="4.851" x2="7.417" y1="7.66" y2="7.529" gradientUnits="userSpaceOnUse"><stop stop-color="#3757FD"/><stop offset="1" stop-color="#6980FA"/></linearGradient><linearGradient id="y3edt__e" x1="4.851" x2="7.417" y1="7.66" y2="7.529" gradientUnits="userSpaceOnUse"><stop stop-color="#2447FF"/><stop offset="1" stop-color="#6980FA"/></linearGradient><linearGradient id="y3edt__f" x1="5.015" x2="7.059" y1="19.403" y2="17.243" gradientUnits="userSpaceOnUse"><stop stop-color="#BC3EE6"/><stop offset="1" stop-color="#D972F1"/></linearGradient><linearGradient id="y3edt__g" x1="23.53" x2="25.42" y1="13.269" y2="11.264" gradientUnits="userSpaceOnUse"><stop stop-color="#29BDFF"/><stop offset="1" stop-color="#96E7FB"/></linearGradient><linearGradient id="y3edt__h" x1="23.158" x2="25.811" y1="13.764" y2="13.638" gradientUnits="userSpaceOnUse"><stop stop-color="#23BBFF"/><stop offset="1" stop-color="#85E7FF"/></linearGradient><linearGradient id="y3edt__i" x1="11.919" x2="24.494" y1="7.638" y2="4.629" gradientUnits="userSpaceOnUse"><stop stop-color="#23BBFF"/><stop offset="1" stop-color="#85E7FF"/></linearGradient><linearGradient id="y3edt__j" x1="12.035" x2="24.109" y1="19.904" y2="16.818" gradientUnits="userSpaceOnUse"><stop stop-color="#2447FF"/><stop offset="1" stop-color="#6980FA"/></linearGradient><linearGradient id="y3edt__k" x1="6.635" x2="18.168" y1="13.809" y2="10.723" gradientUnits="userSpaceOnUse"><stop stop-color="#6634FF"/><stop offset="1" stop-color="#9C6DFF"/></linearGradient><clipPath id="y3edt__a"><path fill="#fff" d="M0 0h30.55v24.508H0z"/></clipPath></defs></svg>