<svg width="32" height="32" fill="none" viewBox="0 0 32 32" xmlns="http://www.w3.org/2000/svg"><path fill="#fff" d="M16 32c8.837 0 16-7.163 16-16S24.837 0 16 0 0 7.163 0 16s7.163 16 16 16"/><path fill="url(#sequencewallet__paint0_linear_1204_2497)" d="M3.49 10.29v11.55c0 2.36 1.9 4.27 4.26 4.27h16.52c2.35 0 4.26-1.91 4.26-4.27V10.29c0-2.36-1.91-4.27-4.26-4.27H7.74c-2.35 0-4.26 1.91-4.26 4.27z"/><path fill="url(#sequencewallet__paint1_linear_1204_2497)" d="M9.74 11.04c0-.69-.56-1.25-1.25-1.26-.69 0-1.25.56-1.25 1.26 0 .69.56 1.25 1.25 1.26.69 0 1.25-.56 1.25-1.26"/><path fill="url(#sequencewallet__paint2_linear_1204_2497)" d="M9.74 11.04c0-.69-.56-1.25-1.25-1.26-.69 0-1.25.56-1.25 1.26 0 .69.56 1.25 1.25 1.26.69 0 1.25-.56 1.25-1.26"/><path fill="url(#sequencewallet__paint3_linear_1204_2497)" d="M9.74 11.04c0-.69-.56-1.25-1.25-1.26-.69 0-1.25.56-1.25 1.26 0 .69.56 1.25 1.25 1.26.69 0 1.25-.56 1.25-1.26"/><path fill="url(#sequencewallet__paint4_linear_1204_2497)" d="M9.74 21.07c0-.69-.56-1.25-1.25-1.26-.69 0-1.25.56-1.25 1.26 0 .69.56 1.25 1.25 1.26.69 0 1.25-.56 1.25-1.26"/><path fill="url(#sequencewallet__paint5_linear_1204_2497)" d="M24.76 16.06c0-.69-.56-1.25-1.25-1.26-.69 0-1.25.56-1.25 1.26 0 .69.56 1.25 1.25 1.26.69 0 1.25-.56 1.25-1.26"/><path fill="url(#sequencewallet__paint6_linear_1204_2497)" d="M24.76 16.06c0-.69-.56-1.25-1.25-1.26-.69 0-1.25.56-1.25 1.26 0 .69.56 1.25 1.25 1.26.69 0 1.25-.56 1.25-1.26"/><path fill="url(#sequencewallet__paint7_linear_1204_2497)" d="M23.51 9.78H13.5c-.69 0-1.25.56-1.25 1.26 0 .69.56 1.25 1.25 1.26h10.01c.69 0 1.25-.56 1.25-1.26 0-.69-.56-1.25-1.25-1.26"/><path fill="url(#sequencewallet__paint8_linear_1204_2497)" d="M23.51 19.82H13.5c-.69 0-1.25.56-1.25 1.25s.56 1.25 1.25 1.26h10.01c.69 0 1.25-.56 1.25-1.26 0-.69-.56-1.25-1.25-1.26z"/><path fill="url(#sequencewallet__paint9_linear_1204_2497)" d="M18.5 14.8H8.49c-.69 0-1.25.56-1.25 1.26 0 .69.56 1.25 1.25 1.26H18.5c.69 0 1.25-.56 1.25-1.26 0-.69-.56-1.25-1.25-1.26"/><defs><linearGradient id="sequencewallet__paint0_linear_1204_2497" x1="15.994" x2="15.994" y1="0" y2="32.016" gradientUnits="userSpaceOnUse"><stop stop-color="#1F273B"/><stop offset="1" stop-color="#0D0F13"/></linearGradient><linearGradient id="sequencewallet__paint1_linear_1204_2497" x1="4.48" x2="26.018" y1="31.365" y2="2.248" gradientUnits="userSpaceOnUse"><stop stop-color="#4A61F4"/><stop offset="1" stop-color="#7A6AF1"/></linearGradient><linearGradient id="sequencewallet__paint2_linear_1204_2497" x1="2.048" x2="28.927" y1="16.635" y2="15.345" gradientUnits="userSpaceOnUse"><stop stop-color="#3E56F3"/><stop offset="1" stop-color="#6E7FF1"/></linearGradient><linearGradient id="sequencewallet__paint3_linear_1204_2497" x1="2.048" x2="28.927" y1="16.635" y2="15.345" gradientUnits="userSpaceOnUse"><stop stop-color="#2C46F4"/><stop offset="1" stop-color="#6E7FF1"/></linearGradient><linearGradient id="sequencewallet__paint4_linear_1204_2497" x1="5.248" x2="26.444" y1="27.302" y2="4.657" gradientUnits="userSpaceOnUse"><stop stop-color="#AD47DD"/><stop offset="1" stop-color="#CB77E9"/></linearGradient><linearGradient id="sequencewallet__paint5_linear_1204_2497" x1="6.144" x2="25.817" y1="26.286" y2="5.304" gradientUnits="userSpaceOnUse"><stop stop-color="#5DB9F8"/><stop offset="1" stop-color="#A7E4F7"/></linearGradient><linearGradient id="sequencewallet__paint6_linear_1204_2497" x1="1.792" x2="29.695" y1="16.635" y2="15.345" gradientUnits="userSpaceOnUse"><stop stop-color="#5AB7F8"/><stop offset="1" stop-color="#9BE4FB"/></linearGradient><linearGradient id="sequencewallet__paint7_linear_1204_2497" x1="2.558" x2="30.368" y1="31.873" y2="30.536" gradientUnits="userSpaceOnUse"><stop stop-color="#5AB7F8"/><stop offset="1" stop-color="#9BE4FB"/></linearGradient><linearGradient id="sequencewallet__paint8_linear_1204_2497" x1="2.839" x2="29.709" y1="32.635" y2="31.256" gradientUnits="userSpaceOnUse"><stop stop-color="#2C46F4"/><stop offset="1" stop-color="#6E7FF1"/></linearGradient><linearGradient id="sequencewallet__paint9_linear_1204_2497" x1="8.91" x2="18.36" y1="17.29" y2="14.76" gradientUnits="userSpaceOnUse"><stop stop-color="#5F37F4"/><stop offset="1" stop-color="#946FF6"/></linearGradient></defs></svg>