<svg width="32" height="32" fill="none" viewBox="0 0 32 32" xmlns="http://www.w3.org/2000/svg"><g clip-path="url(#soneium__clip0_2563_5)"><path fill="#fff" d="M32 16c0-8.837-7.163-16-16-16S0 7.163 0 16s7.163 16 16 16 16-7.163 16-16"/><path fill="#000" d="M17.581 22.698a6.91 6.91 0 0 1-6.491-1.837c-2.276-2.275-2.72-5.65-1.076-8.325.679-1.104 1.323-1.764 1.88-2.319 2.297-2.287 6.514-6.45 6.514-6.45-3.938-.78-8.18.355-11.23 3.406-4.86 4.86-4.86 12.74 0 17.599a12.4 12.4 0 0 0 5.211 3.118l5.193-5.192"/><path fill="#000" d="M14.375 9.248a6.91 6.91 0 0 1 6.491 1.836c2.276 2.275 2.72 5.651 1.076 8.325-.679 1.105-1.323 1.765-1.88 2.32-2.297 2.287-6.514 6.45-6.514 6.45 3.938.779 8.18-.356 11.23-3.407 4.86-4.86 4.86-12.74 0-17.598a12.4 12.4 0 0 0-5.211-3.119l-5.193 5.193"/></g><defs><clipPath id="soneium__clip0_2563_5"><path fill="#fff" d="M0 0h32v32H0z"/></clipPath></defs></svg>