<svg width="32" height="32" fill="none" viewBox="0 0 32 32" xmlns="http://www.w3.org/2000/svg"><path fill="#9896FF" fill-rule="evenodd" d="m31.951 17.257-1.994-.155a14 14 0 0 0 0-2.204l1.994-.155a16 16 0 0 1 0 2.514m-.39-4.994-1.945.466q-.26-1.08-.677-2.087l1.847-.767q.478 1.154.775 2.388M29.644 7.64 27.94 8.686a14 14 0 0 0-1.293-1.778l1.52-1.3a16 16 0 0 1 1.477 2.031m-3.253-3.806-1.3 1.52a14 14 0 0 0-1.777-1.293l1.047-1.704q1.076.661 2.03 1.477m-4.266-2.619-.767 1.848a14 14 0 0 0-2.087-.678l.466-1.945c.822.196 1.62.457 2.388.775M17.257.05l-.155 1.994a14 14 0 0 0-2.204 0L14.743.049a16 16 0 0 1 2.514 0m-4.994.39.466 1.945q-1.08.26-2.087.678l-.767-1.848A16 16 0 0 1 12.263.44M7.64 2.356 8.686 4.06a14 14 0 0 0-1.778 1.293l-1.3-1.52A16 16 0 0 1 7.64 2.356M3.833 5.609l1.52 1.3A14 14 0 0 0 4.06 8.685L2.356 7.639q.661-1.076 1.477-2.03M1.214 9.875l1.848.767a14 14 0 0 0-.678 2.087l-1.945-.466c.196-.822.457-1.62.775-2.388M.05 14.743a16 16 0 0 0 0 2.514l1.994-.155a14 14 0 0 1 0-2.204zm.39 4.994 1.945-.466q.26 1.08.678 2.087l-1.848.767a16 16 0 0 1-.775-2.388m1.917 4.624 1.704-1.047q.579.941 1.293 1.778l-1.52 1.3a16 16 0 0 1-1.477-2.031m3.253 3.806 1.3-1.52q.835.714 1.777 1.293l-1.047 1.704a16 16 0 0 1-2.03-1.477m4.266 2.619.767-1.848q1.007.42 2.087.678l-.466 1.945a16 16 0 0 1-2.388-.775m4.868 1.165.155-1.994a14 14 0 0 0 2.204 0l.155 1.994a16 16 0 0 1-2.514 0m4.994-.39-.466-1.945q1.08-.26 2.087-.677l.767 1.847a16 16 0 0 1-2.388.775m4.624-1.917-1.047-1.704q.941-.579 1.778-1.293l1.3 1.52a16 16 0 0 1-2.031 1.477m3.806-3.253-1.52-1.3a14 14 0 0 0 1.293-1.777l1.704 1.047q-.661 1.076-1.477 2.03m2.619-4.266-1.848-.767q.42-1.007.678-2.087l1.945.466a16 16 0 0 1-.775 2.388" clip-rule="evenodd"/><g clip-path="url(#stataenj__circleClip)"><g style="transform:scale(.8125);transform-origin:50% 50%"><g clip-path="url(#stataenj__enjincoin__clip0_294_3414)"><path fill="#7567CD" d="M16 32c8.837 0 16-7.163 16-16S24.837 0 16 0 0 7.163 0 16s7.163 16 16 16"/><path fill="#fff" d="M25.59 21.69c-.41-.65-1.11-.65-1.44-.65h-2.26c-2.64 0-5.35 0-8.01-.02-.86 0-1.85-.05-2.82-.32-.72-.2-1.15-.63-1.33-1.33-.11-.45-.16-.9-.18-1.38v-.09h14.42c.23 0 .45 0 .7-.05.7-.14 1.08-.56 1.13-1.2 0-.07.02-.16.02-.23.05-.54.11-1.29-.65-1.78-.25-.14-.54-.23-.84-.23H9.55c0-.11.02-.25.02-.38.14-1.58.65-2.14 2.21-2.39.5-.09 1.02-.14 1.51-.14 3.5 0 7.02-.02 10.52-.05.29 0 .56-.02.84-.07.61-.09 1.06-.56 1.13-1.13.23-1.31-.27-2.03-1.56-2.28-.41-.09-.79-.11-1.17-.16-.16 0-.34-.02-.5-.05H12.44c-.23.02-.45.05-.68.07-.7.07-1.4.14-2.12.29-2.73.61-4.04 2.03-4.36 4.81-.02.27-.07.54-.09.83l-.05.41v4.29c.02.18.05.34.07.5.02.36.07.74.14 1.13.41 2.44 1.67 3.75 4.13 4.27.99.23 2.01.34 3.02.36 1.6.02 3.2.05 4.83.05s3.25-.02 4.85-.02c.72-.02 1.58-.07 2.41-.34a1.85 1.85 0 0 0 1.21-1.33c.11-.47.05-.97-.23-1.4z"/></g><defs><clipPath id="stataenj__enjincoin__clip0_294_3414"><path fill="#fff" d="M0 0h32v32H0z"/></clipPath></defs></g></g><defs><clipPath id="stataenj__circleClip"><circle cx="16" cy="16" r="13"/></clipPath></defs></svg>