<svg xmlns="http://www.w3.org/2000/svg" width="32" height="32" fill="none" viewBox="0 0 32 32"><path fill="url(#t9qu3i__paint0_linear_42_5)" fill-rule="evenodd" d="m31.951 17.257-1.994-.155a14 14 0 0 0 0-2.204l1.994-.155a16 16 0 0 1 0 2.514m-.39-4.994-1.945.466q-.26-1.08-.677-2.087l1.847-.767q.478 1.154.775 2.388M29.644 7.64 27.94 8.686a14 14 0 0 0-1.293-1.778l1.52-1.3a16 16 0 0 1 1.477 2.031m-3.253-3.806-1.3 1.52a14 14 0 0 0-1.777-1.293l1.047-1.704q1.076.661 2.03 1.477m-4.266-2.619-.767 1.848a14 14 0 0 0-2.087-.678l.466-1.945c.822.196 1.62.457 2.388.775M17.257.05l-.155 1.994a14 14 0 0 0-2.204 0L14.743.049a16 16 0 0 1 2.514 0m-4.994.39.466 1.945q-1.08.26-2.087.678l-.767-1.848A16 16 0 0 1 12.263.44M7.64 2.356 8.686 4.06a14 14 0 0 0-1.778 1.293l-1.3-1.52A16 16 0 0 1 7.64 2.356M3.833 5.609l1.52 1.3A14 14 0 0 0 4.06 8.685L2.356 7.639q.661-1.076 1.477-2.03M1.214 9.875l1.848.767a14 14 0 0 0-.678 2.087l-1.945-.466c.196-.822.457-1.62.775-2.388M.05 14.743a16 16 0 0 0 0 2.514l1.994-.155a14 14 0 0 1 0-2.204zm.39 4.994 1.945-.466q.26 1.08.678 2.087l-1.848.767a16 16 0 0 1-.775-2.388m1.917 4.624 1.704-1.047q.579.941 1.293 1.778l-1.52 1.3a16 16 0 0 1-1.477-2.031m3.253 3.806 1.3-1.52q.835.714 1.777 1.293l-1.047 1.704a16 16 0 0 1-2.03-1.477m4.266 2.619.767-1.848q1.007.42 2.087.678l-.466 1.945a16 16 0 0 1-2.388-.775m4.868 1.165.155-1.994a14 14 0 0 0 2.204 0l.155 1.994a16 16 0 0 1-2.514 0m4.994-.39-.466-1.945q1.08-.26 2.087-.677l.767 1.847a16 16 0 0 1-2.388.775m4.624-1.917-1.047-1.704q.941-.579 1.778-1.293l1.3 1.52a16 16 0 0 1-2.031 1.477m3.806-3.253-1.52-1.3a14 14 0 0 0 1.293-1.777l1.704 1.047q-.661 1.076-1.477 2.03m2.619-4.266-1.848-.767q.42-1.007.678-2.087l1.945.466a16 16 0 0 1-.775 2.388" clip-rule="evenodd"/><g clip-path="url(#t9qu3i__circleClip)"><g style="transform:scale(.8125);transform-origin:50% 50%"><g clip-path="url(#t9qu3i__clip0_294_308)"><path fill="url(#t9qu3i__paint0_linear_294_308)" d="M16 0c8.84 0 16 7.16 16 16s-7.16 16-16 16S0 24.84 0 16 7.16 0 16 0"/><path fill="#fff" d="M9.012 13.976c.211.443.725 1.32.725 1.32l5.94-9.788-5.8 4.038a2.64 2.64 0 0 0-.825.906 4.21 4.21 0 0 0-.04 3.534zm-2.356 3.222a6.7 6.7 0 0 0 .775 2.669 6.5 6.5 0 0 0 1.813 2.114l6.414 4.45s-4.008-5.759-7.401-11.498a5.9 5.9 0 0 1-.685-1.954 2.9 2.9 0 0 1 0-.936c-.09.16-.262.493-.262.493a7.7 7.7 0 0 0-.695 2.215c-.07.816-.06 1.632.02 2.437zm16.362.765c-.211-.443-.725-1.319-.725-1.319l-5.94 9.788 5.8-4.028a2.64 2.64 0 0 0 .825-.906 4.17 4.17 0 0 0 .04-3.535m2.356-3.222a6.7 6.7 0 0 0-.775-2.668 6.5 6.5 0 0 0-1.812-2.115l-6.414-4.45s4.007 5.76 7.4 11.499c.343.604.574 1.269.675 1.953q.075.47 0 .937c.09-.161.262-.494.262-.494.342-.694.574-1.44.695-2.215.07-.815.06-1.631-.02-2.437z"/></g><defs><linearGradient id="t9qu3i__paint0_linear_294_308" x1="25.787" x2="-5.306" y1="33.249" y2="-21.498" gradientUnits="userSpaceOnUse"><stop stop-color="#44BCF0"/><stop offset=".38" stop-color="#7298F8"/><stop offset="1" stop-color="#A099FF"/></linearGradient><clipPath id="t9qu3i__clip0_294_308"><path fill="#fff" d="M0 0h32v32H0z"/></clipPath></defs></g></g><defs><linearGradient id="t9qu3i__paint0_linear_42_5" x1="26.976" x2="6.592" y1="4.32" y2="28.352" gradientUnits="userSpaceOnUse"><stop stop-color="#B6509E"/><stop offset="1" stop-color="#2EBAC6"/></linearGradient><clipPath id="t9qu3i__circleClip"><circle cx="16" cy="16" r="13"/></clipPath></defs></svg>