<svg xmlns="http://www.w3.org/2000/svg" width="32" height="32" fill="none" viewBox="0 0 32 32"><path fill="url(#statawbnb__paint0_linear_42_5)" fill-rule="evenodd" d="m31.951 17.257-1.994-.155a14 14 0 0 0 0-2.204l1.994-.155a16 16 0 0 1 0 2.514m-.39-4.994-1.945.466q-.26-1.08-.677-2.087l1.847-.767q.478 1.154.775 2.388M29.644 7.64 27.94 8.686a14 14 0 0 0-1.293-1.778l1.52-1.3a16 16 0 0 1 1.477 2.031m-3.253-3.806-1.3 1.52a14 14 0 0 0-1.777-1.293l1.047-1.704q1.076.661 2.03 1.477m-4.266-2.619-.767 1.848a14 14 0 0 0-2.087-.678l.466-1.945c.822.196 1.62.457 2.388.775M17.257.05l-.155 1.994a14 14 0 0 0-2.204 0L14.743.049a16 16 0 0 1 2.514 0m-4.994.39.466 1.945q-1.08.26-2.087.678l-.767-1.848A16 16 0 0 1 12.263.44M7.64 2.356 8.686 4.06a14 14 0 0 0-1.778 1.293l-1.3-1.52A16 16 0 0 1 7.64 2.356M3.833 5.609l1.52 1.3A14 14 0 0 0 4.06 8.685L2.356 7.639q.661-1.076 1.477-2.03M1.214 9.875l1.848.767a14 14 0 0 0-.678 2.087l-1.945-.466c.196-.822.457-1.62.775-2.388M.05 14.743a16 16 0 0 0 0 2.514l1.994-.155a14 14 0 0 1 0-2.204zm.39 4.994 1.945-.466q.26 1.08.678 2.087l-1.848.767a16 16 0 0 1-.775-2.388m1.917 4.624 1.704-1.047q.579.941 1.293 1.778l-1.52 1.3a16 16 0 0 1-1.477-2.031m3.253 3.806 1.3-1.52q.835.714 1.777 1.293l-1.047 1.704a16 16 0 0 1-2.03-1.477m4.266 2.619.767-1.848q1.007.42 2.087.678l-.466 1.945a16 16 0 0 1-2.388-.775m4.868 1.165.155-1.994a14 14 0 0 0 2.204 0l.155 1.994a16 16 0 0 1-2.514 0m4.994-.39-.466-1.945q1.08-.26 2.087-.677l.767 1.847a16 16 0 0 1-2.388.775m4.624-1.917-1.047-1.704q.941-.579 1.778-1.293l1.3 1.52a16 16 0 0 1-2.031 1.477m3.806-3.253-1.52-1.3a14 14 0 0 0 1.293-1.777l1.704 1.047q-.661 1.076-1.477 2.03m2.619-4.266-1.848-.767q.42-1.007.678-2.087l1.945.466a16 16 0 0 1-.775 2.388" clip-rule="evenodd"/><g clip-path="url(#statawbnb__circleClip)"><g style="transform:scale(.8125);transform-origin:50% 50%"><g clip-path="url(#statawbnb__bnbsmartchain__clip0_292_152)"><path fill="#F0B90B" fill-rule="evenodd" d="M16 0c8.84 0 16 7.16 16 16s-7.16 16-16 16S0 24.84 0 16 7.16 0 16 0" clip-rule="evenodd"/><path fill="#fff" d="m8.79 16 .02 4.23 3.59 2.12v2.47l-5.7-3.34v-6.72zm0-4.23v2.46L6.7 13v-2.47l2.09-1.24 2.11 1.24zm5.11-1.24L16 9.29l2.1 1.24-2.1 1.24z"/><path fill="#fff" d="M10.31 19.35v-2.47l2.09 1.24v2.46zm3.59 3.88 2.1 1.24 2.1-1.24v2.47L16 26.94l-2.1-1.24zm7.2-12.7 2.1-1.24 2.1 1.24V13l-2.1 1.23v-2.46zm2.1 9.7.01-4.23 2.09-1.24v6.72l-5.7 3.34v-2.48z"/><path fill="#fff" d="m21.69 19.35-2.09 1.23v-2.47l2.09-1.24z"/><path fill="#fff" d="m21.69 12.65.02 2.47-3.61 2.12v4.24l-2.09 1.23-2.1-1.23v-4.24l-3.6-2.12v-2.47l2.1-1.24 3.58 2.12 3.61-2.12 2.1 1.24zM10.31 8.42 16 5.06l5.69 3.36-2.09 1.24L16 7.53l-3.6 2.13z"/></g><defs><clipPath id="statawbnb__bnbsmartchain__clip0_292_152"><path fill="#fff" d="M0 0h32v32H0z"/></clipPath></defs></g></g><defs><linearGradient id="statawbnb__paint0_linear_42_5" x1="26.976" x2="6.592" y1="4.32" y2="28.352" gradientUnits="userSpaceOnUse"><stop stop-color="#B6509E"/><stop offset="1" stop-color="#2EBAC6"/></linearGradient><clipPath id="statawbnb__circleClip"><circle cx="16" cy="16" r="13"/></clipPath></defs></svg>