<svg width="32" height="32" fill="none" viewBox="0 0 32 32" xmlns="http://www.w3.org/2000/svg"><path fill="url(#statausds__paint0_linear_42_5)" fill-rule="evenodd" d="m31.951 17.257-1.994-.155a14 14 0 0 0 0-2.204l1.994-.155a16 16 0 0 1 0 2.514m-.39-4.994-1.945.466q-.26-1.08-.677-2.087l1.847-.767q.478 1.154.775 2.388M29.644 7.64 27.94 8.686a14 14 0 0 0-1.293-1.778l1.52-1.3a16 16 0 0 1 1.477 2.031m-3.253-3.806-1.3 1.52a14 14 0 0 0-1.777-1.293l1.047-1.704q1.076.661 2.03 1.477m-4.266-2.619-.767 1.848a14 14 0 0 0-2.087-.678l.466-1.945c.822.196 1.62.457 2.388.775M17.257.05l-.155 1.994a14 14 0 0 0-2.204 0L14.743.049a16 16 0 0 1 2.514 0m-4.994.39.466 1.945q-1.08.26-2.087.678l-.767-1.848A16 16 0 0 1 12.263.44M7.64 2.356 8.686 4.06a14 14 0 0 0-1.778 1.293l-1.3-1.52A16 16 0 0 1 7.64 2.356M3.833 5.609l1.52 1.3A14 14 0 0 0 4.06 8.685L2.356 7.639q.661-1.076 1.477-2.03M1.214 9.875l1.848.767a14 14 0 0 0-.678 2.087l-1.945-.466c.196-.822.457-1.62.775-2.388M.05 14.743a16 16 0 0 0 0 2.514l1.994-.155a14 14 0 0 1 0-2.204zm.39 4.994 1.945-.466q.26 1.08.678 2.087l-1.848.767a16 16 0 0 1-.775-2.388m1.917 4.624 1.704-1.047q.579.941 1.293 1.778l-1.52 1.3a16 16 0 0 1-1.477-2.031m3.253 3.806 1.3-1.52q.835.714 1.777 1.293l-1.047 1.704a16 16 0 0 1-2.03-1.477m4.266 2.619.767-1.848q1.007.42 2.087.678l-.466 1.945a16 16 0 0 1-2.388-.775m4.868 1.165.155-1.994a14 14 0 0 0 2.204 0l.155 1.994a16 16 0 0 1-2.514 0m4.994-.39-.466-1.945q1.08-.26 2.087-.677l.767 1.847a16 16 0 0 1-2.388.775m4.624-1.917-1.047-1.704q.941-.579 1.778-1.293l1.3 1.52a16 16 0 0 1-2.031 1.477m3.806-3.253-1.52-1.3a14 14 0 0 0 1.293-1.777l1.704 1.047q-.661 1.076-1.477 2.03m2.619-4.266-1.848-.767q.42-1.007.678-2.087l1.945.466a16 16 0 0 1-.775 2.388" clip-rule="evenodd"/><g clip-path="url(#statausds__circleClip)"><g style="transform:scale(.8125);transform-origin:50% 50%"><path fill="url(#statausds__usdsstablecoin__paint0_radial_1643_35)" d="M16 32c8.837 0 16-7.163 16-16S24.837 0 16 0 0 7.163 0 16s7.163 16 16 16"/><path fill="#fff" d="M9.88 20.21H7.6c.19 3.56 3.16 6.64 8.43 6.64s8.6-2.88 8.6-6.6c0-7.06-10.66-6.67-10.66-10.75 0-1.14.86-2.48 2.86-2.48 2.23 0 4.85 1.74 5.04 3.97h2.25c-.23-3.6-3.74-6.11-8.2-6.11s-8.11 2.7-8.11 6.5c0 7.27 10.66 6.32 10.66 10.8 0 1.39-.86 2.56-3.02 2.56-2.7 0-5.42-1.88-5.58-4.53zm1.91-10.18c0 5.53 10.57 4.44 10.57 10.34 0 1.77-1.16 3.32-2.56 3.72.49-.46.86-1.49.86-2.46 0-5.46-10.6-4.72-10.6-10.32 0-1.88 1.21-3.39 2.72-3.85-.58.7-.99 1.61-.99 2.58z"/><defs><radialGradient id="statausds__usdsstablecoin__paint0_radial_1643_35" cx="0" cy="0" r="1" gradientTransform="rotate(-90 26.817 7.774)scale(54.2066)" gradientUnits="userSpaceOnUse"><stop stop-color="#F7D356"/><stop offset="1" stop-color="#EC7672"/></radialGradient></defs></g></g><defs><linearGradient id="statausds__paint0_linear_42_5" x1="26.976" x2="6.592" y1="4.32" y2="28.352" gradientUnits="userSpaceOnUse"><stop stop-color="#B6509E"/><stop offset="1" stop-color="#2EBAC6"/></linearGradient><clipPath id="statausds__circleClip"><circle cx="16" cy="16" r="13"/></clipPath></defs></svg>