<svg xmlns="http://www.w3.org/2000/svg" width="32" height="32" fill="none" viewBox="0 0 32 32"><path fill="url(#zaj0w__paint0_linear_42_5)" fill-rule="evenodd" d="m31.951 17.257-1.994-.155a14 14 0 0 0 0-2.204l1.994-.155a16 16 0 0 1 0 2.514m-.39-4.994-1.945.466q-.26-1.08-.677-2.087l1.847-.767q.478 1.154.775 2.388M29.644 7.64 27.94 8.686a14 14 0 0 0-1.293-1.778l1.52-1.3a16 16 0 0 1 1.477 2.031m-3.253-3.806-1.3 1.52a14 14 0 0 0-1.777-1.293l1.047-1.704q1.076.661 2.03 1.477m-4.266-2.619-.767 1.848a14 14 0 0 0-2.087-.678l.466-1.945c.822.196 1.62.457 2.388.775M17.257.05l-.155 1.994a14 14 0 0 0-2.204 0L14.743.049a16 16 0 0 1 2.514 0m-4.994.39.466 1.945q-1.08.26-2.087.678l-.767-1.848A16 16 0 0 1 12.263.44M7.64 2.356 8.686 4.06a14 14 0 0 0-1.778 1.293l-1.3-1.52A16 16 0 0 1 7.64 2.356M3.833 5.609l1.52 1.3A14 14 0 0 0 4.06 8.685L2.356 7.639q.661-1.076 1.477-2.03M1.214 9.875l1.848.767a14 14 0 0 0-.678 2.087l-1.945-.466c.196-.822.457-1.62.775-2.388M.05 14.743a16 16 0 0 0 0 2.514l1.994-.155a14 14 0 0 1 0-2.204zm.39 4.994 1.945-.466q.26 1.08.678 2.087l-1.848.767a16 16 0 0 1-.775-2.388m1.917 4.624 1.704-1.047q.579.941 1.293 1.778l-1.52 1.3a16 16 0 0 1-1.477-2.031m3.253 3.806 1.3-1.52q.835.714 1.777 1.293l-1.047 1.704a16 16 0 0 1-2.03-1.477m4.266 2.619.767-1.848q1.007.42 2.087.678l-.466 1.945a16 16 0 0 1-2.388-.775m4.868 1.165.155-1.994a14 14 0 0 0 2.204 0l.155 1.994a16 16 0 0 1-2.514 0m4.994-.39-.466-1.945q1.08-.26 2.087-.677l.767 1.847a16 16 0 0 1-2.388.775m4.624-1.917-1.047-1.704q.941-.579 1.778-1.293l1.3 1.52a16 16 0 0 1-2.031 1.477m3.806-3.253-1.52-1.3a14 14 0 0 0 1.293-1.777l1.704 1.047q-.661 1.076-1.477 2.03m2.619-4.266-1.848-.767q.42-1.007.678-2.087l1.945.466a16 16 0 0 1-.775 2.388" clip-rule="evenodd"/><g clip-path="url(#zaj0w__circleClip)"><g style="transform:scale(.8125);transform-origin:50% 50%"><g clip-path="url(#zaj0w__73xra__clip0_298_712)"><path fill="#fff" d="M16 0c8.84 0 16 7.16 16 16s-7.16 16-16 16S0 24.84 0 16 7.16 0 16 0"/><path fill="url(#zaj0w__73xra__paint0_linear_298_712)" d="M21.31 12.37c-.41-.24-.92-.24-1.33 0l-3.05 1.82-2.07 1.18-3.05 1.82c-.41.24-.92.24-1.33 0l-2.42-1.42c-.4-.24-.65-.67-.66-1.14v-2.8c0-.48.25-.92.66-1.15l2.39-1.38c.41-.24.92-.24 1.33 0l2.38 1.38c.4.24.66.67.66 1.15v1.81l2.07-1.22V10.6c0-.47-.25-.92-.66-1.14l-4.42-2.61c-.41-.24-.92-.24-1.33 0L5.99 9.46c-.42.23-.67.67-.66 1.14v5.25c0 .47.25.92.66 1.14l4.49 2.6c.41.24.92.24 1.33 0l3.05-1.78 2.07-1.22 3.05-1.78c.41-.24.92-.24 1.33 0l2.38 1.38c.4.24.66.67.67 1.14v2.8c0 .47-.25.92-.66 1.14l-2.38 1.42c-.41.24-.92.24-1.33 0l-2.38-1.38c-.4-.24-.66-.67-.66-1.15v-1.81l-2.07 1.22v1.82c0 .48.25.92.66 1.14l4.49 2.61c.41.24.92.24 1.33 0l4.49-2.61c.4-.24.65-.67.66-1.14v-5.25c0-.47-.25-.91-.66-1.14l-4.53-2.64z"/></g><defs><linearGradient id="zaj0w__73xra__paint0_linear_298_712" x1="27.22" x2="4.64" y1="7.62" y2="24.35" gradientUnits="userSpaceOnUse"><stop stop-color="#48A0F7"/><stop offset="1" stop-color="#70D8FA"/></linearGradient><clipPath id="zaj0w__73xra__clip0_298_712"><path fill="#fff" d="M0 0h32v32H0z"/></clipPath></defs></g></g><defs><linearGradient id="zaj0w__paint0_linear_42_5" x1="26.976" x2="6.592" y1="4.32" y2="28.352" gradientUnits="userSpaceOnUse"><stop stop-color="#B6509E"/><stop offset="1" stop-color="#2EBAC6"/></linearGradient><clipPath id="zaj0w__circleClip"><circle cx="16" cy="16" r="13"/></clipPath></defs></svg>