<svg xmlns="http://www.w3.org/2000/svg" width="32" height="32" fill="none" viewBox="0 0 32 32"><path fill="url(#efvx9__paint0_linear_42_5)" fill-rule="evenodd" d="m31.951 17.257-1.994-.155a14 14 0 0 0 0-2.204l1.994-.155a16 16 0 0 1 0 2.514m-.39-4.994-1.945.466q-.26-1.08-.677-2.087l1.847-.767q.478 1.154.775 2.388M29.644 7.64 27.94 8.686a14 14 0 0 0-1.293-1.778l1.52-1.3a16 16 0 0 1 1.477 2.031m-3.253-3.806-1.3 1.52a14 14 0 0 0-1.777-1.293l1.047-1.704q1.076.661 2.03 1.477m-4.266-2.619-.767 1.848a14 14 0 0 0-2.087-.678l.466-1.945c.822.196 1.62.457 2.388.775M17.257.05l-.155 1.994a14 14 0 0 0-2.204 0L14.743.049a16 16 0 0 1 2.514 0m-4.994.39.466 1.945q-1.08.26-2.087.678l-.767-1.848A16 16 0 0 1 12.263.44M7.64 2.356 8.686 4.06a14 14 0 0 0-1.778 1.293l-1.3-1.52A16 16 0 0 1 7.64 2.356M3.833 5.609l1.52 1.3A14 14 0 0 0 4.06 8.685L2.356 7.639q.661-1.076 1.477-2.03M1.214 9.875l1.848.767a14 14 0 0 0-.678 2.087l-1.945-.466c.196-.822.457-1.62.775-2.388M.05 14.743a16 16 0 0 0 0 2.514l1.994-.155a14 14 0 0 1 0-2.204zm.39 4.994 1.945-.466q.26 1.08.678 2.087l-1.848.767a16 16 0 0 1-.775-2.388m1.917 4.624 1.704-1.047q.579.941 1.293 1.778l-1.52 1.3a16 16 0 0 1-1.477-2.031m3.253 3.806 1.3-1.52q.835.714 1.777 1.293l-1.047 1.704a16 16 0 0 1-2.03-1.477m4.266 2.619.767-1.848q1.007.42 2.087.678l-.466 1.945a16 16 0 0 1-2.388-.775m4.868 1.165.155-1.994a14 14 0 0 0 2.204 0l.155 1.994a16 16 0 0 1-2.514 0m4.994-.39-.466-1.945q1.08-.26 2.087-.677l.767 1.847a16 16 0 0 1-2.388.775m4.624-1.917-1.047-1.704q.941-.579 1.778-1.293l1.3 1.52a16 16 0 0 1-2.031 1.477m3.806-3.253-1.52-1.3a14 14 0 0 0 1.293-1.777l1.704 1.047q-.661 1.076-1.477 2.03m2.619-4.266-1.848-.767q.42-1.007.678-2.087l1.945.466a16 16 0 0 1-.775 2.388" clip-rule="evenodd"/><g clip-path="url(#efvx9__circleClip)"><g style="transform:scale(.8125);transform-origin:50% 50%"><path fill="#000" d="M16 32c8.837 0 16-7.163 16-16S24.837 0 16 0 0 7.163 0 16s7.163 16 16 16"/><path fill="#FFB500" d="m19.39 16.7.01 3.82.21-.13-.23.23-.01.01h-.01l-3.26 1.92v1.17l4.4-2.5-.05-5.08z"/><path fill="#FFB500" d="M20.59 16.02v.02l.05 5.18.99.46-.02-6.15-3.26-2.04-1.21.69 3.41 1.8s.03.03.03.04zm1-4.62v-1.18l-5.54-3.16v1.25zm-10.25-.53 4.57-2.56V7.06l-5.53 3.23.02 6.4.89-.65.02-5.1s.01-.04.03-.05zm10.2 10.92-.98-.45-4.5 2.56h-.16l.06-.03-3.43-1.93s-.03-.02-.03-.04c-.02-.03 0-.07.02-.08l1.14-.65 3.29-1.86-5.58-3.18-.91.67 4.42 2.43s.03.02.03.04c.01.03 0 .06-.02.08l-4.41 2.59L16 25.07l5.55-3.28z"/><path fill="#FFB500" d="M16.93 14.2s0-.07.02-.08l1.36-.78 3.21-1.82-5.55-3.09-4.45 2.49 1.1.49 3.33-1.9h.06l3.32 1.9c.02 0 .03.02.03.04.02.03 0 .07-.02.08l-4.41 2.59 4.39 2.47 1.04-.55-3.4-1.8s-.03-.02-.04-.04zm-.98 9.52v-1.15l-2.28-1.25-1 .56zm-5.54-3.15v1.26l4.3-2.52-1.05-.58z"/><path fill="#FFB500" d="m14.88 12.8-.01 1.19 4.3-2.52-.94-.54zM17 17.99l-4.39-2.42s-.02-.02-.03-.04v-.02l-.01-3.98-1.13-.5-.02 4.99L17 19.21z"/></g></g><defs><linearGradient id="efvx9__paint0_linear_42_5" x1="26.976" x2="6.592" y1="4.32" y2="28.352" gradientUnits="userSpaceOnUse"><stop stop-color="#B6509E"/><stop offset="1" stop-color="#2EBAC6"/></linearGradient><clipPath id="efvx9__circleClip"><circle cx="16" cy="16" r="13"/></clipPath></defs></svg>