<svg xmlns="http://www.w3.org/2000/svg" width="32" height="32" fill="none" viewBox="0 0 32 32"><path fill="url(#n1npc__paint0_linear_42_5)" fill-rule="evenodd" d="m31.951 17.257-1.994-.155a14 14 0 0 0 0-2.204l1.994-.155a16 16 0 0 1 0 2.514m-.39-4.994-1.945.466q-.26-1.08-.677-2.087l1.847-.767q.478 1.154.775 2.388M29.644 7.64 27.94 8.686a14 14 0 0 0-1.293-1.778l1.52-1.3a16 16 0 0 1 1.477 2.031m-3.253-3.806-1.3 1.52a14 14 0 0 0-1.777-1.293l1.047-1.704q1.076.661 2.03 1.477m-4.266-2.619-.767 1.848a14 14 0 0 0-2.087-.678l.466-1.945c.822.196 1.62.457 2.388.775M17.257.05l-.155 1.994a14 14 0 0 0-2.204 0L14.743.049a16 16 0 0 1 2.514 0m-4.994.39.466 1.945q-1.08.26-2.087.678l-.767-1.848A16 16 0 0 1 12.263.44M7.64 2.356 8.686 4.06a14 14 0 0 0-1.778 1.293l-1.3-1.52A16 16 0 0 1 7.64 2.356M3.833 5.609l1.52 1.3A14 14 0 0 0 4.06 8.685L2.356 7.639q.661-1.076 1.477-2.03M1.214 9.875l1.848.767a14 14 0 0 0-.678 2.087l-1.945-.466c.196-.822.457-1.62.775-2.388M.05 14.743a16 16 0 0 0 0 2.514l1.994-.155a14 14 0 0 1 0-2.204zm.39 4.994 1.945-.466q.26 1.08.678 2.087l-1.848.767a16 16 0 0 1-.775-2.388m1.917 4.624 1.704-1.047q.579.941 1.293 1.778l-1.52 1.3a16 16 0 0 1-1.477-2.031m3.253 3.806 1.3-1.52q.835.714 1.777 1.293l-1.047 1.704a16 16 0 0 1-2.03-1.477m4.266 2.619.767-1.848q1.007.42 2.087.678l-.466 1.945a16 16 0 0 1-2.388-.775m4.868 1.165.155-1.994a14 14 0 0 0 2.204 0l.155 1.994a16 16 0 0 1-2.514 0m4.994-.39-.466-1.945q1.08-.26 2.087-.677l.767 1.847a16 16 0 0 1-2.388.775m4.624-1.917-1.047-1.704q.941-.579 1.778-1.293l1.3 1.52a16 16 0 0 1-2.031 1.477m3.806-3.253-1.52-1.3a14 14 0 0 0 1.293-1.777l1.704 1.047q-.661 1.076-1.477 2.03m2.619-4.266-1.848-.767q.42-1.007.678-2.087l1.945.466a16 16 0 0 1-.775 2.388" clip-rule="evenodd"/><g clip-path="url(#n1npc__circleClip)"><g style="transform:scale(.8125);transform-origin:50% 50%"><g clip-path="url(#n1npc__df527__clip0_292_172)"><path fill="#E84142" fill-rule="evenodd" d="M32 16c0 8.84-7.16 16-16 16S0 24.84 0 16 7.16 0 16 0s16 7.16 16 16" clip-rule="evenodd"/><path fill="#fff" d="M19.31 22.37h4.45c.66 0 .99 0 1.18-.13.21-.14.35-.37.36-.62.01-.22-.15-.5-.46-1.03l-.03-.06-2.23-3.81-.03-.04c-.31-.53-.47-.8-.67-.9a.8.8 0 0 0-.71 0c-.2.11-.37.39-.7.95l-2.22 3.81c-.33.57-.49.85-.48 1.08.02.25.15.48.36.62.19.13.52.13 1.18.13m-.03-10.23c.09-.36.09-.73 0-1.09-.08-.33-.26-.64-.61-1.26l-1.58-2.77c-.33-.57-.49-.86-.7-.97a.83.83 0 0 0-.72 0c-.21.11-.37.39-.7.97L7.3 20.53c-.32.57-.48.85-.47 1.08.02.25.15.48.36.62.2.13.52.13 1.17.13h3.11c.73 0 1.1 0 1.42-.09.36-.11.68-.29.96-.55.25-.24.43-.55.78-1.17v-.02l4.04-7.12c.36-.62.53-.94.61-1.27"/></g><defs><clipPath id="n1npc__df527__clip0_292_172"><path fill="#fff" d="M0 0h32v32H0z"/></clipPath></defs></g></g><defs><linearGradient id="n1npc__paint0_linear_42_5" x1="26.976" x2="6.592" y1="4.32" y2="28.352" gradientUnits="userSpaceOnUse"><stop stop-color="#B6509E"/><stop offset="1" stop-color="#2EBAC6"/></linearGradient><clipPath id="n1npc__circleClip"><circle cx="16" cy="16" r="13"/></clipPath></defs></svg>