<svg xmlns="http://www.w3.org/2000/svg" width="32" height="32" fill="none" viewBox="0 0 32 32"><path fill="url(#stataeure__paint0_linear_42_5)" fill-rule="evenodd" d="m31.951 17.257-1.994-.155a14 14 0 0 0 0-2.204l1.994-.155a16 16 0 0 1 0 2.514m-.39-4.994-1.945.466q-.26-1.08-.677-2.087l1.847-.767q.478 1.154.775 2.388M29.644 7.64 27.94 8.686a14 14 0 0 0-1.293-1.778l1.52-1.3a16 16 0 0 1 1.477 2.031m-3.253-3.806-1.3 1.52a14 14 0 0 0-1.777-1.293l1.047-1.704q1.076.661 2.03 1.477m-4.266-2.619-.767 1.848a14 14 0 0 0-2.087-.678l.466-1.945c.822.196 1.62.457 2.388.775M17.257.05l-.155 1.994a14 14 0 0 0-2.204 0L14.743.049a16 16 0 0 1 2.514 0m-4.994.39.466 1.945q-1.08.26-2.087.678l-.767-1.848A16 16 0 0 1 12.263.44M7.64 2.356 8.686 4.06a14 14 0 0 0-1.778 1.293l-1.3-1.52A16 16 0 0 1 7.64 2.356M3.833 5.609l1.52 1.3A14 14 0 0 0 4.06 8.685L2.356 7.639q.661-1.076 1.477-2.03M1.214 9.875l1.848.767a14 14 0 0 0-.678 2.087l-1.945-.466c.196-.822.457-1.62.775-2.388M.05 14.743a16 16 0 0 0 0 2.514l1.994-.155a14 14 0 0 1 0-2.204zm.39 4.994 1.945-.466q.26 1.08.678 2.087l-1.848.767a16 16 0 0 1-.775-2.388m1.917 4.624 1.704-1.047q.579.941 1.293 1.778l-1.52 1.3a16 16 0 0 1-1.477-2.031m3.253 3.806 1.3-1.52q.835.714 1.777 1.293l-1.047 1.704a16 16 0 0 1-2.03-1.477m4.266 2.619.767-1.848q1.007.42 2.087.678l-.466 1.945a16 16 0 0 1-2.388-.775m4.868 1.165.155-1.994a14 14 0 0 0 2.204 0l.155 1.994a16 16 0 0 1-2.514 0m4.994-.39-.466-1.945q1.08-.26 2.087-.677l.767 1.847a16 16 0 0 1-2.388.775m4.624-1.917-1.047-1.704q.941-.579 1.778-1.293l1.3 1.52a16 16 0 0 1-2.031 1.477m3.806-3.253-1.52-1.3a14 14 0 0 0 1.293-1.777l1.704 1.047q-.661 1.076-1.477 2.03m2.619-4.266-1.848-.767q.42-1.007.678-2.087l1.945.466a16 16 0 0 1-.775 2.388" clip-rule="evenodd"/><g clip-path="url(#stataeure__circleClip)"><g style="transform:scale(.8125);transform-origin:50% 50%"><g clip-path="url(#stataeure__moneriumeuremoney__clip0_294_3785)"><path fill="#fff" d="M16 31.59c8.61 0 15.59-6.98 15.59-15.59S24.61.41 16 .41.41 7.39.41 16 7.39 31.59 16 31.59"/><path fill="url(#stataeure__moneriumeuremoney__paint0_linear_294_3785)" d="M16 32c8.837 0 16-7.163 16-16S24.837 0 16 0 0 7.163 0 16s7.163 16 16 16"/><path fill="#fff" d="m23.49 20.91-2.02-1.16s-.06-.02-.09-.02h-.05c-.05.01-.09.05-.11.09-.17.32-.39.61-.64.87-.34.35-.73.65-1.15.89-.41.23-.85.4-1.31.5-.43.1-.87.15-1.32.16-.78 0-1.55-.18-2.25-.53-.67-.34-1.26-.82-1.74-1.4-.23-.28-.44-.59-.62-.91l-.24-.42h5.12c.1 0 .18-.08.18-.18v-1.6c0-.1-.08-.18-.18-.18h-5.69l-.03-.25c-.03-.27-.05-.55-.05-.82 0-.23.01-.47.04-.72l.03-.25h5.7c.1 0 .18-.08.18-.18v-1.6c0-.1-.08-.18-.18-.18h-5.18l.22-.42c.16-.29.33-.58.54-.84.46-.6 1.03-1.09 1.69-1.44.68-.37 1.49-.56 2.4-.56.43 0 .86.05 1.29.14.44.1.87.25 1.27.46.75.4 1.38 1 1.81 1.74.03.04.07.08.12.09h.04c.04 0 .07-.01.1-.03l1.87-1.29c.08-.05.1-.16.05-.24a6.7 6.7 0 0 0-2.36-2.32c-1.14-.69-2.52-1.04-4.1-1.04-1.34 0-2.54.25-3.58.75a8.3 8.3 0 0 0-4.32 4.71c0 .02-.01.03-.02.05 0 0-.01.04-.02.05l-.07.19H4.88c-.1 0-.18.08-.18.18v1.6c0 .1.08.18.18.18h3.51l-.02.3c-.01.22-.02.4-.02.57 0 .28.01.57.04.86l.03.31H4.88c-.1 0-.18.08-.18.18v1.6c0 .1.08.18.18.18h4.04l.07.18c.4 1.02.97 1.95 1.7 2.77.74.84 1.63 1.52 2.63 2.03 1.01.51 2.13.77 3.35.77.72 0 1.44-.09 2.14-.27.71-.17 1.4-.43 2.05-.78.63-.33 1.2-.75 1.71-1.24.39-.37.71-.81.97-1.28a.17.17 0 0 0-.07-.24z"/></g><defs><linearGradient id="stataeure__moneriumeuremoney__paint0_linear_294_3785" x1="8" x2="24" y1="2.14" y2="29.86" gradientUnits="userSpaceOnUse"><stop stop-color="#0095D7"/><stop offset="1" stop-color="#0072AA"/></linearGradient><clipPath id="stataeure__moneriumeuremoney__clip0_294_3785"><path fill="#fff" d="M0 0h32v32H0z"/></clipPath></defs></g></g><defs><linearGradient id="stataeure__paint0_linear_42_5" x1="26.976" x2="6.592" y1="4.32" y2="28.352" gradientUnits="userSpaceOnUse"><stop stop-color="#B6509E"/><stop offset="1" stop-color="#2EBAC6"/></linearGradient><clipPath id="stataeure__circleClip"><circle cx="16" cy="16" r="13"/></clipPath></defs></svg>