<svg xmlns="http://www.w3.org/2000/svg" fill="none" viewBox="0 0 32 32"><path fill="url(#stataxsushi__paint0_linear_42_5)" fill-rule="evenodd" d="m31.951 17.257-1.994-.155a14 14 0 0 0 0-2.204l1.994-.155a16 16 0 0 1 0 2.514m-.39-4.994-1.945.466q-.26-1.08-.677-2.087l1.847-.767q.478 1.154.775 2.388M29.644 7.64 27.94 8.686a14 14 0 0 0-1.293-1.778l1.52-1.3a16 16 0 0 1 1.477 2.031m-3.253-3.806-1.3 1.52a14 14 0 0 0-1.777-1.293l1.047-1.704q1.076.661 2.03 1.477m-4.266-2.619-.767 1.848a14 14 0 0 0-2.087-.678l.466-1.945c.822.196 1.62.457 2.388.775M17.257.05l-.155 1.994a14 14 0 0 0-2.204 0L14.743.049a16 16 0 0 1 2.514 0m-4.994.39.466 1.945q-1.08.26-2.087.678l-.767-1.848A16 16 0 0 1 12.263.44M7.64 2.356 8.686 4.06a14 14 0 0 0-1.778 1.293l-1.3-1.52A16 16 0 0 1 7.64 2.356M3.833 5.609l1.52 1.3A14 14 0 0 0 4.06 8.685L2.356 7.639q.661-1.076 1.477-2.03M1.214 9.875l1.848.767a14 14 0 0 0-.678 2.087l-1.945-.466c.196-.822.457-1.62.775-2.388M.05 14.743a16 16 0 0 0 0 2.514l1.994-.155a14 14 0 0 1 0-2.204zm.39 4.994 1.945-.466q.26 1.08.678 2.087l-1.848.767a16 16 0 0 1-.775-2.388m1.917 4.624 1.704-1.047q.579.941 1.293 1.778l-1.52 1.3a16 16 0 0 1-1.477-2.031m3.253 3.806 1.3-1.52q.835.714 1.777 1.293l-1.047 1.704a16 16 0 0 1-2.03-1.477m4.266 2.619.767-1.848q1.007.42 2.087.678l-.466 1.945a16 16 0 0 1-2.388-.775m4.868 1.165.155-1.994a14 14 0 0 0 2.204 0l.155 1.994a16 16 0 0 1-2.514 0m4.994-.39-.466-1.945q1.08-.26 2.087-.677l.767 1.847a16 16 0 0 1-2.388.775m4.624-1.917-1.047-1.704q.941-.579 1.778-1.293l1.3 1.52a16 16 0 0 1-2.031 1.477m3.806-3.253-1.52-1.3a14 14 0 0 0 1.293-1.777l1.704 1.047q-.661 1.076-1.477 2.03m2.619-4.266-1.848-.767q.42-1.007.678-2.087l1.945.466a16 16 0 0 1-.775 2.388" clip-rule="evenodd"/><g clip-path="url(#stataxsushi__circleClip)"><g style="transform:scale(.8125);transform-origin:50% 50%"><g clip-path="url(#stataxsushi__sushibar__clip0_298_486)"><path fill="#fff" d="M16 32c8.84 0 16-7.16 16-16S24.84 0 16 0 0 7.16 0 16s7.16 16 16 16"/><path fill="#0E0F22" fill-rule="evenodd" d="M9.91 7.21c.61-.85 1.79-1.23 3.31-1.11 2.1.17 4.88 1.3 7.56 3.21 2.67 1.92 4.63 4.2 5.46 6.13.61 1.4.63 2.64.02 3.49l-4.18 5.85c-.61.85-1.8 1.23-3.31 1.11-2.1-.18-4.89-1.3-7.56-3.22-2.68-1.91-4.63-4.19-5.47-6.12-.61-1.4-.63-2.64-.02-3.49zm15.78 11.3c.49-.67.39-1.67-.09-2.78-.8-1.84-2.68-4-5.24-5.83-2.55-1.83-5.2-2.91-7.2-3.08-1.22-.1-2.18.12-2.67.8l-.02.04c-.46.68-.35 1.64.12 2.74.8 1.85 2.68 4.01 5.23 5.84s5.2 2.91 7.2 3.08c1.2.09 2.14-.12 2.64-.76zm-6.52-6.95c1.28.91 2.22 2 2.62 2.92.23.52.29.97.06 1.29-.22.31-.68.41-1.24.36-1-.08-2.33-.63-3.6-1.54-1.28-.91-2.22-1.99-2.62-2.91-.22-.52-.28-.98-.06-1.29s.68-.41 1.25-.37c.99.09 2.32.63 3.59 1.54" clip-rule="evenodd"/><path fill="#F3B46E" fill-rule="evenodd" d="M8.76 20.64c-1.42-1.38-2.47-2.81-3.02-4.09-.61-1.4-.63-2.64-.02-3.49l4.19-5.85c.61-.85 1.79-1.23 3.31-1.1 2.1.17 4.89 1.29 7.56 3.21s4.63 4.19 5.47 6.13c.07.16.13.33.19.5a2.4 2.4 0 0 0-.73-.21h-.12c-.8-1.84-2.68-4-5.23-5.82-2.55-1.83-5.2-2.91-7.2-3.08-1.21-.1-2.18.13-2.67.8l-.03.04c-.45.68-.35 1.65.12 2.74.8 1.84 2.68 4 5.23 5.83 2.07 1.49 4.21 2.48 6.02 2.89-.73 1.03-1.52 1.94-2.56 2.14-.9.18-1.8-.23-2.61-1.15-.85-.96-1.54-2.33-2.51-2.55-1.74-.4-3.3 2.61-5.03 3-.12.03-.24.05-.37.06zm10.42-9.08c1.28.91 2.22 1.99 2.62 2.92.23.52.29.98.06 1.29-.23.32-.68.4-1.25.36-1-.08-2.33-.63-3.6-1.54-1.28-.91-2.22-1.99-2.62-2.92-.23-.52-.29-.98-.06-1.29.23-.32.68-.4 1.25-.36 1 .08 2.33.63 3.6 1.54" clip-rule="evenodd"/><path fill="#fff" fill-rule="evenodd" d="M22.01 20.13c.7.13 1.42.15 2.13.06.08-.01.14-.09.13-.17-.02-.08-.09-.14-.17-.13-.68.09-1.37.07-2.04-.06-.08 0-.16.05-.17.13 0 .04 0 .08.03.11.02.03.06.05.1.06zm-1.2-.27c.2.05.4.1.6.14.04.01.08 0 .11-.02s.06-.06.06-.09c.01-.06 0-.12-.06-.16-.02-.01-.03-.02-.05-.02-.19-.04-.39-.09-.58-.14h-.06c-.04 0-.08.02-.11.06-.01.02-.02.03-.03.05 0 .04 0 .08.02.12s.05.06.09.07zM9.47 10.25c.57 2.32 2.8 4.5 4.6 6.04.03.03.07.04.11.04s.08-.02.1-.05c.04-.05.05-.11.02-.17 0-.02-.02-.03-.04-.05-1.75-1.51-3.94-3.62-4.49-5.89a.16.16 0 0 0-.19-.11c-.04 0-.07.03-.09.07-.02.03-.03.08-.02.11zm-.13-.94c0 .1.01.21.02.31.01.08.09.14.17.13.04 0 .07-.02.1-.05.02-.03.04-.07.03-.11-.01-.1-.02-.2-.02-.29a.15.15 0 0 0-.1-.14c-.02 0-.04-.01-.06 0-.08.01-.14.08-.14.16z" clip-rule="evenodd"/></g><defs><clipPath id="stataxsushi__sushibar__clip0_298_486"><path fill="#fff" d="M0 0h32v32H0z"/></clipPath></defs></g></g><defs><linearGradient id="stataxsushi__paint0_linear_42_5" x1="26.976" x2="6.592" y1="4.32" y2="28.352" gradientUnits="userSpaceOnUse"><stop stop-color="#B6509E"/><stop offset="1" stop-color="#2EBAC6"/></linearGradient><clipPath id="stataxsushi__circleClip"><circle cx="16" cy="16" r="13"/></clipPath></defs></svg>