<svg width="32" height="32" fill="none" viewBox="0 0 32 32" xmlns="http://www.w3.org/2000/svg"><path fill="#9896FF" fill-rule="evenodd" d="m31.951 17.257-1.994-.155a14 14 0 0 0 0-2.204l1.994-.155a16 16 0 0 1 0 2.514m-.39-4.994-1.945.466q-.26-1.08-.677-2.087l1.847-.767q.478 1.154.775 2.388M29.644 7.64 27.94 8.686a14 14 0 0 0-1.293-1.778l1.52-1.3a16 16 0 0 1 1.477 2.031m-3.253-3.806-1.3 1.52a14 14 0 0 0-1.777-1.293l1.047-1.704q1.076.661 2.03 1.477m-4.266-2.619-.767 1.848a14 14 0 0 0-2.087-.678l.466-1.945c.822.196 1.62.457 2.388.775M17.257.05l-.155 1.994a14 14 0 0 0-2.204 0L14.743.049a16 16 0 0 1 2.514 0m-4.994.39.466 1.945q-1.08.26-2.087.678l-.767-1.848A16 16 0 0 1 12.263.44M7.64 2.356 8.686 4.06a14 14 0 0 0-1.778 1.293l-1.3-1.52A16 16 0 0 1 7.64 2.356M3.833 5.609l1.52 1.3A14 14 0 0 0 4.06 8.685L2.356 7.639q.661-1.076 1.477-2.03M1.214 9.875l1.848.767a14 14 0 0 0-.678 2.087l-1.945-.466c.196-.822.457-1.62.775-2.388M.05 14.743a16 16 0 0 0 0 2.514l1.994-.155a14 14 0 0 1 0-2.204zm.39 4.994 1.945-.466q.26 1.08.678 2.087l-1.848.767a16 16 0 0 1-.775-2.388m1.917 4.624 1.704-1.047q.579.941 1.293 1.778l-1.52 1.3a16 16 0 0 1-1.477-2.031m3.253 3.806 1.3-1.52q.835.714 1.777 1.293l-1.047 1.704a16 16 0 0 1-2.03-1.477m4.266 2.619.767-1.848q1.007.42 2.087.678l-.466 1.945a16 16 0 0 1-2.388-.775m4.868 1.165.155-1.994a14 14 0 0 0 2.204 0l.155 1.994a16 16 0 0 1-2.514 0m4.994-.39-.466-1.945q1.08-.26 2.087-.677l.767 1.847a16 16 0 0 1-2.388.775m4.624-1.917-1.047-1.704q.941-.579 1.778-1.293l1.3 1.52a16 16 0 0 1-2.031 1.477m3.806-3.253-1.52-1.3a14 14 0 0 0 1.293-1.777l1.704 1.047q-.661 1.076-1.477 2.03m2.619-4.266-1.848-.767q.42-1.007.678-2.087l1.945.466a16 16 0 0 1-.775 2.388" clip-rule="evenodd"/><g clip-path="url(#stataceur__circleClip)"><g style="transform:scale(.8125);transform-origin:50% 50%"><path fill="#000" fill-rule="evenodd" d="M21.606 3.194c-2.147.62-4.033 2.147-4.891 3.961l-.47.993h-2.087l-.232.796-.232.796 1.081.084 1.081.083.022.964.022.964h-1.74l-.182.68c-.1.375-.224.79-.274.923-.076.197.152.24 1.255.24h1.349l.43.913c.555 1.178 1.647 2.384 2.774 3.06 2.12 1.274 5.224 1.419 7.68.358l.808-.35v-1.25c0-.687-.056-1.221-.125-1.187-2.367 1.199-2.41 1.212-4.064 1.217-1.507.005-1.67-.03-2.744-.582-.84-.43-1.293-.797-1.71-1.382l-.567-.796h6.36l.257-.869c.141-.478.256-.93.256-1.006s-1.694-.137-3.764-.137h-3.764l.05-.796.052-.796 4.026-.045 4.027-.045.243-.876.243-.878-3.978-.044c-2.187-.025-3.977-.083-3.977-.13 0-.046.197-.383.438-.749.502-.762 1.653-1.584 2.64-1.886 1.134-.346 3.186-.235 4.452.242l1.105.415.272-.866c.41-1.307.392-1.35-.771-1.76-1.325-.469-4.153-.605-5.351-.26m-11.88 5.57c-1.508.775-3.622 2.882-4.41 4.394-1.284 2.46-1.629 4.953-1.032 7.455.517 2.169 1.33 3.617 2.93 5.224C9.45 28.084 11.629 29 14.732 29c2.09 0 3.152-.257 5.007-1.212 1.592-.82 3.635-2.875 4.472-4.497.34-.659.618-1.243.618-1.299s-.659-.101-1.464-.101H21.9l-.324.604c-.938 1.749-3.418 3.393-5.658 3.751-5.206.832-9.94-3.922-9.112-9.15.356-2.25 1.993-4.74 3.735-5.682l.602-.326v-1.47c0-.809-.057-1.467-.126-1.462-.068.004-.65.278-1.293.609" clip-rule="evenodd"/></g></g><defs><clipPath id="stataceur__circleClip"><circle cx="16" cy="16" r="13"/></clipPath></defs></svg>