<svg xmlns="http://www.w3.org/2000/svg" width="32" height="32" fill="none" viewBox="0 0 32 32"><path fill="url(#ukyxz__paint0_linear_42_5)" fill-rule="evenodd" d="m31.951 17.257-1.994-.155a14 14 0 0 0 0-2.204l1.994-.155a16 16 0 0 1 0 2.514m-.39-4.994-1.945.466q-.26-1.08-.677-2.087l1.847-.767q.478 1.154.775 2.388M29.644 7.64 27.94 8.686a14 14 0 0 0-1.293-1.778l1.52-1.3a16 16 0 0 1 1.477 2.031m-3.253-3.806-1.3 1.52a14 14 0 0 0-1.777-1.293l1.047-1.704q1.076.661 2.03 1.477m-4.266-2.619-.767 1.848a14 14 0 0 0-2.087-.678l.466-1.945c.822.196 1.62.457 2.388.775M17.257.05l-.155 1.994a14 14 0 0 0-2.204 0L14.743.049a16 16 0 0 1 2.514 0m-4.994.39.466 1.945q-1.08.26-2.087.678l-.767-1.848A16 16 0 0 1 12.263.44M7.64 2.356 8.686 4.06a14 14 0 0 0-1.778 1.293l-1.3-1.52A16 16 0 0 1 7.64 2.356M3.833 5.609l1.52 1.3A14 14 0 0 0 4.06 8.685L2.356 7.639q.661-1.076 1.477-2.03M1.214 9.875l1.848.767a14 14 0 0 0-.678 2.087l-1.945-.466c.196-.822.457-1.62.775-2.388M.05 14.743a16 16 0 0 0 0 2.514l1.994-.155a14 14 0 0 1 0-2.204zm.39 4.994 1.945-.466q.26 1.08.678 2.087l-1.848.767a16 16 0 0 1-.775-2.388m1.917 4.624 1.704-1.047q.579.941 1.293 1.778l-1.52 1.3a16 16 0 0 1-1.477-2.031m3.253 3.806 1.3-1.52q.835.714 1.777 1.293l-1.047 1.704a16 16 0 0 1-2.03-1.477m4.266 2.619.767-1.848q1.007.42 2.087.678l-.466 1.945a16 16 0 0 1-2.388-.775m4.868 1.165.155-1.994a14 14 0 0 0 2.204 0l.155 1.994a16 16 0 0 1-2.514 0m4.994-.39-.466-1.945q1.08-.26 2.087-.677l.767 1.847a16 16 0 0 1-2.388.775m4.624-1.917-1.047-1.704q.941-.579 1.778-1.293l1.3 1.52a16 16 0 0 1-2.031 1.477m3.806-3.253-1.52-1.3a14 14 0 0 0 1.293-1.777l1.704 1.047q-.661 1.076-1.477 2.03m2.619-4.266-1.848-.767q.42-1.007.678-2.087l1.945.466a16 16 0 0 1-.775 2.388" clip-rule="evenodd"/><g clip-path="url(#ukyxz__circleClip)"><g style="transform:scale(.8125);transform-origin:50% 50%"><g clip-path="url(#ukyxz__a2juo__clip0_294_317)"><path fill="#fff" d="M15.99 30.87c8.146 0 14.75-6.604 14.75-14.75S24.136 1.37 15.99 1.37 1.24 7.974 1.24 16.12s6.604 14.75 14.75 14.75"/><path fill="#35775D" fill-rule="evenodd" d="M16 32C7.16 32 0 24.84 0 16S7.16 0 16 0s16 7.16 16 16-7.16 16-16 16m8.78-21.5-.8.81c.64 1.01.83 2.28.4 3.49-.73 2.06-2.98 3.15-5.02 2.41-.29-.11-.56-.24-.8-.41L16 19.39l-2.23-2.28c-1.06.72-2.4.89-3.61.46a4.087 4.087 0 0 1-2.43-5.22c.11-.33.27-.63.45-.9l-.96-.98-.18.31a10.7 10.7 0 0 0-1.54 5.54c-.02 5.87 4.7 10.67 10.48 10.67H16c5.78 0 10.48-4.76 10.5-10.63 0-1.95-.53-3.86-1.52-5.54l-.2-.33zM9.37 12.65c-.28.38-.44.85-.44 1.32 0 1.19.96 2.17 2.14 2.17.49 0 .94-.16 1.31-.46zm10.5 2.85c.34.24.74.37 1.2.37 1.18 0 2.14-.98 2.14-2.17 0-.44-.13-.86-.36-1.21l-2.97 3.02zm-3.83 2.28 8.56-8.65-.33-.37a11.2 11.2 0 0 0-8.34-3.77h-.02c-3.14 0-6.06 1.29-8.2 3.59l-.34.37zM8.79 8.95c1.9-1.88 4.47-2.94 7.15-2.92h.02c2.72 0 5.33 1.12 7.25 3.07l-7.16 7.23L8.8 8.95z" clip-rule="evenodd"/></g><defs><clipPath id="ukyxz__a2juo__clip0_294_317"><path fill="#fff" d="M0 0h32v32H0z"/></clipPath></defs></g></g><defs><linearGradient id="ukyxz__paint0_linear_42_5" x1="26.976" x2="6.592" y1="4.32" y2="28.352" gradientUnits="userSpaceOnUse"><stop stop-color="#B6509E"/><stop offset="1" stop-color="#2EBAC6"/></linearGradient><clipPath id="ukyxz__circleClip"><circle cx="16" cy="16" r="13"/></clipPath></defs></svg>