<svg width="32" height="32" fill="none" viewBox="0 0 32 32" xmlns="http://www.w3.org/2000/svg"><path fill="#9896FF" fill-rule="evenodd" d="m31.951 17.257-1.994-.155a14 14 0 0 0 0-2.204l1.994-.155a16 16 0 0 1 0 2.514m-.39-4.994-1.945.466q-.26-1.08-.677-2.087l1.847-.767q.478 1.154.775 2.388M29.644 7.64 27.94 8.686a14 14 0 0 0-1.293-1.778l1.52-1.3a16 16 0 0 1 1.477 2.031m-3.253-3.806-1.3 1.52a14 14 0 0 0-1.777-1.293l1.047-1.704q1.076.661 2.03 1.477m-4.266-2.619-.767 1.848a14 14 0 0 0-2.087-.678l.466-1.945c.822.196 1.62.457 2.388.775M17.257.05l-.155 1.994a14 14 0 0 0-2.204 0L14.743.049a16 16 0 0 1 2.514 0m-4.994.39.466 1.945q-1.08.26-2.087.678l-.767-1.848A16 16 0 0 1 12.263.44M7.64 2.356 8.686 4.06a14 14 0 0 0-1.778 1.293l-1.3-1.52A16 16 0 0 1 7.64 2.356M3.833 5.609l1.52 1.3A14 14 0 0 0 4.06 8.685L2.356 7.639q.661-1.076 1.477-2.03M1.214 9.875l1.848.767a14 14 0 0 0-.678 2.087l-1.945-.466c.196-.822.457-1.62.775-2.388M.05 14.743a16 16 0 0 0 0 2.514l1.994-.155a14 14 0 0 1 0-2.204zm.39 4.994 1.945-.466q.26 1.08.678 2.087l-1.848.767a16 16 0 0 1-.775-2.388m1.917 4.624 1.704-1.047q.579.941 1.293 1.778l-1.52 1.3a16 16 0 0 1-1.477-2.031m3.253 3.806 1.3-1.52q.835.714 1.777 1.293l-1.047 1.704a16 16 0 0 1-2.03-1.477m4.266 2.619.767-1.848q1.007.42 2.087.678l-.466 1.945a16 16 0 0 1-2.388-.775m4.868 1.165.155-1.994a14 14 0 0 0 2.204 0l.155 1.994a16 16 0 0 1-2.514 0m4.994-.39-.466-1.945q1.08-.26 2.087-.677l.767 1.847a16 16 0 0 1-2.388.775m4.624-1.917-1.047-1.704q.941-.579 1.778-1.293l1.3 1.52a16 16 0 0 1-2.031 1.477m3.806-3.253-1.52-1.3a14 14 0 0 0 1.293-1.777l1.704 1.047q-.661 1.076-1.477 2.03m2.619-4.266-1.848-.767q.42-1.007.678-2.087l1.945.466a16 16 0 0 1-.775 2.388" clip-rule="evenodd"/><g clip-path="url(#stataren__circleClip)"><g style="transform:scale(.8125);transform-origin:50% 50%"><g clip-path="url(#stataren__republictoken__clip0_298_750)"><path fill="#183055" d="M16 32c8.837 0 16-7.163 16-16S24.837 0 16 0 0 7.163 0 16s7.163 16 16 16"/><path fill="#fff" d="m9.53 9.84 1.56-.9.21.36 5.76-3.32-.42-.24-.42-.25-.21-.12-9.38 5.42v.24l2.69-1.56.21.36zm0 3.41 4.51-2.61.21.37 5.76-3.32-.42-.25-.63-.36L6.64 14.2v.24l2.69-1.56.21.37zm0 1.7 5.99-3.46.21.36 5.76-3.33-.42-.24-.42-.25-.21-.12-13.8 7.97v.25l2.69-1.56.21.37zm0 1.7 7.5-4.33.21.36 5.71-3.3-.42-.25-.63-.36-15.27 8.82v.24l2.69-1.56.21.37zm0 1.7 8.98-5.18.21.37 5.71-3.3-.42-.24-.42-.25-.21-.12L6.63 19.3v.24l2.69-1.55zm15.53-7.74-.21-.12L6.63 21.02v.24l2.69-1.55.21.36 8.98-5.18.21.36 6.66-3.84v-.61l-.32-.18zM7.78 22.28l1.51-.87.21.36 8.96-5.17.21.37 6.7-3.87v-1.22L7.57 22.16zm10.68-3.97.21.37 6.7-3.87v-1.22L9.04 23.02l.21.12 1.53-.89.21.37m-.26 1.37 1.53-.89.21.37 5.98-3.46.21.37 6.7-3.87v-1.22L10.5 23.87l.21.12zm1.48.85 1.53-.89.21.36 4.51-2.6.21.36 6.7-3.87v-1.21l-13.38 7.73.21.12zm1.26.73.21.12 1.54-.89.21.37 3.03-1.76.21.37 6.7-3.87v-1.22l-11.9 6.87zm1.69.97 1.53-.89.21.37 1.56-.91.21.37 6.7-3.87v-1.22l-10.43 6.02.21.12zm3.37-19.71-.84-.48-.21-.13-10.85 6.27v.24l2.69-1.55.21.36 3.04-1.75.21.37 5.75-3.32z"/></g><defs><clipPath id="stataren__republictoken__clip0_298_750"><path fill="#fff" d="M0 0h32v32H0z"/></clipPath></defs></g></g><defs><clipPath id="stataren__circleClip"><circle cx="16" cy="16" r="13"/></clipPath></defs></svg>