<svg xmlns="http://www.w3.org/2000/svg" fill="none" viewBox="0 0 32 32"><path fill="url(#stataoseth__paint0_linear_42_5)" fill-rule="evenodd" d="m31.951 17.257-1.994-.155a14 14 0 0 0 0-2.204l1.994-.155a16 16 0 0 1 0 2.514m-.39-4.994-1.945.466q-.26-1.08-.677-2.087l1.847-.767q.478 1.154.775 2.388M29.644 7.64 27.94 8.686a14 14 0 0 0-1.293-1.778l1.52-1.3a16 16 0 0 1 1.477 2.031m-3.253-3.806-1.3 1.52a14 14 0 0 0-1.777-1.293l1.047-1.704q1.076.661 2.03 1.477m-4.266-2.619-.767 1.848a14 14 0 0 0-2.087-.678l.466-1.945c.822.196 1.62.457 2.388.775M17.257.05l-.155 1.994a14 14 0 0 0-2.204 0L14.743.049a16 16 0 0 1 2.514 0m-4.994.39.466 1.945q-1.08.26-2.087.678l-.767-1.848A16 16 0 0 1 12.263.44M7.64 2.356 8.686 4.06a14 14 0 0 0-1.778 1.293l-1.3-1.52A16 16 0 0 1 7.64 2.356M3.833 5.609l1.52 1.3A14 14 0 0 0 4.06 8.685L2.356 7.639q.661-1.076 1.477-2.03M1.214 9.875l1.848.767a14 14 0 0 0-.678 2.087l-1.945-.466c.196-.822.457-1.62.775-2.388M.05 14.743a16 16 0 0 0 0 2.514l1.994-.155a14 14 0 0 1 0-2.204zm.39 4.994 1.945-.466q.26 1.08.678 2.087l-1.848.767a16 16 0 0 1-.775-2.388m1.917 4.624 1.704-1.047q.579.941 1.293 1.778l-1.52 1.3a16 16 0 0 1-1.477-2.031m3.253 3.806 1.3-1.52q.835.714 1.777 1.293l-1.047 1.704a16 16 0 0 1-2.03-1.477m4.266 2.619.767-1.848q1.007.42 2.087.678l-.466 1.945a16 16 0 0 1-2.388-.775m4.868 1.165.155-1.994a14 14 0 0 0 2.204 0l.155 1.994a16 16 0 0 1-2.514 0m4.994-.39-.466-1.945q1.08-.26 2.087-.677l.767 1.847a16 16 0 0 1-2.388.775m4.624-1.917-1.047-1.704q.941-.579 1.778-1.293l1.3 1.52a16 16 0 0 1-2.031 1.477m3.806-3.253-1.52-1.3a14 14 0 0 0 1.293-1.777l1.704 1.047q-.661 1.076-1.477 2.03m2.619-4.266-1.848-.767q.42-1.007.678-2.087l1.945.466a16 16 0 0 1-.775 2.388" clip-rule="evenodd"/><g clip-path="url(#stataoseth__circleClip)"><g style="transform:scale(.8125);transform-origin:50% 50%"><g clip-path="url(#stataoseth__stakedeth__clip0_298_1033)"><path fill="#fff" d="M16 32c8.837 0 16-7.163 16-16S24.837 0 16 0 0 7.163 0 16s7.163 16 16 16"/><path fill="url(#stataoseth__stakedeth__paint0_linear_298_1033)" d="m16.21 18.09 10.87 5.32-10.87 5.55z"/><path fill="url(#stataoseth__stakedeth__paint1_linear_298_1033)" d="m22.6 14.9 4.49 8.52-10.87-5.32 6.39-3.19z"/><path fill="url(#stataoseth__stakedeth__paint2_linear_298_1033)" d="M16.21 18.09V2.66L9.82 14.9z"/><path fill="url(#stataoseth__stakedeth__paint3_linear_298_1033)" d="M16.21 18.09V2.66L22.6 14.9z"/><path fill="url(#stataoseth__stakedeth__paint4_linear_298_1033)" d="M16.21 28.97 5.34 23.42l10.87-5.32z"/><path fill="url(#stataoseth__stakedeth__paint5_linear_298_1033)" d="m9.83 14.9 6.39 3.19-10.87 5.32 4.49-8.52z"/></g><defs><linearGradient id="stataoseth__stakedeth__paint0_linear_298_1033" x1="20.75" x2="22.83" y1="24.15" y2="28.87" gradientUnits="userSpaceOnUse"><stop stop-color="#5C76E5"/><stop offset="1" stop-color="#8AA4F7"/></linearGradient><linearGradient id="stataoseth__stakedeth__paint1_linear_298_1033" x1="21.41" x2="29.9" y1="21.03" y2="11.67" gradientUnits="userSpaceOnUse"><stop stop-color="#5DB2F8"/><stop offset="1" stop-color="#6462F3"/></linearGradient><linearGradient id="stataoseth__stakedeth__paint2_linear_298_1033" x1="17.65" x2="12.05" y1="10.38" y2="10.38" gradientUnits="userSpaceOnUse"><stop stop-color="#675CF1"/><stop offset="1" stop-color="#5D97F5"/></linearGradient><linearGradient id="stataoseth__stakedeth__paint3_linear_298_1033" x1="18.07" x2="22.06" y1="12.11" y2="15.87" gradientUnits="userSpaceOnUse"><stop stop-color="#5C76E5"/><stop offset="1" stop-color="#8AA4F7"/></linearGradient><linearGradient id="stataoseth__stakedeth__paint4_linear_298_1033" x1="7.91" x2="19.02" y1="19.35" y2="24.95" gradientUnits="userSpaceOnUse"><stop stop-color="#6CC3F9"/><stop offset="1" stop-color="#13234D"/></linearGradient><linearGradient id="stataoseth__stakedeth__paint5_linear_298_1033" x1="10.96" x2="12.16" y1="20.2" y2="16.61" gradientUnits="userSpaceOnUse"><stop stop-color="#66ADE4"/><stop offset="1" stop-color="#707E98"/></linearGradient><clipPath id="stataoseth__stakedeth__clip0_298_1033"><path fill="#fff" d="M0 0h32v32H0z"/></clipPath></defs></g></g><defs><linearGradient id="stataoseth__paint0_linear_42_5" x1="26.976" x2="6.592" y1="4.32" y2="28.352" gradientUnits="userSpaceOnUse"><stop stop-color="#B6509E"/><stop offset="1" stop-color="#2EBAC6"/></linearGradient><clipPath id="stataoseth__circleClip"><circle cx="16" cy="16" r="13"/></clipPath></defs></svg>