<svg xmlns="http://www.w3.org/2000/svg" fill="none" viewBox="0 0 32 32"><path fill="url(#stataweeth__paint0_linear_42_5)" fill-rule="evenodd" d="m31.951 17.257-1.994-.155a14 14 0 0 0 0-2.204l1.994-.155a16 16 0 0 1 0 2.514m-.39-4.994-1.945.466q-.26-1.08-.677-2.087l1.847-.767q.478 1.154.775 2.388M29.644 7.64 27.94 8.686a14 14 0 0 0-1.293-1.778l1.52-1.3a16 16 0 0 1 1.477 2.031m-3.253-3.806-1.3 1.52a14 14 0 0 0-1.777-1.293l1.047-1.704q1.076.661 2.03 1.477m-4.266-2.619-.767 1.848a14 14 0 0 0-2.087-.678l.466-1.945c.822.196 1.62.457 2.388.775M17.257.05l-.155 1.994a14 14 0 0 0-2.204 0L14.743.049a16 16 0 0 1 2.514 0m-4.994.39.466 1.945q-1.08.26-2.087.678l-.767-1.848A16 16 0 0 1 12.263.44M7.64 2.356 8.686 4.06a14 14 0 0 0-1.778 1.293l-1.3-1.52A16 16 0 0 1 7.64 2.356M3.833 5.609l1.52 1.3A14 14 0 0 0 4.06 8.685L2.356 7.639q.661-1.076 1.477-2.03M1.214 9.875l1.848.767a14 14 0 0 0-.678 2.087l-1.945-.466c.196-.822.457-1.62.775-2.388M.05 14.743a16 16 0 0 0 0 2.514l1.994-.155a14 14 0 0 1 0-2.204zm.39 4.994 1.945-.466q.26 1.08.678 2.087l-1.848.767a16 16 0 0 1-.775-2.388m1.917 4.624 1.704-1.047q.579.941 1.293 1.778l-1.52 1.3a16 16 0 0 1-1.477-2.031m3.253 3.806 1.3-1.52q.835.714 1.777 1.293l-1.047 1.704a16 16 0 0 1-2.03-1.477m4.266 2.619.767-1.848q1.007.42 2.087.678l-.466 1.945a16 16 0 0 1-2.388-.775m4.868 1.165.155-1.994a14 14 0 0 0 2.204 0l.155 1.994a16 16 0 0 1-2.514 0m4.994-.39-.466-1.945q1.08-.26 2.087-.677l.767 1.847a16 16 0 0 1-2.388.775m4.624-1.917-1.047-1.704q.941-.579 1.778-1.293l1.3 1.52a16 16 0 0 1-2.031 1.477m3.806-3.253-1.52-1.3a14 14 0 0 0 1.293-1.777l1.704 1.047q-.661 1.076-1.477 2.03m2.619-4.266-1.848-.767q.42-1.007.678-2.087l1.945.466a16 16 0 0 1-.775 2.388" clip-rule="evenodd"/><g clip-path="url(#stataweeth__circleClip)"><g style="transform:scale(.8125);transform-origin:50% 50%"><g clip-path="url(#stataweeth__wrappedeeth__clip0_298_800)"><path fill="url(#stataweeth__wrappedeeth__paint0_linear_298_800)" d="M16 0c8.84 0 16 7.16 16 16s-7.16 16-16 16S0 24.84 0 16C0 7.17 7.16 0 16 0"/><path fill="url(#stataweeth__wrappedeeth__paint1_linear_298_800)" fill-rule="evenodd" d="M23.68 23.39c.02.12-.04.24-.14.31l-7.41 4.57c-.1.06-.23.06-.33 0l-7.35-4.51a.32.32 0 0 1-.15-.29v-5.69c-.01-.17.12-.32.29-.33.06 0 .12.01.18.04l7.22 4.19 7.16-4.15.04-.02c.05-.04.12-.06.19-.06.17 0 .31.14.31.31v5.63zm-14.76-.45 2.14-1.29-2.14-2.94zm2.5-.79c-.59.36-2.22 1.34-2.22 1.34l5.75 3.53-3.54-4.87zm5.64 4.81 5.71-3.52-2.21-1.33-3.51 4.85zm3.87-5.36 2.13 1.28v-4.23zm-5.1.7-6.11-3.54 6.26 8.62 6.21-8.59-6.05 3.51a.29.29 0 0 1-.31 0M8.6 16.28c-.17 0-.3-.14-.3-.31V8.59c-.02-.13.04-.25.14-.32l7.41-4.55c.1-.06.22-.06.32 0l7.35 4.49c.09.06.15.16.15.27v7.45c0 .13-.08.24-.2.29l-7.35 4.04c-.09.05-.21.05-.3 0l-7.24-3.98zm.32-7.2v5.9l2.64-4.31zm14.14-.06-2.67 1.61 2.67 4.35zm-2.99 1.08 2.71-1.63-5.93-3.62zm-4.98-5.18L9.21 8.53l2.68 1.61zM9.11 15.85l6.87 3.78 6.87-3.78-6.87-11.2z" clip-rule="evenodd"/><path fill="#10046B" fill-rule="evenodd" d="M23.68 23.39c.02.12-.04.24-.14.31l-7.41 4.57c-.1.06-.23.06-.33 0l-7.35-4.51a.32.32 0 0 1-.15-.29v-5.69c-.01-.17.12-.32.29-.33.06 0 .12.01.18.04l7.22 4.19 7.16-4.15.04-.02c.05-.04.12-.06.19-.06.17 0 .31.14.31.31v5.63zm-14.76-.45 2.14-1.29-2.14-2.94zm2.5-.79c-.59.36-2.22 1.34-2.22 1.34l5.75 3.53-3.54-4.87zm5.64 4.81 5.71-3.52-2.21-1.33-3.51 4.85zm3.87-5.36 2.13 1.28v-4.23zm-5.1.7-6.11-3.54 6.26 8.62 6.21-8.59-6.05 3.51a.29.29 0 0 1-.31 0M8.6 16.28c-.17 0-.3-.14-.3-.31V8.59c-.02-.13.04-.25.14-.32l7.41-4.55c.1-.06.22-.06.32 0l7.35 4.49c.09.06.15.16.15.27v7.45c0 .13-.08.24-.2.29l-7.35 4.04c-.09.05-.21.05-.3 0l-7.24-3.98zm.32-7.2v5.9l2.64-4.31zm14.14-.06-2.67 1.61 2.67 4.35zm-2.99 1.08 2.71-1.63-5.93-3.62zm-4.98-5.18L9.21 8.53l2.68 1.61zM9.11 15.85l6.87 3.78 6.87-3.78-6.87-11.2z" clip-rule="evenodd"/><path stroke="#10046B" stroke-width=".75" d="M16 30.76c8.152 0 14.76-6.608 14.76-14.76S24.152 1.24 16 1.24 1.24 7.848 1.24 16 7.848 30.76 16 30.76Z"/></g><defs><linearGradient id="stataweeth__wrappedeeth__paint0_linear_298_800" x1="2.21" x2="29.93" y1="21.01" y2="10.94" gradientUnits="userSpaceOnUse"><stop stop-color="#5CB8F3"/><stop offset=".43" stop-color="#6464DB"/><stop offset="1" stop-color="#A75FF1"/></linearGradient><linearGradient id="stataweeth__wrappedeeth__paint1_linear_298_800" x1="11.88" x2="19.54" y1="26.29" y2="7.04" gradientUnits="userSpaceOnUse"><stop stop-color="#5CB8F3"/><stop offset=".43" stop-color="#6464DB"/><stop offset="1" stop-color="#A75FF1"/></linearGradient><clipPath id="stataweeth__wrappedeeth__clip0_298_800"><path fill="#fff" d="M0 0h32v32H0z"/></clipPath></defs></g></g><defs><linearGradient id="stataweeth__paint0_linear_42_5" x1="26.976" x2="6.592" y1="4.32" y2="28.352" gradientUnits="userSpaceOnUse"><stop stop-color="#B6509E"/><stop offset="1" stop-color="#2EBAC6"/></linearGradient><clipPath id="stataweeth__circleClip"><circle cx="16" cy="16" r="13"/></clipPath></defs></svg>