<svg xmlns="http://www.w3.org/2000/svg" width="32" height="32" fill="none" viewBox="0 0 32 32"><path fill="url(#rueyh__paint0_linear_42_5)" fill-rule="evenodd" d="m31.951 17.257-1.994-.155a14 14 0 0 0 0-2.204l1.994-.155a16 16 0 0 1 0 2.514m-.39-4.994-1.945.466q-.26-1.08-.677-2.087l1.847-.767q.478 1.154.775 2.388M29.644 7.64 27.94 8.686a14 14 0 0 0-1.293-1.778l1.52-1.3a16 16 0 0 1 1.477 2.031m-3.253-3.806-1.3 1.52a14 14 0 0 0-1.777-1.293l1.047-1.704q1.076.661 2.03 1.477m-4.266-2.619-.767 1.848a14 14 0 0 0-2.087-.678l.466-1.945c.822.196 1.62.457 2.388.775M17.257.05l-.155 1.994a14 14 0 0 0-2.204 0L14.743.049a16 16 0 0 1 2.514 0m-4.994.39.466 1.945q-1.08.26-2.087.678l-.767-1.848A16 16 0 0 1 12.263.44M7.64 2.356 8.686 4.06a14 14 0 0 0-1.778 1.293l-1.3-1.52A16 16 0 0 1 7.64 2.356M3.833 5.609l1.52 1.3A14 14 0 0 0 4.06 8.685L2.356 7.639q.661-1.076 1.477-2.03M1.214 9.875l1.848.767a14 14 0 0 0-.678 2.087l-1.945-.466c.196-.822.457-1.62.775-2.388M.05 14.743a16 16 0 0 0 0 2.514l1.994-.155a14 14 0 0 1 0-2.204zm.39 4.994 1.945-.466q.26 1.08.678 2.087l-1.848.767a16 16 0 0 1-.775-2.388m1.917 4.624 1.704-1.047q.579.941 1.293 1.778l-1.52 1.3a16 16 0 0 1-1.477-2.031m3.253 3.806 1.3-1.52q.835.714 1.777 1.293l-1.047 1.704a16 16 0 0 1-2.03-1.477m4.266 2.619.767-1.848q1.007.42 2.087.678l-.466 1.945a16 16 0 0 1-2.388-.775m4.868 1.165.155-1.994a14 14 0 0 0 2.204 0l.155 1.994a16 16 0 0 1-2.514 0m4.994-.39-.466-1.945q1.08-.26 2.087-.677l.767 1.847a16 16 0 0 1-2.388.775m4.624-1.917-1.047-1.704q.941-.579 1.778-1.293l1.3 1.52a16 16 0 0 1-2.031 1.477m3.806-3.253-1.52-1.3a14 14 0 0 0 1.293-1.777l1.704 1.047q-.661 1.076-1.477 2.03m2.619-4.266-1.848-.767q.42-1.007.678-2.087l1.945.466a16 16 0 0 1-.775 2.388" clip-rule="evenodd"/><g clip-path="url(#rueyh__circleClip)"><g style="transform:scale(.8125);transform-origin:50% 50%"><g clip-path="url(#rueyh__ca79r__clip0_298_392)"><path fill="url(#rueyh__ca79r__paint0_linear_298_392)" d="M16 32c8.84 0 16-7.16 16-16S24.83 0 16 0 0 7.16 0 16s7.16 16 16 16"/><path fill="#fff" d="M23.59 13.36c-1.05-2.9-3.86-4.89-7.56-4.89h-6.1v4.89H7.81v1.75h2.12v1.84H7.81v1.75h2.12v4.83h6.1c3.66 0 6.45-1.97 7.53-4.83h1.94v-1.75h-1.51c.04-.31.06-.63.06-.95v-.04c0-.29-.02-.57-.04-.85h1.5v-1.75zm-11.95-3.33h4.39c2.72 0 4.74 1.34 5.67 3.32H11.64zm4.38 11.93h-4.39V18.7h10.05c-.94 1.95-2.95 3.26-5.66 3.26m6.25-5.92c0 .3-.02.61-.06.91H11.64v-1.84h10.58c.04.3.06.59.06.89v.04z"/></g><defs><linearGradient id="rueyh__ca79r__paint0_linear_298_392" x1="15.99" x2="15.99" y1="0" y2="32" gradientUnits="userSpaceOnUse"><stop stop-color="#91BE5C"/><stop offset="1" stop-color="#6DAE5C"/></linearGradient><clipPath id="rueyh__ca79r__clip0_298_392"><path fill="#fff" d="M0 0h32v32H0z"/></clipPath></defs></g></g><defs><linearGradient id="rueyh__paint0_linear_42_5" x1="26.976" x2="6.592" y1="4.32" y2="28.352" gradientUnits="userSpaceOnUse"><stop stop-color="#B6509E"/><stop offset="1" stop-color="#2EBAC6"/></linearGradient><clipPath id="rueyh__circleClip"><circle cx="16" cy="16" r="13"/></clipPath></defs></svg>