<svg width="32" height="32" fill="none" viewBox="0 0 32 32" xmlns="http://www.w3.org/2000/svg"><path fill="url(#statacbbtc__paint0_linear_42_5)" fill-rule="evenodd" d="m31.951 17.257-1.994-.155a14 14 0 0 0 0-2.204l1.994-.155a16 16 0 0 1 0 2.514m-.39-4.994-1.945.466q-.26-1.08-.677-2.087l1.847-.767q.478 1.154.775 2.388M29.644 7.64 27.94 8.686a14 14 0 0 0-1.293-1.778l1.52-1.3a16 16 0 0 1 1.477 2.031m-3.253-3.806-1.3 1.52a14 14 0 0 0-1.777-1.293l1.047-1.704q1.076.661 2.03 1.477m-4.266-2.619-.767 1.848a14 14 0 0 0-2.087-.678l.466-1.945c.822.196 1.62.457 2.388.775M17.257.05l-.155 1.994a14 14 0 0 0-2.204 0L14.743.049a16 16 0 0 1 2.514 0m-4.994.39.466 1.945q-1.08.26-2.087.678l-.767-1.848A16 16 0 0 1 12.263.44M7.64 2.356 8.686 4.06a14 14 0 0 0-1.778 1.293l-1.3-1.52A16 16 0 0 1 7.64 2.356M3.833 5.609l1.52 1.3A14 14 0 0 0 4.06 8.685L2.356 7.639q.661-1.076 1.477-2.03M1.214 9.875l1.848.767a14 14 0 0 0-.678 2.087l-1.945-.466c.196-.822.457-1.62.775-2.388M.05 14.743a16 16 0 0 0 0 2.514l1.994-.155a14 14 0 0 1 0-2.204zm.39 4.994 1.945-.466q.26 1.08.678 2.087l-1.848.767a16 16 0 0 1-.775-2.388m1.917 4.624 1.704-1.047q.579.941 1.293 1.778l-1.52 1.3a16 16 0 0 1-1.477-2.031m3.253 3.806 1.3-1.52q.835.714 1.777 1.293l-1.047 1.704a16 16 0 0 1-2.03-1.477m4.266 2.619.767-1.848q1.007.42 2.087.678l-.466 1.945a16 16 0 0 1-2.388-.775m4.868 1.165.155-1.994a14 14 0 0 0 2.204 0l.155 1.994a16 16 0 0 1-2.514 0m4.994-.39-.466-1.945q1.08-.26 2.087-.677l.767 1.847a16 16 0 0 1-2.388.775m4.624-1.917-1.047-1.704q.941-.579 1.778-1.293l1.3 1.52a16 16 0 0 1-2.031 1.477m3.806-3.253-1.52-1.3a14 14 0 0 0 1.293-1.777l1.704 1.047q-.661 1.076-1.477 2.03m2.619-4.266-1.848-.767q.42-1.007.678-2.087l1.945.466a16 16 0 0 1-.775 2.388" clip-rule="evenodd"/><g clip-path="url(#statacbbtc__circleClip)"><g style="transform:scale(.8125);transform-origin:50% 50%"><path fill="#2151F4" d="M16 0c8.84 0 16 7.16 16 16s-7.16 16-16 16S0 24.84 0 16 7.16 0 16 0"/><path fill="#fff" d="M16 21.62c-3.11 0-5.62-2.52-5.62-5.62s2.52-5.62 5.62-5.62c2.78 0 5.1 2.03 5.54 4.69h5.67C26.73 9.3 21.9 4.76 16 4.76 9.79 4.76 4.75 9.8 4.75 16.01S9.79 27.26 16 27.26s10.73-4.54 11.21-10.31h-5.67c-.45 2.66-2.75 4.69-5.54 4.69z"/><path fill="#F7931A" d="M23.55 17.89a7.794 7.794 0 0 1-9.45 5.68 7.794 7.794 0 0 1-5.68-9.45 7.794 7.794 0 0 1 9.45-5.68 7.794 7.794 0 0 1 5.68 9.45"/><path fill="#fff" d="M19.42 14.89c.16-1.04-.63-1.6-1.72-1.97l.35-1.41-.86-.21-.34 1.37c-.22-.06-.46-.11-.69-.16l.34-1.38-.86-.21-.35 1.41a9 9 0 0 1-.55-.13l-1.18-.3-.23.91s.63.15.62.15c.35.09.41.32.4.5l-.4 1.6s.05.01.09.03c-.03 0-.06-.01-.09-.02l-.56 2.24c-.04.11-.15.26-.39.2 0 .01-.62-.16-.62-.16l-.42.98 1.11.28c.21.05.41.11.61.16l-.35 1.42.85.21.35-1.41c.23.06.46.12.68.18l-.35 1.4.86.21.35-1.42c1.46.28 2.56.16 3.02-1.16.37-1.06-.02-1.68-.79-2.08.56-.13.98-.5 1.09-1.26zm-1.96 2.74c-.26 1.06-2.05.49-2.63.34l.47-1.88c.58.14 2.44.43 2.16 1.54m.27-2.76c-.24.97-1.73.48-2.21.36l.43-1.71c.48.12 2.04.35 1.79 1.35z"/></g></g><defs><linearGradient id="statacbbtc__paint0_linear_42_5" x1="26.976" x2="6.592" y1="4.32" y2="28.352" gradientUnits="userSpaceOnUse"><stop stop-color="#B6509E"/><stop offset="1" stop-color="#2EBAC6"/></linearGradient><clipPath id="statacbbtc__circleClip"><circle cx="16" cy="16" r="13"/></clipPath></defs></svg>