<svg width="32" height="32" fill="none" viewBox="0 0 32 32" xmlns="http://www.w3.org/2000/svg"><path fill="url(#stataone__paint0_linear_42_5)" fill-rule="evenodd" d="m31.951 17.257-1.994-.155a14 14 0 0 0 0-2.204l1.994-.155a16 16 0 0 1 0 2.514m-.39-4.994-1.945.466q-.26-1.08-.677-2.087l1.847-.767q.478 1.154.775 2.388M29.644 7.64 27.94 8.686a14 14 0 0 0-1.293-1.778l1.52-1.3a16 16 0 0 1 1.477 2.031m-3.253-3.806-1.3 1.52a14 14 0 0 0-1.777-1.293l1.047-1.704q1.076.661 2.03 1.477m-4.266-2.619-.767 1.848a14 14 0 0 0-2.087-.678l.466-1.945c.822.196 1.62.457 2.388.775M17.257.05l-.155 1.994a14 14 0 0 0-2.204 0L14.743.049a16 16 0 0 1 2.514 0m-4.994.39.466 1.945q-1.08.26-2.087.678l-.767-1.848A16 16 0 0 1 12.263.44M7.64 2.356 8.686 4.06a14 14 0 0 0-1.778 1.293l-1.3-1.52A16 16 0 0 1 7.64 2.356M3.833 5.609l1.52 1.3A14 14 0 0 0 4.06 8.685L2.356 7.639q.661-1.076 1.477-2.03M1.214 9.875l1.848.767a14 14 0 0 0-.678 2.087l-1.945-.466c.196-.822.457-1.62.775-2.388M.05 14.743a16 16 0 0 0 0 2.514l1.994-.155a14 14 0 0 1 0-2.204zm.39 4.994 1.945-.466q.26 1.08.678 2.087l-1.848.767a16 16 0 0 1-.775-2.388m1.917 4.624 1.704-1.047q.579.941 1.293 1.778l-1.52 1.3a16 16 0 0 1-1.477-2.031m3.253 3.806 1.3-1.52q.835.714 1.777 1.293l-1.047 1.704a16 16 0 0 1-2.03-1.477m4.266 2.619.767-1.848q1.007.42 2.087.678l-.466 1.945a16 16 0 0 1-2.388-.775m4.868 1.165.155-1.994a14 14 0 0 0 2.204 0l.155 1.994a16 16 0 0 1-2.514 0m4.994-.39-.466-1.945q1.08-.26 2.087-.677l.767 1.847a16 16 0 0 1-2.388.775m4.624-1.917-1.047-1.704q.941-.579 1.778-1.293l1.3 1.52a16 16 0 0 1-2.031 1.477m3.806-3.253-1.52-1.3a14 14 0 0 0 1.293-1.777l1.704 1.047q-.661 1.076-1.477 2.03m2.619-4.266-1.848-.767q.42-1.007.678-2.087l1.945.466a16 16 0 0 1-.775 2.388" clip-rule="evenodd"/><g clip-path="url(#stataone__circleClip)"><g style="transform:scale(.8125);transform-origin:50% 50%"><g clip-path="url(#stataone__harmony__clip0_298_376)"><path fill="#fff" d="M16 32c8.837 0 16-7.163 16-16S24.837 0 16 0 0 7.163 0 16s7.163 16 16 16"/><path fill="url(#stataone__harmony__paint0_linear_298_376)" d="M22.17 5.2c-2.55 0-4.63 2.09-4.7 4.64v5.18c-.47 0-.94.07-1.48.07s-1.01 0-1.48.07V9.85c0-2.56-2.15-4.64-4.76-4.57-2.48 0-4.49 2.09-4.56 4.57v12.38c.07 2.56 2.15 4.64 4.76 4.57 2.55-.07 4.56-2.09 4.56-4.57v-5.18c.47 0 .94-.07 1.48-.07s1.01 0 1.48-.07v5.25c.07 2.56 2.15 4.64 4.76 4.57 2.55-.07 4.56-2.09 4.56-4.57V9.85c0-2.56-2.08-4.64-4.63-4.64zM9.89 7.09c1.54 0 2.75 1.21 2.75 2.76v5.45c-1.34.2-2.68.61-3.96 1.14-.54.27-1.07.54-1.54.94V9.84c0-1.48 1.21-2.76 2.75-2.76zm2.75 15.13c0 1.55-1.21 2.76-2.75 2.76s-2.75-1.21-2.75-2.76v-1.21c0-1.08.87-2.15 2.35-2.76 1.01-.47 2.08-.74 3.22-.94zm9.53 2.76c-1.54 0-2.75-1.21-2.75-2.76v-5.45c1.34-.2 2.68-.61 3.96-1.14.54-.27 1.07-.54 1.54-.94v7.54c0 1.55-1.27 2.76-2.75 2.76zm.4-11.1c-1.01.47-2.08.74-3.22.94V9.84c0-1.55 1.21-2.76 2.75-2.76s2.75 1.21 2.75 2.76v1.21c.07 1.14-.8 2.15-2.28 2.83"/></g><defs><linearGradient id="stataone__harmony__paint0_linear_298_376" x1="21.4" x2="6.46" y1="10.62" y2="25.51" gradientUnits="userSpaceOnUse"><stop stop-color="#6AE4A6"/><stop offset="1" stop-color="#4DA9E2"/></linearGradient><clipPath id="stataone__harmony__clip0_298_376"><path fill="#fff" d="M0 0h32v32H0z"/></clipPath></defs></g></g><defs><linearGradient id="stataone__paint0_linear_42_5" x1="26.976" x2="6.592" y1="4.32" y2="28.352" gradientUnits="userSpaceOnUse"><stop stop-color="#B6509E"/><stop offset="1" stop-color="#2EBAC6"/></linearGradient><clipPath id="stataone__circleClip"><circle cx="16" cy="16" r="13"/></clipPath></defs></svg>