<svg xmlns="http://www.w3.org/2000/svg" fill="none" viewBox="0 0 32 32"><path fill="url(#statawmatic__paint0_linear_42_5)" fill-rule="evenodd" d="m31.951 17.257-1.994-.155a14 14 0 0 0 0-2.204l1.994-.155a16 16 0 0 1 0 2.514m-.39-4.994-1.945.466q-.26-1.08-.677-2.087l1.847-.767q.478 1.154.775 2.388M29.644 7.64 27.94 8.686a14 14 0 0 0-1.293-1.778l1.52-1.3a16 16 0 0 1 1.477 2.031m-3.253-3.806-1.3 1.52a14 14 0 0 0-1.777-1.293l1.047-1.704q1.076.661 2.03 1.477m-4.266-2.619-.767 1.848a14 14 0 0 0-2.087-.678l.466-1.945c.822.196 1.62.457 2.388.775M17.257.05l-.155 1.994a14 14 0 0 0-2.204 0L14.743.049a16 16 0 0 1 2.514 0m-4.994.39.466 1.945q-1.08.26-2.087.678l-.767-1.848A16 16 0 0 1 12.263.44M7.64 2.356 8.686 4.06a14 14 0 0 0-1.778 1.293l-1.3-1.52A16 16 0 0 1 7.64 2.356M3.833 5.609l1.52 1.3A14 14 0 0 0 4.06 8.685L2.356 7.639q.661-1.076 1.477-2.03M1.214 9.875l1.848.767a14 14 0 0 0-.678 2.087l-1.945-.466c.196-.822.457-1.62.775-2.388M.05 14.743a16 16 0 0 0 0 2.514l1.994-.155a14 14 0 0 1 0-2.204zm.39 4.994 1.945-.466q.26 1.08.678 2.087l-1.848.767a16 16 0 0 1-.775-2.388m1.917 4.624 1.704-1.047q.579.941 1.293 1.778l-1.52 1.3a16 16 0 0 1-1.477-2.031m3.253 3.806 1.3-1.52q.835.714 1.777 1.293l-1.047 1.704a16 16 0 0 1-2.03-1.477m4.266 2.619.767-1.848q1.007.42 2.087.678l-.466 1.945a16 16 0 0 1-2.388-.775m4.868 1.165.155-1.994a14 14 0 0 0 2.204 0l.155 1.994a16 16 0 0 1-2.514 0m4.994-.39-.466-1.945q1.08-.26 2.087-.677l.767 1.847a16 16 0 0 1-2.388.775m4.624-1.917-1.047-1.704q.941-.579 1.778-1.293l1.3 1.52a16 16 0 0 1-2.031 1.477m3.806-3.253-1.52-1.3a14 14 0 0 0 1.293-1.777l1.704 1.047q-.661 1.076-1.477 2.03m2.619-4.266-1.848-.767q.42-1.007.678-2.087l1.945.466a16 16 0 0 1-.775 2.388" clip-rule="evenodd"/><g clip-path="url(#statawmatic__circleClip)"><g style="transform:scale(.8125);transform-origin:50% 50%"><g clip-path="url(#statawmatic__wrappedmatic__clip0_297_199)"><path fill="#fff" d="M16 32c8.84 0 16-7.16 16-16S24.84 0 16 0 0 7.16 0 16s7.16 16 16 16"/><path fill="url(#statawmatic__wrappedmatic__paint0_linear_297_199)" d="m21.44 20.06 5.32-3.07c.28-.16.46-.46.46-.79v-6.14c0-.32-.17-.63-.46-.79L21.44 6.2a.92.92 0 0 0-.91 0l-5.32 3.07c-.28.16-.46.46-.46.79v10.97l-3.73 2.15-3.73-2.15v-4.3l3.73-2.15L13.48 16v-2.89l-2-1.16a.92.92 0 0 0-.91 0l-5.32 3.07c-.28.16-.46.46-.46.79v6.14c0 .32.17.63.46.79l5.32 3.07c.28.16.63.16.91 0l5.32-3.07c.28-.16.46-.46.46-.79V10.98l.07-.04 3.66-2.11 3.73 2.15v4.3l-3.73 2.15-2.46-1.42v2.89l2 1.15c.28.16.63.16.91 0z"/></g><defs><linearGradient id="statawmatic__wrappedmatic__paint0_linear_297_199" x1="6.7" x2="25.96" y1="22.78" y2="8.74" gradientUnits="userSpaceOnUse"><stop stop-color="#9932B9"/><stop offset=".88" stop-color="#773FD6"/><stop offset="1" stop-color="#7342DB"/></linearGradient><clipPath id="statawmatic__wrappedmatic__clip0_297_199"><path fill="#fff" d="M0 0h32v32H0z"/></clipPath></defs></g></g><defs><linearGradient id="statawmatic__paint0_linear_42_5" x1="26.976" x2="6.592" y1="4.32" y2="28.352" gradientUnits="userSpaceOnUse"><stop stop-color="#B6509E"/><stop offset="1" stop-color="#2EBAC6"/></linearGradient><clipPath id="statawmatic__circleClip"><circle cx="16" cy="16" r="13"/></clipPath></defs></svg>