<svg width="32" height="32" fill="none" viewBox="0 0 32 32" xmlns="http://www.w3.org/2000/svg"><path fill="#9896FF" fill-rule="evenodd" d="m31.951 17.257-1.994-.155a14 14 0 0 0 0-2.204l1.994-.155a16 16 0 0 1 0 2.514m-.39-4.994-1.945.466q-.26-1.08-.677-2.087l1.847-.767q.478 1.154.775 2.388M29.644 7.64 27.94 8.686a14 14 0 0 0-1.293-1.778l1.52-1.3a16 16 0 0 1 1.477 2.031m-3.253-3.806-1.3 1.52a14 14 0 0 0-1.777-1.293l1.047-1.704q1.076.661 2.03 1.477m-4.266-2.619-.767 1.848a14 14 0 0 0-2.087-.678l.466-1.945c.822.196 1.62.457 2.388.775M17.257.05l-.155 1.994a14 14 0 0 0-2.204 0L14.743.049a16 16 0 0 1 2.514 0m-4.994.39.466 1.945q-1.08.26-2.087.678l-.767-1.848A16 16 0 0 1 12.263.44M7.64 2.356 8.686 4.06a14 14 0 0 0-1.778 1.293l-1.3-1.52A16 16 0 0 1 7.64 2.356M3.833 5.609l1.52 1.3A14 14 0 0 0 4.06 8.685L2.356 7.639q.661-1.076 1.477-2.03M1.214 9.875l1.848.767a14 14 0 0 0-.678 2.087l-1.945-.466c.196-.822.457-1.62.775-2.388M.05 14.743a16 16 0 0 0 0 2.514l1.994-.155a14 14 0 0 1 0-2.204zm.39 4.994 1.945-.466q.26 1.08.678 2.087l-1.848.767a16 16 0 0 1-.775-2.388m1.917 4.624 1.704-1.047q.579.941 1.293 1.778l-1.52 1.3a16 16 0 0 1-1.477-2.031m3.253 3.806 1.3-1.52q.835.714 1.777 1.293l-1.047 1.704a16 16 0 0 1-2.03-1.477m4.266 2.619.767-1.848q1.007.42 2.087.678l-.466 1.945a16 16 0 0 1-2.388-.775m4.868 1.165.155-1.994a14 14 0 0 0 2.204 0l.155 1.994a16 16 0 0 1-2.514 0m4.994-.39-.466-1.945q1.08-.26 2.087-.677l.767 1.847a16 16 0 0 1-2.388.775m4.624-1.917-1.047-1.704q.941-.579 1.778-1.293l1.3 1.52a16 16 0 0 1-2.031 1.477m3.806-3.253-1.52-1.3a14 14 0 0 0 1.293-1.777l1.704 1.047q-.661 1.076-1.477 2.03m2.619-4.266-1.848-.767q.42-1.007.678-2.087l1.945.466a16 16 0 0 1-.775 2.388" clip-rule="evenodd"/><g clip-path="url(#statasusde__circleClip)"><g style="transform:scale(.8125);transform-origin:50% 50%"><g clip-path="url(#statasusde__ethenastakedusde__clip0_2491_158)"><path fill="#fff" d="M16 .57C24.52.57 31.43 7.48 31.43 16S24.52 31.43 16 31.43.57 24.52.57 16 7.48.57 16 .57"/><path fill="url(#statasusde__ethenastakedusde__paint0_radial_2491_158)" fill-opacity=".7" d="M16 .29C7.32.29.29 7.32.29 16S7.32 31.71 16 31.71 31.71 24.68 31.71 16 24.68.29 16 .29"/><path fill="url(#statasusde__ethenastakedusde__paint1_linear_2491_158)" d="M16 32C7.18 32 0 24.82 0 16S7.18 0 16 0s16 7.18 16 16-7.18 16-16 16M16 .58C7.5.58.58 7.5.58 16S7.5 31.42 16 31.42 31.42 24.5 31.42 16 24.51.58 16 .58"/><path fill="#000" fill-rule="evenodd" d="M13.44 2.83C7.26 4.02 2.6 9.46 2.6 15.98s4.67 11.96 10.84 13.15v-1.25c-5.49-1.17-9.61-6.05-9.61-11.89s4.12-10.73 9.61-11.9zm5.12 1.26V2.83c6.16 1.2 10.82 6.63 10.82 13.14s-4.65 11.94-10.82 13.14v-1.26c5.48-1.18 9.59-6.05 9.59-11.89S24.04 5.25 18.56 4.07z" clip-rule="evenodd"/><path fill="#000" d="M20.87 13.46 16.05 5.1l-4.82 8.36H8.42v1.31h15.27v-1.31zm-4.82-5.44 3.14 5.44h-6.28zm-4.82 10.62L16.05 27l4.82-8.36h2.81v-1.31H8.41v1.31zm4.82 5.44-3.14-5.44h6.28z"/></g><defs><radialGradient id="statasusde__ethenastakedusde__paint0_radial_2491_158" cx="0" cy="0" r="1" gradientTransform="matrix(0 33.4971 -23.5777 0 21.75 4.73)" gradientUnits="userSpaceOnUse"><stop offset=".03" stop-color="#F9F9F9"/><stop offset="1" stop-color="#E2E2E2"/></radialGradient><linearGradient id="statasusde__ethenastakedusde__paint1_linear_2491_158" x1="4.69" x2="27.31" y1="4.69" y2="27.31" gradientUnits="userSpaceOnUse"><stop stop-color="#F3F3F3"/><stop offset="1" stop-color="#BDBDBD"/></linearGradient><clipPath id="statasusde__ethenastakedusde__clip0_2491_158"><path fill="#fff" d="M0 0h32v32H0z"/></clipPath></defs></g></g><defs><clipPath id="statasusde__circleClip"><circle cx="16" cy="16" r="13"/></clipPath></defs></svg>