<svg width="32" height="32" fill="none" viewBox="0 0 32 32" xmlns="http://www.w3.org/2000/svg"><path fill="#9896FF" fill-rule="evenodd" d="m31.951 17.257-1.994-.155a14 14 0 0 0 0-2.204l1.994-.155a16 16 0 0 1 0 2.514m-.39-4.994-1.945.466q-.26-1.08-.677-2.087l1.847-.767q.478 1.154.775 2.388M29.644 7.64 27.94 8.686a14 14 0 0 0-1.293-1.778l1.52-1.3a16 16 0 0 1 1.477 2.031m-3.253-3.806-1.3 1.52a14 14 0 0 0-1.777-1.293l1.047-1.704q1.076.661 2.03 1.477m-4.266-2.619-.767 1.848a14 14 0 0 0-2.087-.678l.466-1.945c.822.196 1.62.457 2.388.775M17.257.05l-.155 1.994a14 14 0 0 0-2.204 0L14.743.049a16 16 0 0 1 2.514 0m-4.994.39.466 1.945q-1.08.26-2.087.678l-.767-1.848A16 16 0 0 1 12.263.44M7.64 2.356 8.686 4.06a14 14 0 0 0-1.778 1.293l-1.3-1.52A16 16 0 0 1 7.64 2.356M3.833 5.609l1.52 1.3A14 14 0 0 0 4.06 8.685L2.356 7.639q.661-1.076 1.477-2.03M1.214 9.875l1.848.767a14 14 0 0 0-.678 2.087l-1.945-.466c.196-.822.457-1.62.775-2.388M.05 14.743a16 16 0 0 0 0 2.514l1.994-.155a14 14 0 0 1 0-2.204zm.39 4.994 1.945-.466q.26 1.08.678 2.087l-1.848.767a16 16 0 0 1-.775-2.388m1.917 4.624 1.704-1.047q.579.941 1.293 1.778l-1.52 1.3a16 16 0 0 1-1.477-2.031m3.253 3.806 1.3-1.52q.835.714 1.777 1.293l-1.047 1.704a16 16 0 0 1-2.03-1.477m4.266 2.619.767-1.848q1.007.42 2.087.678l-.466 1.945a16 16 0 0 1-2.388-.775m4.868 1.165.155-1.994a14 14 0 0 0 2.204 0l.155 1.994a16 16 0 0 1-2.514 0m4.994-.39-.466-1.945q1.08-.26 2.087-.677l.767 1.847a16 16 0 0 1-2.388.775m4.624-1.917-1.047-1.704q.941-.579 1.778-1.293l1.3 1.52a16 16 0 0 1-2.031 1.477m3.806-3.253-1.52-1.3a14 14 0 0 0 1.293-1.777l1.704 1.047q-.661 1.076-1.477 2.03m2.619-4.266-1.848-.767q.42-1.007.678-2.087l1.945.466a16 16 0 0 1-.775 2.388" clip-rule="evenodd"/><g clip-path="url(#statafbtc__circleClip)"><g style="transform:scale(.8125);transform-origin:50% 50%"><g clip-path="url(#statafbtc__firebitcoin__clip0_2473_5)"><path fill="#fff" d="M16 0c8.84 0 16 7.16 16 16s-7.16 16-16 16S0 24.84 0 16 7.16 0 16 0"/><path fill="url(#statafbtc__firebitcoin__paint0_linear_2473_5)" fill-rule="evenodd" d="M22.5 14.62c0 3.61-2.92 6.54-6.53 6.54s-6.53-2.93-6.53-6.54c0-5.54 6.37-12.42 6.53-12.42s6.53 6.88 6.53 12.42m-2.64 0c0 2.15-1.74 3.9-3.89 3.9a3.89 3.89 0 0 1-3.89-3.9c0-2.16 1.71-3.86 3.83-3.9v4.02s2.46-.99 3.67-1.58c.18.45.28.94.28 1.46" clip-rule="evenodd"/><path fill="url(#statafbtc__firebitcoin__paint1_linear_2473_5)" d="m14.5 25.03 10.58-1.13c.12 1.16.09 2.33-.09 3.48l-10.53-.65c.09-.56.1-1.13.04-1.69z"/><path fill="url(#statafbtc__firebitcoin__paint2_linear_2473_5)" d="m17.28 21.93-10.43 2.1c.23 1.14.61 2.25 1.13 3.29l9.85-3.79a6.6 6.6 0 0 1-.55-1.6"/></g><defs><linearGradient id="statafbtc__firebitcoin__paint0_linear_2473_5" x1="15.755" x2="15.929" y1=".658" y2="31.832" gradientUnits="userSpaceOnUse"><stop stop-color="#E934F6"/><stop offset=".56" stop-color="#792BF4"/><stop offset=".76" stop-color="#8218F4"/><stop offset=".98" stop-color="#5367F5"/></linearGradient><linearGradient id="statafbtc__firebitcoin__paint1_linear_2473_5" x1="38.638" x2="4.323" y1="1.287" y2="4.461" gradientUnits="userSpaceOnUse"><stop stop-color="#D7B7F9"/><stop offset=".49" stop-color="#8218F4"/><stop offset=".99" stop-color="#5562F5"/></linearGradient><linearGradient id="statafbtc__firebitcoin__paint2_linear_2473_5" x1="16.61" x2="4.89" y1="24.28" y2="25.32" gradientUnits="userSpaceOnUse"><stop stop-color="#5562F5"/><stop offset=".46" stop-color="#8218F4"/><stop offset=".99" stop-color="#D7B7F9"/></linearGradient><clipPath id="statafbtc__firebitcoin__clip0_2473_5"><path fill="#fff" d="M0 0h32v32H0z"/></clipPath></defs></g></g><defs><clipPath id="statafbtc__circleClip"><circle cx="16" cy="16" r="13"/></clipPath></defs></svg>