<svg width="32" height="32" fill="none" viewBox="0 0 32 32" xmlns="http://www.w3.org/2000/svg"><path fill="url(#statastusd__paint0_linear_42_5)" fill-rule="evenodd" d="m31.951 17.257-1.994-.155a14 14 0 0 0 0-2.204l1.994-.155a16 16 0 0 1 0 2.514m-.39-4.994-1.945.466q-.26-1.08-.677-2.087l1.847-.767q.478 1.154.775 2.388M29.644 7.64 27.94 8.686a14 14 0 0 0-1.293-1.778l1.52-1.3a16 16 0 0 1 1.477 2.031m-3.253-3.806-1.3 1.52a14 14 0 0 0-1.777-1.293l1.047-1.704q1.076.661 2.03 1.477m-4.266-2.619-.767 1.848a14 14 0 0 0-2.087-.678l.466-1.945c.822.196 1.62.457 2.388.775M17.257.05l-.155 1.994a14 14 0 0 0-2.204 0L14.743.049a16 16 0 0 1 2.514 0m-4.994.39.466 1.945q-1.08.26-2.087.678l-.767-1.848A16 16 0 0 1 12.263.44M7.64 2.356 8.686 4.06a14 14 0 0 0-1.778 1.293l-1.3-1.52A16 16 0 0 1 7.64 2.356M3.833 5.609l1.52 1.3A14 14 0 0 0 4.06 8.685L2.356 7.639q.661-1.076 1.477-2.03M1.214 9.875l1.848.767a14 14 0 0 0-.678 2.087l-1.945-.466c.196-.822.457-1.62.775-2.388M.05 14.743a16 16 0 0 0 0 2.514l1.994-.155a14 14 0 0 1 0-2.204zm.39 4.994 1.945-.466q.26 1.08.678 2.087l-1.848.767a16 16 0 0 1-.775-2.388m1.917 4.624 1.704-1.047q.579.941 1.293 1.778l-1.52 1.3a16 16 0 0 1-1.477-2.031m3.253 3.806 1.3-1.52q.835.714 1.777 1.293l-1.047 1.704a16 16 0 0 1-2.03-1.477m4.266 2.619.767-1.848q1.007.42 2.087.678l-.466 1.945a16 16 0 0 1-2.388-.775m4.868 1.165.155-1.994a14 14 0 0 0 2.204 0l.155 1.994a16 16 0 0 1-2.514 0m4.994-.39-.466-1.945q1.08-.26 2.087-.677l.767 1.847a16 16 0 0 1-2.388.775m4.624-1.917-1.047-1.704q.941-.579 1.778-1.293l1.3 1.52a16 16 0 0 1-2.031 1.477m3.806-3.253-1.52-1.3a14 14 0 0 0 1.293-1.777l1.704 1.047q-.661 1.076-1.477 2.03m2.619-4.266-1.848-.767q.42-1.007.678-2.087l1.945.466a16 16 0 0 1-.775 2.388" clip-rule="evenodd"/><g clip-path="url(#statastusd__circleClip)"><g style="transform:scale(.8125);transform-origin:50% 50%"><path fill="url(#statastusd__anglestakedusd__paint0_linear_1032_2195)" d="M32 16c0 8.84-7.16 16-16 16S0 24.84 0 16 7.16 0 16 0s16 7.16 16 16"/><path fill="url(#statastusd__anglestakedusd__paint1_linear_1032_2195)" d="M16 31.98C7.17 31.98.02 24.84.02 16.04c0 0 7.16-3.28 15.98-3.28s15.98 3.28 15.98 3.28c0 8.81-7.16 15.94-15.98 15.94"/><path fill="#fff" d="M24.74 13.8 16 4.88 7.26 13.8l4.37 4.46L16 13.8l4.37 4.46z"/><path fill="#202332" d="M23.62 21.35c-.39-.39-.97-.58-1.72-.58h-2.32v1.14h.7v3.28h-.7v1.14h2.32c.75 0 1.32-.19 1.71-.58q.6-.585.6-1.71v-1c0-.75-.2-1.32-.6-1.7zm-.91.86c.16.18.25.45.25.81v1.06c0 .35-.08.62-.25.81-.16.18-.42.27-.79.27h-.37v-3.22h.37c.36 0 .63.09.79.27m-11.78 2.16c0 .29-.08.51-.24.67s-.39.24-.7.24-.55-.08-.71-.24-.24-.38-.24-.67v-3.6H7.77v3.57c0 .42.09.8.26 1.12.18.31.44.56.77.73s.73.25 1.18.25.85-.08 1.18-.25c.34-.17.59-.42.77-.74s.27-.69.27-1.12v-3.57h-1.27zm6.17-1.12c-.28-.13-.63-.24-1.01-.32l-.17-.04c-.2-.04-.37-.09-.5-.15a.66.66 0 0 1-.26-.18.42.42 0 0 1-.07-.26c0-.16.05-.27.16-.36.12-.1.32-.15.59-.15.18 0 .34.03.48.08.12.05.21.12.27.22.07.1.1.24.1.41v.36h1.25v-.36c0-.41-.09-.76-.28-1.03a1.58 1.58 0 0 0-.75-.62c-.31-.14-.67-.21-1.06-.21s-.75.07-1.05.2-.54.33-.71.58-.25.55-.25.9.08.64.23.86.37.4.65.54c.27.12.6.23.97.31l.17.04c.22.05.41.1.56.16.14.05.24.11.31.19.06.07.09.15.09.27q0 .255-.21.42c-.14.12-.37.17-.68.17q-.465 0-.72-.21c-.17-.14-.25-.34-.25-.62v-.34h-1.25v.34c0 .41.1.76.29 1.06.19.29.46.52.79.68.33.15.71.23 1.14.23s.8-.07 1.12-.22.58-.36.75-.62q.27-.405.27-.93c0-.35-.09-.65-.26-.88a1.8 1.8 0 0 0-.71-.54z"/><path fill="url(#statastusd__anglestakedusd__paint2_linear_1032_2195)" d="M20.74 3.93c.02-.14.22-.14.24 0l.14 1.15c.18 1.49 1.38 2.66 2.89 2.84l1.18.14c.14.02.14.22 0 .23l-1.18.14c-1.52.18-2.71 1.35-2.89 2.84l-.14 1.15c-.02.14-.22.14-.24 0l-.14-1.15c-.18-1.49-1.38-2.66-2.89-2.84l-1.18-.14c-.14-.02-.14-.22 0-.23l1.18-.14c1.52-.18 2.71-1.35 2.89-2.84z"/><defs><linearGradient id="statastusd__anglestakedusd__paint0_linear_1032_2195" x1="5.14" x2="23.02" y1="25.66" y2="9.76" gradientUnits="userSpaceOnUse"><stop offset=".07" stop-color="#CBECE3"/><stop offset="1" stop-color="#62C4A6"/></linearGradient><linearGradient id="statastusd__anglestakedusd__paint1_linear_1032_2195" x1="12.946" x2="28.847" y1="-.716" y2="17.154" gradientUnits="userSpaceOnUse"><stop offset=".07" stop-color="#CBECE3"/><stop offset="1" stop-color="#62C4A6"/></linearGradient><linearGradient id="statastusd__anglestakedusd__paint2_linear_1032_2195" x1="20.12" x2="23.58" y1="8.83" y2="5.77" gradientUnits="userSpaceOnUse"><stop stop-color="#F5CFAE"/><stop offset="1" stop-color="#F7F0E7"/></linearGradient></defs></g></g><defs><linearGradient id="statastusd__paint0_linear_42_5" x1="26.976" x2="6.592" y1="4.32" y2="28.352" gradientUnits="userSpaceOnUse"><stop stop-color="#B6509E"/><stop offset="1" stop-color="#2EBAC6"/></linearGradient><clipPath id="statastusd__circleClip"><circle cx="16" cy="16" r="13"/></clipPath></defs></svg>