<svg xmlns="http://www.w3.org/2000/svg" width="32" height="32" fill="none" viewBox="0 0 32 32"><path fill="url(#zsg37__paint0_linear_42_5)" fill-rule="evenodd" d="m31.951 17.257-1.994-.155a14 14 0 0 0 0-2.204l1.994-.155a16 16 0 0 1 0 2.514m-.39-4.994-1.945.466q-.26-1.08-.677-2.087l1.847-.767q.478 1.154.775 2.388M29.644 7.64 27.94 8.686a14 14 0 0 0-1.293-1.778l1.52-1.3a16 16 0 0 1 1.477 2.031m-3.253-3.806-1.3 1.52a14 14 0 0 0-1.777-1.293l1.047-1.704q1.076.661 2.03 1.477m-4.266-2.619-.767 1.848a14 14 0 0 0-2.087-.678l.466-1.945c.822.196 1.62.457 2.388.775M17.257.05l-.155 1.994a14 14 0 0 0-2.204 0L14.743.049a16 16 0 0 1 2.514 0m-4.994.39.466 1.945q-1.08.26-2.087.678l-.767-1.848A16 16 0 0 1 12.263.44M7.64 2.356 8.686 4.06a14 14 0 0 0-1.778 1.293l-1.3-1.52A16 16 0 0 1 7.64 2.356M3.833 5.609l1.52 1.3A14 14 0 0 0 4.06 8.685L2.356 7.639q.661-1.076 1.477-2.03M1.214 9.875l1.848.767a14 14 0 0 0-.678 2.087l-1.945-.466c.196-.822.457-1.62.775-2.388M.05 14.743a16 16 0 0 0 0 2.514l1.994-.155a14 14 0 0 1 0-2.204zm.39 4.994 1.945-.466q.26 1.08.678 2.087l-1.848.767a16 16 0 0 1-.775-2.388m1.917 4.624 1.704-1.047q.579.941 1.293 1.778l-1.52 1.3a16 16 0 0 1-1.477-2.031m3.253 3.806 1.3-1.52q.835.714 1.777 1.293l-1.047 1.704a16 16 0 0 1-2.03-1.477m4.266 2.619.767-1.848q1.007.42 2.087.678l-.466 1.945a16 16 0 0 1-2.388-.775m4.868 1.165.155-1.994a14 14 0 0 0 2.204 0l.155 1.994a16 16 0 0 1-2.514 0m4.994-.39-.466-1.945q1.08-.26 2.087-.677l.767 1.847a16 16 0 0 1-2.388.775m4.624-1.917-1.047-1.704q.941-.579 1.778-1.293l1.3 1.52a16 16 0 0 1-2.031 1.477m3.806-3.253-1.52-1.3a14 14 0 0 0 1.293-1.777l1.704 1.047q-.661 1.076-1.477 2.03m2.619-4.266-1.848-.767q.42-1.007.678-2.087l1.945.466a16 16 0 0 1-.775 2.388" clip-rule="evenodd"/><g clip-path="url(#zsg37__circleClip)"><g style="transform:scale(.8125);transform-origin:50% 50%"><g clip-path="url(#zsg37__oc95x__clip0_292_10)"><path fill="#fff" d="M16 32c8.837 0 16-7.163 16-16S24.837 0 16 0 0 7.163 0 16s7.163 16 16 16"/><path fill="#fff" d="m10 18 .7-5.26-6.07-4.21 5.55 1.88 1.31-2.01 4.78-2.97 10.54 5.81.55 8.86-4.7 6.53-3.71.57 1.92-3.51v-3.38l-1.4-2.64-1.42-.94-2.18 2.25v2.38l-1.7 1.59-2.16.26-.96.54-1.57-.5-.66-2.36L10 19.23z"/><path fill="#94A6C3" d="M19.7 8.48c-1.16-.24-2.42-.18-2.42-.18s-.42 1.92-2.99 2.43c.02 0 3.4 1.16 5.41-2.25m1.04 17.43c1.4-1.09 2.44-2.6 2.93-4.3.02-.06.22-.18.35-.26.22-.13.44-.24.48-.42.09-.5.13-1.03.13-1.55 0-.19-.2-.39-.39-.59-.15-.13-.31-.28-.31-.39a8.3 8.3 0 0 0-2.6-5.2l-.15.15c1.42 1.33 2.34 3.14 2.53 5.06.02.18.19.35.37.52.15.13.33.33.33.42 0 .5-.04 1-.13 1.5-.02.09-.22.18-.37.26-.22.11-.42.22-.46.39-.52 1.86-1.73 3.47-3.32 4.52.28-.61 1.18-2.6 1.66-3.6l-.09-3.23-2.77-2.68-1.57.22-1.73 2.8s.81 1.03-.33 2.23c-1.11 1.18-1.99 1.44-1.99 1.44l-.81-.44c.24-.31.72-.76 1.09-1.07.63-.52 1.27-.57 1.27-1.13.03-1.18-1.24-.86-1.24-.86l-.46.44-.19 1.62-.96 1.2-.11-.02-1.57-.35s.96-.5 1.12-1.07c.15-.55-.31-2.36-.33-2.47.02.02.46.39.66 1 .35-.96.81-1.88.94-1.97s1.9-1.03 1.9-1.03l-.59 1.55.44-.24 1.05-2.58s1.03-.5 1.79-.5c1.37-.02 3.41-1.7 2.49-4.72.26.11 4.8 2.38 5.59 6.83.59 3.42-1.35 6.63-4.63 8.49z"/><path fill="#1B314F" d="M15.55 8.96c.5-.59.31-1.46.31-1.46L14.4 9.66s.52.02 1.16-.7zm-4.92 11.82.18-.87s-.72 1.27-.79 1.44c-.07.2.04.55.33.52.28-.02.63-.44.63-.74 0-.39-.35-.35-.35-.35"/><path fill="#1B314F" d="M23.6 6.89s1.09.04 2.23.18c-2.56-2.01-4.98-2.6-6.94-2.6-2.71 0-4.54 1.12-4.65 1.18l.85-1.35s-3.41-.33-4.61 3.28c-.31-.76-.59-1.88-.59-1.88s-1.77 1.55-.94 4.13C6.92 9.09 4.02 8.06 3.9 8.04c-.15-.02-.2.04-.2.04s-.04.06.09.18c.24.19 4.83 3.58 5.84 4.23-.22.79-.22 1.16 0 1.53.31.5.33.76.28 1.13-.04.37-.44 3.58-.52 3.98s-1 1.79-.96 2.2c.04.42.61 2.18 1.12 2.38.37.13 1.29.42 1.9.42.22 0 .42-.04.5-.13.37-.33.48-.39.74-.39h.06c.11 0 .24.02.39.02.35 0 .81-.07 1.13-.37.48-.48 1.31-1.13 1.57-1.44.33-.42.5-.98.42-1.55-.07-.52.22-.98.55-1.44.42-.55 1.18-1.53 1.18-1.53 1.51 1.13 2.45 2.86 2.45 4.78 0 3.41-2.97 6.16-6.64 6.16-.57 0-1.11-.06-1.66-.19 1.68.59 3.1.79 4.26.79 2.47 0 3.78-.89 3.78-.89s-.46.59-1.2 1.27H19c4.08-.57 6.07-3.93 6.07-3.93s-.15 1.09-.35 1.83c5.43-4.08 4.51-9.19 4.49-9.36.04.06.59.72.87 1.07.88-9-6.48-11.9-6.48-11.9zm-8.36 14.37c-.09.11-.46.44-.72.68s-.55.48-.76.7c-.09.09-.26.13-.52.13h-.66c.33-.44 1.29-1.44 1.62-1.66.39-.26.59-.52.35-.98s-.87-.35-.87-.35.37-.15.7-.15c-.42-.11-.94 0-1.18.24-.26.24-.22 1.09-.33 1.64-.11.57-.48.85-1.05 1.38-.31.28-.52.37-.7.37-.37-.06-.81-.18-1.12-.28-.22-.28-.55-1.22-.63-1.62.06-.22.33-.68.46-.94.26-.5.42-.79.46-1.05.09-.37.37-2.66.48-3.62.28.37.68.98.59 1.38.63-.89.18-1.77-.04-2.12-.19-.35-.46-1.05-.24-1.79s1-2.8 1-2.8.26.46.63.37 3.36-4.59 3.36-4.59.81 1.77-.04 3.06c-.87 1.29-1.73 1.53-1.73 1.53s1.2.22 2.31-.59c.46 1.07.89 2.18.92 2.34-.07.15-.94 2.25-1.03 2.38-.04.04-.35.13-.57.18-.37.11-.59.18-.68.24-.15.13-.85 2.05-1.18 2.99-.39.11-.79.33-1.07.76.15-.11.63-.18.98-.22.31-.02 1.24.48 1.49 1.42v.04c.05.34-.06.67-.24.94zm-2.05.26c.2-.28.18-.76.2-.92s.06-.44.24-.48.59.02.59.33c0 .28-.31.35-.52.55-.16.15-.46.48-.51.52m8.71-4.17c.22-1.11.24-2.07.18-2.86.85 1.13 1.37 2.51 1.53 3.93.02.18.19.35.37.52.15.13.33.31.33.42 0 .5-.04 1-.13 1.51-.02.06-.22.18-.37.26-.22.11-.42.22-.46.39a8.12 8.12 0 0 1-2.88 4.21c2.03-2.12 3.01-5.61 1.44-8.39zm-1.37 8.58c1.42-1.09 2.51-2.62 2.99-4.35.02-.06.22-.18.35-.26.22-.11.44-.24.48-.42.09-.5.13-1.03.13-1.55 0-.19-.2-.39-.39-.59-.11-.13-.28-.28-.28-.39-.18-1.59-.81-3.1-1.79-4.35-.44-2.62-2.18-3.43-2.23-3.45.04.07 1.18 1.7.39 3.62-.81 1.94-2.88 1.64-3.06 1.66-.18 0-.85.87-1.7 2.49-.11-.04-.57-.15-1.09-.06.39-1.09.98-2.64 1.09-2.77.04-.04.37-.13.59-.19.42-.11.61-.18.68-.26.04-.07.26-.57.48-1.09.2 0 .7-.04.74-.07.04-.04.46-1.11.46-1.24 0-.11-.85-2.23-1.18-3.04.15-.18.31-.39.46-.63 4.48.48 7.97 4.28 7.97 8.89a8.93 8.93 0 0 1-5.09 8.06z"/><path fill="#1B314F" d="M14.72 14.14c.42-.48.2-1.37-.57-1.53.2-.46.48-1.37.48-1.37s-2.23 3.49-2.42 3.56c-.2.07-.39-.7-.39-.7-.42 1.59.7 1.81.83 1.31.61-.16 1.66-.81 2.07-1.27"/><path fill="#FFD923" d="m12.82 14.99 1.13-1.94s.66.33.33.85c-.41.61-1.46 1.09-1.46 1.09"/><path fill="#D82122" d="M26.86 23.99c-.33.44-.7.89-1.13 1.33 2.81-5.42.13-10.37.02-10.57.2.2.39.42.57.61 2.16 2.4 2.42 6 .54 8.62zm2.62-6.97c-.98-2.64-2.38-4.89-5.46-6.92-2.97-1.97-6.16-1.81-6.33-1.79h-.04q.165-.06.33-.09c.68-.22 1.55-.39 2.43-.5 2.32-.33 4.65.45 6.25 2.14l.04.04c1.81 1.92 2.75 4.32 2.79 7.12zM23.32 6.21c-3.25-.61-5.35-.31-6.86.26-.04-.18-.2-.52-.33-.81-.45.55-.94 1.2-1.24 1.62-.83.57-1.18 1.12-1.18 1.12.48-1.64 1.88-2.86 3.58-3.17.48-.09 1-.13 1.57-.13 1.5.02 3.01.39 4.45 1.11zM11.29 10.4c-2.55-.09-1.7-3.06-1.66-3.23 0 .02.17 2.34 1.66 3.23m2.51-5.35c-1.97 1.18-1.57 3.99-1.57 3.99-1.88-2.86 1.42-3.93 1.57-3.99"/><path fill="#fff" d="M10.57 11.19c.13.11.26.31.11.59-.09.15-.22.13-.42.04-.26-.13-1.83-1.05-3.25-1.99 1.62.57 3.25 1.18 3.51 1.31l.04.04z"/></g><defs><clipPath id="zsg37__oc95x__clip0_292_10"><path fill="#fff" d="M0 0h32v32H0z"/></clipPath></defs></g></g><defs><linearGradient id="zsg37__paint0_linear_42_5" x1="26.976" x2="6.592" y1="4.32" y2="28.352" gradientUnits="userSpaceOnUse"><stop stop-color="#B6509E"/><stop offset="1" stop-color="#2EBAC6"/></linearGradient><clipPath id="zsg37__circleClip"><circle cx="16" cy="16" r="13"/></clipPath></defs></svg>