<svg xmlns="http://www.w3.org/2000/svg" width="32" height="32" fill="none" viewBox="0 0 32 32"><path fill="url(#nihgh__paint0_linear_42_5)" fill-rule="evenodd" d="m31.951 17.257-1.994-.155a14 14 0 0 0 0-2.204l1.994-.155a16 16 0 0 1 0 2.514m-.39-4.994-1.945.466q-.26-1.08-.677-2.087l1.847-.767q.478 1.154.775 2.388M29.644 7.64 27.94 8.686a14 14 0 0 0-1.293-1.778l1.52-1.3a16 16 0 0 1 1.477 2.031m-3.253-3.806-1.3 1.52a14 14 0 0 0-1.777-1.293l1.047-1.704q1.076.661 2.03 1.477m-4.266-2.619-.767 1.848a14 14 0 0 0-2.087-.678l.466-1.945c.822.196 1.62.457 2.388.775M17.257.05l-.155 1.994a14 14 0 0 0-2.204 0L14.743.049a16 16 0 0 1 2.514 0m-4.994.39.466 1.945q-1.08.26-2.087.678l-.767-1.848A16 16 0 0 1 12.263.44M7.64 2.356 8.686 4.06a14 14 0 0 0-1.778 1.293l-1.3-1.52A16 16 0 0 1 7.64 2.356M3.833 5.609l1.52 1.3A14 14 0 0 0 4.06 8.685L2.356 7.639q.661-1.076 1.477-2.03M1.214 9.875l1.848.767a14 14 0 0 0-.678 2.087l-1.945-.466c.196-.822.457-1.62.775-2.388M.05 14.743a16 16 0 0 0 0 2.514l1.994-.155a14 14 0 0 1 0-2.204zm.39 4.994 1.945-.466q.26 1.08.678 2.087l-1.848.767a16 16 0 0 1-.775-2.388m1.917 4.624 1.704-1.047q.579.941 1.293 1.778l-1.52 1.3a16 16 0 0 1-1.477-2.031m3.253 3.806 1.3-1.52q.835.714 1.777 1.293l-1.047 1.704a16 16 0 0 1-2.03-1.477m4.266 2.619.767-1.848q1.007.42 2.087.678l-.466 1.945a16 16 0 0 1-2.388-.775m4.868 1.165.155-1.994a14 14 0 0 0 2.204 0l.155 1.994a16 16 0 0 1-2.514 0m4.994-.39-.466-1.945q1.08-.26 2.087-.677l.767 1.847a16 16 0 0 1-2.388.775m4.624-1.917-1.047-1.704q.941-.579 1.778-1.293l1.3 1.52a16 16 0 0 1-2.031 1.477m3.806-3.253-1.52-1.3a14 14 0 0 0 1.293-1.777l1.704 1.047q-.661 1.076-1.477 2.03m2.619-4.266-1.848-.767q.42-1.007.678-2.087l1.945.466a16 16 0 0 1-.775 2.388" clip-rule="evenodd"/><g clip-path="url(#nihgh__circleClip)"><g style="transform:scale(.8125);transform-origin:50% 50%"><g clip-path="url(#nihgh__rx28m__clip0_292_80)"><path fill="#fff" d="M16 32.002c8.837 0 16-7.163 16-16s-7.163-16-16-16-16 7.164-16 16 7.163 16 16 16"/><path fill="#000" d="M15.98 32.002V8.932c-1.94 0-3.5-.53-3.5-1.18 0-.48.87-.9 2.11-1.08.47.09.95.14 1.43.14.47 0 .94-.04 1.4-.13h.03c1.24.18 2.11.59 2.11 1.08 0 .64-1.54 1.17-3.45 1.18v23.07h-.12zm-2.79-26.37c0-.42.81-.77 1.93-.9.3.05.6.07.9.07.29 0 .58-.02.87-.07h.03c1.12.12 1.93.47 1.93.89 0 .52-1.27.95-2.83.95s-2.83-.42-2.83-.95zm.7-1.73c0-.39.95-.71 2.12-.71s2.12.32 2.12.71-.95.71-2.12.71-2.12-.32-2.12-.71m2.09-.78V.002h.12v3.12z"/><path fill="url(#nihgh__rx28m__paint0_linear_292_80)" d="M16 32.002c-1.08 0-2.16-.11-3.22-.33-2.05-.42-3.99-1.24-5.72-2.41a16.07 16.07 0 0 1-5.8-7.04q-.615-1.455-.93-3c-.43-2.13-.43-4.32 0-6.45.42-2.05 1.24-3.99 2.41-5.72 1.74-2.57 4.18-4.59 7.04-5.8q1.455-.615 3-.93c2.13-.43 4.32-.43 6.45 0 2.05.42 3.99 1.24 5.72 2.41 2.57 1.74 4.59 4.18 5.8 7.04q.615 1.455.93 3c.43 2.13.43 4.32 0 6.45-.42 2.05-1.24 3.99-2.41 5.72a16.07 16.07 0 0 1-7.04 5.8q-1.455.615-3 .93c-1.06.22-2.14.33-3.22.33zm0-30.75q-1.5 0-2.97.3a14.77 14.77 0 0 0-11.47 11.48c-.4 1.96-.4 3.98 0 5.95a14.77 14.77 0 0 0 11.48 11.47c1.96.4 3.98.4 5.95 0a14.77 14.77 0 0 0 11.47-11.48c.4-1.96.4-3.98 0-5.95a14.77 14.77 0 0 0-11.48-11.47q-1.47-.3-2.97-.3z"/><path fill="#3B3735" d="m23.15 23.373 3.06-4.31-3.06 1.83zm2.94-5.11-2.94-4.89v3.56z"/><path fill="#1F1D19" d="M23.15 17.213v3.03l2.92-1.69-2.92-1.33z"/><path fill="#959190" d="m19.92 18.263 2.94-4.89v3.56z"/><path fill="#403C3A" d="M22.87 17.213v3.03l-2.92-1.69 2.92-1.33z"/><path fill="#959190" d="m22.87 23.373-3.06-4.31 3.06 1.83z"/><path fill="url(#nihgh__rx28m__paint1_linear_292_80)" d="M8.61 23.373a5 5 0 1 0 0-10 5 5 0 0 0 0 10"/><path fill="#fff" d="m10.8 20.373-1.69-4.09c-.1-.21-.24-.31-.42-.31h-.15c-.19 0-.33.1-.42.31l-.74 1.78h-.56a.3.3 0 0 0-.3.3c0 .17.14.31.3.31h.3l-.7 1.7s-.02.08-.02.12c0 .08.03.17.08.23.06.06.14.09.22.09.06 0 .12-.02.17-.06q.075-.06.12-.15l.77-1.92h.54a.3.3 0 0 0 .3-.3.31.31 0 0 0-.3-.31h-.29l.59-1.47 1.61 4q.045.09.12.15a.294.294 0 0 0 .39-.03c.06-.06.09-.14.08-.23 0-.04 0-.08-.02-.12z"/></g><defs><linearGradient id="nihgh__rx28m__paint0_linear_292_80" x1="24.528" x2="9.523" y1="1.143" y2="31.151" gradientUnits="userSpaceOnUse"><stop stop-color="#B6509E"/><stop offset="1" stop-color="#2EBAC6"/></linearGradient><linearGradient id="nihgh__rx28m__paint1_linear_292_80" x1="28.746" x2="3.738" y1="6.483" y2="26.483" gradientUnits="userSpaceOnUse"><stop stop-color="#B6509E"/><stop offset="1" stop-color="#2EBAC6"/></linearGradient><clipPath id="nihgh__rx28m__clip0_292_80"><path fill="#fff" d="M0 0h32v32H0z"/></clipPath></defs></g></g><defs><linearGradient id="nihgh__paint0_linear_42_5" x1="26.976" x2="6.592" y1="4.32" y2="28.352" gradientUnits="userSpaceOnUse"><stop stop-color="#B6509E"/><stop offset="1" stop-color="#2EBAC6"/></linearGradient><clipPath id="nihgh__circleClip"><circle cx="16" cy="16" r="13"/></clipPath></defs></svg>