<svg xmlns="http://www.w3.org/2000/svg" width="32" height="32" fill="none" viewBox="0 0 32 32"><path fill="url(#umsnw__paint0_linear_42_5)" fill-rule="evenodd" d="m31.951 17.257-1.994-.155a14 14 0 0 0 0-2.204l1.994-.155a16 16 0 0 1 0 2.514m-.39-4.994-1.945.466q-.26-1.08-.677-2.087l1.847-.767q.478 1.154.775 2.388M29.644 7.64 27.94 8.686a14 14 0 0 0-1.293-1.778l1.52-1.3a16 16 0 0 1 1.477 2.031m-3.253-3.806-1.3 1.52a14 14 0 0 0-1.777-1.293l1.047-1.704q1.076.661 2.03 1.477m-4.266-2.619-.767 1.848a14 14 0 0 0-2.087-.678l.466-1.945c.822.196 1.62.457 2.388.775M17.257.05l-.155 1.994a14 14 0 0 0-2.204 0L14.743.049a16 16 0 0 1 2.514 0m-4.994.39.466 1.945q-1.08.26-2.087.678l-.767-1.848A16 16 0 0 1 12.263.44M7.64 2.356 8.686 4.06a14 14 0 0 0-1.778 1.293l-1.3-1.52A16 16 0 0 1 7.64 2.356M3.833 5.609l1.52 1.3A14 14 0 0 0 4.06 8.685L2.356 7.639q.661-1.076 1.477-2.03M1.214 9.875l1.848.767a14 14 0 0 0-.678 2.087l-1.945-.466c.196-.822.457-1.62.775-2.388M.05 14.743a16 16 0 0 0 0 2.514l1.994-.155a14 14 0 0 1 0-2.204zm.39 4.994 1.945-.466q.26 1.08.678 2.087l-1.848.767a16 16 0 0 1-.775-2.388m1.917 4.624 1.704-1.047q.579.941 1.293 1.778l-1.52 1.3a16 16 0 0 1-1.477-2.031m3.253 3.806 1.3-1.52q.835.714 1.777 1.293l-1.047 1.704a16 16 0 0 1-2.03-1.477m4.266 2.619.767-1.848q1.007.42 2.087.678l-.466 1.945a16 16 0 0 1-2.388-.775m4.868 1.165.155-1.994a14 14 0 0 0 2.204 0l.155 1.994a16 16 0 0 1-2.514 0m4.994-.39-.466-1.945q1.08-.26 2.087-.677l.767 1.847a16 16 0 0 1-2.388.775m4.624-1.917-1.047-1.704q.941-.579 1.778-1.293l1.3 1.52a16 16 0 0 1-2.031 1.477m3.806-3.253-1.52-1.3a14 14 0 0 0 1.293-1.777l1.704 1.047q-.661 1.076-1.477 2.03m2.619-4.266-1.848-.767q.42-1.007.678-2.087l1.945.466a16 16 0 0 1-.775 2.388" clip-rule="evenodd"/><g clip-path="url(#umsnw__circleClip)"><g style="transform:scale(.8125);transform-origin:50% 50%"><g clip-path="url(#umsnw__00i1o__clip0_297_61)"><path fill="#FDFDFD" d="M16 32c8.837 0 16-7.163 16-16S24.837 0 16 0 0 7.163 0 16s7.163 16 16 16"/><path fill="#34775D" d="m20.97 15.38 4.45-4.45c1.14-1.14 1.36-3 .34-4.24a3.09 3.09 0 0 0-4.57-.24L11.64 16l9.55 9.55c1.2 1.2 3.15 1.2 4.35 0s1.2-3.15 0-4.35l-4.57-4.57a.887.887 0 0 1 0-1.26z"/><path fill="#52B136" d="M11.643 16.02 16 11.666l9.553 9.553a3.08 3.08 0 0 1 0 4.356 3.08 3.08 0 0 1-4.356 0z"/><path fill="#68DF57" d="m25.582 6.487-.07-.07a3.03 3.03 0 1 0-4.285 4.285l.07.07a3.03 3.03 0 0 0 4.285-4.285M18.19 13.89l-7.4-7.43c-1.2-1.2-3.15-1.2-4.35 0s-1.2 3.15 0 4.35l4.53 4.53c.37.37.37.97 0 1.34l-4.53 4.53c-1.2 1.2-1.2 3.15 0 4.35s3.15 1.2 4.35 0l7.4-7.4a3.03 3.03 0 0 0 0-4.28z"/></g><defs><clipPath id="umsnw__00i1o__clip0_297_61"><path fill="#fff" d="M0 0h32v32H0z"/></clipPath></defs></g></g><defs><linearGradient id="umsnw__paint0_linear_42_5" x1="26.976" x2="6.592" y1="4.32" y2="28.352" gradientUnits="userSpaceOnUse"><stop stop-color="#B6509E"/><stop offset="1" stop-color="#2EBAC6"/></linearGradient><clipPath id="umsnw__circleClip"><circle cx="16" cy="16" r="13"/></clipPath></defs></svg>