<svg xmlns="http://www.w3.org/2000/svg" width="32" height="32" fill="none" viewBox="0 0 32 32"><path fill="url(#eeyvc__paint0_linear_42_5)" fill-rule="evenodd" d="m31.951 17.257-1.994-.155a14 14 0 0 0 0-2.204l1.994-.155a16 16 0 0 1 0 2.514m-.39-4.994-1.945.466q-.26-1.08-.677-2.087l1.847-.767q.478 1.154.775 2.388M29.644 7.64 27.94 8.686a14 14 0 0 0-1.293-1.778l1.52-1.3a16 16 0 0 1 1.477 2.031m-3.253-3.806-1.3 1.52a14 14 0 0 0-1.777-1.293l1.047-1.704q1.076.661 2.03 1.477m-4.266-2.619-.767 1.848a14 14 0 0 0-2.087-.678l.466-1.945c.822.196 1.62.457 2.388.775M17.257.05l-.155 1.994a14 14 0 0 0-2.204 0L14.743.049a16 16 0 0 1 2.514 0m-4.994.39.466 1.945q-1.08.26-2.087.678l-.767-1.848A16 16 0 0 1 12.263.44M7.64 2.356 8.686 4.06a14 14 0 0 0-1.778 1.293l-1.3-1.52A16 16 0 0 1 7.64 2.356M3.833 5.609l1.52 1.3A14 14 0 0 0 4.06 8.685L2.356 7.639q.661-1.076 1.477-2.03M1.214 9.875l1.848.767a14 14 0 0 0-.678 2.087l-1.945-.466c.196-.822.457-1.62.775-2.388M.05 14.743a16 16 0 0 0 0 2.514l1.994-.155a14 14 0 0 1 0-2.204zm.39 4.994 1.945-.466q.26 1.08.678 2.087l-1.848.767a16 16 0 0 1-.775-2.388m1.917 4.624 1.704-1.047q.579.941 1.293 1.778l-1.52 1.3a16 16 0 0 1-1.477-2.031m3.253 3.806 1.3-1.52q.835.714 1.777 1.293l-1.047 1.704a16 16 0 0 1-2.03-1.477m4.266 2.619.767-1.848q1.007.42 2.087.678l-.466 1.945a16 16 0 0 1-2.388-.775m4.868 1.165.155-1.994a14 14 0 0 0 2.204 0l.155 1.994a16 16 0 0 1-2.514 0m4.994-.39-.466-1.945q1.08-.26 2.087-.677l.767 1.847a16 16 0 0 1-2.388.775m4.624-1.917-1.047-1.704q.941-.579 1.778-1.293l1.3 1.52a16 16 0 0 1-2.031 1.477m3.806-3.253-1.52-1.3a14 14 0 0 0 1.293-1.777l1.704 1.047q-.661 1.076-1.477 2.03m2.619-4.266-1.848-.767q.42-1.007.678-2.087l1.945.466a16 16 0 0 1-.775 2.388" clip-rule="evenodd"/><g clip-path="url(#eeyvc__circleClip)"><g style="transform:scale(.8125);transform-origin:50% 50%"><g clip-path="url(#eeyvc__36yyy__clip0_348_155)"><path fill="url(#eeyvc__36yyy__paint0_radial_348_155)" d="M16 32c8.84 0 16-7.16 16-16S24.84 0 16 0 0 7.16 0 16s7.16 16 16 16"/><path fill="url(#eeyvc__36yyy__paint1_radial_348_155)" d="M16 32c8.84 0 16-7.16 16-16S24.84 0 16 0 0 7.16 0 16s7.16 16 16 16"/><path fill="url(#eeyvc__36yyy__paint2_linear_348_155)" d="M16.8 13.81h12.05c.35 0 .64-.29.64-.64V7.42A16.02 16.02 0 0 0 16.16 0v13.17c0 .35.29.64.64.64" opacity=".2"/><path fill="#CC4521" d="M28.8 6.43 6.43 28.8c.68.51 1.39.97 2.15 1.37L30.17 8.58c-.4-.76-.86-1.47-1.37-2.15" opacity=".1"/><path fill="#F09B7D" d="M21.44 5.01v10.77c0 .35.29.64.64.64h9.9c0-.14.02-.28.02-.43 0-4.59-1.94-8.71-5.03-11.63h-4.89c-.35 0-.64.29-.64.64z" opacity=".2"/><path fill="#CC4521" d="M7.09 5.76h4.21c.35 0 .64-.29.64-.64V.54c-2.01.53-3.87 1.43-5.49 2.64v1.94c0 .35.29.64.64.64" opacity=".1"/><path fill="#F6CB94" d="M20.43 10.35h5.55c.35 0 .64-.29.64-.64V4.05A15.9 15.9 0 0 0 19.79.47v9.24c0 .35.29.64.64.64" opacity=".2"/><path fill="#CC4521" d="M29.57 7.55 7.55 29.57c.34.21.68.42 1.04.6L30.17 8.59c-.19-.36-.39-.7-.6-1.04" opacity=".1"/><path fill="#CC4521" d="M26.72 23.41h-4.21c-.35 0-.64.29-.64.64v6.82c2.08-.82 3.95-2.05 5.49-3.61v-3.21c0-.35-.29-.64-.64-.64" opacity=".2"/><path fill="url(#eeyvc__36yyy__paint3_linear_348_155)" d="M12.96 10.4c.35 0 .64.29.64.64v8.59c0 .35-.29.64-.64.64H8.21c-.35 0-.64-.29-.64-.64v-8.59c0-.35.29-.64.64-.64z" opacity=".1"/><path fill="url(#eeyvc__36yyy__paint4_linear_348_155)" d="M3.04 12.96c0-.35.29-.64.64-.64h7.79c.35 0 .64.29.64.64v8.16c0 .35-.29.64-.64.64H3.68c-.35 0-.64-.29-.64-.64z" opacity=".1"/><path fill="#D45029" d="M19.31 21.71v5.55c0 .35.29.64.64.64h6.73c2.04-1.83 3.6-4.17 4.49-6.83H19.95c-.35 0-.64.29-.64.64" opacity=".2"/><path fill="#F7D59B" d="M17.17 4.37c.35 0 .64-.29.64-.64V.64c0-.25-.15-.46-.36-.57-.48-.04-.97-.07-1.46-.07C11.75 0 7.9 1.67 5.03 4.37z" opacity=".2"/><path fill="#CC4521" d="M2.64 24.8 24.79 2.64a25 25 0 0 0-1.09-.67L1.98 23.7c.21.38.43.74.67 1.1z" opacity=".1"/><path fill="#F7D6A9" d="M1.3 22.31 22.31 1.3c-.42-.18-.85-.33-1.28-.48L.82 21.03c.14.44.3.86.48 1.28m-.54-1.44L20.87.76c-.45-.15-.92-.27-1.39-.37L.39 19.48c.1.47.22.94.37 1.39" opacity=".2"/><path fill="#CC4521" d="M27.83 5.26 5.25 27.83c.38.34.77.66 1.17.97L28.8 6.43c-.3-.41-.63-.8-.97-1.17" opacity=".1"/><path fill="#E1663D" d="M26.77 4.19 4.19 26.77c.34.37.7.73 1.07 1.07L27.84 5.26c-.34-.37-.7-.73-1.07-1.07" opacity=".1"/><path fill="#E1663D" d="M4.19 26.77 26.77 4.19c-.31-.28-.62-.55-.95-.81L3.38 25.82c.26.33.53.65.81.95" opacity=".2"/><path fill="#CC4521" d="M30.17 8.58c-.18-.35-.38-.68-.59-1.01-.03-.04-.05-.09-.08-.13-.22-.35-.46-.69-.71-1.02L6.42 28.8c.33.25.67.48 1.02.71.04.03.09.05.13.08.33.21.66.41 1.01.59z" opacity=".1"/><path fill="#F7D6A9" d="M13.51.21.21 13.52c-.1.64-.16 1.29-.19 1.95L15.46.03c-.66.02-1.31.09-1.95.19z" opacity=".08"/><path fill="#F7D6A9" d="M10.66.93.93 10.66c-.28.78-.5 1.58-.65 2.41L13.08.28c-.83.15-1.63.38-2.41.65z" opacity=".05"/><path fill="#F7D6A9" d="M.35 19.31 19.3.35c-.5-.1-1.01-.18-1.52-.24L.11 17.78c.06.51.14 1.02.24 1.52z" opacity=".1"/><path fill="#F7D6A9" d="M16 0c-.07 0-.13 0-.2.01L.01 15.8c0 .07-.01.13-.01.2 0 .51.03 1 .08 1.5L17.49.08C17 .03 16.5 0 16 0" opacity=".09"/><path fill="#CC4521" d="M12.43 23.73c0-.35-.29-.64-.64-.64H1.67c2.1 4.23 6 7.39 10.71 8.48.02-.07.04-.14.04-.21v-7.63z" opacity=".1"/><path fill="#F7D59B" d="M21.87 19.47c0-.35-.29-.64-.64-.64H8.96c-.35 0-.64.29-.64.64v10.57a15.94 15.94 0 0 0 13.55.83V19.46z" opacity=".1"/><path fill="url(#eeyvc__36yyy__paint5_linear_348_155)" d="M9.49 23.68V8.8c0-.35-.29-.64-.64-.64H2.06A15.9 15.9 0 0 0 0 16c0 3.05.87 5.9 2.35 8.32h6.5c.35 0 .64-.29.64-.64" opacity=".2"/><path fill="url(#eeyvc__36yyy__paint6_radial_348_155)" d="M26.69 26.02c-5.88 5.88-15.32 5.99-21.05.26S.03 11.11 5.91 5.24c5.88-5.88 15.46-6.41 21.19-.68s5.46 15.59-.41 21.47"/><path fill="url(#eeyvc__36yyy__paint7_radial_348_155)" d="M5.34 5.9C11.22.01 20.67-.11 26.4 5.62s5.6 15.18-.28 21.07-15.48 6.43-21.21.7C-.82 21.65-.55 11.78 5.34 5.9"/><path fill="url(#eeyvc__36yyy__paint8_linear_348_155)" d="m16.84 20.26.4-2.09c.61-.42 1.22-.93 1.82-1.53 2.55-2.55 3.02-7.12 3.02-7.12s-4.58.47-7.12 3.02c-.6.6-1.12 1.22-1.54 1.83l-2.09.39-1.75 1.75 2.55.69c-.09.51-.07.96.07 1.33l-.8.8.87.87.81-.81c.37.14.82.16 1.33.07l.69 2.55 1.75-1.75zm-.64-4.86a1.31 1.31 0 0 1 0-1.85 1.31 1.31 0 0 1 1.85 0c.51.51.51 1.34 0 1.85s-1.34.51-1.85 0"/><path fill="#fff" d="m16.8 19.99.4-2.09c.61-.42 1.22-.93 1.82-1.53 2.55-2.55 3.02-7.12 3.02-7.12s-4.58.47-7.12 3.02c-.6.6-1.12 1.22-1.54 1.83l-2.09.39-1.75 1.75 2.55.69c-.09.51-.07.96.07 1.33l-.8.8.87.87.81-.81c.37.14.82.16 1.33.07l.69 2.55 1.75-1.75zm-.65-4.86a1.31 1.31 0 0 1 0-1.85 1.31 1.31 0 0 1 1.85 0c.51.51.51 1.34 0 1.85s-1.34.51-1.85 0M5.45 26.38l5.7-5.7c.15-.15.15-.4 0-.55a.39.39 0 0 0-.55 0l-5.7 5.7zm-.85-.84 4.61-4.61c.15-.15.15-.4 0-.55a.39.39 0 0 0-.55 0l-4.61 4.61zm1.69 1.68 4.61-4.61c.15-.15.15-.4 0-.55a.39.39 0 0 0-.55 0l-4.61 4.61z"/><path fill="#FFD384" d="M16.02 1.4c8.05 0 14.6 6.55 14.6 14.6s-6.55 14.6-14.6 14.6S1.42 24.05 1.42 16 7.97 1.4 16.02 1.4m0-1.4c-8.84 0-16 7.16-16 16s7.16 16 16 16 16-7.16 16-16-7.16-16-16-16"/></g><defs><linearGradient id="eeyvc__36yyy__paint2_linear_348_155" x1="22.83" x2="22.83" y1="13.81" y2="0" gradientUnits="userSpaceOnUse"><stop stop-color="#CC4521" stop-opacity="0"/><stop offset="1" stop-color="#CC4521"/></linearGradient><linearGradient id="eeyvc__36yyy__paint3_linear_348_155" x1="10.59" x2="10.59" y1="10.4" y2="19.52" gradientUnits="userSpaceOnUse"><stop stop-color="#CC4521"/><stop offset="1" stop-color="#CC4521" stop-opacity="0"/></linearGradient><linearGradient id="eeyvc__36yyy__paint4_linear_348_155" x1="3.04" x2="11.42" y1="17.04" y2="17.04" gradientUnits="userSpaceOnUse"><stop stop-color="#CC4521"/><stop offset="1" stop-color="#CC4521" stop-opacity="0"/></linearGradient><linearGradient id="eeyvc__36yyy__paint5_linear_348_155" x1="4.75" x2="4.75" y1="24.32" y2="8.16" gradientUnits="userSpaceOnUse"><stop stop-color="#F9E099" stop-opacity="0"/><stop offset="1" stop-color="#F9E099"/></linearGradient><linearGradient id="eeyvc__36yyy__paint8_linear_348_155" x1="30.83" x2="15.27" y1="36.42" y2="12.14" gradientUnits="userSpaceOnUse"><stop stop-color="#FFB66B" stop-opacity="0"/><stop offset=".09" stop-color="#FFB167" stop-opacity=".01"/><stop offset=".25" stop-color="#FFA55D" stop-opacity=".032"/><stop offset=".46" stop-color="#FF914C" stop-opacity=".144"/><stop offset=".73" stop-color="#FF7635" stop-opacity=".449"/><stop offset="1" stop-color="#FF571C"/></linearGradient><radialGradient id="eeyvc__36yyy__paint0_radial_348_155" cx="0" cy="0" r="1" gradientTransform="rotate(54.17 23.537 23.561)scale(24.854)" gradientUnits="userSpaceOnUse"><stop stop-color="#F8D79C"/><stop offset="1" stop-color="#DB6443"/></radialGradient><radialGradient id="eeyvc__36yyy__paint1_radial_348_155" cx="0" cy="0" r="1" gradientTransform="rotate(54.17 23.537 23.561)scale(24.854)" gradientUnits="userSpaceOnUse"><stop stop-color="#F8D79C"/><stop offset="1" stop-color="#DB6443"/></radialGradient><radialGradient id="eeyvc__36yyy__paint6_radial_348_155" cx="0" cy="0" r="1" gradientTransform="rotate(135 5.02 11.179)scale(15.1674 14.7213)" gradientUnits="userSpaceOnUse"><stop stop-color="#FFB66B" stop-opacity="0"/><stop offset=".75" stop-color="#FFA73B" stop-opacity="0"/><stop offset=".82" stop-color="#FFA431" stop-opacity="0"/><stop offset=".84" stop-color="#FFA330" stop-opacity=".01"/><stop offset=".87" stop-color="#FFA230" stop-opacity=".01"/><stop offset=".89" stop-color="#FF9F30" stop-opacity=".017"/><stop offset=".91" stop-color="#FF9C30" stop-opacity=".053"/><stop offset=".93" stop-color="#FF9730" stop-opacity=".13"/><stop offset=".95" stop-color="#FF922F" stop-opacity=".27"/><stop offset=".97" stop-color="#FF8B2F" stop-opacity=".504"/><stop offset=".99" stop-color="#FF842F" stop-opacity=".846"/><stop offset="1" stop-color="#FF822F"/></radialGradient><radialGradient id="eeyvc__36yyy__paint7_radial_348_155" cx="0" cy="0" r="1" gradientTransform="rotate(-45 27.565 -10.545)scale(15.1674 14.7213)" gradientUnits="userSpaceOnUse"><stop stop-color="#FFB66B" stop-opacity="0"/><stop offset=".68" stop-color="#FFA963" stop-opacity="0"/><stop offset=".81" stop-color="red" stop-opacity="0"/><stop offset=".84" stop-color="#FE0100" stop-opacity=".01"/><stop offset=".87" stop-color="#FD0600" stop-opacity=".01"/><stop offset=".9" stop-color="#FA0F00" stop-opacity=".022"/><stop offset=".92" stop-color="#F71A00" stop-opacity=".073"/><stop offset=".95" stop-color="#F22A00" stop-opacity=".176"/><stop offset=".98" stop-color="#ED3C00" stop-opacity=".36"/><stop offset="1" stop-color="#E85000" stop-opacity=".8"/></radialGradient><clipPath id="eeyvc__36yyy__clip0_348_155"><path fill="#fff" d="M0 0h32.02v32H0z"/></clipPath></defs></g></g><defs><linearGradient id="eeyvc__paint0_linear_42_5" x1="26.976" x2="6.592" y1="4.32" y2="28.352" gradientUnits="userSpaceOnUse"><stop stop-color="#B6509E"/><stop offset="1" stop-color="#2EBAC6"/></linearGradient><clipPath id="eeyvc__circleClip"><circle cx="16" cy="16" r="13"/></clipPath></defs></svg>