<svg xmlns="http://www.w3.org/2000/svg" width="32" height="32" fill="none" viewBox="0 0 32 32"><path fill="url(#da6u__paint0_linear_42_5)" fill-rule="evenodd" d="m31.951 17.257-1.994-.155a14 14 0 0 0 0-2.204l1.994-.155a16 16 0 0 1 0 2.514m-.39-4.994-1.945.466q-.26-1.08-.677-2.087l1.847-.767q.478 1.154.775 2.388M29.644 7.64 27.94 8.686a14 14 0 0 0-1.293-1.778l1.52-1.3a16 16 0 0 1 1.477 2.031m-3.253-3.806-1.3 1.52a14 14 0 0 0-1.777-1.293l1.047-1.704q1.076.661 2.03 1.477m-4.266-2.619-.767 1.848a14 14 0 0 0-2.087-.678l.466-1.945c.822.196 1.62.457 2.388.775M17.257.05l-.155 1.994a14 14 0 0 0-2.204 0L14.743.049a16 16 0 0 1 2.514 0m-4.994.39.466 1.945q-1.08.26-2.087.678l-.767-1.848A16 16 0 0 1 12.263.44M7.64 2.356 8.686 4.06a14 14 0 0 0-1.778 1.293l-1.3-1.52A16 16 0 0 1 7.64 2.356M3.833 5.609l1.52 1.3A14 14 0 0 0 4.06 8.685L2.356 7.639q.661-1.076 1.477-2.03M1.214 9.875l1.848.767a14 14 0 0 0-.678 2.087l-1.945-.466c.196-.822.457-1.62.775-2.388M.05 14.743a16 16 0 0 0 0 2.514l1.994-.155a14 14 0 0 1 0-2.204zm.39 4.994 1.945-.466q.26 1.08.678 2.087l-1.848.767a16 16 0 0 1-.775-2.388m1.917 4.624 1.704-1.047q.579.941 1.293 1.778l-1.52 1.3a16 16 0 0 1-1.477-2.031m3.253 3.806 1.3-1.52q.835.714 1.777 1.293l-1.047 1.704a16 16 0 0 1-2.03-1.477m4.266 2.619.767-1.848q1.007.42 2.087.678l-.466 1.945a16 16 0 0 1-2.388-.775m4.868 1.165.155-1.994a14 14 0 0 0 2.204 0l.155 1.994a16 16 0 0 1-2.514 0m4.994-.39-.466-1.945q1.08-.26 2.087-.677l.767 1.847a16 16 0 0 1-2.388.775m4.624-1.917-1.047-1.704q.941-.579 1.778-1.293l1.3 1.52a16 16 0 0 1-2.031 1.477m3.806-3.253-1.52-1.3a14 14 0 0 0 1.293-1.777l1.704 1.047q-.661 1.076-1.477 2.03m2.619-4.266-1.848-.767q.42-1.007.678-2.087l1.945.466a16 16 0 0 1-.775 2.388" clip-rule="evenodd"/><g clip-path="url(#da6u__circleClip)"><g style="transform:scale(.8125);transform-origin:50% 50%"><g clip-path="url(#da6u__3srvo__clip0_297_171)"><path fill="#fff" d="M32 16c0 8.84-7.16 16-16 16S0 24.84 0 16 7.16 0 16 0s16 7.16 16 16"/><path fill="#51377C" d="M27.78 21.95 16.97 2.56c-.19-.35-.55-.56-.94-.56s-.76.22-.94.56L4.28 21.95c-.28.51-.11 1.15.38 1.45l10.82 6.47c.35.2.78.2 1.12 0l10.81-6.46c.49-.31.65-.95.36-1.46zm-8.18-7.82-.26-.22-.02-.02c-.08-.07-.17-.13-.26-.19l-.02-.02c-.09-.06-.18-.12-.28-.18-.02 0-.02-.02-.03-.02-.09-.06-.18-.1-.28-.15-.02 0-.02-.02-.03-.02-.09-.05-.19-.09-.29-.13-.02 0-.02-.02-.03-.02-.09-.03-.18-.07-.26-.1-.24-.09-.49-.16-.74-.21-.19.36-.45.69-.75.97.45.03.88.14 1.3.31.23.1.46.22.68.36.01 0 .02 0 .03.02.06.03.11.07.16.12.03.02.05.03.07.06.05.03.1.08.15.12.03.03.06.05.09.07.05.05.09.07.13.12l.3.3s.07.08.1.12c.03.03.06.07.09.1l.09.13s.05.08.07.12l.09.13s.05.08.07.12c.03.05.05.09.07.13.03.05.05.09.07.13.02.05.05.09.06.13.02.06.05.11.07.16.12.3.21.62.25.94l.13.52c.06.22.59 2.11 1.83 2.74 1.42.74 3.29 1.65 4.03 2l-9.71 5.81V24.6c0-.63 1.25-1.37 1.83-1.62l.03-.02c.12-.06.24-.12.36-.19l.05-.03c.25-.15.49-.32.71-.52.02-.02.05-.03.06-.06.03-.02.05-.05.07-.06.07-.06.13-.13.21-.19l.03-.03q.12-.105.21-.24c.02-.03.05-.05.06-.07.06-.07.11-.13.16-.21.02-.02.03-.05.05-.06l.18-.26s.02-.02.02-.03c.07-.12.15-.25.22-.37-.27-.34-.5-.7-.69-1.09-.08.22-.17.43-.28.63-.05.09-.1.18-.15.26-.02.02-.02.03-.03.03l-.15.21c-.02.02-.03.05-.05.06-.05.07-.1.13-.16.19-.02.02-.02.03-.03.03-.36.4-.79.73-1.27.97l-.09.05c-.25.1-2.42 1.09-2.42 2.58v3.98l-9.73-5.79c.63-.38 2.46-1.48 3.97-1.95.59-.19 1.84.6 2.55 1.18l.05.05c.09.09.19.18.29.25l.03.03c.22.19.47.35.72.49l.18.09s.02 0 .03.02c.16.09.33.17.5.24.02.01.05.02.07.03.02 0 .03.02.06.02.25.09.5.16.75.22.2-.37.46-.69.77-.97a4.6 4.6 0 0 1-1.21-.26c-.02-.02-.05-.02-.06-.03a.3.3 0 0 1-.13-.06c-.02-.02-.05-.02-.06-.03-.05-.02-.09-.05-.12-.06a4 4 0 0 1-.81-.52l-.38-.36a8 8 0 0 0-1.15-.83c-.96-.55-1.77-.72-2.39-.53-1.28.41-2.74 1.19-3.63 1.71l9.72-17.46v7.65c0 .26-.4.97-1.74 1.58l-.09.05c-.13.06-.25.13-.38.21l-.03.02a5.3 5.3 0 0 0-1.12.9l-.02.02c-.13.13-.25.27-.36.41l-.02.02c-.06.07-.1.15-.16.22 0 .02-.02.02-.02.03-.05.07-.09.13-.13.21 0 .02-.02.02-.02.03l-.13.22s-.02.03-.03.06c-.05.07-.07.15-.1.21 0 .01 0 .02-.02.03-.03.07-.06.13-.09.21-.01.02-.02.05-.03.07l-.09.22s-.02.05-.03.07c-.01.06-.03.11-.06.16l-.03.09c-.02.07-.05.15-.06.21l-.03.1c-.02.05-.02.1-.03.15-.02.05-.02.09-.03.13-.02.06-.02.12-.03.18 0 .05-.02.07-.02.12 0 .06-.02.1-.02.16 0 .05 0 .11-.02.16v.22c0 .27.02.53.06.8.42.11.83.26 1.21.46-.12-.39-.18-.79-.19-1.19v-.07c0-.1 0-.2.02-.29v-.07c0-.08.01-.17.03-.25v-.03c.02-.09.03-.18.05-.28 0-.03.02-.05.02-.07.02-.07.05-.15.06-.22 0-.02.02-.03.02-.05l.09-.26s.02-.05.03-.06c.03-.07.06-.15.09-.21.02-.02.02-.03.03-.06a3 3 0 0 1 .16-.29c.05-.07.07-.13.12-.21a2 2 0 0 1 .19-.27h.01c.06-.07.1-.13.16-.21.01-.01.02-.03.03-.05.27-.29.57-.55.9-.77l.46-.22c.25-.1 2.41-1.12 2.41-2.61V4.04l9.81 17.61c-.87-.43-2.42-1.19-3.61-1.81-.69-.36-1.15-1.61-1.28-2.07l-.13-.53c-.01-.29-.07-.57-.16-.84-.31-.88-.84-1.66-1.54-2.27"/></g><defs><clipPath id="da6u__3srvo__clip0_297_171"><path fill="#fff" d="M0 0h32v32H0z"/></clipPath></defs></g></g><defs><linearGradient id="da6u__paint0_linear_42_5" x1="26.976" x2="6.592" y1="4.32" y2="28.352" gradientUnits="userSpaceOnUse"><stop stop-color="#B6509E"/><stop offset="1" stop-color="#2EBAC6"/></linearGradient><clipPath id="da6u__circleClip"><circle cx="16" cy="16" r="13"/></clipPath></defs></svg>