<svg xmlns="http://www.w3.org/2000/svg" width="32" height="32" fill="none" viewBox="0 0 32 32"><path fill="url(#maimimatic__paint0_linear_42_5)" fill-rule="evenodd" d="m31.951 17.257-1.994-.155a14 14 0 0 0 0-2.204l1.994-.155a16 16 0 0 1 0 2.514m-.39-4.994-1.945.466q-.26-1.08-.677-2.087l1.847-.767q.478 1.154.775 2.388M29.644 7.64 27.94 8.686a14 14 0 0 0-1.293-1.778l1.52-1.3a16 16 0 0 1 1.477 2.031m-3.253-3.806-1.3 1.52a14 14 0 0 0-1.777-1.293l1.047-1.704q1.076.661 2.03 1.477m-4.266-2.619-.767 1.848a14 14 0 0 0-2.087-.678l.466-1.945c.822.196 1.62.457 2.388.775M17.257.05l-.155 1.994a14 14 0 0 0-2.204 0L14.743.049a16 16 0 0 1 2.514 0m-4.994.39.466 1.945q-1.08.26-2.087.678l-.767-1.848A16 16 0 0 1 12.263.44M7.64 2.356 8.686 4.06a14 14 0 0 0-1.778 1.293l-1.3-1.52A16 16 0 0 1 7.64 2.356M3.833 5.609l1.52 1.3A14 14 0 0 0 4.06 8.685L2.356 7.639q.661-1.076 1.477-2.03M1.214 9.875l1.848.767a14 14 0 0 0-.678 2.087l-1.945-.466c.196-.822.457-1.62.775-2.388M.05 14.743a16 16 0 0 0 0 2.514l1.994-.155a14 14 0 0 1 0-2.204zm.39 4.994 1.945-.466q.26 1.08.678 2.087l-1.848.767a16 16 0 0 1-.775-2.388m1.917 4.624 1.704-1.047q.579.941 1.293 1.778l-1.52 1.3a16 16 0 0 1-1.477-2.031m3.253 3.806 1.3-1.52q.835.714 1.777 1.293l-1.047 1.704a16 16 0 0 1-2.03-1.477m4.266 2.619.767-1.848q1.007.42 2.087.678l-.466 1.945a16 16 0 0 1-2.388-.775m4.868 1.165.155-1.994a14 14 0 0 0 2.204 0l.155 1.994a16 16 0 0 1-2.514 0m4.994-.39-.466-1.945q1.08-.26 2.087-.677l.767 1.847a16 16 0 0 1-2.388.775m4.624-1.917-1.047-1.704q.941-.579 1.778-1.293l1.3 1.52a16 16 0 0 1-2.031 1.477m3.806-3.253-1.52-1.3a14 14 0 0 0 1.293-1.777l1.704 1.047q-.661 1.076-1.477 2.03m2.619-4.266-1.848-.767q.42-1.007.678-2.087l1.945.466a16 16 0 0 1-.775 2.388" clip-rule="evenodd"/><g clip-path="url(#maimimatic__circleClip)"><g style="transform:scale(.8125);transform-origin:50% 50%"><g clip-path="url(#maimimatic__clip0_298_258)"><path fill="url(#maimimatic__paint0_linear_298_258)" d="M16 32c8.837 0 16-7.163 16-16S24.837 0 16 0 0 7.163 0 16s7.163 16 16 16"/><path stroke="url(#maimimatic__paint1_linear_298_258)" stroke-miterlimit="5.12" stroke-width=".75" d="M16 28.81c7.075 0 12.81-5.735 12.81-12.81S23.075 3.19 16 3.19 3.19 8.925 3.19 16 8.925 28.81 16 28.81Z"/><path fill="#fff" d="M24.61 17.54h-2.56v-2.29h2.56v-1.84h-2.56V9.68h-1.56l-1.77 3.73h-5.64l-1.76-3.73H9.74v3.73H7.18v1.84h2.56v2.29H7.18v1.84h2.56v3.12h1.74v-3.12H14l1.47 3.12h.86l1.46-3.12h2.51v3.12h1.74v-3.12h2.56v-1.84zm-6.76-2.29-1.09 2.29h-1.74l-1.08-2.29zm-6.37 2.29v-2.29h.58l1.08 2.29zm7.17 0 1.08-2.29h.57v2.29z"/></g><defs><linearGradient id="maimimatic__paint0_linear_298_258" x1="16.002" x2="16.002" y1=".004" y2="32.004" gradientUnits="userSpaceOnUse"><stop stop-color="#F1A9AB"/><stop offset=".21" stop-color="#EA8285"/><stop offset=".52" stop-color="#E65E5F"/><stop offset="1" stop-color="#EB676A"/></linearGradient><linearGradient id="maimimatic__paint1_linear_298_258" x1="16.002" x2="16.002" y1="2.756" y2="29.239" gradientUnits="userSpaceOnUse"><stop stop-color="#D03B38"/><stop offset="1" stop-color="#EE8E90"/></linearGradient><clipPath id="maimimatic__clip0_298_258"><path fill="#fff" d="M0 0h32v32H0z"/></clipPath></defs></g></g><defs><linearGradient id="maimimatic__paint0_linear_42_5" x1="26.976" x2="6.592" y1="4.32" y2="28.352" gradientUnits="userSpaceOnUse"><stop stop-color="#B6509E"/><stop offset="1" stop-color="#2EBAC6"/></linearGradient><clipPath id="maimimatic__circleClip"><circle cx="16" cy="16" r="13"/></clipPath></defs></svg>