<svg width="32" height="32" fill="none" viewBox="0 0 32 32" xmlns="http://www.w3.org/2000/svg"><path fill="url(#stataeurs__paint0_linear_42_5)" fill-rule="evenodd" d="m31.951 17.257-1.994-.155a14 14 0 0 0 0-2.204l1.994-.155a16 16 0 0 1 0 2.514m-.39-4.994-1.945.466q-.26-1.08-.677-2.087l1.847-.767q.478 1.154.775 2.388M29.644 7.64 27.94 8.686a14 14 0 0 0-1.293-1.778l1.52-1.3a16 16 0 0 1 1.477 2.031m-3.253-3.806-1.3 1.52a14 14 0 0 0-1.777-1.293l1.047-1.704q1.076.661 2.03 1.477m-4.266-2.619-.767 1.848a14 14 0 0 0-2.087-.678l.466-1.945c.822.196 1.62.457 2.388.775M17.257.05l-.155 1.994a14 14 0 0 0-2.204 0L14.743.049a16 16 0 0 1 2.514 0m-4.994.39.466 1.945q-1.08.26-2.087.678l-.767-1.848A16 16 0 0 1 12.263.44M7.64 2.356 8.686 4.06a14 14 0 0 0-1.778 1.293l-1.3-1.52A16 16 0 0 1 7.64 2.356M3.833 5.609l1.52 1.3A14 14 0 0 0 4.06 8.685L2.356 7.639q.661-1.076 1.477-2.03M1.214 9.875l1.848.767a14 14 0 0 0-.678 2.087l-1.945-.466c.196-.822.457-1.62.775-2.388M.05 14.743a16 16 0 0 0 0 2.514l1.994-.155a14 14 0 0 1 0-2.204zm.39 4.994 1.945-.466q.26 1.08.678 2.087l-1.848.767a16 16 0 0 1-.775-2.388m1.917 4.624 1.704-1.047q.579.941 1.293 1.778l-1.52 1.3a16 16 0 0 1-1.477-2.031m3.253 3.806 1.3-1.52q.835.714 1.777 1.293l-1.047 1.704a16 16 0 0 1-2.03-1.477m4.266 2.619.767-1.848q1.007.42 2.087.678l-.466 1.945a16 16 0 0 1-2.388-.775m4.868 1.165.155-1.994a14 14 0 0 0 2.204 0l.155 1.994a16 16 0 0 1-2.514 0m4.994-.39-.466-1.945q1.08-.26 2.087-.677l.767 1.847a16 16 0 0 1-2.388.775m4.624-1.917-1.047-1.704q.941-.579 1.778-1.293l1.3 1.52a16 16 0 0 1-2.031 1.477m3.806-3.253-1.52-1.3a14 14 0 0 0 1.293-1.777l1.704 1.047q-.661 1.076-1.477 2.03m2.619-4.266-1.848-.767q.42-1.007.678-2.087l1.945.466a16 16 0 0 1-.775 2.388" clip-rule="evenodd"/><g clip-path="url(#stataeurs__circleClip)"><g style="transform:scale(.8125);transform-origin:50% 50%"><g clip-path="url(#stataeurs__stasiseurstoken__clip0_292_205)"><path fill="#fff" d="M16 32c8.837 0 16-7.163 16-16S24.837 0 16 0 0 7.163 0 16s7.163 16 16 16"/><path fill="url(#stataeurs__stasiseurstoken__paint0_linear_292_205)" fill-rule="evenodd" d="M27.1 27.52c3.02-2.91 4.9-7 4.9-11.52 0-5.35-2.62-10.08-6.65-12.99-5.55.63-10.16 3.21-11.75 6.91h14.88l-1.68 3.84h-14s-.09 1.47-.08 2.16c.01 1 .08 2.16.08 2.16h12.16l-1.6 3.71h-8.88c1.76 3.32 6.71 5.72 12.62 5.73" clip-rule="evenodd"/><path fill="url(#stataeurs__stasiseurstoken__paint1_linear_292_205)" fill-rule="evenodd" d="M22.43 30.65C20.46 31.52 18.28 32 16 32 7.16 32 0 24.84 0 16S7.16 0 16 0c1.47 0 2.89.2 4.23.57-5.18.95-9.44 4.55-11.34 9.35h-3.3l-1.68 3.84h4.24v2.25c0 .19.02.38.05 2.07H5.43l-1.52 3.71h5.26c2.2 4.97 6.14 7.91 13.25 8.86z" clip-rule="evenodd"/></g><defs><linearGradient id="stataeurs__stasiseurstoken__paint0_linear_292_205" x1="-9.525" x2="19.499" y1="33.514" y2="4.236" gradientUnits="userSpaceOnUse"><stop offset=".33" stop-color="#15BCFF"/><stop offset=".66" stop-color="#406BEE"/><stop offset=".93" stop-color="#AE3EEB"/></linearGradient><linearGradient id="stataeurs__stasiseurstoken__paint1_linear_292_205" x1="3.6" x2="25.44" y1="25.34" y2="8.33" gradientUnits="userSpaceOnUse"><stop offset=".33" stop-color="#15BCFF"/><stop offset=".66" stop-color="#406BEE"/><stop offset=".93" stop-color="#AE3EEB"/></linearGradient><clipPath id="stataeurs__stasiseurstoken__clip0_292_205"><path fill="#fff" d="M0 0h32v32H0z"/></clipPath></defs></g></g><defs><linearGradient id="stataeurs__paint0_linear_42_5" x1="26.976" x2="6.592" y1="4.32" y2="28.352" gradientUnits="userSpaceOnUse"><stop stop-color="#B6509E"/><stop offset="1" stop-color="#2EBAC6"/></linearGradient><clipPath id="stataeurs__circleClip"><circle cx="16" cy="16" r="13"/></clipPath></defs></svg>