<svg xmlns="http://www.w3.org/2000/svg" width="33" height="33" fill="none"><mask id="a" width="33" height="33" x="0" y="0" maskUnits="userSpaceOnUse" style="mask-type:luminance"><path fill="#fff" d="M32.14.07h-32v32h32z"/></mask><g mask="url(#a)"><mask id="b" width="33" height="33" x="0" y="0" maskUnits="userSpaceOnUse" style="mask-type:luminance"><path fill="#fff" d="M32.14.07h-32v32h32z"/></mask><g mask="url(#b)"><path fill="#fff" d="M16.14 32.07c8.84 0 16-7.16 16-16s-7.17-16-16-16-16 7.16-16 16 7.16 16 16 16"/><path fill="#000" d="M16.11 32.07V9.02c-1.94 0-3.5-.53-3.5-1.18 0-.48.87-.9 2.11-1.08.47.09.95.14 1.43.14.47 0 .94-.04 1.4-.13h.03c1.24.18 2.11.59 2.11 1.07 0 .64-1.54 1.17-3.45 1.18v23.06h-.12zM13.32 5.71c0-.42.81-.77 1.93-.9.58.09 1.18.09 1.76 0h.03c1.12.12 1.93.47 1.93.89 0 .52-1.27.94-2.83.94s-2.83-.42-2.83-.94zm.71-1.73c0-.39.95-.71 2.12-.71s2.12.32 2.12.71-.95.71-2.12.71-2.12-.32-2.12-.71m2.08-.77V.08h.13V3.2h-.13z"/><path fill="url(#c)" d="M16.13 32.07c-3.19 0-6.3-.95-8.94-2.73a16.14 16.14 0 0 1-5.8-7.04q-.615-1.455-.93-3c-.43-2.13-.43-4.32 0-6.45.42-2.05 1.24-3.99 2.41-5.72 1.74-2.57 4.18-4.59 7.04-5.8q1.455-.615 3-.93c2.13-.43 4.32-.43 6.45 0 2.05.42 3.99 1.24 5.72 2.41a16.14 16.14 0 0 1 5.8 7.04q.615 1.455.93 3c.43 2.13.43 4.32 0 6.45-.42 2.05-1.24 3.99-2.41 5.72a16.14 16.14 0 0 1-7.04 5.8c-1.97.83-4.09 1.26-6.23 1.26zm0-30.74c-2.94 0-5.81.87-8.24 2.52-2.37 1.6-4.23 3.85-5.34 6.49-.38.89-.67 1.82-.86 2.77-.4 1.96-.4 3.98 0 5.94a14.6 14.6 0 0 0 2.22 5.27 14.72 14.72 0 0 0 9.26 6.2c1.96.4 3.98.4 5.94 0a14.6 14.6 0 0 0 5.27-2.22c2.37-1.6 4.23-3.85 5.34-6.49.38-.89.67-1.82.86-2.77.4-1.96.4-3.98 0-5.94a14.6 14.6 0 0 0-2.22-5.27c-1.6-2.37-3.85-4.23-6.49-5.34a14.7 14.7 0 0 0-5.74-1.16"/><mask id="d" width="11" height="11" x="18" y="13" maskUnits="userSpaceOnUse" style="mask-type:luminance"><path fill="#fff" d="M28.26 13.45h-10v10h10z"/></mask><g mask="url(#d)"><path fill="#48A0F7" d="M28.26 18.45c0-2.76-2.24-5-5-5s-5 2.24-5 5 2.24 5 5 5 5-2.24 5-5"/><path fill="#fff" d="m25.31 18.09.06.09c.63.97.49 2.24-.34 3.05-.47.46-1.11.72-1.77.72l2.05-3.85z" opacity=".6"/><path fill="#fff" d="m23.26 19.26 2.05-1.17-2.05 3.85z" opacity=".2"/><path fill="#fff" d="m21.21 18.09-.06.09c-.63.97-.49 2.24.34 3.05.47.46 1.11.72 1.77.72l-2.05-3.85z"/><path fill="#fff" d="m23.26 19.26-2.05-1.17 2.05 3.85z" opacity=".6"/><path fill="#fff" d="M23.26 16.65v2.02l1.77-1.01z" opacity=".2"/><path fill="#fff" d="m23.26 16.65-1.77 1.01 1.77 1.01z" opacity=".6"/><path fill="#fff" d="m23.26 14.95-1.77 2.71 1.77-1.01z"/><path fill="#fff" d="m23.26 16.65 1.77 1.01-1.77-2.71z" opacity=".6"/></g><path fill="url(#e)" d="M8.75 23.45c2.76 0 5-2.24 5-5s-2.24-5-5-5-5 2.24-5 5 2.24 5 5 5"/><path fill="#fff" d="m10.94 20.45-1.69-4.09a.45.45 0 0 0-.42-.31h-.15a.45.45 0 0 0-.42.31l-.74 1.78h-.56a.3.3 0 0 0-.3.3c0 .17.14.31.3.31h.3l-.7 1.7s-.02.08-.02.12c0 .08.03.17.08.23.06.06.14.09.22.09q.09 0 .18-.06c.05-.04.1-.09.12-.15l.77-1.92h.54a.3.3 0 0 0 .3-.3c0-.18-.14-.31-.3-.31h-.29l.59-1.47 1.61 4q.045.09.12.15t.18.06c.08 0 .17-.03.22-.09.06-.06.09-.14.08-.23 0-.04 0-.08-.02-.12"/></g></g><defs><linearGradient id="c" x1="22.27" x2="9.85" y1="3.41" y2="29.03" gradientUnits="userSpaceOnUse"><stop stop-color="#A85699"/><stop offset="1" stop-color="#5DB6C3"/></linearGradient><linearGradient id="e" x1="12.48" x2="5.04" y1="15.32" y2="21.57" gradientUnits="userSpaceOnUse"><stop stop-color="#A85699"/><stop offset="1" stop-color="#5DB6C3"/></linearGradient></defs></svg>