<svg width="32" height="32" fill="none" viewBox="0 0 32 32" xmlns="http://www.w3.org/2000/svg"><path fill="url(#stkcbeth__stk_full_gradient)" d="M19.91.49 19.5 1.9a14.5 14.5 0 0 0-6.96-.01l-.41-1.4C5.17 2.21 0 8.51 0 16c0 1.5.21 2.96.6 4.33l1.46-.35A14.44 14.44 0 0 0 5.54 26l-1.05 1.1C7.4 30.12 11.48 32 16 32s8.57-1.87 11.48-4.87l-1.06-1.11a14.4 14.4 0 0 0 3.48-6l1.49.36c.4-1.39.61-2.86.61-4.38C32 8.53 26.85 2.24 19.91.49M16.02 29.5c-7.46 0-13.5-6.04-13.5-13.5S8.56 2.5 16.02 2.5s13.5 6.04 13.5 13.5-6.04 13.5-13.5 13.5"/><g clip-path="url(#stkcbeth__circleClip)"><g style="transform:scale(.8125);transform-origin:50% 50%"><g clip-path="url(#stkcbeth__coinbasewrappedstakedeth__clip0_292_184)"><path fill="#fff" d="M31.78 16.11C31.78 7.33 24.67.22 15.89.22S0 7.33 0 16.11 7.11 32 15.89 32s15.89-7.11 15.89-15.89"/><path fill="#0052FF" d="M15.89 4.77 9.17 16.11l6.72-3.12z"/><path fill="#6697FF" d="M15.89 20.12 9.17 16.1l6.72-3.1v7.13z"/><path fill="#0052FF" d="m15.89 21.43-6.71-4.02 6.71 9.6z"/><path fill="#6697FF" d="m15.89 4.77 6.72 11.34-6.72-3.12z"/><path fill="#CCDCFF" d="m15.89 20.12 6.72-4.01-6.72-3.12z"/><path fill="#6697FF" d="m15.89 21.43 6.72-3.95-6.72 9.53z"/><path fill="#0052FF" fill-rule="evenodd" d="M15.89.22C7.11.22 0 7.33 0 16.11S7.11 32 15.89 32s15.89-7.11 15.89-15.89S24.67.22 15.89.22m0 30.19c-7.9 0-14.3-6.4-14.3-14.3s6.4-14.3 14.3-14.3 14.3 6.4 14.3 14.3-6.4 14.3-14.3 14.3" clip-rule="evenodd"/></g><defs><clipPath id="stkcbeth__coinbasewrappedstakedeth__clip0_292_184"><path fill="#fff" d="M0 0h32v32H0z"/></clipPath></defs></g></g><defs><linearGradient id="stkcbeth__stk_full_gradient" x1="16" x2="16" y1="32" y2=".48" gradientUnits="userSpaceOnUse"><stop offset="0" stop-color="#614cb1"/><stop offset=".5" stop-color="#9c99f8"/><stop offset="1" stop-color="#5f48ae"/></linearGradient><clipPath id="stkcbeth__circleClip"><circle cx="16" cy="16" r="13"/></clipPath></defs></svg>