<svg xmlns="http://www.w3.org/2000/svg" width="32" height="32" fill="none" viewBox="0 0 32 32"><g clip-path="url(#cjcn9__clip0_292_25)"><path fill="#201F2D" d="M16 0c8.84 0 16 7.16 16 16s-7.16 16-16 16S0 24.84 0 16 7.16 0 16 0"/><path fill="#A795D0" d="m25.02 7.41-8.78-2.63a.6.6 0 0 0-.38 0L7.08 7.41a.63.63 0 0 0-.34.24c-.08.11-.13.25-.13.39v9.65c0 1.26.51 2.54 1.51 3.82.77.98 1.83 1.96 3.15 2.92a28.3 28.3 0 0 0 4.51 2.64.63.63 0 0 0 .54 0 28.3 28.3 0 0 0 4.51-2.64c1.32-.96 2.38-1.94 3.15-2.92 1-1.28 1.51-2.57 1.51-3.82V8.04c0-.14-.05-.28-.13-.39s-.2-.2-.34-.24"/><path fill="#201F2D" fill-rule="evenodd" d="m22.25 18.51-1.94-3.25h-2.44l1.96 3.25h-4.88c-1.76 0-3.09-1.47-3.09-3.25s1.33-3.25 3.09-3.25h4.2l-1.2-2h-3c-2.82 0-5.19 2.36-5.19 5.26s2.38 5.24 5.19 5.24h7.31m-6.58-6.74c0 .55-.44 1-.98 1s-.98-.45-.98-1 .44-1 .98-1 .98.45.98 1m-.98 3.78c.54 0 .98-.45.98-1s-.44-1-.98-1-.98.45-.98 1 .44 1 .98 1" clip-rule="evenodd"/></g><defs><clipPath id="cjcn9__clip0_292_25"><path fill="#fff" d="M0 0h32v32H0z"/></clipPath></defs></svg>