<svg width="32" height="32" fill="none" viewBox="0 0 32 32" xmlns="http://www.w3.org/2000/svg"><path fill="#FFB800" d="M11.35 2.79c1.46-.51 3.02-.81 4.65-.81s3.22.3 4.68.82L21.83.04C21.7.02 21.56 0 21.42 0H10.58c-.12 0-.25.02-.37.04zM3.36 9.96c1.38-2.88 3.71-5.22 6.59-6.6L8.81.6c-.1.08-.21.15-.3.25L.85 8.52c-.09.09-.17.2-.24.3z"/><path fill="#9896FF" d="M30.02 16c0 1.65-.3 3.23-.82 4.7l2.76 1.15c.02-.14.04-.28.04-.42V10.59c0-.11-.02-.22-.03-.33l-2.74 1.13c.51 1.45.8 3 .8 4.62z"/><path fill="#FFB800" d="m23.21.63-1.14 2.75c2.88 1.39 5.21 3.72 6.58 6.61l2.76-1.14c-.08-.11-.17-.23-.27-.33L23.48.85C23.4.77 23.3.7 23.21.63M1.98 16c0-1.63.29-3.19.81-4.65L.04 10.21c-.02.12-.04.24-.04.37v10.84c0 .13.02.26.04.38l2.75-1.14c-.52-1.46-.81-3.03-.81-4.67z"/><path fill="#9896FF" d="M28.62 22.08a14.07 14.07 0 0 1-6.59 6.56l1.14 2.76c.11-.08.22-.16.32-.26l7.67-7.67c.08-.08.14-.17.21-.26l-2.74-1.14zM20.63 29.22c-1.45.51-3.01.8-4.63.8s-3.2-.3-4.66-.81l-1.14 2.75c.13.02.25.04.39.04h10.84c.12 0 .23-.02.35-.03l-1.13-2.75zM8.81 31.38l1.14-2.75c-2.87-1.38-5.2-3.7-6.58-6.57L.62 23.2c.08.1.15.2.24.29l7.67 7.67c.09.09.19.16.29.24z"/><g clip-path="url(#stkstatausdc__circleClip)"><g style="transform:scale(.8125);transform-origin:50% 50%"><g clip-path="url(#stkstatausdc__usdcoin__clip0_298_785)"><path fill="#3E73C2" d="M16.08 32.1c8.837 0 16-7.163 16-16s-7.163-16-16-16-16 7.164-16 16 7.163 16 16 16"/><path fill="#fff" d="M16.08 27.85c-6.49 0-11.75-5.26-11.75-11.75S9.59 4.35 16.08 4.35 27.83 9.61 27.83 16.1s-5.26 11.75-11.75 11.75m-.7-16.11a2.59 2.59 0 0 0-2.45 2.47c0 1.21.74 2 2.31 2.33l1.1.26c1.07.25 1.51.61 1.51 1.22s-.77 1.21-1.77 1.21c-.72.07-1.42-.29-1.8-.91a.67.67 0 0 0-.61-.39h-.59a.35.35 0 0 0-.28.41c.3 1.21 1.37 2.06 2.61 2.08v.84c0 .39.32.7.7.7s.7-.32.7-.7v-.85a2.62 2.62 0 0 0 2.59-2.58c0-1.27-.73-2-2.46-2.37l-1-.22c-1-.25-1.47-.58-1.47-1.14s.6-1.18 1.6-1.18c.64-.07 1.27.25 1.59.81.13.28.41.46.72.46h.47c.22-.05.36-.28.31-.5a2.65 2.65 0 0 0-2.38-2V11c0-.39-.32-.7-.7-.7s-.7.32-.7.7zM7.27 16.1c0 3.78 2.42 7.13 6 8.33h.14c.25 0 .45-.2.45-.45v-.21c0-.38-.23-.72-.58-.87a7.36 7.36 0 0 1-4.07-9.58 7.4 7.4 0 0 1 4.07-4.07c.35-.14.58-.48.58-.86v-.23c0-.23-.18-.42-.42-.42-.05 0-.1 0-.14.02a8.78 8.78 0 0 0-6.03 8.34m17.62 0c0-3.77-2.42-7.12-6-8.32h-.15a.47.47 0 0 0-.47.47v.15c0 .39.25.75.61.9a7.357 7.357 0 0 1 4.05 9.59 7.35 7.35 0 0 1-4.05 4.05c-.36.16-.59.5-.6.89V24c0 .26.22.47.48.46.05 0 .1 0 .14-.02a8.79 8.79 0 0 0 5.99-8.34"/></g><defs><clipPath id="stkstatausdc__usdcoin__clip0_298_785"><path fill="#fff" d="M0 0h32v32H0z"/></clipPath></defs></g></g><defs><clipPath id="stkstatausdc__circleClip"><circle cx="16" cy="16" r="13"/></clipPath></defs></svg>