<svg width="32" height="32" fill="none" viewBox="0 0 32 32" xmlns="http://www.w3.org/2000/svg"><path fill="#FFB800" d="M11.35 2.79c1.46-.51 3.02-.81 4.65-.81s3.22.3 4.68.82L21.83.04C21.7.02 21.56 0 21.42 0H10.58c-.12 0-.25.02-.37.04zM3.36 9.96c1.38-2.88 3.71-5.22 6.59-6.6L8.81.6c-.1.08-.21.15-.3.25L.85 8.52c-.09.09-.17.2-.24.3zM30.02 16c0 1.65-.3 3.23-.82 4.7l2.76 1.15c.02-.14.04-.28.04-.42V10.59c0-.11-.02-.22-.03-.33l-2.74 1.13c.51 1.45.8 3 .8 4.62zM23.21.63l-1.14 2.75c2.88 1.39 5.21 3.72 6.58 6.61l2.76-1.14c-.08-.11-.17-.23-.27-.33L23.48.85C23.4.77 23.3.7 23.21.63M1.98 16c0-1.63.29-3.19.81-4.65L.04 10.21c-.02.12-.04.24-.04.37v10.84c0 .13.02.26.04.38l2.75-1.14c-.52-1.46-.81-3.03-.81-4.67zM28.62 22.08a14.07 14.07 0 0 1-6.59 6.56l1.14 2.76c.11-.08.22-.16.32-.26l7.67-7.67c.08-.08.14-.17.21-.26l-2.74-1.14zM20.63 29.22c-1.45.51-3.01.8-4.63.8s-3.2-.3-4.66-.81l-1.14 2.75c.13.02.25.04.39.04h10.84c.12 0 .23-.02.35-.03l-1.13-2.75zM8.81 31.38l1.14-2.75c-2.87-1.38-5.2-3.7-6.58-6.57L.62 23.2c.08.1.15.2.24.29l7.67 7.67c.09.09.19.16.29.24z"/><g clip-path="url(#stkscr__circleClip)"><g style="transform:scale(.8125);transform-origin:50% 50%"><path fill="#FFEEDA" d="M28.72 20.458V3.24a2.643 2.643 0 0 0-2.66-2.6H7.763C3.812.699.64 3.873.64 7.761c0 1.312.358 2.437.907 3.42.465.82 1.192 1.593 1.908 2.168.203.163.108.093.728.468a8 8 0 0 0 1.837.773l-.012 10.295c.024.492.071.96.203 1.394a4.61 4.61 0 0 0 2.827 3.104 5.8 5.8 0 0 0 1.944.387l14.614.046c2.91 0 5.272-2.319 5.272-5.188.012-1.699-.847-3.221-2.147-4.17"/><path fill="#EBC28E" d="M29.078 24.757c-.06 1.838-1.598 3.314-3.483 3.314l-10.056-.035a5.13 5.13 0 0 0 1.289-3.385c0-2.026-1.23-3.42-1.23-3.42h10.009c1.92 0 3.484 1.534 3.484 3.42z"/><path fill="#101010" d="M4.41 11.896C3.252 10.82 2.44 9.425 2.44 7.773v-.176c.096-2.822 2.458-5.094 5.332-5.177h18.3c.477.024.86.352.86.832v15.203c.417.07.62.13 1.025.27.322.117.763.363.763.363V3.252a2.643 2.643 0 0 0-2.66-2.6H7.76C3.813.71.64 3.884.64 7.773c0 2.26 1.05 4.193 2.767 5.552.12.094.227.211.537.211.537 0 .919-.422.895-.879-.012-.386-.18-.526-.43-.76"/><path fill="#101010" d="M25.597 19.45h-14.35c-.967.012-1.742.773-1.742 1.722v2.027c.024.937.835 1.733 1.801 1.733h1.063v-1.733h-1.063v-1.98h.585c1.813 0 3.149 1.651 3.149 3.42 0 1.57-1.455 3.573-3.889 3.408-2.158-.14-3.328-2.026-3.328-3.408V7.47c0-.773-.644-1.406-1.431-1.406H4.96V7.82h1.062v16.83c-.06 3.421 2.481 5.143 5.13 5.143l14.457.046c2.911 0 5.274-2.318 5.274-5.188s-2.375-5.2-5.286-5.2m3.484 5.306c-.06 1.84-1.599 3.315-3.484 3.315l-10.056-.035a5.13 5.13 0 0 0 1.288-3.385c0-2.026-1.228-3.42-1.228-3.42H25.61c1.92 0 3.483 1.534 3.483 3.42zM21.73 8.136H10.91V6.38h10.82c.489 0 .895.386.895.878 0 .48-.394.878-.895.878"/><path fill="#101010" d="M21.73 16.405H10.91v-1.757h10.82c.489 0 .895.387.895.878 0 .48-.394.88-.895.88m1.908-4.134H10.91v-1.757h12.717c.489 0 .895.386.895.878.011.48-.395.879-.884.879"/></g></g><defs><clipPath id="stkscr__circleClip"><circle cx="16" cy="16" r="13"/></clipPath></defs></svg>