<svg width="32" height="32" fill="none" viewBox="0 0 32 32" xmlns="http://www.w3.org/2000/svg"><path fill="#FFB800" d="M11.35 2.79c1.46-.51 3.02-.81 4.65-.81s3.22.3 4.68.82L21.83.04C21.7.02 21.56 0 21.42 0H10.58c-.12 0-.25.02-.37.04zM3.36 9.96c1.38-2.88 3.71-5.22 6.59-6.6L8.81.6c-.1.08-.21.15-.3.25L.85 8.52c-.09.09-.17.2-.24.3z"/><path fill="#9896FF" d="M30.02 16c0 1.65-.3 3.23-.82 4.7l2.76 1.15c.02-.14.04-.28.04-.42V10.59c0-.11-.02-.22-.03-.33l-2.74 1.13c.51 1.45.8 3 .8 4.62z"/><path fill="#FFB800" d="m23.21.63-1.14 2.75c2.88 1.39 5.21 3.72 6.58 6.61l2.76-1.14c-.08-.11-.17-.23-.27-.33L23.48.85C23.4.77 23.3.7 23.21.63M1.98 16c0-1.63.29-3.19.81-4.65L.04 10.21c-.02.12-.04.24-.04.37v10.84c0 .13.02.26.04.38l2.75-1.14c-.52-1.46-.81-3.03-.81-4.67z"/><path fill="#9896FF" d="M28.62 22.08a14.07 14.07 0 0 1-6.59 6.56l1.14 2.76c.11-.08.22-.16.32-.26l7.67-7.67c.08-.08.14-.17.21-.26l-2.74-1.14zM20.63 29.22c-1.45.51-3.01.8-4.63.8s-3.2-.3-4.66-.81l-1.14 2.75c.13.02.25.04.39.04h10.84c.12 0 .23-.02.35-.03l-1.13-2.75zM8.81 31.38l1.14-2.75c-2.87-1.38-5.2-3.7-6.58-6.57L.62 23.2c.08.1.15.2.24.29l7.67 7.67c.09.09.19.16.29.24z"/><g clip-path="url(#stkusdt__circleClip)"><g style="transform:scale(.8125);transform-origin:50% 50%"><g clip-path="url(#stkusdt__tetherusdt__clip0_298_873)"><path fill="#509E7D" d="M16.27 32.07c8.837 0 16-7.163 16-16s-7.163-16-16-16-16 7.164-16 16 7.163 16 16 16"/><path fill="#fff" fill-rule="evenodd" d="M18.19 17.46c-.11 0-.68.04-1.94.04-1.01 0-1.72-.03-1.97-.04-3.89-.17-6.79-.84-6.79-1.65s2.9-1.49 6.79-1.66v2.64c.25.02.98.06 1.99.06 1.21 0 1.81-.05 1.93-.06v-2.64c3.88.17 6.77.85 6.77 1.66s-2.9 1.48-6.77 1.66m-.01-3.6V11.5h5.41V7.89H8.86v3.61h5.41v2.36c-4.4.2-7.71 1.07-7.71 2.12s3.31 1.92 7.71 2.12v7.58h3.91V18.1c4.39-.2 7.69-1.07 7.69-2.12s-3.3-1.91-7.69-2.12" clip-rule="evenodd"/></g><defs><clipPath id="stkusdt__tetherusdt__clip0_298_873"><path fill="#fff" d="M0 0h32v32H0z"/></clipPath></defs></g></g><defs><clipPath id="stkusdt__circleClip"><circle cx="16" cy="16" r="13"/></clipPath></defs></svg>