<svg xmlns="http://www.w3.org/2000/svg" width="33" height="33" fill="none"><path fill="#fff" d="M16.63.1c8.84 0 16 7.16 16 16s-7.16 16-16 16-16-7.16-16-16 7.16-16 16-16"/><path fill="url(#a)" d="M21.94 12.47c-.41-.24-.92-.24-1.33 0l-3.05 1.82-2.07 1.18-3.05 1.82c-.41.24-.92.24-1.33 0l-2.42-1.42c-.4-.24-.65-.67-.66-1.14v-2.8c0-.48.25-.92.66-1.15l2.39-1.38c.41-.24.92-.24 1.33 0l2.38 1.38c.4.24.66.67.66 1.15v1.81l2.07-1.22V10.7c0-.47-.25-.92-.66-1.14l-4.42-2.61c-.41-.24-.92-.24-1.33 0L6.62 9.56c-.42.23-.67.67-.66 1.14v5.25c0 .47.25.92.66 1.14l4.49 2.6c.41.24.92.24 1.33 0l3.05-1.78 2.07-1.22 3.05-1.78c.41-.24.92-.24 1.33 0l2.38 1.38c.4.24.66.67.67 1.14v2.8c0 .47-.25.92-.66 1.14l-2.38 1.42c-.41.24-.92.24-1.33 0l-2.38-1.38c-.4-.24-.66-.67-.66-1.15v-1.81l-2.07 1.22v1.82c0 .48.25.92.66 1.14l4.49 2.61c.41.24.92.24 1.33 0l4.49-2.61c.4-.24.65-.67.66-1.14v-5.25c0-.47-.25-.91-.66-1.14l-4.53-2.64z"/><defs><linearGradient id="a" x1="27.85" x2="5.27" y1="7.72" y2="24.45" gradientUnits="userSpaceOnUse"><stop stop-color="#48A0F7"/><stop offset="1" stop-color="#70D8FA"/></linearGradient></defs></svg>