<svg width="32" height="32" fill="none" viewBox="0 0 32 32" xmlns="http://www.w3.org/2000/svg"><path fill="#C5904A" d="M16 32c8.837 0 16-7.163 16-16S24.837 0 16 0 0 7.163 0 16s7.163 16 16 16"/><path fill="#0B2422" d="m26.8 9.77-1.39-.08a.42.42 0 0 1-.39-.38l-.12-1.29s-.05-.08-.09-.08c-.05 0-.08.03-.09.08l-.12 1.29a.41.41 0 0 1-.39.38l-1.39.09c-.05 0-.08.06-.07.11 0 .04.04.07.07.07l1.39.08c.2.01.37.17.39.38l.12 1.29c0 .05.06.08.11.08.04 0 .07-.04.08-.08l.12-1.29c.02-.2.18-.36.39-.38l1.39-.09c.05 0 .08-.06.07-.11 0-.04-.04-.07-.07-.07z"/><path fill="#0B2422" fill-rule="evenodd" d="m23.87 14.6.23.16c.2.14.36.33.46.56.05.13.06.26.05.4-.03.31-.12.62-.27.89q-.075.135-.18.27l-.03.04.04.26c.01.1.02.21.02.31 0 .83-.38 1.62-1.02 2.16l-.04.03h-.05c-.41.16-.82.27-1.25.36s-.87.13-1.32.11h-.06c-.87-.28-1.77-.46-2.68-.55-.06 0-.12 0-.18-.01q-.27-.015-.54-.06c-.25-.04-.49-.1-.72-.19-.41-.14-.84-.22-1.27-.22h-.01c-.25.4-.33.88-.21 1.34.11.56.31 1.11.58 1.62.31.53.6 1.08.84 1.65.13.3.23.62.29.94.06.35.04.72-.08 1.06l-.14.4-.35-.26c-.05-.04-.11-.07-.17-.1-.03.2-.07.39-.12.58-.1.33-.24.65-.42.95-.24-1.89-1.56-2.43-2.85-2.96-.58-.24-1.15-.47-1.61-.82-1.5-1.14-1.63-2.46-.7-4.79.28-.72.49-1.46.62-2.22.03-.19.07-.39.11-.58l.03-.12v.23c0 .18.01.37.03.55q.015.375.15.72c.04.1.09.19.17.27l.07.07.06.06.12.12c.19.14.39.25.61.33.46.16.95.27 1.44.31.47.06.95.08 1.43.08h.07c.5 0 1 .09 1.47.25.42.14.86.22 1.31.23.94.09 1.86.28 2.76.56.38 0 .77-.02 1.14-.1.27-.05.53-.12.79-.2.58-.25.97-.92.18-.83-.19.01-.37.04-.56.08-.15.03-.29.08-.44.13-.14.06-.29.1-.44.14-.32.08-.66.07-.98-.02q-.42-.165-.87-.21c.14-.08.3-.13.46-.14.12-.01.22 0 .32 0h.14c.27.03.55.02.82-.04.14-.04.27-.11.42-.19.12-.06.25-.13.39-.19.3-.13.63-.2.96-.2h.2c.23-.32.42-.67.35-.97a.75.75 0 0 0-.35-.26l-.21-.06c-.35-.09-.98-.26-1.23-.48-.19-.19-.08-.57.69-.73.35-.06.71-.07 1.06-.03.12.02.24 0 .36-.03l-.04-.04-.22-.16-.22-.17-.87-.67c-.14-.11-.28-.21-.43-.31l-.07-.04-.14-.06c-.38-.16-.73-.39-1.04-.67-.85-.71-1.81-2.44-2.06-3-.2-.43-.55-.78-.99-.97.43-.02.86.15 1.14.48.07.06.21.26.37.5.33.48.78 1.13 1.06 1.16.15 0 .3-.03.44-.07-.14-.13-.26-.28-.38-.43-.14-.19-.26-.39-.38-.6-.04-.07-.08-.13-.12-.2a4 4 0 0 0-.46-.68c-.04-.04-.08-.08-.13-.12a.6.6 0 0 0-.15-.09c-.13-.06-.26-.12-.39-.17-.15-.06-.3-.12-.44-.19l-.41-.2-.81-.4c-.54-.26-1.09-.48-1.65-.67a9.3 9.3 0 0 0-1.72-.38q-.21-.03-.42-.03c-.11 0-.22.02-.33.07-.05.02-.11.05-.17.08q-.105.06-.24.12l-.4.19c-.52.26-1.03.57-1.5.92-.38.25-.72.56-.99.92.41-.02.82.04 1.21.17a5.4 5.4 0 0 0-2.27.49c-.23.1-.46.21-.67.35-.21.12-.41.27-.58.44-.07.07-.13.16-.16.25-.05.11-.1.23-.14.35-.17.49-.3.99-.4 1.5A11.7 11.7 0 0 0 6.36 16c.04.83.26 1.65.64 2.39.36-.47.71-.95 1.04-1.43.43-.63.83-1.27 1.21-1.94.19-.34.36-.7.53-1.06.16-.33.31-.67.49-1 .18-.35.39-.69.63-1 .12-.16.27-.31.43-.44s.35-.21.56-.22c-.65.58-1.16 2.15-1.66 3.91-.41 1.43-1.79 4.68-2.66 4.76-.34.02-.46-.14-.69-.47l-.19-.26c-.33-.47-.59-.98-.76-1.53-.15-.54-.24-1.09-.28-1.65-.03-.55-.01-1.1.04-1.65.06-.54.15-1.08.28-1.61.12-.53.28-1.06.47-1.57.05-.13.1-.26.17-.39l.12-.21c.05-.07.1-.13.16-.19.21-.2.45-.37.71-.51.43-.22.89-.38 1.37-.47.13-.3.32-.57.55-.81q.33-.345.72-.63c.48-.38 1-.72 1.55-.99.13-.07.31-.15.42-.2.06-.02.12-.06.18-.09.07-.04.14-.07.23-.11.17-.08.36-.12.56-.12.16 0 .32.01.49.04.62.07 1.24.2 1.84.4.59.2 1.16.43 1.72.7l1.23.6c.09.05.21.09.33.14l.07.03c.15.06.29.12.44.19.08.04.16.09.24.14.07.06.14.12.2.19.22.24.42.51.58.79l.02.03c.3.52.58 1.01 1.01 1.29l.35.23v.04l-.1.17-.32.08c-.06.02-.11.06-.14.12-.02.03-.02.06-.03.09v.19c0 .1-.01.2-.04.29-.02.05-.03.1-.05.13 0 .02-.02.05-.03.07-.02.04-.02.09 0 .13.23.24.49.43.78.58.07.04.15.08.23.11l.12.05c.06.03.12.06.17.1.15.1.28.19.41.29l.05.04.87.67.21.16zm-7.56-1.84h-.22c-.5-.03-.74-.37-.66-.72s.03-.47-.07-.47c-.15.05-.28.16-.37.29h-.05s-.01-.02-.01-.03c.1-.73.53-.76.72-.76.58.04 1.15.14 1.71.29.02 0 .03 0 .04.02.03.03.03.08 0 .12l-.01.01c-.17.15-.24.38-.2.6.04.34-.37.61-.87.67z" clip-rule="evenodd"/></svg>