<svg xmlns="http://www.w3.org/2000/svg" xml:space="preserve" viewBox="0 0 230 230"><path fill="#fff" d="M134 231H1V1h230v230zm67.846-23.608c11.456-9.659 16.087-22.31 16.117-36.94.04-19.492.162-38.986 0-58.477-.172-20.608.073-41.257-1.167-61.81-1.29-21.394-20.286-37.788-42.788-38.119-36.432-.536-72.878-.295-109.315-.023-7.615.057-15.576.537-22.756 2.796-17.811 5.604-29.775 21.728-29.862 43.035-.155 38.152-.162 76.306.088 114.456.036 5.49 1.109 11.233 2.965 16.406 6.501 18.116 22.611 29.028 43.214 29.147 37.82.219 75.642.176 113.462-.013 10.8-.054 20.976-2.8 30.042-10.458"/><path fill="#FEFEFF" d="M201.575 207.625c-8.795 7.424-18.972 10.171-29.771 10.225-37.82.19-75.642.232-113.462.013-20.603-.12-36.713-11.03-43.214-29.147-1.856-5.173-2.929-10.915-2.965-16.406-.25-38.15-.243-76.304-.088-114.456.087-21.307 12.051-37.43 29.862-43.035 7.18-2.259 15.141-2.739 22.756-2.796 36.437-.272 72.883-.513 109.315.023 22.502.331 41.498 16.725 42.788 38.12 1.24 20.552.995 41.2 1.166 61.809.163 19.491.041 38.985.001 58.478-.03 14.63-4.661 27.28-16.388 37.172M50.505 102.124c-.221 1.48-.461 2.956-.66 4.438-5.133 38.15 24.33 73.126 62.572 74.282 40.924 1.236 72.585-33.404 67.74-74.117-3.736-31.41-30.233-56.048-61.901-57.561-32.175-1.538-60.877 20.625-67.751 52.958"/><path fill="#2D7DF5" d="M50.617 101.716c6.762-31.925 35.464-54.088 67.639-52.55 31.668 1.513 58.165 26.152 61.902 57.56 4.844 40.714-26.817 75.354-67.74 74.118-38.242-1.156-67.706-36.131-62.573-74.282.199-1.482.439-2.959.772-4.846"/></svg>