<svg xmlns="http://www.w3.org/2000/svg" width="33" height="33" fill="none"><path fill="#2151F4" d="M16.54.07c8.84 0 16 7.16 16 16s-7.16 16-16 16-16-7.16-16-16c0-8.83 7.17-16 16-16"/><path fill="#fff" fill-rule="evenodd" d="M15.69 4.95v5.89c-1.98.3-3.13 1.59-3.13 3.14 0 1.98 1.3 2.81 3.14 3.13l1.12.2c1.04.18 1.54.32 1.54 1.08s-.56 1.31-1.75 1.31-1.9-.52-1.9-1.57h-2.36c0 1.77 1.32 3.04 3.36 3.31v2.04h1.84v-2.06c1.93-.31 3.17-1.51 3.17-3.23 0-2.09-1.45-2.82-3.24-3.1l-1.07-.17c-.95-.15-1.48-.37-1.48-1.14 0-.61.45-1.2 1.6-1.2s1.69.58 1.69 1.36h2.36c-.03-1.48-1.08-2.76-3.03-3.08V4.97c5.7.52 10.16 5.31 10.16 11.14 0 6.18-5.01 11.19-11.19 11.19S5.33 22.29 5.33 16.11c0-5.89 4.56-10.72 10.34-11.16z" clip-rule="evenodd"/></svg>