<svg width="32" height="32" fill="none" viewBox="0 0 32 32" xmlns="http://www.w3.org/2000/svg"><g clip-path="url(#usdm__clip0_3127_1835)"><path fill="#345941" d="M25.28 6.155c7.91 7.452 4.17 20.766-6.417 23.014-9.877 2.097-18.5-7.036-15.826-16.78C5.703 2.67 17.893-.805 25.279 6.155m-12.243.317H9.013v14.539c.302-.14.57-.362.858-.533a11.6 11.6 0 0 1 1.811-.874c.022-.008.054-.06.054-.074v-9.154l3.08 8.408c.082.092.533-.013.674-.018.41-.016.878-.014 1.289 0 .126.004.335.064.45.058.095-.004.166-.244.2-.332 1.044-2.67 1.858-5.45 2.88-8.13.013-.035.032-.12.074-.12V19.5c.687.296 1.369.597 2.015.977.229.135.455.347.708.413V6.518l-.045-.045h-4.01l-2.947 8.705zm1.422 14.509c-.408-.116-.8-.22-1.23-.223-.081-.057.035-.414-.072-.495h-.703v.508c-.648.048-1.334.39-1.488 1.071-.243 1.08.408 1.695 1.437 1.777l.051.039v1.032c-.497.028-.971-.117-1.436-.269v.987c.467.187.939.23 1.436.27v.433c.019.03.041.039.075.045.096.018.465.014.57.002.043-.006.077-.004.103-.047v-.464c.324-.055.658-.123.938-.303.833-.54.8-1.854-.099-2.315-.269-.138-.57-.162-.839-.268v-1.032c.433-.023.843.144 1.257.239zm5.206-.718h-.718v.508c-.898.052-1.65.666-1.552 1.627.087.846.8 1.154 1.552 1.245v1.047c-.493.027-.962-.107-1.42-.268-.084.052-.017.138-.015.222.007.253-.012.508.003.76.456.209.94.224 1.432.274v.433l.045.045h.673v-.463c.078-.097.196-.063.3-.088.902-.221 1.406-.816 1.213-1.784-.127-.635-.877-.971-1.463-1.02l-.05-.04v-1.032c.446-.04.858.157 1.286.24v-.988c-.229-.05-.449-.133-.681-.171-.108-.018-.606-.022-.606-.113z"/><path fill="#C7CCC8" d="m13.037 6.472 3.067 8.705 2.947-8.705h4.01l.045.045V20.89c-.253-.066-.479-.278-.708-.413-.646-.38-1.328-.681-2.015-.977V10.24c-.042 0-.06.086-.074.12-1.023 2.68-1.836 5.462-2.88 8.13-.034.089-.105.329-.2.333-.115.006-.324-.054-.45-.059-.411-.013-.88-.015-1.29 0-.14.006-.591.111-.673.019l-3.08-8.408v9.154c0 .014-.032.066-.054.074-.627.237-1.234.533-1.81.874-.29.171-.557.392-.86.533V6.472z"/><path fill="#C7CCC8" d="M14.459 20.98v.988c-.414-.095-.824-.262-1.257-.24v1.033c.27.106.57.13.84.268.899.461.931 1.775.098 2.314-.28.181-.614.25-.938.304v.464c-.026.043-.06.041-.103.047a3.6 3.6 0 0 1-.57-.002c-.034-.006-.056-.015-.075-.045v-.434c-.497-.04-.97-.082-1.436-.269v-.987c.465.152.94.297 1.436.27v-1.033l-.05-.04c-1.03-.081-1.681-.697-1.438-1.776.154-.681.84-1.023 1.488-1.07v-.51h.703c.107.082-.01.439.073.497.43.002.821.106 1.229.222m-2.005 1.676v-.882c-.044-.066-.204.002-.269.03-.209.09-.293.22-.271.45.024.256.323.354.54.402m.748 1.107v.897c.693-.057.684-.806 0-.897M19.665 20.263v.434c0 .091.497.095.605.113.232.038.453.12.681.17v.988c-.428-.082-.84-.279-1.286-.24v1.033l.05.04c.586.049 1.336.385 1.463 1.02.193.968-.311 1.563-1.212 1.784-.105.025-.223-.01-.301.088v.463h-.673l-.045-.044v-.434c-.492-.05-.976-.065-1.432-.274-.015-.252.004-.507-.003-.76-.002-.084-.069-.17.015-.222.458.16.927.295 1.42.268v-1.047c-.752-.091-1.465-.399-1.552-1.245-.099-.96.654-1.575 1.552-1.627v-.508zm-.718 1.496c-.742-.013-.725.844 0 .897zm.718 2.049v.808c0 .11.31-.029.358-.061.213-.143.258-.45.06-.625-.057-.05-.39-.223-.418-.122"/><path fill="#345941" d="M12.454 22.656c-.217-.048-.516-.146-.54-.401-.022-.232.062-.36.271-.451.065-.028.225-.096.269-.03zM13.202 24.66c.693-.057.684-.806 0-.897zM18.947 22.656v-.897c-.742-.013-.725.844 0 .897M19.665 23.808c.028-.1.36.072.417.122.2.175.154.482-.06.625-.048.032-.357.171-.357.06z"/><path fill="#C7CCC8" d="M26.676 27.926c-3.918 3.497-9.233 4.843-14.383 3.646C4.872 29.848-.427 22.84.027 15.21c.007-.12-.024-.313 0-.415.005-.024.056-.009.062-.064.023-.229 0-.485.03-.745C.73 8.828 3.996 4.205 8.559 1.81 10.335.876 12.693.146 14.703.031c3.9-.22 7.586.718 10.754 3.033 8.2 5.993 8.789 18.107 1.22 24.862M25.178 6.11C17.485-.975 5.033 2.956 2.818 13.122.57 23.432 10.6 32.26 20.55 28.698c9.463-3.388 12.062-15.739 4.627-22.587"/></g><defs><clipPath id="usdm__clip0_3127_1835"><path fill="#fff" d="M0 0h32v32H0z"/></clipPath></defs></svg>