<svg width="32" height="32" fill="none" viewBox="0 0 32 32" xmlns="http://www.w3.org/2000/svg"><path fill="url(#walletconnect__paint0_radial_1310_1990)" fill-rule="evenodd" d="M0 16C0 7.17 7.16 0 16 0s16 7.16 16 16-7.16 16-16 16S0 24.84 0 16" clip-rule="evenodd"/><path fill="#fff" d="M10.58 12.19c3-2.93 7.85-2.93 10.85 0l.36.35c.15.15.15.38 0 .53l-1.23 1.21a.2.2 0 0 1-.27 0l-.5-.49c-2.09-2.05-5.48-2.05-7.57 0l-.53.52a.2.2 0 0 1-.27 0l-1.23-1.21a.37.37 0 0 1 0-.53l.4-.39zm13.4 2.5 1.1 1.07c.15.15.15.38 0 .53l-4.95 4.85a.38.38 0 0 1-.54 0l-3.51-3.44a.097.097 0 0 0-.14 0l-3.51 3.44a.38.38 0 0 1-.54 0l-4.95-4.85a.37.37 0 0 1 0-.53l1.1-1.07a.38.38 0 0 1 .54 0l3.51 3.44s.1.04.14 0l3.51-3.44a.38.38 0 0 1 .54 0l3.51 3.44c.04.04.1.04.14 0l3.51-3.44a.38.38 0 0 1 .54 0"/><defs><radialGradient id="walletconnect__paint0_radial_1310_1990" cx="0" cy="0" r="1" gradientTransform="translate(.75 15.03)scale(30.72)" gradientUnits="userSpaceOnUse"><stop stop-color="#6C9AEE"/><stop offset="1" stop-color="#2F6DF5"/></radialGradient></defs></svg>