<svg width="32" height="32" fill="none" viewBox="0 0 32 32" xmlns="http://www.w3.org/2000/svg"><path fill="url(#walletio__paint0_linear_1307_1947)" d="M16 32c8.837 0 16-7.163 16-16S24.837 0 16 0 0 7.163 0 16s7.163 16 16 16"/><path fill="#fff" d="m27.3 16-2.44 2.59c-.33.35-.89.37-1.24.04-.04-.03-.07-.07-.1-.11l-2.55-3.42a.88.88 0 0 1 .06-1.12l2.44-2.59a.882.882 0 0 1 1.34.07l2.55 3.42c.25.34.23.81-.06 1.12"/><path fill="#CCDBFD" d="m22.77 20.82-2.44 2.59c-.33.35-.89.37-1.24.04-.04-.03-.07-.07-.1-.11l-6.17-8.27a.88.88 0 0 1 .06-1.12l2.44-2.59c.33-.35.89-.37 1.24-.04.04.03.07.07.1.11l6.17 8.27c.25.34.23.81-.06 1.12"/><path fill="#fff" d="m22.76 20.82-2.44 2.59c-.33.35-.89.37-1.24.04-.04-.03-.07-.07-.1-.11l-2.99-4.01 3.66-3.88 3.18 4.26c.25.34.23.81-.06 1.12z"/><path fill="#97B2FA" d="m8.46 11.44 6.17 8.27c.25.34.23.81-.06 1.12l-2.44 2.59c-.33.35-.89.37-1.24.04-.04-.03-.07-.07-.1-.11l-6.17-8.27a.88.88 0 0 1 .06-1.12l2.44-2.59c.33-.35.89-.37 1.24-.04.04.03.07.07.1.11"/><path fill="#CBD7FD" d="m11.46 15.46 3.18 4.26c.25.34.23.81-.06 1.12l-2.44 2.59c-.33.35-.89.37-1.24.04-.04-.03-.07-.07-.1-.11l-2.99-4.01 3.66-3.88z"/><defs><linearGradient id="walletio__paint0_linear_1307_1947" x1="4.69" x2="27.31" y1="27.31" y2="4.69" gradientUnits="userSpaceOnUse"><stop stop-color="#274FF4"/><stop offset="1" stop-color="#408AF6"/></linearGradient></defs></svg>