<svg xmlns="http://www.w3.org/2000/svg" width="33" height="33" fill="none"><path fill="#fff" d="M16.92 32.45c8.84 0 16-7.16 16-16s-7.16-16-16-16-16 7.16-16 16 7.16 16 16 16"/><path fill="url(#a)" d="m22.36 20.51 5.32-3.07c.28-.16.46-.46.46-.79v-6.14c0-.32-.17-.63-.46-.79l-5.32-3.07a.92.92 0 0 0-.91 0l-5.32 3.07c-.28.16-.46.46-.46.79v10.97l-3.73 2.15-3.73-2.15v-4.3l3.73-2.15 2.46 1.42v-2.89l-2-1.16a.92.92 0 0 0-.91 0l-5.32 3.07c-.28.16-.46.46-.46.79v6.14c0 .32.17.63.46.79l5.32 3.07c.28.16.63.16.91 0l5.32-3.07c.28-.16.46-.46.46-.79V11.43l.07-.04 3.66-2.11 3.73 2.15v4.3l-3.73 2.15-2.46-1.42v2.89l2 1.15c.28.16.63.16.91 0z"/><defs><linearGradient id="a" x1="7.62" x2="26.88" y1="23.23" y2="9.19" gradientUnits="userSpaceOnUse"><stop stop-color="#9932B9"/><stop offset=".88" stop-color="#773FD6"/><stop offset="1" stop-color="#7342DB"/></linearGradient></defs></svg>