<svg xmlns="http://www.w3.org/2000/svg" width="33" height="33" fill="none"><path fill="#FDFDFD" d="M16.25 32.95c8.837 0 16-7.163 16-16s-7.163-16-16-16-16 7.163-16 16 7.163 16 16 16"/><path fill="#34775D" d="m21.22 16.33 4.45-4.45c1.14-1.14 1.36-3 .34-4.24a3.09 3.09 0 0 0-4.57-.24l-9.55 9.55 9.55 9.55c1.2 1.2 3.15 1.2 4.35 0s1.2-3.15 0-4.35l-4.57-4.57a.887.887 0 0 1 0-1.26z"/><path fill="#52B136" d="m11.893 16.97 4.356-4.355 9.553 9.553a3.08 3.08 0 0 1 0 4.356 3.08 3.08 0 0 1-4.356 0z"/><path fill="#68DF57" d="m25.832 7.437-.07-.07a3.03 3.03 0 1 0-4.285 4.285l.07.07a3.03 3.03 0 0 0 4.285-4.285M18.44 14.84l-7.4-7.43c-1.2-1.2-3.15-1.2-4.35 0s-1.2 3.15 0 4.35l4.53 4.53c.37.37.37.97 0 1.34l-4.53 4.53c-1.2 1.2-1.2 3.15 0 4.35s3.15 1.2 4.35 0l7.4-7.4a3.03 3.03 0 0 0 0-4.28z"/></svg>