<svg width="32" height="32" fill="none" viewBox="0 0 32 32" xmlns="http://www.w3.org/2000/svg"><path fill="#fff" d="M16 32c8.837 0 16-7.163 16-16S24.837 0 16 0 0 7.163 0 16s7.163 16 16 16"/><path fill="#000" d="M18.81 17.65a13.6 13.6 0 0 1-7.64 1.78c-2.06 0-4.04-.83-5.46-2.33a5.85 5.85 0 0 1-1.16-4.72c.09-.62.28-1.22.56-1.79l.04-.08c.97-1.85 2.41-3.41 4.18-4.54 3.6-2.3 8.15-2.55 11.98-.66 1.88.92 3.48 2.32 4.66 4.05 2.38 3.5 2.71 8.01.87 11.83-.91 1.88-2.3 3.49-4.02 4.67a12.1 12.1 0 0 1-5.84 2.09l.13 1.46c2.35-.21 4.61-1.01 6.55-2.35 1.94-1.33 3.49-3.13 4.51-5.25 2.07-4.28 1.7-9.34-.98-13.27A13.5 13.5 0 0 0 21.95 4a13.73 13.73 0 0 0-13.45.76 13.4 13.4 0 0 0-4.68 5.1l-.05.1c-.34.7-.57 1.45-.69 2.22-.38 2.08.16 4.22 1.48 5.87a8.82 8.82 0 0 0 6.51 2.85c3.22.2 6.42-.65 9.13-2.42l-1.4-.83z"/><path fill="#000" d="M21.64 19.31a15.97 15.97 0 0 1-9.66 3.53c-5.81.32-8.23-1.55-8.25-1.57l-.47.57.47-.56-.95 1.12c.1.08 2.42 1.94 7.87 1.94.45 0 .92 0 1.4-.04 6.27-.35 9.71-3.05 10.91-4.2l-1.34-.8z"/><path fill="#000" d="M24.16 20.82c-.8 1.04-1.78 1.92-2.89 2.6-3.93 2.51-8.93 2.83-12.43 2.66l-.07 1.46c.59.03 1.15.04 1.7.04 9.87 0 13.85-4.44 14.97-6.03l-1.28-.75m-.38-5.52c.65 0 1.16-.54 1.16-1.18 0-.65-.54-1.16-1.18-1.16a1.17 1.17 0 1 0 .02 2.34"/></svg>