<svg width="32" height="32" fill="none" viewBox="0 0 32 32" xmlns="http://www.w3.org/2000/svg"><g clip-path="url(#xlayer__clip0_3065_3)"><path fill="#fff" d="M0 0h32v32H0z"/><path fill="#000" d="M16 32c8.837 0 16-7.163 16-16S24.837 0 16 0 0 7.163 0 16s7.163 16 16 16"/><path fill="#fff" d="M22.26 18.51h1.43c.15 0 .28.12.28.28v4.47c0 .15-.12.28-.28.28h-1.43zM24.83 18.51h.57c.15 0 .28.12.28.28v4.47c0 .15-.12.28-.28.28h-.57zM22.26 8.46h1.43c.15 0 .28.12.28.28v4.47c0 .15-.12.28-.28.28h-1.43zM24.83 8.46h.57c.15 0 .28.12.28.28v4.47c0 .15-.12.28-.28.28h-.57zM16.03 13.5h-4.34c-.18 0-.33.15-.33.33v4.31c0 .18.15.33.33.33h4.34c.18 0 .33-.15.33-.33v-4.31c0-.18-.15-.33-.33-.33M11.01 8.46H6.65c-.19 0-.34.15-.34.34v4.36c0 .19.15.34.34.34h4.36c.19 0 .34-.15.34-.34V8.8c0-.19-.15-.34-.34-.34M21.06 8.46H16.7c-.19 0-.34.15-.34.34v4.36c0 .19.15.34.34.34h4.36c.19 0 .34-.15.34-.34V8.8c0-.19-.15-.34-.34-.34M11.01 18.51H6.65c-.19 0-.34.15-.34.34v4.36c0 .19.15.34.34.34h4.36c.19 0 .34-.15.34-.34v-4.36c0-.19-.15-.34-.34-.34M21.06 18.51H16.7c-.19.01-.33.16-.33.35v4.36c.01.19.16.33.35.33h4.36c.19-.01.33-.16.33-.35v-4.36a.344.344 0 0 0-.35-.33"/></g><defs><clipPath id="xlayer__clip0_3065_3"><path fill="#fff" d="M0 0h32v32H0z"/></clipPath></defs></svg>