<svg width="32" height="32" viewBox="0 0 32 32" fill="none" xmlns="http://www.w3.org/2000/svg">
    <path d="M11.35 2.79C12.81 2.28 14.37 1.98 16 1.98C17.63 1.98 19.22 2.28 20.68 2.8L21.83 0.04C21.7 0.02 21.56 0 21.42 0H10.58C10.46 0 10.33 0.02 10.21 0.04L11.35 2.79Z" fill="currentColor"/>
    <path d="M3.36 9.96C4.74 7.08 7.07 4.74 9.95 3.36L8.81 0.6C8.71 0.68 8.6 0.75 8.51 0.85L0.85 8.52C0.76 8.61 0.68 8.72 0.61 8.82L3.36 9.96Z" fill="currentColor"/>
    <path d="M31.5 10.98V21.11L29.82 20.41C30.28 18.96 30.52 17.48 30.52 16C30.52 14.52 30.29 13.09 29.85 11.66L31.5 10.98ZM31.97 10.25L29.23 11.38C29.74 12.83 30.03 14.38 30.03 16C30.03 17.62 29.73 19.23 29.21 20.7L31.97 21.85C31.99 21.71 32.01 21.57 32.01 21.43V10.59C32.01 10.48 31.99 10.37 31.98 10.26L31.97 10.25Z" fill="currentColor"/>
    <path d="M23.21 0.63L22.07 3.38C24.95 4.77 27.28 7.1 28.65 9.99L31.41 8.85C31.33 8.74 31.24 8.62 31.14 8.52L23.48 0.85C23.4 0.77 23.3 0.7 23.21 0.63Z" fill="currentColor"/>
    <path d="M1.98 16C1.98 14.37 2.27 12.81 2.79 11.35L0.04 10.21C0.02 10.33 0 10.45 0 10.58V21.42C0 21.55 0.02 21.68 0.04 21.8L2.79 20.66C2.27 19.2 1.98 17.63 1.98 15.99V16Z" fill="currentColor"/>
    <path d="M28.85 22.72L30.51 23.41L23.36 30.56L22.67 28.88C25.31 27.51 27.48 25.35 28.86 22.72M28.62 22.08C27.23 24.95 24.9 27.27 22.03 28.64L23.17 31.4C23.28 31.32 23.39 31.24 23.49 31.14L31.16 23.47C31.24 23.39 31.3 23.3 31.37 23.21L28.63 22.07L28.62 22.08Z" fill="currentColor"/>
    <path d="M11.62 29.83C13.06 30.29 14.53 30.52 16 30.52C17.47 30.52 18.92 30.29 20.35 29.84L21.03 31.5H10.92L11.61 29.83M11.34 29.21L10.2 31.96C10.33 31.98 10.45 32 10.59 32H21.43C21.55 32 21.66 31.98 21.78 31.97L20.65 29.22C19.2 29.73 17.64 30.02 16.02 30.02C14.4 30.02 12.82 29.72 11.36 29.21H11.34Z" fill="currentColor"/>
    <path d="M3.13 22.7C4.5 25.33 6.67 27.5 9.31 28.87L8.62 30.54L1.47 23.39L3.14 22.7M3.37 22.06L0.62 23.2C0.7 23.3 0.77 23.4 0.86 23.49L8.53 31.16C8.62 31.25 8.72 31.32 8.82 31.4L9.96 28.65C7.09 27.27 4.76 24.95 3.38 22.08L3.37 22.06Z" fill="currentColor"/>
    <g clip-path="url(#circleClip)">
        <template />
    </g>
    <defs>
        <clipPath id="circleClip">
            <circle cx="16" cy="16" r="13" />
        </clipPath>
    </defs>
</svg>
