<svg width="32" height="32" viewBox="0 0 32 32" fill="none" xmlns="http://www.w3.org/2000/svg">
  <circle cx="16" cy="16" r="15" stroke="currentColor" stroke-width="2" />
  <g clip-path="url(#circleClip)">
    <g style="transform: scale(0.8125); transform-origin: 50% 50%;"><g fill="currentColor" clip-path="url(#clip0_298_909)"><path d="M16 0C7.16 0 0 7.16 0 16s7.16 16 16 16 16-7.16 16-16S24.84 0 16 0m.12 31.13C7.77 31.13 1 24.36 1 16 1 7.65 7.77.88 16.13.88 24.48.88 31.25 7.65 31.25 16s-6.77 15.12-15.12 15.13z"/><path d="M16.13 2.06h-.02c-7.7 0-13.93 6.25-13.93 13.95s6.25 13.93 13.95 13.93c7.69 0 13.92-6.24 13.93-13.93 0-7.7-6.23-13.94-13.93-13.94zm8.76 4.41-.83.83a11.754 11.754 0 0 0-15.87 0l-.85-.83a12.947 12.947 0 0 1 17.55 0m-9.78 15.68v2.55h-1.55v-2.58h-3.11l.29-1.85s1.15.02 1.12 0c.15.01.29-.04.4-.13.11-.1.18-.23.19-.38V12.8a.794.794 0 0 0-.88-.68c.02-.02-1.12 0-1.12 0v-1.65h3.14V7.93h1.53v2.48h1.24V7.93h1.55v2.52c2 .19 3.58.8 3.76 2.64.13 1.34-.43 2.16-1.33 2.6 1.48.35 2.4 1.23 2.22 3.2-.23 2.45-2.05 3.09-4.66 3.25v2.55h-1.55v-2.53h-1.24zM6.59 7.25l.83.83c-4.1 4.49-4.1 11.37 0 15.86l-.83.86a12.947 12.947 0 0 1 0-17.55m.76 18.28.83-.83a11.754 11.754 0 0 0 15.87 0l.85.83a12.947 12.947 0 0 1-17.55 0m18.31-.77-.83-.83a11.754 11.754 0 0 0 0-15.87l.83-.83v-.02a12.947 12.947 0 0 1 0 17.55"/><path d="M18.78 13.77c0-1.83-2.75-1.56-3.62-1.56v3.1c.87 0 3.62.21 3.62-1.54M19.5 18.57c0-2.01-3.29-1.7-4.34-1.71v3.41c1.05 0 4.34.22 4.34-1.7"/></g><defs><clipPath id="clip0_298_909"><path fill="#fff" d="M0 0h32v32H0z"/></clipPath></defs></g>
  </g>
  <defs>
    <clipPath id="circleClip">
      <circle cx="16" cy="16" r="13" />
    </clipPath>
  </defs>
</svg>