<svg width="33" height="33" viewBox="0 0 33 33" fill="none" xmlns="http://www.w3.org/2000/svg">
  <path d="M11.97 10.83C10.48 9.94 10.31 7.62 10.31 7.6C10.27 7.77 9.41999 10.74 11.97 10.83Z" fill="#213147"/>
  <path d="M11.36 12.21C11.51 11.93 11.38 11.73 11.25 11.62C11.23 11.6 11.21 11.58 11.21 11.58C10.95 11.45 9.31 10.84 7.7 10.27C9.12 11.21 10.69 12.13 10.95 12.26C11.15 12.35 11.28 12.37 11.37 12.22L11.36 12.21Z" fill="#213147"/>
  <path d="M14.64 13.47L13.51 15.41C13.51 15.41 14.56 14.93 14.97 14.32C15.3 13.8 14.64 13.47 14.64 13.47Z" fill="#213147"/>
  <path d="M14.68 19.29C14.33 19.33 13.85 19.4 13.7 19.51C13.98 19.08 14.38 18.85 14.77 18.75C15.1 17.81 15.8 15.89 15.95 15.76C16.04 15.7 16.26 15.63 16.63 15.52C16.85 15.48 17.15 15.39 17.2 15.34C17.29 15.21 18.16 13.11 18.23 12.96C18.21 12.81 17.77 11.69 17.31 10.62C16.2 11.43 15 11.21 15 11.21C15 11.21 15.85 10.97 16.73 9.68C17.58 8.39 16.77 6.62 16.77 6.62C16.77 6.62 13.78 11.12 13.41 11.21C13.04 11.3 12.78 10.84 12.78 10.84C12.78 10.84 11.99 12.89 11.78 13.64C11.56 14.38 11.82 15.08 12.02 15.43C12.24 15.78 12.7 16.65 12.06 17.55C12.15 17.16 11.76 16.54 11.47 16.17C11.36 17.13 11.08 19.42 10.99 19.79C10.95 20.05 10.79 20.34 10.53 20.84C10.4 21.1 10.14 21.56 10.07 21.78C10.16 22.17 10.49 23.11 10.7 23.4C11.01 23.51 11.44 23.62 11.82 23.68C12 23.68 12.21 23.59 12.52 23.31C13.09 22.79 13.46 22.5 13.57 21.93C13.68 21.39 13.63 20.53 13.9 20.29C14.14 20.05 14.66 19.94 15.08 20.05C14.75 20.05 14.38 20.2 14.38 20.2C14.38 20.2 15.01 20.09 15.25 20.55C15.49 21.01 15.29 21.27 14.9 21.53C14.57 21.75 13.61 22.75 13.28 23.19H13.94C14.2 23.19 14.38 23.15 14.46 23.06C14.68 22.84 14.96 22.6 15.22 22.36C15.48 22.12 15.85 21.79 15.94 21.68C16.12 21.42 16.22 21.09 16.18 20.74V20.7C15.94 19.76 15 19.26 14.69 19.28L14.68 19.29ZM16.54 7.93C16.54 7.93 16.73 8.8 16.23 9.39C15.59 10.11 15.05 10.09 15.07 10.09L16.53 7.93H16.54ZM11.04 22.3C10.76 22.32 10.65 21.97 10.71 21.78C10.77 21.6 11.5 20.34 11.5 20.34L11.32 21.21C11.32 21.21 11.67 21.17 11.67 21.56C11.67 21.86 11.32 22.28 11.04 22.3ZM13.33 15.84C13.2 16.34 12.08 16.12 12.5 14.53C12.5 14.53 12.69 15.3 12.89 15.23C13.08 15.16 15.31 11.67 15.31 11.67C15.31 11.67 15.03 12.59 14.83 13.04C15.6 13.19 15.81 14.09 15.4 14.57C14.98 15.03 13.94 15.68 13.33 15.84Z" fill="#213147"/>
  <path d="M15.58 7.71C15.88 7.29 16.37 6.64 16.82 6.09C16.95 6.37 17.1 6.72 17.15 6.9C18.66 6.33 20.75 6.03 24.01 6.64C22.57 5.92 21.06 5.55 19.56 5.53C18.99 5.53 18.47 5.57 17.99 5.66C16.29 5.97 14.89 7.19 14.41 8.83C14.41 8.83 14.76 8.28 15.59 7.71H15.58Z" fill="#213147"/>
  <path d="M14.49 5.48C14.34 5.55 11.04 6.62 12.92 9.47C12.92 9.47 12.53 6.66 14.49 5.48Z" fill="#213147"/>
  <path d="M16.68 0.43C7.83999 0.43 0.679993 7.59 0.679993 16.43C0.679993 25.27 7.83999 32.43 16.68 32.43C25.52 32.43 32.68 25.27 32.68 16.43C32.68 7.59 25.52 0.43 16.68 0.43ZM25.41 27.51C25.6 26.77 25.76 25.68 25.76 25.68C25.76 25.68 23.77 29.04 19.69 29.61H19.67C20.41 28.94 20.87 28.34 20.87 28.34C20.87 28.34 19.56 29.23 17.09 29.23C15.93 29.23 14.51 29.03 12.83 28.44C13.38 28.57 13.92 28.63 14.49 28.63C18.16 28.63 21.13 25.88 21.13 22.47C21.13 20.55 20.19 18.82 18.68 17.69C18.68 17.69 17.92 18.67 17.5 19.22C17.17 19.68 16.89 20.14 16.95 20.66C17.04 21.23 16.86 21.79 16.53 22.21C16.27 22.52 15.44 23.17 14.96 23.65C14.63 23.95 14.17 24.02 13.83 24.02C13.68 24.02 13.55 24 13.44 24H13.38C13.12 24 13.01 24.07 12.64 24.39C12.55 24.48 12.36 24.52 12.14 24.52C11.53 24.52 10.61 24.24 10.24 24.1C9.72999 23.9 9.16999 22.13 9.11999 21.72C9.07999 21.3 9.99999 19.91 10.08 19.52C10.17 19.13 10.56 15.92 10.6 15.54C10.64 15.17 10.62 14.91 10.32 14.41C10.1 14.04 10.1 13.67 10.32 12.88C9.30999 12.22 4.72999 8.84 4.47999 8.65C4.34999 8.54 4.38999 8.47 4.38999 8.47C4.38999 8.47 4.42999 8.4 4.58999 8.43C4.69999 8.45 7.59999 9.48 9.63999 10.22C8.80999 7.64 10.58 6.09 10.58 6.09C10.58 6.09 10.86 7.21 11.17 7.97C12.37 4.37 15.78 4.69 15.78 4.69L14.93 6.04C15.04 5.98 16.88 4.86 19.58 4.86C21.55 4.86 23.97 5.45 26.52 7.46C25.39 7.33 24.29 7.28 24.29 7.28C24.29 7.28 31.65 10.18 30.77 19.18C30.49 18.83 29.94 18.17 29.9 18.11C29.92 18.28 30.84 23.39 25.41 27.47V27.51Z" fill="#213147"/>
  <path d="M26.43 15.18C26.54 15.37 29.22 20.33 26.41 25.75C26.84 25.31 27.21 24.86 27.54 24.42C29.42 21.8 29.16 18.2 27 15.8C26.82 15.61 26.63 15.39 26.43 15.19V15.18Z" fill="#213147"/>
  <path d="M18.33 9.41C18.18 9.65 18.03 9.87 17.87 10.04C18.2 10.85 19.05 12.97 19.05 13.08C19.05 13.21 18.63 14.28 18.59 14.32C18.55 14.34 18.05 14.39 17.85 14.39C17.63 14.91 17.42 15.42 17.37 15.48C17.3 15.57 17.11 15.63 16.69 15.74C16.47 15.8 16.14 15.89 16.1 15.93C15.99 16.06 15.4 17.61 15.01 18.7C15.53 18.61 15.99 18.72 16.1 18.76C16.95 17.14 17.63 16.27 17.8 16.27C17.98 16.25 20.05 16.55 20.86 14.61C21.65 12.69 20.51 11.05 20.47 10.99C20.51 11.01 22.26 11.82 22.7 14.44C23.68 15.69 24.31 17.19 24.49 18.79C24.49 18.9 24.67 19.05 24.77 19.18C24.96 19.37 25.16 19.57 25.16 19.77C25.16 20.29 25.12 20.82 25.03 21.32C24.99 21.5 24.77 21.63 24.55 21.74C24.42 21.83 24.22 21.94 24.2 22C23.72 23.73 22.63 25.25 21.21 26.35C24.22 24.91 26.3 21.83 26.3 18.29C26.3 13.69 22.8 9.89 18.33 9.4V9.41Z" fill="#213147"/>
  <path d="M27.32 10.29C25.73 8.61 23.39 7.82 21.07 8.15C20.19 8.26 19.32 8.43 18.64 8.65C18.53 8.67 18.42 8.69 18.31 8.74H18.35C18.53 8.72 21.71 8.56 24.68 10.53C27.76 12.56 29.15 14.81 30.14 17.45C30.1 14.65 29.16 12.25 27.35 10.33L27.31 10.29H27.32Z" fill="#213147"/>
  <path d="M14.38 21.43C14.6 21.23 14.9 21.17 14.9 20.88C14.9 20.58 14.48 20.51 14.31 20.55C14.13 20.59 14.09 20.88 14.07 21.03C14.05 21.18 14.07 21.66 13.87 21.95C13.91 21.91 14.22 21.58 14.38 21.43Z" fill="#213147"/>
  <path d="M24.03 21.95C24.07 21.77 24.27 21.67 24.49 21.56C24.64 21.47 24.84 21.36 24.86 21.3C24.95 20.79 24.99 20.29 24.99 19.79C24.99 19.68 24.81 19.51 24.66 19.37C24.48 19.19 24.31 19.02 24.29 18.85C24.14 17.43 23.61 16.05 22.76 14.92C22.82 15.71 22.8 16.67 22.58 17.78C24.15 20.55 23.17 24.05 21.14 26.17C22.51 25.12 23.54 23.64 24.02 21.96L24.03 21.95Z" fill="#213147"/>
  </svg>
  