<svg width="33" height="32" viewBox="0 0 33 32" fill="none" xmlns="http://www.w3.org/2000/svg">
<path d="M16.73 32C25.5666 32 32.73 24.8366 32.73 16C32.73 7.16344 25.5666 0 16.73 0C7.89344 0 0.729996 7.16344 0.729996 16C0.729996 24.8366 7.89344 32 16.73 32Z" fill="white"/>
<path d="M10.73 18L11.43 12.74L5.36 8.52999L10.91 10.41L12.22 8.39999L17 5.42999L27.54 11.24L28.09 20.1L23.39 26.63L19.68 27.2L21.6 23.69V20.31L20.2 17.67L18.78 16.73L16.6 18.98V21.36L14.9 22.95L12.74 23.21L11.78 23.75L10.21 23.25L9.55 20.89L10.73 19.23V18Z" fill="white"/>
<path d="M20.43 8.48C19.27 8.24 18.01 8.3 18.01 8.3C18.01 8.3 17.59 10.22 15.02 10.73C15.04 10.73 18.42 11.89 20.43 8.48ZM21.47 25.91C22.87 24.82 23.91 23.31 24.4 21.61C24.42 21.55 24.62 21.43 24.75 21.35C24.97 21.22 25.19 21.11 25.23 20.93C25.32 20.43 25.36 19.9 25.36 19.38C25.36 19.19 25.16 18.99 24.97 18.79C24.82 18.66 24.66 18.51 24.66 18.4C24.44 16.41 23.53 14.56 22.06 13.2L21.91 13.35C23.33 14.68 24.25 16.49 24.44 18.41C24.46 18.59 24.63 18.76 24.81 18.93C24.96 19.06 25.14 19.26 25.14 19.35C25.14 19.85 25.1 20.35 25.01 20.85C24.99 20.94 24.79 21.03 24.64 21.11C24.42 21.22 24.22 21.33 24.18 21.5C23.66 23.36 22.45 24.97 20.86 26.02C21.14 25.41 22.04 23.42 22.52 22.42L22.43 19.19L19.66 16.51L18.09 16.73L16.36 19.53C16.36 19.53 17.17 20.56 16.03 21.76C14.92 22.94 14.04 23.2 14.04 23.2L13.23 22.76C13.47 22.45 13.95 22 14.32 21.69C14.95 21.17 15.59 21.12 15.59 20.56C15.62 19.38 14.35 19.7 14.35 19.7L13.89 20.14L13.7 21.76L12.74 22.96L12.63 22.94L11.06 22.59C11.06 22.59 12.02 22.09 12.18 21.52C12.33 20.97 11.87 19.16 11.85 19.05C11.87 19.07 12.31 19.44 12.51 20.05C12.86 19.09 13.32 18.17 13.45 18.08C13.58 17.99 15.35 17.05 15.35 17.05L14.76 18.6L15.2 18.36L16.25 15.78C16.25 15.78 17.28 15.28 18.04 15.28C19.41 15.26 21.45 13.58 20.53 10.56C20.79 10.67 25.33 12.94 26.12 17.39C26.71 20.81 24.77 24.02 21.49 25.88L21.47 25.91Z" fill="#94A6C3"/>
<path d="M16.28 8.96C16.78 8.37 16.59 7.5 16.59 7.5L15.13 9.66C15.13 9.66 15.65 9.68 16.29 8.96H16.28ZM11.36 20.78L11.54 19.91C11.54 19.91 10.82 21.18 10.75 21.35C10.68 21.55 10.79 21.9 11.08 21.87C11.36 21.85 11.71 21.43 11.71 21.13C11.71 20.74 11.36 20.78 11.36 20.78Z" fill="#1B314F"/>
<path d="M24.33 6.89C24.33 6.89 25.42 6.93 26.56 7.07C24 5.06 21.58 4.47 19.62 4.47C16.91 4.47 15.08 5.59 14.97 5.65L15.82 4.3C15.82 4.3 12.41 3.97 11.21 7.58C10.9 6.82 10.62 5.7 10.62 5.7C10.62 5.7 8.85 7.25 9.68 9.83C7.65 9.09 4.75 8.06 4.63 8.04C4.48 8.02 4.43 8.08 4.43 8.08C4.43 8.08 4.39 8.14 4.52 8.26C4.76 8.45 9.35 11.84 10.36 12.49C10.14 13.28 10.14 13.65 10.36 14.02C10.67 14.52 10.69 14.78 10.64 15.15C10.6 15.52 10.2 18.73 10.12 19.13C10.04 19.53 9.12 20.92 9.16 21.33C9.2 21.75 9.77 23.51 10.28 23.71C10.65 23.84 11.57 24.13 12.18 24.13C12.4 24.13 12.6 24.09 12.68 24C13.05 23.67 13.16 23.61 13.42 23.61H13.48C13.59 23.61 13.72 23.63 13.87 23.63C14.22 23.63 14.68 23.56 15 23.26C15.48 22.78 16.31 22.13 16.57 21.82C16.9 21.4 17.07 20.84 16.99 20.27C16.92 19.75 17.21 19.29 17.54 18.83C17.96 18.28 18.72 17.3 18.72 17.3C20.23 18.43 21.17 20.16 21.17 22.08C21.17 25.49 18.2 28.24 14.53 28.24C13.96 28.24 13.42 28.18 12.87 28.05C14.55 28.64 15.97 28.84 17.13 28.84C19.6 28.84 20.91 27.95 20.91 27.95C20.91 27.95 20.45 28.54 19.71 29.22H19.73C23.81 28.65 25.8 25.29 25.8 25.29C25.8 25.29 25.65 26.38 25.45 27.12C30.88 23.04 29.96 17.93 29.94 17.76C29.98 17.82 30.53 18.48 30.81 18.83C31.69 9.83 24.33 6.93 24.33 6.93V6.89ZM15.97 21.26C15.88 21.37 15.51 21.7 15.25 21.94C14.99 22.18 14.7 22.42 14.49 22.64C14.4 22.73 14.23 22.77 13.97 22.77H13.31C13.64 22.33 14.6 21.33 14.93 21.11C15.32 20.85 15.52 20.59 15.28 20.13C15.04 19.67 14.41 19.78 14.41 19.78C14.41 19.78 14.78 19.63 15.11 19.63C14.69 19.52 14.17 19.63 13.93 19.87C13.67 20.11 13.71 20.96 13.6 21.51C13.49 22.08 13.12 22.36 12.55 22.89C12.24 23.17 12.03 23.26 11.85 23.26C11.48 23.2 11.04 23.08 10.73 22.98C10.51 22.7 10.18 21.76 10.1 21.36C10.16 21.14 10.43 20.68 10.56 20.42C10.82 19.92 10.98 19.63 11.02 19.37C11.11 19 11.39 16.71 11.5 15.75C11.78 16.12 12.18 16.73 12.09 17.13C12.72 16.24 12.27 15.36 12.05 15.01C11.86 14.66 11.59 13.96 11.81 13.22C12.03 12.48 12.81 10.42 12.81 10.42C12.81 10.42 13.07 10.88 13.44 10.79C13.81 10.7 16.8 6.2 16.8 6.2C16.8 6.2 17.61 7.97 16.76 9.26C15.89 10.55 15.03 10.79 15.03 10.79C15.03 10.79 16.23 11.01 17.34 10.2C17.8 11.27 18.23 12.38 18.26 12.54C18.19 12.69 17.32 14.79 17.23 14.92C17.19 14.96 16.88 15.05 16.66 15.1C16.29 15.21 16.07 15.28 15.98 15.34C15.83 15.47 15.13 17.39 14.8 18.33C14.41 18.44 14.01 18.66 13.73 19.09C13.88 18.98 14.36 18.91 14.71 18.87C15.02 18.85 15.95 19.35 16.2 20.29V20.33C16.25 20.67 16.14 21 15.96 21.27L15.97 21.26ZM13.92 21.52C14.12 21.24 14.1 20.76 14.12 20.6C14.14 20.44 14.18 20.16 14.36 20.12C14.54 20.08 14.95 20.14 14.95 20.45C14.95 20.73 14.64 20.8 14.43 21C14.27 21.15 13.97 21.48 13.92 21.52ZM22.63 17.35C22.85 16.24 22.87 15.28 22.81 14.49C23.66 15.62 24.18 17 24.34 18.42C24.36 18.6 24.53 18.77 24.71 18.94C24.86 19.07 25.04 19.25 25.04 19.36C25.04 19.86 25 20.36 24.91 20.87C24.89 20.93 24.69 21.05 24.54 21.13C24.32 21.24 24.12 21.35 24.08 21.52C23.6 23.2 22.57 24.69 21.2 25.73C23.23 23.61 24.21 20.12 22.64 17.34L22.63 17.35ZM21.26 25.93C22.68 24.84 23.77 23.31 24.25 21.58C24.27 21.52 24.47 21.4 24.6 21.32C24.82 21.21 25.04 21.08 25.08 20.9C25.17 20.4 25.21 19.87 25.21 19.35C25.21 19.16 25.01 18.96 24.82 18.76C24.71 18.63 24.54 18.48 24.54 18.37C24.36 16.78 23.73 15.27 22.75 14.02C22.31 11.4 20.57 10.59 20.52 10.57C20.56 10.64 21.7 12.27 20.91 14.19C20.1 16.13 18.03 15.83 17.85 15.85C17.67 15.85 17 16.72 16.15 18.34C16.04 18.3 15.58 18.19 15.06 18.28C15.45 17.19 16.04 15.64 16.15 15.51C16.19 15.47 16.52 15.38 16.74 15.32C17.16 15.21 17.35 15.14 17.42 15.06C17.46 14.99 17.68 14.49 17.9 13.97C18.1 13.97 18.6 13.93 18.64 13.9C18.68 13.86 19.1 12.79 19.1 12.66C19.1 12.55 18.25 10.43 17.92 9.62C18.07 9.44 18.23 9.23 18.38 8.99C22.86 9.47 26.35 13.27 26.35 17.88C26.35 21.42 24.28 24.5 21.26 25.94V25.93Z" fill="#1B314F"/>
<path d="M15.45 14.14C15.87 13.66 15.65 12.77 14.88 12.61C15.08 12.15 15.36 11.24 15.36 11.24C15.36 11.24 13.13 14.73 12.94 14.8C12.74 14.87 12.55 14.1 12.55 14.1C12.13 15.69 13.25 15.91 13.38 15.41C13.99 15.25 15.04 14.6 15.45 14.14Z" fill="#1B314F"/>
<path d="M13.55 14.99L14.68 13.05C14.68 13.05 15.34 13.38 15.01 13.9C14.6 14.51 13.55 14.99 13.55 14.99Z" fill="#FFD923"/>
<path d="M27.59 23.99C27.26 24.43 26.89 24.88 26.46 25.32C29.27 19.9 26.59 14.95 26.48 14.75C26.68 14.95 26.87 15.17 27.05 15.36C29.21 17.76 29.47 21.36 27.59 23.98V23.99ZM30.21 17.02C29.23 14.38 27.83 12.13 24.75 10.1C21.78 8.13 18.59 8.29 18.42 8.31H18.38C18.49 8.27 18.6 8.24 18.71 8.22C19.39 8 20.26 7.83 21.14 7.72C23.46 7.39 25.79 8.17 27.39 9.86L27.43 9.9C29.24 11.82 30.18 14.22 30.22 17.02H30.21ZM24.05 6.21C20.8 5.6 18.7 5.9 17.19 6.47C17.15 6.29 16.99 5.95 16.86 5.66C16.41 6.21 15.92 6.86 15.62 7.28C14.79 7.85 14.44 8.4 14.44 8.4C14.92 6.76 16.32 5.54 18.02 5.23C18.5 5.14 19.02 5.1 19.59 5.1C21.09 5.12 22.6 5.49 24.04 6.21H24.05ZM12.02 10.4C9.46999 10.31 10.32 7.34 10.36 7.17C10.36 7.19 10.53 9.51 12.02 10.4ZM14.53 5.05C12.56 6.23 12.96 9.04 12.96 9.04C11.08 6.18 14.38 5.11 14.53 5.05Z" fill="#D82122"/>
<path d="M11.3 11.19C11.43 11.3 11.56 11.5 11.41 11.78C11.32 11.93 11.19 11.91 10.99 11.82C10.73 11.69 9.15999 10.77 7.73999 9.83C9.35999 10.4 10.99 11.01 11.25 11.14C11.25 11.14 11.27 11.16 11.29 11.18L11.3 11.19Z" fill="white"/>
</svg>
