<svg width="33" height="33" viewBox="0 0 33 33" fill="none" xmlns="http://www.w3.org/2000/svg">
<path d="M16.41 0.43C7.57 0.43 0.410004 7.59 0.410004 16.43C0.410004 25.27 7.57 32.43 16.41 32.43C25.25 32.43 32.41 25.27 32.41 16.43C32.41 7.59 25.25 0.43 16.41 0.43ZM23.21 23.9C23.02 24.09 22.76 24.19 22.49 24.18C22.29 24.18 22.09 24.11 21.93 23.99C21.76 23.86 21.63 23.69 21.54 23.5L16.39 10.7L14.5 15.41H15.42C15.95 15.41 16.39 15.84 16.39 16.38V16.41C16.39 16.94 15.95 17.37 15.42 17.38H13.7L11.23 23.51C11.15 23.71 11.01 23.87 10.84 24C10.68 24.12 10.48 24.18 10.28 24.19C10.01 24.2 9.75 24.1 9.56 23.91C9.38 23.71 9.27999 23.45 9.28999 23.18C9.28999 23.05 9.31 22.93 9.36 22.81L11.61 17.38H10.65C10.12 17.38 9.67999 16.95 9.67999 16.41C9.67999 15.86 10.12 15.43 10.65 15.43H12.43L14.78 9.73C14.97 9.14 15.52 8.74 16.14 8.72H16.62C17.24 8.73 17.79 9.14 17.98 9.73L23.39 22.81C23.44 22.93 23.46 23.05 23.46 23.18C23.47 23.45 23.37 23.71 23.19 23.91L23.21 23.9Z" fill="#213147"/>
</svg>
