<svg width="32" height="32" viewBox="0 0 32 32" fill="none" xmlns="http://www.w3.org/2000/svg">
<g clip-path="url(#clip0_292_69)">
<path d="M16 32C24.8366 32 32 24.8366 32 16C32 7.16344 24.8366 0 16 0C7.16344 0 0 7.16344 0 16C0 24.8366 7.16344 32 16 32Z" fill="url(#paint0_linear_292_69)"/>
<path d="M23 22.37L17.59 9.29C17.4 8.7 16.85 8.3 16.23 8.28H15.75C15.13 8.29 14.59 8.7 14.39 9.29L12.04 14.99H10.26C9.72999 14.99 9.28999 15.42 9.28999 15.96C9.28999 16.51 9.72999 16.94 10.26 16.94H11.22L8.96998 22.37C8.92998 22.49 8.89999 22.61 8.89999 22.74C8.88999 23.01 8.99 23.27 9.17 23.47C9.36 23.66 9.62 23.76 9.89 23.75C10.09 23.75 10.29 23.68 10.45 23.56C10.62 23.43 10.75 23.26 10.84 23.07L13.31 16.94H15.03C15.56 16.94 16 16.51 16 15.97V15.94C16 15.41 15.56 14.98 15.03 14.97H14.11L16 10.26L21.15 23.06C21.23 23.26 21.37 23.42 21.54 23.55C21.7 23.67 21.9 23.73 22.1 23.74C22.37 23.75 22.63 23.65 22.82 23.46C23 23.26 23.1 23 23.09 22.73C23.09 22.6 23.07 22.48 23.02 22.36L23 22.37Z" fill="white"/>
</g>
<defs>
<linearGradient id="paint0_linear_292_69" x1="27.87" y1="5.91" x2="4.11" y2="26.07" gradientUnits="userSpaceOnUse">
<stop stop-color="#B6509E"/>
<stop offset="1" stop-color="#2EBAC6"/>
</linearGradient>
<clipPath id="clip0_292_69">
<rect width="32" height="32" fill="white"/>
</clipPath>
</defs>
</svg>
