<svg width="33" height="32" viewBox="0 0 33 32" fill="none" xmlns="http://www.w3.org/2000/svg">
<path d="M16.21 32C25.0466 32 32.21 24.8366 32.21 16C32.21 7.16344 25.0466 0 16.21 0C7.37345 0 0.210007 7.16344 0.210007 16C0.210007 24.8366 7.37345 32 16.21 32Z" fill="url(#paint0_linear_63_5337)"/>
<path d="M23.21 22.37L17.8 9.29C17.61 8.7 17.06 8.3 16.44 8.28H15.96C15.34 8.29 14.8 8.7 14.6 9.29L12.25 14.99H10.47C9.94 14.99 9.5 15.42 9.5 15.96C9.5 16.51 9.94 16.94 10.47 16.94H11.43L9.17999 22.37C9.13999 22.49 9.11 22.61 9.11 22.74C9.1 23.01 9.2 23.27 9.38 23.47C9.57 23.66 9.83 23.76 10.1 23.75C10.3 23.75 10.5 23.68 10.66 23.56C10.83 23.43 10.96 23.26 11.05 23.07L13.52 16.94H15.24C15.77 16.94 16.21 16.51 16.21 15.97V15.94C16.21 15.41 15.77 14.98 15.24 14.97H14.32L16.21 10.26L21.36 23.06C21.44 23.26 21.58 23.42 21.75 23.55C21.91 23.67 22.11 23.73 22.31 23.74C22.58 23.75 22.84 23.65 23.03 23.46C23.21 23.26 23.31 23 23.3 22.73C23.3 22.6 23.28 22.48 23.23 22.36L23.21 22.37Z" fill="white"/>
<defs>
<linearGradient id="paint0_linear_63_5337" x1="28.08" y1="5.91" x2="4.32001" y2="26.07" gradientUnits="userSpaceOnUse">
<stop stop-color="#B6509E"/>
<stop offset="1" stop-color="#2EBAC6"/>
</linearGradient>
</defs>
</svg>
