<svg width="33" height="32" viewBox="0 0 33 32" fill="none" xmlns="http://www.w3.org/2000/svg">
<path d="M16.45 31.75C7.77001 31.75 0.700012 24.68 0.700012 16C0.700012 7.32 7.77001 0.25 16.45 0.25C25.13 0.25 32.2 7.32 32.2 16C32.2 24.68 25.13 31.75 16.45 31.75Z" fill="white"/>
<path d="M16.45 0.5C25 0.5 31.95 7.45 31.95 16C31.95 24.55 25 31.5 16.45 31.5C7.90001 31.5 0.950012 24.55 0.950012 16C0.950012 7.45 7.90001 0.5 16.45 0.5ZM16.45 0C7.61001 0 0.450012 7.16 0.450012 16C0.450012 24.84 7.61001 32 16.45 32C25.29 32 32.45 24.84 32.45 16C32.45 7.16 25.29 0 16.45 0Z" fill="#383D51"/>
<path d="M7.82001 24.02C7.81001 23.78 7.80001 23.53 7.82001 23.29C7.90001 23.27 7.98001 23.25 8.07001 23.24C8.31001 23.2 8.56001 23.14 8.79001 23.07C8.86001 23.05 8.92001 23.03 8.98001 23C9.29001 22.88 9.57 22.68 9.78 22.42C9.93 22.24 10.05 22.04 10.16 21.83C10.31 21.54 10.45 21.25 10.57 20.95C10.81 20.34 11.06 19.74 11.3 19.13L13.78 12.85C14.56 10.86 15.33 8.86 16.09 6.86L16.14 6.74C16.42 6.66 16.69 6.58 16.98 6.5C17 6.54 17.01 6.58 17.02 6.61C17.34 7.5 17.66 8.4 17.98 9.29C19.07 12.34 20.16 15.38 21.28 18.42C21.59 19.25 21.9 20.08 22.21 20.91C22.33 21.25 22.48 21.58 22.64 21.9C22.71 22.04 22.79 22.17 22.88 22.3C23.14 22.7 23.54 23 24.01 23.12C24.26 23.19 24.52 23.24 24.77 23.27L24.95 23.3C24.97 23.38 24.97 23.46 24.96 23.54V23.79C24.96 23.87 24.96 23.95 24.96 24.03C24.94 24.03 24.92 24.03 24.89 24.04H18.47C18.47 24.04 18.46 24.01 18.45 24V23.34C18.45 23.34 18.45 23.32 18.45 23.31C18.5 23.29 18.56 23.28 18.61 23.28C18.87 23.24 19.14 23.19 19.39 23.13C19.49 23.1 19.6 23.07 19.69 23.02C19.74 23 19.79 22.97 19.84 22.95C20.08 22.83 20.21 22.57 20.17 22.3C20.16 22.17 20.14 22.04 20.1 21.92C20.05 21.73 19.98 21.53 19.91 21.35C18.58 17.64 17.26 13.91 15.96 10.19C15.96 10.14 15.93 10.1 15.9 10.07C15.89 10.07 15.87 10.09 15.86 10.09C15.85 10.11 15.84 10.13 15.84 10.15C15.2 11.98 14.52 13.8 13.85 15.61C13.35 16.95 12.85 18.3 12.39 19.66C12.2 20.2 12.02 20.75 11.85 21.3C11.78 21.51 11.73 21.72 11.7 21.94C11.68 22.09 11.67 22.24 11.69 22.38C11.71 22.57 11.81 22.75 11.97 22.86C12.07 22.93 12.19 22.99 12.31 23.03C12.5 23.1 12.7 23.15 12.89 23.18C13.11 23.22 13.33 23.25 13.55 23.29C13.57 23.29 13.58 23.29 13.6 23.29V23.34L13.61 23.98C13.61 23.99 13.61 24 13.61 24.02C13.59 24.02 13.57 24.02 13.55 24.02H13.46L7.79999 24.04L7.82001 24.02Z" fill="black"/>
</svg>
