<svg width="32" height="32" viewBox="0 0 32 32" fill="none" xmlns="http://www.w3.org/2000/svg">
<g clip-path="url(#clip0_292_102)">
<path d="M16 31.75C7.32 31.75 0.25 24.68 0.25 16C0.25 7.32 7.32 0.25 16 0.25C24.68 0.25 31.75 7.32 31.75 16C31.75 24.68 24.68 31.75 16 31.75Z" fill="white"/>
<path d="M16 0.5C24.55 0.5 31.5 7.45 31.5 16C31.5 24.55 24.55 31.5 16 31.5C7.45 31.5 0.5 24.55 0.5 16C0.5 7.45 7.45 0.5 16 0.5ZM16 0C7.16 0 0 7.16 0 16C0 24.84 7.16 32 16 32C24.84 32 32 24.84 32 16C32 7.16 24.84 0 16 0Z" fill="#383D51"/>
<path d="M7.37 24.02C7.35999 23.78 7.35 23.53 7.37 23.29C7.45 23.27 7.52999 23.25 7.62 23.24C7.85999 23.2 8.11 23.14 8.34 23.07C8.41 23.05 8.47 23.03 8.53 23C8.84 22.88 9.11999 22.68 9.32999 22.42C9.47999 22.24 9.59999 22.04 9.70999 21.83C9.85999 21.54 10 21.25 10.12 20.95C10.36 20.34 10.61 19.74 10.85 19.13L13.33 12.85C14.11 10.86 14.88 8.86 15.64 6.86L15.69 6.74C15.97 6.66 16.24 6.58 16.53 6.5C16.55 6.54 16.56 6.58 16.57 6.61C16.89 7.5 17.21 8.4 17.53 9.29C18.62 12.34 19.71 15.38 20.83 18.42C21.14 19.25 21.45 20.08 21.76 20.91C21.88 21.25 22.03 21.58 22.19 21.9C22.26 22.04 22.34 22.17 22.43 22.3C22.69 22.7 23.09 23 23.56 23.12C23.81 23.19 24.07 23.24 24.32 23.27L24.5 23.3C24.52 23.38 24.52 23.46 24.51 23.54V23.79C24.51 23.87 24.51 23.95 24.51 24.03C24.49 24.03 24.47 24.03 24.44 24.04H18.02C18.02 24.04 18.01 24.01 18 24V23.34C18 23.34 18 23.32 18 23.31C18.05 23.29 18.11 23.28 18.16 23.28C18.42 23.24 18.69 23.19 18.94 23.13C19.04 23.1 19.15 23.07 19.24 23.02C19.29 23 19.34 22.97 19.39 22.95C19.63 22.83 19.76 22.57 19.72 22.3C19.71 22.17 19.69 22.04 19.65 21.92C19.6 21.73 19.53 21.53 19.46 21.35C18.13 17.64 16.81 13.91 15.51 10.19C15.51 10.14 15.48 10.1 15.45 10.07C15.44 10.07 15.42 10.09 15.41 10.09C15.4 10.11 15.39 10.13 15.39 10.15C14.75 11.98 14.07 13.8 13.4 15.61C12.9 16.95 12.4 18.3 11.94 19.66C11.75 20.2 11.57 20.75 11.4 21.3C11.33 21.51 11.28 21.72 11.25 21.94C11.23 22.09 11.22 22.24 11.24 22.38C11.26 22.57 11.36 22.75 11.52 22.86C11.62 22.93 11.74 22.99 11.86 23.03C12.05 23.1 12.25 23.15 12.44 23.18C12.66 23.22 12.88 23.25 13.1 23.29C13.12 23.29 13.13 23.29 13.15 23.29V23.34L13.16 23.98C13.16 23.99 13.16 24 13.16 24.02C13.14 24.02 13.12 24.02 13.1 24.02H13.01L7.34998 24.04L7.37 24.02Z" fill="black"/>
</g>
<defs>
<clipPath id="clip0_292_102">
<rect width="32" height="32" fill="white"/>
</clipPath>
</defs>
</svg>
