<svg width="33" height="33" viewBox="0 0 33 33" fill="none" xmlns="http://www.w3.org/2000/svg">
<path d="M16.77 0.43C7.92999 0.43 0.769989 7.59 0.769989 16.43C0.769989 25.27 7.92999 32.43 16.77 32.43C25.61 32.43 32.77 25.27 32.77 16.43C32.77 7.59 25.61 0.43 16.77 0.43ZM25.29 24.19C25.29 24.27 25.29 24.35 25.29 24.43C25.27 24.43 25.25 24.43 25.22 24.44H18.8C18.8 24.44 18.79 24.41 18.78 24.4V23.74C18.78 23.74 18.78 23.72 18.78 23.71C18.83 23.69 18.89 23.68 18.94 23.68C19.2 23.64 19.47 23.59 19.72 23.53C19.82 23.5 19.93 23.47 20.02 23.42C20.07 23.4 20.12 23.37 20.17 23.35C20.41 23.23 20.54 22.97 20.5 22.7C20.49 22.57 20.47 22.44 20.43 22.32C20.38 22.13 20.31 21.93 20.24 21.75C18.91 18.03 17.59 14.31 16.29 10.59C16.29 10.54 16.26 10.5 16.23 10.47C16.22 10.47 16.2 10.49 16.19 10.49C16.18 10.51 16.17 10.53 16.17 10.55C15.53 12.38 14.85 14.2 14.18 16.01C13.68 17.35 13.18 18.7 12.72 20.06C12.53 20.6 12.35 21.15 12.18 21.7C12.11 21.91 12.06 22.12 12.03 22.34C12.01 22.49 12 22.64 12.02 22.78C12.04 22.97 12.14 23.15 12.3 23.26C12.4 23.33 12.52 23.39 12.64 23.43C12.83 23.5 13.03 23.55 13.22 23.58C13.44 23.62 13.66 23.65 13.88 23.69C13.9 23.69 13.91 23.69 13.93 23.69V23.74L13.94 24.38C13.94 24.39 13.94 24.4 13.94 24.42C13.92 24.42 13.9 24.42 13.88 24.42H13.79L8.13 24.44C8.12 24.2 8.11 23.95 8.13 23.71C8.21 23.69 8.29 23.67 8.38 23.66C8.62 23.62 8.87001 23.56 9.10001 23.49C9.17001 23.47 9.23001 23.45 9.29001 23.42C9.60001 23.3 9.88 23.1 10.09 22.84C10.24 22.66 10.36 22.46 10.47 22.25C10.62 21.96 10.76 21.67 10.88 21.37C11.12 20.76 11.37 20.16 11.61 19.55L14.09 13.27C14.87 11.28 15.64 9.28 16.4 7.28L16.45 7.16C16.73 7.08 17 7 17.29 6.92C17.31 6.96 17.32 7 17.33 7.03C17.65 7.92 17.97 8.82 18.29 9.71C19.38 12.76 20.47 15.8 21.59 18.84C21.9 19.67 22.21 20.5 22.52 21.33C22.64 21.67 22.79 22 22.95 22.32C23.02 22.46 23.1 22.59 23.19 22.72C23.45 23.12 23.85 23.42 24.32 23.54C24.57 23.61 24.83 23.66 25.08 23.69L25.26 23.72C25.28 23.8 25.28 23.88 25.27 23.96V24.21L25.29 24.19Z" fill="#213147"/>
</svg>
