<svg width="32" height="32" viewBox="0 0 32 32" fill="none" xmlns="http://www.w3.org/2000/svg">
<path d="M16 0C7.16 0 0 7.16 0 16C0 24.84 7.16 32 16 32C24.84 32 32 24.84 32 16C32 7.16 24.84 0 16 0ZM24.52 23.76C24.52 23.84 24.52 23.92 24.52 24C24.5 24 24.48 24 24.45 24.01H18.03C18.03 24.01 18.02 23.98 18.01 23.97V23.31C18.01 23.31 18.01 23.29 18.01 23.28C18.06 23.26 18.12 23.25 18.17 23.25C18.43 23.21 18.7 23.16 18.95 23.1C19.05 23.07 19.16 23.04 19.25 22.99C19.3 22.97 19.35 22.94 19.4 22.92C19.64 22.8 19.77 22.54 19.73 22.27C19.72 22.14 19.7 22.01 19.66 21.89C19.61 21.7 19.54 21.5 19.47 21.32C18.14 17.6 16.82 13.88 15.52 10.16C15.52 10.11 15.49 10.07 15.46 10.04C15.45 10.04 15.43 10.06 15.42 10.06C15.41 10.08 15.4 10.1 15.4 10.12C14.76 11.95 14.08 13.77 13.41 15.58C12.91 16.92 12.41 18.27 11.95 19.63C11.76 20.17 11.58 20.72 11.41 21.27C11.34 21.48 11.29 21.69 11.26 21.91C11.24 22.06 11.23 22.21 11.25 22.35C11.27 22.54 11.37 22.72 11.53 22.83C11.63 22.9 11.75 22.96 11.87 23C12.06 23.07 12.26 23.12 12.45 23.15C12.67 23.19 12.89 23.22 13.11 23.26C13.13 23.26 13.14 23.26 13.16 23.26V23.31L13.17 23.95C13.17 23.96 13.17 23.97 13.17 23.99C13.15 23.99 13.13 23.99 13.11 23.99H13.02L7.36002 24.01C7.35002 23.77 7.34002 23.52 7.36002 23.28C7.44002 23.26 7.52002 23.24 7.61002 23.23C7.85002 23.19 8.10002 23.13 8.33002 23.06C8.40002 23.04 8.46002 23.02 8.52002 22.99C8.83002 22.87 9.11001 22.67 9.32001 22.41C9.47001 22.23 9.59001 22.03 9.70001 21.82C9.85001 21.53 9.99002 21.24 10.11 20.94C10.35 20.33 10.6 19.73 10.84 19.12L13.32 12.84C14.1 10.85 14.87 8.85 15.63 6.85L15.68 6.73C15.96 6.65 16.23 6.57 16.52 6.49C16.54 6.53 16.55 6.57 16.56 6.6C16.88 7.49 17.2 8.39 17.52 9.28C18.61 12.33 19.7 15.37 20.82 18.41C21.13 19.24 21.44 20.07 21.75 20.9C21.87 21.24 22.02 21.57 22.18 21.89C22.25 22.03 22.33 22.16 22.42 22.29C22.68 22.69 23.08 22.99 23.55 23.11C23.8 23.18 24.06 23.23 24.31 23.26L24.49 23.29C24.51 23.37 24.51 23.45 24.5 23.53V23.78L24.52 23.76Z" fill="#213147"/>
</svg>
