<svg width="33" height="33" viewBox="0 0 33 33" fill="none" xmlns="http://www.w3.org/2000/svg">
<path d="M16.73 0.43C7.89 0.43 0.729996 7.59 0.729996 16.43C0.729996 25.27 7.89 32.43 16.73 32.43C25.57 32.43 32.73 25.27 32.73 16.43C32.73 7.59 25.57 0.43 16.73 0.43ZM27.57 21.63C27.57 22.29 27.22 22.91 26.64 23.24L17.64 28.44C17.35 28.61 17.03 28.69 16.71 28.69C16.38 28.69 16.06 28.6 15.78 28.44L10.75 25.54L8.39 24.18L6.78 23.25C6.21 22.92 5.85001 22.31 5.85001 21.64V11.25C5.85001 10.59 6.2 9.97 6.78 9.64L15.78 4.44C16.07 4.27 16.39 4.19 16.71 4.19C17.04 4.19 17.36 4.28 17.64 4.44L26.64 9.64C27.21 9.97 27.57 10.58 27.57 11.25V21.64V21.63Z" fill="#213147"/>
<path d="M16.88 5.74C16.83 5.71 16.77 5.7 16.71 5.7C16.65 5.7 16.59 5.72 16.54 5.75L7.53999 10.95C7.43999 11.01 7.37 11.12 7.37 11.24V21.64C7.37 21.76 7.42999 21.87 7.53999 21.93L8.92 22.73L13.28 10.77C13.34 10.61 13.49 10.5 13.66 10.5H15.94C16.08 10.5 16.18 10.64 16.13 10.77L11.27 24.09L12.21 24.63L17.27 10.76C17.33 10.6 17.48 10.49 17.65 10.49H19.93C19.93 10.49 19.98 10.49 20 10.5C20.11 10.54 20.16 10.66 20.12 10.76L14.57 25.98L16.53 27.11C16.58 27.14 16.64 27.15 16.7 27.15C16.76 27.15 16.82 27.14 16.87 27.11L18.84 25.97L17.33 21.82C17.3 21.73 17.3 21.63 17.33 21.54L18.52 18.29C18.58 18.11 18.84 18.11 18.9 18.29L21.2 24.61L22.14 24.07L19.33 16.35C19.3 16.26 19.3 16.16 19.33 16.07L20.52 12.82C20.58 12.64 20.84 12.64 20.9 12.82C20.9 12.82 23.7 20.5 24.51 22.7L25.88 21.91C25.98 21.85 26.05 21.74 26.05 21.62V11.23C26.05 11.11 25.99 11 25.88 10.94L16.88 5.74Z" fill="#213147"/>
</svg>
