<svg width="32" height="32" viewBox="0 0 32 32" fill="none" xmlns="http://www.w3.org/2000/svg">
<g clip-path="url(#clip0_292_45)">
<path d="M16 32C24.84 32 32 24.84 32 16C32 7.16 24.83 0 16 0C7.17 0 0 7.16 0 16C0 24.84 7.16 32 16 32Z" fill="#213147"/>
<path d="M17.8 17.86L16.61 21.11C16.58 21.2 16.58 21.3 16.61 21.39L18.65 26.99L21.01 25.63L18.18 17.86C18.12 17.68 17.86 17.68 17.8 17.86ZM20.17 12.39C20.11 12.21 19.85 12.21 19.79 12.39L18.6 15.64C18.57 15.73 18.57 15.83 18.6 15.92L21.94 25.08L24.3 23.72L20.16 12.39H20.17Z" fill="#12AAFF"/>
<path d="M25.91 9.18999L16.91 3.98999C16.63 3.82999 16.31 3.73999 15.98 3.73999C15.66 3.73999 15.34 3.81999 15.05 3.98999L6.04999 9.18999C5.47999 9.51999 5.12 10.13 5.12 10.8V21.19C5.12 21.85 5.46999 22.47 6.04999 22.8L10.03 25.1L10.56 23.65L6.80998 21.49C6.70998 21.43 6.63998 21.32 6.63998 21.2V10.8C6.63998 10.68 6.69998 10.57 6.80998 10.51L15.81 5.30999C15.86 5.27999 15.92 5.25999 15.98 5.25999C16.04 5.25999 16.1 5.27999 16.15 5.29999L25.15 10.5C25.25 10.56 25.32 10.67 25.32 10.79V21.18C25.32 21.3 25.26 21.41 25.15 21.47L16.15 26.67C16.1 26.7 16.04 26.71 15.98 26.71C15.92 26.71 15.86 26.69 15.81 26.67L12.14 24.55L10.96 25.63L15.05 27.99C15.33 28.15 15.65 28.24 15.98 28.24C16.3 28.24 16.62 28.16 16.91 27.99L25.91 22.79C26.48 22.46 26.84 21.85 26.84 21.18V10.79C26.84 10.13 26.49 9.50999 25.91 9.17999V9.18999Z" fill="#9DCCED"/>
<path d="M12.94 10.06C12.77 10.06 12.62 10.17 12.56 10.33L7.66998 23.74L10.03 25.1L15.42 10.33C15.47 10.2 15.37 10.06 15.23 10.06H12.94ZM19.21 10.06H16.93C16.76 10.06 16.61 10.17 16.55 10.33L10.96 25.64L13.32 27L19.4 10.33C19.44 10.22 19.38 10.11 19.28 10.07C19.26 10.07 19.23 10.06 19.21 10.06Z" fill="white"/>
</g>
<defs>
<clipPath id="clip0_292_45">
<rect width="32" height="32" fill="white"/>
</clipPath>
</defs>
</svg>
