<svg width="33" height="32" viewBox="0 0 33 32" fill="none" xmlns="http://www.w3.org/2000/svg">
<path d="M16.59 32C25.43 32 32.59 24.84 32.59 16C32.59 7.16 25.42 0 16.59 0C7.76 0 0.589996 7.16 0.589996 16C0.589996 24.84 7.75 32 16.59 32Z" fill="#213147"/>
<path d="M18.39 17.86L17.2 21.11C17.17 21.2 17.17 21.3 17.2 21.39L19.24 26.99L21.6 25.63L18.77 17.86C18.71 17.68 18.45 17.68 18.39 17.86ZM20.76 12.39C20.7 12.21 20.44 12.21 20.38 12.39L19.19 15.64C19.16 15.73 19.16 15.83 19.19 15.92L22.53 25.08L24.89 23.72L20.75 12.39H20.76Z" fill="#12AAFF"/>
<path d="M26.5 9.19001L17.5 3.99001C17.22 3.83001 16.9 3.74001 16.57 3.74001C16.25 3.74001 15.93 3.82001 15.64 3.99001L6.64 9.19001C6.07 9.52001 5.71001 10.13 5.71001 10.8V21.19C5.71001 21.85 6.06 22.47 6.64 22.8L10.62 25.1L11.15 23.65L7.39999 21.49C7.29999 21.43 7.23 21.32 7.23 21.2V10.8C7.23 10.68 7.28999 10.57 7.39999 10.51L16.4 5.31001C16.45 5.28001 16.51 5.26001 16.57 5.26001C16.63 5.26001 16.69 5.28001 16.74 5.30001L25.74 10.5C25.84 10.56 25.91 10.67 25.91 10.79V21.18C25.91 21.3 25.85 21.41 25.74 21.47L16.74 26.67C16.69 26.7 16.63 26.71 16.57 26.71C16.51 26.71 16.45 26.69 16.4 26.67L12.73 24.55L11.55 25.63L15.64 27.99C15.92 28.15 16.24 28.24 16.57 28.24C16.89 28.24 17.21 28.16 17.5 27.99L26.5 22.79C27.07 22.46 27.43 21.85 27.43 21.18V10.79C27.43 10.13 27.08 9.51001 26.5 9.18001V9.19001Z" fill="#9DCCED"/>
<path d="M15.81 10.06H13.53C13.36 10.06 13.21 10.17 13.15 10.33L8.25999 23.74L10.62 25.1L16.01 10.33C16.06 10.2 15.96 10.06 15.82 10.06H15.81ZM19.8 10.06H17.52C17.35 10.06 17.2 10.17 17.14 10.33L11.55 25.64L13.91 27L19.99 10.33C20.03 10.22 19.97 10.11 19.87 10.07C19.85 10.07 19.82 10.06 19.8 10.06Z" fill="white"/>
</svg>
