<svg width="32" height="32" viewBox="0 0 32 32" fill="none" xmlns="http://www.w3.org/2000/svg">
<path d="M16 0C7.16 0 0 7.16 0 16C0 24.84 7.16 32 16 32C24.84 32 32 24.84 32 16C32 7.16 24.84 0 16 0ZM26.84 21.2C26.84 21.86 26.49 22.48 25.91 22.81L16.91 28.01C16.62 28.18 16.3 28.26 15.98 28.26C15.65 28.26 15.33 28.17 15.05 28.01L7.66 23.75L6.05 22.82C5.48 22.49 5.12001 21.88 5.12001 21.21V10.82C5.12001 10.16 5.47 9.54 6.05 9.21L15.05 4.01C15.34 3.84 15.66 3.76 15.98 3.76C16.31 3.76 16.63 3.85 16.91 4.01L25.91 9.21C26.48 9.54 26.84 10.15 26.84 10.82V21.21V21.2Z" fill="#213147"/>
<path d="M16.15 5.31C16.1 5.28 16.04 5.27 15.98 5.27C15.92 5.27 15.86 5.29 15.81 5.32L6.81 10.52C6.71 10.58 6.64 10.69 6.64 10.81V21.21C6.64 21.33 6.7 21.44 6.81 21.5L8.19 22.3L12.55 10.34C12.61 10.18 12.76 10.07 12.93 10.07H15.21C15.35 10.07 15.45 10.21 15.4 10.34L10.54 23.66L11.48 24.2L16.54 10.33C16.6 10.17 16.75 10.06 16.92 10.06H19.2C19.2 10.06 19.25 10.06 19.27 10.07C19.38 10.11 19.43 10.23 19.39 10.33L13.84 25.55L15.8 26.68C15.85 26.71 15.91 26.72 15.97 26.72C16.03 26.72 16.09 26.71 16.14 26.68L18.11 25.54L16.6 21.39C16.57 21.3 16.57 21.2 16.6 21.11L17.79 17.86C17.85 17.68 18.11 17.68 18.17 17.86L20.47 24.18L21.41 23.64L18.6 15.92C18.57 15.83 18.57 15.73 18.6 15.64L19.79 12.39C19.85 12.21 20.11 12.21 20.17 12.39C20.17 12.39 22.97 20.07 23.78 22.27L25.15 21.48C25.25 21.42 25.32 21.31 25.32 21.19V10.8C25.32 10.68 25.26 10.57 25.15 10.51L16.15 5.31Z" fill="#213147"/>
</svg>
