<svg width="32" height="32" viewBox="0 0 32 32" fill="none" xmlns="http://www.w3.org/2000/svg">
<g clip-path="url(#clip0_292_172)">
<path fill-rule="evenodd" clip-rule="evenodd" d="M32 16C32 24.84 24.84 32 16 32C7.16 32 0 24.84 0 16C0 7.16 7.16 0 16 0C24.84 0 32 7.16 32 16Z" fill="#E84142"/>
<path d="M19.31 22.37H23.76C24.42 22.37 24.75 22.37 24.94 22.24C25.15 22.1 25.29 21.87 25.3 21.62C25.31 21.4 25.15 21.12 24.84 20.59C24.83 20.57 24.82 20.55 24.81 20.53L22.58 16.72L22.55 16.68C22.24 16.15 22.08 15.88 21.88 15.78C21.66 15.67 21.39 15.67 21.17 15.78C20.97 15.89 20.8 16.17 20.47 16.73L18.25 20.54C17.92 21.11 17.76 21.39 17.77 21.62C17.79 21.87 17.92 22.1 18.13 22.24C18.32 22.37 18.65 22.37 19.31 22.37Z" fill="white"/>
<path d="M19.28 12.14C19.37 11.78 19.37 11.41 19.28 11.05C19.2 10.72 19.02 10.41 18.67 9.79L17.09 7.02C16.76 6.45 16.6 6.16 16.39 6.05C16.17 5.94 15.9 5.94 15.67 6.05C15.46 6.16 15.3 6.44 14.97 7.02L7.30003 20.53C6.98003 21.1 6.82003 21.38 6.83003 21.61C6.85003 21.86 6.98002 22.09 7.19002 22.23C7.39002 22.36 7.71003 22.36 8.36003 22.36H11.47C12.2 22.36 12.57 22.36 12.89 22.27C13.25 22.16 13.5701 21.98 13.8501 21.72C14.1001 21.48 14.28 21.17 14.63 20.55V20.53L18.67 13.41C19.03 12.79 19.2 12.47 19.28 12.14Z" fill="white"/>
</g>
<defs>
<clipPath id="clip0_292_172">
<rect width="32" height="32" fill="white"/>
</clipPath>
</defs>
</svg>
