<svg width="33" height="32" viewBox="0 0 33 32" fill="none" xmlns="http://www.w3.org/2000/svg">
<path fill-rule="evenodd" clip-rule="evenodd" d="M32.55 16C32.55 24.84 25.39 32 16.55 32C7.70999 32 0.549988 24.84 0.549988 16C0.549988 7.16 7.70999 0 16.55 0C25.39 0 32.55 7.16 32.55 16Z" fill="#E84142"/>
<path d="M19.86 22.37H24.31C24.97 22.37 25.3 22.37 25.49 22.24C25.7 22.1 25.84 21.87 25.85 21.62C25.86 21.4 25.7 21.12 25.39 20.59C25.38 20.57 25.37 20.55 25.36 20.53L23.13 16.72L23.1 16.68C22.79 16.15 22.63 15.88 22.43 15.78C22.21 15.67 21.94 15.67 21.72 15.78C21.52 15.89 21.35 16.17 21.02 16.73L18.8 20.54C18.47 21.11 18.31 21.39 18.32 21.62C18.34 21.87 18.47 22.1 18.68 22.24C18.87 22.37 19.2 22.37 19.86 22.37Z" fill="white"/>
<path d="M19.83 12.14C19.92 11.78 19.92 11.41 19.83 11.05C19.75 10.72 19.57 10.41 19.22 9.79L17.64 7.02C17.31 6.45 17.15 6.16 16.94 6.05C16.72 5.94 16.45 5.94 16.22 6.05C16.01 6.16 15.85 6.44 15.52 7.02L7.85002 20.53C7.53002 21.1 7.37002 21.38 7.38002 21.61C7.40002 21.86 7.53 22.09 7.74 22.23C7.94 22.36 8.26002 22.36 8.91002 22.36H12.02C12.75 22.36 13.12 22.36 13.44 22.27C13.8 22.16 14.12 21.98 14.4 21.72C14.65 21.48 14.83 21.17 15.18 20.55V20.53L19.22 13.41C19.58 12.79 19.75 12.47 19.83 12.14Z" fill="white"/>
</svg>
