<svg width="33" height="33" viewBox="0 0 33 33" fill="none" xmlns="http://www.w3.org/2000/svg">
<path fill-rule="evenodd" clip-rule="evenodd" d="M32.18 16.43C32.18 25.27 25.02 32.43 16.18 32.43C7.33999 32.43 0.179993 25.27 0.179993 16.43C0.179993 7.59 7.33999 0.43 16.18 0.43C25.02 0.43 32.18 7.59 32.18 16.43ZM11.65 22.8H8.54001C7.89001 22.8 7.57 22.8 7.37 22.67C7.16 22.53 7.03001 22.3 7.01001 22.05C7.00001 21.82 7.16001 21.54 7.48001 20.97L15.15 7.46C15.48 6.89 15.64 6.6 15.85 6.49C16.07 6.38 16.34 6.38 16.57 6.49C16.78 6.6 16.94 6.88 17.27 7.46L18.85 10.21C19.2 10.84 19.38 11.15 19.46 11.48C19.55 11.84 19.55 12.21 19.46 12.57C19.38 12.9 19.2 13.21 18.85 13.84L14.82 20.96V20.98C14.45 21.6 14.28 21.92 14.03 22.15C13.76 22.41 13.43 22.6 13.07 22.7C12.74 22.79 12.38 22.79 11.65 22.79V22.8ZM19.49 22.8H23.94C24.6 22.8 24.93 22.8 25.12 22.67C25.33 22.53 25.47 22.3 25.48 22.05C25.49 21.83 25.33 21.55 25.02 21.02C25.01 21 25 20.98 24.99 20.96L22.76 17.15L22.73 17.11C22.42 16.58 22.26 16.31 22.06 16.21C21.84 16.1 21.57 16.1 21.35 16.21C21.15 16.32 20.98 16.6 20.65 17.16L18.43 20.97C18.1 21.54 17.94 21.82 17.95 22.05C17.97 22.3 18.1 22.53 18.31 22.67C18.5 22.8 18.83 22.8 19.49 22.8Z" fill="#213147"/>
</svg>
