<svg width="32" height="32" viewBox="0 0 32 32" fill="none" xmlns="http://www.w3.org/2000/svg">
<path d="M16 0C7.16 0 0 7.16 0 16C0 24.84 7.16 32 16 32C24.84 32 32 24.84 32 16C32 7.16 24.84 0 16 0ZM16 7.28C19.53 7.28 22.39 8.24 22.39 9.41C22.39 10.58 19.53 11.54 16 11.54C12.47 11.54 9.60999 10.58 9.60999 9.41C9.60999 8.24 12.47 7.28 16 7.28ZM13.27 11.97C14.17 12.11 15.08 12.18 15.99 12.18C16.87 12.18 17.75 12.12 18.63 11.98H18.72C22.14 12.34 24.61 13.41 24.61 14.67C24.61 16.24 20.75 17.52 16 17.52C11.25 17.52 7.38998 16.25 7.38998 14.67C7.38998 13.41 9.86 12.35 13.28 11.97H13.27ZM16 24.72C10.07 24.72 5.25998 23.13 5.25998 21.16C5.25998 19.71 7.89 18.46 11.66 17.91C13.09 18.19 14.55 18.32 16 18.32C17.42 18.32 18.85 18.2 20.25 17.93L20.35 17.91C24.12 18.46 26.75 19.71 26.75 21.16C26.75 23.13 21.94 24.72 16.01 24.72H16Z" fill="#213147"/>
</svg>
