<svg width="32" height="32" viewBox="0 0 32 32" fill="none" xmlns="http://www.w3.org/2000/svg">
<g clip-path="url(#clip0_292_137)">
<path d="M16 31.75C7.32 31.75 0.25 24.68 0.25 16C0.25 7.32 7.32 0.25 16 0.25C24.68 0.25 31.75 7.32 31.75 16C31.75 24.68 24.68 31.75 16 31.75Z" fill="white"/>
<path d="M16 0.5C24.55 0.5 31.5 7.45 31.5 16C31.5 24.55 24.55 31.5 16 31.5C7.45 31.5 0.5 24.55 0.5 16C0.5 7.45 7.45 0.5 16 0.5ZM16 0C7.16 0 0 7.16 0 16C0 24.84 7.16 32 16 32C24.84 32 32 24.84 32 16C32 7.16 24.84 0 16 0Z" fill="#383D51"/>
<path fill-rule="evenodd" clip-rule="evenodd" d="M20.34 17.91C24.11 18.46 26.74 19.71 26.74 21.16C26.74 23.13 21.93 24.72 16 24.72C10.07 24.72 5.26001 23.13 5.26001 21.16C5.26001 19.71 7.89 18.46 11.66 17.91C13.09 18.19 14.55 18.32 16 18.32C17.42 18.32 18.85 18.2 20.25 17.93L20.35 17.91H20.34ZM18.72 11.97C22.14 12.35 24.61 13.41 24.61 14.67C24.61 16.24 20.75 17.52 16 17.52C11.25 17.52 7.39001 16.25 7.39001 14.67C7.39001 13.41 9.86 12.35 13.28 11.97C14.18 12.11 15.09 12.18 16 12.18C16.88 12.18 17.76 12.12 18.64 11.98L18.73 11.97H18.72Z" fill="black"/>
<path d="M16 11.55C19.53 11.55 22.39 10.59 22.39 9.42C22.39 8.25 19.53 7.29 16 7.29C12.47 7.29 9.61002 8.25 9.61002 9.42C9.61002 10.59 12.47 11.55 16 11.55Z" fill="black"/>
</g>
<defs>
<clipPath id="clip0_292_137">
<rect width="32" height="32" fill="white"/>
</clipPath>
</defs>
</svg>
