<svg width="33" height="33" viewBox="0 0 33 33" fill="none" xmlns="http://www.w3.org/2000/svg">
<path d="M16.82 0.43C7.98001 0.43 0.820007 7.59 0.820007 16.43C0.820007 25.27 7.98001 32.43 16.82 32.43C25.66 32.43 32.82 25.27 32.82 16.43C32.82 7.59 25.66 0.43 16.82 0.43ZM16.82 7.71C20.35 7.71 23.21 8.67 23.21 9.84C23.21 11.01 20.35 11.97 16.82 11.97C13.29 11.97 10.43 11.01 10.43 9.84C10.43 8.67 13.29 7.71 16.82 7.71ZM14.09 12.4C14.99 12.54 15.9 12.61 16.81 12.61C17.69 12.61 18.57 12.55 19.45 12.41H19.54C22.96 12.77 25.43 13.84 25.43 15.1C25.43 16.67 21.57 17.95 16.82 17.95C12.07 17.95 8.20999 16.68 8.20999 15.1C8.20999 13.84 10.68 12.78 14.1 12.4H14.09ZM16.82 25.15C10.89 25.15 6.07999 23.56 6.07999 21.59C6.07999 20.14 8.71001 18.89 12.48 18.34C13.91 18.62 15.37 18.75 16.82 18.75C18.24 18.75 19.67 18.63 21.07 18.36L21.17 18.34C24.94 18.89 27.57 20.14 27.57 21.59C27.57 23.56 22.76 25.15 16.83 25.15H16.82Z" fill="#213147"/>
</svg>
