<svg width="33" height="32" viewBox="0 0 33 32" fill="none" xmlns="http://www.w3.org/2000/svg">
<path d="M16.31 31.75C7.63 31.75 0.559998 24.68 0.559998 16C0.559998 7.32 7.63 0.25 16.31 0.25C24.99 0.25 32.06 7.32 32.06 16C32.06 24.68 24.99 31.75 16.31 31.75Z" fill="white"/>
<path d="M16.31 0.5C24.86 0.5 31.81 7.45 31.81 16C31.81 24.55 24.86 31.5 16.31 31.5C7.76 31.5 0.809998 24.55 0.809998 16C0.809998 7.45 7.76 0.5 16.31 0.5ZM16.31 0C7.47 0 0.309998 7.16 0.309998 16C0.309998 24.84 7.47 32 16.31 32C25.15 32 32.31 24.84 32.31 16C32.31 7.16 25.15 0 16.31 0Z" fill="#383D51"/>
<path fill-rule="evenodd" clip-rule="evenodd" d="M20.65 17.91C24.42 18.46 27.05 19.71 27.05 21.16C27.05 23.13 22.24 24.72 16.31 24.72C10.38 24.72 5.57001 23.13 5.57001 21.16C5.57001 19.71 8.2 18.46 11.97 17.91C13.4 18.19 14.86 18.32 16.31 18.32C17.73 18.32 19.16 18.2 20.56 17.93L20.66 17.91H20.65ZM19.03 11.97C22.45 12.35 24.92 13.41 24.92 14.67C24.92 16.24 21.06 17.52 16.31 17.52C11.56 17.52 7.70001 16.25 7.70001 14.67C7.70001 13.41 10.17 12.35 13.59 11.97C14.49 12.11 15.4 12.18 16.31 12.18C17.19 12.18 18.07 12.12 18.95 11.98L19.04 11.97H19.03Z" fill="black"/>
<path d="M16.31 11.55C19.84 11.55 22.7 10.59 22.7 9.41999C22.7 8.24999 19.84 7.28999 16.31 7.28999C12.78 7.28999 9.92001 8.24999 9.92001 9.41999C9.92001 10.59 12.78 11.55 16.31 11.55Z" fill="black"/>
</svg>
