<svg width="33" height="33" viewBox="0 0 33 33" fill="none" xmlns="http://www.w3.org/2000/svg">
<path d="M29.96 8.36C28.53 5.95 26.61 4.03 24.21 2.61C21.72 1.16 19.03 0.440002 16.15 0.440002C13.27 0.440002 10.56 1.17 8.06 2.61C5.65 4.04 3.73 5.96 2.31 8.36C0.859998 10.85 0.140015 13.55 0.140015 16.43C0.140015 19.31 0.869998 22.01 2.31 24.5C3.74 26.91 5.66 28.83 8.06 30.25C10.55 31.7 13.25 32.42 16.13 32.42C19.01 32.42 21.71 31.69 24.2 30.25C26.61 28.82 28.53 26.9 29.95 24.5C31.4 22.01 32.12 19.31 32.12 16.43C32.12 13.55 31.39 10.85 29.95 8.36H29.96ZM15.51 5.51V12.51L11.87 18.9L5.79999 22.38L15.52 5.5L15.51 5.51ZM6.37 23.41L12.41 19.89H19.86L25.9 23.41H6.37ZM20.37 18.91L16.63 12.52V5.52L26.41 22.4L20.37 18.92V18.91Z" fill="#213147"/>
</svg>
