<svg width="33" height="32" viewBox="0 0 33 32" fill="none" xmlns="http://www.w3.org/2000/svg">
<path d="M16.69 32C25.5266 32 32.69 24.8366 32.69 16C32.69 7.16344 25.5266 0 16.69 0C7.85345 0 0.690002 7.16344 0.690002 16C0.690002 24.8366 7.85345 32 16.69 32Z" fill="white"/>
<path d="M21.54 20.08L28.37 23.99L16.75 3.92999V12.1C16.8 12.18 21.54 20.08 21.54 20.08Z" fill="#9E1F63"/>
<path d="M21.54 20.08H11.92L5 24.02L28.37 24L21.54 20.08Z" fill="#662D91"/>
<path d="M22.73 20.75L16.74 10.79V3.94L5 24.02L10.76 20.74H22.74L22.73 20.75ZM13.11 19.41L16.74 13.35L20.38 19.41H13.11Z" fill="#FF5000"/>
</svg>
