<svg width="33" height="32" viewBox="0 0 33 32" fill="none" xmlns="http://www.w3.org/2000/svg">
<path fill-rule="evenodd" clip-rule="evenodd" d="M16.93 0C25.77 0 32.93 7.16 32.93 16C32.93 24.84 25.77 32 16.93 32C8.08999 32 0.929993 24.84 0.929993 16C0.929993 7.16 8.08999 0 16.93 0Z" fill="#F0B90B"/>
<path d="M9.72 16L9.73999 20.23L13.33 22.35V24.82L7.63 21.48V14.76L9.72 16Z" fill="white"/>
<path d="M9.72 11.77V14.23L7.63 13V10.53L9.72 9.28999L11.83 10.53L9.72 11.77Z" fill="white"/>
<path d="M14.83 10.53L16.93 9.28999L19.03 10.53L16.93 11.77L14.83 10.53Z" fill="white"/>
<path d="M11.24 19.35V16.88L13.33 18.12V20.58L11.24 19.35Z" fill="white"/>
<path d="M14.83 23.23L16.93 24.47L19.03 23.23V25.7L16.93 26.94L14.83 25.7V23.23Z" fill="white"/>
<path d="M22.03 10.53L24.13 9.28999L26.23 10.53V13L24.13 14.23V11.77L22.03 10.53Z" fill="white"/>
<path d="M24.13 20.23L24.14 16L26.23 14.76V21.48L20.53 24.82V22.34L24.13 20.23Z" fill="white"/>
<path d="M22.62 19.35L20.53 20.58V18.11L22.62 16.87V19.35Z" fill="white"/>
<path d="M22.62 12.65L22.64 15.12L19.03 17.24V21.48L16.94 22.71L14.84 21.48V17.24L11.24 15.12V12.65L13.34 11.41L16.92 13.53L20.53 11.41L22.63 12.65H22.62Z" fill="white"/>
<path d="M11.24 8.42L16.93 5.06L22.62 8.42L20.53 9.66L16.93 7.53L13.33 9.66L11.24 8.42Z" fill="white"/>
</svg>
