<svg width="33" height="33" viewBox="0 0 33 33" fill="none" xmlns="http://www.w3.org/2000/svg">
<path fill-rule="evenodd" clip-rule="evenodd" d="M16.5 0.43C7.66 0.43 0.5 7.59 0.5 16.43C0.5 25.27 7.66 32.43 16.5 32.43C25.34 32.43 32.5 25.27 32.5 16.43C32.5 7.59 25.34 0.43 16.5 0.43ZM25.8 10.96V13.43L23.7 14.67V12.2L21.61 10.96L23.7 9.72L25.8 10.96ZM16.49 5.49L22.19 8.84L20.1 10.08L16.49 7.95L12.9 10.08L10.81 8.84L16.5 5.49H16.49ZM18.6 10.96L16.5 12.2L14.41 10.96L16.5 9.72L18.6 10.96ZM7.20001 10.96L9.29001 9.72L11.39 10.96L9.29001 12.2V14.67L7.20001 13.43V10.96ZM12.9 25.25L7.20001 21.91V15.19L9.29001 16.43V20.66L12.9 22.78V25.26V25.25ZM12.9 21.01L10.81 19.78V17.3L12.9 18.54V21.01ZM18.6 26.13L16.5 27.37L14.41 26.13V23.66L16.5 24.9L18.6 23.66V26.13ZM18.6 21.91L16.51 23.14L14.42 21.91V17.67L10.81 15.55V13.07L12.91 11.83L16.49 13.96L20.1 11.83L22.2 13.07V15.55L18.61 17.67V21.91H18.6ZM20.1 18.54L22.19 17.3V19.78L20.1 21.01V18.54ZM25.8 21.91L20.1 25.25V22.77L23.69 20.66V16.43L25.8 15.19V21.91Z" fill="#213147"/>
</svg>
