<svg width="32" height="32" viewBox="0 0 32 32" fill="none" xmlns="http://www.w3.org/2000/svg">
<g clip-path="url(#clip0_292_78)">
<path d="M27.71 8.55999C26.18 6.29999 24.03 4.52999 21.52 3.45999C20.67 3.09999 19.78 2.82999 18.88 2.63999C17.98 2.45999 17.07 2.36999 16.15 2.35999V3.54999H16.03V2.35999C15.08 2.35999 14.14 2.45999 13.21 2.63999C11.41 3.00999 9.69999 3.72999 8.17999 4.75999C5.91999 6.28999 4.15 8.43999 3.08 10.95C2.72 11.8 2.44999 12.69 2.25999 13.59C1.87999 15.46 1.87999 17.39 2.25999 19.26C2.62999 21.06 3.35 22.77 4.38 24.29C5.91 26.55 8.06 28.32 10.57 29.39C11.42 29.75 12.31 30.02 13.21 30.21C14.14 30.4 15.08 30.49 16.03 30.49V9.35999C14.09 9.35999 12.53 8.82999 12.53 8.17999C12.53 7.69999 13.4 7.27999 14.64 7.09999C15.11 7.18999 15.59 7.23999 16.07 7.23999C16.54 7.23999 17.01 7.19999 17.47 7.10999H17.5C18.74 7.28999 19.61 7.69999 19.61 8.18999C19.61 8.82999 18.07 9.35999 16.16 9.36999V30.5C17.08 30.5 17.99 30.4 18.89 30.22C20.69 29.85 22.4 29.13 23.92 28.1C26.18 26.57 27.95 24.42 29.02 21.91C29.38 21.06 29.65 20.17 29.84 19.27C30.22 17.4 30.22 15.47 29.84 13.6C29.47 11.8 28.75 10.09 27.72 8.56999L27.71 8.55999ZM13.66 18.8C13.66 21.56 11.42 23.8 8.66 23.8C5.9 23.8 3.66 21.56 3.66 18.8C3.66 16.04 5.9 13.8 8.66 13.8C11.42 13.8 13.66 16.04 13.66 18.8ZM16.06 3.61999C17.23 3.61999 18.18 3.93999 18.18 4.32999C18.18 4.71999 17.23 5.03999 16.06 5.03999C14.89 5.03999 13.94 4.71999 13.94 4.32999C13.94 3.93999 14.89 3.61999 16.06 3.61999ZM16.06 6.99999C14.5 6.99999 13.23 6.57999 13.23 6.04999C13.23 5.62999 14.04 5.27999 15.16 5.14999C15.46 5.19999 15.76 5.21999 16.06 5.21999C16.35 5.21999 16.64 5.19999 16.93 5.14999H16.96C18.08 5.26999 18.89 5.61999 18.89 6.03999C18.89 6.55999 17.62 6.98999 16.06 6.98999V6.99999ZM23.2 13.8L26.14 18.69L23.2 17.36V13.8ZM23.2 17.64L26.12 18.97L23.2 20.66V17.63V17.64ZM22.92 23.8L19.86 19.49L22.92 21.32V23.8ZM22.92 20.66L20 18.97L22.92 17.64V20.67V20.66ZM22.92 17.36L19.98 18.69L22.92 13.8V17.36ZM23.2 21.33L26.26 19.5L23.2 23.81V21.33Z" fill="#213147"/>
<path d="M16.09 0.429993C7.25 0.429993 0.0899963 7.58999 0.0899963 16.43C0.0899963 25.27 7.25 32.43 16.09 32.43C24.93 32.43 32.09 25.27 32.09 16.43C32.09 7.58999 24.93 0.429993 16.09 0.429993ZM28.7 24.96C27.04 27.41 24.71 29.33 21.98 30.49C21.06 30.88 20.1 31.18 19.12 31.38C18.11 31.59 17.08 31.69 16.04 31.69C15.01 31.69 13.98 31.59 12.96 31.38C11.01 30.98 9.15 30.2 7.5 29.08C5.05 27.42 3.13 25.09 1.97 22.37C1.58 21.45 1.28 20.49 1.08 19.51C0.670002 17.48 0.670002 15.39 1.08 13.36C1.48 11.41 2.26 9.54999 3.38 7.89999C5.04 5.44999 7.37 3.52999 10.09 2.36999C11.01 1.97999 11.97 1.67999 12.95 1.47999C14.98 1.06999 17.07 1.06999 19.1 1.47999C21.05 1.87999 22.91 2.65999 24.56 3.77999C27.01 5.43999 28.93 7.76999 30.09 10.5C30.48 11.42 30.78 12.38 30.98 13.36C31.39 15.39 31.39 17.48 30.98 19.51C30.58 21.46 29.8 23.32 28.68 24.97L28.7 24.96Z" fill="#213147"/>
<path d="M9.16 16.71C9.06 16.5 8.91999 16.4 8.73999 16.4H8.59C8.4 16.4 8.26001 16.5 8.17001 16.71L7.42999 18.49H6.87C6.7 18.49 6.57001 18.63 6.57001 18.79C6.57001 18.96 6.71 19.1 6.87 19.1H7.17001L6.47 20.8C6.47 20.8 6.45001 20.88 6.45001 20.92C6.45001 21 6.48 21.09 6.53 21.15C6.59 21.21 6.67 21.24 6.75 21.24C6.81 21.24 6.87001 21.22 6.92001 21.18C6.97001 21.14 7.01001 21.09 7.04001 21.03L7.81 19.11H8.35001C8.52001 19.11 8.64999 18.97 8.64999 18.81C8.64999 18.64 8.51001 18.5 8.35001 18.5H8.06L8.64999 17.03L10.26 21.03C10.29 21.09 10.33 21.14 10.38 21.18C10.43 21.22 10.49 21.24 10.55 21.24C10.63 21.24 10.72 21.21 10.77 21.15C10.83 21.09 10.86 21.01 10.85 20.92C10.85 20.88 10.85 20.84 10.83 20.8L9.14001 16.71H9.16Z" fill="#213147"/>
</g>
<defs>
<clipPath id="clip0_292_78">
<rect width="32" height="32" fill="white"/>
</clipPath>
</defs>
</svg>
