<svg width="33" height="32" viewBox="0 0 33 32" fill="none" xmlns="http://www.w3.org/2000/svg">
<path d="M16.83 32C25.6666 32 32.83 24.8366 32.83 16C32.83 7.16344 25.6666 0 16.83 0C7.99345 0 0.830017 7.16344 0.830017 16C0.830017 24.8366 7.99345 32 16.83 32Z" fill="white"/>
<path d="M16.81 32V8.93C14.87 8.93 13.31 8.4 13.31 7.75C13.31 7.27 14.18 6.85 15.42 6.67C15.89 6.76 16.37 6.81 16.85 6.81C17.32 6.81 17.79 6.77 18.25 6.68H18.28C19.52 6.86 20.39 7.27 20.39 7.76C20.39 8.4 18.85 8.93 16.94 8.94V32.01H16.82L16.81 32ZM14.02 5.63C14.02 5.21 14.83 4.86 15.95 4.73C16.25 4.78 16.55 4.8 16.85 4.8C17.14 4.8 17.43 4.78 17.72 4.73H17.75C18.87 4.85 19.68 5.2 19.68 5.62C19.68 6.14 18.41 6.57 16.85 6.57C15.29 6.57 14.02 6.15 14.02 5.62V5.63ZM14.72 3.9C14.72 3.51 15.67 3.19 16.84 3.19C18.01 3.19 18.96 3.51 18.96 3.9C18.96 4.29 18.01 4.61 16.84 4.61C15.67 4.61 14.72 4.29 14.72 3.9ZM16.81 3.12V0H16.93V3.12H16.81Z" fill="black"/>
<path d="M16.83 32C15.75 32 14.67 31.89 13.61 31.67C11.56 31.25 9.62004 30.43 7.89004 29.26C5.32004 27.52 3.30002 25.08 2.09002 22.22C1.68002 21.25 1.37002 20.25 1.16002 19.22C0.730024 17.09 0.730024 14.9 1.16002 12.77C1.58002 10.72 2.40003 8.78 3.57003 7.05C5.31003 4.48 7.75001 2.46 10.61 1.25C11.58 0.839998 12.58 0.529998 13.61 0.319998C15.74 -0.110002 17.93 -0.110002 20.06 0.319998C22.11 0.739998 24.05 1.56 25.78 2.73C28.35 4.47 30.37 6.91 31.58 9.77C31.99 10.74 32.3 11.74 32.51 12.77C32.94 14.9 32.94 17.09 32.51 19.22C32.09 21.27 31.27 23.21 30.1 24.94C28.36 27.51 25.92 29.53 23.06 30.74C22.09 31.15 21.09 31.46 20.06 31.67C19 31.89 17.92 32 16.84 32H16.83ZM16.83 1.25C15.83 1.25 14.84 1.35 13.86 1.55C11.97 1.94 10.18 2.69 8.59002 3.77C6.22002 5.37 4.36002 7.63 3.25002 10.26C2.87002 11.15 2.58002 12.08 2.39002 13.03C1.99002 14.99 1.99002 17.01 2.39002 18.98C2.78002 20.87 3.53002 22.66 4.61002 24.25C6.21002 26.62 8.47003 28.48 11.1 29.59C11.99 29.97 12.92 30.26 13.87 30.45C15.83 30.85 17.85 30.85 19.82 30.45C21.71 30.06 23.5 29.31 25.09 28.23C27.46 26.63 29.32 24.37 30.43 21.74C30.81 20.85 31.1 19.92 31.29 18.97C31.69 17.01 31.69 14.99 31.29 13.02C30.9 11.13 30.15 9.34 29.07 7.75C27.47 5.38 25.21 3.52 22.58 2.41C21.69 2.03 20.76 1.74 19.81 1.55C18.83 1.35 17.84 1.25 16.84 1.25H16.83Z" fill="url(#paint0_linear_63_5319)"/>
<path d="M23.98 20.9V23.37L27.04 19.06L23.98 20.89V20.9ZM26.92 18.26L23.98 13.37V16.93L26.92 18.26Z" fill="#3B3735"/>
<path d="M23.98 17.21V20.24L26.9 18.55L23.98 17.22V17.21Z" fill="#1F1D19"/>
<path d="M20.75 18.26L23.69 13.37V16.93L20.75 18.26Z" fill="#959190"/>
<path d="M23.7 17.21V20.24L20.78 18.55L23.7 17.22V17.21Z" fill="#403C3A"/>
<path d="M23.7 20.9V23.37L20.64 19.06L23.7 20.89V20.9Z" fill="#959190"/>
<path d="M9.44002 23.37C12.2014 23.37 14.44 21.1314 14.44 18.37C14.44 15.6086 12.2014 13.37 9.44002 13.37C6.67859 13.37 4.44002 15.6086 4.44002 18.37C4.44002 21.1314 6.67859 23.37 9.44002 23.37Z" fill="url(#paint1_linear_63_5319)"/>
<path d="M11.63 20.37L9.94002 16.28C9.84002 16.07 9.7 15.97 9.52 15.97H9.37001C9.18001 15.97 9.04003 16.07 8.95003 16.28L8.21001 18.06H7.65001C7.48001 18.06 7.35002 18.2 7.35002 18.36C7.35002 18.53 7.49001 18.67 7.65001 18.67H7.95003L7.25002 20.37C7.25002 20.37 7.23003 20.45 7.23003 20.49C7.23003 20.57 7.26001 20.66 7.31001 20.72C7.37001 20.78 7.45001 20.81 7.53001 20.81C7.59001 20.81 7.65003 20.79 7.70003 20.75C7.75003 20.71 7.79002 20.66 7.82002 20.6L8.59001 18.68H9.13002C9.30002 18.68 9.43001 18.54 9.43001 18.38C9.43001 18.21 9.29002 18.07 9.13002 18.07H8.84001L9.43001 16.6L11.04 20.6C11.07 20.66 11.11 20.71 11.16 20.75C11.21 20.79 11.27 20.81 11.33 20.81C11.41 20.81 11.5 20.78 11.55 20.72C11.61 20.66 11.64 20.58 11.63 20.49C11.63 20.45 11.63 20.41 11.61 20.37H11.63Z" fill="white"/>
<defs>
<linearGradient id="paint0_linear_63_5319" x1="25.36" y1="1.14" x2="10.36" y2="31.14" gradientUnits="userSpaceOnUse">
<stop stop-color="#B6509E"/>
<stop offset="1" stop-color="#2EBAC6"/>
</linearGradient>
<linearGradient id="paint1_linear_63_5319" x1="13.4225" y1="15.395" x2="5.61002" y2="21.645" gradientUnits="userSpaceOnUse">
<stop stop-color="#B6509E"/>
<stop offset="1" stop-color="#2EBAC6"/>
</linearGradient>
</defs>
</svg>
