<svg width="33" height="33" viewBox="0 0 33 33" fill="none" xmlns="http://www.w3.org/2000/svg">
  <path d="M16.28 11.34L15.41 14.84C16.4 15.09 19.46 16.09 19.95 14.11C20.47 12.04 17.27 11.58 16.28 11.33V11.34Z" fill="#213147"/>
  <path d="M14.97 16.62L14.01 20.48C15.2 20.78 18.87 21.95 19.41 19.77C19.98 17.5 16.16 16.91 14.97 16.61V16.62Z" fill="#213147"/>
  <path d="M20.23 0.909995C11.66 -1.23001 2.97999 3.99 0.839987 12.56C-1.30001 21.13 3.91999 29.81 12.49 31.95C21.06 34.09 29.74 28.87 31.88 20.3C34.02 11.73 28.8 3.04999 20.23 0.909995ZM23.42 14.15C23.19 15.71 22.33 16.46 21.18 16.73C22.76 17.55 23.56 18.81 22.79 20.99C21.84 23.7 19.59 23.93 16.6 23.36L15.87 26.27L14.11 25.83L14.83 22.96C14.37 22.85 13.91 22.73 13.43 22.6L12.71 25.49L10.96 25.05L11.69 22.13C11.28 22.03 10.86 21.91 10.44 21.81L8.15999 21.24L9.02999 19.23C9.02999 19.23 10.32 19.57 10.31 19.55C10.81 19.67 11.03 19.35 11.11 19.13L12.26 14.53C12.32 14.55 12.39 14.56 12.45 14.58C12.38 14.55 12.32 14.53 12.27 14.52L13.09 11.23C13.11 10.86 12.98 10.39 12.27 10.21C12.3 10.19 10.99 9.88999 10.99 9.88999L11.46 8.02L13.88 8.61999C14.24 8.71999 14.62 8.80999 15 8.88999L15.72 6.00999L17.47 6.45L16.77 9.27999C17.24 9.38999 17.71 9.5 18.18 9.61L18.88 6.79999L20.64 7.24L19.92 10.12C22.14 10.88 23.76 12.03 23.44 14.16L23.42 14.15Z" fill="#213147"/>
  </svg>
  