<svg width="33" height="32" viewBox="0 0 33 32" fill="none" xmlns="http://www.w3.org/2000/svg">
  <path d="M31.87 19.87C29.73 28.44 21.05 33.66 12.48 31.52C3.91001 29.38 -1.30999 20.7 0.830008 12.13C2.97001 3.56 11.65 -1.66 20.22 0.480002C28.79 2.62 34.01 11.3 31.87 19.87Z" fill="#F7931A"/>
  <path d="M23.4 13.72C23.72 11.59 22.1 10.45 19.88 9.68001L20.6 6.80001L18.84 6.36001L18.14 9.17001C17.68 9.06001 17.2 8.95001 16.73 8.84001L17.43 6.01001L15.68 5.57001L14.96 8.45001C14.58 8.36001 14.2 8.28001 13.84 8.19001L11.42 7.58001L10.95 9.45001C10.95 9.45001 12.25 9.75001 12.22 9.77001C12.93 9.95001 13.06 10.42 13.04 10.79L12.22 14.08C12.22 14.08 12.33 14.11 12.4 14.14C12.34 14.13 12.28 14.11 12.21 14.09L11.06 18.69C10.97 18.91 10.75 19.23 10.26 19.11C10.28 19.14 8.98002 18.79 8.98002 18.79L8.11002 20.8L10.39 21.37C10.81 21.48 11.23 21.59 11.64 21.69L10.91 24.61L12.66 25.05L13.38 22.16C13.86 22.29 14.32 22.41 14.78 22.52L14.06 25.39L15.82 25.83L16.55 22.92C19.54 23.49 21.79 23.26 22.74 20.55C23.5 18.37 22.7 17.11 21.13 16.29C22.28 16.03 23.14 15.27 23.37 13.71L23.4 13.72ZM19.39 19.35C18.85 21.53 15.18 20.35 13.99 20.06L14.95 16.2C16.14 16.5 19.96 17.08 19.39 19.36V19.35ZM19.93 13.69C19.44 15.67 16.38 14.67 15.39 14.42L16.26 10.92C17.25 11.17 20.44 11.63 19.93 13.7V13.69Z" fill="white"/>
  </svg>
  