<svg width="32" height="32" viewBox="0 0 32 32" fill="none" xmlns="http://www.w3.org/2000/svg">
<path d="M15.9198 10.9099L15.0498 14.4099C16.0398 14.6599 19.0998 15.6599 19.5898 13.6799C20.1098 11.6099 16.9098 11.1499 15.9198 10.8999V10.9099Z" fill="#213147"/>
<path d="M14.6098 16.1898L13.6498 20.0499C14.8398 20.3498 18.5098 21.5199 19.0498 19.3399C19.6198 17.0699 15.7998 16.4799 14.6098 16.1799V16.1898Z" fill="#213147"/>
<path d="M19.8698 0.47985C11.2998 -1.66015 2.61979 3.55985 0.479788 12.1299C-1.66021 20.6999 3.55979 29.3798 12.1298 31.5198C20.6998 33.6598 29.3798 28.4398 31.5198 19.8698C33.6598 11.2998 28.4398 2.61985 19.8698 0.47985ZM23.0598 13.7199C22.8298 15.2799 21.9698 16.0298 20.8198 16.2998C22.3998 17.1198 23.1998 18.3799 22.4298 20.5599C21.4798 23.2699 19.2298 23.4998 16.2398 22.9298L15.5098 25.8398L13.7498 25.3999L14.4698 22.5298C14.0098 22.4198 13.5498 22.2998 13.0698 22.1698L12.3498 25.0598L10.5998 24.6199L11.3298 21.6998C10.9198 21.5998 10.4998 21.4798 10.0798 21.3798L7.7998 20.8098L8.66979 18.7998C8.66979 18.7998 9.95979 19.1398 9.94979 19.1198C10.4498 19.2398 10.6698 18.9198 10.7498 18.6999L11.8998 14.0998C11.9598 14.1198 12.0298 14.1299 12.0898 14.1499C12.0198 14.1199 11.9598 14.0999 11.9098 14.0899L12.7298 10.7998C12.7498 10.4298 12.6198 9.95985 11.9098 9.77985C11.9398 9.75985 10.6298 9.45985 10.6298 9.45985L11.0998 7.58985L13.5198 8.18985C13.8798 8.28985 14.2598 8.37985 14.6398 8.45985L15.3598 5.57985L17.1098 6.01985L16.4098 8.84985C16.8798 8.95985 17.3498 9.06985 17.8198 9.17985L18.5198 6.36985L20.2798 6.80985L19.5598 9.68985C21.7798 10.4498 23.3998 11.5998 23.0798 13.7298L23.0598 13.7199Z" fill="#213147"/>
</svg>
