<svg width="33" height="32" viewBox="0 0 33 32" fill="none" xmlns="http://www.w3.org/2000/svg">
<path d="M16.07 32C24.9066 32 32.07 24.8366 32.07 16C32.07 7.16344 24.9066 0 16.07 0C7.23345 0 0.0700073 7.16344 0.0700073 16C0.0700073 24.8366 7.23345 32 16.07 32Z" fill="white"/>
<path d="M16.07 3.25L19.25 6.43L11.27 14.41L8.09 11.23L16.07 3.25ZM8.10001 20.78L11.28 23.96L24.03 11.21L20.85 8.03L8.10001 20.78ZM12.88 25.56L16.06 28.75L28.81 16L25.63 12.82L12.88 25.56ZM9.67999 16L6.5 12.82L3.32001 16L6.5 19.18L9.67999 16Z" fill="#F0B90B"/>
</svg>
