<svg width="33" height="33" viewBox="0 0 33 33" fill="none" xmlns="http://www.w3.org/2000/svg">
<path d="M16.45 0.43C7.61001 0.43 0.450012 7.59 0.450012 16.43C0.450012 25.27 7.61001 32.43 16.45 32.43C25.29 32.43 32.45 25.27 32.45 16.43C32.45 7.59 25.29 0.43 16.45 0.43ZM16.45 3.68L19.63 6.86L11.65 14.84L8.47 11.66L16.45 3.68ZM3.70001 16.43L6.88 13.25L10.06 16.43L6.88 19.61L3.70001 16.43ZM8.48999 21.21L21.24 8.46L24.42 11.64L11.67 24.39L8.48999 21.21ZM16.45 29.18L13.27 25.99L26.02 13.25L29.2 16.43L16.45 29.18Z" fill="#213147"/>
</svg>
