<svg width="32" height="32" viewBox="0 0 32 32" fill="none" xmlns="http://www.w3.org/2000/svg">
<g clip-path="url(#clip0_97_2732)">
<path d="M16 0C7.16 0 0 7.16 0 16C0 24.84 7.16 32 16 32C24.84 32 32 24.84 32 16C32 7.16 24.84 0 16 0ZM23.34 24.53C21.59 25.87 19.08 26.62 15.97 26.62H15.95C12.84 26.62 10.33 25.87 8.58 24.53C6.81 23.17 5.87 21.24 5.87 19.06C5.87 16.88 6.81 15.44 7.87 14.42C8.7 13.62 9.62 13.1 10.26 12.81C10.08 12.27 9.92 11.73 9.77 11.18C9.55 10.38 9.34 9.43 9.34 8.74C9.34 7.92 9.52 7.1 10 6.46C10.51 5.79 11.27 5.43 12.19 5.43C12.91 5.43 13.52 5.7 14 6.16C14.46 6.6 14.76 7.18 14.97 7.79C15.34 8.86 15.48 10.2 15.52 11.54H16.4C16.44 10.2 16.58 8.86 16.95 7.79C17.16 7.18 17.46 6.6 17.92 6.16C18.4 5.7 19.01 5.43 19.73 5.43C20.65 5.43 21.41 5.79 21.92 6.46C22.4 7.1 22.58 7.92 22.58 8.74C22.58 9.43 22.37 10.37 22.15 11.18C22 11.73 21.84 12.27 21.66 12.81C22.3 13.11 23.22 13.62 24.05 14.42C25.11 15.44 26.05 16.96 26.05 19.06C26.05 21.16 25.11 23.17 23.34 24.53Z" fill="#213147"/>
<path d="M25.16 19.27C25.16 19.16 25.18 19.06 25.18 18.95C25.18 15.34 21.99 13.77 20.92 13.34C20.73 13.26 20.63 13.05 20.69 12.85C20.99 11.98 21.71 9.75 21.71 8.63C21.71 7.23 21.09 6.21 19.74 6.21C17.8 6.21 17.32 8.98 17.28 11.96C17.28 12.16 17.12 12.32 16.92 12.32H15.01C14.81 12.32 14.65 12.16 14.65 11.96C14.62 8.98 14.13 6.21 12.19 6.21C10.84 6.21 10.22 7.22 10.22 8.63C10.22 9.75 10.94 11.98 11.24 12.85C11.3 13.05 11.2 13.26 11.01 13.34C9.93 13.77 6.75 15.34 6.75 18.95C6.75 18.95 6.75 18.96 6.75 18.97C6.75 22.79 9.99 25.65 15.97 25.65C21.95 25.65 25.19 22.79 25.19 18.98C25.19 19.07 25.17 19.18 25.16 19.28V19.27ZM12.45 19.59C11.85 19.59 11.37 19.05 11.37 18.01C11.37 16.97 11.85 16.43 12.45 16.43C13.05 16.43 13.53 16.97 13.53 18.01C13.53 19.05 13.05 19.59 12.45 19.59ZM20.57 18.01C20.57 19.05 20.08 19.59 19.49 19.59C18.9 19.59 18.41 19.05 18.41 18.01C18.41 16.97 18.89 16.43 19.49 16.43C20.09 16.43 20.57 16.97 20.57 18.01Z" fill="#213147"/>
</g>
<defs>
<clipPath id="clip0_97_2732">
<rect width="32" height="32" fill="white"/>
</clipPath>
</defs>
</svg>
