<svg width="32" height="33" viewBox="0 0 32 33" fill="none" xmlns="http://www.w3.org/2000/svg">
<path d="M16 0.43C7.16 0.43 0 7.59 0 16.43C0 25.27 7.16 32.43 16 32.43C24.84 32.43 32 25.27 32 16.43C32 7.59 24.84 0.43 16 0.43ZM23.34 24.96C21.59 26.3 19.08 27.05 15.97 27.05H15.95C12.84 27.05 10.33 26.3 8.58 24.96C6.81 23.6 5.87 21.67 5.87 19.49C5.87 17.31 6.81 15.87 7.87 14.85C8.7 14.05 9.62 13.53 10.26 13.24C10.08 12.7 9.92 12.16 9.77 11.61C9.55 10.81 9.34 9.86 9.34 9.17C9.34 8.35 9.52 7.53 10 6.89C10.51 6.22 11.27 5.86 12.19 5.86C12.91 5.86 13.52 6.13 14 6.59C14.46 7.03 14.76 7.61 14.97 8.22C15.34 9.29 15.48 10.63 15.52 11.97H16.4C16.44 10.63 16.58 9.29 16.95 8.22C17.16 7.61 17.46 7.03 17.92 6.59C18.4 6.13 19.01 5.86 19.73 5.86C20.65 5.86 21.41 6.22 21.92 6.89C22.4 7.53 22.58 8.35 22.58 9.17C22.58 9.86 22.37 10.8 22.15 11.61C22 12.16 21.84 12.7 21.66 13.24C22.3 13.54 23.22 14.05 24.05 14.85C25.11 15.87 26.05 17.39 26.05 19.49C26.05 21.59 25.11 23.6 23.34 24.96Z" fill="#213147"/>
<path d="M25.16 19.7C25.16 19.59 25.18 19.49 25.18 19.38C25.18 15.77 21.99 14.2 20.92 13.77C20.73 13.69 20.63 13.48 20.69 13.28C20.99 12.41 21.71 10.18 21.71 9.06C21.71 7.66 21.09 6.64 19.74 6.64C17.8 6.64 17.32 9.41 17.28 12.39C17.28 12.59 17.12 12.75 16.92 12.75H15.01C14.81 12.75 14.65 12.59 14.65 12.39C14.62 9.41 14.13 6.64 12.19 6.64C10.84 6.64 10.22 7.65 10.22 9.06C10.22 10.18 10.94 12.41 11.24 13.28C11.3 13.48 11.2 13.69 11.01 13.77C9.93 14.2 6.75 15.77 6.75 19.38C6.75 19.38 6.75 19.39 6.75 19.4C6.75 23.22 9.99 26.08 15.97 26.08C21.95 26.08 25.19 23.22 25.19 19.41C25.19 19.5 25.17 19.61 25.16 19.71V19.7ZM12.45 20.02C11.85 20.02 11.37 19.48 11.37 18.44C11.37 17.4 11.85 16.86 12.45 16.86C13.05 16.86 13.53 17.4 13.53 18.44C13.53 19.48 13.05 20.02 12.45 20.02ZM20.57 18.44C20.57 19.48 20.08 20.02 19.49 20.02C18.9 20.02 18.41 19.48 18.41 18.44C18.41 17.4 18.89 16.86 19.49 16.86C20.09 16.86 20.57 17.4 20.57 18.44Z" fill="#213147"/>
</svg>
