<svg width="33" height="32" viewBox="0 0 33 32" fill="none" xmlns="http://www.w3.org/2000/svg">
<path d="M16.1 32C24.9366 32 32.1 24.8366 32.1 16C32.1 7.16344 24.9366 0 16.1 0C7.26345 0 0.100006 7.16344 0.100006 16C0.100006 24.8366 7.26345 32 16.1 32Z" fill="url(#paint0_linear_63_5265)"/>
<path fill-rule="evenodd" clip-rule="evenodd" d="M16.06 26.62C12.95 26.62 10.44 25.87 8.69001 24.53C6.92001 23.17 5.98001 21.24 5.98001 19.06C5.98001 16.88 6.92001 15.44 7.98001 14.42C8.81001 13.62 9.73001 13.1 10.37 12.81C10.19 12.27 10.03 11.73 9.88001 11.18C9.66001 10.38 9.45001 9.42999 9.45001 8.73999C9.45001 7.91999 9.63001 7.09999 10.11 6.45999C10.62 5.78999 11.38 5.42999 12.3 5.42999C13.02 5.42999 13.63 5.69999 14.11 6.15999C14.57 6.59999 14.87 7.17999 15.08 7.78999C15.45 8.85999 15.59 10.2 15.63 11.54H16.51C16.55 10.2 16.69 8.85999 17.06 7.78999C17.27 7.17999 17.57 6.59999 18.03 6.15999C18.51 5.69999 19.12 5.42999 19.84 5.42999C20.76 5.42999 21.52 5.78999 22.03 6.45999C22.51 7.09999 22.69 7.91999 22.69 8.73999C22.69 9.42999 22.48 10.37 22.26 11.18C22.11 11.73 21.95 12.27 21.77 12.81C22.41 13.11 23.33 13.62 24.16 14.42C25.22 15.44 26.16 16.96 26.16 19.06C26.16 21.16 25.22 23.17 23.45 24.53C21.7 25.87 19.19 26.62 16.08 26.62H16.06Z" fill="#633001"/>
<path d="M12.3 6.22C10.95 6.22 10.33 7.24 10.33 8.64C10.33 9.76 11.05 11.99 11.35 12.86C11.41 13.06 11.31 13.27 11.12 13.35C10.04 13.78 6.86 15.35 6.86 18.96C6.86 22.76 10.1 25.62 16.07 25.63H16.08C22.05 25.63 25.29 22.76 25.29 18.96C25.29 15.16 22.1 13.78 21.03 13.35C20.84 13.27 20.74 13.06 20.8 12.86C21.1 11.99 21.82 9.76 21.82 8.64C21.82 7.24 21.2 6.22 19.85 6.22C17.91 6.22 17.43 8.99 17.39 11.97C17.39 12.17 17.23 12.33 17.03 12.33H15.12C14.92 12.33 14.76 12.17 14.76 11.97C14.73 8.99 14.24 6.22 12.3 6.22Z" fill="#D1884F"/>
<path d="M16.07 24.4C11.68 24.4 6.86001 22.03 6.85001 18.96C6.85001 22.78 10.09 25.64 16.07 25.64C22.05 25.64 25.29 22.78 25.29 18.97C25.29 22.03 20.46 24.4 16.07 24.4Z" fill="#FEDC90"/>
<path d="M13.64 18.02C13.64 19.06 13.15 19.6 12.56 19.6C11.97 19.6 11.48 19.06 11.48 18.02C11.48 16.98 11.97 16.44 12.56 16.44C13.15 16.44 13.64 16.98 13.64 18.02ZM20.68 18.02C20.68 19.06 20.19 19.6 19.6 19.6C19.01 19.6 18.52 19.06 18.52 18.02C18.52 16.98 19 16.44 19.6 16.44C20.2 16.44 20.68 16.98 20.68 18.02Z" fill="#633001"/>
<defs>
<linearGradient id="paint0_linear_63_5265" x1="16.1" y1="0" x2="16.1" y2="32" gradientUnits="userSpaceOnUse">
<stop stop-color="#53DEE9"/>
<stop offset="1" stop-color="#1FC7D4"/>
</linearGradient>
</defs>
</svg>
