<svg width="32" height="32" viewBox="0 0 32 32" fill="none" xmlns="http://www.w3.org/2000/svg">
<path d="M31.93 16.12C31.93 7.34 24.82 0.229996 16.04 0.229996C7.26 0.229996 0.149994 7.34 0.149994 16.12C0.149994 24.9 7.26 32.01 16.04 32.01C24.82 32.01 31.93 24.9 31.93 16.12Z" fill="white"/>
<path d="M16.04 4.78L9.31999 16.12L16.04 13V4.78Z" fill="#0052FF"/>
<path d="M16.04 20.13L9.31999 16.11L16.04 13.01V20.14V20.13Z" fill="#6697FF"/>
<path d="M16.04 21.44L9.32999 17.42L16.04 27.02V21.44Z" fill="#0052FF"/>
<path d="M16.04 4.78L22.76 16.12L16.04 13V4.78Z" fill="#6697FF"/>
<path d="M16.04 20.13L22.76 16.12L16.04 13V20.13Z" fill="#CCDCFF"/>
<path d="M16.04 21.44L22.76 17.49L16.04 27.02V21.44Z" fill="#6697FF"/>
<path fill-rule="evenodd" clip-rule="evenodd" d="M16.04 0.229996C7.26 0.229996 0.149994 7.34 0.149994 16.12C0.149994 24.9 7.26 32.01 16.04 32.01C24.82 32.01 31.93 24.9 31.93 16.12C31.93 7.34 24.82 0.229996 16.04 0.229996ZM16.04 30.42C8.14 30.42 1.73999 24.02 1.73999 16.12C1.73999 8.22 8.14 1.81999 16.04 1.81999C23.94 1.81999 30.34 8.22 30.34 16.12C30.34 24.02 23.94 30.42 16.04 30.42Z" fill="#0052FF"/>
</svg>
