<svg width="32" height="33" viewBox="0 0 32 33" fill="none" xmlns="http://www.w3.org/2000/svg">
<path d="M16.04 0.429993C7.26 0.429993 0.149994 7.53999 0.149994 16.32C0.149994 25.1 7.26 32.21 16.04 32.21C24.82 32.21 31.93 25.1 31.93 16.32C31.93 7.53999 24.82 0.429993 16.04 0.429993ZM16.04 31.33C7.75 31.33 1.03999 24.61 1.03999 16.33C1.03999 8.05 7.76 1.33 16.04 1.33C24.32 1.33 31.04 8.05 31.04 16.33C31.04 24.61 24.32 31.33 16.04 31.33Z" fill="#213147"/>
<path d="M16.04 2.81999C8.57999 2.81999 2.53999 8.86999 2.53999 16.32C2.53999 23.77 8.58999 29.82 16.04 29.82C23.49 29.82 29.54 23.77 29.54 16.32C29.54 8.86999 23.49 2.81999 16.04 2.81999ZM16.04 27.22L9.32999 17.62L16.04 21.64L22.76 17.69L16.04 27.22ZM16.04 20.33L9.33999 16.32L16.04 5L22.76 16.34L16.04 20.35V20.33Z" fill="#213147"/>
</svg>
