<svg width="33" height="33" viewBox="0 0 33 33" fill="none" xmlns="http://www.w3.org/2000/svg">
<path d="M16.37 0.309998C7.52999 0.309998 0.369995 7.47 0.369995 16.31C0.369995 25.15 7.52999 32.31 16.37 32.31C25.21 32.31 32.37 25.15 32.37 16.31C32.37 7.47 25.21 0.309998 16.37 0.309998ZM27.18 13.81H25.55H20.55V11.31H18.05V8.81H14.68V11.31H13.06H12.18V21.31H14.68V23.81H18.05V21.31H19.67H20.54V18.81H27.17V23.81H25.54H24.67V26.31H23.05H19.67V28.81H18.05H13.05V26.31H8.04999V23.81H5.54999V16.31V8.81H7.17999H8.04999V6.31H13.05V3.81H19.68V6.31H24.68V8.81H27.18V13.81Z" fill="#213147"/>
</svg>
