<svg width="33" height="32" viewBox="0 0 33 32" fill="none" xmlns="http://www.w3.org/2000/svg">
<path d="M16.51 32.01C25.3466 32.01 32.51 24.8465 32.51 16.01C32.51 7.17344 25.3466 0.00999451 16.51 0.00999451C7.67345 0.00999451 0.51001 7.17344 0.51001 16.01C0.51001 24.8465 7.67345 32.01 16.51 32.01Z" fill="white"/>
<path d="M25.7 13.51V8.50999H23.2V6.00999H18.2V3.50999H13.2V6.00999H8.20001V8.50999H5.70001V23.51H8.20001V26.01H13.2V28.51H18.2V26.01H23.2V23.51H25.7V18.51H20.7V21.01H18.2V23.51H13.2V21.01H10.7V11.01H13.2V8.50999H18.2V11.01H20.7V13.51H25.7Z" fill="url(#paint0_linear_63_6947)"/>
<path d="M18.2 8.39H19.94V11.01H18.2V8.39ZM13.2 3.50999H14.94V6.12999H13.2V3.50999Z" fill="#1682FE"/>
<path d="M8.20001 6.00999H9.94V8.62999H8.20001V6.00999Z" fill="#60D8A4"/>
<path d="M5.70001 16.01H7.45999V23.51H5.70001V16.01Z" fill="#F4BB3B"/>
<path d="M5.70001 8.50999H7.45999V16.01H5.70001V8.50999Z" fill="#60D8A4"/>
<path d="M20.7 10.88H22.44V13.5H20.7V10.88Z" fill="#1682FE"/>
<path d="M20.7 18.51H22.44V21.13H20.7V18.51ZM18.2 21.01H19.94V23.63H18.2V21.01ZM13.2 25.88H14.94V28.5H13.2V25.88Z" fill="#FF5A5A"/>
<path d="M8.20001 23.38H9.94V26H8.20001V23.38Z" fill="#F4BB3B"/>
<path d="M27.33 13.51V8.50999H24.83V6.00999H19.83V3.50999H14.83V6.00999H9.82999V8.50999H7.32999V23.51H9.82999V26.01H14.83V28.51H19.83V26.01H24.83V23.51H27.33V18.51H22.33V21.01H19.83V23.51H14.83V21.01H12.33V11.01H14.83V8.50999H19.83V11.01H22.33V13.51H27.33Z" fill="#3A3A3A"/>
<defs>
<linearGradient id="paint0_linear_63_6947" x1="20.7192" y1="8.47719" x2="8.84371" y2="27.0307" gradientUnits="userSpaceOnUse">
<stop stop-color="#1682FE"/>
<stop offset="0.3" stop-color="#60D8A4"/>
<stop offset="0.7" stop-color="#FCA75B"/>
<stop offset="1" stop-color="#FF5A5A"/>
</linearGradient>
</defs>
</svg>
