<svg width="32" height="32" viewBox="0 0 32 32" fill="none" xmlns="http://www.w3.org/2000/svg">
<g clip-path="url(#clip0_294_3770)">
<path d="M16 32C24.8366 32 32 24.8365 32 16C32 7.16344 24.8366 0 16 0C7.16347 0 0 7.16344 0 16C0 24.8365 7.16347 32 16 32Z" fill="url(#paint0_linear_294_3770)"/>
<path d="M23.5843 13.3624C22.5375 10.458 19.7254 8.46696 16.0205 8.46696H9.92429V13.3624H7.81011V15.1174H9.92429V16.9544H7.81011V18.7094H9.92429V23.5433H16.0205C19.6844 23.5433 22.4759 21.5728 23.5433 18.7094H25.483V16.9544H23.9743C24.0154 16.6363 24.0359 16.3181 24.0359 16.0103V15.9692C24.0359 15.6818 24.0154 15.3945 23.9948 15.1174H25.4932V13.3624H23.5843ZM11.6382 10.0372H16.0308C18.7505 10.0372 20.7723 11.3714 21.7062 13.3624H11.6382V10.0372ZM16.0205 21.9628H11.6279V18.6992H21.6754C20.7415 20.6491 18.7197 21.9525 16.0102 21.9525L16.0205 21.9628ZM22.2707 16.041C22.2707 16.3489 22.2501 16.6466 22.2091 16.9442H11.6382V15.1071H22.2091C22.2501 15.4047 22.2707 15.7024 22.2707 16V16.041Z" fill="white"/>
</g>
<defs>
<linearGradient id="paint0_linear_294_3770" x1="16.1745" y1="36.5054" x2="16.1745" y2="-3.5202" gradientUnits="userSpaceOnUse">
<stop stop-color="#F9A606"/>
<stop offset="1" stop-color="#FBCC5F"/>
</linearGradient>
<clipPath id="clip0_294_3770">
<rect width="32" height="32" fill="white"/>
</clipPath>
</defs>
</svg>
