<svg width="32" height="32" viewBox="0 0 32 32" fill="none" xmlns="http://www.w3.org/2000/svg">
<path d="M15.7 31.86C24.3101 31.86 31.29 24.8801 31.29 16.27C31.29 7.65987 24.3101 0.679993 15.7 0.679993C7.08989 0.679993 0.109985 7.65987 0.109985 16.27C0.109985 24.8801 7.08989 31.86 15.7 31.86Z" fill="url(#paint0_linear_66_7971)"/>
<path d="M24.94 13.7H23.09C22.07 10.87 19.33 8.92999 15.72 8.92999H9.78V13.7H7.72V15.41H9.78V17.2H7.72V18.91H9.78V23.62H15.72C19.29 23.62 22.01 21.7 23.05 18.91H24.94V17.2H23.47C23.51 16.89 23.53 16.58 23.53 16.28V16.24C23.53 15.96 23.51 15.68 23.49 15.41H24.95V13.7H24.94ZM11.45 10.46H15.73C18.38 10.46 20.35 11.76 21.26 13.7H11.45V10.46ZM15.72 22.08H11.44V18.9H21.23C20.32 20.8 18.35 22.07 15.71 22.07L15.72 22.08ZM21.81 16.31C21.81 16.61 21.79 16.9 21.75 17.19H11.45V15.4H21.75C21.79 15.69 21.81 15.98 21.81 16.27V16.31Z" fill="white"/>
<defs>
<linearGradient id="paint0_linear_66_7971" x1="15.87" y1="36.25" x2="15.87" y2="-2.75001" gradientUnits="userSpaceOnUse">
<stop stop-color="#F9A606"/>
<stop offset="1" stop-color="#FBCC5F"/>
</linearGradient>
</defs>
</svg>
