<svg width="32" height="32" viewBox="0 0 32 32" fill="none" xmlns="http://www.w3.org/2000/svg">
<path d="M11.45 15.23V17.02H21.75C21.79 16.73 21.81 16.43 21.81 16.14V16.1C21.81 15.81 21.79 15.52 21.75 15.23H11.45Z" fill="#213147"/>
<path d="M11.45 21.91H15.73C18.37 21.91 20.33 20.64 21.25 18.73H11.46V21.91H11.45Z" fill="#213147"/>
<path d="M15.72 10.28H11.44V13.52H21.25C20.34 11.59 18.37 10.28 15.72 10.28Z" fill="#213147"/>
<path d="M15.7 0.51001C7.09001 0.51001 0.109985 7.49001 0.109985 16.1C0.109985 24.71 7.09001 31.69 15.7 31.69C24.31 31.69 31.29 24.71 31.29 16.1C31.29 7.49001 24.31 0.51001 15.7 0.51001ZM24.95 15.23H23.49C23.52 15.5 23.53 15.78 23.53 16.06V16.1C23.53 16.41 23.51 16.72 23.47 17.02H24.94V18.73H23.05C22.01 21.52 19.29 23.44 15.72 23.44H9.78V18.73H7.72V17.02H9.78V15.23H7.72V13.52H9.78V8.75002H15.72C19.33 8.75002 22.07 10.69 23.09 13.52H24.95V15.23Z" fill="#213147"/>
</svg>
