<svg width="32" height="32" viewBox="0 0 32 32" fill="none" xmlns="http://www.w3.org/2000/svg">
<path d="M31.76 16.27C31.76 24.91 24.78 31.91 16.17 31.91C7.56003 31.91 0.580017 24.91 0.580017 16.27C0.580017 7.63 7.56003 0.630005 16.17 0.630005C24.78 0.630005 31.76 7.63 31.76 16.27Z" fill="#8150E6"/>
<path d="M31.17 20.52L20.07 9.56L13.75 8.37L10.05 22.35L19.39 31.58C25.07 30.38 29.61 26.08 31.17 20.52Z" fill="#3C176B"/>
<path d="M14.82 21.13V12.48H17C17.73 12.48 18.4 12.57 19.02 12.76C19.63 12.95 20.16 13.24 20.61 13.63C20.67 13.68 20.73 13.74 20.79 13.8C20.79 12.63 20.37 11.46 19.78 10.4C19.11 10.21 18.42 10.11 17.73 10.12H12.45V21.12C13.25 21.12 14.04 21.19 14.84 21.13H14.82Z" fill="#6B42BD"/>
<path d="M23.97 14.21C23.59 13.29 23.09 12.53 22.45 11.92C21.82 11.31 21.09 10.86 20.27 10.56C20.1 10.5 19.94 10.45 19.77 10.4C20.37 11.46 20.79 12.62 20.78 13.8C21.14 14.17 21.38 15.6 21.59 16.14L14.81 22.35V21.12C14.01 21.18 13.23 21.12 12.42 21.11V24.71H17.42C18.23 24.71 19.05 24.56 19.89 24.26C20.73 23.96 21.49 23.51 22.18 22.91C22.87 22.31 23.43 21.55 23.87 20.63C24.31 19.71 24.52 18.62 24.52 17.37C24.52 16.12 24.33 15.12 23.95 14.2L23.97 14.21Z" fill="#9B74EC"/>
<path d="M14.22 19.99C14.96 19.99 15.67 19.9 16.33 19.71C16.99 19.52 17.57 19.23 18.06 18.84C18.55 18.45 18.94 17.94 19.22 17.31C19.5 16.68 19.65 15.92 19.65 15.02C19.65 14.12 19.52 13.45 19.27 12.81C19.02 12.17 18.67 11.66 18.22 11.27C17.77 10.88 17.24 10.59 16.63 10.4C16.02 10.21 15.35 10.12 14.61 10.12H12.43V19.99H14.21H14.22ZM10.05 7.75H15.33C16.21 7.75 17.07 7.9 17.89 8.2C18.71 8.5 19.44 8.95 20.07 9.56C20.7 10.17 21.21 10.93 21.59 11.85C21.97 12.77 22.16 13.78 22.16 15.02C22.16 16.26 21.94 17.37 21.51 18.28C21.07 19.2 20.51 19.96 19.82 20.56C19.13 21.16 18.37 21.61 17.53 21.91C16.69 22.21 15.87 22.36 15.06 22.36H10.06V7.76L10.05 7.75Z" fill="white"/>
</svg>
