<svg width="32" height="32" viewBox="0 0 32 32" fill="none" xmlns="http://www.w3.org/2000/svg">
<g clip-path="url(#clip0_294_3752)">
<path d="M32 16.0513C32 24.9185 24.8364 32.1026 16 32.1026C7.16358 32.1026 0 24.9185 0 16.0513C0 7.18409 7.16358 0 16 0C24.8364 0 32 7.18409 32 16.0513Z" fill="#8150E6"/>
<path d="M31.3945 20.4131L20.0026 9.16485L13.5164 7.94355L9.71903 22.2912L19.3047 31.7639C25.1341 30.5324 29.7935 26.1193 31.3945 20.4131Z" fill="#3C176B"/>
<path d="M14.6145 21.0391V12.1616H16.8518C17.601 12.1616 18.2886 12.254 18.9249 12.449C19.551 12.644 20.0949 12.9416 20.5567 13.3419C20.6183 13.3932 20.6799 13.4548 20.7415 13.5164C20.7415 12.3156 20.3104 11.1148 19.7049 10.0269C19.0173 9.83194 18.3092 9.72931 17.601 9.73957H12.1822V21.0289C13.0032 21.0289 13.814 21.1007 14.635 21.0391H14.6145Z" fill="#6B42BD"/>
<path d="M24.0051 13.9371C23.6151 12.9929 23.102 12.213 22.4452 11.5869C21.7986 10.9609 21.0494 10.499 20.2078 10.1911C20.0333 10.1296 19.8691 10.0783 19.6947 10.0269C20.3104 11.1148 20.7415 12.3053 20.7312 13.5164C21.1007 13.8961 21.347 15.3637 21.5625 15.9179L14.6042 22.2912V21.0289C13.7832 21.0904 12.9827 21.0289 12.1514 21.0186V24.7133H17.2829C18.1142 24.7133 18.9557 24.5593 19.8178 24.2514C20.6799 23.9435 21.4599 23.4817 22.168 22.8659C22.8762 22.2502 23.4509 21.4702 23.9025 20.526C24.3541 19.5818 24.5696 18.4631 24.5696 17.1802C24.5696 15.8974 24.3746 14.8711 23.9846 13.9269L24.0051 13.9371Z" fill="#9B74EC"/>
<path d="M13.9987 19.8691C14.7582 19.8691 15.4868 19.7768 16.1642 19.5818C16.8415 19.3868 17.4368 19.0892 17.9397 18.6889C18.4426 18.2886 18.8428 17.7652 19.1302 17.1187C19.4176 16.4721 19.5715 15.6921 19.5715 14.7684C19.5715 13.8448 19.4381 13.1571 19.1815 12.5003C18.9249 11.8435 18.5657 11.3201 18.1039 10.9198C17.6421 10.5196 17.0981 10.2219 16.4721 10.0269C15.8461 9.83194 15.1584 9.73957 14.399 9.73957H12.1616V19.8691H13.9987ZM9.71903 7.30725H15.1379C16.041 7.30725 16.9237 7.46119 17.7652 7.76908C18.6068 8.07697 19.356 8.53881 20.0026 9.16485C20.6491 9.79089 21.1725 10.5709 21.5625 11.5151C21.9525 12.4593 22.1475 13.4958 22.1475 14.7684C22.1475 16.041 21.9217 17.1802 21.4804 18.1142C21.0289 19.0584 20.4541 19.8384 19.746 20.4541C19.0378 21.0699 18.2578 21.5317 17.3958 21.8396C16.5337 22.1475 15.6921 22.3015 14.8608 22.3015H9.72931V7.31751L9.71903 7.30725Z" fill="white"/>
</g>
<defs>
<clipPath id="clip0_294_3752">
<rect width="32" height="32" fill="white"/>
</clipPath>
</defs>
</svg>
