<svg width="32" height="32" viewBox="0 0 32 32" fill="none" xmlns="http://www.w3.org/2000/svg">
<path d="M18.06 18.45C18.55 18.06 18.94 17.55 19.22 16.92C19.5 16.29 19.65 15.53 19.65 14.63C19.65 14.18 19.62 13.79 19.55 13.42C19.32 13.29 19.07 13.18 18.79 13.09C18.25 12.93 17.65 12.84 16.99 12.84H15.56V19.47C15.82 19.43 16.07 19.38 16.32 19.32C16.98 19.13 17.56 18.84 18.05 18.45H18.06Z" fill="#213147"/>
<path d="M17 12.09C17.73 12.09 18.4 12.18 19.02 12.37C19.12 12.4 19.2 12.45 19.3 12.49C19.3 12.47 19.29 12.44 19.28 12.42C19.03 11.78 18.68 11.27 18.23 10.88C17.78 10.49 17.25 10.2 16.64 10.01C16.04 9.82998 15.38 9.73998 14.67 9.72998H12.44V19.6H14.22C14.43 19.6 14.62 19.58 14.83 19.56V12.09H17.01H17Z" fill="#213147"/>
<path d="M23.97 13.82C23.59 12.9 23.09 12.14 22.45 11.53C22.05 11.15 21.61 10.83 21.14 10.57C21.3 10.85 21.45 11.14 21.58 11.45C21.96 12.37 22.15 13.38 22.15 14.62C22.15 15.86 21.93 16.97 21.5 17.88C21.06 18.8 20.5 19.56 19.81 20.16C19.12 20.76 18.36 21.21 17.52 21.51C16.68 21.81 15.86 21.96 15.05 21.96H14.82H12.43V24.33H17.43C18.24 24.33 19.06 24.18 19.9 23.88C20.74 23.58 21.5 23.13 22.19 22.53C22.88 21.93 23.44 21.17 23.88 20.25C24.32 19.33 24.53 18.24 24.53 16.99C24.53 15.74 24.34 14.74 23.96 13.82H23.97Z" fill="#213147"/>
<path d="M16.17 0.23999C7.56003 0.23999 0.580017 7.23999 0.580017 15.88C0.580017 24.52 7.56003 31.52 16.17 31.52C24.78 31.52 31.76 24.52 31.76 15.88C31.76 7.23999 24.78 0.23999 16.17 0.23999ZM24.56 20.58C24.08 21.59 23.45 22.44 22.69 23.1C21.93 23.76 21.08 24.26 20.16 24.59C19.24 24.91 18.33 25.08 17.44 25.08H12.44C12.03 25.08 11.69 24.74 11.69 24.33V21.96H10.05V7.35999H15.33C16.21 7.35999 17.07 7.50999 17.89 7.80999C18.71 8.10999 19.44 8.55999 20.07 9.16999C20.14 9.23999 20.21 9.31999 20.27 9.38999C20.36 9.41999 20.44 9.43999 20.53 9.46999C21.45 9.79999 22.27 10.31 22.97 10.99C23.67 11.67 24.24 12.52 24.66 13.53C25.09 14.56 25.28 15.66 25.28 16.99C25.28 18.32 25.04 19.56 24.55 20.57L24.56 20.58Z" fill="#213147"/>
</svg>
