<svg width="33" height="33" viewBox="0 0 33 33" fill="none" xmlns="http://www.w3.org/2000/svg">
<path d="M32.52 16.27C32.52 25.1 25.36 32.27 16.52 32.27C7.68 32.27 0.520004 25.11 0.520004 16.27C0.520004 7.42999 7.68 0.269989 16.52 0.269989C25.35 0.269989 32.52 7.42999 32.52 16.27Z" fill="url(#paint0_radial_66_7909)"/>
<mask id="mask0_66_7909" style="mask-type:luminance" maskUnits="userSpaceOnUse" x="0" y="0" width="33" height="33">
<path d="M16.52 32.28C25.3566 32.28 32.52 25.1165 32.52 16.28C32.52 7.44343 25.3566 0.279984 16.52 0.279984C7.68345 0.279984 0.520004 7.44343 0.520004 16.28C0.520004 25.1165 7.68345 32.28 16.52 32.28Z" fill="white"/>
</mask>
<g mask="url(#mask0_66_7909)">
<path d="M27.02 11.26C29.22 13.4 30.9 16.07 31.24 19.27C31.99 26.32 26.51 32.67 19 33.47C11.49 34.27 4.8 29.2 4.05 22.16C3.3 15.11 7.55 15.59 15.05 14.79C19.15 14.36 25.68 9.95999 27.01 11.26H27.02Z" fill="url(#paint1_radial_66_7909)"/>
</g>
<path d="M27.79 12.63L27.77 12.42H25.15L27.79 10.17V10.06C27.73 8.52 27.27 7.01 26.44 5.71L26.38 5.59H12.23C10.89 5.59 8.3 6 6.39 8.13C5.56 9.06 3.78 11.85 3.8 14.98C3.81 16.74 3.98 18.11 4.65 19.64C4.96 20.38 5.34 21.08 5.78 21.75C7.12 24.16 8.59 25.83 10.13 26.73C11.44 27.49 12.59 27.59 13.56 27.59H21.58L21.63 27.56C21.63 27.56 24.28 26.18 26.65 24.74L26.72 24.7L26.75 24.63C26.75 24.63 26.77 24.59 26.77 24.56C26.79 24.51 26.81 24.47 26.82 24.42C27.11 23.58 27.36 21.79 27.47 20.79C27.52 20.43 27.54 20.19 27.54 20.19L27.57 19.94L27.59 19.74H24.79L27.79 17.47V17.37C27.98 15.16 27.79 12.64 27.79 12.62V12.63Z" fill="url(#paint2_linear_66_7909)"/>
<path d="M16.01 22.47C16.01 22.47 13.38 22.72 5.64 20.7C8.8 26.86 11.76 27.2 13.96 27.2H21.48C21.48 27.2 23.98 25.85 26.35 24.41L16.02 22.47H16.01Z" fill="black"/>
<path d="M13.96 26.98C13.01 26.98 11.68 26.98 10.36 26.13C8.06 24.63 7.30001 23.45 5.99001 20.97C11.9 22.49 14.73 22.65 15.68 22.65C15.85 22.65 15.96 22.65 16.01 22.65L26.21 24.3C24.12 25.55 21.65 26.83 21.37 26.98H13.97H13.96Z" fill="url(#paint3_linear_66_7909)"/>
<path d="M11.04 20.06C11.04 20.06 9.77001 18.59 9.33001 17.47L23.7 20.06L27.38 17.27C27.38 14.98 27.37 12.79 27.37 12.79H9.33001C9.33001 12.79 9.97 10.96 11.12 10.24L24.28 12.7L27.39 10.04C27.26 7.53999 26.07 6.01999 26.07 6.01999H12.18C10.97 6.01999 8.49001 6.28999 6.63001 8.36999C4.77001 10.45 3.1 15.11 4.89 19.44C6.71 23.84 9.06001 24.4 10.4 24.4H26.36C26.38 24.34 26.41 24.28 26.43 24.2C26.81 22.9 27.14 20.05 27.14 20.05H11.05L11.04 20.06Z" fill="black"/>
<path d="M14.88 7.48999C14.88 7.48999 9.69001 8.49999 9.44001 8.62999C9.19001 8.75999 8.18001 13.31 8.18001 13.31H23.24L27.1 10.04L14.88 7.48999Z" fill="url(#paint4_linear_66_7909)"/>
<path d="M14.97 14.72C14.97 14.72 9.78 15.73 9.53 15.86C9.28 15.99 8.27 20.54 8.27 20.54H22.78L27.21 17.19L14.97 14.72Z" fill="url(#paint5_linear_66_7909)"/>
<path d="M27.37 17.27H9.33001C9.77001 18.39 11.04 19.86 11.04 19.86H27.13C27.13 19.86 26.81 23.04 26.4 24.21H10.85C8.87 24.21 6.74 23.55 4.87 19.25C3 14.95 4.74001 10.27 6.61001 8.17999C8.48001 6.08999 10.95 5.82999 12.16 5.82999H26.05C26.05 5.82999 27.25 7.48998 27.36 10.05H11.11C9.96001 10.78 9.32 12.6 9.32 12.6H27.36C27.47 14.16 27.47 15.72 27.36 17.27H27.37Z" fill="url(#paint6_linear_66_7909)"/>
<path d="M24.58 4.76998C24.58 4.76998 18.31 2.27998 12.64 5.47998C7.68 8.28998 2.05 12.77 6.23 21.98C2.45 16.59 2.41 12.21 5.38 7.61998C8.18 3.27998 16.44 -0.670018 24.58 4.75998V4.76998Z" fill="url(#paint7_linear_66_7909)"/>
<path opacity="0.4" d="M16.51 0.269989C7.63 0.319989 0.48 7.55999 0.53 16.43C0.53 17.88 0.740001 19.32 1.14 20.72C1.14 20.72 1.14 20.57 1.12 20.28C1.07 18.61 1.28 12.46 4.42 12.99C7.56 13.53 12.16 14.46 17.59 12.96C23.03 11.46 27.36 6.37999 24.57 2.44999C24.57 2.44999 21.3 0.269989 16.5 0.269989H16.51Z" fill="url(#paint8_linear_66_7909)"/>
<path d="M13.9 5.90999C14.29 6.89999 12.96 8.08999 11.29 8.44999C9.62 8.80999 7.94001 8.26999 7.65001 7.24999C7.18001 5.62999 8.8 5.04999 10.47 4.67999C12.14 4.30999 13.11 3.90999 13.9 5.90999Z" fill="white"/>
<defs>
<radialGradient id="paint0_radial_66_7909" cx="0" cy="0" r="1" gradientUnits="userSpaceOnUse" gradientTransform="translate(6.2892 5.63049) scale(16.7321 16.7321)">
<stop stop-color="#77FFFF"/>
<stop offset="0.39" stop-color="#87E4FF"/>
<stop offset="0.86" stop-color="#6273FF"/>
<stop offset="1" stop-color="#9468FF"/>
</radialGradient>
<radialGradient id="paint1_radial_66_7909" cx="0" cy="0" r="1" gradientUnits="userSpaceOnUse" gradientTransform="translate(10.217 22.9917) rotate(-6.09) scale(11.7789 13.6297)">
<stop offset="0.5" stop-color="#00FFFF"/>
<stop offset="1" stop-color="#00F4FF" stop-opacity="0"/>
</radialGradient>
<linearGradient id="paint2_linear_66_7909" x1="19.3658" y1="17.72" x2="27.7212" y2="25.0268" gradientUnits="userSpaceOnUse">
<stop stop-color="#5A27ED"/>
<stop offset="1" stop-color="#AB37F4"/>
</linearGradient>
<linearGradient id="paint3_linear_66_7909" x1="6.0699" y1="22.5934" x2="9.91592" y2="32.2964" gradientUnits="userSpaceOnUse">
<stop stop-color="#7618F4"/>
<stop offset="0.5" stop-color="#575FF8"/>
<stop offset="1" stop-color="#09FFFF"/>
</linearGradient>
<linearGradient id="paint4_linear_66_7909" x1="11.7689" y1="8.72909" x2="19.6636" y2="16.4325" gradientUnits="userSpaceOnUse">
<stop stop-color="#7F4CFF"/>
<stop offset="1" stop-color="#3095FF"/>
</linearGradient>
<linearGradient id="paint5_linear_66_7909" x1="10.91" y1="13.8233" x2="12.4463" y2="22.7137" gradientUnits="userSpaceOnUse">
<stop stop-color="#7F52FF"/>
<stop offset="1" stop-color="#3096FF"/>
</linearGradient>
<linearGradient id="paint6_linear_66_7909" x1="22.7389" y1="19.218" x2="18.9814" y2="12.8501" gradientUnits="userSpaceOnUse">
<stop stop-color="white"/>
<stop offset="0.16" stop-color="#FBFFFF"/>
<stop offset="0.32" stop-color="#EFFFFF"/>
<stop offset="0.48" stop-color="#DAFFFF"/>
<stop offset="0.65" stop-color="#BDFFFE"/>
<stop offset="0.81" stop-color="#98FFFE"/>
<stop offset="0.98" stop-color="#6BFFFD"/>
<stop offset="1" stop-color="#65FFFD"/>
</linearGradient>
<linearGradient id="paint7_linear_66_7909" x1="5.5732" y1="20.3496" x2="17.0024" y2="-1.11826" gradientUnits="userSpaceOnUse">
<stop stop-color="white" stop-opacity="0"/>
<stop offset="0.52" stop-color="#E6FFFF"/>
<stop offset="1" stop-color="#CEFFFF" stop-opacity="0.5"/>
</linearGradient>
<linearGradient id="paint8_linear_66_7909" x1="1.0762" y1="11.9652" x2="25.2848" y2="11.9652" gradientUnits="userSpaceOnUse">
<stop stop-color="white"/>
<stop offset="0.87" stop-color="white" stop-opacity="0.31"/>
<stop offset="1" stop-color="white" stop-opacity="0.2"/>
</linearGradient>
</defs>
</svg>
