<svg width="33" height="33" viewBox="0 0 33 33" fill="none" xmlns="http://www.w3.org/2000/svg">
<path fill-rule="evenodd" clip-rule="evenodd" d="M16.81 0.769989C7.97 0.769989 0.809998 7.92999 0.809998 16.77C0.809998 25.61 7.97 32.77 16.81 32.77C25.65 32.77 32.81 25.61 32.81 16.77C32.81 7.92999 25.65 0.769989 16.81 0.769989ZM26.63 23.86C26.52 24.33 26.22 24.74 25.8 25.01C25.69 25.08 25.55 25.15 25.42 25.19C24.59 25.46 23.73 25.51 23.01 25.53C21.41 25.53 19.78 25.55 18.16 25.55C16.54 25.55 14.93 25.53 13.33 25.5C12.31 25.48 11.3 25.36 10.31 25.14C7.85 24.62 6.59 23.31 6.18 20.87C6.11 20.49 6.07 20.1 6.04 19.74C6.02 19.58 5.99 19.42 5.97 19.24V14.95L6.02 14.54C6.04 14.25 6.09 13.98 6.11 13.71C6.43 10.93 7.73 9.50999 10.47 8.89999C11.19 8.73999 11.89 8.66999 12.59 8.60999C12.82 8.58999 13.04 8.55999 13.27 8.53999H23.38C23.54 8.55999 23.72 8.58999 23.88 8.58999C24.26 8.63999 24.65 8.65999 25.05 8.74999C26.34 8.99999 26.83 9.71999 26.61 11.03C26.54 11.59 26.09 12.07 25.48 12.16C25.21 12.21 24.94 12.23 24.64 12.23C21.14 12.25 17.62 12.28 14.12 12.28C13.62 12.28 13.1 12.33 12.61 12.42C11.05 12.67 10.53 13.23 10.4 14.81C10.4 14.95 10.38 15.08 10.38 15.19H25.16C25.45 15.19 25.75 15.28 26 15.42C26.77 15.92 26.7 16.66 26.65 17.2C26.65 17.27 26.63 17.36 26.63 17.43C26.58 18.06 26.2 18.49 25.5 18.63C25.25 18.68 25.03 18.68 24.8 18.68H10.38V18.77C10.4 19.24 10.45 19.7 10.56 20.15C10.74 20.85 11.17 21.28 11.89 21.48C12.86 21.75 13.85 21.8 14.71 21.8C17.37 21.82 20.08 21.82 22.72 21.82H24.98C25.32 21.82 26.02 21.82 26.42 22.47C26.69 22.9 26.76 23.4 26.65 23.87L26.63 23.86Z" fill="#213147"/>
</svg>
