<svg width="33" height="32" viewBox="0 0 33 32" fill="none" xmlns="http://www.w3.org/2000/svg">
<path d="M16.75 0.119995C25.53 0.119995 32.64 7.22999 32.64 16.01C32.64 24.79 25.53 31.9 16.75 31.9C7.97 31.9 0.859985 24.79 0.859985 16.01C0.859985 7.22999 7.97 0.119995 16.75 0.119995Z" fill="url(#paint0_linear_63_6995)"/>
<path d="M9.80999 14C10.02 14.44 10.53 15.31 10.53 15.31L16.43 5.59L10.67 9.59999C10.33 9.82999 10.05 10.14 9.85 10.5C9.32 11.61 9.30999 12.89 9.80999 14.01V14ZM7.46999 17.2C7.53999 18.13 7.79998 19.03 8.23998 19.85C8.67998 20.67 9.3 21.39 10.04 21.95L16.41 26.37C16.41 26.37 12.43 20.65 9.05999 14.95C8.71999 14.35 8.48999 13.69 8.37999 13.01C8.32999 12.7 8.32999 12.39 8.37999 12.08C8.28999 12.24 8.11998 12.57 8.11998 12.57C7.77998 13.26 7.54998 14 7.42998 14.77C7.35998 15.58 7.37 16.39 7.45 17.19L7.46999 17.2ZM23.72 17.96C23.51 17.52 23 16.65 23 16.65L17.1 26.37L22.86 22.37C23.2 22.14 23.48 21.83 23.68 21.47C24.21 20.36 24.23 19.08 23.72 17.96ZM26.06 14.76C25.99 13.83 25.73 12.93 25.29 12.11C24.85 11.29 24.23 10.57 23.49 10.01L17.12 5.59C17.12 5.59 21.1 11.31 24.47 17.01C24.81 17.61 25.04 18.27 25.14 18.95C25.19 19.26 25.19 19.57 25.14 19.88C25.23 19.72 25.4 19.39 25.4 19.39C25.74 18.7 25.97 17.96 26.09 17.19C26.16 16.38 26.15 15.57 26.07 14.77L26.06 14.76Z" fill="white"/>
<defs>
<linearGradient id="paint0_linear_63_6995" x1="26.47" y1="33.14" x2="-4.40997" y2="-21.23" gradientUnits="userSpaceOnUse">
<stop stop-color="#44BCF0"/>
<stop offset="0.38" stop-color="#7298F8"/>
<stop offset="1" stop-color="#A099FF"/>
</linearGradient>
</defs>
</svg>
