<svg width="32" height="32" viewBox="0 0 32 32" fill="none" xmlns="http://www.w3.org/2000/svg">
<path d="M16 0C7.16 0 0 7.16 0 16C0 24.84 7.16 32 16 32C24.84 32 32 24.84 32 16C32 7.16 24.84 0 16 0ZM9.26001 21.98C8.51001 21.41 7.89 20.69 7.44 19.87C6.99 19.04 6.73 18.13 6.66 17.2C6.58 16.39 6.56998 15.57 6.63998 14.76C6.75998 13.99 6.98999 13.25 7.32999 12.55C7.32999 12.55 7.5 12.22 7.59 12.05C7.54 12.36 7.54 12.68 7.59 12.99C7.7 13.68 7.92999 14.34 8.26999 14.94C11.65 20.67 15.67 26.43 15.67 26.43L9.26001 21.97V21.98ZM9.73999 15.29C9.73999 15.29 9.22999 14.42 9.01999 13.97C8.50999 12.85 8.52 11.55 9.06 10.44C9.26 10.08 9.53998 9.75999 9.88998 9.53999L15.69 5.50999L9.75 15.29H9.73999ZM22.98 21.5C22.78 21.86 22.5 22.18 22.15 22.41L16.35 26.44L22.29 16.65C22.29 16.65 22.8 17.52 23.01 17.97C23.52 19.1 23.51 20.39 22.97 21.5H22.98ZM25.39 17.19C25.27 17.96 25.04 18.7 24.7 19.4C24.7 19.4 24.53 19.73 24.44 19.9C24.49 19.59 24.49 19.27 24.44 18.96C24.33 18.27 24.1 17.61 23.76 17.01C20.37 11.28 16.36 5.52 16.36 5.52L22.77 9.98C23.52 10.55 24.14 11.27 24.59 12.09C25.04 12.92 25.3 13.83 25.37 14.76C25.45 15.57 25.46 16.39 25.39 17.2V17.19Z" fill="#213147"/>
</svg>
