<svg width="33" height="33" viewBox="0 0 33 33" fill="none" xmlns="http://www.w3.org/2000/svg">
<path d="M16.47 0.309998C7.63 0.309998 0.470001 7.47 0.470001 16.31C0.470001 25.15 7.63 32.31 16.47 32.31C25.31 32.31 32.47 25.15 32.47 16.31C32.47 7.47 25.31 0.309998 16.47 0.309998ZM9.73001 22.29C8.98001 21.72 8.36 21 7.91 20.18C7.46 19.35 7.2 18.44 7.13 17.51C7.05 16.7 7.03999 15.88 7.10999 15.07C7.22999 14.3 7.45999 13.56 7.79999 12.86C7.79999 12.86 7.97 12.53 8.06 12.36C8.01 12.67 8.01 12.99 8.06 13.3C8.17 13.99 8.39999 14.65 8.73999 15.25C12.12 20.98 16.14 26.74 16.14 26.74L9.73001 22.28V22.29ZM10.21 15.6C10.21 15.6 9.69999 14.73 9.48999 14.28C8.97999 13.16 8.99 11.86 9.53 10.75C9.73 10.39 10.01 10.07 10.36 9.84999L16.16 5.81999L10.22 15.6H10.21ZM23.45 21.81C23.25 22.17 22.97 22.49 22.62 22.72L16.82 26.75L22.76 16.96C22.76 16.96 23.27 17.83 23.48 18.28C23.99 19.41 23.98 20.7 23.44 21.81H23.45ZM25.86 17.5C25.74 18.27 25.51 19.01 25.17 19.71C25.17 19.71 25 20.04 24.91 20.21C24.96 19.9 24.96 19.58 24.91 19.27C24.8 18.58 24.57 17.92 24.23 17.32C20.84 11.59 16.83 5.83 16.83 5.83L23.24 10.29C23.99 10.86 24.61 11.58 25.06 12.4C25.51 13.23 25.77 14.14 25.84 15.07C25.92 15.88 25.93 16.7 25.86 17.51V17.5Z" fill="#213147"/>
</svg>
