<svg width="32" height="32" viewBox="0 0 32 32" fill="none" xmlns="http://www.w3.org/2000/svg">
<path d="M15.58 0.509979C6.96999 0.509979 -0.0100098 7.48998 -0.0100098 16.1C-0.0100098 24.71 6.96999 31.69 15.58 31.69C24.19 31.69 31.17 24.71 31.17 16.1C31.17 7.48998 24.19 0.509979 15.58 0.509979ZM15.25 28.87L7.44999 17.87L15.25 22.55V28.86V28.87ZM7.8 16.52L15.25 13.11V20.84L7.8 16.51V16.52ZM15.25 12.41L7.72999 15.82L15.25 3.32998V12.41ZM15.96 3.32998L23.48 15.82L15.96 12.41V3.32998ZM15.96 13.11L23.41 16.52L15.96 20.85V13.12V13.11ZM15.96 28.87V22.56L23.76 17.88L15.96 28.88V28.87Z" fill="#213147"/>
</svg>
