<svg width="32" height="32" viewBox="0 0 32 32" fill="none" xmlns="http://www.w3.org/2000/svg">
<path d="M15.58 31.78C24.1901 31.78 31.17 24.8001 31.17 16.19C31.17 7.57989 24.1901 0.600006 15.58 0.600006C6.96988 0.600006 -0.0100098 7.57989 -0.0100098 16.19C-0.0100098 24.8001 6.96988 31.78 15.58 31.78Z" fill="white"/>
<path d="M15.96 22.64V28.95L23.76 17.95L15.96 22.63V22.64ZM23.48 15.9L15.96 3.41V12.49L23.48 15.9Z" fill="#3B3735"/>
<path d="M15.96 13.2V20.93L23.41 16.6L15.96 13.19V13.2Z" fill="#1F1D19"/>
<path d="M7.72999 15.9L15.25 3.41V12.49L7.72999 15.9Z" fill="#959190"/>
<path d="M15.25 13.2V20.93L7.8 16.6L15.25 13.19V13.2Z" fill="#403C3A"/>
<path d="M15.25 22.64V28.95L7.44999 17.95L15.25 22.63V22.64Z" fill="#959190"/>
</svg>
