<svg width="32" height="32" viewBox="0 0 32 32" fill="none" xmlns="http://www.w3.org/2000/svg">
<path d="M21.87 21.25H20.69V22.97H21.87C22.17 22.97 22.4 22.9 22.55 22.76C22.71 22.62 22.78 22.42 22.78 22.16V22.05C22.78 21.83 22.7 21.64 22.55 21.49C22.39 21.33 22.17 21.25 21.87 21.25Z" fill="#213147"/>
<path d="M16.3 0.509979C7.68999 0.509979 0.709991 7.48998 0.709991 16.1C0.709991 24.71 7.68999 31.69 16.3 31.69C24.91 31.69 31.89 24.71 31.89 16.1C31.89 7.48998 24.91 0.509979 16.3 0.509979ZM12.56 26.62H8.31V20.07H12.44V21.25H9.54001V22.75H12.33V23.93H9.54001V25.45H12.55V26.63L12.56 26.62ZM18.49 24.35C18.49 25.1 18.29 25.68 17.89 26.11C17.5 26.53 16.91 26.75 16.13 26.75C15.35 26.75 14.76 26.54 14.36 26.11C13.97 25.69 13.77 25.1 13.77 24.35V20.07H15V24.35C15 24.74 15.09 25.04 15.27 25.26C15.45 25.48 15.73 25.59 16.12 25.59C16.51 25.59 16.79 25.48 16.97 25.26C17.15 25.04 17.24 24.74 17.24 24.35V20.07H18.47V24.35H18.49ZM24.25 22.1C24.25 22.37 24.18 22.62 24.03 22.86C23.89 23.09 23.67 23.27 23.37 23.39V23.56C23.59 23.58 23.76 23.67 23.88 23.81C24.01 23.95 24.08 24.13 24.08 24.35V26.61H22.85V24.65C22.85 24.5 22.81 24.38 22.73 24.29C22.66 24.2 22.53 24.15 22.35 24.15H20.93V26.62H19.7V20.07H22.21C22.55 20.07 22.84 20.12 23.1 20.21C23.36 20.3 23.57 20.43 23.74 20.6C23.91 20.76 24.05 20.95 24.13 21.17C24.22 21.39 24.27 21.62 24.27 21.87V22.09L24.25 22.1ZM21.66 18.41L16.4 13.19L16.31 13.1L16.22 13.19L10.96 18.42L5.79001 13.29L16.31 2.82998L26.83 13.29L21.67 18.42L21.66 18.41Z" fill="#213147"/>
</svg>
