<svg width="33" height="33" viewBox="0 0 33 33" fill="none" xmlns="http://www.w3.org/2000/svg">
<path d="M16.28 31.86C24.89 31.86 31.87 24.88 31.87 16.27C31.87 7.65999 24.89 0.679993 16.28 0.679993C7.67 0.679993 0.690002 7.65999 0.690002 16.27C0.690002 24.88 7.67 31.86 16.28 31.86Z" fill="url(#paint0_linear_66_7936)" stroke="black" stroke-width="0.5"/>
<path d="M5.76001 13.48L16.28 3.01999L26.8 13.48L21.64 18.61L16.38 13.39L16.29 13.3L16.2 13.39L10.94 18.62L5.76999 13.49L5.76001 13.48Z" fill="#FFF6F0" stroke="black" stroke-width="0.5"/>
<path d="M8.31 20.25H12.44V21.43H9.54001V22.93H12.33V24.11H9.54001V25.63H12.55V26.81H8.29999V20.26L8.31 20.25ZM18.49 20.25V24.53C18.49 25.28 18.29 25.86 17.89 26.29C17.5 26.71 16.91 26.93 16.13 26.93C15.35 26.93 14.76 26.72 14.36 26.29C13.97 25.87 13.77 25.28 13.77 24.53V20.25H15V24.53C15 24.92 15.09 25.22 15.27 25.44C15.45 25.66 15.73 25.77 16.12 25.77C16.51 25.77 16.79 25.66 16.97 25.44C17.15 25.22 17.24 24.92 17.24 24.53V20.25H18.47H18.49ZM24.08 26.8H22.85V24.84C22.85 24.69 22.81 24.57 22.73 24.48C22.66 24.39 22.53 24.34 22.35 24.34H20.93V26.81H19.7V20.26H22.21C22.55 20.26 22.84 20.31 23.1 20.4C23.36 20.49 23.57 20.62 23.74 20.79C23.91 20.95 24.05 21.14 24.13 21.36C24.22 21.58 24.27 21.81 24.27 22.06V22.28C24.27 22.55 24.2 22.8 24.05 23.04C23.91 23.27 23.69 23.45 23.39 23.57V23.74C23.61 23.76 23.78 23.85 23.9 23.99C24.03 24.13 24.1 24.31 24.1 24.53V26.79L24.08 26.8ZM20.92 23.15H22.1C22.4 23.15 22.63 23.08 22.78 22.94C22.94 22.8 23.01 22.6 23.01 22.34V22.23C23.01 22.01 22.93 21.82 22.78 21.67C22.62 21.51 22.4 21.43 22.1 21.43H20.92V23.15Z" fill="#2A363A"/>
<defs>
<linearGradient id="paint0_linear_66_7936" x1="16.28" y1="0.679993" x2="16.28" y2="31.86" gradientUnits="userSpaceOnUse">
<stop stop-color="#99B998"/>
<stop offset="1" stop-color="#FDCEAA"/>
</linearGradient>
</defs>
</svg>
