<svg width="33" height="33" viewBox="0 0 33 33" fill="none" xmlns="http://www.w3.org/2000/svg">
<path d="M16.22 31.86C24.8301 31.86 31.81 24.8801 31.81 16.27C31.81 7.65987 24.8301 0.679993 16.22 0.679993C7.60988 0.679993 0.630005 7.65987 0.630005 16.27C0.630005 24.8801 7.60988 31.86 16.22 31.86Z" fill="white"/>
<path d="M16.22 32.27C25.0566 32.27 32.22 25.1065 32.22 16.27C32.22 7.43343 25.0566 0.269989 16.22 0.269989C7.38344 0.269989 0.220001 7.43343 0.220001 16.27C0.220001 25.1065 7.38344 32.27 16.22 32.27Z" fill="url(#paint0_linear_66_7941)"/>
<path d="M23.71 21.18L21.69 20.02C21.69 20.02 21.63 20 21.6 20C21.58 20 21.57 20 21.55 20C21.5 20.01 21.46 20.05 21.44 20.09C21.27 20.41 21.05 20.7 20.8 20.96C20.46 21.31 20.07 21.61 19.65 21.85C19.24 22.08 18.8 22.25 18.34 22.35C17.91 22.45 17.47 22.5 17.02 22.51C16.24 22.51 15.47 22.33 14.77 21.98C14.1 21.64 13.51 21.16 13.03 20.58C12.8 20.3 12.59 19.99 12.41 19.67L12.17 19.25H17.29C17.39 19.25 17.47 19.17 17.47 19.07V17.47C17.47 17.37 17.39 17.29 17.29 17.29H11.6L11.57 17.04C11.54 16.77 11.52 16.49 11.52 16.22C11.52 15.99 11.53 15.75 11.56 15.5L11.59 15.25H17.29C17.39 15.25 17.47 15.17 17.47 15.07V13.47C17.47 13.37 17.39 13.29 17.29 13.29H12.11L12.33 12.87C12.49 12.58 12.66 12.29 12.87 12.03C13.33 11.43 13.9 10.94 14.56 10.59C15.24 10.22 16.05 10.03 16.96 10.03C17.39 10.03 17.82 10.08 18.25 10.17C18.69 10.27 19.12 10.42 19.52 10.63C20.27 11.03 20.9 11.63 21.33 12.37C21.36 12.41 21.4 12.45 21.45 12.46C21.46 12.46 21.48 12.46 21.49 12.46C21.53 12.46 21.56 12.45 21.59 12.43L23.46 11.14C23.54 11.09 23.56 10.98 23.51 10.9C22.95 9.96999 22.16 9.17999 21.15 8.57999C20.01 7.88999 18.63 7.53999 17.05 7.53999C15.71 7.53999 14.51 7.78999 13.47 8.28999C11.46 9.21999 9.89999 10.92 9.14999 13C9.14999 13.02 9.14 13.03 9.13 13.05C9.13 13.05 9.11999 13.09 9.10999 13.1L9.04001 13.29H5.10001C5.00001 13.29 4.92001 13.37 4.92001 13.47V15.07C4.92001 15.17 5.00001 15.25 5.10001 15.25H8.60999L8.59 15.55C8.58 15.77 8.57001 15.95 8.57001 16.12C8.57001 16.4 8.57999 16.69 8.60999 16.98L8.64001 17.29H5.10001C5.00001 17.29 4.92001 17.37 4.92001 17.47V19.07C4.92001 19.17 5.00001 19.25 5.10001 19.25H9.14001L9.20999 19.43C9.60999 20.45 10.18 21.38 10.91 22.2C11.65 23.04 12.54 23.72 13.54 24.23C14.55 24.74 15.67 25 16.89 25C17.61 25 18.33 24.91 19.03 24.73C19.74 24.56 20.43 24.3 21.08 23.95C21.71 23.62 22.28 23.2 22.79 22.71C23.18 22.34 23.5 21.9 23.76 21.43C23.81 21.34 23.78 21.24 23.69 21.19L23.71 21.18Z" fill="white"/>
<defs>
<linearGradient id="paint0_linear_66_7941" x1="8.22" y1="2.40999" x2="24.22" y2="30.13" gradientUnits="userSpaceOnUse">
<stop stop-color="#0095D7"/>
<stop offset="1" stop-color="#0072AA"/>
</linearGradient>
</defs>
</svg>
