<svg width="32" height="32" viewBox="0 0 32 32" fill="none" xmlns="http://www.w3.org/2000/svg">
<g clip-path="url(#clip0_294_3785)">
<path d="M16 31.59C24.6101 31.59 31.59 24.6101 31.59 16C31.59 7.38988 24.6101 0.41 16 0.41C7.38988 0.41 0.410004 7.38988 0.410004 16C0.410004 24.6101 7.38988 31.59 16 31.59Z" fill="white"/>
<path d="M16 32C24.8366 32 32 24.8366 32 16C32 7.16344 24.8366 0 16 0C7.16344 0 0 7.16344 0 16C0 24.8366 7.16344 32 16 32Z" fill="url(#paint0_linear_294_3785)"/>
<path d="M23.49 20.91L21.47 19.75C21.47 19.75 21.41 19.73 21.38 19.73C21.36 19.73 21.35 19.73 21.33 19.73C21.28 19.74 21.24 19.78 21.22 19.82C21.05 20.14 20.83 20.43 20.58 20.69C20.24 21.04 19.85 21.34 19.43 21.58C19.02 21.81 18.58 21.98 18.12 22.08C17.69 22.18 17.25 22.23 16.8 22.24C16.02 22.24 15.25 22.06 14.55 21.71C13.88 21.37 13.29 20.89 12.81 20.31C12.58 20.03 12.37 19.72 12.19 19.4L11.95 18.98H17.07C17.17 18.98 17.25 18.9 17.25 18.8V17.2C17.25 17.1 17.17 17.02 17.07 17.02H11.38L11.35 16.77C11.32 16.5 11.3 16.22 11.3 15.95C11.3 15.72 11.31 15.48 11.34 15.23L11.37 14.98H17.07C17.17 14.98 17.25 14.9 17.25 14.8V13.2C17.25 13.1 17.17 13.02 17.07 13.02H11.89L12.11 12.6C12.27 12.31 12.44 12.02 12.65 11.76C13.11 11.16 13.68 10.67 14.34 10.32C15.02 9.95 15.83 9.76 16.74 9.76C17.17 9.76 17.6 9.81 18.03 9.9C18.47 10 18.9 10.15 19.3 10.36C20.05 10.76 20.68 11.36 21.11 12.1C21.14 12.14 21.18 12.18 21.23 12.19C21.24 12.19 21.26 12.19 21.27 12.19C21.31 12.19 21.34 12.18 21.37 12.16L23.24 10.87C23.32 10.82 23.34 10.71 23.29 10.63C22.73 9.7 21.94 8.91 20.93 8.31C19.79 7.62 18.41 7.27 16.83 7.27C15.49 7.27 14.29 7.52 13.25 8.02C11.24 8.95 9.67999 10.65 8.92999 12.73C8.92999 12.75 8.92 12.76 8.91 12.78C8.91 12.78 8.89998 12.82 8.88998 12.83L8.82001 13.02H4.88C4.78 13.02 4.70001 13.1 4.70001 13.2V14.8C4.70001 14.9 4.78 14.98 4.88 14.98H8.38998L8.37 15.28C8.35999 15.5 8.35001 15.68 8.35001 15.85C8.35001 16.13 8.35998 16.42 8.38998 16.71L8.42001 17.02H4.88C4.78 17.02 4.70001 17.1 4.70001 17.2V18.8C4.70001 18.9 4.78 18.98 4.88 18.98H8.92001L8.98999 19.16C9.38999 20.18 9.96 21.11 10.69 21.93C11.43 22.77 12.32 23.45 13.32 23.96C14.33 24.47 15.45 24.73 16.67 24.73C17.39 24.73 18.11 24.64 18.81 24.46C19.52 24.29 20.21 24.03 20.86 23.68C21.49 23.35 22.06 22.93 22.57 22.44C22.96 22.07 23.28 21.63 23.54 21.16C23.59 21.07 23.56 20.97 23.47 20.92L23.49 20.91Z" fill="white"/>
</g>
<defs>
<linearGradient id="paint0_linear_294_3785" x1="8" y1="2.14" x2="24" y2="29.86" gradientUnits="userSpaceOnUse">
<stop stop-color="#0095D7"/>
<stop offset="1" stop-color="#0072AA"/>
</linearGradient>
<clipPath id="clip0_294_3785">
<rect width="32" height="32" fill="white"/>
</clipPath>
</defs>
</svg>
