<svg width="32" height="32" viewBox="0 0 32 32" fill="none" xmlns="http://www.w3.org/2000/svg">
<path d="M16.22 0.509979C7.61 0.509979 0.630005 7.48998 0.630005 16.1C0.630005 24.71 7.61 31.69 16.22 31.69C24.83 31.69 31.81 24.71 31.81 16.1C31.81 7.48998 24.83 0.509979 16.22 0.509979ZM23.78 21.25C23.53 21.73 23.2 22.16 22.81 22.53C22.3 23.02 21.72 23.44 21.1 23.77C20.45 24.11 19.76 24.37 19.05 24.55C18.35 24.72 17.63 24.81 16.91 24.82C15.69 24.82 14.56 24.56 13.56 24.05C12.56 23.55 11.67 22.86 10.93 22.02C10.21 21.2 9.63001 20.26 9.23001 19.25L9.16 19.07H5.12C5.02 19.07 4.94 18.99 4.94 18.89V17.29C4.94 17.19 5.02 17.11 5.12 17.11H8.66L8.63 16.8C8.6 16.51 8.59 16.22 8.59 15.94C8.59 15.77 8.58999 15.59 8.60999 15.37L8.63 15.07H5.12C5.02 15.07 4.94 14.99 4.94 14.89V13.29C4.94 13.19 5.02 13.11 5.12 13.11H9.06L9.13 12.92C9.13 12.92 9.13999 12.89 9.14999 12.87C9.14999 12.87 9.15001 12.84 9.17001 12.82C9.93001 10.74 11.48 9.03998 13.49 8.10998C14.53 7.60998 15.74 7.35998 17.07 7.35998C18.64 7.35998 20.02 7.70998 21.17 8.39998C22.18 9.00998 22.97 9.78998 23.53 10.72C23.58 10.8 23.56 10.91 23.48 10.96L21.61 12.25C21.61 12.25 21.54 12.28 21.51 12.28C21.5 12.28 21.48 12.28 21.47 12.28C21.42 12.27 21.38 12.24 21.35 12.19C20.92 11.45 20.3 10.85 19.54 10.45C19.14 10.24 18.71 10.08 18.27 9.98998C17.85 9.89998 17.42 9.84998 16.98 9.84998C16.07 9.84998 15.26 10.04 14.58 10.41C13.92 10.76 13.34 11.26 12.89 11.85C12.69 12.12 12.51 12.4 12.35 12.69L12.13 13.11H17.31C17.41 13.11 17.49 13.19 17.49 13.29V14.89C17.49 14.99 17.41 15.07 17.31 15.07H11.61L11.58 15.32C11.56 15.57 11.54 15.81 11.54 16.04C11.54 16.31 11.56 16.59 11.59 16.86L11.62 17.11H17.31C17.41 17.11 17.49 17.19 17.49 17.29V18.89C17.49 18.99 17.41 19.07 17.31 19.07H12.19L12.43 19.49C12.61 19.81 12.82 20.11 13.05 20.4C13.53 20.98 14.12 21.45 14.79 21.8C15.48 22.16 16.26 22.34 17.04 22.33C17.48 22.33 17.92 22.27 18.36 22.17C18.82 22.06 19.26 21.89 19.67 21.67C20.1 21.43 20.49 21.13 20.82 20.78C21.07 20.52 21.29 20.23 21.46 19.91C21.48 19.87 21.52 19.83 21.57 19.82C21.59 19.82 21.6 19.82 21.62 19.82C21.65 19.82 21.68 19.82 21.71 19.84L23.73 21C23.82 21.05 23.85 21.16 23.8 21.24L23.78 21.25Z" fill="#213147"/>
</svg>
