<svg width="33" height="32" viewBox="0 0 33 32" fill="none" xmlns="http://www.w3.org/2000/svg">
<path d="M16.5 32.01C25.3366 32.01 32.5 24.8465 32.5 16.01C32.5 7.17344 25.3366 0.00999451 16.5 0.00999451C7.66344 0.00999451 0.5 7.17344 0.5 16.01C0.5 24.8465 7.66344 32.01 16.5 32.01Z" fill="white"/>
<path fill-rule="evenodd" clip-rule="evenodd" d="M27.6 27.53C30.62 24.62 32.5 20.53 32.5 16.01C32.5 10.66 29.88 5.92999 25.85 3.01999C20.3 3.64999 15.69 6.22999 14.1 9.92999H28.98L27.3 13.77H13.3C13.3 13.77 13.21 15.24 13.22 15.93C13.23 16.93 13.3 18.09 13.3 18.09H25.46L23.86 21.8H14.98C16.74 25.12 21.69 27.52 27.6 27.53Z" fill="url(#paint0_linear_63_7015)"/>
<path fill-rule="evenodd" clip-rule="evenodd" d="M22.93 30.66C20.96 31.53 18.78 32.01 16.5 32.01C7.66 32.01 0.5 24.85 0.5 16.01C0.5 7.16999 7.66 0.00999451 16.5 0.00999451C17.97 0.00999451 19.39 0.210002 20.73 0.580002C15.55 1.53 11.29 5.12999 9.39 9.92999H6.09L4.41 13.77H8.65V15.53C8.65 15.82 8.65 15.92 8.65 16.02C8.65 16.21 8.67 16.4 8.7 18.09H5.93L4.41 21.8H9.67C11.87 26.77 15.81 29.71 22.92 30.66H22.93Z" fill="url(#paint1_linear_63_7015)"/>
<defs>
<linearGradient id="paint0_linear_63_7015" x1="7.48" y1="28.69" x2="29.13" y2="11.51" gradientUnits="userSpaceOnUse">
<stop offset="0.33" stop-color="#15BCFF"/>
<stop offset="0.66" stop-color="#406BEE"/>
<stop offset="0.93" stop-color="#AE3EEB"/>
</linearGradient>
<linearGradient id="paint1_linear_63_7015" x1="4.1" y1="25.35" x2="25.94" y2="8.34" gradientUnits="userSpaceOnUse">
<stop offset="0.33" stop-color="#15BCFF"/>
<stop offset="0.66" stop-color="#406BEE"/>
<stop offset="0.93" stop-color="#AE3EEB"/>
</linearGradient>
</defs>
</svg>
