<svg width="33" height="33" viewBox="0 0 33 33" fill="none" xmlns="http://www.w3.org/2000/svg">
<path fill-rule="evenodd" clip-rule="evenodd" d="M27.3 27.83C30.32 24.92 32.2 20.83 32.2 16.31C32.2 10.96 29.58 6.22999 25.55 3.31999C20 3.94999 15.39 6.53 13.8 10.23H28.68L27 14.07H13C13 14.07 12.91 15.54 12.92 16.23C12.93 17.23 13 18.39 13 18.39H25.16L23.56 22.1H14.68C16.44 25.42 21.39 27.82 27.3 27.83Z" fill="#213147"/>
<path fill-rule="evenodd" clip-rule="evenodd" d="M22.63 30.97C20.66 31.84 18.48 32.32 16.2 32.32C7.35999 32.32 0.199997 25.16 0.199997 16.32C0.199997 7.47999 7.35999 0.319992 16.2 0.319992C17.67 0.319992 19.09 0.519999 20.43 0.889999C15.25 1.84 10.99 5.43999 9.09999 10.24H5.8L4.12 14.08H8.36V15.84C8.36 16.13 8.36 16.23 8.36 16.33C8.36 16.52 8.38 16.71 8.41 18.4H5.64L4.12 22.11H9.38C11.58 27.08 15.52 30.02 22.63 30.97Z" fill="#213147"/>
</svg>
