<svg width="32" height="32" viewBox="0 0 32 32" fill="none" xmlns="http://www.w3.org/2000/svg">
<path fill-rule="evenodd" clip-rule="evenodd" d="M27.1 27.51C30.12 24.6 32 20.51 32 15.99C32 10.64 29.38 5.91 25.35 3C19.8 3.63 15.19 6.21 13.6 9.91H28.48L26.8 13.75H12.8C12.8 13.75 12.71 15.22 12.72 15.91C12.73 16.91 12.8 18.07 12.8 18.07H24.96L23.36 21.78H14.48C16.24 25.1 21.19 27.5 27.1 27.51Z" fill="#213147"/>
<path fill-rule="evenodd" clip-rule="evenodd" d="M22.43 30.65C20.46 31.52 18.28 32 16 32C7.16 32 0 24.84 0 16C0 7.16 7.16 0 16 0C17.47 0 18.89 0.200007 20.23 0.570007C15.05 1.52001 10.79 5.12 8.9 9.92H5.6L3.92 13.76H8.16V15.52C8.16 15.81 8.16 15.91 8.16 16.01C8.16 16.2 8.18 16.39 8.21 18.08H5.44L3.92 21.79H9.18C11.38 26.76 15.32 29.7 22.43 30.65Z" fill="#213147"/>
</svg>
