<svg width="33" height="33" viewBox="0 0 33 33" fill="none" xmlns="http://www.w3.org/2000/svg">
<path d="M16.23 0.309998C7.39001 0.309998 0.230011 7.47 0.230011 16.31C0.230011 25.15 7.39001 32.31 16.23 32.31C25.07 32.31 32.23 25.15 32.23 16.31C32.23 7.47 25.07 0.309998 16.23 0.309998ZM13.29 8.75L15.46 5.55C15.86 4.96 16.73 4.97 17.12 5.56L19.21 8.75999C19.65 9.42999 19.17 10.31 18.37 10.31H14.11C13.31 10.31 12.83 9.41 13.28 8.75H13.29ZM24.98 23.44H7.47001C6.28001 23.44 5.57001 22.13 6.21001 21.13L11.19 13.36C11.56 12.79 12.19 12.44 12.87 12.44H19.58C20.26 12.44 20.9 12.79 21.26 13.36L26.24 21.13C26.88 22.13 26.16 23.44 24.98 23.44Z" fill="#213147"/>
</svg>
