<svg width="33" height="32" viewBox="0 0 33 32" fill="none" xmlns="http://www.w3.org/2000/svg">
<path d="M16.53 32.01C25.37 32.01 32.53 24.85 32.53 16.01C32.53 7.16999 25.37 0.00999451 16.53 0.00999451C7.69 0.00999451 0.529999 7.16999 0.529999 16.01C0.529999 24.85 7.69 32.01 16.53 32.01Z" fill="#22996E"/>
<path d="M16.53 23.14H7.77C6.58 23.14 5.87001 21.83 6.51001 20.83L11.49 13.06C11.86 12.49 12.49 12.14 13.17 12.14H19.88C20.56 12.14 21.2 12.49 21.56 13.06L26.54 20.83C27.18 21.83 26.46 23.14 25.28 23.14H16.52H16.53ZM17.43 5.26L19.52 8.46C19.96 9.13 19.48 10.01 18.68 10.01H14.42C13.62 10.01 13.14 9.11 13.59 8.45L15.76 5.25C16.16 4.66 17.03 4.67 17.42 5.26H17.43Z" fill="white"/>
</svg>
