<svg width="32" height="32" viewBox="0 0 32 32" fill="none" xmlns="http://www.w3.org/2000/svg">
<path d="M16 0C7.16 0 0 7.16 0 16C0 24.84 7.16 32 16 32C24.84 32 32 24.84 32 16C32 7.16 24.84 0 16 0ZM13.06 8.44L15.23 5.24001C15.63 4.65001 16.5 4.66 16.89 5.25L18.98 8.45C19.42 9.12 18.94 10 18.14 10H13.88C13.08 10 12.6 9.1 13.05 8.44H13.06ZM24.75 23.13H7.24C6.05 23.13 5.34 21.82 5.98 20.82L10.96 13.05C11.33 12.48 11.96 12.13 12.64 12.13H19.35C20.03 12.13 20.67 12.48 21.03 13.05L26.01 20.82C26.65 21.82 25.93 23.13 24.75 23.13Z" fill="#213147"/>
</svg>
