<svg width="33" height="33" viewBox="0 0 33 33" fill="none" xmlns="http://www.w3.org/2000/svg">
<path d="M16.05 32.27C24.88 32.27 32.05 25.11 32.05 16.27C32.05 7.42999 24.89 0.269989 16.05 0.269989C7.21 0.269989 0.0500031 7.42999 0.0500031 16.27C0.0500031 25.11 7.21 32.27 16.05 32.27Z" fill="black"/>
<path d="M7.23 7.37999C6.56 8.08999 5.99999 8.67999 5.98999 8.69999C5.98999 8.71999 6.58999 9.30999 7.33999 10.02C8.08999 10.73 8.73999 11.36 8.77999 11.4L8.85999 11.48L8.70999 11.73C7.37999 13.93 7.09999 16.59 7.93999 19.03C8.09999 19.49 8.36999 20.08 8.59999 20.47C8.70999 20.66 8.75999 20.78 8.74999 20.81C8.73999 20.83 8.05999 21.55 7.23999 22.41C6.41999 23.26 5.74999 23.98 5.73999 23.99C5.73999 24.01 8.02999 26.23 8.24999 26.41L8.32999 26.48L9.62999 25.13C10.13 24.61 10.62 24.09 11.11 23.57L11.3 23.38L11.48 23.49C12.4 24.07 13.47 24.48 14.66 24.69C15.26 24.8 16.39 24.82 17.03 24.75C18.26 24.61 19.47 24.2 20.46 23.6L20.72 23.44L21 23.71C21.6 24.29 23.85 26.43 23.87 26.44C23.89 26.45 26.36 23.87 26.35 23.84C26.35 23.82 24.65 22.2 23.62 21.23L23.28 20.9L23.44 20.64C24.76 18.44 25.04 15.78 24.18 13.32C24.06 12.96 23.68 12.15 23.46 11.78L23.35 11.59L24.79 10.08C25.58 9.24999 26.23 8.55998 26.22 8.54998C26.2 8.48998 23.67 6.10999 23.63 6.10999C23.61 6.10999 22.97 6.75998 22.21 7.54998C21.45 8.33998 20.82 8.98998 20.8 8.99998C20.79 8.99998 20.72 8.96999 20.65 8.91999C20.46 8.78999 19.98 8.52999 19.71 8.39999C18.89 8.01999 18.12 7.78998 17.24 7.65998C16.78 7.58998 15.4 7.57998 14.97 7.63998C13.95 7.78998 13.11 8.03999 12.26 8.46999C12.01 8.58999 11.73 8.74999 11.61 8.80999L11.41 8.92999L11.18 8.70998C11.06 8.58998 10.49 8.05999 9.93999 7.51999C9.37999 6.98999 8.81999 6.44998 8.67999 6.31998L8.42999 6.07999L7.20999 7.37999H7.23ZM16.67 11.04C17.56 11.15 18.36 11.45 19.1 11.97C19.48 12.23 20.04 12.8 20.3 13.17C21.8 15.29 21.51 18.18 19.63 19.95C18.02 21.46 15.68 21.79 13.72 20.79C12.3 20.06 11.3 18.74 10.98 17.15C10.88 16.64 10.88 15.7 10.98 15.2C11.08 14.71 11.2 14.35 11.45 13.86C12.42 11.92 14.51 10.78 16.67 11.04Z" fill="white"/>
</svg>
