<svg width="33" height="33" viewBox="0 0 33 33" fill="none" xmlns="http://www.w3.org/2000/svg">
<path d="M19.09 11.76C18.35 11.24 17.56 10.94 16.66 10.83C14.5 10.57 12.41 11.71 11.44 13.65C11.2 14.14 11.07 14.5 10.97 14.99C10.87 15.49 10.87 16.43 10.97 16.94C11.29 18.53 12.29 19.86 13.71 20.58C15.67 21.58 18 21.24 19.62 19.74C21.51 17.97 21.8 15.08 20.29 12.96C20.03 12.58 19.46 12.02 19.09 11.76Z" fill="#213147"/>
<path d="M16.05 0.100006C7.22 0.100006 0.0500031 7.26001 0.0500031 16.1C0.0500031 24.94 7.21 32.1 16.05 32.1C24.89 32.1 32.05 24.94 32.05 16.1C32.05 7.26001 24.89 0.100006 16.05 0.100006ZM23.88 26.22C23.88 26.22 21.61 24.07 21.01 23.49L20.73 23.22L20.47 23.38C19.48 23.98 18.26 24.39 17.04 24.53C16.4 24.61 15.27 24.58 14.67 24.47C13.48 24.26 12.41 23.85 11.49 23.27L11.31 23.16L11.12 23.35C10.63 23.87 10.13 24.39 9.64 24.91L8.34 26.26L8.26 26.19C8.04 26.01 5.74 23.79 5.75 23.77C5.76 23.76 6.43 23.04 7.25 22.19C8.07 21.33 8.75 20.61 8.76 20.59C8.77 20.57 8.72 20.44 8.61 20.25C8.38 19.86 8.11 19.27 7.95 18.81C7.11 16.37 7.39 13.72 8.72 11.51L8.87 11.26L8.79 11.18C8.79 11.18 8.09 10.52 7.35 9.8C6.6 9.09 6 8.5 6 8.48C6 8.47 6.56 7.87 7.24 7.16L8.46 5.86L8.71 6.10001C8.84 6.23001 9.41 6.77 9.97 7.3C10.53 7.83 11.09 8.36001 11.21 8.49001L11.44 8.71001L11.64 8.59C11.75 8.52 12.04 8.37001 12.29 8.25001C13.14 7.82001 13.98 7.57001 15 7.42001C15.43 7.36001 16.81 7.37 17.27 7.44C18.16 7.57 18.92 7.8 19.74 8.18C20.01 8.3 20.49 8.57 20.68 8.7C20.75 8.75 20.82 8.78001 20.83 8.78001C20.85 8.78001 21.48 8.12 22.24 7.33C23 6.53 23.63 5.89001 23.66 5.89001C23.69 5.89001 26.22 8.28 26.25 8.34C26.25 8.36 25.61 9.05 24.82 9.87L23.38 11.38L23.49 11.57C23.71 11.94 24.09 12.75 24.21 13.11C25.06 15.57 24.79 18.23 23.47 20.43L23.31 20.69L23.65 21.02C24.68 21.99 26.38 23.62 26.38 23.63C26.38 23.66 23.92 26.24 23.9 26.23L23.88 26.22Z" fill="#213147"/>
</svg>
