<svg width="32" height="32" viewBox="0 0 32 32" fill="none" xmlns="http://www.w3.org/2000/svg">
<g clip-path="url(#clip0_294_3448)">
<path d="M16 32C24.83 32 32 24.84 32 16C32 7.16 24.84 0 16 0C7.16 0 0 7.16 0 16C0 24.84 7.16 32 16 32Z" fill="black"/>
<path d="M7.18 7.11C6.51 7.82 5.95 8.41 5.93999 8.43C5.93999 8.45 6.53999 9.04 7.28999 9.75C8.03999 10.46 8.69 11.09 8.73 11.13L8.81 11.21L8.66 11.46C7.33 13.66 7.05 16.32 7.89 18.76C8.05 19.22 8.32 19.81 8.55 20.2C8.66 20.39 8.71 20.51 8.7 20.54C8.69 20.56 8.00999 21.28 7.18999 22.14C6.36999 22.99 5.7 23.71 5.68999 23.72C5.68999 23.74 7.98 25.96 8.2 26.14L8.28 26.21L9.57999 24.86C10.08 24.34 10.57 23.82 11.06 23.3L11.25 23.11L11.43 23.22C12.35 23.8 13.42 24.21 14.61 24.42C15.21 24.53 16.34 24.55 16.98 24.48C18.21 24.34 19.42 23.93 20.41 23.33L20.67 23.17L20.95 23.44C21.55 24.02 23.8 26.16 23.82 26.17C23.84 26.18 26.31 23.6 26.3 23.57C26.3 23.55 24.6 21.93 23.57 20.96L23.23 20.63L23.39 20.37C24.71 18.17 24.99 15.51 24.13 13.05C24.01 12.69 23.63 11.88 23.41 11.51L23.3 11.32L24.74 9.81C25.53 8.98 26.18 8.29 26.17 8.28C26.15 8.22 23.62 5.84 23.58 5.84C23.56 5.84 22.92 6.49 22.16 7.28C21.4 8.07 20.77 8.72 20.75 8.73C20.74 8.73 20.67 8.7 20.6 8.65C20.41 8.52 19.93 8.26 19.66 8.13C18.84 7.75 18.07 7.52 17.19 7.39C16.73 7.32 15.35 7.31 14.92 7.37C13.9 7.52 13.06 7.77 12.21 8.2C11.96 8.32 11.68 8.48 11.56 8.54L11.36 8.66L11.13 8.44C11.01 8.32 10.44 7.79 9.89 7.25C9.33 6.72 8.77 6.18 8.63 6.05L8.38 5.81L7.16 7.11H7.18ZM16.62 10.77C17.51 10.88 18.31 11.18 19.05 11.7C19.43 11.96 19.99 12.53 20.25 12.9C21.75 15.02 21.46 17.91 19.58 19.68C17.97 21.19 15.63 21.52 13.67 20.52C12.25 19.79 11.25 18.47 10.93 16.88C10.83 16.37 10.83 15.43 10.93 14.93C11.03 14.44 11.15 14.08 11.4 13.59C12.37 11.65 14.46 10.51 16.62 10.77Z" fill="white"/>
</g>
<defs>
<clipPath id="clip0_294_3448">
<rect width="32" height="32" fill="white"/>
</clipPath>
</defs>
</svg>
