<svg width="32" height="33" viewBox="0 0 32 33" fill="none" xmlns="http://www.w3.org/2000/svg">
<path d="M16 32.27C24.83 32.27 32 25.11 32 16.27C32 7.42999 24.84 0.269989 16 0.269989C7.16 0.269989 0 7.43999 0 16.27C0 25.1 7.16 32.27 16 32.27Z" fill="#1969FF"/>
<path d="M15.03 5.35999C15.57 5.07999 16.39 5.07999 16.93 5.35999L22.43 8.25999C22.75 8.42999 22.93 8.68999 22.96 8.94999V23.52C22.96 23.81 22.77 24.09 22.42 24.28L16.92 27.18C16.38 27.46 15.56 27.46 15.02 27.18L9.52 24.28C9.17 24.09 9 23.81 8.99 23.52C8.99 23.5 8.99 23.47 8.99 23.45V9.04999C8.99 9.04999 8.99 9.01 8.99 8.99V8.94999C9.01 8.67999 9.18 8.43999 9.52 8.25999L15.02 5.35999H15.03ZM22.09 17.05L16.92 19.78C16.38 20.06 15.56 20.06 15.02 19.78L9.87 17.05V23.47L15.02 26.18C15.32 26.34 15.64 26.5 15.95 26.51H15.97C16.28 26.51 16.58 26.35 16.88 26.21L22.08 23.45V17.05H22.09ZM8.14 23.21C8.14 23.77 8.2 24.14 8.33 24.39C8.44 24.6 8.59 24.77 8.88 24.97H8.9C8.96 25.02 9.03 25.07 9.12 25.12L9.22 25.18L9.53 25.37L9.09 26.11L8.74 25.9L8.68 25.86C8.59 25.81 8.51 25.75 8.42 25.69C7.59 25.13 7.28 24.51 7.28 23.24V23.2H8.14V23.21ZM15.56 13.18C15.56 13.18 15.48 13.21 15.45 13.23L9.96 16.14H9.94V16.15L9.95 16.16L15.44 19.07C15.44 19.07 15.51 19.1 15.55 19.12V13.18H15.56ZM16.43 13.18V19.12C16.43 19.12 16.51 19.09 16.54 19.07L22.03 16.16H22.05V16.15L22.04 16.14L16.55 13.23C16.55 13.23 16.48 13.2 16.44 13.18H16.43ZM22.09 9.99L17.15 12.58L22.09 15.17V9.97999V9.99ZM9.87 9.99V15.18L14.81 12.59L9.87 9.99999V9.99ZM16.54 6.13999C16.25 5.98999 15.74 5.98999 15.45 6.13999L9.95 9.04999H9.93V9.05999L9.94 9.06999L15.44 11.98C15.73 12.13 16.24 12.13 16.53 11.98L22.03 9.06999H22.05V9.05999L22.04 9.04999L16.54 6.13999ZM22.91 6.42999L23.26 6.63999L23.32 6.67999C23.42 6.73999 23.5 6.79999 23.58 6.84999C24.41 7.40999 24.72 8.02999 24.72 9.29999V9.33999H23.86C23.86 8.77999 23.8 8.40999 23.67 8.15999C23.56 7.94999 23.41 7.78 23.11 7.58H23.09C23.02 7.52 22.94 7.46999 22.87 7.42999L22.77 7.36999L22.46 7.17999L22.9 6.43999L22.91 6.42999Z" fill="white"/>
</svg>
