<svg width="32" height="33" viewBox="0 0 32 33" fill="none" xmlns="http://www.w3.org/2000/svg">
<path d="M9.96 15.96H9.94V15.97L9.95 15.98L15.44 18.89C15.44 18.89 15.51 18.92 15.55 18.94V13C15.55 13 15.47 13.03 15.44 13.05L9.95 15.96H9.96Z" fill="#213147"/>
<path d="M9.87 9.82001V15L14.81 12.41L9.87 9.82001Z" fill="#213147"/>
<path d="M16.43 18.94C16.43 18.94 16.51 18.91 16.54 18.89L22.03 15.98H22.05V15.97L22.04 15.96L16.55 13.05C16.55 13.05 16.48 13.02 16.44 13V18.94H16.43Z" fill="#213147"/>
<path d="M9.96 8.89L15.46 11.8C15.75 11.95 16.26 11.95 16.55 11.8L22.05 8.89H22.07V8.88L22.06 8.87L16.56 5.96C16.27 5.81 15.76 5.81 15.47 5.96L9.97 8.87H9.95V8.88L9.96 8.89Z" fill="#213147"/>
<path d="M22.09 15V9.82001L17.15 12.41L22.09 15Z" fill="#213147"/>
<path d="M15.03 19.61L9.88 16.88V23.3L15.03 26.01C15.33 26.17 15.65 26.33 15.96 26.34H15.98C16.29 26.34 16.59 26.18 16.89 26.04L22.09 23.28V16.88L16.92 19.61C16.38 19.89 15.56 19.89 15.02 19.61H15.03Z" fill="#213147"/>
<path d="M16 0.100006C7.16 0.100006 0 7.26001 0 16.1C0 24.94 7.16 32.1 16 32.1C24.84 32.1 32 24.94 32 16.1C32 7.26001 24.84 0.100006 16 0.100006ZM9.09 25.94L8.74 25.73L8.68 25.69C8.59 25.64 8.51 25.58 8.42 25.52C7.59 24.96 7.28 24.34 7.28 23.07V23.03H8.14C8.14 23.59 8.2 23.96 8.33 24.21C8.44 24.42 8.59 24.59 8.88 24.79H8.9C8.96 24.84 9.03 24.89 9.12 24.94L9.22 25L9.53 25.19L9.09 25.93V25.94ZM22.96 23.35C22.96 23.64 22.77 23.92 22.42 24.11L16.92 27.01C16.38 27.29 15.56 27.29 15.02 27.01L9.52 24.11C9.17 23.92 9 23.64 8.99 23.35C8.99 23.33 8.99 23.3 8.99 23.28V8.88C8.99 8.88 8.99 8.84001 8.99 8.82001V8.78001C9.01 8.51001 9.18 8.27 9.52 8.09L15.02 5.19C15.56 4.91 16.38 4.91 16.92 5.19L22.42 8.09C22.74 8.26 22.92 8.52001 22.95 8.78001V23.35H22.96ZM23.86 9.16C23.86 8.6 23.8 8.23 23.67 7.98C23.56 7.77 23.41 7.6 23.12 7.4H23.1C23.03 7.34 22.95 7.29001 22.88 7.25001L22.78 7.19L22.47 7.00001L22.91 6.26L23.26 6.47L23.32 6.51C23.42 6.57 23.5 6.63 23.58 6.68C24.41 7.24 24.72 7.86 24.72 9.13V9.17001H23.86V9.16Z" fill="#213147"/>
</svg>
