<svg width="32" height="32" viewBox="0 0 32 32" fill="none" xmlns="http://www.w3.org/2000/svg">
<path d="M30.47 10.2C29.68 8.34001 28.56 6.68001 27.13 5.24001C25.7 3.81001 24.03 2.68001 22.17 1.90001C20.25 1.09001 18.21 0.670013 16.1 0.670013C13.99 0.670013 11.95 1.08001 10.03 1.90001C8.17 2.69001 6.51001 3.81001 5.07001 5.24001C3.64001 6.67001 2.51 8.34001 1.73 10.2C0.919996 12.12 0.5 14.16 0.5 16.27C0.5 18.38 0.909996 20.42 1.73 22.34C2.52 24.2 3.64001 25.86 5.07001 27.3C6.50001 28.73 8.17 29.86 10.03 30.64C11.95 31.45 13.99 31.87 16.1 31.87C18.2 31.87 20.25 31.46 22.17 30.64C24.03 29.85 25.69 28.73 27.13 27.3C28.56 25.87 29.69 24.2 30.47 22.34C31.28 20.42 31.7 18.38 31.7 16.27C31.7 14.16 31.29 12.12 30.47 10.2Z" fill="black"/>
<path d="M22.11 19.86C22.11 18.5 21.54 17.37 20.42 16.53C19.59 15.9 18.44 15.39 16.56 14.81C13.18 13.77 13.18 13.18 13.18 12.69C13.18 12.03 14.16 11.11 16.01 11.11C17.1 11.11 18.93 11.38 18.93 13.23H22C22 12.36 21.81 11.55 21.44 10.84L23.9 8.38001L21.73 6.21001L19.22 8.72001C18.31 8.27001 17.22 8.04001 16.01 8.04001C14.88 8.04001 13.84 8.26001 12.95 8.68001L10.48 6.21001L8.31 8.38001L10.65 10.72C10.3 11.33 10.11 12.01 10.11 12.69C10.11 14.05 10.68 15.18 11.8 16.02C12.63 16.65 13.78 17.16 15.66 17.74C19.04 18.78 19.04 19.38 19.04 19.86C19.04 20.52 18.06 21.44 16.21 21.44C15.12 21.44 13.29 21.17 13.29 19.32H10.22C10.22 20.19 10.42 21.01 10.79 21.71L8.32001 24.18L10.49 26.35L13.01 23.83C13.92 24.27 15.01 24.51 16.22 24.51C17.35 24.51 18.38 24.29 19.27 23.88L21.75 26.36L23.92 24.19L21.57 21.84C21.92 21.22 22.11 20.55 22.11 19.86Z" fill="white"/>
</svg>
