<svg width="32" height="32" viewBox="0 0 32 32" fill="none" xmlns="http://www.w3.org/2000/svg">
<path d="M30.47 10.03C29.68 8.17 28.56 6.51 27.13 5.07C25.7 3.64 24.03 2.51 22.17 1.73C20.25 0.919996 18.21 0.5 16.1 0.5C13.99 0.5 11.95 0.909996 10.03 1.73C8.17 2.52 6.51001 3.64 5.07001 5.07C3.64001 6.5 2.51 8.17 1.73 10.03C0.919996 11.95 0.5 13.99 0.5 16.1C0.5 18.21 0.909996 20.25 1.73 22.17C2.52 24.03 3.64001 25.69 5.07001 27.13C6.50001 28.56 8.17 29.69 10.03 30.47C11.95 31.28 13.99 31.7 16.1 31.7C18.21 31.7 20.25 31.29 22.17 30.47C24.03 29.68 25.69 28.56 27.13 27.13C28.56 25.7 29.69 24.03 30.47 22.17C31.28 20.25 31.7 18.21 31.7 16.1C31.7 13.99 31.29 11.95 30.47 10.03ZM22.01 13.05H18.94C18.94 11.21 17.11 10.93 16.02 10.93C14.18 10.93 13.19 11.85 13.19 12.51C13.19 12.99 13.19 13.59 16.57 14.63C18.45 15.21 19.6 15.72 20.43 16.35C21.55 17.2 22.12 18.32 22.12 19.68C22.12 20.37 21.93 21.05 21.58 21.66L23.93 24.01L21.76 26.18L19.28 23.7C18.39 24.12 17.35 24.33 16.23 24.33C15.02 24.33 13.93 24.1 13.02 23.65L10.5 26.17L8.33 24L10.8 21.53C10.43 20.82 10.23 20.01 10.23 19.14H13.3C13.3 20.98 15.13 21.26 16.22 21.26C18.06 21.26 19.05 20.34 19.05 19.68C19.05 19.2 19.05 18.6 15.67 17.56C13.79 16.98 12.64 16.47 11.81 15.84C10.69 14.99 10.12 13.87 10.12 12.51C10.12 11.82 10.31 11.15 10.66 10.54L8.32001 8.2L10.49 6.03L12.96 8.5C13.86 8.08 14.89 7.85999 16.02 7.85999C17.23 7.85999 18.32 8.08999 19.23 8.53999L21.74 6.03L23.91 8.2L21.45 10.66C21.82 11.37 22.01 12.18 22.01 13.05Z" fill="#213147"/>
</svg>
