<svg width="32" height="32" viewBox="0 0 32 32" fill="none" xmlns="http://www.w3.org/2000/svg">
<path d="M30.7385 9.77436C29.9282 7.86667 28.7795 6.1641 27.3128 4.68718C25.8462 3.22051 24.1333 2.06153 22.2256 1.26153C20.2564 0.430765 18.1641 0 16 0C13.8359 0 11.7436 0.420508 9.77436 1.26153C7.86667 2.07179 6.16411 3.22051 4.68719 4.68718C3.22052 6.15385 2.06153 7.86667 1.26153 9.77436C0.430765 11.7436 0 13.8359 0 16C0 18.1641 0.420508 20.2564 1.26153 22.2256C2.07179 24.1333 3.22052 25.8359 4.68719 27.3128C6.15385 28.7795 7.86667 29.9385 9.77436 30.7385C11.7436 31.5692 13.8359 32 16 32C18.1641 32 20.2564 31.5795 22.2256 30.7385C24.1333 29.9282 25.8359 28.7795 27.3128 27.3128C28.7795 25.8462 29.9385 24.1333 30.7385 22.2256C31.5692 20.2564 32 18.1641 32 16C32 13.8359 31.5795 11.7436 30.7385 9.77436ZM22.0615 12.8718H18.9128C18.9128 10.9846 17.0359 10.6974 15.918 10.6974C14.0308 10.6974 13.0154 11.641 13.0154 12.3179C13.0154 12.8103 13.0154 13.4256 16.4821 14.4923C18.4103 15.0872 19.5897 15.6103 20.441 16.2564C21.5897 17.1282 22.1744 18.2769 22.1744 19.6718C22.1744 20.3795 21.9795 21.0769 21.6205 21.7026L24.0308 24.1128L21.8051 26.3385L19.2615 23.7949C18.3487 24.2256 17.282 24.441 16.1333 24.441C14.8923 24.441 13.7744 24.2051 12.841 23.7436L10.2564 26.3282L8.03077 24.1026L10.5641 21.5692C10.1846 20.841 9.97948 20.0103 9.97948 19.1179H13.1282C13.1282 21.0051 15.0051 21.2923 16.1231 21.2923C18.0103 21.2923 19.0256 20.3487 19.0256 19.6718C19.0256 19.1795 19.0256 18.5641 15.559 17.4974C13.6308 16.9026 12.4513 16.3795 11.6 15.7333C10.4513 14.8615 9.86666 13.7128 9.86666 12.3179C9.86666 11.6103 10.0615 10.9231 10.4205 10.2974L8.02052 7.89743L10.2462 5.67179L12.7795 8.20513C13.7026 7.77436 14.759 7.54871 15.918 7.54871C17.159 7.54871 18.2769 7.78461 19.2103 8.24615L21.7846 5.67179L24.0103 7.89743L21.4872 10.4205C21.8667 11.1487 22.0615 11.9795 22.0615 12.8718Z" fill="#213147"/>
</svg>
