<svg width="32" height="32" viewBox="0 0 32 32" fill="none" xmlns="http://www.w3.org/2000/svg">
<g clip-path="url(#clip0_294_3479)">
<path d="M30.7385 9.77436C29.9282 7.86667 28.7795 6.1641 27.3128 4.68718C25.8462 3.22051 24.1333 2.06154 22.2256 1.26154C20.2564 0.430769 18.1641 0 16 0C13.8359 0 11.7436 0.420512 9.77436 1.26154C7.86667 2.07179 6.16411 3.22051 4.68719 4.68718C3.22052 6.15385 2.06153 7.86667 1.26153 9.77436C0.430765 11.7436 0 13.8359 0 16C0 18.1641 0.420508 20.2564 1.26153 22.2256C2.07179 24.1333 3.22052 25.8359 4.68719 27.3128C6.15385 28.7795 7.86667 29.9385 9.77436 30.7385C11.7436 31.5692 13.8359 32 16 32C18.1539 32 20.2564 31.5795 22.2256 30.7385C24.1333 29.9282 25.8359 28.7795 27.3128 27.3128C28.7795 25.8462 29.9385 24.1333 30.7385 22.2256C31.5692 20.2564 32 18.1641 32 16C32 13.8359 31.5795 11.7436 30.7385 9.77436Z" fill="black"/>
<path d="M22.1641 19.682C22.1641 18.2872 21.5795 17.1282 20.4308 16.2666C19.5795 15.6205 18.4 15.0974 16.4718 14.5025C13.0051 13.4359 13.0051 12.8307 13.0051 12.3282C13.0051 11.6513 14.0103 10.7077 15.9077 10.7077C17.0256 10.7077 18.9026 10.9846 18.9026 12.882H22.0513C22.0513 11.9897 21.8564 11.159 21.4769 10.4307L24 7.90767L21.7744 5.68203L19.2 8.25639C18.2667 7.79485 17.1487 7.55895 15.9077 7.55895C14.7487 7.55895 13.682 7.78459 12.7692 8.21536L10.2359 5.68203L8.01025 7.90767L10.4103 10.3077C10.0513 10.9333 9.85641 11.6307 9.85641 12.3282C9.85641 13.7231 10.441 14.882 11.5897 15.7436C12.441 16.3897 13.6205 16.9128 15.5487 17.5077C19.0154 18.5743 19.0154 19.1897 19.0154 19.682C19.0154 20.359 18.0103 21.3025 16.1128 21.3025C14.9949 21.3025 13.1179 21.0256 13.1179 19.1282H9.96923C9.96923 20.0205 10.1744 20.8615 10.5538 21.5795L8.02052 24.1128L10.2462 26.3384L12.8308 23.7538C13.7641 24.2051 14.8821 24.4513 16.1231 24.4513C17.2821 24.4513 18.3385 24.2256 19.2513 23.8051L21.7949 26.3487L24.0205 24.1231L21.6103 21.7128C21.9692 21.0769 22.1641 20.3897 22.1641 19.682Z" fill="white"/>
</g>
<defs>
<clipPath id="clip0_294_3479">
<rect width="32" height="32" fill="white"/>
</clipPath>
</defs>
</svg>
