<svg width="33" height="32" viewBox="0 0 33 32" fill="none" xmlns="http://www.w3.org/2000/svg">
<path d="M16.57 0.00999451C25.41 0.00999451 32.57 7.16999 32.57 16.01C32.57 24.85 25.41 32.01 16.57 32.01C7.73001 32.01 0.570007 24.85 0.570007 16.01C0.570007 7.16999 7.73001 0.00999451 16.57 0.00999451Z" fill="url(#paint0_linear_63_7041)"/>
<path fill-rule="evenodd" clip-rule="evenodd" d="M25.5 20.62L23.32 15.58H19.82L21.9 20.51H15.13C13.82 20.51 12.59 20 11.66 19.06C10.73 18.13 10.21 16.89 10.21 15.58C10.21 14.27 10.72 13.04 11.66 12.1C12.59 11.17 13.82 10.65 15.13 10.65H21.58L20.21 7.36H15.13C10.61 7.36 6.78 11.05 6.78 15.57C6.78 20.09 10.62 23.78 15.13 23.78H25.51V20.61L25.5 20.62Z" fill="white"/>
<path fill-rule="evenodd" clip-rule="evenodd" d="M14.58 11.87C13.67 11.87 12.94 12.61 12.94 13.51C12.94 14.41 13.67 15.15 14.58 15.15C15.49 15.15 16.22 14.41 16.22 13.51C16.22 12.61 15.49 11.87 14.58 11.87Z" fill="white"/>
<path fill-rule="evenodd" clip-rule="evenodd" d="M14.58 16.08C13.67 16.08 12.94 16.82 12.94 17.72C12.94 18.62 13.67 19.36 14.58 19.36C15.49 19.36 16.22 18.62 16.22 17.72C16.22 16.82 15.49 16.08 14.58 16.08Z" fill="white"/>
<defs>
<linearGradient id="paint0_linear_63_7041" x1="16.56" y1="0.00999451" x2="16.56" y2="32.01" gradientUnits="userSpaceOnUse">
<stop stop-color="#B3B2D3"/>
<stop offset="0.53" stop-color="#8C8ADA"/>
<stop offset="1" stop-color="#6D69DE"/>
</linearGradient>
</defs>
</svg>
