<svg width="33" height="33" viewBox="0 0 33 33" fill="none" xmlns="http://www.w3.org/2000/svg">
<path d="M16.26 0.309998C7.41999 0.309998 0.259995 7.47 0.259995 16.31C0.259995 25.15 7.41999 32.31 16.26 32.31C25.1 32.31 32.26 25.15 32.26 16.31C32.26 7.47 25.1 0.309998 16.26 0.309998ZM25.21 24.1H14.83C10.31 24.1 6.48 20.42 6.48 15.89C6.48 11.36 10.32 7.67999 14.83 7.67999H19.91L21.28 10.96H14.83C13.52 10.96 12.29 11.48 11.36 12.41C10.43 13.34 9.91 14.58 9.91 15.89C9.91 17.2 10.42 18.43 11.36 19.37C12.29 20.3 13.52 20.82 14.83 20.82H21.6L19.52 15.89H23.02L25.2 20.93V24.1H25.21ZM14.28 15.45C13.37 15.45 12.64 14.71 12.64 13.81C12.64 12.91 13.37 12.17 14.28 12.17C15.19 12.17 15.92 12.91 15.92 13.81C15.92 14.71 15.19 15.45 14.28 15.45ZM15.92 18.03C15.92 18.94 15.19 19.67 14.28 19.67C13.37 19.67 12.64 18.93 12.64 18.03C12.64 17.13 13.37 16.39 14.28 16.39C15.19 16.39 15.92 17.13 15.92 18.03Z" fill="#213147"/>
</svg>
