<svg width="33" height="33" viewBox="0 0 33 33" fill="none" xmlns="http://www.w3.org/2000/svg">
<path d="M31.76 10.16H30.94V6.87999H29.3V5.23999H27.6599V3.59999H26.02V1.95999H22.74V0.319992H10.43V1.95999H7.14999V3.59999H5.50998V5.23999H3.86996V6.87999H2.22995V10.16H0.589966V22.47H2.22995V25.75H3.86996V27.39H5.50998V29.03H7.14999V30.67H10.43V32.31H22.74V30.67H26.02V29.03H27.6599V27.39H29.3V25.75H30.94V22.47H32.58V10.16H31.76ZM10.05 14.88H5.53V19.4H8.91995V17.71H6.65994V16.58H10.05V19.4H8.91995V20.53H5.53V19.4H4.39999V14.88H5.53V13.75H10.05V14.88ZM16.26 20.53H15.13V17.71H12.31V20.53H11.18V13.75H12.31V16.57H15.13V13.75H16.26V20.53ZM22.4699 14.88H18.52V16.57H21.34V17.7H22.4699V19.39H21.34V20.52H20.77V21.65H19.64V20.52H17.38V19.39H21.33V17.7H18.51V16.57H17.38V14.88H18.51V13.75H19.64V12.62H20.77V13.75H22.46V14.88H22.4699ZM29.25 14.88H26.99V20.53H25.86V14.88H23.5999V13.75H29.25V14.88Z" fill="#213147"/>
</svg>
