<svg width="32" height="32" viewBox="0 0 32 32" fill="none" xmlns="http://www.w3.org/2000/svg">
<path d="M31.06 9.89999H30.24V6.64H28.61V5.00999H26.9799V3.37999H25.3499V1.75H22.09V0.119995H9.86996V1.75H6.60995V3.37999H4.97995V5.00999H3.34995V6.64H1.71997V9.89999H0.0899658V12.77H31.87V9.89999H31.06Z" fill="#FA34F3"/>
<path d="M31.06 12.34H0.0899658V19.07H31.87V12.34H31.06Z" fill="#CF15F9"/>
<path d="M31.06 17.23H0.0899658V22.12H1.71997V22.88H30.24V22.12H31.87V17.23H31.06Z" fill="#AC15F9"/>
<path d="M29.43 22.12H1.71997V25.38H3.34995V27.01H4.97995L5.00998 28.07H26.9799V27.01H28.61V25.38H30.24V22.12H29.43Z" fill="#8F17F9"/>
<path d="M15.58 31.9H9.87997V30.27H6.61996V28.64H4.98996V27.01H26.99V28.64H25.36V30.27H22.0999V31.9H15.58Z" fill="#7E18F8"/>
<path d="M20.7199 18.51V19.07H21.84V17.39H20.7199V18.51ZM19.5999 19.07H16.8V20.19H19.0399V21.31H20.1599V20.19H20.7199V19.07H19.5999ZM17.9099 17.39H20.71V16.27H17.9099V17.39ZM16.7899 14.59V16.27H17.9099V14.59H16.7899ZM20.7199 13.46H20.1599V12.34H19.0399V13.46H17.92V14.58H21.8499V13.46H20.7299H20.7199ZM28.01 13.46H22.96V14.58H25.2V20.19H26.32V14.58H28.56V13.46H28H28.01ZM14.55 13.46V16.26H11.75V13.46H10.63V20.19H11.75V17.39H14.55V20.19H15.67V13.46H14.55ZM8.37997 13.46H5.01999V14.58H9.50998V13.46H8.38998H8.37997ZM9.49997 19.07V16.27H6.12997V17.39H8.36996V19.07H9.48996H9.49997ZM5.00998 20.2H8.36996V19.08H5.00998V20.2ZM3.88998 14.59V19.08H5.00998V14.59H3.88998Z" fill="white"/>
</svg>
