<svg width="32" height="32" viewBox="0 0 32 32" fill="none" xmlns="http://www.w3.org/2000/svg">
<g clip-path="url(#clip0_294_3376)">
<path d="M30.3587 9.8477V6.56514H28.7174V4.92385H27.0761V3.28256H25.4348V1.64129H22.1523V0H9.8477V1.64129H6.56512V3.28256H4.92384V4.92385H3.28255V6.56514H1.64129V9.8477H0V12.7376H32V9.8477H30.3587Z" fill="#FA34F3"/>
<path d="M0 12.3046V19.0812H32V12.3046H0Z" fill="#CF15F9"/>
<path d="M0 17.2284V22.1523H1.64129V22.9175H30.3587V22.1523H32V17.2284H0Z" fill="#AC15F9"/>
<path d="M1.64129 22.1523V25.4349H3.28255V27.0761H4.92384L4.95407 28.1435H27.0761V27.0761H28.7174V25.4349H30.3587V22.1523H1.64129Z" fill="#8F17F9"/>
<path d="M9.85781 32V30.3587H6.57523V28.7175H4.93395V27.0762H27.0862V28.7175H25.445V30.3587H22.1624V32H9.85781Z" fill="#7E18F8"/>
<path d="M20.7728 19.0812H21.9006V17.3895H20.7728V19.0812ZM16.8257 19.0812V20.2089H19.0812V21.3367H20.2089V20.2089H20.7728V19.0812H16.8257ZM17.9434 17.3895H20.7628V16.2618H17.9434V17.3895ZM16.8156 14.5701V16.2618H17.9434V14.5701H16.8156ZM20.2089 13.4323V12.3046H19.0812V13.4323H17.9534V14.5601H21.9106V13.4323H20.2089ZM28.1133 13.4323H23.0284V14.5601H25.2839V20.2089H26.4116V14.5601H28.6671V13.4323H28.1032H28.1133ZM14.5601 13.4323V16.2517H11.7408V13.4323H10.613V20.2089H11.7408V17.3895H14.5601V20.2089H15.6879V13.4323H14.5601ZM4.96418 13.4323V14.5601H9.48526V13.4323H4.96418ZM9.47518 19.0812V16.2618H6.08185V17.3895H8.33735V19.0812H9.47518ZM4.9541 20.219H8.33735V19.0912H4.9541V20.219ZM3.82636 14.5701V19.0912H4.9541V14.5701H3.82636Z" fill="white"/>
</g>
<defs>
<clipPath id="clip0_294_3376">
<rect width="32" height="32" fill="white"/>
</clipPath>
</defs>
</svg>
