<svg width="32" height="32" viewBox="0 0 32 32" fill="none" xmlns="http://www.w3.org/2000/svg">
<g clip-path="url(#clip0_294_3374)">
<path d="M31.17 9.84001H30.35V6.56H28.71V4.92H27.07V3.28H25.43V1.64H22.15V0H9.84V1.64H6.56003V3.28H4.92001V4.92H3.28V6.56H1.63998V9.84001H0V22.15H1.63998V25.43H3.28V27.07H4.92001V28.71H6.56003V30.35H9.84V31.99H22.15V30.35H25.43V28.71H27.07V27.07H28.71V25.43H30.35V22.15H31.99V9.84001H31.17ZM9.45999 14.56H4.94003V19.08H8.32999V17.39H6.06998V16.26H9.45999V19.08H8.32999V20.21H4.94003V19.08H3.81003V14.56H4.94003V13.43H9.45999V14.56ZM15.67 20.21H14.54V17.39H11.72V20.21H10.59V13.43H11.72V16.25H14.54V13.43H15.67V20.21ZM21.88 14.56H17.93V16.25H20.75V17.38H21.88V19.07H20.75V20.2H20.18V21.33H19.05V20.2H16.79V19.07H20.74V17.38H17.92V16.25H16.79V14.56H17.92V13.43H19.05V12.3H20.18V13.43H21.87V14.56H21.88ZM28.66 14.56H26.4V20.21H25.27V14.56H23.01V13.43H28.66V14.56Z" fill="#213147"/>
</g>
<defs>
<clipPath id="clip0_294_3374">
<rect width="32" height="32" fill="white"/>
</clipPath>
</defs>
</svg>
