<svg width="33" height="32" viewBox="0 0 33 32" fill="none" xmlns="http://www.w3.org/2000/svg">
<path d="M16.48 30.88C24.6262 30.88 31.23 24.2762 31.23 16.13C31.23 7.98379 24.6262 1.37999 16.48 1.37999C8.33381 1.37999 1.73001 7.98379 1.73001 16.13C1.73001 24.2762 8.33381 30.88 16.48 30.88Z" fill="white"/>
<path fill-rule="evenodd" clip-rule="evenodd" d="M16.49 32.01C7.64999 32.01 0.48999 24.85 0.48999 16.01C0.48999 7.16999 7.64999 0.00999451 16.49 0.00999451C25.33 0.00999451 32.49 7.16999 32.49 16.01C32.49 24.85 25.33 32.01 16.49 32.01ZM25.27 10.51L24.47 11.32C25.11 12.33 25.3 13.6 24.87 14.81C24.14 16.87 21.89 17.96 19.85 17.22C19.56 17.11 19.29 16.98 19.05 16.81L16.49 19.4L14.26 17.12C13.2 17.84 11.86 18.01 10.65 17.58C8.53999 16.8 7.46 14.47 8.22 12.36C8.33 12.03 8.49001 11.73 8.67001 11.46L7.70999 10.48L7.53 10.79C6.52 12.46 5.98999 14.38 5.98999 16.33C5.96999 22.2 10.69 27 16.47 27H16.49C22.27 27 26.97 22.24 26.99 16.37C26.99 14.42 26.46 12.51 25.47 10.83L25.27 10.5V10.51ZM9.85999 12.66C9.57999 13.04 9.42001 13.51 9.42001 13.98C9.42001 15.17 10.38 16.15 11.56 16.15C12.05 16.15 12.5 15.99 12.87 15.69L9.85999 12.66ZM20.36 15.51C20.7 15.75 21.1 15.88 21.56 15.88C22.74 15.88 23.7 14.9 23.7 13.71C23.7 13.27 23.57 12.85 23.34 12.5L20.37 15.52L20.36 15.51ZM16.53 17.79L25.09 9.14L24.76 8.76999C22.64 6.37999 19.61 5.01 16.42 5H16.4C13.26 5 10.34 6.29 8.20001 8.59L7.85999 8.95999L16.53 17.79ZM9.28 8.95999C11.18 7.07999 13.75 6.01999 16.43 6.03999H16.45C19.17 6.03999 21.78 7.16 23.7 9.11L16.54 16.34L9.29001 8.95999H9.28Z" fill="#35775D"/>
</svg>
