<svg width="33" height="33" viewBox="0 0 33 33" fill="none" xmlns="http://www.w3.org/2000/svg">
<path fill-rule="evenodd" clip-rule="evenodd" d="M16.51 32.31C7.67001 32.31 0.51001 25.15 0.51001 16.31C0.51001 7.47 7.67001 0.309998 16.51 0.309998C25.35 0.309998 32.51 7.47 32.51 16.31C32.51 25.15 25.35 32.31 16.51 32.31ZM25.28 10.81L24.48 11.62C25.12 12.63 25.31 13.9 24.88 15.11C24.15 17.17 21.9 18.26 19.86 17.52C19.57 17.41 19.3 17.28 19.06 17.11L16.5 19.7L14.27 17.42C13.21 18.14 11.87 18.31 10.66 17.88C8.55 17.1 7.47001 14.77 8.23001 12.66C8.34001 12.33 8.49999 12.03 8.67999 11.76L7.72 10.78L7.54001 11.09C6.53001 12.76 6 14.68 6 16.63C5.98 22.5 10.7 27.3 16.48 27.3H16.5C22.28 27.3 26.98 22.54 27 16.67C27 14.72 26.47 12.81 25.48 11.13L25.28 10.8V10.81ZM9.87 12.96C9.59 13.34 9.42999 13.81 9.42999 14.28C9.42999 15.47 10.39 16.45 11.57 16.45C12.06 16.45 12.51 16.29 12.88 15.99L9.87 12.96ZM20.37 15.82C20.71 16.06 21.11 16.19 21.57 16.19C22.75 16.19 23.71 15.21 23.71 14.02C23.71 13.58 23.58 13.16 23.35 12.81L20.38 15.83L20.37 15.82ZM16.54 18.1L25.1 9.45L24.77 9.08C22.65 6.69 19.62 5.32 16.43 5.31H16.41C13.27 5.31 10.35 6.59999 8.20999 8.89999L7.87 9.26999L16.54 18.1ZM9.29001 9.26999C11.19 7.38999 13.76 6.32999 16.44 6.34999H16.46C19.18 6.34999 21.79 7.47 23.71 9.42L16.55 16.65L9.29999 9.26999H9.29001Z" fill="#213147"/>
</svg>
