<svg width="32" height="32" viewBox="0 0 32 32" fill="none" xmlns="http://www.w3.org/2000/svg">
<path fill-rule="evenodd" clip-rule="evenodd" d="M16 32C7.16 32 0 24.84 0 16C0 7.16 7.16 0 16 0C24.84 0 32 7.16 32 16C32 24.84 24.84 32 16 32ZM24.77 10.5L23.97 11.31C24.61 12.32 24.8 13.59 24.37 14.8C23.64 16.86 21.39 17.95 19.35 17.21C19.06 17.1 18.79 16.97 18.55 16.8L15.99 19.39L13.76 17.11C12.7 17.83 11.36 18 10.15 17.57C8.03999 16.79 6.96 14.46 7.72 12.35C7.83 12.02 7.98998 11.72 8.16998 11.45L7.20999 10.47L7.03 10.78C6.02 12.45 5.48999 14.37 5.48999 16.32C5.46999 22.19 10.19 26.99 15.97 26.99H15.99C21.77 26.99 26.47 22.23 26.49 16.36C26.49 14.41 25.96 12.5 24.97 10.82L24.77 10.49V10.5ZM9.35999 12.65C9.07999 13.03 8.91998 13.5 8.91998 13.97C8.91998 15.16 9.88 16.14 11.06 16.14C11.55 16.14 12 15.98 12.37 15.68L9.35999 12.65ZM19.86 15.51C20.2 15.75 20.6 15.88 21.06 15.88C22.24 15.88 23.2 14.9 23.2 13.71C23.2 13.27 23.07 12.85 22.84 12.5L19.87 15.52L19.86 15.51ZM16.03 17.79L24.59 9.14L24.26 8.77C22.14 6.38 19.11 5.01 15.92 5H15.9C12.76 5 9.83998 6.29 7.69998 8.59L7.35999 8.95999L16.03 17.79ZM8.78 8.95999C10.68 7.07999 13.25 6.01999 15.93 6.03999H15.95C18.67 6.03999 21.28 7.16 23.2 9.11L16.04 16.34L8.78998 8.95999H8.78Z" fill="#213147"/>
</svg>
