<svg width="33" height="32" viewBox="0 0 33 32" fill="none" xmlns="http://www.w3.org/2000/svg">
<path d="M16.58 32.01C25.4165 32.01 32.58 24.8465 32.58 16.01C32.58 7.17344 25.4165 0.00999451 16.58 0.00999451C7.74343 0.00999451 0.579987 7.17344 0.579987 16.01C0.579987 24.8465 7.74343 32.01 16.58 32.01Z" fill="#33453D"/>
<path d="M17.82 8.01999H10.96V12.49H8.92001V13.64C8.92001 14.42 9.55 15.06 10.34 15.06H10.96V16.97H10.34C9.56 16.97 8.92001 17.6 8.92001 18.39V19.54H10.96V24.07H17.82C22.25 24.07 25.84 20.48 25.84 16.05C25.84 11.62 22.25 8.03 17.82 8.03V8.01999ZM17.83 21.54H13.52V19.53H18.39C19.81 19.53 20.96 18.38 20.96 16.96H13.52V15.05H20.96C20.96 13.63 19.81 12.48 18.39 12.48H13.52V10.54H17.83C20.87 10.54 23.33 13 23.33 16.04C23.33 19.08 20.87 21.54 17.83 21.54Z" fill="#F7C04B"/>
</svg>
