<svg width="33" height="33" viewBox="0 0 33 33" fill="none" xmlns="http://www.w3.org/2000/svg">
<path d="M17.69 10.85H13.38V12.79H18.25C19.67 12.79 20.82 13.94 20.82 15.36H13.38V17.27H20.82C20.82 18.69 19.67 19.84 18.25 19.84H13.38V21.85H17.69C20.73 21.85 23.19 19.39 23.19 16.35C23.19 13.31 20.73 10.85 17.69 10.85Z" fill="#213147"/>
<path d="M16.44 0.309998C7.6 0.309998 0.440002 7.47 0.440002 16.31C0.440002 25.15 7.6 32.31 16.44 32.31C25.28 32.31 32.44 25.15 32.44 16.31C32.44 7.47 25.28 0.309998 16.44 0.309998ZM17.67 24.36H10.81V19.83H8.76999V18.68C8.76999 17.9 9.4 17.26 10.19 17.26H10.81V15.35H10.19C9.41 15.35 8.76999 14.72 8.76999 13.93V12.78H10.81V8.31H17.67C22.1 8.31 25.69 11.9 25.69 16.33C25.69 20.76 22.1 24.35 17.67 24.35V24.36Z" fill="#213147"/>
</svg>
