<svg width="32" height="33" viewBox="0 0 32 33" fill="none" xmlns="http://www.w3.org/2000/svg">
<path d="M27.33 5.46H15.95V0.75C7.13999 0.78 0 7.93 0 16.75C0 25.57 7.15999 32.75 16 32.75C24.84 32.75 32 25.59 32 16.75C32 12.33 30.23 8.36 27.33 5.46Z" fill="#FFE7D4"/>
<path d="M0.449997 12.97C0.159997 14.18 0 15.44 0 16.74C0 25.58 7.15999 32.74 16 32.74C24.84 32.74 32 25.58 32 16.74C32 15.44 31.84 14.18 31.55 12.97H0.449997Z" fill="#FFCE9E"/>
<path d="M0.439987 20.51C2.12999 27.53 8.44999 32.75 15.99 32.75C23.53 32.75 29.85 27.53 31.54 20.51H0.429993H0.439987Z" fill="#FFACA1"/>
<path d="M27.33 5.46001V5.50001C29.79 7.97001 31.29 11.35 31.29 15.12C31.29 22.66 25.18 28.78 17.63 28.78C10.08 28.78 3.96999 22.67 3.96999 15.12C3.96999 8.15001 9.19999 2.39001 15.95 1.57001V0.76001C7.13999 0.79001 0 7.94001 0 16.76C0 25.58 7.15999 32.76 16 32.76C24.84 32.76 32 25.6 32 16.76C32 12.34 30.23 8.37001 27.33 5.47001V5.46001Z" fill="url(#paint0_radial_348_97)"/>
<path d="M21.65 11.06L15.96 5.46002L24.6 9.45002L21.65 11.06Z" fill="url(#paint1_linear_348_97)"/>
<path d="M27.33 5.50001V9.45001H24.6L16.01 18.04V19.72L18.03 21.74L20.3 20.26L24.28 18.83H27.09C26.12 24.08 21.52 28.07 15.98 28.07C9.74001 28.07 4.68001 23.01 4.68001 16.77C4.68001 10.53 9.72 5.49001 15.95 5.47001V1.57001C9.2 2.40001 3.97 8.15001 3.97 15.12C3.97 22.66 10.08 28.78 17.63 28.78C25.18 28.78 31.29 22.67 31.29 15.12C31.29 11.37 29.81 7.99001 27.33 5.50001Z" fill="url(#paint2_linear_348_97)"/>
<path d="M19.32 3.64002C19.32 4.00002 19.24 4.27002 19.09 4.43002C18.94 4.59002 18.73 4.67002 18.46 4.67002C18.19 4.67002 17.98 4.59002 17.83 4.43002C17.68 4.27002 17.6 4.00002 17.6 3.64002V1.52002H16.71V3.90002C16.71 4.47002 16.86 4.73002 17.17 5.03002C17.48 5.33002 17.9 5.43002 18.45 5.43002C19 5.43002 19.42 5.33002 19.72 5.03002C20.03 4.73002 20.18 4.47002 20.18 3.90002V1.52002H19.31V3.64002H19.32Z" fill="url(#paint3_linear_348_97)"/>
<path d="M23.72 3.85002L21.81 1.52002H21.08V5.36002H21.96V3.03002L23.87 5.36002H24.6V1.52002H23.72V3.85002Z" fill="url(#paint4_linear_348_97)"/>
<path d="M26.4 1.52002H25.51V5.36002H26.4V1.52002Z" fill="url(#paint5_linear_348_97)"/>
<defs>
<radialGradient id="paint0_radial_348_97" cx="0" cy="0" r="1" gradientUnits="userSpaceOnUse" gradientTransform="translate(3.08 19.05) scale(23.79 23.79)">
<stop offset="0.03" stop-color="#FF8E82"/>
<stop offset="1" stop-color="#FF007A"/>
</radialGradient>
<linearGradient id="paint1_linear_348_97" x1="31.2" y1="8.26002" x2="4.68999" y2="8.26002" gradientUnits="userSpaceOnUse">
<stop stop-color="#FF7081"/>
<stop offset="0.57" stop-color="#994F8D"/>
<stop offset="1" stop-color="#4F3796"/>
</linearGradient>
<linearGradient id="paint2_linear_348_97" x1="31.22" y1="15.17" x2="4.7" y2="15.17" gradientUnits="userSpaceOnUse">
<stop stop-color="#FF7081"/>
<stop offset="0.57" stop-color="#994F8D"/>
<stop offset="1" stop-color="#4F3796"/>
</linearGradient>
<linearGradient id="paint3_linear_348_97" x1="31.27" y1="3.47002" x2="4.74999" y2="3.47002" gradientUnits="userSpaceOnUse">
<stop stop-color="#FF7081"/>
<stop offset="0.57" stop-color="#994F8D"/>
<stop offset="1" stop-color="#4F3796"/>
</linearGradient>
<linearGradient id="paint4_linear_348_97" x1="31.27" y1="3.44002" x2="4.74997" y2="3.44002" gradientUnits="userSpaceOnUse">
<stop stop-color="#FF7081"/>
<stop offset="0.57" stop-color="#994F8D"/>
<stop offset="1" stop-color="#4F3796"/>
</linearGradient>
<linearGradient id="paint5_linear_348_97" x1="31.27" y1="3.44002" x2="4.75003" y2="3.44002" gradientUnits="userSpaceOnUse">
<stop stop-color="#FF7081"/>
<stop offset="0.57" stop-color="#994F8D"/>
<stop offset="1" stop-color="#4F3796"/>
</linearGradient>
</defs>
</svg>
