<svg width="32" height="32" viewBox="0 0 32 32" fill="none" xmlns="http://www.w3.org/2000/svg">
<mask id="mask0_66_7954" style="mask-type:luminance" maskUnits="userSpaceOnUse" x="0" y="0" width="32" height="32">
<path d="M31.34 0.679993H0.160004V31.86H31.34V0.679993Z" fill="white"/>
</mask>
<g mask="url(#mask0_66_7954)">
<path d="M15.75 31.86C24.36 31.86 31.34 24.88 31.34 16.27C31.34 7.65999 24.36 0.679993 15.75 0.679993C7.14 0.679993 0.160004 7.65999 0.160004 16.27C0.160004 24.88 7.14 31.86 15.75 31.86Z" fill="white"/>
<path d="M18.79 6.63998C15.37 6.65998 12.5 9.22999 12.12 12.63C9.55001 12.91 7.37002 14.63 6.51002 17.07C5.28002 20.57 7.11 24.4 10.61 25.63C10.85 25.72 11.1 25.79 11.36 25.85C14.97 26.67 18.57 24.41 19.39 20.79C19.45 20.54 19.49 20.28 19.52 20.02C23.07 19.64 25.7 16.55 25.51 12.99C25.32 9.42999 22.37 6.63998 18.8 6.63998H18.79ZM23.92 14.11C23.75 15.21 23.24 16.23 22.45 17.02C21.66 17.81 20.64 18.32 19.54 18.49V14.11H23.92ZM7.69002 18.55C8.03002 16.29 9.81002 14.51 12.07 14.17V18.55H7.69002ZM17.97 20.06C17.55 22.9 14.91 24.86 12.07 24.44C9.80002 24.11 8.02002 22.33 7.69002 20.06H17.97ZM18.03 14.11V18.55H13.59V14.11H18.03ZM23.92 12.59H13.64C14.06 9.74998 16.7 7.78998 19.54 8.20998C21.81 8.53998 23.59 10.32 23.92 12.59Z" fill="#26DDF9"/>
<path d="M15.75 31.86C14.69 31.86 13.64 31.75 12.61 31.54C10.62 31.13 8.72001 30.33 7.04001 29.19C4.53001 27.5 2.57001 25.12 1.39001 22.33C0.990012 21.39 0.690009 20.41 0.480009 19.4C0.0600086 17.33 0.0600086 15.19 0.480009 13.12C0.890009 11.13 1.68998 9.22999 2.82998 7.54999C4.51998 5.03999 6.9 3.07999 9.69 1.89999C10.63 1.49999 11.61 1.19999 12.62 0.989988C14.69 0.569988 16.83 0.569988 18.9 0.989988C20.89 1.39999 22.79 2.19999 24.47 3.33999C26.98 5.02999 28.94 7.40999 30.12 10.2C30.52 11.14 30.82 12.12 31.03 13.13C31.45 15.2 31.45 17.34 31.03 19.41C30.62 21.4 29.82 23.3 28.68 24.98C26.99 27.49 24.61 29.45 21.82 30.63C20.88 31.03 19.9 31.33 18.89 31.54C17.86 31.75 16.8 31.86 15.75 31.86ZM15.75 1.16999C14.73 1.16999 13.71 1.26999 12.71 1.47999C10.78 1.87999 8.94 2.64999 7.31 3.74999C4.88 5.38999 2.97999 7.69999 1.83999 10.39C1.44999 11.3 1.15999 12.25 0.959989 13.22C0.549989 15.23 0.549989 17.3 0.959989 19.31C1.35999 21.24 2.13001 23.08 3.23001 24.71C4.87001 27.14 7.17999 29.04 9.86999 30.18C10.78 30.57 11.73 30.86 12.7 31.06C14.71 31.47 16.78 31.47 18.79 31.06C20.72 30.66 22.56 29.89 24.19 28.79C26.62 27.15 28.52 24.84 29.66 22.15C30.05 21.24 30.34 20.29 30.54 19.32C30.95 17.31 30.95 15.24 30.54 13.23C30.14 11.3 29.37 9.45999 28.27 7.82999C26.63 5.39999 24.32 3.49999 21.63 2.35999C20.72 1.96999 19.77 1.67999 18.8 1.47999C17.8 1.27999 16.78 1.16999 15.76 1.16999H15.75Z" fill="#26DDF9"/>
</g>
</svg>
