<svg width="33" height="33" viewBox="0 0 33 33" fill="none" xmlns="http://www.w3.org/2000/svg">
<path d="M20.54 18.31C21.64 18.14 22.66 17.63 23.45 16.84C24.24 16.05 24.75 15.03 24.92 13.93H20.54V18.31Z" fill="#213147"/>
<path d="M19.03 13.93H14.59V18.37H19.03V13.93Z" fill="#213147"/>
<path d="M20.54 8.04C17.7 7.62 15.06 9.58001 14.64 12.42H24.92C24.59 10.15 22.81 8.37 20.54 8.04Z" fill="#213147"/>
<path d="M13.07 24.27C15.91 24.69 18.55 22.73 18.97 19.89H8.69C9.02 22.16 10.8 23.94 13.07 24.27Z" fill="#213147"/>
<path d="M13.07 13.99C10.81 14.33 9.03 16.11 8.69 18.37H13.07V13.99Z" fill="#213147"/>
<path d="M16.75 0.100006C7.91 0.100006 0.75 7.26001 0.75 16.1C0.75 24.94 7.91 32.1 16.75 32.1C25.59 32.1 32.75 24.94 32.75 16.1C32.75 7.26001 25.59 0.100006 16.75 0.100006ZM29.28 24.54C27.64 26.97 25.33 28.87 22.64 30.01C21.73 30.4 20.78 30.69 19.81 30.89C18.81 31.09 17.79 31.2 16.77 31.2C15.75 31.2 14.73 31.1 13.73 30.89C11.8 30.49 9.95999 29.72 8.32999 28.62C5.89999 26.98 3.99999 24.67 2.85999 21.98C2.46999 21.07 2.18001 20.12 1.98001 19.15C1.57001 17.14 1.57001 15.07 1.98001 13.06C2.38001 11.13 3.15 9.29 4.25 7.66C5.89 5.23 8.20001 3.33 10.89 2.19C11.8 1.8 12.75 1.51001 13.72 1.31001C15.73 0.900005 17.8 0.900005 19.81 1.31001C21.74 1.71001 23.58 2.48 25.21 3.58C27.64 5.22 29.54 7.53 30.68 10.22C31.07 11.13 31.36 12.08 31.56 13.05C31.97 15.06 31.97 17.13 31.56 19.14C31.16 21.07 30.39 22.91 29.29 24.54H29.28Z" fill="#213147"/>
<path d="M28.88 7.92001C27.29 5.57001 25.06 3.73 22.44 2.62C21.55 2.25 20.64 1.96 19.69 1.77C18.72 1.57 17.73 1.47 16.74 1.47C15.75 1.47 14.76 1.57 13.79 1.77C11.92 2.15 10.14 2.9 8.56001 3.97C6.21001 5.56 4.37002 7.79 3.26002 10.41C2.89002 11.3 2.60002 12.21 2.41002 13.16C2.01002 15.11 2.01002 17.11 2.41002 19.06C2.79002 20.93 3.54 22.71 4.61 24.29C6.2 26.64 8.43 28.48 11.05 29.59C11.93 29.96 12.85 30.25 13.8 30.44C15.75 30.84 17.75 30.84 19.7 30.44C21.57 30.06 23.35 29.31 24.93 28.24C27.28 26.65 29.12 24.42 30.23 21.8C30.6 20.91 30.89 20 31.08 19.05C31.48 17.1 31.48 15.1 31.08 13.15C30.7 11.28 29.95 9.50001 28.88 7.92001ZM20.5 19.85C20.47 20.11 20.43 20.36 20.37 20.62C19.55 24.23 15.95 26.5 12.34 25.68C12.09 25.62 11.84 25.55 11.59 25.46C8.09001 24.23 6.26 20.39 7.49 16.9C8.35 14.46 10.53 12.74 13.1 12.46C13.48 9.06001 16.35 6.49 19.77 6.47C23.34 6.47 26.29 9.26001 26.48 12.82C26.67 16.38 24.04 19.47 20.49 19.85H20.5Z" fill="#213147"/>
</svg>
