<svg width="33" height="32" viewBox="0 0 33 32" fill="none" xmlns="http://www.w3.org/2000/svg">
<path d="M16.44 32.01C25.28 32.01 32.44 24.85 32.44 16.01C32.44 7.16999 25.28 0.00999451 16.44 0.00999451C7.6 0.00999451 0.440002 7.16999 0.440002 16.01C0.440002 24.85 7.6 32.01 16.44 32.01Z" fill="#FFCC00"/>
<path d="M16.44 1.34C8.38 1.36 1.86 7.9 1.87 15.97C1.89 24.03 8.43 30.55 16.5 30.54C24.56 30.52 31.08 23.98 31.07 15.91C31.07 12.06 29.53 8.37 26.82 5.64C24.07 2.89 20.34 1.34 16.45 1.34H16.44ZM16.44 0.00999451C25.28 0.00999451 32.44 7.16999 32.44 16.01C32.44 20.25 30.75 24.32 27.75 27.32C21.5 33.57 11.37 33.57 5.12 27.32C-1.13 21.07 -1.13 10.94 5.12 4.69C8.12 1.69 12.19 0 16.43 0L16.44 0.00999451Z" fill="#003399"/>
<path d="M29.78 16.01C29.78 21.4 26.53 26.26 21.55 28.33C14.75 31.15 6.95001 27.92 4.13001 21.11C3.80001 20.3 3.54 19.47 3.37 18.61C1.93 11.39 6.62001 4.36999 13.85 2.92999C14.71 2.75999 15.58 2.67 16.45 2.67C23.8 2.67 29.77 8.61 29.78 15.97C29.78 15.98 29.78 15.99 29.78 16.01Z" fill="#003399"/>
<path d="M16.44 5.56L16.76 6.51999H17.72L16.97 7.16L17.29 8.00999L16.44 7.48L15.59 8.00999L15.91 7.16L15.16 6.51999H16.12L16.44 5.56ZM11.75 6.84L12.07 7.8H13.03L12.18 8.33L12.5 9.28999L11.75 8.75999L10.9 9.28999L11.22 8.33L10.37 7.8H11.44L11.76 6.84H11.75ZM8.23 10.25L8.55 11.21H9.62L8.77 11.74L9.09 12.7L8.24001 12.06L7.49001 12.7L7.81 11.74L6.96001 11.21H7.92L8.24001 10.25H8.23ZM21.14 6.84L21.46 7.8H22.53L21.68 8.33L22 9.28999L21.15 8.75999L20.4 9.28999L20.72 8.33L19.87 7.8H20.83L21.15 6.84H21.14ZM25.83 11.1L24.98 11.63L25.3 12.59L24.45 12.06L23.7 12.59L24.02 11.63L23.17 11.1H24.13L24.45 10.14L24.77 11.1H25.84H25.83ZM27.11 15.8L26.26 16.33L26.58 17.29L25.83 16.65L24.98 17.29L25.3 16.33L24.45 15.8H25.52L25.84 14.84L26.05 15.8H27.12H27.11ZM25.4 21.77L24.55 21.13L23.7 21.77L24.02 20.81L23.27 20.28H24.23L24.55 19.32L24.87 20.28H25.94L25.09 20.81L25.41 21.77H25.4ZM15.7 26.46L16.02 25.5L15.17 24.86H16.24L16.56 23.9L16.88 24.86H17.84L17.09 25.5L17.3 26.46L16.55 25.82L15.7 26.46ZM11 25.18L11.32 24.22L10.47 23.69H11.43L11.75 22.73L12.07 23.69H13.14L12.29 24.22L12.61 25.18L11.76 24.65L11.01 25.18H11ZM21.88 25.18L21.13 24.54L20.28 25.18L20.6 24.22L19.75 23.69H20.82L21.14 22.73L21.46 23.69H22.42L21.57 24.22L21.89 25.18H21.88ZM5.78 15.8H6.85001L7.06 14.84L7.38 15.8H8.45L7.60001 16.33L7.92 17.29L7.07001 16.76L6.32001 17.29L6.64 16.33L5.78999 15.8H5.78ZM7.48 21.77L7.8 20.81L6.95 20.28H8.02L8.34 19.32L8.66 20.28H9.62L8.87 20.81L9.19 21.77L8.34 21.13L7.49001 21.77H7.48Z" fill="#FFCC00"/>
</svg>
