<svg width="33" height="33" viewBox="0 0 33 33" fill="none" xmlns="http://www.w3.org/2000/svg">
<path d="M16.3 1.64999C8.24 1.66999 1.72 8.21 1.73 16.28C1.74 24.35 8.29 30.86 16.36 30.85C24.42 30.83 30.94 24.29 30.93 16.22C30.93 12.37 29.39 8.68 26.68 5.95C23.93 3.2 20.2 1.64999 16.31 1.64999H16.3ZM16.3 0.309998C25.14 0.309998 32.3 7.47 32.3 16.31C32.3 20.55 30.61 24.62 27.61 27.62C21.36 33.87 11.23 33.87 4.98 27.62C-1.27 21.37 -1.27 11.24 4.98 4.98999C7.98 1.98999 12.05 0.300003 16.29 0.300003L16.3 0.309998Z" fill="#213147"/>
<path d="M16.3 2.97999C15.43 2.97999 14.56 3.06999 13.7 3.23999C6.48 4.67999 1.79001 11.7 3.22001 18.92C3.39001 19.78 3.64 20.61 3.98 21.42C6.8 28.22 14.6 31.46 21.4 28.64C26.38 26.58 29.63 21.71 29.63 16.32V16.28C29.63 8.93 23.65 2.96999 16.3 2.97999ZM5.63001 16.1H6.7L6.91001 15.14L7.23 16.1H8.30001L7.45 16.63L7.77001 17.59L6.92 17.06L6.17 17.59L6.49001 16.63L5.64 16.1H5.63001ZM9.04 22.07L8.19001 21.43L7.34 22.07L7.66001 21.11L6.81 20.58H7.88001L8.2 19.62L8.52001 20.58H9.48L8.73 21.11L9.05001 22.07H9.04ZM8.62 12.05L8.94001 13.01L8.09 12.37L7.34 13.01L7.66001 12.05L6.81 11.52H7.77001L8.09 10.56L8.41001 11.52H9.48L8.63001 12.05H8.62ZM11.28 8.09999L11.6 7.14L11.92 8.09999H12.88L12.03 8.62999L12.35 9.58999L11.6 9.05999L10.75 9.58999L11.07 8.62999L10.22 8.09999H11.29H11.28ZM12.46 25.49L11.61 24.96L10.86 25.49L11.18 24.53L10.33 24H11.29L11.61 23.04L11.93 24H13L12.15 24.53L12.47 25.49H12.46ZM15.98 6.81999L16.3 5.86L16.62 6.81999H17.58L16.83 7.45999L17.15 8.30999L16.3 7.78L15.45 8.30999L15.77 7.45999L15.02 6.81999H15.98ZM17.15 26.77L16.4 26.13L15.55 26.77L15.87 25.81L15.02 25.17H16.09L16.41 24.21L16.73 25.17H17.69L16.94 25.81L17.15 26.77ZM21.74 25.49L20.99 24.85L20.14 25.49L20.46 24.53L19.61 24H20.68L21 23.04L21.32 24H22.28L21.43 24.53L21.75 25.49H21.74ZM21.52 8.62999L21.84 9.58999L20.99 9.05999L20.24 9.58999L20.56 8.62999L19.71 8.09999H20.67L20.99 7.14L21.31 8.09999H22.38L21.53 8.62999H21.52ZM23.98 11.41L24.3 10.45L24.62 11.41H25.69L24.84 11.94L25.16 12.9L24.31 12.37L23.56 12.9L23.88 11.94L23.03 11.41H23.99H23.98ZM24.94 21.11L25.26 22.07L24.41 21.43L23.56 22.07L23.88 21.11L23.13 20.58H24.09L24.41 19.62L24.73 20.58H25.8L24.95 21.11H24.94ZM26.43 17.59L25.68 16.95L24.83 17.59L25.15 16.63L24.3 16.1H25.37L25.69 15.14L25.9 16.1H26.97L26.12 16.63L26.44 17.59H26.43Z" fill="#213147"/>
</svg>
