<svg width="32" height="32" viewBox="0 0 32 32" fill="none" xmlns="http://www.w3.org/2000/svg">
<g clip-path="url(#clip0_294_256)">
<path d="M16 32C24.83 32 32 24.83 32 16C32 7.17 24.83 0 16 0C7.17 0 0 7.17 0 16C0 24.83 7.17 32 16 32Z" fill="#31CB9E"/>
<path d="M14.27 17.5L23.68 22.56C24 22.72 24.03 23.14 23.74 23.33L17.37 27.91C17.08 28.13 16.67 27.97 16.57 27.62L14.27 17.51V17.5ZM13.98 4.61001C14.36 4.35001 14.88 4.64 14.78 5.09L12.25 16L14.75 26.91C14.85 27.33 14.33 27.65 13.95 27.39L7.55 22.81C7.23 22.59 7.04001 22.2 7.04001 21.82V10.17C7.04001 9.79001 7.23 9.40002 7.55 9.18002L13.98 4.60001V4.61001ZM24.28 10.85C24.6 10.66 25.05 10.88 25.05 11.27V20.74C25.05 21.09 24.63 21.32 24.28 21.16L14.71 16.01L24.28 10.86V10.85ZM16.57 4.38001C16.63 4.03001 17.08 3.9 17.37 4.09L23.74 8.63001C24.03 8.82001 24 9.24002 23.68 9.40002L14.27 14.49L16.57 4.38001Z" fill="white"/>
</g>
<defs>
<clipPath id="clip0_294_256">
<rect width="32" height="32" fill="white"/>
</clipPath>
</defs>
</svg>
