<svg width="32" height="32" viewBox="0 0 32 32" fill="none" xmlns="http://www.w3.org/2000/svg">
<g clip-path="url(#clip0_294_254)">
<path d="M16 0C7.17 0 0 7.17 0 16C0 24.83 7.17 32 16 32C24.83 32 32 24.83 32 16C32 7.17 24.83 0 16 0ZM16.58 4.39C16.64 4.04 17.09 3.91001 17.38 4.10001L23.75 8.64C24.04 8.83 24.01 9.25 23.69 9.41L14.28 14.5L16.58 4.39ZM13.95 27.39L7.55 22.81C7.23 22.59 7.03999 22.2 7.03999 21.82V10.17C7.03999 9.79 7.23 9.39999 7.55 9.17999L13.98 4.60001C14.36 4.34001 14.88 4.63 14.78 5.08L12.25 15.99L14.75 26.9C14.85 27.32 14.33 27.64 13.95 27.38V27.39ZM23.75 23.33L17.38 27.91C17.09 28.13 16.68 27.97 16.58 27.62L14.28 17.51L23.69 22.57C24.01 22.73 24.04 23.15 23.75 23.34V23.33ZM25.06 20.74C25.06 21.09 24.64 21.32 24.29 21.16L14.72 16.01L24.29 10.86C24.61 10.67 25.06 10.89 25.06 11.28V20.75V20.74Z" fill="#213147"/>
</g>
<defs>
<clipPath id="clip0_294_254">
<rect width="32" height="32" fill="white"/>
</clipPath>
</defs>
</svg>
