<svg width="33" height="33" viewBox="0 0 33 33" fill="none" xmlns="http://www.w3.org/2000/svg">
<path d="M16.33 0.309998C7.5 0.309998 0.330002 7.48 0.330002 16.31C0.330002 25.14 7.5 32.31 16.33 32.31C25.16 32.31 32.33 25.14 32.33 16.31C32.33 7.48 25.16 0.309998 16.33 0.309998ZM16.91 4.7C16.97 4.35 17.42 4.22 17.71 4.41L24.08 8.95C24.37 9.14 24.34 9.56 24.02 9.72L14.61 14.81L16.91 4.7ZM14.28 27.7L7.88 23.12C7.56 22.9 7.37 22.51 7.37 22.13V10.48C7.37 10.1 7.56 9.70999 7.88 9.48999L14.31 4.91C14.69 4.65 15.21 4.94 15.11 5.39L12.58 16.3L15.08 27.21C15.18 27.63 14.66 27.95 14.28 27.69V27.7ZM24.08 23.64L17.71 28.22C17.42 28.44 17.01 28.28 16.91 27.93L14.61 17.82L24.02 22.88C24.34 23.04 24.37 23.46 24.08 23.65V23.64ZM25.39 21.05C25.39 21.4 24.97 21.63 24.62 21.47L15.05 16.32L24.62 11.17C24.94 10.98 25.39 11.2 25.39 11.59V21.06V21.05Z" fill="#213147"/>
</svg>
