<svg width="33" height="32" viewBox="0 0 33 32" fill="none" xmlns="http://www.w3.org/2000/svg">
<path d="M16.48 32.01C25.31 32.01 32.48 24.84 32.48 16.01C32.48 7.17999 25.31 0.00999451 16.48 0.00999451C7.65 0.00999451 0.479996 7.17999 0.479996 16.01C0.479996 24.84 7.65 32.01 16.48 32.01Z" fill="#31CB9E"/>
<path d="M14.75 17.51L24.16 22.57C24.48 22.73 24.51 23.15 24.22 23.34L17.85 27.92C17.56 28.14 17.15 27.98 17.05 27.63L14.75 17.52V17.51ZM14.46 4.62C14.84 4.36 15.36 4.65 15.26 5.1L12.73 16.01L15.23 26.92C15.33 27.34 14.81 27.66 14.43 27.4L8.03 22.82C7.71 22.6 7.52 22.21 7.52 21.83V10.18C7.52 9.8 7.71 9.41001 8.03 9.19001L14.46 4.61001V4.62ZM24.76 10.86C25.08 10.67 25.53 10.89 25.53 11.28V20.75C25.53 21.1 25.11 21.33 24.76 21.17L15.19 16.02L24.76 10.87V10.86ZM17.05 4.39001C17.11 4.04001 17.56 3.91 17.85 4.1L24.22 8.64001C24.51 8.83001 24.48 9.25001 24.16 9.41001L14.75 14.5L17.05 4.39001Z" fill="white"/>
</svg>
