<svg width="32" height="32" viewBox="0 0 32 32" fill="none" xmlns="http://www.w3.org/2000/svg">
<path d="M20.14 13.21L16.35 7.27998L12.55 13.21L16.35 15.42L20.14 13.21Z" fill="#213147"/>
<path d="M16.34 0.509979C7.73003 0.509979 0.75 7.48998 0.75 16.1C0.75 24.71 7.73003 31.69 16.34 31.69C24.95 31.69 31.93 24.71 31.93 16.1C31.93 7.48998 24.95 0.509979 16.34 0.509979ZM16.35 5.06998L21.82 13.61L16.35 16.79L10.88 13.61L16.35 5.06998ZM21.81 24.86C18.79 27.87 13.89 27.87 10.87 24.86C8.3 22.3 7.87001 18.3 9.82001 15.25L9.98999 14.98L16.33 18.67L22.67 14.98L22.84 15.25C24.79 18.3 24.36 22.3 21.79 24.86H21.81Z" fill="#213147"/>
</svg>
