<svg width="32" height="32" viewBox="0 0 32 32" fill="none" xmlns="http://www.w3.org/2000/svg">
<g clip-path="url(#clip0_297_35)">
<path d="M16 32C24.8366 32 32 24.8366 32 16C32 7.16345 24.8366 0 16 0C7.16347 0 0 7.16345 0 16C0 24.8366 7.16347 32 16 32Z" fill="#F69988"/>
<path fill-rule="evenodd" clip-rule="evenodd" d="M16.0102 4.69019L21.6241 13.4548L16.0102 16.7184L10.3964 13.4548L16.0102 4.69019ZM12.1103 13.0443L16 6.95831L19.8897 13.0443L16 15.3124L12.1103 13.0443Z" fill="white"/>
<path d="M16 18.6479L9.49326 14.8608L9.31877 15.1379C7.31749 18.2681 7.75882 22.3733 10.3964 25.0006C13.4958 28.0898 18.5247 28.0898 21.6241 25.0006C24.2617 22.3733 24.703 18.2681 22.7017 15.1379L22.5273 14.8608L16.0205 18.6479H16Z" fill="white"/>
</g>
<defs>
<clipPath id="clip0_297_35">
<rect width="32" height="32" fill="white"/>
</clipPath>
</defs>
</svg>
