<svg width="32" height="32" viewBox="0 0 32 32" fill="none" xmlns="http://www.w3.org/2000/svg">
<g clip-path="url(#clip0_297_32)">
<path d="M19.9 13.034L16.0102 6.94807L12.1103 13.034L16.0102 15.3021L19.9 13.034Z" fill="#213147"/>
<path d="M16 0C7.1636 0 0 7.16357 0 16C0 24.8364 7.1636 32 16 32C24.8365 32 32 24.8364 32 16C32 7.16357 24.8365 0 16 0ZM16.0102 4.67993L21.6241 13.4445L16.0102 16.7081L10.3964 13.4445L16.0102 4.67993ZM21.6139 24.9904C18.5144 28.0795 13.4856 28.0795 10.3861 24.9904C7.74855 22.3631 7.30726 18.2579 9.30854 15.1277L9.48299 14.8505L15.9898 18.6376L22.4965 14.8505L22.671 15.1277C24.6723 18.2579 24.2309 22.3631 21.5933 24.9904H21.6139Z" fill="#213147"/>
</g>
<defs>
<clipPath id="clip0_297_32">
<rect width="32" height="32" fill="white"/>
</clipPath>
</defs>
</svg>
