<svg width="32" height="32" viewBox="0 0 32 32" fill="none" xmlns="http://www.w3.org/2000/svg">
<path d="M16.34 31.86C24.9501 31.86 31.93 24.8801 31.93 16.27C31.93 7.65987 24.9501 0.679993 16.34 0.679993C7.72991 0.679993 0.75 7.65987 0.75 16.27C0.75 24.8801 7.72991 31.86 16.34 31.86Z" fill="#F69988"/>
<path fill-rule="evenodd" clip-rule="evenodd" d="M16.35 5.25L21.82 13.79L16.35 16.97L10.88 13.79L16.35 5.25ZM12.55 13.39L16.34 7.46L20.13 13.39L16.34 15.6L12.55 13.39Z" fill="white"/>
<path d="M16.34 18.85L9.99999 15.16L9.82998 15.43C7.87998 18.48 8.31 22.48 10.88 25.04C13.9 28.05 18.8 28.05 21.82 25.04C24.39 22.48 24.82 18.48 22.87 15.43L22.7 15.16L16.36 18.85H16.34Z" fill="white"/>
</svg>
