<svg width="32" height="32" viewBox="0 0 32 32" fill="none" xmlns="http://www.w3.org/2000/svg">
<path d="M15.81 0.509979C7.2 0.509979 0.220001 7.48998 0.220001 16.1C0.220001 24.71 7.2 31.69 15.81 31.69C24.42 31.69 31.4 24.71 31.4 16.1C31.4 7.48998 24.42 0.509979 15.81 0.509979ZM10.86 27.41L8.95001 25.5L13.42 21.03L8.95001 16.56L10.86 14.65L17.23 21.02L10.86 27.39V27.41ZM18.05 20.23L11.68 13.86L13.58 11.96L19.95 18.33L18.05 20.23ZM22.67 15.62L20.76 17.53L14.39 11.16L20.76 4.78998L22.67 6.69998L18.2 11.17L22.67 15.64V15.62Z" fill="#213147"/>
</svg>
