<svg width="32" height="32" viewBox="0 0 32 32" fill="none" xmlns="http://www.w3.org/2000/svg">
<g clip-path="url(#clip0_297_20)">
<path d="M16 0C7.16356 0 0 7.16357 0 16C0 24.8364 7.16356 32 16 32C24.8364 32 32 24.8364 32 16C32 7.16357 24.8364 0 16 0ZM10.9198 27.6074L8.9596 25.6472L13.5472 21.0597L8.9596 16.4721L10.9198 14.5119L17.4574 21.0494L10.9198 27.5869V27.6074ZM18.2989 20.2386L11.7614 13.7011L13.7113 11.7511L20.2489 18.2887L18.2989 20.2386ZM23.0404 15.5074L21.0802 17.4676L14.5427 10.9301L21.0802 4.39256L23.0404 6.35279L18.4529 10.9404L23.0404 15.5279V15.5074Z" fill="#213147"/>
</g>
<defs>
<clipPath id="clip0_297_20">
<rect width="32" height="32" fill="white"/>
</clipPath>
</defs>
</svg>
