<svg width="33" height="33" viewBox="0 0 33 33" fill="none" xmlns="http://www.w3.org/2000/svg">
<path d="M16.28 32.45C25.12 32.45 32.28 25.29 32.28 16.45C32.28 7.61001 25.12 0.450012 16.28 0.450012C7.44 0.450012 0.279999 7.61001 0.279999 16.45C0.279999 25.29 7.44 32.45 16.28 32.45Z" fill="white"/>
<path d="M16.3 2.88L13.81 4.31L7.01999 8.23L4.53 9.66V23.23L7.01999 24.66L13.87 28.58L16.36 30.01L18.85 28.58L25.57 24.66L28.06 23.23V9.66L25.57 8.23L18.78 4.31L16.29 2.88H16.3ZM9.51999 20.38V12.53L16.31 8.61L23.1 12.53V20.37L16.31 24.29L9.51999 20.37V20.38Z" fill="#3659D1"/>
</svg>
