<svg width="33" height="33" viewBox="0 0 33 33" fill="none" xmlns="http://www.w3.org/2000/svg">
<path d="M16.28 0.779999C7.44 0.779999 0.279999 7.94 0.279999 16.78C0.279999 25.62 7.44 32.78 16.28 32.78C25.12 32.78 32.28 25.62 32.28 16.78C32.28 7.94 25.12 0.779999 16.28 0.779999ZM25.58 24.99L18.86 28.91L16.37 30.34L13.88 28.91L7.03 24.99L4.53999 23.56V9.99L7.03 8.56L13.82 4.64L16.31 3.21L18.8 4.64L25.59 8.56L28.08 9.99V23.56L25.59 24.99H25.58Z" fill="#213147"/>
<path d="M9.51999 12.85V20.7L16.3 24.62L23.09 20.7V12.85L16.3 8.92999L9.51999 12.85Z" fill="#213147"/>
</svg>
