<svg width="33" height="33" viewBox="0 0 33 33" fill="none" xmlns="http://www.w3.org/2000/svg">
<path d="M31.73 21.03C30.04 26.86 25.19 31.23 19.22 32.3V27.75C20.3 27.34 21.27 26.69 22.06 25.84C22.5 25.37 22.87 24.84 23.18 24.27C23.75 23.19 24.05 21.98 24.04 20.75C24.04 16.73 21.13 15.12 18.41 13.92L17.03 13.31C15.55 12.65 14.43 12.06 14.43 11.05C14.43 9.65999 15.65 8.90999 16.79 8.90999C18.01 8.90999 18.7 9.35999 19.43 10.63L20 11.61L23.65 9.26999L23.17 8.38999C22.33 6.79999 20.92 5.57999 19.22 4.98999V0.829987C19.57 0.889987 19.92 0.969986 20.28 1.05999C20.31 1.05999 20.35 1.07999 20.39 1.07999C20.43 1.07999 20.47 1.09999 20.51 1.10999C20.52 1.10999 20.53 1.10999 20.54 1.10999C20.64 1.12999 20.73 1.15999 20.83 1.18999C29.31 3.65999 34.19 12.54 31.72 21.02L31.73 21.03Z" fill="#705ED6"/>
<path d="M19.57 20.99C19.57 22.82 17.91 23.96 16.38 23.96C14.54 23.96 13.49 22.44 13.29 21.03L13.12 19.81L8.70999 21.05L8.91 22.04C9.54 25.15 11.66 27.38 14.55 28.06V32.47C13.77 32.38 12.99 32.23 12.23 32.02C12.12 32 12.02 31.96 11.91 31.93C5.08 29.94 0.380005 23.69 0.380005 16.57V1.19C0.380005 0.839998 0.66001 0.559998 1.01001 0.559998H14.55V4.96C12.97 5.42 11.62 6.46 10.78 7.88C10.24 8.82 9.96 9.89 9.97 10.98V11.07C10.01 14.66 12.65 16.16 15.14 17.29L16.39 17.83L16.49 17.88C18.47 18.78 19.58 19.38 19.58 20.98L19.57 20.99Z" fill="#5BB2E4"/>
<path d="M24.05 20.77C24.05 22 23.76 23.2 23.19 24.29C22.89 24.86 22.51 25.38 22.07 25.86C21.28 26.7 20.31 27.36 19.23 27.77V32.34L17.95 32.45C17.95 32.45 15.21 32.53 14.55 32.45V28.06C11.66 27.39 9.53999 25.15 8.89999 22.04L8.70001 21.05L13.11 19.81L13.28 21.03C13.48 22.44 14.54 23.96 16.37 23.96C17.9 23.96 19.56 22.83 19.56 20.99C19.56 19.38 18.44 18.79 16.47 17.89L16.37 17.84L15.12 17.3C12.63 16.17 9.99001 14.67 9.95001 11.08V10.99C9.95001 9.89999 10.22 8.82999 10.76 7.88999C11.6 6.46999 12.95 5.42999 14.53 4.96999V0.559992C17.41 0.539992 17.63 0.559992 19.21 0.829992V5.00999C20.91 5.59999 22.32 6.81999 23.16 8.40999L23.64 9.28999L20 11.63L19.43 10.65C18.7 9.37999 18.01 8.92999 16.79 8.92999C15.64 8.92999 14.43 9.67999 14.43 11.07C14.43 12.08 15.56 12.67 17.03 13.33L18.41 13.94C21.14 15.13 24.04 16.74 24.04 20.77H24.05Z" fill="white"/>
</svg>
