<svg width="33" height="33" viewBox="0 0 33 33" fill="none" xmlns="http://www.w3.org/2000/svg">
<path d="M31.73 21.36C30.04 27.19 25.19 31.56 19.22 32.63V28.08C20.3 27.67 21.27 27.02 22.06 26.17C22.5 25.7 22.87 25.17 23.18 24.6C23.75 23.52 24.05 22.31 24.04 21.08C24.04 17.06 21.13 15.45 18.41 14.25L17.03 13.64C15.55 12.98 14.43 12.39 14.43 11.38C14.43 9.99002 15.65 9.24002 16.79 9.24002C18.01 9.24002 18.7 9.69001 19.43 10.96L20 11.94L23.65 9.60001L23.17 8.72002C22.33 7.13002 20.92 5.91001 19.22 5.32001V1.14001C19.57 1.20001 19.92 1.28001 20.28 1.37001C20.31 1.37001 20.35 1.39001 20.39 1.39001C20.43 1.39001 20.47 1.41001 20.51 1.42001C20.52 1.42001 20.53 1.42001 20.54 1.42001C20.64 1.44001 20.73 1.47002 20.83 1.50002C29.31 3.97002 34.19 12.85 31.72 21.33L31.73 21.36Z" fill="#213147"/>
<path d="M19.57 21.31C19.57 23.14 17.91 24.28 16.38 24.28C14.54 24.28 13.49 22.76 13.29 21.35L13.12 20.13L8.70999 21.37L8.91 22.36C9.54 25.47 11.66 27.7 14.55 28.38V32.79C13.77 32.7 12.99 32.55 12.23 32.34C12.12 32.32 12.02 32.28 11.91 32.25C5.08 30.26 0.380005 24.01 0.380005 16.89V1.52002C0.380005 1.17002 0.66001 0.890015 1.01001 0.890015H14.55V5.29002C12.97 5.75002 11.62 6.79001 10.78 8.21001C10.24 9.15001 9.96 10.22 9.97 11.31V11.4C10.01 14.99 12.65 16.49 15.14 17.62L16.39 18.16L16.49 18.21C18.47 19.11 19.58 19.71 19.58 21.31H19.57Z" fill="#213147"/>
</svg>
