<svg width="33" height="33" viewBox="0 0 33 33" fill="none" xmlns="http://www.w3.org/2000/svg">
<path d="M15.59 18.31H17.32L18.41 16.02H14.5L15.59 18.31Z" fill="#213147"/>
<path d="M12.04 16.02V18.31H13.7L12.62 16.02H12.04Z" fill="#213147"/>
<path d="M19.21 18.31H20.86V16.02H20.29L19.21 18.31Z" fill="#213147"/>
<path d="M16.56 0.779999C7.72 0.779999 0.559998 7.94 0.559998 16.78C0.559998 25.62 7.72 32.78 16.56 32.78C25.4 32.78 32.56 25.62 32.56 16.78C32.56 7.94 25.4 0.779999 16.56 0.779999ZM25.17 20.15H22.61V23.27H20.87V20.15H18.36L16.9 23.27H16.04L14.57 20.15H12.05V23.27H10.31V20.15H7.75V18.31H10.31V16.02H7.75V14.18H10.31V10.45H11.89L13.65 14.18H19.29L21.06 10.45H22.62V14.18H25.18V16.02H22.62V18.31H25.18V20.15H25.17Z" fill="#213147"/>
</svg>
