<svg width="33" height="33" viewBox="0 0 33 33" fill="none" xmlns="http://www.w3.org/2000/svg">
<path d="M16.56 32.45C25.3966 32.45 32.56 25.2866 32.56 16.45C32.56 7.61346 25.3966 0.450012 16.56 0.450012C7.72344 0.450012 0.559998 7.61346 0.559998 16.45C0.559998 25.2866 7.72344 32.45 16.56 32.45Z" fill="url(#paint0_linear_66_10847)"/>
<path d="M16.56 29.26C23.6348 29.26 29.37 23.5248 29.37 16.45C29.37 9.37525 23.6348 3.64001 16.56 3.64001C9.48523 3.64001 3.75 9.37525 3.75 16.45C3.75 23.5248 9.48523 29.26 16.56 29.26Z" stroke="url(#paint1_linear_66_10847)" stroke-width="0.75" stroke-miterlimit="5.12"/>
<path d="M25.17 17.99H22.61V15.7H25.17V13.86H22.61V10.13H21.05L19.28 13.86H13.64L11.88 10.13H10.3V13.86H7.73999V15.7H10.3V17.99H7.73999V19.83H10.3V22.95H12.04V19.83H14.56L16.03 22.95H16.89L18.35 19.83H20.86V22.95H22.6V19.83H25.16V17.99H25.17ZM18.41 15.7L17.32 17.99H15.58L14.5 15.7H18.41ZM12.04 17.99V15.7H12.62L13.7 17.99H12.04ZM19.21 17.99L20.29 15.7H20.86V17.99H19.21Z" fill="white"/>
<defs>
<linearGradient id="paint0_linear_66_10847" x1="16.5616" y1="0.453612" x2="16.5616" y2="32.4536" gradientUnits="userSpaceOnUse">
<stop stop-color="#F1A9AB"/>
<stop offset="0.21" stop-color="#EA8285"/>
<stop offset="0.52" stop-color="#E65E5F"/>
<stop offset="1" stop-color="#EB676A"/>
</linearGradient>
<linearGradient id="paint1_linear_66_10847" x1="16.5616" y1="3.20561" x2="16.5616" y2="29.6888" gradientUnits="userSpaceOnUse">
<stop stop-color="#D03B38"/>
<stop offset="1" stop-color="#EE8E90"/>
</linearGradient>
</defs>
</svg>
