<svg width="32" height="32" viewBox="0 0 32 32" fill="none" xmlns="http://www.w3.org/2000/svg">
<path d="M14.33 25.33L16.58 22.63H1.45C1.89 23.58 2.41 24.49 3.02 25.33H14.33Z" fill="#213147"/>
<path d="M1.54 22.13L11.32 10.39L19.04 19.66L21.43 16.78L28.55 25.32H28.97C30.86 22.69 31.99 19.48 31.99 15.99C32 7.16 24.84 0 16 0C7.16 0 0 7.16 0 16C0 18.17 0.44 20.24 1.22 22.13H1.54ZM21.44 6.39C23.65 6.39 25.44 8.18 25.44 10.39C25.44 12.6 23.65 14.39 21.44 14.39C19.23 14.39 17.44 12.6 17.44 10.39C17.44 8.18 19.23 6.39 21.44 6.39ZM11.33 4C12.43 4 13.33 4.89 13.33 6C13.33 7.11 12.44 8 11.33 8C10.22 8 9.33 7.11 9.33 6C9.33 4.89 10.22 4 11.33 4Z" fill="#213147"/>
<path d="M6.73 29.02C9.35 30.89 12.54 32 16 32C19.46 32 22.65 30.89 25.27 29.02H6.73Z" fill="#213147"/>
<path d="M28.61 25.83H3.39C4.17 26.83 5.06 27.74 6.06 28.53H25.94C26.93 27.74 27.83 26.83 28.61 25.83Z" fill="#213147"/>
</svg>
