<svg width="33" height="33" viewBox="0 0 33 33" fill="none" xmlns="http://www.w3.org/2000/svg">
<mask id="mask0_66_10852" style="mask-type:luminance" maskUnits="userSpaceOnUse" x="0" y="0" width="33" height="33">
<path d="M32.02 0.450012H0.019989V32.45H32.02V0.450012Z" fill="white"/>
</mask>
<g mask="url(#mask0_66_10852)">
<path d="M16.02 32.45C24.8565 32.45 32.02 25.2866 32.02 16.45C32.02 7.61346 24.8565 0.450012 16.02 0.450012C7.18343 0.450012 0.019989 7.61346 0.019989 16.45C0.019989 25.2866 7.18343 32.45 16.02 32.45Z" fill="url(#paint0_linear_66_10852)"/>
<path fill-rule="evenodd" clip-rule="evenodd" d="M11.34 10.85V22.84H21.33L11.34 10.85Z" fill="url(#paint1_linear_66_10852)"/>
<path fill-rule="evenodd" clip-rule="evenodd" d="M1.35001 22.83H11.34V10.84L1.35001 22.83Z" fill="white"/>
<path fill-rule="evenodd" clip-rule="evenodd" d="M3.20999 26.03C4.11999 27.24 5.2 28.31 6.41 29.23H25.59C26.8 28.32 27.87 27.24 28.79 26.03H3.20999Z" fill="#ED9D6F"/>
<path fill-rule="evenodd" clip-rule="evenodd" d="M6.41 29.23C12.09 33.49 19.91 33.49 25.59 29.23H6.41Z" fill="#EA445A"/>
<path fill-rule="evenodd" clip-rule="evenodd" d="M21.46 17.24V26.03H28.79L21.46 17.24Z" fill="url(#paint2_linear_66_10852)"/>
<path fill-rule="evenodd" clip-rule="evenodd" d="M21.46 22.83H1.35001C1.84001 23.96 2.46999 25.04 3.20999 26.03H21.47V22.83H21.46Z" fill="#F4BE6C"/>
<path fill-rule="evenodd" clip-rule="evenodd" d="M14.14 26.03H21.46V17.24L14.14 26.03Z" fill="white"/>
<path d="M21.46 14.85C23.6691 14.85 25.46 13.0591 25.46 10.85C25.46 8.64087 23.6691 6.85001 21.46 6.85001C19.2509 6.85001 17.46 8.64087 17.46 10.85C17.46 13.0591 19.2509 14.85 21.46 14.85Z" fill="#F6CA6E"/>
<path d="M11.34 8.45001C12.4446 8.45001 13.34 7.55458 13.34 6.45001C13.34 5.34544 12.4446 4.45001 11.34 4.45001C10.2354 4.45001 9.34 5.34544 9.34 6.45001C9.34 7.55458 10.2354 8.45001 11.34 8.45001Z" fill="#F6CA6E"/>
</g>
<defs>
<linearGradient id="paint0_linear_66_10852" x1="26.94" y1="5.52001" x2="3.89999" y2="28.56" gradientUnits="userSpaceOnUse">
<stop stop-color="#EA445A"/>
<stop offset="1" stop-color="#F4BE6C"/>
</linearGradient>
<linearGradient id="paint1_linear_66_10852" x1="16.3151" y1="11.5755" x2="16.3151" y2="23.0847" gradientUnits="userSpaceOnUse">
<stop stop-color="#9730AC"/>
<stop offset="1" stop-color="#EA445A"/>
</linearGradient>
<linearGradient id="paint2_linear_66_10852" x1="24.9414" y1="16.4458" x2="24.9414" y2="25.59" gradientUnits="userSpaceOnUse">
<stop stop-color="#9730AC"/>
<stop offset="1" stop-color="#EA445A"/>
</linearGradient>
</defs>
</svg>
