<svg width="33" height="33" viewBox="0 0 33 33" fill="none" xmlns="http://www.w3.org/2000/svg">
<path d="M16.52 0.909973C7.68 0.909973 0.520004 8.06997 0.520004 16.91C0.520004 25.75 7.68 32.91 16.52 32.91C25.36 32.91 32.52 25.75 32.52 16.91C32.52 8.06997 25.36 0.909973 16.52 0.909973ZM26.06 17.07C26.06 17.35 25.91 17.6 25.67 17.74L21.14 20.35C20.9 20.49 20.6 20.49 20.36 20.35L18.66 19.37V16.91L20.75 18.12L23.92 16.29V12.62L20.75 10.79L17.63 12.59L17.57 12.62V21.96C17.57 22.24 17.42 22.49 17.18 22.63L12.65 25.24C12.41 25.38 12.11 25.38 11.87 25.24L7.34 22.63C7.1 22.49 6.95 22.23 6.95 21.96V16.73C6.95 16.45 7.1 16.2 7.34 16.06L11.87 13.45C12.11 13.31 12.41 13.31 12.65 13.45L14.36 14.43V16.89L12.27 15.68L9.10001 17.51V21.18L12.27 23.01L15.44 21.18V11.84C15.44 11.56 15.59 11.31 15.83 11.17L20.36 8.55997C20.6 8.41997 20.9 8.41997 21.14 8.55997L25.67 11.17C25.91 11.31 26.06 11.57 26.06 11.84V17.07Z" fill="#213147"/>
</svg>
