<svg width="33" height="33" viewBox="0 0 33 33" fill="none" xmlns="http://www.w3.org/2000/svg">
<path d="M16.1 0.169983C7.26001 0.169983 0.100006 7.32998 0.100006 16.17C0.100006 25.01 7.26001 32.17 16.1 32.17C24.94 32.17 32.1 25.01 32.1 16.17C32.1 7.32998 24.94 0.169983 16.1 0.169983ZM23.08 4.43998L27.88 9.23999L25.22 11.9C24.23 9.78999 22.54 8.07999 20.44 7.07999L23.08 4.43998ZM4.39001 9.24998L9.19001 4.44999L11.8 7.05999C9.69001 8.04999 7.99001 9.74999 6.99001 11.86L4.38001 9.24998H4.39001ZM9.20001 27.93L4.40001 23.13L7.02001 20.51C8.03001 22.61 9.73001 24.31 11.84 25.29L9.20001 27.93ZM18.97 22.54L15.85 20.73C15.54 20.54 15.39 20.23 15.39 19.92V18.65L16.85 17.8V19.03C16.85 19.38 17.04 19.68 17.31 19.84L18.97 20.8C19.28 20.95 19.62 20.95 19.89 20.8L21.51 19.84C21.82 19.65 21.97 19.34 21.97 19.03V17.11C21.97 16.76 21.78 16.46 21.51 16.3L19.85 15.34C19.54 15.19 19.2 15.19 18.93 15.34L16.81 16.57L15.35 17.42L13.23 18.65C12.92 18.8 12.58 18.8 12.31 18.65L9.19001 16.84C8.88001 16.65 8.73001 16.34 8.73001 16.03V12.41C8.73001 12.1 8.88001 11.79 9.19001 11.64L12.35 9.78999C12.66 9.63999 13 9.63999 13.27 9.78999L16.35 11.6C16.66 11.79 16.81 12.1 16.81 12.41V13.72L15.35 14.57V13.3C15.35 12.95 15.16 12.65 14.89 12.49L13.23 11.49C12.92 11.34 12.58 11.34 12.31 11.49L10.65 12.45C10.34 12.64 10.19 12.95 10.19 13.26V15.18C10.19 15.53 10.38 15.83 10.65 15.99L12.31 16.99C12.62 17.14 12.96 17.14 13.23 16.99L15.35 15.72L16.81 14.91L18.97 13.64C19.28 13.49 19.62 13.49 19.89 13.64L23.01 15.45C23.32 15.64 23.47 15.95 23.47 16.26V19.92C23.47 20.27 23.28 20.57 23.01 20.73L19.89 22.54C19.58 22.69 19.24 22.69 18.97 22.54ZM23.08 27.93L20.42 25.27C22.52 24.27 24.22 22.57 25.22 20.46L27.89 23.13L23.09 27.93H23.08Z" fill="#213147"/>
</svg>
