<svg width="33" height="33" viewBox="0 0 33 33" fill="none" xmlns="http://www.w3.org/2000/svg">
<path d="M16.41 32.25C25.2466 32.25 32.41 25.0866 32.41 16.25C32.41 7.41344 25.2466 0.25 16.41 0.25C7.57345 0.25 0.410004 7.41344 0.410004 16.25C0.410004 25.0866 7.57345 32.25 16.41 32.25Z" fill="url(#paint0_linear_80_3)"/>
<path d="M20.63 19.4L24.77 17.01C24.99 16.88 25.12 16.65 25.12 16.4V11.62C25.12 11.37 24.98 11.13 24.77 11.01L20.63 8.61999C20.41 8.48999 20.14 8.48999 19.92 8.61999L15.78 11.01C15.56 11.14 15.43 11.37 15.43 11.62V20.15L12.53 21.82L9.63 20.15V16.8L12.53 15.13L14.44 16.23V13.98L12.88 13.08C12.66 12.95 12.39 12.95 12.17 13.08L8.03 15.47C7.81 15.6 7.67999 15.83 7.67999 16.08V20.85C7.67999 21.1 7.82 21.34 8.03 21.46L12.17 23.85C12.39 23.98 12.66 23.98 12.88 23.85L17.02 21.46C17.24 21.33 17.37 21.1 17.37 20.85V12.32L17.42 12.29L20.27 10.65L23.17 12.32V15.67L20.27 17.34L18.36 16.24V18.49L19.92 19.39C20.14 19.52 20.41 19.52 20.63 19.39V19.4Z" fill="white"/>
<defs>
<linearGradient id="paint0_linear_80_3" x1="0.510004" y1="6.52" x2="24.54" y2="21.23" gradientUnits="userSpaceOnUse">
<stop stop-color="#9433BD"/>
<stop offset="1" stop-color="#7342DB"/>
</linearGradient>
</defs>
</svg>
