<svg width="33" height="33" viewBox="0 0 33 33" fill="none" xmlns="http://www.w3.org/2000/svg">
<path d="M16.1 0.25C24.94 0.25 32.1 7.41 32.1 16.25C32.1 25.09 24.94 32.25 16.1 32.25C7.26001 32.25 0.100006 25.09 0.100006 16.25C0.100006 7.41 7.26001 0.25 16.1 0.25Z" fill="black"/>
<path d="M4.39001 9.32999L23.08 28.02L27.88 23.22L9.20002 4.51999L4.40002 9.31999L4.39001 9.32999Z" fill="white"/>
<path d="M9.20001 28.01L27.89 9.31999L23.09 4.51999L4.40001 23.21L9.20001 28.01Z" fill="white"/>
<path d="M16.1 6.17001C21.67 6.17001 26.18 10.68 26.18 16.25C26.18 21.82 21.67 26.33 16.1 26.33C10.53 26.33 6.02 21.82 6.02 16.25C6.02 10.68 10.53 6.17001 16.1 6.17001Z" fill="black"/>
<path d="M19.9 13.73C19.63 13.58 19.28 13.58 18.98 13.73L16.82 15L15.36 15.81L13.24 17.08C12.97 17.23 12.62 17.23 12.32 17.08L10.66 16.08C10.39 15.93 10.2 15.62 10.2 15.27V13.35C10.2 13.04 10.35 12.73 10.66 12.54L12.32 11.58C12.59 11.43 12.94 11.43 13.24 11.58L14.9 12.58C15.17 12.73 15.36 13.04 15.36 13.39V14.66L16.82 13.81V12.5C16.82 12.19 16.67 11.88 16.36 11.69L13.28 9.87999C13.01 9.72999 12.66 9.72999 12.36 9.87999L9.2 11.73C8.89 11.88 8.74001 12.19 8.74001 12.5V16.12C8.74001 16.43 8.89 16.74 9.2 16.93L12.32 18.74C12.59 18.89 12.94 18.89 13.24 18.74L15.36 17.51L16.82 16.66L18.94 15.43C19.21 15.28 19.56 15.28 19.86 15.43L21.52 16.39C21.79 16.54 21.98 16.85 21.98 17.2V19.12C21.98 19.43 21.83 19.74 21.52 19.93L19.9 20.89C19.63 21.04 19.28 21.04 18.98 20.89L17.32 19.93C17.05 19.78 16.86 19.47 16.86 19.12V17.89L15.4 18.74V20.01C15.4 20.32 15.55 20.63 15.86 20.82L18.98 22.63C19.25 22.78 19.6 22.78 19.9 22.63L23.02 20.82C23.29 20.67 23.48 20.36 23.48 20.01V16.35C23.48 16.04 23.33 15.73 23.02 15.54L19.9 13.73Z" fill="#7A4ADC"/>
</svg>
