<svg width="32" height="33" viewBox="0 0 32 33" fill="none" xmlns="http://www.w3.org/2000/svg">
<path d="M16 0.779999C7.16 0.779999 0 7.94 0 16.78C0 25.62 7.16 32.78 16 32.78C24.84 32.78 32 25.62 32 16.78C32 7.94 24.84 0.779999 16 0.779999ZM26.55 16.52C26.24 16.79 25.67 17.21 25.67 17.21C25.67 17.21 25.7 17.4 25.78 17.56C25.86 17.71 26.06 17.94 26 18.15C25.94 18.36 25.51 18.53 25.64 18.76C25.76 18.99 26.06 19.06 25.98 19.27C25.89 19.48 25.47 19.84 25.51 19.99C25.55 20.14 25.89 21.58 25.11 21.83C24.52 22.02 22.89 22.12 22.12 22.17C21.79 22.19 21.49 22.37 21.33 22.66C21.21 22.88 21.09 23.18 21.04 23.58C20.89 24.6 19.89 26.93 19.89 26.93C19.89 26.93 19.84 27.04 19.79 27.15C19.73 27.3 19.6 27.41 19.44 27.46C17.11 28.1 14.65 28.01 12.37 27.2C12.36 27.2 12.35 27.2 12.34 27.19C12.07 27.07 11.94 26.76 12.06 26.49C12.27 26.02 12.44 25.55 12.56 25.17C12.62 25.01 12.68 24.84 12.75 24.69C12.95 24.23 13.35 23.29 13.62 22.72C16.5 23.36 18.25 21.75 18.71 21.26C18.72 21.25 18.73 21.23 18.74 21.22C18.76 21.16 18.73 21.09 18.66 21.07C17.2 20.58 15.31 20.95 14.02 21.93C14.43 21.1 14.89 20.24 15.4 19.39C18.39 19.8 19.98 18.02 20.38 17.49C20.38 17.48 20.4 17.46 20.4 17.45C20.41 17.38 20.37 17.32 20.31 17.3C18.92 16.96 17.25 17.4 16.06 18.33C16.41 17.8 16.77 17.28 17.14 16.78C20.26 15.32 20.71 12.49 20.78 11.75C20.78 11.73 20.78 11.72 20.78 11.7C20.76 11.64 20.69 11.61 20.63 11.63C19.92 11.88 17.23 13.05 16.7 16.61C16.5 16.88 16.2 17.3 15.82 17.87C16.34 15.72 15.5 14.22 15.19 13.76C15.19 13.75 15.17 13.73 15.15 13.72C15.09 13.69 15.02 13.7 14.98 13.76C14.63 14.35 13.5 16.59 15.01 19.14C14.6 19.83 14.15 20.64 13.69 21.56C13.85 19.06 12.51 17.67 12.08 17.29C12.07 17.28 12.05 17.27 12.04 17.27C11.98 17.25 11.91 17.29 11.89 17.35C11.69 17.99 11.14 20.39 13.23 22.53C12.97 23.09 12.71 23.68 12.45 24.3C12.43 24.3 12.41 24.29 12.4 24.28C12.03 24.17 11.68 24.01 11.35 23.82C11.08 23.66 10.79 23.53 10.5 23.43C9.34 23.05 9.51 22.49 8.9 21.37C8.86 21.3 8.38 20.8 8.28 20.71C8.26 20.69 7.95 20.51 7.79 20.18C7.65 19.88 7.57 19.6 7.54 19.33C7.5 18.97 7.35 18.73 6.99 18.6C5.28 18.01 6.05 15.79 6.11 15.5C6.16 15.25 5.94 14.7 5.86 14.4C5.86 14.36 5.84 14.32 5.83 14.26C5.71 13.67 5.98 13.16 6.19 12.96C6.4 12.75 7.1 12.42 7.25 12.23C7.4 12.04 7.51 11.82 7.66 11.64C7.86 11.39 8.47 10.91 9.29 10.47C9.79 10.2 9.87 9.51 10.06 9.3C10.38 8.93 10.87 8.93 11.24 8.61C11.42 8.44 11.69 8.36 11.86 8.19C12.71 7.32 13.84 6.97 14.96 6.76C15.72 6.62 16.56 6.84 17.35 6.97C17.46 6.99 17.57 7.02 17.68 7.05C19.45 7.11 21.59 7.48 22.36 8.23C22.74 8.6 23.03 9.06 23.19 9.56C23.32 9.95 23.49 10.33 23.71 10.68L24.18 11.45C24.48 11.94 24.58 12.52 24.45 13.08C24.38 13.4 24.34 13.73 24.43 13.92C24.58 14.21 25.03 14.68 25.3 14.95C25.43 15.08 25.58 15.2 25.74 15.29C26.1 15.52 26.8 15.96 26.8 16C26.8 16.05 26.86 16.27 26.55 16.54V16.52Z" fill="#213147"/>
</svg>
