<svg width="32" height="32" viewBox="0 0 32 32" fill="none" xmlns="http://www.w3.org/2000/svg">
<g clip-path="url(#clip0_297_51)">
<path d="M32 16C32 7.16 24.84 0 16 0C7.16 0 0 7.17 0 16C0 24.83 7.16 32 16 32C24.84 32 32 24.84 32 16Z" fill="#5FCEF9"/>
<path d="M26.8 15.21C26.8 15.21 26.11 14.73 25.74 14.5C25.58 14.4 25.44 14.29 25.3 14.16C25.03 13.89 24.57 13.42 24.43 13.13C24.34 12.94 24.37 12.61 24.45 12.29C24.58 11.73 24.48 11.14 24.18 10.66L23.71 9.89C23.49 9.54 23.32 9.16 23.19 8.77C23.03 8.26 22.74 7.81 22.36 7.44C21.59 6.69 19.45 6.32 17.68 6.26C17.57 6.23 17.46 6.2 17.35 6.18C16.56 6.05 15.72 5.83 14.96 5.97C13.84 6.18 12.7 6.53 11.86 7.4C11.69 7.58 11.42 7.66 11.24 7.82C10.88 8.15 10.38 8.15 10.06 8.51C9.87001 8.72 9.78001 9.42 9.29001 9.68C8.47001 10.12 7.86001 10.61 7.66001 10.85C7.51001 11.04 7.39001 11.25 7.25001 11.44C7.10001 11.64 6.39001 11.97 6.19001 12.17C5.99001 12.37 5.71001 12.88 5.83001 13.47C5.84001 13.52 5.85001 13.57 5.86001 13.61C5.94001 13.91 6.16001 14.46 6.11001 14.71C6.05001 15.01 5.29001 17.22 6.99001 17.81C7.35001 17.93 7.50001 18.17 7.54001 18.54C7.57001 18.81 7.65001 19.09 7.79001 19.39C7.95001 19.72 8.25001 19.9 8.28001 19.92C8.38001 20.01 8.86001 20.51 8.90001 20.58C9.51001 21.7 9.34001 22.26 10.5 22.64C10.8 22.74 11.08 22.87 11.35 23.03C11.68 23.23 12.03 23.38 12.4 23.49C12.41 23.49 12.43 23.49 12.45 23.51C12.71 22.89 12.97 22.3 13.23 21.74C11.14 19.6 11.69 17.2 11.89 16.56C11.91 16.5 11.98 16.46 12.04 16.48C12.06 16.48 12.07 16.49 12.08 16.5C12.52 16.88 13.85 18.27 13.69 20.77C14.15 19.85 14.6 19.04 15.01 18.35C13.5 15.8 14.63 13.56 14.98 12.97C15.01 12.91 15.09 12.89 15.15 12.93C15.17 12.93 15.18 12.95 15.19 12.97C15.5 13.43 16.33 14.92 15.82 17.08C16.19 16.51 16.5 16.08 16.7 15.82C17.24 12.26 19.93 11.09 20.63 10.84C20.69 10.82 20.76 10.85 20.78 10.91C20.78 10.93 20.78 10.94 20.78 10.96C20.71 11.7 20.26 14.53 17.14 15.99C16.77 16.48 16.4 17 16.06 17.54C17.25 16.61 18.92 16.17 20.31 16.51C20.38 16.52 20.42 16.59 20.4 16.66C20.4 16.68 20.39 16.69 20.38 16.7C19.98 17.23 18.39 19.01 15.4 18.6C14.89 19.45 14.43 20.32 14.02 21.14C15.31 20.16 17.2 19.79 18.66 20.28C18.72 20.3 18.76 20.37 18.74 20.43C18.74 20.45 18.73 20.46 18.71 20.47C18.26 20.96 16.5 22.57 13.62 21.93C13.35 22.5 12.95 23.44 12.75 23.9C12.68 24.06 12.62 24.22 12.56 24.38C12.43 24.76 12.26 25.23 12.06 25.7C11.94 25.97 12.06 26.28 12.34 26.4C12.35 26.4 12.36 26.4 12.37 26.41C14.64 27.22 17.11 27.31 19.44 26.67C19.6 26.63 19.72 26.51 19.79 26.36C19.84 26.25 19.89 26.14 19.89 26.14C19.89 26.14 20.89 23.81 21.04 22.79C21.1 22.39 21.21 22.09 21.33 21.87C21.49 21.58 21.79 21.39 22.12 21.38C22.89 21.34 24.52 21.23 25.11 21.04C25.9 20.79 25.56 19.35 25.51 19.2C25.46 19.05 25.89 18.69 25.98 18.48C26.07 18.27 25.77 18.2 25.64 17.97C25.51 17.74 25.94 17.57 26 17.36C26.06 17.15 25.86 16.92 25.78 16.77C25.7 16.62 25.67 16.42 25.67 16.42C25.67 16.42 26.25 16 26.55 15.73C26.85 15.46 26.8 15.24 26.8 15.19" fill="black"/>
</g>
<defs>
<clipPath id="clip0_297_51">
<rect width="32" height="32" fill="white"/>
</clipPath>
</defs>
</svg>
