<svg width="32" height="33" viewBox="0 0 32 33" fill="none" xmlns="http://www.w3.org/2000/svg">
<path d="M32 16.45C32 7.61001 24.84 0.450012 16 0.450012C7.16 0.450012 0 7.62001 0 16.45C0 25.28 7.16 32.45 16 32.45C24.84 32.45 32 25.29 32 16.45Z" fill="#5FCEF9"/>
<path d="M26.8 15.66C26.8 15.66 26.11 15.18 25.74 14.95C25.58 14.85 25.44 14.74 25.3 14.61C25.03 14.34 24.57 13.87 24.43 13.58C24.34 13.39 24.37 13.06 24.45 12.74C24.58 12.18 24.48 11.59 24.18 11.11L23.71 10.34C23.49 9.99001 23.32 9.61001 23.19 9.22001C23.03 8.71001 22.74 8.26001 22.36 7.89001C21.59 7.14001 19.45 6.77001 17.68 6.71001C17.57 6.68001 17.46 6.65001 17.35 6.63001C16.56 6.50001 15.72 6.28001 14.96 6.42001C13.84 6.63001 12.7 6.98001 11.86 7.85001C11.69 8.03001 11.42 8.11001 11.24 8.27001C10.88 8.60001 10.38 8.60001 10.06 8.96001C9.87001 9.17001 9.78001 9.87001 9.29001 10.13C8.47001 10.57 7.86001 11.06 7.66001 11.3C7.51001 11.49 7.39001 11.7 7.25001 11.89C7.10001 12.09 6.39001 12.42 6.19001 12.62C5.99001 12.82 5.71001 13.33 5.83001 13.92C5.84001 13.97 5.85001 14.02 5.86001 14.06C5.94001 14.36 6.16001 14.91 6.11001 15.16C6.05001 15.46 5.29001 17.67 6.99001 18.26C7.35001 18.38 7.50001 18.62 7.54001 18.99C7.57001 19.26 7.65001 19.54 7.79001 19.84C7.95001 20.17 8.25001 20.35 8.28001 20.37C8.38001 20.46 8.86001 20.96 8.90001 21.03C9.51001 22.15 9.34001 22.71 10.5 23.09C10.8 23.19 11.08 23.32 11.35 23.48C11.68 23.68 12.03 23.83 12.4 23.94C12.41 23.94 12.43 23.94 12.45 23.96C12.71 23.34 12.97 22.75 13.23 22.19C11.14 20.05 11.69 17.65 11.89 17.01C11.91 16.95 11.98 16.91 12.04 16.93C12.06 16.93 12.07 16.94 12.08 16.95C12.52 17.33 13.85 18.72 13.69 21.22C14.15 20.3 14.6 19.49 15.01 18.8C13.5 16.25 14.63 14.01 14.98 13.42C15.01 13.36 15.09 13.34 15.15 13.38C15.17 13.38 15.18 13.4 15.19 13.42C15.5 13.88 16.33 15.37 15.82 17.53C16.19 16.96 16.5 16.53 16.7 16.27C17.24 12.71 19.93 11.54 20.63 11.29C20.69 11.27 20.76 11.3 20.78 11.36C20.78 11.38 20.78 11.39 20.78 11.41C20.71 12.15 20.26 14.98 17.14 16.44C16.77 16.93 16.4 17.45 16.06 17.99C17.25 17.06 18.92 16.62 20.31 16.96C20.38 16.97 20.42 17.04 20.4 17.11C20.4 17.13 20.39 17.14 20.38 17.15C19.98 17.68 18.39 19.46 15.4 19.05C14.89 19.9 14.43 20.77 14.02 21.59C15.31 20.61 17.2 20.24 18.66 20.73C18.72 20.75 18.76 20.82 18.74 20.88C18.74 20.9 18.73 20.91 18.71 20.92C18.26 21.41 16.5 23.02 13.62 22.38C13.35 22.95 12.95 23.89 12.75 24.35C12.68 24.51 12.62 24.67 12.56 24.83C12.43 25.21 12.26 25.68 12.06 26.15C11.94 26.42 12.06 26.73 12.34 26.85C12.35 26.85 12.36 26.85 12.37 26.86C14.64 27.67 17.11 27.76 19.44 27.12C19.6 27.08 19.72 26.96 19.79 26.81C19.84 26.7 19.89 26.59 19.89 26.59C19.89 26.59 20.89 24.26 21.04 23.24C21.1 22.84 21.21 22.54 21.33 22.32C21.49 22.03 21.79 21.84 22.12 21.83C22.89 21.79 24.52 21.68 25.11 21.49C25.9 21.24 25.56 19.8 25.51 19.65C25.46 19.5 25.89 19.14 25.98 18.93C26.07 18.72 25.77 18.65 25.64 18.42C25.51 18.19 25.94 18.02 26 17.81C26.06 17.6 25.86 17.37 25.78 17.22C25.7 17.07 25.67 16.87 25.67 16.87C25.67 16.87 26.25 16.45 26.55 16.18C26.85 15.91 26.8 15.69 26.8 15.64" fill="black"/>
</svg>
