<svg width="32" height="32" viewBox="0 0 32 32" fill="none" xmlns="http://www.w3.org/2000/svg">
<g clip-path="url(#clip0_297_49)">
<path d="M16 0C7.16 0 0 7.16 0 16C0 24.84 7.16 32 16 32C24.84 32 32 24.84 32 16C32 7.16 24.84 0 16 0ZM26.55 15.74C26.24 16.01 25.67 16.43 25.67 16.43C25.67 16.43 25.7 16.62 25.78 16.78C25.86 16.93 26.06 17.16 26 17.37C25.94 17.58 25.51 17.75 25.64 17.98C25.76 18.21 26.06 18.28 25.98 18.49C25.89 18.7 25.47 19.06 25.51 19.21C25.55 19.36 25.89 20.8 25.11 21.05C24.52 21.24 22.89 21.34 22.12 21.39C21.79 21.41 21.49 21.59 21.33 21.88C21.21 22.1 21.09 22.4 21.04 22.8C20.89 23.82 19.89 26.15 19.89 26.15C19.89 26.15 19.84 26.26 19.79 26.37C19.73 26.52 19.6 26.63 19.44 26.68C17.11 27.32 14.65 27.23 12.37 26.42C12.36 26.42 12.35 26.42 12.34 26.41C12.07 26.29 11.94 25.98 12.06 25.71C12.27 25.24 12.44 24.77 12.56 24.39C12.62 24.23 12.68 24.06 12.75 23.91C12.95 23.45 13.35 22.51 13.62 21.94C16.5 22.58 18.25 20.97 18.71 20.48C18.72 20.47 18.73 20.45 18.74 20.44C18.76 20.38 18.73 20.31 18.66 20.29C17.2 19.8 15.31 20.17 14.02 21.15C14.43 20.32 14.89 19.46 15.4 18.61C18.39 19.02 19.98 17.24 20.38 16.71C20.38 16.7 20.4 16.68 20.4 16.67C20.41 16.6 20.37 16.54 20.31 16.52C18.92 16.18 17.25 16.62 16.06 17.55C16.41 17.02 16.77 16.5 17.14 16C20.26 14.54 20.71 11.71 20.78 10.97C20.78 10.95 20.78 10.94 20.78 10.92C20.76 10.86 20.69 10.83 20.63 10.85C19.92 11.1 17.23 12.27 16.7 15.83C16.5 16.1 16.2 16.52 15.82 17.09C16.34 14.94 15.5 13.44 15.19 12.98C15.19 12.97 15.17 12.95 15.15 12.94C15.09 12.91 15.02 12.92 14.98 12.98C14.63 13.57 13.5 15.81 15.01 18.36C14.6 19.05 14.15 19.86 13.69 20.78C13.85 18.28 12.51 16.89 12.08 16.51C12.07 16.5 12.05 16.49 12.04 16.49C11.98 16.47 11.91 16.51 11.89 16.57C11.69 17.21 11.14 19.61 13.23 21.75C12.97 22.31 12.71 22.9 12.45 23.52C12.43 23.52 12.41 23.51 12.4 23.5C12.03 23.39 11.68 23.23 11.35 23.04C11.08 22.88 10.79 22.75 10.5 22.65C9.34 22.27 9.51 21.71 8.9 20.59C8.86 20.52 8.38 20.02 8.28 19.93C8.26 19.91 7.95 19.73 7.79 19.4C7.65 19.1 7.57 18.82 7.54 18.55C7.5 18.19 7.35 17.95 6.99 17.82C5.28 17.23 6.05 15.01 6.11 14.72C6.16 14.47 5.94 13.92 5.86 13.62C5.86 13.58 5.84 13.54 5.83 13.48C5.71 12.89 5.98 12.38 6.19 12.18C6.4 11.97 7.1 11.64 7.25 11.45C7.4 11.26 7.51 11.04 7.66 10.86C7.86 10.61 8.47 10.13 9.29 9.69C9.79 9.42 9.87 8.73 10.06 8.52C10.38 8.15 10.87 8.15 11.24 7.83C11.42 7.66 11.69 7.58 11.86 7.41C12.71 6.54 13.84 6.19 14.96 5.98C15.72 5.84 16.56 6.06 17.35 6.19C17.46 6.21 17.57 6.24 17.68 6.27C19.45 6.33 21.59 6.7 22.36 7.45C22.74 7.82 23.03 8.28 23.19 8.78C23.32 9.17 23.49 9.55 23.71 9.9L24.18 10.67C24.48 11.16 24.58 11.74 24.45 12.3C24.38 12.62 24.34 12.95 24.43 13.14C24.58 13.43 25.03 13.9 25.3 14.17C25.43 14.3 25.58 14.42 25.74 14.51C26.1 14.74 26.8 15.18 26.8 15.22C26.8 15.27 26.86 15.49 26.55 15.76V15.74Z" fill="#213147"/>
</g>
<defs>
<clipPath id="clip0_297_49">
<rect width="32" height="32" fill="white"/>
</clipPath>
</defs>
</svg>
