<svg width="33" height="33" viewBox="0 0 33 33" fill="none" xmlns="http://www.w3.org/2000/svg">
<path d="M7.64999 21.18V22.39C7.64999 23.94 8.85999 25.15 10.4 25.15C11.94 25.15 13.15 23.94 13.15 22.39L13.22 17.48C12.08 17.68 11.01 17.95 10 18.42C8.52 19.03 7.64999 20.1 7.64999 21.18Z" fill="#213147"/>
<path d="M13.15 15.46V10.01C13.15 8.46 11.94 7.25 10.4 7.25C8.85999 7.25 7.64999 8.53 7.64999 10.01V17.55C8.11999 17.15 8.66 16.88 9.19 16.61C10.46 16.07 11.81 15.67 13.15 15.47V15.46Z" fill="#213147"/>
<path d="M25.36 11.22V10.01C25.36 8.46 24.15 7.25 22.61 7.25C21.07 7.25 19.86 8.46 19.86 10.01V14.99C21 14.79 22.07 14.52 23.08 14.05C24.56 13.38 25.43 12.37 25.36 11.22Z" fill="#213147"/>
<path d="M19.93 16.94V22.39C19.93 23.94 21.14 25.15 22.68 25.15C24.22 25.15 25.43 23.94 25.43 22.39V14.85C24.96 15.25 24.42 15.52 23.89 15.79C22.62 16.33 21.27 16.73 19.93 16.93V16.94Z" fill="#213147"/>
<path d="M16.51 0.169983C7.66999 0.169983 0.509995 7.32998 0.509995 16.17C0.509995 25.01 7.66999 32.17 16.51 32.17C25.35 32.17 32.51 25.01 32.51 16.17C32.51 7.32998 25.35 0.169983 16.51 0.169983ZM27.31 22.32C27.31 24.81 25.3 26.83 22.75 26.89C20.13 26.96 18.06 24.87 17.99 22.32V17.07C17.52 17.14 17.05 17.14 16.51 17.14C15.97 17.14 15.5 17.21 15.03 17.21V22.39C15.03 24.88 13.02 26.9 10.47 26.96C7.85 27.03 5.77001 24.94 5.71001 22.39V10.01C5.78001 7.51998 7.79 5.43998 10.27 5.43998C12.89 5.36998 15.03 7.45998 15.03 10.01V15.33C15.5 15.26 15.97 15.26 16.51 15.26C17.05 15.26 17.52 15.19 17.99 15.19V10.01C18.06 7.44998 20.14 5.36998 22.69 5.36998C25.24 5.36998 27.32 7.45998 27.32 10.01V22.32H27.31Z" fill="#213147"/>
</svg>
