<svg width="33" height="33" viewBox="0 0 33 33" fill="none" xmlns="http://www.w3.org/2000/svg">
<path d="M16.51 32.25C25.3465 32.25 32.51 25.0866 32.51 16.25C32.51 7.41344 25.3465 0.25 16.51 0.25C7.67344 0.25 0.509995 7.41344 0.509995 16.25C0.509995 25.0866 7.67344 32.25 16.51 32.25Z" fill="white"/>
<path d="M22.68 5.45001C20.13 5.45001 18.05 7.54001 17.98 10.09V15.27C17.51 15.27 17.04 15.34 16.5 15.34C15.96 15.34 15.49 15.34 15.02 15.41V10.1C15.02 7.54001 12.87 5.46001 10.26 5.53001C7.77999 5.53001 5.77 7.62001 5.7 10.1V22.48C5.77 25.04 7.85001 27.12 10.46 27.05C13.01 26.98 15.02 24.96 15.02 22.48V17.3C15.49 17.3 15.96 17.23 16.5 17.23C17.04 17.23 17.51 17.23 17.98 17.16V22.41C18.05 24.97 20.13 27.05 22.74 26.98C25.29 26.91 27.3 24.89 27.3 22.41V10.1C27.3 7.54001 25.22 5.46001 22.67 5.46001L22.68 5.45001ZM10.4 7.34001C11.94 7.34001 13.15 8.55001 13.15 10.1V15.55C11.81 15.75 10.47 16.16 9.19 16.69C8.65 16.96 8.11999 17.23 7.64999 17.63V10.09C7.64999 8.61001 8.85999 7.33001 10.4 7.33001V7.34001ZM13.15 22.47C13.15 24.02 11.94 25.23 10.4 25.23C8.85999 25.23 7.64999 24.02 7.64999 22.47V21.26C7.64999 20.18 8.52 19.11 10 18.5C11.01 18.03 12.08 17.76 13.22 17.56L13.15 22.47ZM22.68 25.23C21.14 25.23 19.93 24.02 19.93 22.47V17.02C21.27 16.82 22.61 16.41 23.89 15.88C24.43 15.61 24.96 15.34 25.43 14.94V22.48C25.43 24.03 24.16 25.24 22.68 25.24V25.23ZM23.08 14.13C22.07 14.6 21 14.87 19.86 15.07V10.09C19.86 8.54001 21.07 7.33001 22.61 7.33001C24.15 7.33001 25.36 8.54001 25.36 10.09V11.3C25.43 12.44 24.56 13.45 23.08 14.13Z" fill="url(#paint0_linear_80_12)"/>
<defs>
<linearGradient id="paint0_linear_80_12" x1="21.91" y1="10.87" x2="6.97" y2="25.76" gradientUnits="userSpaceOnUse">
<stop stop-color="#6AE4A6"/>
<stop offset="1" stop-color="#4DA9E2"/>
</linearGradient>
</defs>
</svg>
