<svg width="33" height="33" viewBox="0 0 33 33" fill="none" xmlns="http://www.w3.org/2000/svg">
<path d="M16.72 32.1C25.5566 32.1 32.72 24.9365 32.72 16.1C32.72 7.26342 25.5566 0.0999756 16.72 0.0999756C7.88344 0.0999756 0.720001 7.26342 0.720001 16.1C0.720001 24.9365 7.88344 32.1 16.72 32.1Z" fill="#E93431"/>
<path d="M12.06 20.35C11.11 20.35 10.33 20.13 9.72 19.68C9.12 19.22 8.82001 18.58 8.82001 17.73C8.82001 17.55 8.84 17.34 8.88 17.08C8.98 16.5 9.13001 15.81 9.32001 15C9.86001 12.8 11.27 11.7 13.54 11.7C14.16 11.7 14.71 11.8 15.2 12.01C15.69 12.21 16.07 12.51 16.35 12.92C16.63 13.32 16.77 13.8 16.77 14.36C16.77 14.53 16.75 14.74 16.71 15C16.59 15.71 16.45 16.41 16.28 17.08C16 18.18 15.52 19 14.83 19.54C14.14 20.08 13.22 20.34 12.07 20.34L12.06 20.35ZM12.23 18.62C12.68 18.62 13.06 18.49 13.37 18.22C13.69 17.96 13.92 17.55 14.05 17.01C14.23 16.26 14.37 15.6 14.47 15.04C14.5 14.87 14.52 14.7 14.52 14.52C14.52 13.79 14.14 13.43 13.38 13.43C12.93 13.43 12.55 13.56 12.23 13.83C11.92 14.09 11.69 14.5 11.56 15.04C11.42 15.58 11.27 16.23 11.13 17.01C11.1 17.17 11.08 17.34 11.08 17.51C11.08 18.25 11.46 18.61 12.23 18.61V18.62ZM17.32 20.23C17.23 20.23 17.16 20.2 17.12 20.15C17.08 20.09 17.07 20.01 17.08 19.93L18.74 12.12C18.76 12.03 18.8 11.96 18.87 11.9C18.94 11.84 19.02 11.82 19.1 11.82H22.29C23.18 11.82 23.89 12 24.43 12.37C24.97 12.74 25.25 13.27 25.25 13.97C25.25 14.17 25.23 14.38 25.18 14.59C24.98 15.51 24.58 16.19 23.97 16.63C23.37 17.07 22.54 17.29 21.5 17.29H19.88L19.33 19.92C19.31 20.01 19.27 20.08 19.2 20.14C19.13 20.2 19.05 20.22 18.97 20.22H17.34L17.32 20.23ZM21.57 15.64C21.91 15.64 22.2 15.55 22.45 15.36C22.71 15.18 22.87 14.91 22.95 14.57C22.97 14.43 22.99 14.31 22.99 14.21C22.99 13.98 22.92 13.8 22.79 13.68C22.65 13.55 22.42 13.49 22.09 13.49H20.65L20.19 15.64H21.57Z" fill="white"/>
</svg>
