<svg width="33" height="33" viewBox="0 0 33 33" fill="none" xmlns="http://www.w3.org/2000/svg">
<path d="M22.08 13.54H20.64L20.18 15.69H21.56C21.9 15.69 22.19 15.6 22.44 15.41C22.7 15.23 22.86 14.96 22.94 14.62C22.96 14.48 22.98 14.36 22.98 14.26C22.98 14.03 22.91 13.85 22.78 13.73C22.64 13.6 22.41 13.54 22.08 13.54Z" fill="#213147"/>
<path d="M13.38 13.48C12.93 13.48 12.55 13.61 12.23 13.88C11.92 14.14 11.69 14.55 11.56 15.09C11.42 15.63 11.27 16.28 11.13 17.06C11.1 17.22 11.08 17.39 11.08 17.56C11.08 18.3 11.46 18.66 12.23 18.66C12.68 18.66 13.06 18.53 13.37 18.26C13.69 18 13.92 17.59 14.05 17.05C14.23 16.3 14.37 15.64 14.47 15.08C14.5 14.91 14.52 14.74 14.52 14.56C14.52 13.83 14.14 13.47 13.38 13.47V13.48Z" fill="#213147"/>
<path d="M16.72 0.140015C7.88 0.140015 0.720001 7.30001 0.720001 16.14C0.720001 24.98 7.88 32.14 16.72 32.14C25.56 32.14 32.72 24.98 32.72 16.14C32.72 7.30001 25.56 0.140015 16.72 0.140015ZM16.7 15.05C16.58 15.76 16.44 16.46 16.27 17.13C15.99 18.23 15.51 19.05 14.82 19.59C14.13 20.13 13.21 20.39 12.06 20.39C11.11 20.39 10.33 20.17 9.72 19.72C9.12 19.26 8.82001 18.62 8.82001 17.77C8.82001 17.59 8.84 17.38 8.88 17.12C8.98 16.54 9.13001 15.85 9.32001 15.04C9.86001 12.84 11.27 11.74 13.54 11.74C14.16 11.74 14.71 11.84 15.2 12.05C15.69 12.25 16.07 12.55 16.35 12.96C16.63 13.36 16.77 13.84 16.77 14.4C16.77 14.57 16.75 14.78 16.71 15.04L16.7 15.05ZM25.17 14.64C24.97 15.56 24.57 16.24 23.96 16.68C23.36 17.12 22.53 17.34 21.49 17.34H19.87L19.32 19.97C19.3 20.06 19.26 20.13 19.19 20.19C19.12 20.25 19.04 20.27 18.96 20.27H17.33C17.24 20.27 17.17 20.24 17.13 20.19C17.09 20.13 17.08 20.05 17.09 19.97L18.75 12.16C18.77 12.07 18.81 12 18.88 11.94C18.95 11.88 19.03 11.86 19.11 11.86H22.3C23.19 11.86 23.9 12.04 24.44 12.41C24.98 12.78 25.26 13.31 25.26 14.01C25.26 14.21 25.24 14.42 25.19 14.63L25.17 14.64Z" fill="#213147"/>
</svg>
