<svg width="32" height="32" viewBox="0 0 32 32" fill="none" xmlns="http://www.w3.org/2000/svg">
<g clip-path="url(#clip0_298_1033)">
<path d="M16 32C24.8366 32 32 24.8366 32 16C32 7.16344 24.8366 0 16 0C7.16344 0 0 7.16344 0 16C0 24.8366 7.16344 32 16 32Z" fill="white"/>
<path d="M16.21 18.0901L27.08 23.4101L16.21 28.9601V18.0901Z" fill="url(#paint0_linear_298_1033)"/>
<path d="M22.6 14.8999L27.09 23.4199L16.22 18.0999L22.61 14.9099L22.6 14.8999Z" fill="url(#paint1_linear_298_1033)"/>
<path d="M16.21 18.0899V2.65991L9.82001 14.8999L16.21 18.0899Z" fill="url(#paint2_linear_298_1033)"/>
<path d="M16.21 18.0899V2.65991L22.6 14.8999L16.21 18.0899Z" fill="url(#paint3_linear_298_1033)"/>
<path d="M16.21 28.9701L5.34003 23.4201L16.21 18.1001V28.9701Z" fill="url(#paint4_linear_298_1033)"/>
<path d="M9.82998 14.8999L16.22 18.0899L5.34998 23.4099L9.83998 14.8899L9.82998 14.8999Z" fill="url(#paint5_linear_298_1033)"/>
</g>
<defs>
<linearGradient id="paint0_linear_298_1033" x1="20.75" y1="24.1501" x2="22.83" y2="28.8701" gradientUnits="userSpaceOnUse">
<stop stop-color="#5C76E5"/>
<stop offset="1" stop-color="#8AA4F7"/>
</linearGradient>
<linearGradient id="paint1_linear_298_1033" x1="21.41" y1="21.0299" x2="29.9" y2="11.6699" gradientUnits="userSpaceOnUse">
<stop stop-color="#5DB2F8"/>
<stop offset="1" stop-color="#6462F3"/>
</linearGradient>
<linearGradient id="paint2_linear_298_1033" x1="17.65" y1="10.3799" x2="12.05" y2="10.3799" gradientUnits="userSpaceOnUse">
<stop stop-color="#675CF1"/>
<stop offset="1" stop-color="#5D97F5"/>
</linearGradient>
<linearGradient id="paint3_linear_298_1033" x1="18.07" y1="12.1099" x2="22.06" y2="15.8699" gradientUnits="userSpaceOnUse">
<stop stop-color="#5C76E5"/>
<stop offset="1" stop-color="#8AA4F7"/>
</linearGradient>
<linearGradient id="paint4_linear_298_1033" x1="7.91003" y1="19.3501" x2="19.02" y2="24.9501" gradientUnits="userSpaceOnUse">
<stop stop-color="#6CC3F9"/>
<stop offset="1" stop-color="#13234D"/>
</linearGradient>
<linearGradient id="paint5_linear_298_1033" x1="10.96" y1="20.1999" x2="12.16" y2="16.6099" gradientUnits="userSpaceOnUse">
<stop stop-color="#66ADE4"/>
<stop offset="1" stop-color="#707E98"/>
</linearGradient>
<clipPath id="clip0_298_1033">
<rect width="32" height="32" fill="white"/>
</clipPath>
</defs>
</svg>
