<svg width="33" height="33" viewBox="0 0 33 33" fill="none" xmlns="http://www.w3.org/2000/svg">
<path d="M16.3 32.25C25.1366 32.25 32.3 25.0866 32.3 16.25C32.3 7.41344 25.1366 0.25 16.3 0.25C7.46345 0.25 0.300003 7.41344 0.300003 16.25C0.300003 25.0866 7.46345 32.25 16.3 32.25Z" fill="white"/>
<path fill-rule="evenodd" clip-rule="evenodd" d="M11.03 7.94003C11.48 7.42003 11.9 6.98003 12.29 6.61003C5.60999 6.39003 7.54999 11.26 5.36999 16.21C2.85999 21.91 5.66999 24.08 9.83999 24.76C9.25999 24.06 8.77999 23.27 8.42999 22.43C5.71999 18.99 6.81 12.74 11.02 7.94003" fill="#B8D053"/>
<path fill-rule="evenodd" clip-rule="evenodd" d="M27.11 14.01C26.49 15.78 25.35 17.76 23.73 19.71C22.58 21.13 21.19 22.34 19.63 23.29C17.96 24.38 15.89 25.02 13.58 25.02C12.33 25.03 11.08 24.94 9.84 24.76C10.53 25.59 11.38 26.26 12.34 26.73C18.38 29.67 18.76 24.21 25.16 21.43C28.75 19.87 28.76 16.82 27.1 14.01" fill="#4192D2"/>
<path fill-rule="evenodd" clip-rule="evenodd" d="M19.63 8.32001C20.51 8.47001 21.35 8.78001 22.12 9.21001C24.15 10.37 26 12.14 27.1 14.01C28.19 10.92 27.68 8.49002 25.3 8.05002C22.68 7.57002 20.64 7.41002 18.67 6.03002C16.25 4.33002 14.12 4.89002 12.28 6.61002C12.41 6.61002 12.54 6.62002 12.68 6.63002C15.24 6.78002 17.68 7.28001 19.62 8.32001" fill="#ECE74E"/>
<path fill-rule="evenodd" clip-rule="evenodd" d="M11.03 7.94002C6.82 12.74 5.73 19 8.44 22.43C7.22 19.55 7.31 15.97 9.02 13.1C11.3 9.29002 15.88 7.62002 19.63 8.32002C17.68 7.28002 15.24 6.78002 12.69 6.63002C12.55 6.63002 12.42 6.62002 12.29 6.61002C11.89 6.98002 11.48 7.42002 11.03 7.94002Z" fill="#6DB558"/>
<path fill-rule="evenodd" clip-rule="evenodd" d="M22.13 9.21001C21.35 8.78001 20.51 8.47001 19.64 8.32001C22.2 9.68001 23.91 11.97 23.89 15.62C23.87 18.79 22.25 21.58 19.64 23.29C21.2 22.34 22.58 21.13 23.74 19.71C25.35 17.76 26.49 15.78 27.12 14.01C26.01 12.13 24.17 10.36 22.14 9.21001" fill="#398160"/>
<path fill-rule="evenodd" clip-rule="evenodd" d="M19.21 21.55C16.33 23.42 12.48 22.59 10.61 19.71C10.61 19.71 10.6 19.69 10.59 19.68C8.72 16.78 9.65 13.03 12.45 11.03C15.58 8.79 19.6 9.67 21.07 12.9C22.5 16.05 22.1 19.68 19.21 21.55ZM19.64 8.32001C15.88 7.63001 11.31 9.29001 9.03 13.1C7.32 15.96 7.23 19.55 8.45 22.43C8.8 23.27 9.28001 24.06 9.86001 24.76C11.1 24.95 12.34 25.03 13.59 25.02C15.9 25.02 17.97 24.38 19.64 23.29C22.25 21.59 23.87 18.79 23.89 15.62C23.91 11.97 22.2 9.68001 19.64 8.32001Z" fill="#205026"/>
</svg>
