<svg width="32" height="32" viewBox="0 0 32 32" fill="none" xmlns="http://www.w3.org/2000/svg">
<g clip-path="url(#clip0_298_345)">
<path d="M16 32C24.8366 32 32 24.8366 32 16C32 7.16344 24.8366 0 16 0C7.16344 0 0 7.16344 0 16C0 24.8366 7.16344 32 16 32Z" fill="white"/>
<path fill-rule="evenodd" clip-rule="evenodd" d="M10.73 7.69003C11.18 7.17003 11.6 6.73003 11.99 6.36003C5.30998 6.14003 7.24999 11.01 5.06999 15.96C2.55999 21.66 5.36999 23.83 9.53999 24.51C8.95999 23.81 8.47998 23.02 8.12998 22.18C5.41998 18.74 6.51 12.49 10.72 7.69003" fill="#B8D053"/>
<path fill-rule="evenodd" clip-rule="evenodd" d="M26.81 13.76C26.19 15.53 25.05 17.51 23.43 19.46C22.28 20.88 20.89 22.09 19.33 23.04C17.66 24.13 15.59 24.77 13.28 24.77C12.03 24.78 10.78 24.69 9.53999 24.51C10.23 25.34 11.08 26.01 12.04 26.48C18.08 29.42 18.46 23.96 24.86 21.18C28.45 19.62 28.46 16.57 26.8 13.76" fill="#4192D2"/>
<path fill-rule="evenodd" clip-rule="evenodd" d="M19.33 8.07001C20.21 8.22001 21.05 8.53001 21.82 8.96001C23.85 10.12 25.7 11.89 26.8 13.76C27.89 10.67 27.38 8.24002 25 7.80002C22.38 7.32002 20.34 7.16001 18.37 5.78001C15.95 4.08001 13.82 4.64001 11.98 6.36001C12.11 6.36001 12.24 6.37002 12.38 6.38002C14.94 6.53002 17.38 7.03001 19.32 8.07001" fill="#ECE74E"/>
<path fill-rule="evenodd" clip-rule="evenodd" d="M10.73 7.69003C6.51999 12.49 5.43 18.75 8.14 22.18C6.92 19.3 7.01 15.72 8.72 12.85C11 9.04002 15.58 7.37001 19.33 8.07001C17.38 7.03001 14.94 6.53002 12.39 6.38002C12.25 6.38002 12.12 6.37003 11.99 6.36003C11.59 6.73003 11.18 7.17003 10.73 7.69003Z" fill="#6DB558"/>
<path fill-rule="evenodd" clip-rule="evenodd" d="M21.83 8.96001C21.05 8.53001 20.21 8.22001 19.34 8.07001C21.9 9.43001 23.61 11.72 23.59 15.37C23.57 18.54 21.95 21.33 19.34 23.04C20.9 22.09 22.28 20.88 23.44 19.46C25.05 17.51 26.19 15.53 26.82 13.76C25.71 11.88 23.87 10.11 21.84 8.96001" fill="#398160"/>
<path fill-rule="evenodd" clip-rule="evenodd" d="M18.91 21.3C16.03 23.17 12.18 22.34 10.31 19.46C10.31 19.46 10.3 19.44 10.29 19.43C8.42 16.53 9.35 12.78 12.15 10.78C15.28 8.54 19.3 9.42001 20.77 12.65C22.2 15.8 21.8 19.43 18.91 21.3ZM19.34 8.07001C15.58 7.38001 11.01 9.04001 8.73 12.85C7.02 15.71 6.93 19.3 8.15 22.18C8.5 23.02 8.98 23.81 9.56 24.51C10.8 24.7 12.04 24.78 13.29 24.77C15.6 24.77 17.67 24.13 19.34 23.04C21.95 21.34 23.57 18.54 23.59 15.37C23.61 11.72 21.9 9.43001 19.34 8.07001Z" fill="#205026"/>
</g>
<defs>
<clipPath id="clip0_298_345">
<rect width="32" height="32" fill="white"/>
</clipPath>
</defs>
</svg>
