<svg width="33" height="33" viewBox="0 0 33 33" fill="none" xmlns="http://www.w3.org/2000/svg">
<path d="M23.88 15.54C23.88 15.59 23.88 15.65 23.87 15.7C23.87 15.65 23.88 15.59 23.88 15.54Z" fill="#213147"/>
<path d="M12.45 10.95C9.65 12.96 8.72 16.7 10.59 19.6C10.59 19.6 10.6 19.62 10.61 19.63C12.48 22.51 16.33 23.34 19.21 21.47C22.1 19.6 22.5 15.96 21.07 12.82C19.6 9.59 15.59 8.71 12.45 10.95Z" fill="#213147"/>
<path d="M16.3 0.169983C7.46 0.169983 0.300003 7.32998 0.300003 16.17C0.300003 25.01 7.46 32.17 16.3 32.17C25.14 32.17 32.3 25.01 32.3 16.17C32.3 7.32998 25.14 0.169983 16.3 0.169983ZM25.17 21.35C18.78 24.13 18.4 29.6 12.35 26.65C11.39 26.18 10.54 25.5 9.85001 24.68C5.67001 24 2.87 21.83 5.38 16.13C7.56 11.18 5.61 6.30998 12.3 6.52998C14.14 4.80998 16.27 4.24999 18.69 5.94999C20.66 7.32999 22.7 7.48999 25.32 7.96999C27.7 8.40999 28.21 10.84 27.12 13.93C28.78 16.74 28.77 19.79 25.18 21.35H25.17Z" fill="#213147"/>
</svg>
