<svg width="32" height="32" viewBox="0 0 32 32" fill="none" xmlns="http://www.w3.org/2000/svg">
<g clip-path="url(#clip0_298_343)">
<path d="M23.58 15.37C23.58 15.42 23.58 15.48 23.57 15.53C23.57 15.48 23.58 15.42 23.58 15.37Z" fill="#213147"/>
<path d="M12.15 10.78C9.34999 12.79 8.41999 16.53 10.29 19.43C10.29 19.43 10.3 19.45 10.31 19.46C12.18 22.34 16.03 23.17 18.91 21.3C21.8 19.43 22.2 15.79 20.77 12.65C19.3 9.42 15.29 8.54 12.15 10.78Z" fill="#213147"/>
<path d="M16 0C7.16 0 0 7.16 0 16C0 24.84 7.16 32 16 32C24.84 32 32 24.84 32 16C32 7.16 24.84 0 16 0ZM24.87 21.18C18.48 23.96 18.1 29.43 12.05 26.48C11.09 26.01 10.24 25.33 9.55 24.51C5.37 23.83 2.57 21.66 5.08 15.96C7.26 11.01 5.31 6.14 12 6.36C13.84 4.64 15.97 4.08 18.39 5.78C20.36 7.16 22.4 7.32 25.02 7.8C27.4 8.24 27.91 10.67 26.82 13.76C28.48 16.57 28.47 19.62 24.88 21.18H24.87Z" fill="#213147"/>
</g>
<defs>
<clipPath id="clip0_298_343">
<rect width="32" height="32" fill="white"/>
</clipPath>
</defs>
</svg>
