<svg width="33" height="33" viewBox="0 0 33 33" fill="none" xmlns="http://www.w3.org/2000/svg">
<path d="M19.47 8.40002H14.22L13.94 10.21L19.34 10.23C20.85 10.23 22.1 11.48 22.1 12.99C22.1 14.51 20.86 15.75 19.34 15.75H13.05L11.82 23.68H14.92L15.73 18.62C15.84 18 16.37 17.54 17 17.54H19.38C21.89 17.54 23.99 15.58 24.07 13.08C24.13 10.51 22.05 8.39001 19.48 8.39001L19.47 8.40002Z" fill="#213147"/>
<path d="M20.28 12.99C20.28 12.47 19.86 12.05 19.34 12.05L13.64 12.03L13.34 13.94H19.35C19.87 13.94 20.29 13.52 20.29 13L20.28 12.99Z" fill="#213147"/>
<path d="M16.81 0.140015C7.97 0.140015 0.809998 7.30001 0.809998 16.14C0.809998 24.98 7.97 32.14 16.81 32.14C25.65 32.14 32.81 24.98 32.81 16.14C32.81 7.30001 25.65 0.140015 16.81 0.140015ZM19.45 19.39H17.47L16.66 24.43C16.55 25.05 16.02 25.51 15.39 25.51H11.16C11.09 25.51 11.03 25.51 10.96 25.49C10.26 25.38 9.78001 24.73 9.89001 24.03L10.04 23.05L10.32 21.22L11.19 15.72H9.57999C9.08999 15.72 8.67001 15.3 8.67001 14.81C8.67001 14.32 9.07999 13.9 9.57999 13.9H11.47L11.49 13.77L11.77 12.01H10.16C9.67 11.99 9.25 11.59 9.25 11.08C9.25 10.57 9.66 10.17 10.16 10.17H12.05V10.15L12.45 7.60001C12.54 6.98001 13.09 6.52002 13.72 6.52002H19.35C22.86 6.52002 25.81 9.30002 25.87 12.83C25.93 16.42 23.02 19.37 19.45 19.37V19.39Z" fill="#213147"/>
</svg>
