<svg width="33" height="33" viewBox="0 0 33 33" fill="none" xmlns="http://www.w3.org/2000/svg">
<path d="M16.81 32.1C25.65 32.1 32.81 24.94 32.81 16.1C32.81 7.25998 25.65 0.0999756 16.81 0.0999756C7.97 0.0999756 0.809998 7.25998 0.809998 16.1C0.809998 24.94 7.97 32.1 16.81 32.1Z" fill="#306FEA"/>
<path d="M19.35 6.5H13.72C13.1 6.5 12.55 6.95 12.45 7.58L12.05 10.13V10.15H10.16C9.66 10.15 9.25 10.56 9.25 11.06C9.25 11.57 9.67 11.97 10.16 11.99H11.77L11.49 13.75L11.47 13.88H9.57999C9.07999 13.88 8.67001 14.29 8.67001 14.79C8.67001 15.28 9.08999 15.7 9.57999 15.7H11.19L10.32 21.2L10.04 23.03L9.89001 24.01C9.78001 24.71 10.26 25.36 10.96 25.47C11.03 25.48 11.09 25.49 11.16 25.49H15.39C16.01 25.49 16.54 25.04 16.66 24.41L17.47 19.37H19.45C23.02 19.37 25.93 16.42 25.87 12.83C25.81 9.3 22.87 6.52 19.35 6.52V6.5ZM13.63 11.98L19.33 12C19.85 12 20.27 12.42 20.27 12.94C20.27 13.46 19.85 13.88 19.33 13.88H13.32L13.62 11.97L13.63 11.98ZM19.37 17.5H16.99C16.37 17.5 15.84 17.95 15.72 18.58L14.91 23.64H11.81L13.04 15.71H19.33C20.85 15.71 22.09 14.47 22.09 12.95C22.09 11.44 20.84 10.19 19.33 10.19L13.93 10.17L14.21 8.36H19.46C22.03 8.36 24.11 10.48 24.05 13.05C23.97 15.54 21.88 17.51 19.36 17.51L19.37 17.5Z" fill="white"/>
</svg>
