<svg width="32" height="32" viewBox="0 0 32 32" fill="none" xmlns="http://www.w3.org/2000/svg">
<g clip-path="url(#clip0_298_431)">
<path d="M16 32C24.8366 32 32 24.8366 32 16C32 7.16344 24.8366 0 16 0C7.16344 0 0 7.16344 0 16C0 24.8366 7.16344 32 16 32Z" fill="url(#paint0_linear_298_431)"/>
<path d="M15.97 30.81C24.1438 30.81 30.77 24.1838 30.77 16.01C30.77 7.83618 24.1438 1.21 15.97 1.21C7.79619 1.21 1.16998 7.83618 1.16998 16.01C1.16998 24.1838 7.79619 30.81 15.97 30.81Z" fill="#1B2123"/>
<path d="M8.61998 15.01L10.87 19.58C11.18 20.21 12.06 20.27 12.45 19.68L18.84 10C18.89 9.92 18.93 9.83 18.96 9.74L19.47 7.87C19.69 7.07 18.81 6.42 18.11 6.85L9.34999 12.27C9.22999 12.33 9.19999 12.43 9.12999 12.64L8.57 14.34C8.5 14.57 8.50998 14.81 8.61998 15.03V15.01Z" fill="#91F9E1"/>
<path d="M9.35001 12.26C9.29001 12.29 9.25001 12.33 9.23001 12.38L11.31 20.01C11.59 20.14 11.91 20.12 12.18 19.96L17.37 10.39L9.35999 12.27" fill="#5FC4A7"/>
<path d="M12.35 11.55L13.69 17.14L14.72 15.26L13.76 11.21L12.35 11.55Z" fill="#B2E5DA"/>
<path d="M14.8 10.98L15.49 13.84L16 12.88L15.5 10.81L14.8 10.98Z" fill="#B2E5DA"/>
<path d="M17.38 10.36L19.22 6.97C18.94 6.7 18.5 6.6 18.11 6.84L9.35001 12.26L17.37 10.37L17.38 10.36Z" fill="#408587"/>
<path d="M23.23 17.07L20.98 12.5C20.67 11.87 19.79 11.81 19.4 12.4L13.01 22.08C12.96 22.16 12.92 22.25 12.89 22.34L12.38 24.21C12.16 25.01 13.04 25.66 13.74 25.23L22.5 19.81C22.62 19.75 22.65 19.65 22.72 19.44L23.28 17.74C23.35 17.51 23.34 17.27 23.23 17.05V17.07Z" fill="#91F9E1"/>
<path d="M22.5 19.82C22.56 19.79 22.6 19.75 22.62 19.7L20.54 12.07C20.26 11.94 19.94 11.96 19.67 12.12L14.48 21.69L22.49 19.81" fill="#5FC4A7"/>
<path d="M14.47 21.72L12.63 25.11C12.91 25.38 13.35 25.48 13.74 25.24L22.5 19.82L14.48 21.71L14.47 21.72Z" fill="#408587"/>
<path d="M17.25 16.61L22.59 19.57L22.13 17.89L17.84 15.52L17.25 16.61Z" fill="#B2E5DA"/>
<path d="M18.36 14.55L18.75 13.84L21.43 15.33L21.71 16.34L18.36 14.55Z" fill="#B2E5DA"/>
<path d="M11.42 10.4L11.52 10.66C11.64 10.99 11.91 11.26 12.24 11.38L12.5 11.48L12.24 11.58C11.91 11.7 11.64 11.97 11.52 12.3L11.42 12.56L11.32 12.3C11.2 11.97 10.93 11.7 10.6 11.58L10.34 11.48L10.6 11.38C10.93 11.26 11.2 10.99 11.32 10.66L11.42 10.4Z" fill="white"/>
<path d="M14.64 11.87L14.68 11.99C14.73 12.13 14.84 12.24 14.98 12.29L15.1 12.33L14.98 12.37C14.84 12.42 14.73 12.53 14.68 12.67L14.64 12.79L14.6 12.67C14.55 12.53 14.44 12.42 14.3 12.37L14.18 12.33L14.3 12.29C14.44 12.24 14.55 12.13 14.6 11.99L14.64 11.87Z" fill="white"/>
<path d="M17.22 21.34L17.26 21.45C17.31 21.58 17.41 21.68 17.54 21.73L17.65 21.77L17.54 21.81C17.41 21.86 17.31 21.96 17.26 22.09L17.22 22.2L17.18 22.09C17.13 21.96 17.03 21.86 16.9 21.81L16.79 21.77L16.9 21.73C17.03 21.68 17.13 21.58 17.18 21.45L17.22 21.34Z" fill="white"/>
</g>
<defs>
<linearGradient id="paint0_linear_298_431" x1="4.69" y1="4.69" x2="27.32" y2="27.31" gradientUnits="userSpaceOnUse">
<stop stop-color="#2A3035"/>
<stop offset="1" stop-color="#539283"/>
</linearGradient>
<clipPath id="clip0_298_431">
<rect width="32" height="32" fill="white"/>
</clipPath>
</defs>
</svg>
