<svg width="33" height="33" viewBox="0 0 33 33" fill="none" xmlns="http://www.w3.org/2000/svg">
<path d="M16.91 0.140015C8.07 0.140015 0.910004 7.30001 0.910004 16.14C0.910004 24.98 8.07 32.14 16.91 32.14C25.75 32.14 32.91 24.98 32.91 16.14C32.91 7.30001 25.75 0.140015 16.91 0.140015ZM13.08 20.09C13.08 20.09 13.05 20.1 13.03 20.11C13 20.13 12.97 20.14 12.94 20.15C12.9 20.17 12.85 20.18 12.81 20.19C12.78 20.19 12.76 20.2 12.73 20.2C12.68 20.2 12.63 20.21 12.58 20.2C12.55 20.2 12.53 20.2 12.5 20.2C12.45 20.2 12.41 20.19 12.36 20.17C12.33 20.17 12.3 20.15 12.27 20.14C12.25 20.14 12.23 20.14 12.21 20.12C12.03 20.03 11.88 19.89 11.78 19.69L9.53 15.12C9.42 14.91 9.41001 14.66 9.48001 14.43L10.04 12.73C10.08 12.62 10.1 12.55 10.14 12.49C10.17 12.44 10.2 12.4 10.26 12.37L19.02 6.95002C19.1 6.90002 19.19 6.87001 19.28 6.85001C19.28 6.85001 19.28 6.85001 19.29 6.85001C19.36 6.83001 19.43 6.83002 19.5 6.83002C19.52 6.83002 19.55 6.83002 19.57 6.83002C19.63 6.83002 19.69 6.85001 19.75 6.87001C19.78 6.87001 19.82 6.89002 19.85 6.90002C19.9 6.92002 19.94 6.94002 19.98 6.97002C20.02 6.99002 20.06 7.02001 20.09 7.05001C20.1 7.06001 20.12 7.07002 20.14 7.08002C20.36 7.30002 20.49 7.62001 20.39 7.98001L19.88 9.85001C19.85 9.94001 19.81 10.03 19.76 10.11L13.37 19.79C13.3 19.9 13.2 19.98 13.1 20.05L13.08 20.09ZM24.19 17.89L23.63 19.59C23.59 19.7 23.57 19.77 23.53 19.83C23.5 19.88 23.47 19.92 23.41 19.95L14.65 25.37C14.57 25.42 14.48 25.45 14.39 25.47C14.32 25.49 14.25 25.49 14.18 25.49C14.16 25.49 14.13 25.49 14.11 25.49C14.05 25.49 13.99 25.47 13.93 25.45C13.9 25.45 13.86 25.43 13.83 25.42C13.78 25.4 13.74 25.38 13.7 25.35C13.66 25.33 13.62 25.3 13.59 25.27C13.58 25.26 13.56 25.25 13.54 25.24C13.32 25.02 13.19 24.7 13.29 24.34L13.8 22.47C13.83 22.38 13.87 22.29 13.92 22.21L20.31 12.53C20.38 12.42 20.48 12.34 20.58 12.27C20.58 12.27 20.61 12.24 20.63 12.23C20.66 12.21 20.69 12.2 20.72 12.19C20.76 12.17 20.81 12.16 20.85 12.15C20.88 12.15 20.9 12.14 20.93 12.14C20.98 12.14 21.03 12.13 21.08 12.14C21.11 12.14 21.13 12.14 21.16 12.14C21.21 12.14 21.25 12.15 21.3 12.17C21.33 12.17 21.36 12.19 21.39 12.2C21.41 12.2 21.43 12.2 21.45 12.22C21.63 12.31 21.78 12.45 21.88 12.65L24.13 17.22C24.24 17.43 24.25 17.68 24.18 17.91L24.19 17.89Z" fill="#213147"/>
</svg>
