<svg width="33" height="33" viewBox="0 0 33 33" fill="none" xmlns="http://www.w3.org/2000/svg">
<path d="M16.91 32.22C25.7466 32.22 32.91 25.0565 32.91 16.22C32.91 7.38341 25.7466 0.219971 16.91 0.219971C8.07345 0.219971 0.910004 7.38341 0.910004 16.22C0.910004 25.0565 8.07345 32.22 16.91 32.22Z" fill="url(#paint0_linear_80_24)"/>
<path d="M16.88 31.03C25.0538 31.03 31.68 24.4038 31.68 16.23C31.68 8.05615 25.0538 1.42996 16.88 1.42996C8.70619 1.42996 2.07999 8.05615 2.07999 16.23C2.07999 24.4038 8.70619 31.03 16.88 31.03Z" fill="#1B2123"/>
<path d="M9.52999 15.23L11.78 19.8C12.09 20.43 12.97 20.49 13.36 19.9L19.75 10.22C19.8 10.14 19.84 10.05 19.87 9.95996L20.38 8.08996C20.6 7.28996 19.72 6.63996 19.02 7.06996L10.26 12.49C10.14 12.55 10.11 12.65 10.04 12.86L9.48 14.56C9.41 14.79 9.41999 15.03 9.52999 15.25V15.23Z" fill="#91F9E1"/>
<path d="M10.26 12.48C10.2 12.51 10.16 12.55 10.14 12.6L12.22 20.23C12.5 20.36 12.82 20.34 13.09 20.18L18.28 10.61L10.27 12.49" fill="#5FC4A7"/>
<path d="M13.26 11.77L14.6 17.36L15.63 15.48L14.67 11.43L13.26 11.77Z" fill="#B2E5DA"/>
<path d="M15.71 11.2L16.4 14.06L16.91 13.1L16.41 11.03L15.71 11.2Z" fill="#B2E5DA"/>
<path d="M18.29 10.58L20.13 7.18997C19.85 6.91997 19.41 6.81997 19.02 7.05997L10.26 12.48L18.28 10.59L18.29 10.58Z" fill="#408587"/>
<path d="M24.14 17.29L21.89 12.72C21.58 12.09 20.7 12.03 20.31 12.62L13.92 22.3C13.87 22.38 13.83 22.47 13.8 22.56L13.29 24.43C13.07 25.23 13.95 25.88 14.65 25.45L23.41 20.03C23.53 19.97 23.56 19.87 23.63 19.66L24.19 17.96C24.26 17.73 24.25 17.49 24.14 17.27V17.29Z" fill="#91F9E1"/>
<path d="M23.41 20.04C23.47 20.01 23.51 19.97 23.53 19.92L21.45 12.29C21.17 12.16 20.85 12.18 20.58 12.34L15.39 21.91L23.4 20.03" fill="#5FC4A7"/>
<path d="M15.38 21.94L13.54 25.33C13.82 25.6 14.26 25.7 14.65 25.46L23.41 20.04L15.39 21.93L15.38 21.94Z" fill="#408587"/>
<path d="M18.16 16.83L23.5 19.79L23.04 18.11L18.75 15.74L18.16 16.83Z" fill="#B2E5DA"/>
<path d="M19.27 14.77L19.66 14.06L22.34 15.55L22.62 16.56L19.27 14.77Z" fill="#B2E5DA"/>
<path d="M12.33 10.62L12.43 10.88C12.55 11.21 12.82 11.48 13.15 11.6L13.41 11.7L13.15 11.8C12.82 11.92 12.55 12.19 12.43 12.52L12.33 12.78L12.23 12.52C12.11 12.19 11.84 11.92 11.51 11.8L11.25 11.7L11.51 11.6C11.84 11.48 12.11 11.21 12.23 10.88L12.33 10.62Z" fill="white"/>
<path d="M15.55 12.09L15.59 12.21C15.64 12.35 15.75 12.46 15.89 12.51L16.01 12.55L15.89 12.59C15.75 12.64 15.64 12.75 15.59 12.89L15.55 13.01L15.51 12.89C15.46 12.75 15.35 12.64 15.21 12.59L15.09 12.55L15.21 12.51C15.35 12.46 15.46 12.35 15.51 12.21L15.55 12.09Z" fill="white"/>
<path d="M18.13 21.56L18.17 21.67C18.22 21.8 18.32 21.9 18.45 21.95L18.56 21.99L18.45 22.03C18.32 22.08 18.22 22.18 18.17 22.31L18.13 22.42L18.09 22.31C18.04 22.18 17.94 22.08 17.81 22.03L17.7 21.99L17.81 21.95C17.94 21.9 18.04 21.8 18.09 21.67L18.13 21.56Z" fill="white"/>
<defs>
<linearGradient id="paint0_linear_80_24" x1="5.6" y1="4.90997" x2="28.23" y2="27.53" gradientUnits="userSpaceOnUse">
<stop stop-color="#2A3035"/>
<stop offset="1" stop-color="#539283"/>
</linearGradient>
</defs>
</svg>
