<svg width="33" height="33" viewBox="0 0 33 33" fill="none" xmlns="http://www.w3.org/2000/svg">
<path d="M16.9 0.690002C8.05999 0.690002 0.899994 7.85 0.899994 16.69C0.899994 25.53 8.05999 32.69 16.9 32.69C25.74 32.69 32.9 25.53 32.9 16.69C32.9 7.85 25.74 0.690002 16.9 0.690002ZM7.53 11.48L16.91 6.06001L17.12 6.18L17.54 6.43L17.96 6.67L12.2 9.99001L11.99 9.63L10.43 10.53L10.22 10.17L7.53 11.73V11.49V11.48ZM7.53 13.18L18.38 6.91L18.59 7.04L19.01 7.28L19.43 7.52L13.68 10.84L13.47 10.47L10.43 12.22L10.22 11.86L7.53 13.41V13.17V13.18ZM7.53 14.88L19.85 7.76L20.06 7.88L20.48 8.12L20.9 8.37L15.14 11.69L14.93 11.32L10.42 13.93L10.21 13.56L7.51999 15.12V14.88H7.53ZM7.53 16.59L21.33 8.62L21.54 8.74001L21.96 8.99001L22.38 9.23L16.62 12.55L16.41 12.19L10.42 15.65L10.21 15.28L7.51999 16.84V16.59H7.53ZM7.53 18.29L22.8 9.47001L23.01 9.59L23.43 9.83001L23.85 10.08L18.14 13.38L17.93 13.02L10.43 17.35L10.22 16.98L7.53 18.54V18.3V18.29ZM7.53 19.99L24.28 10.32L24.49 10.44L24.91 10.69L25.33 10.93L19.62 14.23L19.41 13.86L10.43 19.04L10.22 18.68L7.53 20.23V19.99ZM7.53 21.7L25.75 11.17L25.96 11.29L26.28 11.47V12.08L19.62 15.92L19.41 15.56L10.43 20.74L10.22 20.38L7.53 21.93V21.69V21.7ZM8.47 22.85L26.27 12.57V13.79L19.57 17.66L19.36 17.29L10.4 22.46L10.19 22.1L8.67999 22.97L8.47 22.85ZM9.95001 23.7L26.28 14.27V15.49L19.58 19.36L19.37 18.99L11.91 23.3L11.7 22.93L10.17 23.82L9.95999 23.7H9.95001ZM11.42 24.55L26.28 15.97V17.19L19.58 21.06L19.37 20.69L13.39 24.15L13.18 23.78L11.65 24.67L11.44 24.55H11.42ZM14.37 26.26L26.27 19.39V20.61L19.57 24.48L19.36 24.11L16.33 25.87L16.12 25.5L14.58 26.39L14.37 26.27V26.26ZM26.28 22.31L19.58 26.18L19.37 25.81L17.81 26.72L17.6 26.35L16.07 27.24L15.86 27.12L26.29 21.1V22.32L26.28 22.31ZM26.28 18.89L19.58 22.76L19.37 22.4L14.86 25L14.65 24.64L13.12 25.53L12.91 25.41L26.29 17.68V18.89H26.28Z" fill="#213147"/>
</svg>
