<svg width="33" height="33" viewBox="0 0 33 33" fill="none" xmlns="http://www.w3.org/2000/svg">
<path d="M16.9 32.1C25.7365 32.1 32.9 24.9365 32.9 16.1C32.9 7.26342 25.7365 0.0999756 16.9 0.0999756C8.06344 0.0999756 0.899994 7.26342 0.899994 16.1C0.899994 24.9365 8.06344 32.1 16.9 32.1Z" fill="#183055"/>
<path d="M10.43 9.93997L11.99 9.03997L12.2 9.39997L17.96 6.07997L17.54 5.83997L17.12 5.58997L16.91 5.46997L7.53 10.89V11.13L10.22 9.56997L10.43 9.92997V9.93997Z" fill="white"/>
<path d="M10.43 13.35L14.94 10.74L15.15 11.11L20.91 7.78999L20.49 7.53999L20.07 7.29999L19.86 7.17999L7.54001 14.3V14.54L10.23 12.98L10.44 13.35H10.43Z" fill="white"/>
<path d="M10.43 15.0499L16.42 11.5899L16.63 11.9499L22.39 8.61995L21.97 8.37995L21.55 8.12995L21.34 8.00995L7.54001 15.9799V16.2299L10.23 14.6699L10.44 15.0399L10.43 15.0499Z" fill="white"/>
<path d="M10.43 16.75L17.93 12.42L18.14 12.78L23.85 9.47999L23.43 9.22999L23.01 8.99L22.8 8.87L7.53 17.69V17.93L10.22 16.37L10.43 16.74V16.75Z" fill="white"/>
<path d="M10.43 18.45L19.41 13.27L19.62 13.64L25.33 10.34L24.91 10.1L24.49 9.84998L24.28 9.72998L7.53 19.4V19.64L10.22 18.09L10.43 18.45Z" fill="white"/>
<path d="M25.96 10.71L25.75 10.59L7.53 21.12V21.36L10.22 19.81L10.43 20.17L19.41 14.99L19.62 15.35L26.28 11.51V10.9L25.96 10.72V10.71Z" fill="white"/>
<path d="M8.67999 22.38L10.19 21.51L10.4 21.87L19.36 16.7L19.57 17.07L26.27 13.2V11.98L8.47 22.26L8.67999 22.38Z" fill="white"/>
<path d="M19.36 18.4099L19.57 18.7799L26.27 14.9099V13.6899L9.94 23.1199L10.15 23.2399L11.68 22.3499L11.89 22.7199" fill="white"/>
<path d="M11.63 24.09L13.16 23.2L13.37 23.57L19.35 20.11L19.56 20.48L26.26 16.61V15.39L11.4 23.97L11.61 24.09H11.63Z" fill="white"/>
<path d="M13.11 24.94L14.64 24.05L14.85 24.41L19.36 21.81L19.57 22.17L26.27 18.3V17.09L12.89 24.82L13.1 24.94H13.11Z" fill="white"/>
<path d="M14.37 25.67L14.58 25.79L16.12 24.9L16.33 25.27L19.36 23.51L19.57 23.88L26.27 20.01V18.79L14.37 25.66V25.67Z" fill="white"/>
<path d="M16.06 26.64L17.59 25.75L17.8 26.12L19.36 25.21L19.57 25.58L26.27 21.71V20.49L15.84 26.51L16.05 26.63L16.06 26.64Z" fill="white"/>
<path d="M19.43 6.92995L19.01 6.68995L18.59 6.44995L18.38 6.31995L7.53 12.5899V12.8299L10.22 11.2799L10.43 11.6399L13.47 9.88995L13.68 10.2599L19.43 6.93995V6.92995Z" fill="white"/>
</svg>
