<svg width="33" height="33" viewBox="0 0 33 33" fill="none" xmlns="http://www.w3.org/2000/svg">
<path fill-rule="evenodd" clip-rule="evenodd" d="M3.17002 24.62C3.43002 25.05 3.72 25.46 4.02 25.86L5.99 24.73C5.68 24.33 5.39001 23.92 5.13001 23.5L3.18 24.63L3.17002 24.62ZM28.93 9.73999C29.17 10.18 29.38 10.64 29.57 11.1L31.54 9.96999C31.34 9.50999 31.12 9.05999 30.88 8.61999L28.93 9.74999V9.73999ZM30.1 7.33999L28.15 8.46999C27.86 8.04999 27.55 7.64999 27.22 7.26999L29.2 6.12999C29.52 6.51999 29.82 6.91999 30.1 7.33999ZM4.4 22.17L2.45002 23.3C2.23002 22.85 2.03001 22.39 1.85001 21.92L3.82999 20.78C3.99999 21.26 4.19001 21.72 4.41001 22.18L4.4 22.17ZM1.01002 13.74C1.12002 13.07 1.26 12.4 1.46 11.75L4.60001 9.93999C4.22001 10.67 3.91002 11.42 3.67002 12.21L1.01002 13.75V13.74ZM6.59 7.04999C8.5 4.92999 11.07 3.39999 13.97 2.78999L18.27 0.30999C17.79 0.26999 17.3 0.23999 16.82 0.23999C10.38 0.23999 4.83002 4.04999 2.29002 9.52999L6.60001 7.03999L6.59 7.04999ZM19.88 2.83999C19.08 2.65999 18.27 2.54999 17.45 2.50999L20.59 0.69999C21.25 0.85999 21.9 1.05999 22.54 1.30999L19.88 2.84999V2.83999ZM14.29 32.05C15.12 32.18 15.97 32.25 16.81 32.25C23.63 32.25 29.46 27.98 31.76 21.97L28.13 24.07C25.85 27.37 22.16 29.62 17.93 29.96L14.3 32.06L14.29 32.05ZM29.51 21.53L32.4 19.86C32.55 19.23 32.65 18.59 32.72 17.94L30.2 19.4C30.03 20.13 29.8 20.84 29.51 21.53ZM15.04 29.89L12.14 31.56C11.52 31.37 10.91 31.14 10.32 30.88L12.85 29.42C13.57 29.64 14.3 29.79 15.04 29.89ZM1.37 20.46C1.23 19.95 1.12001 19.44 1.03001 18.92L3.13001 17.71C3.19001 18.24 3.27002 18.77 3.39002 19.29L1.35999 20.46H1.37ZM26.15 6.14999C25.76 5.78999 25.35 5.44999 24.91 5.12999L27.01 3.91999C27.41 4.24999 27.8 4.60999 28.17 4.97999L26.14 6.14999H26.15ZM23.49 4.22999L25.71 2.94999C25.23 2.62999 24.74 2.33999 24.23 2.06999L21.84 3.44999C22.41 3.66999 22.96 3.92999 23.49 4.22999ZM0.850013 17.3L3.07001 16.02C3.08001 15.4 3.13001 14.8 3.22001 14.2L0.829994 15.58C0.809994 16.15 0.810013 16.73 0.850013 17.3ZM7.32999 29.14C7.77999 29.47 8.25002 29.78 8.73002 30.06L11.04 28.73C10.51 28.48 9.99 28.2 9.49 27.89L7.32999 29.14ZM30.55 15.74C30.57 16.33 30.55 16.91 30.5 17.5L32.81 16.17C32.81 15.61 32.78 15.05 32.71 14.49L30.55 15.74ZM32.46 12.9L30.39 14.09C30.31 13.57 30.2 13.06 30.06 12.55L32.06 11.39C32.22 11.88 32.35 12.39 32.46 12.89V12.9ZM8.16001 26.93L6.09 28.12C5.71 27.77 5.34 27.41 4.99 27.02L6.99 25.86C7.36 26.23 7.75 26.59 8.15 26.92L8.16001 26.93Z" fill="#B4BCC5"/>
<path d="M16.81 28.75C23.7136 28.75 29.31 23.1536 29.31 16.25C29.31 9.34644 23.7136 3.75 16.81 3.75C9.90644 3.75 4.31 9.34644 4.31 16.25C4.31 23.1536 9.90644 28.75 16.81 28.75Z" fill="white"/>
<path fill-rule="evenodd" clip-rule="evenodd" d="M16.86 3.74999C9.92999 3.68999 4.38 9.30999 4.31 16.19C4.31 23.13 9.93001 28.75 16.79 28.75C23.68 28.77 29.29 23.18 29.31 16.28C29.33 9.37999 23.75 3.76999 16.86 3.74999ZM22.79 9.37999C22.54 9.56999 22.23 9.49999 21.98 9.24999C21.79 9.05999 21.67 8.86999 21.47 8.68999C21.1 8.17999 20.53 8.12999 20.1 8.55999C19.76 8.89999 19.49 9.29999 19.29 9.73999C18.85 11.05 18.54 12.43 18.11 13.79L21.54 14.3L21.29 15.24L17.98 14.75L17.61 16.76L21.17 17.27L20.92 18.21L17.42 17.7C17.17 18.51 17.05 19.39 16.73 20.14C16.42 21.02 16.11 21.89 15.73 22.7C15.22 23.76 14.36 24.51 13.17 24.7C12.48 24.83 11.73 24.76 11.17 24.32C10.97 24.19 10.84 23.99 10.8 23.76C10.8 23.5 10.91 23.24 11.11 23.07C11.23 23.01 11.55 23.07 11.73 23.13C11.93 23.33 12.1 23.56 12.24 23.82C12.61 24.33 13.11 24.38 13.61 24.01C14.17 23.5 14.48 22.83 14.67 22.14C15.04 20.64 15.42 19.2 15.73 17.7V17.44L12.42 16.93L12.54 15.99L15.97 16.5L16.4 14.57L12.84 14.01L12.96 13.01L16.64 13.52C16.76 13.14 16.83 12.83 16.95 12.52C17.26 11.39 17.57 10.27 18.32 9.26999C19.07 8.26999 19.94 7.63999 21.25 7.70999C21.82 7.68999 22.36 7.91999 22.75 8.33999C22.85 8.41999 22.91 8.52999 22.94 8.64999C22.94 8.88999 22.94 9.20999 22.75 9.38999L22.79 9.37999Z" fill="#3F8DF6"/>
</svg>
