<svg width="32" height="32" viewBox="0 0 32 32" fill="none" xmlns="http://www.w3.org/2000/svg">
<g clip-path="url(#clip0_298_417)">
<path fill-rule="evenodd" clip-rule="evenodd" d="M2.35366 24.3724C2.61372 24.8023 2.90375 25.2121 3.20382 25.612L5.17424 24.4824C4.86418 24.0825 4.57413 23.6726 4.31407 23.2527L2.36364 24.3824L2.35366 24.3724ZM28.1192 9.49703C28.3592 9.9369 28.5693 10.3968 28.7593 10.8566L30.7297 9.72696C30.5297 9.2671 30.3096 8.81725 30.0696 8.37738L28.1192 9.50703V9.49703ZM29.2894 7.09778L27.339 8.22743C27.0489 7.80756 26.7389 7.40769 26.4088 7.0278L28.3892 5.88816C28.7093 6.27804 29.0094 6.67791 29.2894 7.09778ZM3.5839 21.9232L1.63351 23.0528C1.41346 22.6029 1.21341 22.1431 1.03337 21.6732L3.01378 20.5336C3.18381 21.0134 3.37387 21.4733 3.59392 21.9331L3.5839 21.9232ZM0.193194 13.4958C0.303218 12.826 0.44323 12.1562 0.643273 11.5064L3.78396 9.69697C3.40388 10.4267 3.09382 11.1765 2.85377 11.9663L0.193194 13.5058V13.4958ZM5.77438 6.80787C7.68479 4.68854 10.2553 3.15901 13.156 2.5492L17.4569 0.0699781C16.9768 0.0299906 16.4867 0 16.0066 0C9.5652 0 4.01401 3.80881 1.47347 9.2871L5.78439 6.79788L5.77438 6.80787ZM19.0672 2.59919C18.2671 2.41924 17.4569 2.30928 16.6367 2.26929L19.7774 0.459856C20.4375 0.619806 21.0877 0.819744 21.7278 1.06967L19.0672 2.60918V2.59919ZM13.476 31.8001C14.3062 31.93 15.1564 32 15.9966 32C22.818 32 28.6493 27.7313 30.9498 21.7232L27.319 23.8226C25.0385 27.1215 21.3477 29.3708 17.1168 29.7107L13.486 31.8101L13.476 31.8001ZM28.6993 21.2834L31.5899 19.6139C31.7399 18.9841 31.84 18.3443 31.91 17.6945L29.3895 19.154C29.2194 19.8838 28.9894 20.5936 28.6993 21.2834ZM14.2262 29.6407L11.3256 31.3102C10.7055 31.1203 10.0953 30.8903 9.50519 30.6304L12.0357 29.1709C12.7559 29.3908 13.486 29.5408 14.2262 29.6407ZM0.553257 20.2137C0.413227 19.7038 0.303207 19.194 0.213188 18.6742L2.31364 17.4645C2.37366 17.9944 2.45368 18.5242 2.57371 19.0441L0.543245 20.2137H0.553257ZM25.3386 5.90815C24.9485 5.54827 24.5384 5.20837 24.0983 4.88847L26.1988 3.67885C26.5989 4.00875 26.9889 4.36864 27.359 4.73852L25.3286 5.90815H25.3386ZM22.678 3.98875L24.8985 2.70915C24.4184 2.38925 23.9283 2.09934 23.4182 1.82943L21.0276 3.209C21.5978 3.42893 22.1479 3.68885 22.678 3.98875ZM0.0331564 17.0547L2.25363 15.7751C2.26364 15.1553 2.31364 14.5555 2.40366 13.9556L0.0131326 15.3352C-0.00687166 15.905 -0.00685212 16.4848 0.0331564 17.0547ZM6.51453 28.891C6.96462 29.2209 7.43475 29.5308 7.91485 29.8107L10.2253 28.4811C9.69523 28.2312 9.1751 27.9513 8.67499 27.6414L6.51453 28.891ZM29.7395 15.4952C29.7595 16.085 29.7395 16.6648 29.6895 17.2546L32 15.925C32 15.3652 31.97 14.8054 31.9 14.2455L29.7395 15.4952ZM31.6499 12.656L29.5795 13.8457C29.4995 13.3258 29.3894 12.816 29.2494 12.3062L31.2498 11.1465C31.4099 11.6364 31.5399 12.1462 31.6499 12.646V12.656ZM7.34472 26.6817L5.27427 27.8713C4.89419 27.5214 4.5241 27.1615 4.17403 26.7716L6.17446 25.612C6.54454 25.9819 6.93462 26.3418 7.33471 26.6717L7.34472 26.6817Z" fill="#B4BCC5"/>
<path d="M15.9966 28.5011C22.9016 28.5011 28.4993 22.9064 28.4993 16.005C28.4993 9.10361 22.9016 3.50891 15.9966 3.50891C9.09154 3.50891 3.4939 9.10361 3.4939 16.005C3.4939 22.9064 9.09154 28.5011 15.9966 28.5011Z" fill="white"/>
<path fill-rule="evenodd" clip-rule="evenodd" d="M16.0466 3.5089C9.11509 3.44892 3.56391 9.06716 3.4939 15.945C3.4939 22.8828 9.11511 28.5011 15.9766 28.5011C22.8681 28.5211 28.4792 22.9328 28.4993 16.035C28.5193 9.13714 22.9381 3.52889 16.0466 3.5089ZM21.9779 9.13714C21.7278 9.32708 21.4178 9.2571 21.1677 9.00718C20.9777 8.81724 20.8576 8.6273 20.6576 8.44736C20.2875 7.93752 19.7174 7.88753 19.2873 8.3174C18.9472 8.65729 18.6772 9.05717 18.4771 9.49703C18.037 10.8066 17.7269 12.1862 17.2968 13.5458L20.7276 14.0556L20.4775 14.9953L17.1668 14.5055L16.7967 16.5148L20.3575 17.0247L20.1075 17.9644L16.6067 17.4545C16.3567 18.2643 16.2366 19.144 15.9166 19.8938C15.6065 20.7735 15.2964 21.6432 14.9164 22.453C14.4062 23.5127 13.5461 24.2624 12.3558 24.4524C11.6657 24.5823 10.9155 24.5123 10.3554 24.0725C10.1553 23.9425 10.0253 23.7426 9.98528 23.5127C9.98528 23.2527 10.0953 22.9928 10.2953 22.8229C10.4154 22.7629 10.7355 22.8229 10.9155 22.8828C11.1155 23.0828 11.2856 23.3127 11.4256 23.5726C11.7957 24.0825 12.2958 24.1325 12.7959 23.7626C13.356 23.2527 13.6661 22.5829 13.8561 21.8932C14.2262 20.3936 14.6063 18.9541 14.9164 17.4545V17.1946L11.6057 16.6848L11.7257 15.7451L15.1564 16.2549L15.5865 14.3255L12.0257 13.7657L12.1457 12.766L15.8266 13.2759C15.9466 12.896 16.0166 12.5861 16.1366 12.2762C16.4467 11.1465 16.7567 10.0269 17.5069 9.02718C18.2571 8.02749 19.1272 7.39769 20.4375 7.46766C21.0077 7.44767 21.5478 7.6776 21.9379 8.09747C22.0379 8.17744 22.0979 8.28741 22.1279 8.40737C22.1279 8.6473 22.1279 8.9672 21.9379 9.14714L21.9779 9.13714Z" fill="#3F8DF6"/>
</g>
<defs>
<clipPath id="clip0_298_417">
<rect width="32" height="32" fill="white"/>
</clipPath>
</defs>
</svg>
