<svg width="33" height="33" viewBox="0 0 33 33" fill="none" xmlns="http://www.w3.org/2000/svg">
<path fill-rule="evenodd" clip-rule="evenodd" d="M3.17002 24.53C3.43002 24.96 3.72 25.37 4.02 25.77L5.99 24.64C5.68 24.24 5.39001 23.83 5.13001 23.41L3.18 24.54L3.17002 24.53ZM28.93 9.65997C29.17 10.1 29.38 10.56 29.57 11.02L31.54 9.88997C31.34 9.42997 31.12 8.97997 30.88 8.53997L28.93 9.66997V9.65997ZM30.1 7.24997L28.15 8.37997C27.86 7.95997 27.55 7.55997 27.22 7.17997L29.2 6.03997C29.52 6.42997 29.82 6.82997 30.1 7.24997ZM4.4 22.09L2.45002 23.22C2.23002 22.77 2.03001 22.31 1.85001 21.84L3.82999 20.7C3.99999 21.18 4.19001 21.64 4.41001 22.1L4.4 22.09ZM1.01002 13.66C1.12002 12.99 1.26 12.32 1.46 11.67L4.60001 9.85997C4.22001 10.59 3.91002 11.34 3.67002 12.13L1.01002 13.67V13.66ZM6.59 6.96997C8.5 4.84997 11.07 3.31997 13.97 2.70997L18.27 0.229973C17.79 0.189973 17.3 0.159973 16.82 0.159973C10.38 0.159973 4.83002 3.96997 2.29002 9.44997L6.60001 6.95997L6.59 6.96997ZM19.88 2.75997C19.08 2.57997 18.27 2.46997 17.45 2.42997L20.59 0.619972C21.25 0.779972 21.9 0.979973 22.54 1.22997L19.88 2.76997V2.75997ZM14.29 31.97C15.12 32.1 15.97 32.17 16.81 32.17C23.63 32.17 29.46 27.9 31.76 21.89L28.13 23.99C25.85 27.29 22.16 29.54 17.93 29.88L14.3 31.98L14.29 31.97ZM29.51 21.45L32.4 19.78C32.55 19.15 32.65 18.51 32.72 17.86L30.2 19.32C30.03 20.05 29.8 20.76 29.51 21.45ZM15.04 29.81L12.14 31.48C11.52 31.29 10.91 31.06 10.32 30.8L12.85 29.34C13.57 29.56 14.3 29.71 15.04 29.81ZM1.37 20.38C1.23 19.87 1.12001 19.36 1.03001 18.84L3.13001 17.63C3.19001 18.16 3.27002 18.69 3.39002 19.21L1.35999 20.38H1.37ZM26.15 6.06997C25.76 5.70997 25.35 5.36997 24.91 5.04997L27.01 3.83997C27.41 4.16997 27.8 4.52997 28.17 4.89997L26.14 6.06997H26.15ZM23.49 4.13997L25.71 2.85997C25.23 2.53997 24.74 2.24997 24.23 1.97997L21.84 3.35997C22.41 3.57997 22.96 3.83997 23.49 4.13997ZM0.850013 17.22L3.07001 15.94C3.08001 15.32 3.13001 14.72 3.22001 14.12L0.829994 15.5C0.809994 16.07 0.810013 16.65 0.850013 17.22ZM7.32999 29.06C7.77999 29.39 8.25002 29.7 8.73002 29.98L11.04 28.65C10.51 28.4 9.99 28.12 9.49 27.81L7.32999 29.06ZM30.55 15.65C30.57 16.24 30.55 16.82 30.5 17.41L32.81 16.08C32.81 15.52 32.78 14.96 32.71 14.4L30.55 15.65ZM32.46 12.82L30.39 14.01C30.31 13.49 30.2 12.98 30.06 12.47L32.06 11.31C32.22 11.8 32.35 12.31 32.46 12.81V12.82ZM8.16001 26.85L6.09 28.04C5.71 27.69 5.34 27.33 4.99 26.94L6.99 25.78C7.36 26.15 7.75 26.51 8.15 26.84L8.16001 26.85Z" fill="#213147"/>
<path fill-rule="evenodd" clip-rule="evenodd" d="M16.86 3.66997C9.92999 3.60997 4.38 9.22997 4.31 16.11C4.31 23.05 9.93001 28.67 16.79 28.67C23.68 28.69 29.29 23.1 29.31 16.2C29.33 9.29997 23.75 3.68997 16.86 3.66997ZM22.79 9.28997C22.54 9.47997 22.23 9.40997 21.98 9.16997C21.79 8.97997 21.67 8.78997 21.47 8.60997C21.1 8.09997 20.53 8.04997 20.1 8.48997C19.76 8.82997 19.49 9.22997 19.29 9.66997C18.85 10.98 18.54 12.36 18.11 13.72L21.54 14.23L21.29 15.17L17.98 14.68L17.61 16.69L21.17 17.2L20.92 18.14L17.42 17.63C17.17 18.44 17.05 19.32 16.73 20.07C16.42 20.95 16.11 21.82 15.73 22.63C15.22 23.69 14.36 24.44 13.17 24.63C12.48 24.75 11.73 24.69 11.17 24.25C10.97 24.12 10.84 23.92 10.8 23.69C10.8 23.43 10.91 23.17 11.11 23C11.23 22.94 11.55 23 11.73 23.06C11.93 23.26 12.1 23.49 12.24 23.75C12.61 24.26 13.11 24.31 13.61 23.94C14.17 23.43 14.48 22.76 14.67 22.07C15.04 20.57 15.42 19.13 15.73 17.63V17.37L12.42 16.86L12.54 15.92L15.97 16.43L16.4 14.5L12.84 13.94L12.96 12.94L16.64 13.45C16.76 13.07 16.83 12.76 16.95 12.45C17.26 11.33 17.57 10.2 18.32 9.19997C19.07 8.19997 19.94 7.57997 21.25 7.63997C21.82 7.61997 22.36 7.84997 22.75 8.25997C22.85 8.33997 22.91 8.44997 22.94 8.56997C22.94 8.80997 22.94 9.12997 22.75 9.30997L22.79 9.28997Z" fill="#213147"/>
</svg>
