<svg width="34" height="33" viewBox="0 0 34 33" fill="none" xmlns="http://www.w3.org/2000/svg">
<path d="M32.83 16.45C32.83 25.29 25.67 32.45 16.83 32.45C7.98999 32.45 0.829987 25.29 0.829987 16.45C0.829987 7.61001 7.98999 0.450012 16.83 0.450012C25.67 0.450012 32.83 7.61001 32.83 16.45Z" fill="white" stroke="#393D4F" stroke-width="0.5"/>
<path d="M28.61 22.4L17.8 3.01001C17.61 2.66001 17.25 2.45001 16.86 2.45001C16.47 2.45001 16.1 2.67001 15.92 3.01001L5.11 22.4C4.83 22.91 5 23.55 5.49 23.85L16.31 30.32C16.66 30.52 17.09 30.52 17.43 30.32L28.24 23.86C28.73 23.55 28.89 22.91 28.6 22.4H28.61ZM20.43 14.58L20.17 14.36L20.15 14.34C20.07 14.27 19.98 14.21 19.89 14.15L19.87 14.13C19.78 14.07 19.69 14.01 19.59 13.95C19.57 13.95 19.57 13.93 19.56 13.93C19.47 13.87 19.38 13.83 19.28 13.78C19.26 13.78 19.26 13.76 19.25 13.76C19.16 13.71 19.06 13.67 18.96 13.63C18.94 13.63 18.94 13.61 18.93 13.61C18.84 13.58 18.75 13.54 18.67 13.51C18.43 13.42 18.18 13.35 17.93 13.3C17.74 13.66 17.48 13.99 17.18 14.27C17.63 14.3 18.06 14.41 18.48 14.58C18.71 14.68 18.94 14.8 19.16 14.94C19.17 14.94 19.18 14.94 19.19 14.96C19.25 14.99 19.3 15.03 19.35 15.08C19.38 15.1 19.4 15.11 19.42 15.14C19.47 15.17 19.52 15.22 19.57 15.26C19.6 15.29 19.63 15.31 19.66 15.33C19.71 15.38 19.75 15.4 19.79 15.45L19.88 15.54L20 15.66L20.09 15.75C20.09 15.75 20.16 15.83 20.19 15.87C20.22 15.9 20.25 15.94 20.28 15.97L20.37 16.1C20.37 16.1 20.42 16.18 20.44 16.22L20.53 16.35C20.53 16.35 20.58 16.43 20.6 16.47C20.63 16.52 20.65 16.56 20.67 16.6C20.7 16.65 20.72 16.69 20.74 16.73C20.76 16.78 20.79 16.82 20.8 16.86C20.82 16.92 20.85 16.97 20.87 17.02C20.99 17.32 21.08 17.64 21.12 17.96L21.25 18.48C21.31 18.7 21.84 20.59 23.08 21.22C24.5 21.96 26.37 22.87 27.11 23.22L17.4 29.03V25.05C17.4 24.42 18.65 23.68 19.23 23.43L19.26 23.41C19.38 23.35 19.5 23.29 19.62 23.22L19.67 23.19C19.92 23.04 20.16 22.87 20.38 22.67C20.4 22.65 20.43 22.64 20.44 22.61C20.47 22.59 20.49 22.56 20.51 22.55C20.58 22.49 20.64 22.42 20.72 22.36L20.75 22.33C20.83 22.26 20.9 22.18 20.96 22.09C20.98 22.06 21.01 22.04 21.02 22.02C21.08 21.95 21.13 21.89 21.18 21.81C21.2 21.79 21.21 21.76 21.23 21.75L21.41 21.49C21.41 21.49 21.43 21.47 21.43 21.46C21.5 21.34 21.58 21.21 21.65 21.09C21.38 20.75 21.15 20.39 20.96 20C20.88 20.22 20.79 20.43 20.68 20.63C20.63 20.72 20.58 20.81 20.53 20.89C20.51 20.91 20.51 20.92 20.5 20.92C20.45 20.99 20.4 21.06 20.35 21.13C20.33 21.15 20.32 21.18 20.3 21.19C20.25 21.26 20.2 21.32 20.14 21.38C20.12 21.4 20.12 21.41 20.11 21.41C19.75 21.81 19.32 22.14 18.84 22.38L18.75 22.43C18.5 22.53 16.33 23.52 16.33 25.01V28.99L6.60002 23.2C7.23002 22.82 9.06002 21.72 10.57 21.25C11.16 21.06 12.41 21.85 13.12 22.43L13.17 22.48C13.26 22.57 13.36 22.66 13.46 22.73L13.49 22.76C13.71 22.95 13.96 23.11 14.21 23.25L14.39 23.34C14.39 23.34 14.41 23.34 14.42 23.36C14.58 23.45 14.75 23.53 14.92 23.6C14.94 23.61 14.97 23.62 14.99 23.63C15.01 23.63 15.02 23.65 15.05 23.65C15.3 23.74 15.55 23.81 15.8 23.87C16 23.5 16.26 23.18 16.57 22.9C16.16 22.87 15.75 22.78 15.36 22.64C15.34 22.62 15.31 22.62 15.3 22.61C15.25 22.6 15.21 22.58 15.17 22.55C15.15 22.53 15.12 22.53 15.11 22.52C15.06 22.5 15.02 22.47 14.99 22.46C14.7 22.32 14.43 22.15 14.18 21.94L13.8 21.58C13.44 21.27 13.06 20.99 12.65 20.75C11.69 20.2 10.88 20.03 10.26 20.22C8.98002 20.63 7.52002 21.41 6.63002 21.93L16.35 4.47001V12.12C16.35 12.38 15.95 13.09 14.61 13.7L14.52 13.75C14.39 13.81 14.27 13.88 14.14 13.96L14.11 13.98C13.86 14.13 13.61 14.31 13.39 14.5C13.25 14.62 13.11 14.75 12.99 14.88L12.97 14.9C12.84 15.03 12.72 15.17 12.61 15.31L12.59 15.33C12.53 15.4 12.49 15.48 12.43 15.55C12.43 15.57 12.41 15.57 12.41 15.58C12.36 15.65 12.32 15.71 12.28 15.79C12.28 15.81 12.26 15.81 12.26 15.82L12.13 16.04C12.13 16.04 12.11 16.07 12.1 16.1C12.05 16.17 12.03 16.25 12 16.31C12 16.32 12 16.33 11.98 16.34C11.95 16.41 11.92 16.47 11.89 16.55C11.88 16.57 11.87 16.6 11.86 16.62L11.77 16.84C11.77 16.84 11.75 16.89 11.74 16.91C11.73 16.97 11.71 17.02 11.68 17.07C11.67 17.1 11.66 17.13 11.65 17.16C11.63 17.23 11.6 17.31 11.59 17.37C11.58 17.4 11.57 17.44 11.56 17.47C11.54 17.52 11.54 17.57 11.53 17.62C11.51 17.67 11.51 17.71 11.5 17.75C11.48 17.81 11.48 17.87 11.47 17.93C11.47 17.98 11.45 18 11.45 18.05C11.45 18.11 11.43 18.15 11.43 18.21C11.43 18.26 11.43 18.32 11.41 18.37V18.59C11.41 18.86 11.43 19.12 11.47 19.39C11.89 19.5 12.3 19.65 12.68 19.85C12.56 19.46 12.5 19.06 12.49 18.66V18.59C12.49 18.49 12.49 18.39 12.51 18.3V18.23C12.51 18.15 12.52 18.06 12.54 17.98V17.95C12.56 17.86 12.57 17.77 12.59 17.67C12.59 17.64 12.61 17.62 12.61 17.6C12.63 17.53 12.66 17.45 12.67 17.38C12.67 17.36 12.69 17.35 12.69 17.33L12.78 17.07C12.78 17.07 12.8 17.02 12.81 17.01C12.84 16.94 12.87 16.86 12.9 16.8C12.92 16.78 12.92 16.77 12.93 16.74C12.97 16.66 13.01 16.58 13.06 16.5C13.07 16.49 13.08 16.47 13.09 16.45C13.14 16.38 13.16 16.32 13.21 16.24C13.22 16.23 13.23 16.21 13.24 16.19C13.29 16.11 13.34 16.04 13.4 15.97C13.4 15.97 13.4 15.97 13.41 15.97C13.47 15.9 13.51 15.84 13.57 15.76C13.58 15.75 13.59 15.73 13.6 15.71C13.87 15.42 14.17 15.16 14.5 14.94L14.96 14.72C15.21 14.62 17.37 13.6 17.37 12.11V4.49001L27.18 22.1C26.31 21.67 24.76 20.91 23.57 20.29C22.88 19.93 22.42 18.68 22.29 18.22L22.16 17.69C22.15 17.4 22.09 17.12 22 16.85C21.69 15.97 21.16 15.19 20.46 14.58" fill="#51377C"/>
</svg>
