<svg width="33" height="33" viewBox="0 0 33 33" fill="none" xmlns="http://www.w3.org/2000/svg">
<path d="M18.67 13.85C18.76 13.88 18.85 13.92 18.93 13.95C18.94 13.95 18.94 13.97 18.96 13.97C19.06 14.02 19.17 14.06 19.25 14.1C19.26 14.1 19.26 14.12 19.28 14.12C19.38 14.16 19.47 14.21 19.56 14.27C19.57 14.27 19.57 14.29 19.59 14.29C19.69 14.35 19.78 14.41 19.87 14.47L19.89 14.49C19.98 14.55 20.07 14.61 20.15 14.68L20.17 14.7L20.43 14.92C21.13 15.53 21.66 16.31 21.97 17.19C22.07 17.46 22.12 17.74 22.13 18.03L22.26 18.56C22.39 19.02 22.85 20.27 23.54 20.63C24.73 21.25 26.28 22.02 27.15 22.44L17.34 4.83V12.45C17.34 13.94 15.19 14.96 14.93 15.06L14.47 15.28C14.14 15.5 13.84 15.75 13.57 16.05C13.57 16.07 13.55 16.08 13.54 16.1C13.48 16.17 13.44 16.23 13.38 16.31C13.38 16.31 13.38 16.31 13.37 16.31C13.31 16.38 13.26 16.46 13.21 16.53C13.21 16.55 13.19 16.56 13.18 16.58C13.13 16.65 13.11 16.71 13.06 16.79C13.06 16.81 13.04 16.82 13.03 16.84C12.98 16.91 12.93 16.99 12.9 17.08C12.89 17.11 12.89 17.12 12.87 17.14C12.84 17.2 12.81 17.27 12.78 17.35C12.77 17.36 12.77 17.39 12.75 17.41L12.66 17.67C12.66 17.67 12.64 17.7 12.64 17.72C12.63 17.79 12.6 17.87 12.58 17.94C12.58 17.97 12.56 17.99 12.56 18.01C12.54 18.11 12.53 18.2 12.51 18.29V18.32C12.49 18.4 12.48 18.49 12.48 18.57V18.64C12.47 18.74 12.46 18.84 12.46 18.93V19C12.46 19.4 12.53 19.81 12.65 20.19C12.26 19.99 11.86 19.84 11.44 19.73C11.4 19.47 11.38 19.2 11.38 18.93V18.71C11.39 18.66 11.4 18.6 11.4 18.55C11.4 18.49 11.42 18.45 11.42 18.39C11.42 18.34 11.44 18.32 11.44 18.27C11.45 18.21 11.45 18.15 11.47 18.09C11.48 18.04 11.48 18 11.5 17.96C11.51 17.91 11.51 17.86 11.53 17.81C11.53 17.78 11.55 17.74 11.56 17.71C11.57 17.65 11.6 17.58 11.62 17.5C11.62 17.47 11.64 17.44 11.65 17.41C11.67 17.36 11.69 17.3 11.71 17.25C11.71 17.22 11.73 17.2 11.74 17.18L11.83 16.96C11.83 16.96 11.85 16.91 11.86 16.89C11.89 16.82 11.92 16.76 11.95 16.68C11.95 16.68 11.97 16.66 11.97 16.65C12 16.59 12.03 16.52 12.07 16.44C12.08 16.41 12.08 16.4 12.1 16.38L12.23 16.16C12.23 16.16 12.25 16.15 12.25 16.13C12.3 16.06 12.34 16 12.38 15.92C12.38 15.91 12.4 15.91 12.4 15.89C12.46 15.82 12.5 15.74 12.56 15.67L12.58 15.65C12.69 15.5 12.8 15.36 12.94 15.24L12.96 15.22C13.08 15.08 13.21 14.95 13.36 14.84C13.59 14.65 13.83 14.48 14.08 14.32L14.11 14.3C14.24 14.23 14.36 14.15 14.49 14.09L14.58 14.04C15.92 13.43 16.32 12.73 16.32 12.46V4.81L6.60001 22.27C7.48001 21.75 8.95001 20.97 10.23 20.56C10.85 20.37 11.66 20.54 12.62 21.09C13.03 21.33 13.41 21.6 13.77 21.92L14.15 22.28C14.4 22.48 14.67 22.66 14.96 22.8C14.99 22.81 15.03 22.84 15.08 22.86C15.09 22.87 15.12 22.87 15.14 22.89C15.18 22.91 15.23 22.93 15.27 22.95C15.28 22.96 15.31 22.96 15.33 22.98C15.72 23.13 16.13 23.22 16.54 23.24C16.23 23.52 15.97 23.85 15.77 24.21C15.52 24.15 15.26 24.07 15.02 23.99C14.99 23.99 14.98 23.97 14.96 23.97C14.93 23.97 14.91 23.95 14.89 23.94C14.72 23.87 14.55 23.79 14.39 23.7C14.39 23.7 14.37 23.68 14.36 23.68L14.18 23.59C13.92 23.45 13.68 23.29 13.46 23.1L13.43 23.07C13.33 22.99 13.23 22.91 13.14 22.82L13.09 22.77C12.38 22.2 11.13 21.4 10.54 21.59C9.04001 22.06 7.20001 23.15 6.57001 23.54L16.3 29.33V25.35C16.3 23.86 18.47 22.87 18.72 22.77L18.81 22.72C19.29 22.48 19.72 22.15 20.08 21.75C20.09 21.75 20.09 21.74 20.11 21.72C20.17 21.66 20.23 21.6 20.27 21.53C20.29 21.52 20.3 21.49 20.32 21.47C20.37 21.4 20.42 21.33 20.47 21.26C20.48 21.26 20.48 21.25 20.5 21.23C20.55 21.14 20.6 21.05 20.65 20.97C20.76 20.77 20.86 20.56 20.93 20.34C21.12 20.73 21.35 21.09 21.62 21.43C21.55 21.55 21.47 21.68 21.4 21.8C21.4 21.81 21.38 21.81 21.38 21.83L21.2 22.09C21.2 22.09 21.17 22.13 21.15 22.15C21.1 22.22 21.05 22.29 20.99 22.36C20.98 22.39 20.95 22.41 20.93 22.43C20.87 22.52 20.8 22.59 20.72 22.67L20.69 22.7C20.62 22.76 20.56 22.83 20.48 22.89C20.45 22.9 20.43 22.93 20.41 22.95C20.4 22.98 20.37 22.99 20.35 23.01C20.13 23.2 19.89 23.38 19.64 23.53L19.59 23.56C19.47 23.63 19.36 23.69 19.23 23.75L19.2 23.77C18.63 24.02 17.37 24.76 17.37 25.39V29.37L27.08 23.56C26.34 23.21 24.47 22.29 23.05 21.56C21.81 20.92 21.28 19.04 21.22 18.82L21.09 18.3C21.05 17.98 20.96 17.66 20.84 17.36C20.81 17.31 20.79 17.25 20.77 17.2C20.76 17.15 20.73 17.11 20.71 17.07C20.68 17.02 20.66 16.98 20.64 16.94C20.61 16.89 20.59 16.85 20.57 16.81C20.54 16.77 20.52 16.73 20.5 16.69L20.41 16.56C20.41 16.56 20.36 16.48 20.34 16.44L20.25 16.31C20.25 16.31 20.19 16.24 20.16 16.21C20.12 16.17 20.09 16.13 20.06 16.09L19.97 16L19.85 15.88L19.76 15.79C19.76 15.79 19.67 15.72 19.63 15.67C19.6 15.64 19.57 15.62 19.54 15.6C19.49 15.56 19.44 15.51 19.39 15.48C19.37 15.46 19.34 15.44 19.32 15.42C19.27 15.37 19.22 15.33 19.16 15.3C19.16 15.3 19.14 15.28 19.13 15.28C18.91 15.14 18.69 15.03 18.45 14.92C18.04 14.75 17.6 14.64 17.15 14.61C17.45 14.33 17.71 14 17.9 13.64C18.15 13.69 18.4 13.76 18.64 13.85H18.67Z" fill="#213147"/>
<path d="M16.83 0.779999C7.98999 0.779999 0.829987 7.94 0.829987 16.78C0.829987 25.62 7.98999 32.78 16.83 32.78C25.67 32.78 32.83 25.62 32.83 16.78C32.83 7.94 25.67 0.779999 16.83 0.779999ZM28.24 24.18L17.43 30.64C17.08 30.84 16.65 30.84 16.31 30.64L5.48999 24.17C4.98999 23.87 4.81999 23.23 5.10999 22.72L15.92 3.33C16.11 2.98 16.47 2.77 16.86 2.77C17.25 2.77 17.62 2.99 17.8 3.33L28.61 22.72C28.89 23.23 28.73 23.87 28.25 24.18H28.24Z" fill="#213147"/>
</svg>
