<svg width="32" height="32" viewBox="0 0 32 32" fill="none" xmlns="http://www.w3.org/2000/svg">
<g clip-path="url(#clip0_297_169)">
<path d="M17.67 12.85C17.76 12.88 17.85 12.92 17.93 12.95C17.94 12.95 17.94 12.97 17.96 12.97C18.06 13.02 18.17 13.06 18.25 13.1C18.26 13.1 18.26 13.12 18.28 13.12C18.38 13.16 18.47 13.21 18.56 13.27C18.57 13.27 18.57 13.29 18.59 13.29C18.69 13.35 18.78 13.41 18.87 13.47L18.89 13.49C18.98 13.55 19.07 13.61 19.15 13.68L19.17 13.7L19.43 13.92C20.13 14.53 20.66 15.31 20.97 16.19C21.07 16.46 21.12 16.74 21.13 17.03L21.26 17.56C21.39 18.02 21.85 19.27 22.54 19.63C23.73 20.25 25.28 21.02 26.15 21.44L16.34 3.83003V11.45C16.34 12.94 14.19 13.96 13.93 14.06L13.47 14.28C13.14 14.5 12.84 14.75 12.57 15.05C12.57 15.07 12.55 15.08 12.54 15.1C12.48 15.17 12.44 15.23 12.38 15.31C12.38 15.31 12.38 15.31 12.37 15.31C12.31 15.38 12.26 15.46 12.21 15.53C12.21 15.55 12.19 15.56 12.18 15.58C12.13 15.65 12.11 15.71 12.06 15.79C12.06 15.81 12.04 15.82 12.03 15.84C11.98 15.91 11.93 15.99 11.9 16.08C11.89 16.11 11.89 16.12 11.87 16.14C11.84 16.2 11.81 16.27 11.78 16.35C11.77 16.36 11.77 16.39 11.75 16.41L11.66 16.67C11.66 16.67 11.64 16.7 11.64 16.72C11.63 16.79 11.6 16.87 11.58 16.94C11.58 16.97 11.56 16.99 11.56 17.01C11.54 17.11 11.53 17.2 11.51 17.29V17.32C11.49 17.4 11.48 17.49 11.48 17.57V17.64C11.47 17.74 11.46 17.84 11.46 17.93V18C11.46 18.4 11.53 18.81 11.65 19.19C11.26 18.99 10.86 18.84 10.44 18.73C10.4 18.47 10.38 18.2 10.38 17.93V17.71C10.39 17.66 10.4 17.6 10.4 17.55C10.4 17.49 10.42 17.45 10.42 17.39C10.42 17.34 10.44 17.32 10.44 17.27C10.45 17.21 10.45 17.15 10.47 17.09C10.48 17.04 10.48 17 10.5 16.96C10.51 16.91 10.51 16.86 10.53 16.81C10.53 16.78 10.55 16.74 10.56 16.71C10.57 16.65 10.6 16.58 10.62 16.5C10.62 16.47 10.64 16.44 10.65 16.41C10.67 16.36 10.69 16.3 10.71 16.25C10.71 16.22 10.73 16.2 10.74 16.18L10.83 15.96C10.83 15.96 10.85 15.91 10.86 15.89C10.89 15.82 10.92 15.76 10.95 15.68C10.95 15.68 10.97 15.66 10.97 15.65C11 15.59 11.03 15.52 11.07 15.44C11.08 15.41 11.08 15.4 11.1 15.38L11.23 15.16C11.23 15.16 11.25 15.15 11.25 15.13C11.3 15.06 11.34 15 11.38 14.92C11.38 14.91 11.4 14.91 11.4 14.89C11.46 14.82 11.5 14.74 11.56 14.67L11.58 14.65C11.69 14.5 11.8 14.36 11.94 14.24L11.96 14.22C12.08 14.08 12.21 13.95 12.36 13.84C12.59 13.65 12.83 13.48 13.08 13.32L13.11 13.3C13.24 13.23 13.36 13.15 13.49 13.09L13.58 13.04C14.92 12.43 15.32 11.73 15.32 11.46V3.81003L5.60001 21.27C6.48001 20.75 7.95001 19.97 9.23001 19.56C9.85001 19.37 10.66 19.54 11.62 20.09C12.03 20.33 12.41 20.6 12.77 20.92L13.15 21.28C13.4 21.48 13.67 21.66 13.96 21.8C13.99 21.81 14.03 21.84 14.08 21.86C14.09 21.87 14.12 21.87 14.14 21.89C14.18 21.91 14.23 21.93 14.27 21.95C14.28 21.96 14.31 21.96 14.33 21.98C14.72 22.13 15.13 22.22 15.54 22.24C15.23 22.52 14.97 22.85 14.77 23.21C14.52 23.15 14.26 23.07 14.02 22.99C13.99 22.99 13.98 22.97 13.96 22.97C13.93 22.97 13.91 22.95 13.89 22.94C13.72 22.87 13.55 22.79 13.39 22.7C13.39 22.7 13.37 22.68 13.36 22.68L13.18 22.59C12.92 22.45 12.68 22.29 12.46 22.1L12.43 22.07C12.33 21.99 12.23 21.91 12.14 21.82L12.09 21.77C11.38 21.2 10.13 20.4 9.54001 20.59C8.04001 21.06 6.20001 22.15 5.57001 22.54L15.3 28.33V24.35C15.3 22.86 17.47 21.87 17.72 21.77L17.81 21.72C18.29 21.48 18.72 21.15 19.08 20.75C19.09 20.75 19.09 20.74 19.11 20.72C19.17 20.66 19.23 20.6 19.27 20.53C19.29 20.52 19.3 20.49 19.32 20.47C19.37 20.4 19.42 20.33 19.47 20.26C19.48 20.26 19.48 20.25 19.5 20.23C19.55 20.14 19.6 20.05 19.65 19.97C19.76 19.77 19.86 19.56 19.93 19.34C20.12 19.73 20.35 20.09 20.62 20.43C20.55 20.55 20.47 20.68 20.4 20.8C20.4 20.81 20.38 20.81 20.38 20.83L20.2 21.09C20.2 21.09 20.17 21.13 20.15 21.15C20.1 21.22 20.05 21.29 19.99 21.36C19.98 21.39 19.95 21.41 19.93 21.43C19.87 21.52 19.8 21.59 19.72 21.67L19.69 21.7C19.62 21.76 19.56 21.83 19.48 21.89C19.45 21.9 19.43 21.93 19.41 21.95C19.4 21.98 19.37 21.99 19.35 22.01C19.13 22.2 18.89 22.38 18.64 22.53L18.59 22.56C18.47 22.63 18.36 22.69 18.23 22.75L18.2 22.77C17.63 23.02 16.37 23.76 16.37 24.39V28.37L26.08 22.56C25.34 22.21 23.47 21.29 22.05 20.56C20.81 19.92 20.28 18.04 20.22 17.82L20.09 17.3C20.05 16.98 19.96 16.66 19.84 16.36C19.81 16.31 19.79 16.25 19.77 16.2C19.76 16.15 19.73 16.11 19.71 16.07C19.68 16.02 19.66 15.98 19.64 15.94C19.61 15.89 19.59 15.85 19.57 15.81C19.54 15.77 19.52 15.73 19.5 15.69L19.41 15.56C19.41 15.56 19.36 15.48 19.34 15.44L19.25 15.31C19.25 15.31 19.19 15.24 19.16 15.21C19.12 15.17 19.09 15.13 19.06 15.09L18.76 14.79C18.76 14.79 18.67 14.72 18.63 14.67C18.6 14.64 18.57 14.62 18.54 14.6C18.49 14.56 18.44 14.51 18.39 14.48C18.37 14.46 18.34 14.44 18.32 14.42C18.27 14.37 18.22 14.33 18.16 14.3C18.16 14.3 18.14 14.28 18.13 14.28C17.91 14.14 17.69 14.03 17.45 13.92C17.04 13.75 16.6 13.64 16.15 13.61C16.45 13.33 16.71 13 16.9 12.64C17.15 12.69 17.4 12.76 17.64 12.85H17.67Z" fill="#213147"/>
<path d="M15.83 -0.219971C6.98999 -0.219971 -0.170013 6.94003 -0.170013 15.78C-0.170013 24.62 6.98999 31.78 15.83 31.78C24.67 31.78 31.83 24.62 31.83 15.78C31.83 6.94003 24.67 -0.219971 15.83 -0.219971ZM27.24 23.18L16.43 29.64C16.08 29.84 15.65 29.84 15.31 29.64L4.48999 23.17C3.98999 22.87 3.81999 22.23 4.10999 21.72L14.92 2.33003C15.11 1.98003 15.47 1.77003 15.86 1.77003C16.25 1.77003 16.62 1.99003 16.8 2.33003L27.61 21.72C27.89 22.23 27.73 22.87 27.25 23.18H27.24Z" fill="#213147"/>
</g>
<defs>
<clipPath id="clip0_297_169">
<rect width="32" height="32" fill="white"/>
</clipPath>
</defs>
</svg>
