<svg width="32" height="33" viewBox="0 0 32 33" fill="none" xmlns="http://www.w3.org/2000/svg">
<path d="M32 16.34C32 15.78 31.97 15.22 31.91 14.67C31.9 14.54 31.87 14.41 31.85 14.28C31.8 13.86 31.74 13.45 31.65 13.04C31.62 12.92 31.59 12.8 31.56 12.68C31.46 12.27 31.36 11.85 31.23 11.45C31.2 11.36 31.17 11.28 31.14 11.19C30.99 10.76 30.84 10.34 30.66 9.93002C30.64 9.88002 30.61 9.83002 30.58 9.77002C30.45 9.49002 30.32 9.20002 30.18 8.93002C30.18 8.93002 30.18 8.93002 30.18 8.92002C30.1 8.77002 30.02 8.63002 29.94 8.48002C29.93 8.46002 29.91 8.44002 29.9 8.41002C29.81 8.24002 29.7 8.08002 29.6 7.92002C29.57 7.87002 29.55 7.83002 29.52 7.78002C29.38 7.55002 29.23 7.33002 29.08 7.12002C29.05 7.08002 29.02 7.04002 28.99 7.00002C28.96 6.96002 28.93 6.92002 28.9 6.87002C28.88 6.84002 28.86 6.81002 28.83 6.78002C28.53 6.38002 28.21 5.99002 27.87 5.62002C27.87 5.62002 27.85 5.60002 27.84 5.59002C27.79 5.53002 27.74 5.47002 27.68 5.42002C27.48 5.20002 27.27 4.99002 27.05 4.79002C27.02 4.76002 26.99 4.73002 26.96 4.70002C26.91 4.65002 26.85 4.60002 26.8 4.56002C26.49 4.28002 26.18 4.01002 25.85 3.76002C25.85 3.76002 25.77 3.70002 25.73 3.67002C25.62 3.58002 25.51 3.50002 25.39 3.42002C25.2 3.28002 25.02 3.15002 24.82 3.02002C24.74 2.96002 24.65 2.92002 24.56 2.86002C24.54 2.85002 24.52 2.83002 24.49 2.82002C24.44 2.79002 24.39 2.76002 24.34 2.73002C24.32 2.72002 24.31 2.71002 24.29 2.70002C24.16 2.62002 24.02 2.53002 23.89 2.46002C23.68 2.34002 23.47 2.23002 23.25 2.12002C23.07 2.03002 22.89 1.94002 22.71 1.86002C22.59 1.80002 22.47 1.74002 22.34 1.68002C22.18 1.61002 22.01 1.55002 21.85 1.49002C21.6 1.39002 21.34 1.29002 21.08 1.21002C21.08 1.21002 21.07 1.21002 21.06 1.21002C21.01 1.19002 20.96 1.17002 20.9 1.15002C20.75 1.10002 20.6 1.07002 20.45 1.02002C20.2 0.950023 19.94 0.880023 19.68 0.820023C19.63 0.810023 19.57 0.790022 19.52 0.780022C19.3 0.730022 19.07 0.690024 18.85 0.650024C18.58 0.600024 18.3 0.560023 18.02 0.520023C17.86 0.500023 17.7 0.480022 17.54 0.460022C17.53 0.460022 17.51 0.460022 17.5 0.460022C17.5 0.460022 17.43 0.460022 17.4 0.460022C17 0.430022 16.61 0.400024 16.2 0.400024C16.15 0.400024 16.09 0.400024 16.04 0.400024C15.5 0.400024 14.97 0.430022 14.44 0.480022C14.18 0.510022 13.94 0.550023 13.68 0.590023C13.42 0.630023 13.15 0.660022 12.89 0.710022C12.59 0.770022 12.3 0.850023 12.01 0.930023C11.95 0.950023 11.89 0.960022 11.83 0.980022C11.69 1.02002 11.55 1.05002 11.42 1.09002C11.18 1.16002 10.94 1.25002 10.7 1.34002C10.56 1.39002 10.41 1.44002 10.27 1.50002C10.18 1.53002 10.09 1.56002 10.01 1.60002C9.7 1.73002 9.4 1.87002 9.1 2.02002C8.99 2.07002 8.89 2.12002 8.78 2.17002C8.74 2.19002 8.71 2.20002 8.67 2.22002C8.36 2.38002 8.06 2.56002 7.76 2.74002C7.65 2.81002 7.53 2.88002 7.42 2.95002C7.42 2.95002 7.41 2.95002 7.4 2.96002C7.09 3.16002 6.79 3.37002 6.5 3.59002C6 3.96002 5.53 4.36002 5.08 4.78002C3.91 5.88002 2.91 7.16002 2.11 8.57002C1.99 8.78002 1.88 8.99002 1.78 9.21002C1.69 9.39002 1.6 9.57002 1.52 9.75002C1.43 9.95002 1.33 10.16 1.25 10.37C1.11 10.72 0.98 11.07 0.86 11.43C0.8 11.61 0.75 11.78 0.7 11.96C0.61 12.28 0.53 12.59 0.45 12.92C0.42 13.04 0.39 13.15 0.37 13.26C0.28 13.7 0.22 14.14 0.17 14.59C0.16 14.71 0.14 14.84 0.13 14.96C0.03 15.37 0 15.85 0 16.34C0 16.83 0.03 17.3 0.07 17.78C0.07 17.8 0.07 17.82 0.07 17.84C0.08 17.97 0.1 18.1 0.11 18.23C0.15 18.57 0.2 18.9 0.26 19.23C0.29 19.39 0.32 19.56 0.35 19.72C0.43 20.09 0.53 20.46 0.63 20.82C0.67 20.95 0.7 21.09 0.74 21.22C0.76 21.27 0.78 21.32 0.8 21.37C0.82 21.44 0.85 21.51 0.88 21.59C0.92 21.72 0.97 21.84 1.02 21.97C1.38 22.92 1.82 23.82 2.34 24.67C2.87 25.54 3.49 26.36 4.18 27.12C4.52 27.49 4.88 27.85 5.25 28.19C5.62 28.53 6.01 28.85 6.41 29.15C6.74 29.4 7.08 29.64 7.43 29.86C7.47 29.89 7.52 29.91 7.56 29.94C7.88 30.14 8.21 30.34 8.54 30.51C8.86 30.68 9.19 30.84 9.53 30.99C9.65 31.04 9.77 31.1 9.9 31.15C10.3 31.31 10.7 31.46 11.11 31.59C11.22 31.62 11.32 31.65 11.43 31.68C11.8 31.79 12.18 31.89 12.57 31.97C12.66 31.99 12.74 32.01 12.83 32.03C13.28 32.12 13.74 32.19 14.2 32.24C14.31 32.25 14.42 32.26 14.53 32.27C15.01 32.31 15.49 32.34 15.99 32.34C16.52 32.34 17.04 32.31 17.55 32.26C17.94 32.22 18.33 32.16 18.72 32.09C18.83 32.07 18.93 32.06 19.04 32.04C20.01 31.85 20.95 31.57 21.86 31.21C23.64 30.51 25.27 29.49 26.67 28.23C26.9 28.02 27.13 27.82 27.35 27.6C27.84 27.1 28.29 26.57 28.71 26.01C28.74 25.97 28.76 25.94 28.79 25.9C29.36 25.14 29.87 24.32 30.3 23.46C30.35 23.36 30.4 23.26 30.45 23.16C30.72 22.6 30.95 22.02 31.15 21.42C31.15 21.42 31.15 21.42 31.15 21.41C31.68 19.82 31.98 18.12 31.98 16.34H32ZM15.98 6.09002L22.06 16.19L15.98 19.79L9.89 16.19L15.98 6.09002ZM15.98 25.92L9.89 17.35L15.98 20.95L22.07 17.35L15.98 25.92Z" fill="#213147"/>
</svg>
