<svg width="33" height="32" viewBox="0 0 33 32" fill="none" xmlns="http://www.w3.org/2000/svg">
<g clip-path="url(#clip0_348_155)">
<path d="M16 32C24.84 32 32 24.84 32 16C32 7.16 24.84 0 16 0C7.16 0 0 7.16 0 16C0 24.84 7.16 32 16 32Z" fill="url(#paint0_radial_348_155)"/>
<path d="M16 32C24.84 32 32 24.84 32 16C32 7.16 24.84 0 16 0C7.16 0 0 7.16 0 16C0 24.84 7.16 32 16 32Z" fill="url(#paint1_radial_348_155)"/>
<path opacity="0.2" d="M16.8 13.81H28.85C29.2 13.81 29.49 13.52 29.49 13.17V7.42C26.68 3.01 21.77 0.07 16.16 0V13.17C16.16 13.52 16.45 13.81 16.8 13.81Z" fill="url(#paint2_linear_348_155)"/>
<path opacity="0.1" d="M28.8 6.42999L6.42999 28.8C7.10999 29.31 7.81999 29.77 8.57999 30.17L30.17 8.57999C29.77 7.81999 29.31 7.10999 28.8 6.42999Z" fill="#CC4521"/>
<path opacity="0.2" d="M21.44 5.00999V15.78C21.44 16.13 21.73 16.42 22.08 16.42H31.98C31.98 16.28 32 16.14 32 15.99C32 11.4 30.06 7.27999 26.97 4.35999H22.08C21.73 4.35999 21.44 4.64999 21.44 4.99999V5.00999Z" fill="#F09B7D"/>
<path opacity="0.1" d="M7.09 5.75998H11.3C11.65 5.75998 11.94 5.46998 11.94 5.11998V0.539978C9.93 1.06998 8.07 1.96998 6.45 3.17998V5.11998C6.45 5.46998 6.74 5.75998 7.09 5.75998Z" fill="#CC4521"/>
<path opacity="0.2" d="M20.43 10.35H25.98C26.33 10.35 26.62 10.06 26.62 9.70997V4.04997C24.7 2.33997 22.37 1.09997 19.79 0.469971V9.70997C19.79 10.06 20.08 10.35 20.43 10.35Z" fill="#F6CB94"/>
<path opacity="0.1" d="M29.57 7.54999L7.55 29.57C7.89 29.78 8.23 29.99 8.59 30.17L30.17 8.58999C29.98 8.22999 29.78 7.88999 29.57 7.54999Z" fill="#CC4521"/>
<path opacity="0.2" d="M26.72 23.41H22.51C22.16 23.41 21.87 23.7 21.87 24.05V30.87C23.95 30.05 25.82 28.82 27.36 27.26V24.05C27.36 23.7 27.07 23.41 26.72 23.41Z" fill="#CC4521"/>
<path opacity="0.1" d="M12.96 10.4C13.31 10.4 13.6 10.69 13.6 11.04V19.63C13.6 19.98 13.31 20.27 12.96 20.27H8.21001C7.86001 20.27 7.57001 19.98 7.57001 19.63V11.04C7.57001 10.69 7.86001 10.4 8.21001 10.4H12.96Z" fill="url(#paint3_linear_348_155)"/>
<path opacity="0.1" d="M3.03999 12.96C3.03999 12.61 3.32999 12.32 3.67999 12.32H11.47C11.82 12.32 12.11 12.61 12.11 12.96V21.12C12.11 21.47 11.82 21.76 11.47 21.76H3.67999C3.32999 21.76 3.03999 21.47 3.03999 21.12V12.96Z" fill="url(#paint4_linear_348_155)"/>
<path opacity="0.2" d="M19.31 21.71V27.26C19.31 27.61 19.6 27.9 19.95 27.9H26.68C28.72 26.07 30.28 23.73 31.17 21.07H19.95C19.6 21.07 19.31 21.36 19.31 21.71Z" fill="#D45029"/>
<path opacity="0.2" d="M17.17 4.37C17.52 4.37 17.81 4.08 17.81 3.73V0.64C17.81 0.39 17.66 0.18 17.45 0.07C16.97 0.03 16.48 0 15.99 0C11.75 0 7.9 1.67 5.03 4.37H17.17Z" fill="#F7D59B"/>
<path opacity="0.1" d="M2.64 24.8L24.79 2.63997C24.43 2.40997 24.07 2.17997 23.7 1.96997L1.98 23.7C2.19 24.08 2.41 24.44 2.65 24.8H2.64Z" fill="#CC4521"/>
<path opacity="0.2" d="M1.30001 22.31L22.31 1.30001C21.89 1.12001 21.46 0.970007 21.03 0.820007L0.820007 21.03C0.960007 21.47 1.12001 21.89 1.30001 22.31Z" fill="#F7D6A9"/>
<path opacity="0.2" d="M0.759999 20.87L20.87 0.760015C20.42 0.610015 19.95 0.490015 19.48 0.390015L0.389999 19.48C0.489999 19.95 0.609999 20.42 0.759999 20.87Z" fill="#F7D6A9"/>
<path opacity="0.1" d="M27.83 5.26001L5.25 27.83C5.63 28.17 6.02 28.49 6.42 28.8L28.8 6.43001C28.5 6.02001 28.17 5.63001 27.83 5.26001Z" fill="#CC4521"/>
<path opacity="0.1" d="M26.77 4.19L4.19 26.77C4.53 27.14 4.89 27.5 5.26 27.84L27.84 5.26C27.5 4.89 27.14 4.53 26.77 4.19Z" fill="#E1663D"/>
<path opacity="0.2" d="M4.19 26.77L26.77 4.19C26.46 3.91 26.15 3.64 25.82 3.38L3.38 25.82C3.64 26.15 3.91 26.47 4.19 26.77Z" fill="#E1663D"/>
<path opacity="0.1" d="M30.17 8.57998C29.99 8.22998 29.79 7.89998 29.58 7.56998C29.55 7.52998 29.53 7.47998 29.5 7.43998C29.28 7.08998 29.04 6.74998 28.79 6.41998L6.42 28.8C6.75 29.05 7.09 29.28 7.44 29.51C7.48 29.54 7.53 29.56 7.57 29.59C7.9 29.8 8.23 30 8.58 30.18L30.17 8.57998Z" fill="#CC4521"/>
<path opacity="0.08" d="M13.51 0.210029L0.210004 13.52C0.110004 14.16 0.0500043 14.81 0.0200043 15.47L15.46 0.0300293C14.8 0.0500293 14.15 0.120029 13.51 0.220029V0.210029Z" fill="#F7D6A9"/>
<path opacity="0.05" d="M10.66 0.930029L0.929999 10.66C0.649999 11.44 0.429999 12.24 0.279999 13.07L13.08 0.280029C12.25 0.430029 11.45 0.660029 10.67 0.930029H10.66Z" fill="#F7D6A9"/>
<path opacity="0.1" d="M0.350001 19.31L19.3 0.349985C18.8 0.249985 18.29 0.169985 17.78 0.109985L0.110001 17.78C0.170001 18.29 0.250001 18.8 0.350001 19.3V19.31Z" fill="#F7D6A9"/>
<path opacity="0.09" d="M16 0C15.93 0 15.87 0 15.8 0.01L0.01 15.8C0.01 15.87 0 15.93 0 16C0 16.51 0.03 17 0.08 17.5L17.49 0.08C17 0.03 16.5 0 16 0Z" fill="#F7D6A9"/>
<path opacity="0.1" d="M12.43 23.73C12.43 23.38 12.14 23.09 11.79 23.09H1.67C3.77 27.32 7.67 30.48 12.38 31.57C12.4 31.5 12.42 31.43 12.42 31.36V23.73H12.43Z" fill="#CC4521"/>
<path opacity="0.1" d="M21.87 19.47C21.87 19.12 21.58 18.83 21.23 18.83H8.96001C8.61001 18.83 8.32001 19.12 8.32001 19.47V30.04C10.6 31.29 13.22 32 16 32C18.07 32 20.05 31.59 21.87 30.87V19.46V19.47Z" fill="#F7D59B"/>
<path opacity="0.2" d="M9.49 23.68V8.79997C9.49 8.44997 9.2 8.15997 8.85 8.15997H2.06C0.75 10.48 0 13.15 0 16C0 19.05 0.87 21.9 2.35 24.32H8.85C9.2 24.32 9.49 24.03 9.49 23.68Z" fill="url(#paint5_linear_348_155)"/>
<path d="M26.69 26.02C20.81 31.9 11.37 32.01 5.64001 26.28C-0.089993 20.55 0.0300069 11.11 5.91001 5.23998C11.79 -0.64002 21.37 -1.17002 27.1 4.55998C32.83 10.29 32.56 20.15 26.69 26.03" fill="url(#paint6_radial_348_155)"/>
<path d="M5.34 5.89997C11.22 0.00997496 20.67 -0.110025 26.4 5.61997C32.13 11.35 32 20.8 26.12 26.69C20.24 32.58 10.64 33.12 4.91 27.39C-0.819998 21.65 -0.549998 11.78 5.34 5.89997Z" fill="url(#paint7_radial_348_155)"/>
<path d="M16.84 20.26L17.24 18.17C17.85 17.75 18.46 17.24 19.06 16.64C21.61 14.09 22.08 9.52002 22.08 9.52002C22.08 9.52002 17.5 9.99002 14.96 12.54C14.36 13.14 13.84 13.76 13.42 14.37L11.33 14.76L9.58 16.51L12.13 17.2C12.04 17.71 12.06 18.16 12.2 18.53L11.4 19.33L12.27 20.2L13.08 19.39C13.45 19.53 13.9 19.55 14.41 19.46L15.1 22.01L16.85 20.26H16.84ZM16.2 15.4C15.69 14.89 15.69 14.06 16.2 13.55C16.71 13.04 17.54 13.04 18.05 13.55C18.56 14.06 18.56 14.89 18.05 15.4C17.54 15.91 16.71 15.91 16.2 15.4Z" fill="url(#paint8_linear_348_155)"/>
<path d="M16.8 19.99L17.2 17.9C17.81 17.48 18.42 16.97 19.02 16.37C21.57 13.82 22.04 9.25 22.04 9.25C22.04 9.25 17.46 9.72 14.92 12.27C14.32 12.87 13.8 13.49 13.38 14.1L11.29 14.49L9.53999 16.24L12.09 16.93C12 17.44 12.02 17.89 12.16 18.26L11.36 19.06L12.23 19.93L13.04 19.12C13.41 19.26 13.86 19.28 14.37 19.19L15.06 21.74L16.81 19.99H16.8ZM16.15 15.13C15.64 14.62 15.64 13.79 16.15 13.28C16.66 12.77 17.49 12.77 18 13.28C18.51 13.79 18.51 14.62 18 15.13C17.49 15.64 16.66 15.64 16.15 15.13Z" fill="white"/>
<path d="M5.44999 26.38L11.15 20.68C11.3 20.53 11.3 20.28 11.15 20.13C11 19.98 10.75 19.98 10.6 20.13L4.89999 25.83L5.44999 26.38Z" fill="white"/>
<path d="M4.6 25.54L9.21 20.93C9.36 20.78 9.36 20.53 9.21 20.38C9.06 20.23 8.81 20.23 8.66 20.38L4.05 24.99L4.6 25.54Z" fill="white"/>
<path d="M6.29001 27.22L10.9 22.61C11.05 22.46 11.05 22.21 10.9 22.06C10.75 21.91 10.5 21.91 10.35 22.06L5.74001 26.67L6.29001 27.22Z" fill="white"/>
<path d="M16.02 1.4C24.07 1.4 30.62 7.95 30.62 16C30.62 24.05 24.07 30.6 16.02 30.6C7.97 30.6 1.42 24.05 1.42 16C1.42 7.95 7.97 1.4 16.02 1.4ZM16.02 0C7.18 0 0.0200043 7.16 0.0200043 16C0.0200043 24.84 7.18 32 16.02 32C24.86 32 32.02 24.84 32.02 16C32.02 7.16 24.86 0 16.02 0Z" fill="#FFD384"/>
</g>
<defs>
<radialGradient id="paint0_radial_348_155" cx="0" cy="0" r="1" gradientUnits="userSpaceOnUse" gradientTransform="translate(28.8611 -9.31353) rotate(54.17) scale(24.854)">
<stop stop-color="#F8D79C"/>
<stop offset="1" stop-color="#DB6443"/>
</radialGradient>
<radialGradient id="paint1_radial_348_155" cx="0" cy="0" r="1" gradientUnits="userSpaceOnUse" gradientTransform="translate(28.8611 -9.31353) rotate(54.17) scale(24.854)">
<stop stop-color="#F8D79C"/>
<stop offset="1" stop-color="#DB6443"/>
</radialGradient>
<linearGradient id="paint2_linear_348_155" x1="22.83" y1="13.81" x2="22.83" y2="0" gradientUnits="userSpaceOnUse">
<stop stop-color="#CC4521" stop-opacity="0"/>
<stop offset="1" stop-color="#CC4521"/>
</linearGradient>
<linearGradient id="paint3_linear_348_155" x1="10.59" y1="10.4" x2="10.59" y2="19.52" gradientUnits="userSpaceOnUse">
<stop stop-color="#CC4521"/>
<stop offset="1" stop-color="#CC4521" stop-opacity="0"/>
</linearGradient>
<linearGradient id="paint4_linear_348_155" x1="3.03999" y1="17.04" x2="11.42" y2="17.04" gradientUnits="userSpaceOnUse">
<stop stop-color="#CC4521"/>
<stop offset="1" stop-color="#CC4521" stop-opacity="0"/>
</linearGradient>
<linearGradient id="paint5_linear_348_155" x1="4.75" y1="24.32" x2="4.75" y2="8.15997" gradientUnits="userSpaceOnUse">
<stop stop-color="#F9E099" stop-opacity="0"/>
<stop offset="1" stop-color="#F9E099"/>
</linearGradient>
<radialGradient id="paint6_radial_348_155" cx="0" cy="0" r="1" gradientUnits="userSpaceOnUse" gradientTransform="translate(16.4754 15.5336) rotate(135) scale(15.1674 14.7213)">
<stop stop-color="#FFB66B" stop-opacity="0"/>
<stop offset="0.75" stop-color="#FFA73B" stop-opacity="0"/>
<stop offset="0.82" stop-color="#FFA431" stop-opacity="0"/>
<stop offset="0.84" stop-color="#FFA330" stop-opacity="0.01"/>
<stop offset="0.87" stop-color="#FFA230" stop-opacity="0.01"/>
<stop offset="0.89" stop-color="#FF9F30" stop-opacity="0.0169"/>
<stop offset="0.91" stop-color="#FF9C30" stop-opacity="0.0529"/>
<stop offset="0.93" stop-color="#FF9730" stop-opacity="0.1296"/>
<stop offset="0.95" stop-color="#FF922F" stop-opacity="0.2704"/>
<stop offset="0.97" stop-color="#FF8B2F" stop-opacity="0.5041"/>
<stop offset="0.99" stop-color="#FF842F" stop-opacity="0.8464"/>
<stop offset="1" stop-color="#FF822F"/>
</radialGradient>
<radialGradient id="paint7_radial_348_155" cx="0" cy="0" r="1" gradientUnits="userSpaceOnUse" gradientTransform="translate(15.5299 16.4032) rotate(-45) scale(15.1674 14.7213)">
<stop stop-color="#FFB66B" stop-opacity="0"/>
<stop offset="0.68" stop-color="#FFA963" stop-opacity="0"/>
<stop offset="0.81" stop-color="#FF0000" stop-opacity="0"/>
<stop offset="0.84" stop-color="#FE0100" stop-opacity="0.01"/>
<stop offset="0.87" stop-color="#FD0600" stop-opacity="0.01"/>
<stop offset="0.9" stop-color="#FA0F00" stop-opacity="0.0225"/>
<stop offset="0.92" stop-color="#F71A00" stop-opacity="0.0729"/>
<stop offset="0.95" stop-color="#F22A00" stop-opacity="0.1764"/>
<stop offset="0.98" stop-color="#ED3C00" stop-opacity="0.36"/>
<stop offset="1" stop-color="#E85000" stop-opacity="0.8"/>
</radialGradient>
<linearGradient id="paint8_linear_348_155" x1="30.83" y1="36.42" x2="15.27" y2="12.14" gradientUnits="userSpaceOnUse">
<stop stop-color="#FFB66B" stop-opacity="0"/>
<stop offset="0.09" stop-color="#FFB167" stop-opacity="0.01"/>
<stop offset="0.25" stop-color="#FFA55D" stop-opacity="0.0324"/>
<stop offset="0.46" stop-color="#FF914C" stop-opacity="0.1444"/>
<stop offset="0.73" stop-color="#FF7635" stop-opacity="0.4489"/>
<stop offset="1" stop-color="#FF571C"/>
</linearGradient>
<clipPath id="clip0_348_155">
<rect width="32.02" height="32" fill="white"/>
</clipPath>
</defs>
</svg>
