<svg width="32" height="33" viewBox="0 0 32 33" fill="none" xmlns="http://www.w3.org/2000/svg">
<path d="M18 15.92C18.51 15.41 18.51 14.58 18 14.07C17.49 13.56 16.66 13.56 16.15 14.07C15.64 14.58 15.64 15.41 16.15 15.92C16.66 16.43 17.49 16.43 18 15.92Z" fill="#213147"/>
<path d="M16.02 0.780018C15.47 0.780018 14.92 0.81002 14.38 0.86002C6.3 1.67002 0 8.49002 0 16.78C0 20.44 1.24 23.8 3.31 26.5L8.66 21.15C8.81 21 9.06 21 9.21 21.15C9.36 21.3 9.36 21.55 9.21 21.7L3.8 27.11C3.89 27.22 3.99 27.32 4.08 27.42L10.59 20.91C10.74 20.76 10.99 20.76 11.14 20.91C11.29 21.06 11.29 21.31 11.14 21.46L4.6 28C4.69 28.1 4.79 28.19 4.89 28.28L10.34 22.83C10.49 22.68 10.74 22.68 10.89 22.83C11.04 22.98 11.04 23.23 10.89 23.38L5.47 28.8C8.28 31.26 11.96 32.77 15.99 32.77C16.54 32.77 17.09 32.74 17.63 32.69C25.71 31.88 32.01 25.06 32.01 16.77C32.01 7.93002 24.85 0.77002 16.01 0.77002L16.02 0.780018ZM19.01 17.15C18.41 17.75 17.8 18.26 17.19 18.68L16.79 20.77L15.04 22.52L14.35 19.97C13.84 20.06 13.39 20.04 13.02 19.9L12.21 20.71L11.34 19.84L12.14 19.04C12 18.67 11.98 18.22 12.07 17.71L9.52 17.02L11.27 15.27L13.36 14.88C13.78 14.27 14.3 13.65 14.9 13.05C17.45 10.5 22.02 10.03 22.02 10.03C22.02 10.03 21.55 14.61 19 17.15H19.01Z" fill="#213147"/>
</svg>
