<svg width="32" height="32" viewBox="0 0 32 32" fill="none" xmlns="http://www.w3.org/2000/svg">
<g clip-path="url(#clip0_297_98)">
<path d="M16 32C24.8366 32 32 24.8366 32 16C32 7.16344 24.8366 0 16 0C7.16344 0 0 7.16344 0 16C0 24.8366 7.16344 32 16 32Z" fill="#50AFE7"/>
<path d="M26.09 24.24H20.5L20.53 24.21L20.65 24.1L20.73 24.03L20.85 23.92L20.93 23.85C20.93 23.85 21.01 23.77 21.05 23.73L21.11 23.67C21.16 23.62 21.21 23.56 21.26 23.5L21.29 23.47C21.35 23.4 21.41 23.33 21.47 23.26L21.52 23.2C21.56 23.15 21.6 23.1 21.64 23.04C21.66 23.01 21.68 22.98 21.7 22.96C21.73 22.91 21.77 22.86 21.8 22.82C21.82 22.79 21.84 22.76 21.86 22.72C21.89 22.67 21.93 22.61 21.95 22.57C21.97 22.53 21.99 22.5 22.01 22.46C22.04 22.41 22.06 22.36 22.09 22.31C22.11 22.27 22.13 22.24 22.14 22.2C22.17 22.15 22.19 22.09 22.22 22.04C22.24 22 22.25 21.97 22.26 21.93C22.28 21.87 22.31 21.81 22.33 21.75C22.34 21.72 22.35 21.69 22.36 21.66C22.39 21.57 22.42 21.47 22.45 21.37C22.82 19.72 22.49 17.99 21.55 16.59L21.65 16.43C21.74 16.27 21.86 16.12 21.99 15.99C22.08 15.91 22.18 15.84 22.28 15.79C22.34 15.76 22.41 15.74 22.48 15.72C22.55 15.71 22.62 15.7 22.68 15.71C22.73 15.71 22.77 15.71 22.82 15.73C22.93 15.75 23.03 15.8 23.12 15.86C23.15 15.88 23.17 15.89 23.2 15.91C23.24 15.94 23.28 15.97 23.32 16.01C23.4 16.09 23.48 16.18 23.54 16.27C23.58 16.32 23.61 16.37 23.65 16.43L27.1 22.49C27.16 22.58 27.2 22.68 27.24 22.79C27.25 22.82 27.26 22.85 27.27 22.89C27.29 22.95 27.3 23.01 27.31 23.07C27.31 23.13 27.32 23.2 27.31 23.26C27.31 23.33 27.31 23.4 27.29 23.47C27.27 23.56 27.24 23.65 27.19 23.73C27.14 23.81 27.08 23.88 27.01 23.94C26.95 23.99 26.89 24.03 26.83 24.07L26.76 24.11C26.54 24.21 26.3 24.25 26.06 24.25L26.09 24.24ZM19.61 22.02C19.61 21.96 19.6 21.9 19.59 21.84C19.59 21.82 19.59 21.81 19.59 21.79C19.59 21.72 19.57 21.65 19.56 21.59V21.55C19.54 21.49 19.53 21.43 19.52 21.36C19.52 21.34 19.52 21.33 19.52 21.31C19.51 21.24 19.49 21.17 19.47 21.1C19.47 21.08 19.47 21.07 19.46 21.05C19.44 20.98 19.43 20.92 19.41 20.85V20.81C19.38 20.73 19.35 20.66 19.33 20.58L19.31 20.53L18.16 22.51C18.12 22.58 18.08 22.66 18.05 22.73C17.99 22.86 17.95 23 17.94 23.15C17.94 23.21 17.94 23.28 17.94 23.34C17.94 23.39 17.94 23.44 17.96 23.48C18 23.66 18.09 23.83 18.23 23.95C18.3 24.01 18.39 24.07 18.48 24.11C18.7 24.21 18.94 24.25 19.18 24.25H19.31V24.22C19.31 24.22 19.35 24.13 19.37 24.09V24.07C19.37 24.07 19.41 23.99 19.42 23.95V23.91C19.42 23.91 19.46 23.82 19.48 23.78V23.75C19.48 23.75 19.51 23.67 19.52 23.63C19.52 23.62 19.52 23.6 19.52 23.59C19.53 23.54 19.54 23.49 19.55 23.45V23.41C19.55 23.41 19.57 23.32 19.58 23.28V23.24C19.6 23.19 19.6 23.14 19.61 23.08C19.61 23.07 19.61 23.05 19.61 23.04C19.61 22.99 19.62 22.94 19.63 22.9V22.87C19.63 22.81 19.64 22.76 19.64 22.7V22.23C19.64 22.17 19.64 22.1 19.63 22.04V22.01L19.61 22.02ZM15.26 15.02C13.66 12.39 14.58 8.85 17.66 8.15C17.66 8.15 15.79 11.17 18.52 13.28C18.62 13.35 18.71 13.43 18.8 13.5L19.55 12.22C19.55 12.22 19.57 12.17 19.58 12.14C19.62 12.06 19.65 11.98 19.68 11.9C19.74 11.74 19.78 11.57 19.82 11.4C19.84 11.32 19.85 11.23 19.86 11.14C19.89 10.89 19.89 10.64 19.86 10.4C19.86 10.31 19.84 10.23 19.82 10.14C19.81 10.08 19.79 10.01 19.78 9.95C19.76 9.86 19.73 9.76 19.7 9.67C19.67 9.58 19.63 9.49 19.59 9.4C19.58 9.37 19.57 9.35 19.56 9.32L17.75 6.13L16.98 4.75C16.92 4.64 16.84 4.53 16.76 4.44C16.69 4.36 16.61 4.28 16.52 4.21C16.48 4.18 16.44 4.15 16.39 4.13C16.14 4 15.84 4 15.59 4.13C15.5 4.18 15.41 4.24 15.34 4.31C15.25 4.39 15.17 4.48 15.11 4.58C15.07 4.63 15.04 4.69 15 4.75L4.93001 22.48C4.82001 22.67 4.74001 22.87 4.71001 23.08C4.71001 23.13 4.7 23.18 4.7 23.24V23.32C4.7 23.32 4.7 23.42 4.72 23.46C4.72 23.51 4.73999 23.55 4.75999 23.59C4.75999 23.61 4.77999 23.63 4.78999 23.65C4.82999 23.73 4.88 23.8 4.94 23.86C4.96 23.88 4.98 23.9 5 23.92C5.03 23.94 5.05 23.96 5.08 23.98C5.21 24.07 5.36 24.13 5.52 24.16C5.61 24.18 5.7 24.19 5.8 24.2H11C11.06 24.2 11.11 24.2 11.17 24.18H11.22L11.34 24.15H11.39C11.44 24.13 11.5 24.12 11.55 24.11H11.57C11.57 24.11 11.67 24.09 11.71 24.07L11.77 24.05L11.88 24.01L11.93 23.99C11.98 23.97 12.03 23.95 12.08 23.93C11.75 23.55 11.48 23.13 11.26 22.68C9.85999 19.81 11.92 16.33 11.92 16.33C11.92 16.33 11.61 19.63 13.77 19.78C14.37 19.85 14.97 19.66 15.41 19.25C15.53 19.14 15.63 19.01 15.71 18.87L15.77 18.77C15.85 18.63 15.91 18.48 15.95 18.32C16.23 17.16 15.99 15.94 15.29 14.98L15.26 15.02Z" fill="white"/>
</g>
<defs>
<clipPath id="clip0_297_98">
<rect width="32" height="32" fill="white"/>
</clipPath>
</defs>
</svg>
