<svg width="33" height="33" viewBox="0 0 33 33" fill="none" xmlns="http://www.w3.org/2000/svg">
<path d="M16.64 32.45C25.4766 32.45 32.64 25.2866 32.64 16.45C32.64 7.61346 25.4766 0.450012 16.64 0.450012C7.80344 0.450012 0.639999 7.61346 0.639999 16.45C0.639999 25.2866 7.80344 32.45 16.64 32.45Z" fill="#50AFE7"/>
<path d="M26.73 24.69H21.14L21.17 24.66L21.29 24.55L21.37 24.48L21.49 24.37L21.57 24.3C21.57 24.3 21.65 24.22 21.69 24.18L21.75 24.12C21.8 24.07 21.85 24.01 21.9 23.95L21.93 23.92C21.99 23.85 22.05 23.78 22.11 23.71L22.16 23.65C22.2 23.6 22.24 23.55 22.28 23.49C22.3 23.46 22.32 23.43 22.34 23.41C22.37 23.36 22.41 23.31 22.44 23.27C22.46 23.24 22.48 23.21 22.5 23.17C22.53 23.12 22.57 23.06 22.59 23.02C22.61 22.98 22.63 22.95 22.65 22.91C22.68 22.86 22.7 22.81 22.73 22.76C22.75 22.72 22.77 22.69 22.78 22.65C22.81 22.6 22.83 22.54 22.86 22.49C22.88 22.45 22.89 22.42 22.9 22.38C22.92 22.32 22.95 22.26 22.97 22.2C22.98 22.17 22.99 22.14 23 22.11C23.03 22.02 23.06 21.92 23.09 21.82C23.46 20.17 23.13 18.44 22.19 17.04L22.29 16.88C22.38 16.72 22.5 16.57 22.63 16.44C22.72 16.36 22.82 16.29 22.92 16.24C22.98 16.21 23.05 16.19 23.12 16.17C23.19 16.16 23.26 16.15 23.32 16.16C23.37 16.16 23.41 16.16 23.46 16.18C23.57 16.2 23.67 16.25 23.76 16.31C23.79 16.33 23.81 16.34 23.84 16.36C23.88 16.39 23.92 16.42 23.96 16.46C24.04 16.54 24.12 16.63 24.18 16.72C24.22 16.77 24.25 16.82 24.29 16.88L27.74 22.94C27.8 23.03 27.84 23.13 27.88 23.24C27.89 23.27 27.9 23.3 27.91 23.34C27.93 23.4 27.94 23.46 27.95 23.52C27.95 23.58 27.96 23.65 27.95 23.71C27.95 23.78 27.95 23.85 27.93 23.92C27.91 24.01 27.88 24.1 27.83 24.18C27.78 24.26 27.72 24.33 27.65 24.39C27.59 24.44 27.53 24.48 27.47 24.52L27.4 24.56C27.18 24.66 26.94 24.7 26.7 24.7L26.73 24.69ZM20.25 22.47C20.25 22.41 20.24 22.35 20.23 22.29C20.23 22.27 20.23 22.26 20.23 22.24C20.23 22.17 20.21 22.1 20.2 22.04V22C20.18 21.94 20.17 21.88 20.16 21.81C20.16 21.79 20.16 21.78 20.16 21.76C20.15 21.69 20.13 21.62 20.11 21.55C20.11 21.53 20.11 21.52 20.1 21.5C20.08 21.43 20.07 21.37 20.05 21.3V21.26C20.02 21.18 19.99 21.11 19.97 21.03L19.95 20.98L18.8 22.96C18.76 23.03 18.72 23.11 18.69 23.18C18.63 23.31 18.59 23.45 18.58 23.6C18.58 23.66 18.58 23.73 18.58 23.79C18.58 23.84 18.58 23.89 18.6 23.93C18.64 24.11 18.73 24.28 18.87 24.4C18.94 24.46 19.03 24.52 19.12 24.56C19.34 24.66 19.58 24.7 19.82 24.7H19.95V24.67C19.95 24.67 19.99 24.58 20.01 24.54V24.52C20.01 24.52 20.05 24.44 20.06 24.4V24.36C20.06 24.36 20.1 24.27 20.12 24.23V24.2C20.12 24.2 20.15 24.12 20.16 24.08C20.16 24.07 20.16 24.05 20.16 24.04C20.17 23.99 20.18 23.94 20.19 23.9V23.86C20.19 23.86 20.21 23.77 20.22 23.73V23.69C20.24 23.64 20.24 23.59 20.25 23.53C20.25 23.52 20.25 23.5 20.25 23.49C20.25 23.44 20.26 23.39 20.27 23.35V23.32C20.27 23.26 20.28 23.21 20.28 23.15V22.68C20.28 22.62 20.28 22.55 20.27 22.49V22.46L20.25 22.47ZM15.9 15.47C14.3 12.84 15.22 9.30001 18.3 8.60001C18.3 8.60001 16.43 11.62 19.16 13.73C19.26 13.8 19.35 13.88 19.44 13.95L20.19 12.67C20.19 12.67 20.21 12.62 20.22 12.59C20.26 12.51 20.29 12.43 20.32 12.35C20.38 12.19 20.42 12.02 20.46 11.85C20.48 11.77 20.49 11.68 20.5 11.59C20.53 11.34 20.53 11.09 20.5 10.85C20.5 10.76 20.48 10.68 20.46 10.59C20.45 10.53 20.43 10.46 20.42 10.4C20.4 10.31 20.37 10.21 20.34 10.12C20.31 10.03 20.27 9.94001 20.23 9.85001C20.22 9.82001 20.21 9.80001 20.2 9.77001L18.39 6.58001L17.62 5.20001C17.56 5.09001 17.48 4.98001 17.4 4.89001C17.33 4.81001 17.25 4.73001 17.16 4.66001C17.12 4.63001 17.08 4.60001 17.03 4.58001C16.78 4.45001 16.48 4.45001 16.23 4.58001C16.14 4.63001 16.05 4.69001 15.98 4.76001C15.89 4.84001 15.81 4.93001 15.75 5.03001C15.71 5.08001 15.68 5.14001 15.64 5.20001L5.57001 22.93C5.46001 23.12 5.38001 23.32 5.35001 23.53C5.35001 23.58 5.34 23.63 5.34 23.69V23.77C5.34 23.77 5.34 23.87 5.36 23.91C5.36 23.96 5.37999 24 5.39999 24.04C5.39999 24.06 5.41999 24.08 5.42999 24.1C5.46999 24.18 5.52 24.25 5.58 24.31C5.6 24.33 5.62 24.35 5.64 24.37C5.67 24.39 5.69 24.41 5.72 24.43C5.85 24.52 6 24.58 6.16 24.61C6.25 24.63 6.34 24.64 6.44 24.65H11.64C11.7 24.65 11.75 24.65 11.81 24.63H11.86L11.98 24.6H12.03C12.08 24.58 12.14 24.57 12.19 24.56H12.21C12.21 24.56 12.31 24.54 12.35 24.52L12.41 24.5L12.52 24.46L12.57 24.44C12.62 24.42 12.67 24.4 12.72 24.38C12.39 24 12.12 23.58 11.9 23.13C10.5 20.26 12.56 16.78 12.56 16.78C12.56 16.78 12.25 20.08 14.41 20.23C15.01 20.3 15.61 20.11 16.05 19.7C16.17 19.59 16.27 19.46 16.35 19.32L16.41 19.22C16.49 19.08 16.55 18.93 16.59 18.77C16.87 17.61 16.63 16.39 15.93 15.43L15.9 15.47Z" fill="white"/>
</svg>
