<svg width="33" height="33" viewBox="0 0 33 33" fill="none" xmlns="http://www.w3.org/2000/svg">
<path d="M16.64 0.779999C7.8 0.779999 0.639999 7.94 0.639999 16.78C0.639999 25.62 7.8 32.78 16.64 32.78C25.48 32.78 32.64 25.62 32.64 16.78C32.64 7.94 25.48 0.779999 16.64 0.779999ZM20.25 23.48C20.25 23.54 20.24 23.59 20.24 23.65V23.68C20.24 23.68 20.24 23.78 20.22 23.82C20.22 23.83 20.22 23.85 20.22 23.86C20.22 23.91 20.21 23.97 20.2 24.02V24.06C20.2 24.06 20.18 24.15 20.17 24.19V24.23C20.17 24.23 20.14 24.33 20.13 24.37C20.13 24.38 20.13 24.39 20.13 24.41C20.12 24.45 20.11 24.49 20.1 24.53V24.56C20.1 24.56 20.06 24.65 20.05 24.69V24.73C20.05 24.73 20.01 24.81 19.99 24.85V24.87C19.99 24.87 19.95 24.95 19.93 25V25.03H19.79C19.55 25.03 19.31 24.99 19.09 24.89C19 24.85 18.92 24.8 18.84 24.73C18.7 24.61 18.6 24.44 18.57 24.26C18.56 24.21 18.55 24.17 18.55 24.12C18.55 24.06 18.55 23.99 18.55 23.93C18.57 23.79 18.61 23.65 18.66 23.51C18.69 23.43 18.73 23.36 18.77 23.29L19.92 21.31L19.94 21.36C19.97 21.44 19.99 21.52 20.01 21.59V21.63C20.04 21.7 20.06 21.76 20.08 21.83C20.08 21.85 20.08 21.86 20.09 21.88C20.11 21.95 20.13 22.02 20.14 22.09C20.14 22.11 20.14 22.12 20.14 22.14C20.15 22.2 20.16 22.26 20.18 22.33V22.37C20.2 22.44 20.21 22.51 20.22 22.57C20.22 22.59 20.22 22.6 20.22 22.62C20.22 22.68 20.23 22.74 20.24 22.8V22.83C20.24 22.89 20.24 22.96 20.24 23.02V23.49L20.25 23.48ZM20.5 11.92C20.5 12.01 20.48 12.09 20.46 12.18C20.43 12.35 20.38 12.52 20.32 12.68C20.29 12.76 20.26 12.84 20.22 12.92C20.21 12.95 20.2 12.97 20.19 13L19.44 14.28C19.35 14.2 19.25 14.13 19.16 14.06C16.42 11.95 18.3 8.93 18.3 8.93C15.22 9.63 14.3 13.18 15.9 15.8C16.6 16.76 16.85 17.98 16.56 19.14C16.52 19.3 16.46 19.45 16.38 19.59L16.32 19.69C16.24 19.83 16.14 19.96 16.02 20.07C15.58 20.48 14.98 20.68 14.38 20.6C12.23 20.45 12.53 17.15 12.53 17.15C12.53 17.15 10.47 20.63 11.87 23.5C12.09 23.95 12.36 24.37 12.69 24.75C12.64 24.77 12.59 24.79 12.54 24.81L12.49 24.83L12.38 24.87L12.32 24.89C12.32 24.89 12.22 24.92 12.18 24.93H12.16C12.1 24.94 12.05 24.95 12 24.96H11.95L11.83 24.99H11.78C11.72 25.01 11.67 25.01 11.61 25.01H6.41C6.32 25.01 6.22 24.99 6.13 24.97C5.97 24.94 5.82 24.87 5.69 24.79C5.66 24.77 5.63 24.75 5.61 24.73C5.59 24.71 5.57 24.69 5.55 24.67C5.49 24.61 5.43999 24.54 5.39999 24.46C5.39999 24.44 5.38 24.42 5.37 24.4C5.35 24.36 5.34 24.31 5.33 24.27C5.33 24.22 5.31 24.18 5.31 24.13V24.05C5.31 24 5.31001 23.95 5.32001 23.89C5.36001 23.68 5.42999 23.47 5.53999 23.29L15.61 5.56C15.64 5.5 15.68 5.44 15.72 5.39C15.79 5.29 15.87 5.2 15.95 5.12C16.03 5.05 16.11 4.99 16.2 4.94C16.45 4.81 16.75 4.81 17 4.94C17.04 4.96 17.09 4.99 17.13 5.02C17.22 5.09 17.3 5.16 17.37 5.25C17.45 5.35 17.53 5.45 17.59 5.56L18.36 6.94L20.17 10.13C20.17 10.13 20.19 10.18 20.2 10.21C20.24 10.3 20.28 10.39 20.31 10.48C20.34 10.57 20.37 10.67 20.39 10.76C20.41 10.82 20.42 10.88 20.43 10.95C20.45 11.04 20.46 11.12 20.47 11.21C20.5 11.46 20.5 11.7 20.47 11.95L20.5 11.92ZM27.95 24.24C27.93 24.33 27.9 24.42 27.85 24.5C27.8 24.58 27.74 24.65 27.67 24.71C27.61 24.76 27.55 24.8 27.49 24.84L27.42 24.88C27.2 24.98 26.96 25.02 26.72 25.02H21.13L21.16 24.99L21.28 24.88L21.36 24.81L21.48 24.7L21.56 24.63C21.56 24.63 21.64 24.55 21.68 24.51L21.74 24.45C21.79 24.4 21.84 24.34 21.89 24.28L21.92 24.25C21.98 24.18 22.04 24.11 22.1 24.04L22.15 23.98C22.19 23.93 22.23 23.88 22.27 23.82C22.29 23.79 22.31 23.76 22.33 23.74C22.36 23.69 22.4 23.64 22.43 23.6C22.45 23.57 22.47 23.54 22.49 23.5C22.52 23.45 22.56 23.39 22.58 23.35C22.6 23.31 22.62 23.28 22.64 23.24C22.67 23.19 22.69 23.14 22.72 23.09C22.74 23.05 22.76 23.02 22.77 22.98C22.8 22.93 22.82 22.87 22.85 22.82C22.87 22.78 22.88 22.75 22.89 22.71C22.91 22.65 22.94 22.59 22.96 22.53C22.97 22.5 22.98 22.47 22.99 22.44C23.02 22.35 23.05 22.25 23.08 22.15C23.45 20.5 23.12 18.77 22.18 17.37L22.28 17.21C22.37 17.05 22.49 16.9 22.62 16.77C22.71 16.69 22.81 16.62 22.91 16.57C22.97 16.54 23.04 16.52 23.11 16.5C23.18 16.49 23.25 16.48 23.31 16.49C23.36 16.49 23.4 16.49 23.45 16.51C23.56 16.53 23.66 16.58 23.75 16.64C23.78 16.66 23.8 16.67 23.83 16.69C23.87 16.72 23.91 16.75 23.95 16.79C24.03 16.87 24.11 16.96 24.17 17.05C24.21 17.1 24.24 17.15 24.28 17.21L27.73 23.27C27.79 23.36 27.83 23.46 27.87 23.57C27.88 23.6 27.89 23.63 27.9 23.67C27.92 23.73 27.93 23.79 27.94 23.85C27.94 23.91 27.95 23.98 27.94 24.04C27.94 24.11 27.94 24.18 27.92 24.25L27.95 24.24Z" fill="#213147"/>
</svg>
