<svg width="32" height="33" viewBox="0 0 32 33" fill="none" xmlns="http://www.w3.org/2000/svg">
<path d="M32 16.25C32 7.41 24.84 0.25 16 0.25C7.16 0.25 0 7.41 0 16.25C0 25.09 7.16 32.25 16 32.25C24.84 32.25 32 25.09 32 16.25Z" fill="white"/>
<path d="M16.48 26.53V24.78L20.81 22.23V17.02L22.38 16.2L22.43 23.13L16.48 26.53Z" fill="#2C2C2E"/>
<path d="M17.73 13.73L19.51 12.72L23.89 15.48L23.92 23.82L22.43 23.13L22.38 16.2L17.73 13.73ZM16.4 4.16999L23.86 8.44999V10.23L16.4 6.02999V4.16999ZM8.99001 17.24L8.96001 8.52999L16.4 4.14999V6.00999L10.35 9.45999V16.26L9.00001 17.24H8.99001Z" fill="#2C2C2E"/>
<path d="M13.38 19.68L9.00001 17.24L10.35 16.23L17.87 20.56L13.38 23.11L11.89 23.96L16.48 26.56L22.43 23.13L23.92 23.82L16.43 28.28L8.99001 24.03L14.91 20.52L13.37 19.67L13.38 19.68ZM10.35 9.46L16.4 6.03L23.86 10.23L19.5 12.73L17.72 13.74L22.34 16.21L20.8 17.03L14.85 13.66L20.77 10.15L19.36 9.33L16.41 7.63L12 10.18L10.33 9.46H10.35Z" fill="#2C2C2E"/>
<path d="M11.89 23.96L13.38 23.11L16.46 24.81V26.56L11.89 23.96ZM9.02 24.04V22.18L13.38 19.68L14.95 20.53L9.03 24.04H9.02ZM14.86 13.65L14.89 11.87L19.38 9.35001L20.79 10.17L14.87 13.65H14.86ZM10.35 16.25L10.38 9.45001L12.03 10.19L12.06 15.53L17.88 18.77V20.6L10.36 16.24L10.35 16.25Z" fill="#2C2C2E"/>
<path fill-rule="evenodd" clip-rule="evenodd" d="M22.42 16.13C22.42 16.13 22.46 16.17 22.46 16.2L22.51 23.13C22.51 23.13 22.49 23.19 22.47 23.2L16.52 26.6C16.52 26.6 16.43 26.6 16.41 26.57C16.41 26.56 16.4 26.54 16.4 26.53V24.78C16.4 24.78 16.41 24.73 16.44 24.71L20.73 22.18V17.02C20.73 17.02 20.75 16.96 20.77 16.95L22.34 16.13C22.34 16.13 22.39 16.12 22.42 16.13ZM20.89 17.07V22.23C20.89 22.23 20.88 22.28 20.85 22.3L16.56 24.83V26.4L22.35 23.09L22.3 16.34L20.89 17.08V17.07Z" fill="white"/>
<path fill-rule="evenodd" clip-rule="evenodd" d="M19.47 12.65C19.47 12.65 19.53 12.64 19.55 12.65L23.93 15.41C23.93 15.41 23.97 15.45 23.97 15.48L24 23.82C24 23.82 23.96 23.9 23.92 23.9C23.91 23.9 23.9 23.9 23.89 23.9L22.4 23.21C22.4 23.21 22.35 23.17 22.35 23.14L22.3 16.26L17.69 13.81C17.69 13.81 17.64 13.74 17.66 13.7C17.66 13.69 17.68 13.68 17.69 13.67L19.47 12.66V12.65ZM17.9 13.73L22.42 16.13C22.42 16.13 22.46 16.17 22.46 16.2L22.51 23.08L23.84 23.7L23.81 15.53L19.51 12.82L17.9 13.73ZM16.36 4.09999C16.36 4.09999 16.41 4.08999 16.44 4.09999L23.9 8.38C23.9 8.38 23.94 8.42 23.94 8.45V10.23C23.94 10.23 23.9 10.31 23.86 10.31C23.85 10.31 23.83 10.31 23.82 10.3L16.36 6.09999C16.36 6.09999 16.32 6.06 16.32 6.03V4.17C16.32 4.17 16.34 4.11999 16.36 4.09999ZM16.48 4.31V5.98L23.78 10.09V8.49L16.48 4.31Z" fill="white"/>
<path fill-rule="evenodd" clip-rule="evenodd" d="M16.44 4.08C16.44 4.08 16.48 4.12 16.48 4.15V6.01C16.48 6.01 16.46 6.07 16.44 6.08L10.43 9.51V16.26C10.43 16.26 10.42 16.31 10.4 16.32L9.05 17.3C9.05 17.3 8.96 17.32 8.94 17.28C8.94 17.27 8.92 17.25 8.92 17.23L8.89 8.52C8.89 8.52 8.9 8.47 8.93 8.45L16.37 4.07C16.37 4.07 16.43 4.06 16.45 4.07L16.44 4.08ZM9.05 8.57L9.08 17.08L10.28 16.21V9.45C10.28 9.45 10.3 9.39 10.32 9.38L16.33 5.95V4.28L9.05 8.57Z" fill="white"/>
<path fill-rule="evenodd" clip-rule="evenodd" d="M10.3 16.16C10.3 16.16 10.36 16.14 10.39 16.16L17.91 20.49C17.91 20.49 17.96 20.56 17.94 20.6C17.94 20.61 17.92 20.62 17.91 20.63L13.42 23.18L12.05 23.96L16.48 26.47L22.39 23.07C22.39 23.07 22.44 23.06 22.46 23.07L23.95 23.76C23.95 23.76 24.01 23.83 23.99 23.87C23.99 23.88 23.97 23.9 23.96 23.9L16.47 28.36C16.47 28.36 16.41 28.38 16.39 28.36L8.95 24.11C8.95 24.11 8.9 24.04 8.92 24C8.92 23.99 8.94 23.98 8.95 23.97L14.75 20.54L13.33 19.76L8.95 17.32C8.91 17.3 8.9 17.25 8.92 17.21C8.92 17.2 8.93 17.19 8.94 17.18L10.29 16.17L10.3 16.16ZM10.35 16.32L9.14 17.22L13.41 19.6L14.95 20.45C14.99 20.47 15 20.52 14.98 20.56C14.98 20.57 14.96 20.58 14.95 20.59L9.15 24.03L16.43 28.19L23.75 23.83L22.44 23.22L16.53 26.63C16.53 26.63 16.48 26.64 16.45 26.63L11.86 24.03C11.86 24.03 11.81 23.96 11.83 23.92C11.83 23.91 11.85 23.9 11.86 23.89L13.35 23.04L17.72 20.56L10.37 16.33L10.35 16.32ZM16.36 5.96001C16.36 5.96001 16.41 5.95001 16.44 5.96001L23.9 10.16C23.9 10.16 23.95 10.23 23.93 10.27C23.93 10.28 23.91 10.29 23.9 10.3L19.54 12.8L17.89 13.74L22.38 16.14C22.38 16.14 22.43 16.21 22.41 16.25C22.41 16.26 22.39 16.28 22.38 16.28L20.84 17.1C20.84 17.1 20.79 17.11 20.76 17.1L14.81 13.73C14.81 13.73 14.76 13.66 14.78 13.62C14.78 13.61 14.8 13.6 14.81 13.59L20.62 10.15L19.33 9.40001L16.42 7.72001L12.05 10.25C12.05 10.25 12 10.26 11.98 10.25L10.31 9.53001C10.31 9.53001 10.25 9.47001 10.27 9.43001C10.27 9.41001 10.29 9.40001 10.3 9.39001L16.35 5.96001H16.36ZM16.4 6.12001L10.52 9.44001L12.01 10.08L16.38 7.55001C16.38 7.55001 16.44 7.54001 16.46 7.55001L19.41 9.25001L20.82 10.07C20.82 10.07 20.87 10.14 20.85 10.18C20.85 10.19 20.83 10.2 20.82 10.21L15.02 13.65L20.81 16.93L22.18 16.2L17.69 13.8C17.69 13.8 17.64 13.73 17.66 13.69C17.66 13.68 17.68 13.67 17.69 13.66L19.47 12.65L23.7 10.22L16.4 6.12001Z" fill="white"/>
<path fill-rule="evenodd" clip-rule="evenodd" d="M13.34 23.04C13.34 23.04 13.39 23.03 13.42 23.04L16.5 24.74C16.5 24.74 16.54 24.78 16.54 24.81V26.56C16.54 26.56 16.5 26.64 16.46 26.64C16.45 26.64 16.43 26.64 16.42 26.63L11.85 24.03C11.85 24.03 11.8 23.96 11.82 23.92C11.82 23.91 11.84 23.9 11.85 23.89L13.34 23.04ZM13.38 23.2L12.05 23.96L16.38 26.43V24.86L13.38 23.2ZM13.34 19.61C13.34 19.61 13.39 19.6 13.42 19.61L14.99 20.46C14.99 20.46 15.04 20.53 15.02 20.57C15.02 20.58 15 20.59 14.99 20.6L9.07 24.11C9.07 24.11 8.98 24.11 8.96 24.08C8.96 24.07 8.95 24.05 8.95 24.04V22.18C8.95 22.18 8.97 22.12 8.99 22.11L13.35 19.61H13.34ZM13.38 19.77L9.1 22.22V23.89L14.78 20.53L13.38 19.77ZM19.34 9.27999C19.34 9.27999 19.4 9.26999 19.42 9.27999L20.83 10.1C20.83 10.1 20.88 10.17 20.86 10.21C20.86 10.22 20.84 10.23 20.83 10.24L14.91 13.72C14.91 13.72 14.82 13.73 14.8 13.69C14.8 13.68 14.79 13.66 14.79 13.65L14.82 11.87C14.82 11.87 14.84 11.82 14.86 11.8L19.35 9.27999H19.34ZM14.97 11.92L14.95 13.51L20.63 10.17L19.38 9.43999L14.97 11.92ZM10.33 9.38999C10.33 9.38999 10.38 9.36999 10.41 9.38999L12.06 10.13C12.06 10.13 12.11 10.17 12.11 10.2L12.14 15.49L17.92 18.71C17.92 18.71 17.96 18.75 17.96 18.78V20.61C17.96 20.61 17.92 20.69 17.88 20.69C17.87 20.69 17.85 20.69 17.84 20.68L10.32 16.32C10.32 16.32 10.28 16.28 10.28 16.25L10.31 9.44999C10.31 9.44999 10.32 9.39999 10.35 9.37999L10.33 9.38999ZM10.45 9.57999L10.42 16.21L17.78 20.47V18.82L12.01 15.6C12.01 15.6 11.97 15.56 11.97 15.53L11.94 10.24L10.45 9.56999V9.57999Z" fill="white"/>
</svg>
