<svg width="32" height="33" viewBox="0 0 32 33" fill="none" xmlns="http://www.w3.org/2000/svg">
<path d="M16 0.169983C7.16 0.169983 0 7.32998 0 16.17C0 25.01 7.16 32.17 16 32.17C24.84 32.17 32 25.01 32 16.17C32 7.32998 24.84 0.169983 16 0.169983ZM16.48 4.22998L23.78 8.40998V10.01L16.48 5.89999V4.22998ZM23.7 10.15L19.47 12.58L17.69 13.59C17.69 13.59 17.67 13.61 17.66 13.62C17.64 13.66 17.66 13.71 17.69 13.73L22.18 16.13L20.81 16.86L15.02 13.58L20.82 10.17C20.82 10.17 20.84 10.15 20.85 10.14C20.85 10.14 20.85 10.13 20.85 10.12C20.87 10.08 20.85 10.03 20.82 10.01L19.41 9.18998L16.46 7.48999C16.46 7.48999 16.4 7.47999 16.38 7.48999L12.01 10.02L10.89 9.53999L10.53 9.37999L16.4 6.05999L23.7 10.16V10.15ZM20.85 22.22C20.85 22.22 20.89 22.18 20.89 22.15V16.99L22.3 16.25L22.35 23L16.56 26.31V24.74L20.85 22.21V22.22ZM17.78 20.34L10.42 16.1L10.45 9.50998L10.83 9.66998L11.94 10.17L11.97 15.46C11.97 15.46 11.99 15.52 12.01 15.53L17.78 18.75V20.34ZM14.95 13.43L14.97 11.84L19.38 9.35999L20.61 10.08L14.95 13.43ZM9.05 8.48999L16.33 4.19999V5.86998L10.32 9.29998C10.31 9.29998 10.29 9.31998 10.29 9.33998C10.29 9.33998 10.29 9.33998 10.29 9.34998C10.29 9.34998 10.28 9.35998 10.28 9.36998V16.1L9.08 16.99L9.05 8.47998V8.48999ZM9.1 22.14L13.38 19.69L14.76 20.45L9.11 23.8V22.14H9.1ZM16.43 28.11L9.17 23.96L14.99 20.52C14.99 20.52 15.01 20.5 15.02 20.49C15.04 20.45 15.02 20.4 14.99 20.38L13.43 19.53L9.16 17.15L10.37 16.27L17.67 20.5L13.35 22.95L11.86 23.8C11.86 23.8 11.84 23.82 11.83 23.83C11.81 23.87 11.83 23.92 11.86 23.94L11.89 23.96L16.42 26.54C16.42 26.54 16.45 26.55 16.46 26.55C16.46 26.55 16.46 26.55 16.47 26.54C16.49 26.54 16.51 26.54 16.53 26.54L22.44 23.13L23.38 23.57L23.75 23.74L16.43 28.1V28.11ZM16.38 24.77V26.32L12.05 23.87L13.38 23.11L16.38 24.76V24.77ZM22.51 23L22.46 16.12C22.46 16.12 22.45 16.07 22.42 16.05L17.9 13.65L19.51 12.74L23.81 15.45L23.84 23.62L22.51 23Z" fill="#213147"/>
</svg>
