<svg width="32" height="32" viewBox="0 0 32 32" fill="none" xmlns="http://www.w3.org/2000/svg">
<g clip-path="url(#clip0_298_390)">
<path d="M11.64 21.96H16.03C18.74 21.96 20.76 20.65 21.69 18.7H11.64V21.96Z" fill="#213147"/>
<path d="M16.02 10.03H11.63V13.35H21.69C20.76 11.37 18.74 10.03 16.02 10.03Z" fill="#213147"/>
<path d="M11.64 15.11V16.95H22.21C22.25 16.65 22.27 16.35 22.27 16.04V16C22.27 15.7 22.25 15.4 22.21 15.11H11.63H11.64Z" fill="#213147"/>
<path d="M16 0C7.15998 0 0 7.16 0 16C0 24.84 7.15998 32 16 32C24.84 32 32 24.84 32 16C32 7.16 24.84 0 16 0ZM25.49 15.11H23.99C24.02 15.39 24.03 15.67 24.03 15.96V16C24.03 16.32 24.01 16.63 23.97 16.95H25.48V18.7H23.54C22.47 21.56 19.68 23.53 16.01 23.53H9.90999V18.7H7.78999V16.95H9.90999V15.11H7.78999V13.36H9.90999V8.47H16.01C19.72 8.47 22.53 10.46 23.57 13.36H25.47V15.11H25.49Z" fill="#213147"/>
</g>
<defs>
<clipPath id="clip0_298_390">
<rect width="32" height="32" fill="white"/>
</clipPath>
</defs>
</svg>
