<svg width="33" height="33" viewBox="0 0 33 33" fill="none" xmlns="http://www.w3.org/2000/svg">
<path d="M16.61 32.25C25.45 32.25 32.61 25.09 32.61 16.25C32.61 7.41 25.44 0.25 16.61 0.25C7.77997 0.25 0.609985 7.41 0.609985 16.25C0.609985 25.09 7.76997 32.25 16.61 32.25Z" fill="url(#paint0_linear_80_57)"/>
<path d="M26.1 13.61H24.2C23.15 10.71 20.34 8.72 16.64 8.72H10.54V13.61H8.42V15.36H10.54V17.2H8.42V18.95H10.54V23.78H16.64C20.3 23.78 23.09 21.81 24.17 18.95H26.11V17.2H24.6C24.64 16.89 24.66 16.57 24.66 16.25V16.21C24.66 15.92 24.64 15.64 24.62 15.36H26.12V13.61H26.1ZM12.25 10.28H16.64C19.36 10.28 21.38 11.62 22.31 13.6H12.25V10.28ZM16.63 22.21H12.24V18.95H22.29C21.35 20.9 19.34 22.21 16.63 22.21ZM22.88 16.29C22.88 16.59 22.86 16.9 22.82 17.2H12.25V15.36H22.83C22.87 15.66 22.89 15.95 22.89 16.25V16.29H22.88Z" fill="white"/>
<defs>
<linearGradient id="paint0_linear_80_57" x1="16.6" y1="0.25" x2="16.6" y2="32.25" gradientUnits="userSpaceOnUse">
<stop stop-color="#91BE5C"/>
<stop offset="1" stop-color="#6DAE5C"/>
</linearGradient>
</defs>
</svg>
