<svg width="33" height="33" viewBox="0 0 33 33" fill="none" xmlns="http://www.w3.org/2000/svg">
<path d="M12.25 22.13H16.64C19.35 22.13 21.37 20.82 22.3 18.87H12.25V22.13Z" fill="#213147"/>
<path d="M16.63 10.2H12.24V13.52H22.3C21.37 11.54 19.35 10.2 16.63 10.2Z" fill="#213147"/>
<path d="M12.25 15.28V17.12H22.82C22.86 16.82 22.88 16.52 22.88 16.21V16.17C22.88 15.87 22.86 15.57 22.82 15.28H12.24H12.25Z" fill="#213147"/>
<path d="M16.61 0.169983C7.76997 0.169983 0.609985 7.32998 0.609985 16.17C0.609985 25.01 7.76997 32.17 16.61 32.17C25.45 32.17 32.61 25.01 32.61 16.17C32.61 7.32998 25.45 0.169983 16.61 0.169983ZM26.1 15.28H24.6C24.63 15.56 24.64 15.84 24.64 16.13V16.17C24.64 16.49 24.62 16.8 24.58 17.12H26.09V18.87H24.15C23.08 21.73 20.29 23.7 16.62 23.7H10.52V18.87H8.39998V17.12H10.52V15.28H8.39998V13.53H10.52V8.63998H16.62C20.33 8.63998 23.14 10.63 24.18 13.53H26.08V15.28H26.1Z" fill="#213147"/>
</svg>
