<svg width="32" height="32" viewBox="0 0 32 32" fill="none" xmlns="http://www.w3.org/2000/svg">
<g clip-path="url(#clip0_298_517)">
<path d="M16.09 32.1001C24.9265 32.1001 32.09 24.9367 32.09 16.1001C32.09 7.26354 24.9265 0.100098 16.09 0.100098C7.25341 0.100098 0.0899658 7.26354 0.0899658 16.1001C0.0899658 24.9367 7.25341 32.1001 16.09 32.1001Z" fill="#1D1A2F"/>
<path fill-rule="evenodd" clip-rule="evenodd" d="M13.17 15.58C13.61 15.58 13.95 15.94 13.95 16.38C13.95 16.81 13.6 17.15 13.17 17.16H11.13C9.14998 17.16 7.53998 15.55 7.53998 13.57C7.53998 11.59 9.14998 9.97998 11.13 9.97998H16.38C16.82 9.97998 17.16 10.34 17.16 10.78C17.16 11.21 16.81 11.55 16.38 11.56H11.13C10.02 11.56 9.11998 12.47 9.11998 13.58C9.11998 14.69 10.02 15.58 11.13 15.59H13.17V15.58Z" fill="white"/>
<path fill-rule="evenodd" clip-rule="evenodd" d="M11.57 17.15C11.13 17.15 10.79 16.79 10.79 16.35C10.79 15.92 11.14 15.58 11.57 15.57H13.61C15.59 15.57 17.2 17.18 17.2 19.16C17.2 21.14 15.59 22.75 13.61 22.75H8.35997C7.91997 22.75 7.57997 22.39 7.57997 21.95C7.57997 21.52 7.92997 21.18 8.35997 21.17H13.61C14.72 21.17 15.62 20.26 15.62 19.15C15.62 18.04 14.72 17.15 13.61 17.14H11.57V17.15Z" fill="white"/>
<path fill-rule="evenodd" clip-rule="evenodd" d="M8.96994 22.4303L7.68994 21.5103L15.7199 10.2603L16.9999 11.1803L8.96994 22.4303Z" fill="black"/>
<path d="M21.3 19.32V21.18H22.47V18.98H23.38V22.36H18.47V18.97H19.38V21.17H20.42V19.31H21.3V19.32ZM19.39 14.58V16.05H23.38V17.23H19.39V18.68H18.48V14.58H19.39ZM23.38 9.97998V11.16H21.33V12.9H23.38V14.08H18.47V12.9H20.42V11.16H18.47V9.97998H23.38Z" fill="white"/>
</g>
<defs>
<clipPath id="clip0_298_517">
<rect width="32" height="32" fill="white"/>
</clipPath>
</defs>
</svg>
