<svg width="33" height="33" viewBox="0 0 33 33" fill="none" xmlns="http://www.w3.org/2000/svg">
<path d="M13.6 17.27H12.73L9.86 21.29H13.6C14.71 21.29 15.61 20.38 15.61 19.27C15.61 18.16 14.71 17.2699 13.6 17.2599V17.27Z" fill="#213147"/>
<path d="M11.93 15.7L14.8 11.68H11.13C10.02 11.68 9.12 12.59 9.12 13.7C9.12 14.81 10.02 15.7 11.13 15.71H11.92L11.93 15.7Z" fill="#213147"/>
<path d="M16.09 0.219971C7.25 0.219971 0.0899963 7.37997 0.0899963 16.22C0.0899963 25.06 7.25 32.22 16.09 32.22C24.93 32.22 32.09 25.06 32.09 16.22C32.09 7.37997 24.93 0.219971 16.09 0.219971ZM13.6 22.87H8.34999C7.90999 22.87 7.57 22.51 7.57 22.07C7.57 21.91 7.63 21.77 7.72 21.65L7.7 21.63L10.84 17.24C9.01 17.08 7.56 15.56 7.56 13.68C7.56 11.7 9.17 10.09 11.15 10.09H16.4C16.84 10.09 17.18 10.45 17.18 10.89C17.18 11.14 17.05 11.35 16.87 11.49L13.86 15.71C15.73 15.84 17.21 17.37 17.21 19.27C17.21 21.17 15.6 22.86 13.62 22.86L13.6 22.87ZM23.38 22.48H18.47V19.09H19.38V21.29H20.42V19.43H21.3V21.29H22.47V19.09H23.38V22.47V22.48ZM23.38 17.36H19.39V18.81H18.48V14.71H19.39V16.18H23.38V17.36ZM23.38 11.27H21.33V13.01H23.38V14.19H18.47V13.01H20.42V11.27H18.47V10.09H23.38V11.27Z" fill="#213147"/>
</svg>
