<svg width="33" height="33" viewBox="0 0 33 33" fill="none" xmlns="http://www.w3.org/2000/svg">
<path d="M16.71 32.25C25.5465 32.25 32.71 25.0866 32.71 16.25C32.71 7.41344 25.5465 0.25 16.71 0.25C7.87344 0.25 0.709991 7.41344 0.709991 16.25C0.709991 25.0866 7.87344 32.25 16.71 32.25Z" fill="url(#paint0_linear_80_60)"/>
<path d="M11.44 12.27C11.31 12.11 11.12 12.02 10.91 12.03H6.64001C6.64001 12.03 6.56999 12.02 6.54999 11.99C6.52999 11.97 6.51001 11.94 6.51001 11.91V9.03C6.51001 9.03 6.51999 8.97 6.54999 8.95C6.56999 8.93 6.61001 8.91 6.64001 8.91H11.16C12.3 8.91 13.28 9.38 14.11 10.31L15.21 11.65L13.07 14.26L11.45 12.27H11.44ZM19.33 10.3C20.16 9.38 21.14 8.92 22.29 8.92H26.79C26.79 8.92 26.85 8.92 26.88 8.95C26.9 8.97 26.91 9.01 26.91 9.04V11.92C26.91 11.92 26.9 11.98 26.88 12C26.86 12.02 26.83 12.04 26.79 12.04H22.52C22.32 12.04 22.12 12.13 21.99 12.28L18.84 16.11L22 19.97C22.13 20.12 22.32 20.2 22.51 20.2H26.78C26.78 20.2 26.84 20.21 26.87 20.24C26.89 20.27 26.9 20.3 26.9 20.33V23.21C26.9 23.21 26.89 23.27 26.87 23.29C26.85 23.31 26.82 23.33 26.78 23.33H22.28C21.13 23.33 20.15 22.86 19.33 21.93L16.71 18.73L14.09 21.93C13.26 22.86 12.28 23.33 11.13 23.33H6.63C6.63 23.33 6.57001 23.32 6.54001 23.29C6.52001 23.26 6.51001 23.23 6.51001 23.2V20.32C6.51001 20.32 6.51001 20.26 6.54001 20.24C6.56001 20.22 6.59 20.2 6.63 20.2H10.9C11.1 20.2 11.3 20.11 11.43 19.95L14.52 16.18L19.32 10.31L19.33 10.3Z" fill="#5FCDF9"/>
<defs>
<linearGradient id="paint0_linear_80_60" x1="16.54" y1="0.92" x2="16.54" y2="31.64" gradientUnits="userSpaceOnUse">
<stop stop-color="#08021E"/>
<stop offset="1" stop-color="#150755"/>
</linearGradient>
</defs>
</svg>
