<svg width="32" height="32" viewBox="0 0 32 32" fill="none" xmlns="http://www.w3.org/2000/svg">
<g clip-path="url(#clip0_298_405)">
<path d="M16 0C7.16 0 0 7.16 0 16C0 24.84 7.16 32 16 32C24.84 32 32 24.84 32 16C32 7.16 24.84 0 16 0ZM5.80002 8.78C5.80002 8.78 5.81 8.72 5.84 8.7C5.86 8.68 5.90002 8.66 5.93002 8.66H10.45C11.59 8.66 12.57 9.13 13.4 10.06L14.5 11.4L12.36 14.01L10.74 12.02C10.61 11.86 10.42 11.77 10.21 11.78H5.94C5.94 11.78 5.87001 11.77 5.85001 11.74C5.83001 11.72 5.81 11.69 5.81 11.66V8.78H5.80002ZM26.2 22.95C26.2 22.95 26.19 23.01 26.17 23.03C26.15 23.05 26.12 23.07 26.08 23.07H21.58C20.43 23.07 19.45 22.6 18.63 21.67L16.01 18.47L13.39 21.67C12.56 22.6 11.58 23.07 10.43 23.07H5.93002C5.93002 23.07 5.87 23.06 5.84 23.03C5.82 23 5.81 22.97 5.81 22.94V20.06C5.81 20.06 5.81 20 5.84 19.98C5.86 19.95 5.89002 19.94 5.93002 19.94H10.2C10.4 19.94 10.6 19.85 10.73 19.7L13.82 15.93L18.62 10.06C19.45 9.14 20.43 8.68 21.58 8.68H26.08C26.08 8.68 26.14 8.68 26.17 8.71C26.19 8.73 26.2 8.77 26.2 8.8V11.68C26.2 11.68 26.19 11.74 26.17 11.76C26.15 11.78 26.12 11.8 26.08 11.8H21.81C21.61 11.8 21.41 11.89 21.28 12.04L18.13 15.87L21.29 19.73C21.42 19.88 21.61 19.96 21.8 19.96H26.07C26.07 19.96 26.13 19.97 26.16 20C26.18 20.03 26.19 20.06 26.19 20.09V22.97L26.2 22.95Z" fill="#213147"/>
</g>
<defs>
<clipPath id="clip0_298_405">
<rect width="32" height="32" fill="white"/>
</clipPath>
</defs>
</svg>
