<svg width="32" height="32" viewBox="0 0 32 32" fill="none" xmlns="http://www.w3.org/2000/svg">
<g clip-path="url(#clip0_298_407)">
<path d="M16 32C24.8366 32 32 24.8366 32 16C32 7.16344 24.8366 0 16 0C7.16344 0 0 7.16344 0 16C0 24.8366 7.16344 32 16 32Z" fill="url(#paint0_linear_298_407)"/>
<path d="M10.73 12.02C10.6 11.86 10.41 11.77 10.2 11.78H5.93002C5.93002 11.78 5.86 11.77 5.84 11.74C5.82 11.72 5.80002 11.69 5.80002 11.66V8.78C5.80002 8.78 5.81 8.72 5.84 8.7C5.86 8.68 5.90002 8.66 5.93002 8.66H10.45C11.59 8.66 12.57 9.13 13.4 10.06L14.5 11.4L12.36 14.01L10.74 12.02H10.73ZM18.62 10.05C19.45 9.13 20.43 8.67 21.58 8.67H26.08C26.08 8.67 26.14 8.67 26.17 8.7C26.19 8.72 26.2 8.76 26.2 8.79V11.67C26.2 11.67 26.19 11.73 26.17 11.75C26.15 11.77 26.12 11.79 26.08 11.79H21.81C21.61 11.79 21.41 11.88 21.28 12.03L18.13 15.86L21.29 19.72C21.42 19.87 21.61 19.95 21.8 19.95H26.07C26.07 19.95 26.13 19.96 26.16 19.99C26.18 20.02 26.19 20.05 26.19 20.08V22.96C26.19 22.96 26.18 23.02 26.16 23.04C26.14 23.06 26.11 23.08 26.07 23.08H21.57C20.42 23.08 19.44 22.61 18.62 21.68L16 18.48L13.38 21.68C12.55 22.61 11.57 23.08 10.42 23.08H5.92001C5.92001 23.08 5.86002 23.07 5.83002 23.04C5.81002 23.01 5.80002 22.98 5.80002 22.95V20.07C5.80002 20.07 5.80002 20.01 5.83002 19.99C5.85002 19.97 5.88001 19.95 5.92001 19.95H10.19C10.39 19.95 10.59 19.86 10.72 19.7L13.81 15.93L18.61 10.06L18.62 10.05Z" fill="#5FCDF9"/>
</g>
<defs>
<linearGradient id="paint0_linear_298_407" x1="15.83" y1="0.67" x2="15.83" y2="31.39" gradientUnits="userSpaceOnUse">
<stop stop-color="#08021E"/>
<stop offset="1" stop-color="#150755"/>
</linearGradient>
<clipPath id="clip0_298_407">
<rect width="32" height="32" fill="white"/>
</clipPath>
</defs>
</svg>
