<svg width="33" height="33" viewBox="0 0 33 33" fill="none" xmlns="http://www.w3.org/2000/svg">
<path d="M16.71 0.169983C7.86999 0.169983 0.709991 7.32998 0.709991 16.17C0.709991 25.01 7.86999 32.17 16.71 32.17C25.55 32.17 32.71 25.01 32.71 16.17C32.71 7.32998 25.55 0.169983 16.71 0.169983ZM6.51001 8.94999C6.51001 8.94999 6.51999 8.88998 6.54999 8.86998C6.56999 8.84998 6.61001 8.82999 6.64001 8.82999H11.16C12.3 8.82999 13.28 9.29998 14.11 10.23L15.21 11.57L13.07 14.18L11.45 12.19C11.32 12.03 11.13 11.94 10.92 11.95H6.64999C6.64999 11.95 6.58 11.94 6.56 11.91C6.54 11.89 6.51999 11.86 6.51999 11.83V8.94999H6.51001ZM26.91 23.12C26.91 23.12 26.9 23.18 26.88 23.2C26.86 23.22 26.83 23.24 26.79 23.24H22.29C21.14 23.24 20.16 22.77 19.34 21.84L16.72 18.64L14.1 21.84C13.27 22.77 12.29 23.24 11.14 23.24H6.64001C6.64001 23.24 6.57999 23.23 6.54999 23.2C6.52999 23.17 6.51999 23.14 6.51999 23.11V20.23C6.51999 20.23 6.51999 20.17 6.54999 20.15C6.56999 20.12 6.60001 20.11 6.64001 20.11H10.91C11.11 20.11 11.31 20.02 11.44 19.87L14.53 16.1L19.33 10.23C20.16 9.30998 21.14 8.84998 22.29 8.84998H26.79C26.79 8.84998 26.85 8.84999 26.88 8.87999C26.9 8.89999 26.91 8.93999 26.91 8.96999V11.85C26.91 11.85 26.9 11.91 26.88 11.93C26.86 11.95 26.83 11.97 26.79 11.97H22.52C22.32 11.97 22.12 12.06 21.99 12.21L18.84 16.04L22 19.9C22.13 20.05 22.32 20.13 22.51 20.13H26.78C26.78 20.13 26.84 20.14 26.87 20.17C26.89 20.2 26.9 20.23 26.9 20.26V23.14L26.91 23.12Z" fill="#213147"/>
</svg>
