<svg width="33" height="33" viewBox="0 0 33 33" fill="none" xmlns="http://www.w3.org/2000/svg">
<mask id="mask0_82_130" style="mask-type:luminance" maskUnits="userSpaceOnUse" x="0" y="0" width="33" height="33">
<path d="M32.18 0.0999756H0.179993V32.1H32.18V0.0999756Z" fill="white"/>
</mask>
<g mask="url(#mask0_82_130)">
<path d="M16.18 32.1C25.02 32.1 32.18 24.94 32.18 16.1C32.18 7.25998 25.02 0.0999756 16.18 0.0999756C7.33999 0.0999756 0.179993 7.25998 0.179993 16.1C0.179993 24.94 7.33999 32.1 16.18 32.1Z" fill="white"/>
<path d="M9.95999 14.99L9.77998 15.26C7.79998 18.29 8.24998 22.26 10.84 24.8C12.37 26.3 14.37 27.04 16.37 27.04L9.95999 14.99Z" fill="#48A0F7"/>
<path opacity="0.6" d="M16.37 18.66L9.95999 15L16.37 27.05V18.66ZM22.79 14.99L22.97 15.26C24.95 18.29 24.5 22.26 21.91 24.8C20.38 26.3 18.38 27.04 16.38 27.04L22.79 14.99Z" fill="#48A0F7"/>
<path opacity="0.2" d="M16.38 18.66L22.79 15L16.38 27.05V18.66ZM16.38 10.47V16.79L21.9 13.63L16.38 10.47Z" fill="#48A0F7"/>
<path opacity="0.6" d="M16.38 10.47L10.85 13.63L16.38 16.79V10.47Z" fill="#48A0F7"/>
<path d="M16.38 5.15997L10.85 13.64L16.38 10.47V5.15997Z" fill="#48A0F7"/>
<path opacity="0.6" d="M16.38 10.46L21.91 13.63L16.38 5.14996V10.46Z" fill="#48A0F7"/>
</g>
</svg>
