<svg width="33" height="33" viewBox="0 0 33 33" fill="none" xmlns="http://www.w3.org/2000/svg">
<path d="M21.48 17.11L16.17 20.24L10.87 17.11L16.17 26.77L21.48 17.11Z" fill="#213147"/>
<path d="M11.78 13.88L16.19 16.44L20.6 13.9L16.18 11.46L11.78 13.88Z" fill="#213147"/>
<path d="M16.18 0.650024C7.33999 0.650024 0.179993 7.81002 0.179993 16.65C0.179993 25.49 7.33999 32.65 16.18 32.65C25.02 32.65 32.18 25.49 32.18 16.65C32.18 7.81002 25.02 0.650024 16.18 0.650024ZM16.14 5.43002C16.14 5.43002 16.14 5.43002 16.15 5.43002C16.15 5.43002 16.15 5.41003 16.17 5.41003C16.17 5.41003 16.18 5.41003 16.19 5.41003H16.21L21.86 14.08L21.76 14.13L16.16 17.33L10.56 14.13C10.56 14.13 10.45 14.09 10.47 14.08L16.12 5.41003L16.14 5.43002ZM24.18 20.86C23.98 22.64 23.16 24.32 21.87 25.58C20.35 27.07 18.33 27.89 16.18 27.89C14.03 27.89 12.01 27.07 10.49 25.58C9.19999 24.31 8.37999 22.64 8.17999 20.86C7.97999 19.08 8.40999 17.27 9.39999 15.76L9.57999 15.49L16.18 19.26L22.67 15.55C22.67 15.55 22.78 15.47 22.79 15.48L22.97 15.75C23.95 17.26 24.39 19.07 24.19 20.85L24.18 20.86Z" fill="#213147"/>
</svg>
