<svg width="32" height="32" viewBox="0 0 32 32" fill="none" xmlns="http://www.w3.org/2000/svg">
<g clip-path="url(#clip0_298_545)">
<path d="M16 32C24.84 32 32 24.84 32 16C32 7.16 24.84 0 16 0C7.16 0 0 7.16 0 16C0 24.84 7.16 32 16 32Z" fill="white"/>
<path d="M9.77999 14.8899L9.59999 15.1599C7.61999 18.1899 8.06999 22.1599 10.66 24.6999C12.19 26.1999 14.19 26.9399 16.19 26.9399L9.77999 14.8899Z" fill="#48A0F7"/>
<path opacity="0.6" d="M16.19 18.5599L9.78003 14.8999L16.19 26.9499V18.5599ZM22.61 14.8899L22.79 15.1599C24.77 18.1899 24.32 22.1599 21.73 24.6999C20.2 26.1999 18.2 26.9399 16.2 26.9399L22.61 14.8899Z" fill="#48A0F7"/>
<path opacity="0.2" d="M16.2 18.5601L22.61 14.9001L16.2 26.9501V18.5601ZM16.2 10.3701V16.6901L21.72 13.5301L16.2 10.3701Z" fill="#48A0F7"/>
<path opacity="0.6" d="M16.2 10.3701L10.67 13.5301L16.2 16.6901V10.3701Z" fill="#48A0F7"/>
<path d="M16.2 5.06006L10.67 13.5401L16.2 10.3701V5.06006Z" fill="#48A0F7"/>
<path opacity="0.6" d="M16.2 10.36L21.73 13.53L16.2 5.05005V10.36Z" fill="#48A0F7"/>
</g>
<defs>
<clipPath id="clip0_298_545">
<rect width="32" height="32" fill="white"/>
</clipPath>
</defs>
</svg>
