<svg width="32" height="32" viewBox="0 0 32 32" fill="none" xmlns="http://www.w3.org/2000/svg">
<g clip-path="url(#clip0_298_1022)">
<path d="M0 16C0 7.16 7.16 0 16 0C24.84 0 32 7.16 32 16C32 24.84 24.84 32 16 32C7.16 32 0 24.84 0 16Z" fill="black"/>
<path d="M18.37 4.24L19.06 5.86C20.42 9.04 22.96 11.58 26.14 12.94L27.76 13.63C28.18 13.81 28.53 14.07 28.79 14.38C27.98 8.59 23.4 4.01 17.61 3.2C17.92 3.47 18.18 3.81 18.36 4.23L18.37 4.24ZM4.23001 13.63L5.85001 12.94C9.03001 11.58 11.57 9.05 12.93 5.86L13.62 4.24C13.8 3.82 14.06 3.47 14.37 3.21C8.58 4.02 4 8.6 3.19 14.39C3.46 14.08 3.8 13.82 4.22 13.64L4.23001 13.63ZM27.76 18.38L26.14 19.07C22.96 20.43 20.42 22.96 19.06 26.15L18.37 27.77C18.2 28.17 17.95 28.52 17.62 28.81C23.41 28 27.99 23.42 28.8 17.63C28.53 17.94 28.19 18.2 27.77 18.38H27.76ZM13.63 27.77L12.94 26.15C11.58 22.97 9.04002 20.43 5.86002 19.07L4.23999 18.38C3.81999 18.2 3.46999 17.94 3.20999 17.63C4.01999 23.42 8.60001 28 14.39 28.81C14.08 28.54 13.82 28.2 13.64 27.77H13.63Z" fill="#A5A5A5"/>
<path d="M10.28 14.77L11.05 14.44C12.57 13.79 13.78 12.58 14.43 11.06L14.76 10.29C15.22 9.21 16.76 9.21 17.22 10.29L17.55 11.06C18.2 12.58 19.41 13.79 20.93 14.44L21.7 14.77C22.78 15.23 22.78 16.77 21.7 17.23L20.93 17.56C19.41 18.21 18.2 19.42 17.55 20.94L17.22 21.71C16.76 22.79 15.22 22.79 14.76 21.71L14.43 20.94C13.78 19.42 12.57 18.21 11.05 17.56L10.28 17.23C9.2 16.77 9.2 15.23 10.28 14.77Z" fill="white"/>
</g>
<defs>
<clipPath id="clip0_298_1022">
<rect width="32" height="32" fill="white"/>
</clipPath>
</defs>
</svg>
