<svg width="33" height="32" viewBox="0 0 33 32" fill="none" xmlns="http://www.w3.org/2000/svg">
<path d="M16.09 0C7.25 0 0.0899963 7.16 0.0899963 16C0.0899963 24.84 7.25 32 16.09 32C24.93 32 32.09 24.84 32.09 16C32.09 7.16 24.93 0 16.09 0ZM28.89 14.37C28.62 14.06 28.28 13.8 27.86 13.62L26.24 12.93C23.06 11.57 20.52 9.04 19.16 5.85L18.47 4.23C18.29 3.81 18.03 3.46 17.72 3.2C23.51 4.01 28.09 8.59 28.9 14.38L28.89 14.37ZM14.47 3.2C14.16 3.47 13.9 3.81 13.72 4.23L13.03 5.85C11.67 9.03 9.13001 11.57 5.95001 12.93L4.32999 13.62C3.90999 13.8 3.55999 14.06 3.29999 14.37C4.10999 8.58 8.69001 4 14.48 3.19L14.47 3.2ZM3.29001 17.62C3.56001 17.93 3.90001 18.19 4.32001 18.37L5.94 19.06C9.12 20.42 11.66 22.95 13.02 26.14L13.71 27.76C13.89 28.18 14.15 28.53 14.46 28.8C8.66999 27.99 4.09 23.41 3.28 17.62H3.29001ZM17.32 21.71C16.86 22.79 15.32 22.79 14.86 21.71L14.53 20.94C13.88 19.42 12.67 18.21 11.15 17.56L10.38 17.23C9.3 16.77 9.3 15.23 10.38 14.77L11.15 14.44C12.67 13.79 13.88 12.58 14.53 11.06L14.86 10.29C15.32 9.21 16.86 9.21 17.32 10.29L17.65 11.06C18.3 12.58 19.51 13.79 21.03 14.44L21.8 14.77C22.88 15.23 22.88 16.77 21.8 17.23L21.03 17.56C19.51 18.21 18.3 19.42 17.65 20.94L17.32 21.71ZM17.71 28.8C18.04 28.52 18.29 28.16 18.46 27.76L19.15 26.14C20.51 22.96 23.04 20.42 26.23 19.06L27.85 18.37C28.27 18.19 28.62 17.93 28.88 17.62C28.07 23.41 23.49 27.99 17.7 28.8H17.71Z" fill="#213147"/>
</svg>
