<svg width="33" height="33" viewBox="0 0 33 33" fill="none" xmlns="http://www.w3.org/2000/svg">
<path d="M0.0899963 16.07C0.0899963 7.23001 7.25 0.0700073 16.09 0.0700073C24.93 0.0700073 32.09 7.23001 32.09 16.07C32.09 24.91 24.93 32.07 16.09 32.07C7.25 32.07 0.0899963 24.91 0.0899963 16.07Z" fill="black"/>
<path d="M18.46 4.31002L19.15 5.93002C20.51 9.11002 23.05 11.65 26.23 13.01L27.85 13.7C28.27 13.88 28.62 14.14 28.88 14.45C28.07 8.66002 23.49 4.08002 17.7 3.27002C18.01 3.54002 18.27 3.88002 18.45 4.30002L18.46 4.31002ZM4.32001 13.7L5.94 13.01C9.12 11.65 11.66 9.12002 13.02 5.93002L13.71 4.31002C13.89 3.89002 14.15 3.54002 14.46 3.28002C8.66999 4.09002 4.09 8.67002 3.28 14.46C3.55 14.15 3.89 13.89 4.31 13.71L4.32001 13.7ZM27.85 18.45L26.23 19.14C23.05 20.5 20.51 23.03 19.15 26.22L18.46 27.84C18.29 28.24 18.04 28.59 17.71 28.88C23.5 28.07 28.08 23.49 28.89 17.7C28.62 18.01 28.28 18.27 27.86 18.45H27.85ZM13.72 27.84L13.03 26.22C11.67 23.04 9.13001 20.5 5.95001 19.14L4.32999 18.45C3.90999 18.27 3.55999 18.01 3.29999 17.7C4.10999 23.49 8.69001 28.07 14.48 28.88C14.17 28.61 13.91 28.27 13.73 27.84H13.72Z" fill="#A5A5A5"/>
<path d="M10.37 14.84L11.14 14.51C12.66 13.86 13.87 12.65 14.52 11.13L14.85 10.36C15.31 9.27999 16.85 9.27999 17.31 10.36L17.64 11.13C18.29 12.65 19.5 13.86 21.02 14.51L21.79 14.84C22.87 15.3 22.87 16.84 21.79 17.3L21.02 17.63C19.5 18.28 18.29 19.49 17.64 21.01L17.31 21.78C16.85 22.86 15.31 22.86 14.85 21.78L14.52 21.01C13.87 19.49 12.66 18.28 11.14 17.63L10.37 17.3C9.29 16.84 9.29 15.3 10.37 14.84Z" fill="white"/>
</svg>
