<svg width="33" height="33" viewBox="0 0 33 33" fill="none" xmlns="http://www.w3.org/2000/svg">
<path d="M16.41 0.309998C7.57 0.309998 0.410004 7.47 0.410004 16.31C0.410004 25.15 7.57 32.31 16.41 32.31C25.25 32.31 32.41 25.15 32.41 16.31C32.41 7.47 25.25 0.309998 16.41 0.309998ZM25.9 18.76C25.84 20.17 25.31 21.51 24.39 22.58C23.48 23.69 22.42 24.67 21.24 25.5C19.82 26.52 18.31 27.4 16.73 28.14C16.56 28.22 16.37 28.22 16.2 28.14C14.62 27.4 13.11 26.52 11.69 25.5C10.51 24.68 9.44999 23.7 8.53999 22.58C7.61999 21.51 7.09 20.17 7.03 18.76V9.09999C7.03 8.80999 7.22 8.56 7.5 8.47L16.28 5.84C16.4 5.8 16.53 5.8 16.66 5.84L25.44 8.47C25.72 8.55 25.91 8.80999 25.91 9.09999V18.76H25.9Z" fill="#213147"/>
<path d="M21.86 20.63L17.7 10.58C17.55 10.13 17.13 9.82 16.66 9.81H16.29C15.81 9.81 15.39 10.13 15.25 10.58L13.44 14.95H12.08C11.67 14.95 11.33 15.28 11.33 15.7C11.33 16.12 11.66 16.46 12.08 16.46H12.82L11.09 20.63C11.06 20.72 11.04 20.82 11.04 20.91C11.04 21.12 11.11 21.32 11.24 21.47C11.38 21.62 11.59 21.69 11.79 21.68C11.94 21.68 12.09 21.63 12.22 21.54C12.35 21.44 12.45 21.31 12.52 21.16L14.42 16.45H15.74C16.15 16.45 16.49 16.12 16.49 15.7V15.68C16.49 15.27 16.16 14.93 15.74 14.93H15.04L16.49 11.32L20.44 21.15C20.5 21.3 20.61 21.43 20.74 21.53C20.86 21.62 21.01 21.67 21.17 21.67C21.38 21.68 21.58 21.6 21.72 21.46C21.86 21.31 21.93 21.11 21.92 20.9C21.92 20.8 21.92 20.71 21.88 20.61L21.86 20.63Z" fill="#213147"/>
</svg>
