<svg width="33" height="33" viewBox="0 0 33 33" fill="none" xmlns="http://www.w3.org/2000/svg">
<path d="M16.41 32.07C25.2466 32.07 32.41 24.9066 32.41 16.07C32.41 7.23345 25.2466 0.0700073 16.41 0.0700073C7.57345 0.0700073 0.410004 7.23345 0.410004 16.07C0.410004 24.9066 7.57345 32.07 16.41 32.07Z" fill="url(#paint0_linear_82_301)"/>
<path d="M25.43 8.23001L16.65 5.60001C16.53 5.56001 16.4 5.56001 16.27 5.60001L7.49001 8.23001C7.21001 8.31001 7.02 8.57001 7.02 8.86001V18.52C7.08 19.93 7.61 21.27 8.53 22.34C9.44 23.45 10.5 24.43 11.68 25.26C13.1 26.28 14.61 27.16 16.19 27.9C16.36 27.98 16.55 27.98 16.72 27.9C18.3 27.16 19.81 26.28 21.23 25.26C22.41 24.44 23.47 23.46 24.38 22.34C25.3 21.27 25.83 19.93 25.89 18.52V8.86001C25.89 8.57001 25.7 8.32001 25.42 8.23001H25.43Z" fill="white"/>
<path d="M21.86 20.4L17.7 10.35C17.55 9.90002 17.13 9.59002 16.66 9.58002H16.29C15.81 9.58002 15.39 9.90002 15.25 10.35L13.44 14.72H12.08C11.67 14.72 11.33 15.05 11.33 15.47C11.33 15.89 11.66 16.23 12.08 16.23H12.82L11.09 20.4C11.06 20.49 11.04 20.59 11.04 20.68C11.04 20.89 11.11 21.09 11.24 21.24C11.38 21.39 11.59 21.46 11.79 21.45C11.94 21.45 12.09 21.4 12.22 21.31C12.35 21.21 12.45 21.08 12.52 20.93L14.42 16.22H15.74C16.15 16.22 16.49 15.89 16.49 15.47V15.45C16.49 15.04 16.16 14.7 15.74 14.7H15.04L16.49 11.09L20.44 20.92C20.5 21.07 20.61 21.2 20.74 21.3C20.86 21.39 21.01 21.44 21.17 21.44C21.38 21.45 21.58 21.37 21.72 21.23C21.86 21.08 21.93 20.88 21.92 20.67C21.92 20.57 21.92 20.48 21.88 20.38L21.86 20.4Z" fill="url(#paint1_linear_82_301)"/>
<defs>
<linearGradient id="paint0_linear_82_301" x1="28.24" y1="6.08001" x2="4.54" y2="26.18" gradientUnits="userSpaceOnUse">
<stop stop-color="#A85699"/>
<stop offset="1" stop-color="#5DB6C3"/>
</linearGradient>
<linearGradient id="paint1_linear_82_301" x1="19.607" y1="13.7312" x2="11.9522" y2="21.9689" gradientUnits="userSpaceOnUse">
<stop stop-color="#A85699"/>
<stop offset="1" stop-color="#5DB6C3"/>
</linearGradient>
</defs>
</svg>
