<svg width="33" height="33" viewBox="0 0 33 33" fill="none" xmlns="http://www.w3.org/2000/svg">
<path d="M16.14 0.609985C7.3 0.609985 0.139999 7.76999 0.139999 16.61C0.139999 25.45 7.3 32.61 16.14 32.61C24.98 32.61 32.14 25.45 32.14 16.61C32.14 7.76999 24.98 0.609985 16.14 0.609985ZM28.75 25.15C27.09 27.6 24.76 29.52 22.03 30.68C21.11 31.07 20.15 31.37 19.17 31.57C18.16 31.78 17.13 31.88 16.09 31.88C15.06 31.88 14.03 31.78 13.01 31.57C11.06 31.17 9.2 30.39 7.55 29.27C5.1 27.61 3.18 25.28 2.02 22.56C1.63 21.64 1.33 20.68 1.13 19.7C0.720001 17.67 0.720001 15.58 1.13 13.55C1.53 11.6 2.31 9.73998 3.43 8.08998C5.09 5.63998 7.42 3.71999 10.14 2.55999C11.06 2.16999 12.02 1.86998 13 1.66998C15.03 1.25998 17.12 1.25998 19.15 1.66998C21.1 2.06998 22.96 2.84999 24.61 3.96999C27.06 5.62999 28.98 7.95998 30.14 10.69C30.53 11.61 30.83 12.57 31.03 13.55C31.44 15.58 31.44 17.67 31.03 19.7C30.63 21.65 29.85 23.51 28.73 25.16L28.75 25.15Z" fill="#213147"/>
<path d="M9.21 16.89C9.11 16.68 8.97 16.58 8.79 16.58H8.64C8.45 16.58 8.31 16.68 8.22 16.89L7.48 18.67H6.92C6.75 18.67 6.62 18.81 6.62 18.97C6.62 19.14 6.76 19.28 6.92 19.28H7.22L6.52 20.98C6.52 20.98 6.5 21.06 6.5 21.1C6.5 21.18 6.53 21.27 6.58 21.33C6.64 21.39 6.72 21.42 6.8 21.42C6.86 21.42 6.92 21.4 6.97 21.36C7.02 21.32 7.06 21.27 7.09 21.21L7.86 19.29H8.4C8.57 19.29 8.7 19.15 8.7 18.99C8.7 18.82 8.56 18.68 8.4 18.68H8.11L8.7 17.21L10.31 21.21C10.34 21.27 10.38 21.32 10.43 21.36C10.48 21.4 10.54 21.42 10.6 21.42C10.68 21.42 10.77 21.39 10.82 21.33C10.88 21.27 10.91 21.19 10.9 21.1C10.9 21.06 10.9 21.02 10.88 20.98L9.19 16.89H9.21Z" fill="#213147"/>
<path d="M25.61 18.6L23.58 19.76L21.55 18.6L21.49 18.69C21.18 19.16 21.05 19.72 21.11 20.27C21.17 20.82 21.43 21.34 21.83 21.74C22.3 22.2 22.93 22.46 23.6 22.46C24.27 22.46 24.9 22.21 25.37 21.74C25.77 21.35 26.03 20.83 26.09 20.27C26.15 19.72 26.02 19.15 25.71 18.69L25.65 18.6H25.61ZM25 21.41C24.62 21.78 24.11 21.99 23.57 21.99H23.55C23.01 21.99 22.5 21.78 22.12 21.41C21.8 21.09 21.59 20.67 21.54 20.22C21.5 19.88 21.56 19.54 21.69 19.23L23.33 20.17C23.4 20.21 23.48 20.23 23.56 20.23C23.64 20.23 23.72 20.21 23.79 20.17L25.43 19.23C25.57 19.54 25.62 19.89 25.58 20.22C25.53 20.67 25.32 21.09 25 21.41Z" fill="#213147"/>
<path d="M21.79 18.19L23.55 19.19L25.31 18.19L23.55 15.5L21.79 18.19ZM23.56 16.31L24.68 18.02L23.56 18.66L22.44 18.02L23.56 16.31Z" fill="#213147"/>
<path d="M29.88 13.78C29.51 11.98 28.79 10.27 27.76 8.74999C26.23 6.48999 24.08 4.71999 21.57 3.64999C20.72 3.28999 19.83 3.01999 18.93 2.82999C18.03 2.64999 17.12 2.55999 16.2 2.54999V3.73999H16.08V2.54999C15.13 2.54999 14.19 2.64999 13.26 2.82999C11.46 3.19999 9.74999 3.91999 8.22999 4.94999C5.96999 6.47999 4.19999 8.62999 3.12999 11.14C2.76999 11.99 2.49999 12.88 2.30999 13.78C1.92999 15.65 1.92999 17.58 2.30999 19.45C2.67999 21.25 3.39999 22.96 4.42999 24.48C5.95999 26.74 8.10999 28.51 10.62 29.58C11.47 29.94 12.36 30.21 13.26 30.4C14.19 30.59 15.13 30.68 16.08 30.68V9.54999C14.14 9.54999 12.58 9.01999 12.58 8.36999C12.58 7.88999 13.45 7.46999 14.69 7.28999C15.16 7.37999 15.64 7.42999 16.12 7.42999C16.59 7.42999 17.06 7.38999 17.52 7.29999H17.55C18.79 7.47999 19.66 7.88999 19.66 8.37999C19.66 9.01999 18.12 9.54999 16.21 9.55999V30.69C17.13 30.69 18.04 30.59 18.94 30.41C20.74 30.04 22.45 29.32 23.97 28.29C26.23 26.76 28 24.61 29.07 22.1C29.43 21.25 29.7 20.36 29.89 19.46C30.27 17.59 30.27 15.66 29.89 13.79L29.88 13.78ZM13.71 18.99C13.71 21.75 11.47 23.99 8.70999 23.99C5.94999 23.99 3.70999 21.75 3.70999 18.99C3.70999 16.23 5.94999 13.99 8.70999 13.99C11.47 13.99 13.71 16.23 13.71 18.99ZM16.11 3.79999C17.28 3.79999 18.23 4.11999 18.23 4.50999C18.23 4.89999 17.28 5.21999 16.11 5.21999C14.94 5.21999 13.99 4.89999 13.99 4.50999C13.99 4.11999 14.94 3.79999 16.11 3.79999ZM16.11 7.17999C14.55 7.17999 13.28 6.75999 13.28 6.22999C13.28 5.80999 14.09 5.45999 15.21 5.32999C15.51 5.37999 15.81 5.39999 16.11 5.39999C16.4 5.39999 16.69 5.37999 16.98 5.32999H17.01C18.13 5.44999 18.94 5.79999 18.94 6.21999C18.94 6.73999 17.67 7.16999 16.11 7.16999V7.17999ZM23.56 23.93C20.82 23.93 18.59 21.71 18.59 18.96C18.59 16.21 20.82 13.99 23.56 13.99C26.3 13.99 28.53 16.22 28.53 18.96C28.53 21.7 26.3 23.93 23.56 23.93Z" fill="#213147"/>
<path d="M23.55 14.51C21.09 14.51 19.09 16.5 19.09 18.97C19.09 21.44 21.09 23.43 23.55 23.43C26.01 23.43 28.01 21.44 28.01 18.97C28.01 16.5 26.02 14.51 23.55 14.51ZM23.55 23.07C21.28 23.07 19.44 21.23 19.44 18.96C19.44 16.69 21.28 14.85 23.55 14.85C25.82 14.85 27.66 16.69 27.66 18.96C27.66 21.23 25.82 23.07 23.55 23.07Z" fill="#213147"/>
</svg>
