<svg width="33" height="33" viewBox="0 0 33 33" fill="none" xmlns="http://www.w3.org/2000/svg">
<mask id="mask0_82_308" style="mask-type:luminance" maskUnits="userSpaceOnUse" x="0" y="0" width="33" height="33">
<path d="M32.14 0.0700073H0.139999V32.07H32.14V0.0700073Z" fill="white"/>
</mask>
<g mask="url(#mask0_82_308)">
<mask id="mask1_82_308" style="mask-type:luminance" maskUnits="userSpaceOnUse" x="0" y="0" width="33" height="33">
<path d="M32.14 0.0700073H0.139999V32.07H32.14V0.0700073Z" fill="white"/>
</mask>
<g mask="url(#mask1_82_308)">
<path d="M16.14 32.07C24.98 32.07 32.14 24.91 32.14 16.07C32.14 7.23001 24.97 0.0700073 16.14 0.0700073C7.31 0.0700073 0.139999 7.23001 0.139999 16.07C0.139999 24.91 7.3 32.07 16.14 32.07Z" fill="white"/>
<path d="M16.11 32.07V9.02002C14.17 9.02002 12.61 8.49002 12.61 7.84002C12.61 7.36002 13.48 6.94002 14.72 6.76002C15.19 6.85002 15.67 6.90002 16.15 6.90002C16.62 6.90002 17.09 6.86002 17.55 6.77002H17.58C18.82 6.95002 19.69 7.36002 19.69 7.84002C19.69 8.48002 18.15 9.01002 16.24 9.02002V32.08H16.12L16.11 32.07ZM13.32 5.71002C13.32 5.29002 14.13 4.94002 15.25 4.81002C15.83 4.90002 16.43 4.90002 17.01 4.81002H17.04C18.16 4.93002 18.97 5.28002 18.97 5.70002C18.97 6.22002 17.7 6.64002 16.14 6.64002C14.58 6.64002 13.31 6.22002 13.31 5.70002L13.32 5.71002ZM14.03 3.98002C14.03 3.59002 14.98 3.27002 16.15 3.27002C17.32 3.27002 18.27 3.59002 18.27 3.98002C18.27 4.37002 17.32 4.69002 16.15 4.69002C14.98 4.69002 14.03 4.37002 14.03 3.98002ZM16.11 3.21002V0.0800171H16.24V3.20002H16.11V3.21002Z" fill="black"/>
<path d="M16.13 32.07C12.94 32.07 9.83 31.12 7.19 29.34C4.62 27.6 2.61 25.16 1.39 22.3C0.979997 21.33 0.669997 20.33 0.459997 19.3C0.0299969 17.17 0.0299969 14.98 0.459997 12.85C0.879997 10.8 1.7 8.86001 2.87 7.13001C4.61 4.56001 7.05 2.54001 9.91 1.33001C10.88 0.920015 11.88 0.610015 12.91 0.400015C15.04 -0.0299854 17.23 -0.0299854 19.36 0.400015C21.41 0.820015 23.35 1.64001 25.08 2.81001C27.65 4.55001 29.66 6.99001 30.88 9.85001C31.29 10.82 31.6 11.82 31.81 12.85C32.24 14.98 32.24 17.17 31.81 19.3C31.39 21.35 30.57 23.29 29.4 25.02C27.66 27.59 25.22 29.6 22.36 30.82C20.39 31.65 18.27 32.08 16.13 32.08V32.07ZM16.13 1.33001C13.19 1.33001 10.32 2.20001 7.89 3.85001C5.52 5.45001 3.66 7.70001 2.55 10.34C2.17 11.23 1.88 12.16 1.69 13.11C1.29 15.07 1.29 17.09 1.69 19.05C2.08 20.94 2.83 22.73 3.91 24.32C5.51 26.69 7.76 28.55 10.4 29.66C11.29 30.04 12.22 30.32 13.17 30.52C15.13 30.92 17.15 30.92 19.11 30.52C21 30.13 22.79 29.38 24.38 28.3C26.75 26.7 28.61 24.45 29.72 21.81C30.1 20.92 30.39 19.99 30.58 19.04C30.98 17.08 30.98 15.06 30.58 13.1C30.19 11.21 29.44 9.42001 28.36 7.83001C26.76 5.46001 24.51 3.60001 21.87 2.49001C20.05 1.72001 18.1 1.33001 16.13 1.33001Z" fill="url(#paint0_linear_82_308)"/>
<mask id="mask2_82_308" style="mask-type:luminance" maskUnits="userSpaceOnUse" x="18" y="13" width="11" height="11">
<path d="M28.26 13.45H18.26V23.45H28.26V13.45Z" fill="white"/>
</mask>
<g mask="url(#mask2_82_308)">
<path d="M28.26 18.45C28.26 15.69 26.02 13.45 23.26 13.45C20.5 13.45 18.26 15.69 18.26 18.45C18.26 21.21 20.5 23.45 23.26 23.45C26.02 23.45 28.26 21.21 28.26 18.45Z" fill="#48A0F7"/>
<path opacity="0.6" d="M25.31 18.09L25.37 18.18C26 19.15 25.86 20.42 25.03 21.23C24.56 21.69 23.92 21.95 23.26 21.95L25.31 18.1V18.09Z" fill="white"/>
<path opacity="0.2" d="M23.26 19.26L25.31 18.09L23.26 21.94V19.26Z" fill="white"/>
<path d="M21.21 18.09L21.15 18.18C20.52 19.15 20.66 20.42 21.49 21.23C21.96 21.69 22.6 21.95 23.26 21.95L21.21 18.1V18.09Z" fill="white"/>
<path opacity="0.6" d="M23.26 19.26L21.21 18.09L23.26 21.94V19.26Z" fill="white"/>
<path opacity="0.2" d="M23.26 16.65V18.67L25.03 17.66L23.26 16.65Z" fill="white"/>
<path opacity="0.6" d="M23.26 16.65L21.49 17.66L23.26 18.67V16.65Z" fill="white"/>
<path d="M23.26 14.95L21.49 17.66L23.26 16.65V14.95Z" fill="white"/>
<path opacity="0.6" d="M23.26 16.65L25.03 17.66L23.26 14.95V16.65Z" fill="white"/>
</g>
<path d="M8.75 23.45C11.51 23.45 13.75 21.21 13.75 18.45C13.75 15.69 11.51 13.45 8.75 13.45C5.99 13.45 3.75 15.69 3.75 18.45C3.75 21.21 5.99 23.45 8.75 23.45Z" fill="url(#paint1_linear_82_308)"/>
<path d="M10.94 20.45L9.24999 16.36C9.18999 16.18 9.01999 16.05 8.82999 16.05H8.67999C8.48999 16.05 8.31999 16.18 8.25999 16.36L7.51999 18.14H6.95999C6.78999 18.14 6.65999 18.28 6.65999 18.44C6.65999 18.61 6.79999 18.75 6.95999 18.75H7.25999L6.55999 20.45C6.55999 20.45 6.53999 20.53 6.53999 20.57C6.53999 20.65 6.56999 20.74 6.61999 20.8C6.67999 20.86 6.75999 20.89 6.83999 20.89C6.89999 20.89 6.95999 20.87 7.01999 20.83C7.06999 20.79 7.11999 20.74 7.13999 20.68L7.90999 18.76H8.44999C8.61999 18.76 8.74999 18.62 8.74999 18.46C8.74999 18.28 8.60999 18.15 8.44999 18.15H8.15999L8.74999 16.68L10.36 20.68C10.39 20.74 10.43 20.79 10.48 20.83C10.53 20.87 10.59 20.89 10.66 20.89C10.74 20.89 10.83 20.86 10.88 20.8C10.94 20.74 10.97 20.66 10.96 20.57C10.96 20.53 10.96 20.49 10.94 20.45Z" fill="white"/>
</g>
</g>
<defs>
<linearGradient id="paint0_linear_82_308" x1="22.27" y1="3.41001" x2="9.84999" y2="29.03" gradientUnits="userSpaceOnUse">
<stop stop-color="#A85699"/>
<stop offset="1" stop-color="#5DB6C3"/>
</linearGradient>
<linearGradient id="paint1_linear_82_308" x1="12.48" y1="15.32" x2="5.04" y2="21.57" gradientUnits="userSpaceOnUse">
<stop stop-color="#A85699"/>
<stop offset="1" stop-color="#5DB6C3"/>
</linearGradient>
</defs>
</svg>
