<svg width="32" height="32" viewBox="0 0 32 32" fill="none" xmlns="http://www.w3.org/2000/svg">
<g clip-path="url(#clip0_298_823)">
<path d="M16 0C7.16 0 0 7.16 0 16C0 24.84 7.16 32 16 32C24.84 32 32 24.84 32 16C32 7.16 24.84 0 16 0ZM28.61 24.54C26.95 26.99 24.62 28.91 21.89 30.07C20.97 30.46 20.01 30.76 19.03 30.96C18.02 31.17 16.99 31.27 15.95 31.27C14.92 31.27 13.89 31.17 12.87 30.96C10.92 30.56 9.06 29.78 7.41 28.66C4.96 27 3.04 24.67 1.88 21.95C1.49 21.03 1.19 20.07 0.990002 19.09C0.580002 17.06 0.580002 14.97 0.990002 12.94C1.39 10.99 2.17 9.13 3.29 7.48C4.95 5.03 7.28 3.11 10 1.95C10.92 1.56 11.88 1.26 12.86 1.06C14.89 0.649998 16.98 0.649998 19.01 1.06C20.96 1.46 22.82 2.24 24.47 3.36C26.92 5.02 28.84 7.35 30 10.08C30.39 11 30.69 11.96 30.89 12.94C31.3 14.97 31.3 17.06 30.89 19.09C30.49 21.04 29.71 22.9 28.59 24.55L28.61 24.54Z" fill="#213147"/>
<path d="M9.07 16.28C8.97 16.07 8.83 15.97 8.65 15.97H8.5C8.31 15.97 8.17 16.07 8.08 16.28L7.34 18.06H6.78C6.61 18.06 6.48 18.2 6.48 18.36C6.48 18.53 6.62 18.67 6.78 18.67H7.08L6.38 20.37C6.38 20.37 6.36 20.45 6.36 20.49C6.36 20.57 6.39 20.66 6.44 20.72C6.5 20.78 6.58 20.81 6.66 20.81C6.72 20.81 6.78 20.79 6.83 20.75C6.88 20.71 6.92 20.66 6.95 20.6L7.72 18.68H8.26C8.43 18.68 8.56 18.54 8.56 18.38C8.56 18.21 8.42 18.07 8.26 18.07H7.97L8.56 16.6L10.17 20.6C10.2 20.66 10.24 20.71 10.29 20.75C10.34 20.79 10.4 20.81 10.46 20.81C10.54 20.81 10.63 20.78 10.68 20.72C10.74 20.66 10.77 20.58 10.76 20.49C10.76 20.45 10.76 20.41 10.74 20.37L9.05 16.28H9.07Z" fill="#213147"/>
<path d="M25.47 17.99L23.44 19.15L21.41 17.99L21.35 18.08C21.04 18.55 20.91 19.11 20.97 19.66C21.03 20.21 21.29 20.73 21.69 21.13C22.16 21.59 22.79 21.85 23.46 21.85C24.13 21.85 24.76 21.6 25.23 21.13C25.63 20.74 25.89 20.22 25.95 19.66C26.01 19.11 25.88 18.54 25.57 18.08L25.51 17.99H25.47ZM24.86 20.8C24.48 21.17 23.97 21.38 23.43 21.38H23.41C22.87 21.38 22.36 21.17 21.98 20.8C21.66 20.48 21.45 20.06 21.4 19.61C21.36 19.27 21.42 18.93 21.55 18.62L23.19 19.56C23.26 19.6 23.34 19.62 23.42 19.62C23.5 19.62 23.58 19.6 23.65 19.56L25.29 18.62C25.43 18.93 25.48 19.28 25.44 19.61C25.39 20.06 25.18 20.48 24.86 20.8Z" fill="#213147"/>
<path d="M21.65 17.58L23.41 18.58L25.17 17.58L23.41 14.89L21.65 17.58ZM23.42 15.7L24.54 17.41L23.42 18.05L22.3 17.41L23.42 15.7Z" fill="#213147"/>
<path d="M29.74 13.17C29.37 11.37 28.65 9.66 27.62 8.14C26.09 5.88 23.94 4.11 21.43 3.04C20.58 2.68 19.69 2.41001 18.79 2.22001C17.89 2.04001 16.98 1.95 16.06 1.94V3.13H15.94V1.94C14.99 1.94 14.05 2.04001 13.12 2.22001C11.32 2.59001 9.60999 3.31 8.08999 4.34C5.82999 5.87 4.05999 8.02 2.98999 10.53C2.62999 11.38 2.35999 12.27 2.16999 13.17C1.78999 15.04 1.78999 16.97 2.16999 18.84C2.53999 20.64 3.25999 22.35 4.28999 23.87C5.81999 26.13 7.96999 27.9 10.48 28.97C11.33 29.33 12.22 29.6 13.12 29.79C14.05 29.98 14.99 30.07 15.94 30.07V8.94C14 8.94 12.44 8.41 12.44 7.76C12.44 7.28 13.31 6.86 14.55 6.68C15.02 6.77 15.5 6.82 15.98 6.82C16.45 6.82 16.92 6.78 17.38 6.69H17.41C18.65 6.87 19.52 7.28 19.52 7.77C19.52 8.41 17.98 8.94 16.07 8.95V30.08C16.99 30.08 17.9 29.98 18.8 29.8C20.6 29.43 22.31 28.71 23.83 27.68C26.09 26.15 27.86 24 28.93 21.49C29.29 20.64 29.56 19.75 29.75 18.85C30.13 16.98 30.13 15.05 29.75 13.18L29.74 13.17ZM13.57 18.38C13.57 21.14 11.33 23.38 8.56999 23.38C5.80999 23.38 3.56999 21.14 3.56999 18.38C3.56999 15.62 5.80999 13.38 8.56999 13.38C11.33 13.38 13.57 15.62 13.57 18.38ZM15.97 3.19C17.14 3.19 18.09 3.51 18.09 3.9C18.09 4.29 17.14 4.61 15.97 4.61C14.8 4.61 13.85 4.29 13.85 3.9C13.85 3.51 14.8 3.19 15.97 3.19ZM15.97 6.57C14.41 6.57 13.14 6.15 13.14 5.62C13.14 5.2 13.95 4.85001 15.07 4.72001C15.37 4.77001 15.67 4.79 15.97 4.79C16.26 4.79 16.55 4.77001 16.84 4.72001H16.87C17.99 4.84001 18.8 5.19 18.8 5.61C18.8 6.13 17.53 6.56 15.97 6.56V6.57ZM23.42 23.32C20.68 23.32 18.45 21.1 18.45 18.35C18.45 15.6 20.68 13.38 23.42 13.38C26.16 13.38 28.39 15.61 28.39 18.35C28.39 21.09 26.16 23.32 23.42 23.32Z" fill="#213147"/>
<path d="M23.41 13.9C20.95 13.9 18.95 15.89 18.95 18.36C18.95 20.83 20.95 22.82 23.41 22.82C25.87 22.82 27.87 20.83 27.87 18.36C27.87 15.89 25.88 13.9 23.41 13.9ZM23.41 22.46C21.14 22.46 19.3 20.62 19.3 18.35C19.3 16.08 21.14 14.24 23.41 14.24C25.68 14.24 27.52 16.08 27.52 18.35C27.52 20.62 25.68 22.46 23.41 22.46Z" fill="#213147"/>
</g>
<defs>
<clipPath id="clip0_298_823">
<rect width="32" height="32" fill="white"/>
</clipPath>
</defs>
</svg>
