<svg width="32" height="32" viewBox="0 0 32 32" fill="none" xmlns="http://www.w3.org/2000/svg">
<g clip-path="url(#clip0_298_825)">
<path d="M16 32C24.84 32 32 24.84 32 16C32 7.16 24.83 0 16 0C7.17 0 -3.7998e-06 7.16 -3.7998e-06 16C-3.7998e-06 24.84 7.16 32 16 32Z" fill="white"/>
<path d="M15.97 32V8.95C14.03 8.95 12.47 8.42 12.47 7.77C12.47 7.29 13.34 6.87 14.58 6.69C15.05 6.78 15.53 6.83 16.01 6.83C16.48 6.83 16.95 6.79 17.41 6.7H17.44C18.68 6.88 19.55 7.29 19.55 7.77C19.55 8.41 18.01 8.94 16.1 8.95V32.01H15.98L15.97 32ZM13.18 5.64C13.18 5.22 13.99 4.87 15.11 4.74C15.69 4.83 16.29 4.83 16.87 4.74H16.9C18.02 4.86 18.83 5.21 18.83 5.63C18.83 6.15 17.56 6.57 16 6.57C14.44 6.57 13.17 6.15 13.17 5.63L13.18 5.64ZM13.89 3.91C13.89 3.52 14.84 3.2 16.01 3.2C17.18 3.2 18.13 3.52 18.13 3.91C18.13 4.3 17.18 4.62 16.01 4.62C14.84 4.62 13.89 4.3 13.89 3.91ZM15.97 3.14V0.01H16.1V3.13H15.97V3.14Z" fill="black"/>
<path d="M15.99 32C12.8 32 9.69 31.05 7.05 29.27C4.48 27.53 2.47 25.09 1.25 22.23C0.839998 21.26 0.529998 20.26 0.319998 19.23C-0.110002 17.1 -0.110002 14.91 0.319998 12.78C0.739998 10.73 1.56 8.79 2.73 7.06C4.47 4.49 6.91 2.47 9.77 1.26C10.74 0.85 11.74 0.54 12.77 0.33C14.9 -0.1 17.09 -0.1 19.22 0.33C21.27 0.75 23.21 1.57 24.94 2.74C27.51 4.48 29.52 6.92 30.74 9.78C31.15 10.75 31.46 11.75 31.67 12.78C32.1 14.91 32.1 17.1 31.67 19.23C31.25 21.28 30.43 23.22 29.26 24.95C27.52 27.52 25.08 29.53 22.22 30.75C20.25 31.58 18.13 32.01 15.99 32.01V32ZM15.99 1.26C13.05 1.26 10.18 2.13 7.75 3.78C5.38 5.38 3.52 7.63 2.41 10.27C2.03 11.16 1.74 12.09 1.55 13.04C1.15 15 1.15 17.02 1.55 18.98C1.94 20.87 2.69 22.66 3.77 24.25C5.37 26.62 7.62 28.48 10.26 29.59C11.15 29.97 12.08 30.25 13.03 30.45C14.99 30.85 17.01 30.85 18.97 30.45C20.86 30.06 22.65 29.31 24.24 28.23C26.61 26.63 28.47 24.38 29.58 21.74C29.96 20.85 30.25 19.92 30.44 18.97C30.84 17.01 30.84 14.99 30.44 13.03C30.05 11.14 29.3 9.35 28.22 7.76C26.62 5.39 24.37 3.53 21.73 2.42C19.91 1.65 17.96 1.26 15.99 1.26Z" fill="url(#paint0_linear_298_825)"/>
<path d="M28.12 18.38C28.12 15.62 25.88 13.38 23.12 13.38C20.36 13.38 18.12 15.62 18.12 18.38C18.12 21.14 20.36 23.38 23.12 23.38C25.88 23.38 28.12 21.14 28.12 18.38Z" fill="#48A0F7"/>
<path d="M25.17 18.02L25.23 18.11C25.86 19.08 25.72 20.35 24.89 21.16C24.42 21.62 23.78 21.88 23.12 21.88L25.17 18.03V18.02Z" fill="white"/>
<path d="M23.12 19.19L25.17 18.02L23.12 21.87V19.19Z" fill="white"/>
<path d="M21.07 18.02L21.01 18.11C20.38 19.08 20.52 20.35 21.35 21.16C21.82 21.62 22.46 21.88 23.12 21.88L21.07 18.03V18.02Z" fill="white"/>
<path d="M23.12 19.19L21.07 18.02L23.12 21.87V19.19Z" fill="white"/>
<path d="M23.12 16.58V18.6L24.89 17.59L23.12 16.58Z" fill="white"/>
<path d="M23.12 16.58L21.35 17.59L23.12 18.6V16.58Z" fill="white"/>
<path d="M23.12 14.88L21.35 17.59L23.12 16.58V14.88Z" fill="white"/>
<path d="M23.12 16.58L24.89 17.59L23.12 14.88V16.58Z" fill="white"/>
<path d="M8.61 23.38C11.37 23.38 13.61 21.14 13.61 18.38C13.61 15.62 11.37 13.38 8.61 13.38C5.85 13.38 3.61 15.62 3.61 18.38C3.61 21.14 5.85 23.38 8.61 23.38Z" fill="url(#paint1_linear_298_825)"/>
<path d="M10.8 20.38L9.11 16.29C9.05 16.11 8.88 15.98 8.69 15.98H8.54C8.35 15.98 8.18 16.11 8.12 16.29L7.38 18.07H6.82C6.65 18.07 6.52 18.21 6.52 18.37C6.52 18.54 6.66 18.68 6.82 18.68H7.12L6.42 20.38C6.42 20.38 6.4 20.46 6.4 20.5C6.4 20.58 6.43 20.67 6.48 20.73C6.54 20.79 6.62 20.82 6.7 20.82C6.76 20.82 6.82 20.8 6.88 20.76C6.93 20.72 6.98 20.67 7 20.61L7.77 18.69H8.31C8.48 18.69 8.61 18.55 8.61 18.39C8.61 18.21 8.47 18.08 8.31 18.08H8.02L8.61 16.61L10.22 20.61C10.25 20.67 10.29 20.72 10.34 20.76C10.39 20.8 10.45 20.82 10.52 20.82C10.6 20.82 10.69 20.79 10.74 20.73C10.8 20.67 10.83 20.59 10.82 20.5C10.82 20.46 10.82 20.42 10.8 20.38Z" fill="white"/>
</g>
<defs>
<linearGradient id="paint0_linear_298_825" x1="22.1352" y1="3.33328" x2="9.71227" y2="28.9593" gradientUnits="userSpaceOnUse">
<stop stop-color="#A85699"/>
<stop offset="1" stop-color="#5DB6C3"/>
</linearGradient>
<linearGradient id="paint1_linear_298_825" x1="27.9357" y1="5.98587" x2="4.1212" y2="25.9866" gradientUnits="userSpaceOnUse">
<stop stop-color="#A85699"/>
<stop offset="1" stop-color="#5DB6C3"/>
</linearGradient>
<clipPath id="clip0_298_825">
<rect width="32" height="32" fill="white"/>
</clipPath>
</defs>
</svg>
