<svg width="33" height="33" viewBox="0 0 33 33" fill="none" xmlns="http://www.w3.org/2000/svg">
<path d="M17.91 15.68L19.87 18.93H14.99C13.23 18.93 11.9 17.46 11.9 15.68C11.9 13.9 13.23 12.43 14.99 12.43H19.19L17.99 10.43H14.99C12.17 10.43 9.8 12.79 9.8 15.69C9.8 18.59 12.18 20.93 14.99 20.93H22.3V18.94L20.36 15.69H17.92L17.91 15.68Z" fill="#213147"/>
<path d="M14.75 15.97C14.21 15.97 13.77 16.42 13.77 16.97C13.77 17.52 14.21 17.97 14.75 17.97C15.29 17.97 15.73 17.52 15.73 16.97C15.73 16.42 15.29 15.97 14.75 15.97Z" fill="#213147"/>
<path d="M14.75 13.2C14.21 13.2 13.77 13.65 13.77 14.2C13.77 14.75 14.21 15.2 14.75 15.2C15.29 15.2 15.73 14.75 15.73 14.2C15.73 13.65 15.29 13.2 14.75 13.2Z" fill="#213147"/>
<path d="M16.05 0.43C7.21 0.43 0.0500031 7.59 0.0500031 16.43C0.0500031 25.27 7.21 32.43 16.05 32.43C24.89 32.43 32.05 25.27 32.05 16.43C32.05 7.59 24.89 0.43 16.05 0.43ZM25.54 18.12C25.54 19.38 25.03 20.66 24.03 21.94C23.26 22.92 22.2 23.9 20.88 24.86C19.46 25.88 17.95 26.76 16.37 27.5C16.29 27.54 16.19 27.56 16.1 27.56C16.01 27.56 15.92 27.54 15.83 27.5C14.25 26.76 12.74 25.88 11.32 24.86C10 23.9 8.94 22.92 8.17 21.94C7.17 20.66 6.66 19.37 6.66 18.12V8.47C6.66 8.33 6.70999 8.19 6.78999 8.08C6.86999 7.97 6.99 7.88 7.13 7.84L15.91 5.21C16.03 5.17 16.16 5.17 16.29 5.21L25.07 7.84C25.21 7.88 25.32 7.96 25.41 8.08C25.49 8.19 25.54 8.33 25.54 8.47V18.12Z" fill="#213147"/>
</svg>
