<svg width="33" height="32" viewBox="0 0 33 32" fill="none" xmlns="http://www.w3.org/2000/svg">
<path d="M16.97 0C25.81 0 32.97 7.16 32.97 16C32.97 24.84 25.81 32 16.97 32C8.13 32 0.970001 24.84 0.970001 16C0.970001 7.16 8.13 0 16.97 0Z" fill="#201F2D"/>
<path d="M25.99 7.41L17.21 4.78C17.09 4.74 16.96 4.74 16.83 4.78L8.05 7.41C7.91 7.45 7.80001 7.53 7.71001 7.65C7.63001 7.76 7.58 7.9 7.58 8.04V17.69C7.58 18.95 8.09 20.23 9.09 21.51C9.86 22.49 10.92 23.47 12.24 24.43C13.66 25.45 15.17 26.33 16.75 27.07C16.83 27.11 16.93 27.13 17.02 27.13C17.11 27.13 17.2 27.11 17.29 27.07C18.87 26.33 20.38 25.45 21.8 24.43C23.12 23.47 24.18 22.49 24.95 21.51C25.95 20.23 26.46 18.94 26.46 17.69V8.04C26.46 7.9 26.41 7.76 26.33 7.65C26.25 7.54 26.13 7.45 25.99 7.41Z" fill="#A795D0"/>
<path fill-rule="evenodd" clip-rule="evenodd" d="M23.22 18.51L21.28 15.26H18.84L20.8 18.51H15.92C14.16 18.51 12.83 17.04 12.83 15.26C12.83 13.48 14.16 12.01 15.92 12.01H20.12L18.92 10.01H15.92C13.1 10.01 10.73 12.37 10.73 15.27C10.73 18.17 13.11 20.51 15.92 20.51H23.23M16.65 13.77C16.65 14.32 16.21 14.77 15.67 14.77C15.13 14.77 14.69 14.32 14.69 13.77C14.69 13.22 15.13 12.77 15.67 12.77C16.21 12.77 16.65 13.22 16.65 13.77ZM15.67 17.55C16.21 17.55 16.65 17.1 16.65 16.55C16.65 16 16.21 15.55 15.67 15.55C15.13 15.55 14.69 16 14.69 16.55C14.69 17.1 15.13 17.55 15.67 17.55Z" fill="#201F2D"/>
</svg>
