<svg width="33" height="33" viewBox="0 0 33 33" fill="none" xmlns="http://www.w3.org/2000/svg">
<path d="M16.63 0.0999756C25.47 0.0999756 32.63 7.25998 32.63 16.1C32.63 24.94 25.47 32.1 16.63 32.1C7.79 32.1 0.630005 24.94 0.630005 16.1C0.630005 7.25998 7.79 0.0999756 16.63 0.0999756Z" fill="white"/>
<path d="M21.94 12.47C21.53 12.23 21.02 12.23 20.61 12.47L17.56 14.29L15.49 15.47L12.44 17.29C12.03 17.53 11.52 17.53 11.11 17.29L8.69002 15.87C8.29002 15.63 8.04001 15.2 8.03001 14.73V11.93C8.03001 11.45 8.28002 11.01 8.69002 10.78L11.08 9.39996C11.49 9.15996 12 9.15996 12.41 9.39996L14.79 10.78C15.19 11.02 15.45 11.45 15.45 11.93V13.74L17.52 12.52V10.7C17.52 10.23 17.27 9.77996 16.86 9.55996L12.44 6.94996C12.03 6.70996 11.52 6.70996 11.11 6.94996L6.62001 9.55996C6.20001 9.78996 5.95001 10.23 5.96001 10.7V15.95C5.96001 16.42 6.21001 16.87 6.62001 17.09L11.11 19.69C11.52 19.93 12.03 19.93 12.44 19.69L15.49 17.91L17.56 16.69L20.61 14.91C21.02 14.67 21.53 14.67 21.94 14.91L24.32 16.29C24.72 16.53 24.98 16.96 24.99 17.43V20.23C24.99 20.7 24.74 21.15 24.33 21.37L21.95 22.79C21.54 23.03 21.03 23.03 20.62 22.79L18.24 21.41C17.84 21.17 17.58 20.74 17.58 20.26V18.45L15.51 19.67V21.49C15.51 21.97 15.76 22.41 16.17 22.63L20.66 25.24C21.07 25.48 21.58 25.48 21.99 25.24L26.48 22.63C26.88 22.39 27.13 21.96 27.14 21.49V16.24C27.14 15.77 26.89 15.33 26.48 15.1L21.95 12.46L21.94 12.47Z" fill="url(#paint0_linear_82_143)"/>
<defs>
<linearGradient id="paint0_linear_82_143" x1="27.85" y1="7.71996" x2="5.27002" y2="24.45" gradientUnits="userSpaceOnUse">
<stop stop-color="#48A0F7"/>
<stop offset="1" stop-color="#70D8FA"/>
</linearGradient>
</defs>
</svg>
