<svg width="33" height="33" viewBox="0 0 33 33" fill="none" xmlns="http://www.w3.org/2000/svg">
<path d="M16.63 0.340027C7.79 0.340027 0.630005 7.50003 0.630005 16.34C0.630005 25.18 7.79 32.34 16.63 32.34C25.47 32.34 32.63 25.18 32.63 16.34C32.63 7.50003 25.47 0.340027 16.63 0.340027ZM27.14 21.75C27.14 22.22 26.88 22.65 26.48 22.89L21.99 25.5C21.58 25.74 21.07 25.74 20.66 25.5L16.17 22.89C15.75 22.66 15.5 22.22 15.51 21.75V19.93L17.58 18.71V20.52C17.58 20.99 17.84 21.42 18.24 21.67L20.62 23.05C21.03 23.29 21.54 23.29 21.95 23.05L24.33 21.63C24.75 21.4 25 20.96 24.99 20.49V17.69C24.99 17.22 24.73 16.79 24.32 16.55L21.94 15.17C21.53 14.93 21.02 14.93 20.61 15.17L17.56 16.95L15.49 18.17L12.44 19.95C12.03 20.19 11.52 20.19 11.11 19.95L6.62 17.35C6.2 17.12 5.94999 16.68 5.95999 16.21V10.96C5.95999 10.49 6.21 10.04 6.62 9.82003L11.11 7.21003C11.52 6.97003 12.03 6.97003 12.44 7.21003L16.86 9.82003C17.28 10.05 17.53 10.49 17.52 10.96V12.78L15.45 14V12.19C15.45 11.72 15.19 11.29 14.79 11.04L12.41 9.66003C12 9.42003 11.49 9.42003 11.08 9.66003L8.69 11.04C8.27 11.27 8.02 11.71 8.03 12.19V14.99C8.03 15.46 8.29 15.89 8.69 16.13L11.11 17.55C11.52 17.79 12.03 17.79 12.44 17.55L15.49 15.73L17.56 14.55L20.61 12.73C21.02 12.49 21.53 12.49 21.94 12.73L26.47 15.37C26.89 15.6 27.14 16.04 27.13 16.51V21.76L27.14 21.75Z" fill="#213147"/>
</svg>
