<svg width="32" height="32" viewBox="0 0 32 32" fill="none" xmlns="http://www.w3.org/2000/svg">
<g clip-path="url(#clip0_298_710)">
<path d="M16 0C7.16 0 0 7.16 0 16C0 24.84 7.16 32 16 32C24.84 32 32 24.84 32 16C32 7.16 24.84 0 16 0ZM26.51 21.41C26.51 21.88 26.25 22.31 25.85 22.55L21.36 25.16C20.95 25.4 20.44 25.4 20.03 25.16L15.54 22.55C15.12 22.32 14.87 21.88 14.88 21.41V19.59L16.95 18.37V20.18C16.95 20.65 17.21 21.08 17.61 21.33L19.99 22.71C20.4 22.95 20.91 22.95 21.32 22.71L23.7 21.29C24.12 21.06 24.37 20.62 24.36 20.15V17.35C24.36 16.88 24.1 16.45 23.69 16.21L21.31 14.83C20.9 14.59 20.39 14.59 19.98 14.83L16.93 16.61L14.86 17.83L11.81 19.61C11.4 19.85 10.89 19.85 10.48 19.61L5.98999 17.01C5.56999 16.78 5.31999 16.34 5.32999 15.87V10.62C5.32999 10.15 5.57999 9.7 5.98999 9.48L10.48 6.87C10.89 6.63 11.4 6.63 11.81 6.87L16.23 9.48C16.65 9.71 16.9 10.15 16.89 10.62V12.44L14.82 13.66V11.85C14.82 11.38 14.56 10.95 14.16 10.7L11.78 9.32C11.37 9.08 10.86 9.08 10.45 9.32L8.06 10.7C7.64 10.93 7.38999 11.37 7.39999 11.85V14.65C7.39999 15.12 7.66 15.55 8.06 15.79L10.48 17.21C10.89 17.45 11.4 17.45 11.81 17.21L14.86 15.39L16.93 14.21L19.98 12.39C20.39 12.15 20.9 12.15 21.31 12.39L25.84 15.03C26.26 15.26 26.51 15.7 26.5 16.17V21.42L26.51 21.41Z" fill="#213147"/>
</g>
<defs>
<clipPath id="clip0_298_710">
<rect width="32" height="32" fill="white"/>
</clipPath>
</defs>
</svg>
