<svg width="32" height="32" viewBox="0 0 32 32" fill="none" xmlns="http://www.w3.org/2000/svg">
<g clip-path="url(#clip0_298_630)">
<path d="M16 32.01C24.8366 32.01 32 24.8466 32 16.01C32 7.17344 24.8366 0.01 16 0.01C7.16346 0.01 0 7.17344 0 16.01C0 24.8466 7.16346 32.01 16 32.01Z" fill="url(#paint0_linear_298_630)"/>
<path d="M16 32.01C24.8366 32.01 32 24.8466 32 16.01C32 7.17344 24.8366 0.01 16 0.01C7.16346 0.01 0 7.17344 0 16.01C0 24.8466 7.16346 32.01 16 32.01Z" fill="url(#paint1_linear_298_630)"/>
<path d="M16 32.01C24.8366 32.01 32 24.8466 32 16.01C32 7.17344 24.8366 0.01 16 0.01C7.16346 0.01 0 7.17344 0 16.01C0 24.8466 7.16346 32.01 16 32.01Z" fill="url(#paint2_linear_298_630)"/>
<path d="M31.57 12.41C31.5 12.1 31.42 11.8 31.34 11.5C30.79 10.19 30.2 8.90001 29.6 7.62001C29.43 7.35001 29.26 7.08001 29.08 6.82001C29.08 6.84001 29.1 6.86001 29.11 6.88001C29.97 8.71001 30.82 10.55 31.58 12.41H31.57Z" fill="url(#paint3_linear_298_630)"/>
<path d="M27.62 5.58C27.78 5.92 27.94 6.25 28.11 6.59C29.57 9.62 31.05 12.69 31.98 15.87C31.98 15.68 31.96 15.49 31.95 15.31C31.01 12.31 29.61 9.4 28.22 6.54C28.06 6.2 27.89 5.87 27.73 5.53C27.62 5.3 27.51 5.07 27.41 4.83C27.32 4.74 27.23 4.65 27.14 4.56C27.16 4.61 27.19 4.66 27.21 4.71C27.34 5 27.48 5.3 27.62 5.59V5.58Z" fill="url(#paint4_linear_298_630)"/>
<path d="M3.85002 18.65L3.91002 18.68C4.91002 17 6.15001 15.51 7.40001 14.01C7.82001 13.5 8.25002 12.99 8.66002 12.47C10.58 10.07 11.33 7.22001 10.25 4.29001C9.93002 3.41001 9.32002 2.67001 8.63002 2.01C8.58002 1.96 8.53 1.92 8.48 1.88C8.44 1.9 8.39002 1.92 8.35002 1.95C8.41002 2.01 8.47999 2.05 8.53999 2.11C9.22999 2.77 9.82002 3.49 10.13 4.34C11.19 7.22001 10.46 10.02 8.56001 12.39C8.15001 12.9 7.73 13.41 7.3 13.92C6.05 15.42 4.81 16.92 3.8 18.61C2.96 20.02 2.26001 21.51 1.65001 23.04C1.68001 23.09 1.70001 23.15 1.73001 23.2C2.34001 21.64 3.05002 20.11 3.91002 18.67L3.85002 18.64V18.65Z" fill="url(#paint5_linear_298_630)"/>
<path d="M27.73 6.37003C27.57 6.04003 27.4 5.71003 27.24 5.38003C27.1 5.10003 26.97 4.82003 26.84 4.54003C26.77 4.39003 26.7 4.24003 26.62 4.08003C26.53 4.00003 26.45 3.92003 26.36 3.84003C26.48 4.09003 26.6 4.33003 26.71 4.58003C26.84 4.86003 26.97 5.15003 27.11 5.43003C27.27 5.76003 27.43 6.09003 27.6 6.42003C29.2 9.69003 30.83 13 31.73 16.45C31.8 16.7 31.86 16.96 31.93 17.22C31.94 17.07 31.95 16.92 31.95 16.77C31.92 16.65 31.89 16.54 31.86 16.42C30.96 12.95 29.32 9.63003 27.72 6.36003L27.73 6.37003Z" fill="url(#paint6_linear_298_630)"/>
<path d="M8.45 13.83C8.87 13.41 9.29001 12.98 9.71001 12.55C10.96 11.24 11.78 10.05 11.85 8.19001C11.89 7.02001 11.79 5.83 11.39 4.73C11.05 3.82 10.44 3.04 9.74001 2.33C9.50001 2.09 9.25002 1.86 9.00002 1.63C8.95002 1.65 8.90002 1.68 8.85002 1.7C9.12002 1.94 9.39 2.17001 9.64 2.43001C10.33 3.13001 10.93 3.89 11.26 4.78C11.66 5.85001 11.76 7.03001 11.72 8.18001C11.65 9.98001 10.86 11.15 9.61 12.45C9.2 12.88 8.78 13.3 8.36 13.73C6.97 15.14 5.57 16.54 4.45 18.21C3.33 19.87 2.53 21.72 1.91 23.62C1.94 23.67 1.97 23.72 2 23.78C2.63 21.85 3.43001 19.97 4.56001 18.29C5.67001 16.64 7.06 15.24 8.45 13.84V13.83Z" fill="url(#paint7_linear_298_630)"/>
<path d="M10.65 0.959993L10.68 0.929993C10.68 0.929993 10.65 0.939993 10.64 0.949993H10.65V0.959993Z" fill="url(#paint8_linear_298_630)"/>
<path d="M7.90001 13.94C8.35001 13.44 8.80002 12.94 9.25002 12.43C10.44 11.06 11.21 9.79 11.28 7.94C11.32 6.78 11.22 5.59 10.82 4.5C10.48 3.58 9.84001 2.8 9.12001 2.1C9.00001 1.98 8.87001 1.87 8.74001 1.75C8.69001 1.77 8.65002 1.79 8.60002 1.82C8.74002 1.95 8.89 2.06 9.02 2.2C9.74 2.9 10.36 3.66 10.69 4.55C11.09 5.62 11.18 6.79 11.14 7.94C11.07 9.75 10.33 10.98 9.14 12.34C8.7 12.85 8.25 13.34 7.8 13.84C6.5 15.27 5.20001 16.71 4.15001 18.36C3.16001 19.91 2.40001 21.6 1.78001 23.33C1.81001 23.38 1.83 23.44 1.86 23.5C2.49 21.73 3.26 20.01 4.27 18.43C5.32 16.79 6.61001 15.37 7.90001 13.94Z" fill="url(#paint9_linear_298_630)"/>
<path d="M9.00002 13.75C9.39002 13.39 9.79001 13.03 10.18 12.66C11.49 11.42 12.37 10.3 12.44 8.44C12.48 7.26 12.38 6.07 11.97 4.96C11.63 4.03 11.01 3.23 10.31 2.5C9.98001 2.15 9.62 1.82 9.27 1.5C9.23 1.52 9.18 1.54 9.14 1.56C9.51 1.89 9.87001 2.23 10.21 2.59C10.9 3.31 11.5 4.09 11.84 5C12.24 6.08 12.34 7.26 12.3 8.42C12.23 10.22 11.39 11.31 10.09 12.55C9.70001 12.92 9.31 13.28 8.92 13.64C7.43 15.01 5.93999 16.37 4.75999 18.04C3.50999 19.8 2.7 21.82 2.08 23.88C2.11 23.93 2.14001 23.98 2.17001 24.03C2.79001 21.94 3.61001 19.89 4.87001 18.11C6.04001 16.45 7.51999 15.1 9.00999 13.73L9.00002 13.75Z" fill="url(#paint10_linear_298_630)"/>
<path d="M27.18 6.12997C26.99 5.75997 26.81 5.38997 26.63 5.01997C26.53 4.81997 26.44 4.62997 26.34 4.43997C26.17 4.09997 26.01 3.75997 25.83 3.41997C25.74 3.34997 25.65 3.28997 25.56 3.21997C25.78 3.62997 26 4.05997 26.21 4.48997C26.3 4.68997 26.4 4.87997 26.5 5.07997C26.68 5.44997 26.87 5.81997 27.05 6.18997C28.66 9.41997 30.3 12.7 31.21 16.12C31.41 16.88 31.62 17.69 31.77 18.52C31.79 18.39 31.81 18.25 31.83 18.12C31.69 17.42 31.51 16.73 31.34 16.09C30.43 12.65 28.79 9.35997 27.18 6.12997Z" fill="url(#paint11_linear_298_630)"/>
<path d="M25.6 27.3C24.72 28.04 23.9 28.9 23.1 29.76C22.77 30.11 22.43 30.46 22.1 30.8C22.21 30.76 22.31 30.71 22.42 30.66C22.68 30.39 22.94 30.12 23.2 29.85C24 29 24.81 28.15 25.68 27.41C26.42 26.79 27.28 26.39 28.19 26.08C28.29 26.05 28.39 26.02 28.49 25.99C28.54 25.93 28.58 25.87 28.63 25.81C28.47 25.86 28.31 25.9 28.15 25.96C27.24 26.27 26.36 26.68 25.6 27.32V27.3Z" fill="url(#paint12_linear_298_630)"/>
<path d="M26.68 5.97998C26.49 5.60998 26.31 5.23998 26.12 4.87998C26.03 4.68998 25.93 4.50998 25.84 4.31998C25.59 3.80998 25.33 3.31998 25.06 2.83998C24.98 2.77998 24.89 2.72998 24.81 2.66998C25.14 3.21998 25.43 3.78998 25.73 4.37998C25.82 4.56998 25.92 4.74998 26.01 4.93998C26.2 5.30998 26.38 5.66998 26.57 6.03998C28.18 9.20998 29.81 12.42 30.71 15.79C31.05 17.08 31.45 18.59 31.48 20.01C31.52 19.86 31.56 19.72 31.59 19.57C31.5 18.26 31.14 16.91 30.84 15.76C29.94 12.38 28.3 9.14998 26.69 5.98998L26.68 5.97998Z" fill="url(#paint13_linear_298_630)"/>
<path d="M24.44 29.58C24.63 29.46 24.83 29.35 25.02 29.22C25.49 28.78 25.96 28.34 26.45 27.93C26.72 27.71 27 27.52 27.29 27.34C27.4 27.23 27.49 27.12 27.6 27.01C27.17 27.24 26.75 27.5 26.37 27.83C25.71 28.38 25.08 28.98 24.45 29.58H24.44Z" fill="url(#paint14_linear_298_630)"/>
<path d="M28.61 6.73997C29.79 9.22997 30.99 11.75 31.9 14.33C31.88 14.11 31.83 13.89 31.8 13.67C30.92 11.3 29.82 8.96997 28.73 6.67997C28.59 6.38997 28.45 6.08997 28.31 5.79997C28.27 5.75997 28.23 5.71997 28.2 5.66997C28.14 5.59997 28.08 5.53997 28.02 5.46997C28.06 5.54997 28.09 5.62997 28.13 5.70997C28.29 6.04997 28.45 6.38997 28.62 6.72997L28.61 6.73997Z" fill="url(#paint15_linear_298_630)"/>
<path d="M5.42 4.03003C5.42 4.03003 5.34 4.10003 5.3 4.14003C5.79 6.59003 5.05 9.44003 4.08 11.8C2.96 14.53 1.76001 17.25 0.490005 19.93C0.510005 20 0.520009 20.06 0.540009 20.13C1.84001 17.4 3.06 14.64 4.2 11.85C5.18 9.46003 5.94002 6.55003 5.41002 4.03003H5.42Z" fill="url(#paint16_linear_298_630)"/>
<path d="M2.48001 7.46997C2.41001 7.57997 2.35001 7.68997 2.28001 7.78997C2.02001 9.04997 1.62001 10.32 1.21001 11.51C0.840007 12.59 0.450003 13.67 0.0500031 14.75C0.0400031 14.9 0.030014 15.05 0.030014 15.2C0.480014 13.99 0.920012 12.77 1.34001 11.56C1.79001 10.26 2.22001 8.86997 2.48001 7.47997V7.46997Z" fill="url(#paint17_linear_298_630)"/>
<path d="M3.25 6.35999C3.2 6.42999 3.15001 6.48999 3.10001 6.55999C2.93001 8.25999 2.44001 9.99998 1.87001 11.58C1.28001 13.22 0.67001 14.87 0.0100098 16.52C0.0100098 16.63 0.020014 16.73 0.030014 16.84C0.720014 15.1 1.38 13.36 2 11.63C2.59 9.97999 3.11 8.14999 3.25 6.35999Z" fill="url(#paint18_linear_298_630)"/>
<path d="M3.77 7.11003C3.84 6.60003 3.86 6.10003 3.86 5.59003C3.82 5.64003 3.77 5.68003 3.73 5.73003C3.73 6.18003 3.69002 6.63003 3.63002 7.09003C3.43002 8.64003 2.96001 10.2 2.45001 11.62C1.71001 13.65 0.930002 15.7 0.0800018 17.72C0.0800018 17.8 0.11001 17.89 0.12001 17.97C1.00001 15.88 1.81001 13.77 2.57001 11.67C3.08001 10.25 3.54999 8.68003 3.75999 7.12003L3.77 7.11003Z" fill="url(#paint19_linear_298_630)"/>
<path d="M6.27 14.38C6.75 13.7 7.24001 13.01 7.71001 12.31C9.40001 9.79999 10.16 6.80999 9.10002 3.90999C8.86002 3.24999 8.45002 2.68999 7.97002 2.17999C7.93002 2.19999 7.89002 2.22999 7.85002 2.24999C8.33002 2.75999 8.73002 3.31999 8.97002 3.95999C10.02 6.80999 9.27002 9.74999 7.60002 12.24C7.13002 12.93 6.65 13.62 6.17 14.3C5.6 15.11 5.02 15.92 4.48 16.75C5.34 15.3 6.23002 13.86 7.13002 12.41L7.24001 12.24C8.82001 9.67999 9.59001 6.62999 8.53001 3.73999C8.34001 3.22999 8.04002 2.76999 7.69002 2.35999C7.65002 2.37999 7.60999 2.40999 7.56999 2.42999C7.91999 2.83999 8.22001 3.28999 8.40001 3.78999C9.44001 6.62999 8.69001 9.63999 7.12001 12.17L7.00999 12.34C4.96999 15.64 2.98001 18.87 1.29001 22.3C1.31001 22.36 1.34001 22.41 1.37001 22.47C1.57001 22.07 1.75001 21.67 1.95001 21.27C1.75001 21.68 1.58 22.1 1.39 22.52C1.41 22.57 1.44001 22.61 1.46001 22.66C2.02001 21.41 2.62 20.19 3.27 19C4.16 17.38 5.21 15.89 6.27 14.38Z" fill="url(#paint20_linear_298_630)"/>
<path d="M13.32 25.43C13.45 24.51 13.6 23.47 13.91 22.53C14.24 21.54 14.74 20.65 15.59 20.09C16.54 19.46 17.66 19.18 18.82 19.06C19.62 18.97 20.44 18.95 21.23 18.94C21.59 18.94 21.94 18.92 22.29 18.91C22.45 18.91 22.61 18.9 22.78 18.9C23.05 18.9 23.32 18.89 23.59 18.87C24.02 18.84 24.44 18.79 24.81 18.67C25.18 18.55 25.51 18.37 25.75 18.08C25.99 17.79 26.13 17.39 26.16 16.85C26.22 15.31 25.94 13.74 25.5 12.3C24.64 9.49001 23.07 6.91001 21.53 4.37001C21.38 4.12001 21.22 3.86001 21.07 3.61001C21 3.49001 20.92 3.37001 20.85 3.24001C20.18 2.12001 19.56 1.10001 18.59 0.240012C18.5 0.220012 18.4 0.210012 18.3 0.200012C19.36 1.08001 20.02 2.12001 20.73 3.31001C20.8 3.43001 20.88 3.55001 20.95 3.67001C21.1 3.92001 21.26 4.18001 21.41 4.43001C22.95 6.97001 24.51 9.54001 25.37 12.33C25.81 13.76 26.09 15.31 26.02 16.84C26 17.35 25.86 17.72 25.64 17.99C25.42 18.26 25.12 18.43 24.77 18.54C24.41 18.65 24.01 18.7 23.58 18.73C23.32 18.75 23.05 18.75 22.78 18.76C22.62 18.76 22.45 18.76 22.29 18.78C21.95 18.79 21.6 18.8 21.24 18.81C20.44 18.83 19.62 18.84 18.81 18.93C17.64 19.06 16.5 19.34 15.52 19.98C14.64 20.57 14.12 21.49 13.78 22.49C13.47 23.45 13.32 24.49 13.18 25.41L13.16 25.56C12.88 27.5 12.72 29.58 12.7 31.67C12.74 31.67 12.79 31.69 12.83 31.7C12.85 29.61 13.01 27.53 13.29 25.58L13.31 25.44L13.32 25.43Z" fill="url(#paint21_linear_298_630)"/>
<path d="M13.97 25.68C14.12 24.8 14.29 23.82 14.6 22.92C14.94 21.94 15.45 21.07 16.28 20.52C17.22 19.9 18.32 19.62 19.47 19.49C20.26 19.4 21.06 19.37 21.84 19.35C22.19 19.34 22.54 19.33 22.89 19.31C23.04 19.31 23.2 19.3 23.36 19.29C23.63 19.29 23.91 19.27 24.17 19.25C24.6 19.22 25.01 19.16 25.38 19.05C25.75 18.93 26.07 18.75 26.31 18.45C26.55 18.16 26.69 17.76 26.71 17.23C26.77 15.67 26.48 14.08 26.04 12.62C25.17 9.75 23.59 7.09 22.04 4.49C21.89 4.24 21.74 3.98 21.59 3.73C21.51 3.6 21.44 3.47 21.36 3.34C20.69 2.2 20.08 1.17 19.1 0.29C19.02 0.27 18.93 0.27 18.85 0.25C19.91 1.14 20.54 2.2 21.24 3.4C21.32 3.53 21.39 3.66 21.47 3.79C21.62 4.04 21.77 4.29 21.92 4.55C23.47 7.15 25.04 9.8 25.91 12.65C26.35 14.1 26.64 15.67 26.57 17.21C26.55 17.72 26.41 18.08 26.2 18.35C25.98 18.62 25.69 18.79 25.34 18.9C24.99 19.01 24.58 19.07 24.16 19.1C23.89 19.12 23.62 19.13 23.36 19.14C23.2 19.14 23.04 19.15 22.88 19.16C22.54 19.18 22.2 19.19 21.84 19.2C21.06 19.22 20.24 19.25 19.45 19.34C18.3 19.47 17.17 19.75 16.21 20.39C15.34 20.96 14.82 21.87 14.48 22.85C14.16 23.76 13.99 24.74 13.84 25.63C13.83 25.71 13.81 25.79 13.8 25.86C13.48 27.7 13.24 29.7 13.14 31.71C13.18 31.71 13.23 31.72 13.27 31.73C13.37 29.72 13.61 27.73 13.93 25.89L13.97 25.66V25.68Z" fill="url(#paint22_linear_298_630)"/>
<path d="M5.83 3.65002C5.83 3.65002 5.76002 3.72002 5.72002 3.75002C6.39002 6.43002 5.69 9.35002 4.61 11.85C3.36 14.74 2.02 17.61 0.630005 20.45C0.650005 20.52 0.660008 20.58 0.680008 20.65C2.09001 17.76 3.46 14.85 4.73 11.9C5.82 9.37002 6.54 6.39002 5.83 3.65002Z" fill="url(#paint23_linear_298_630)"/>
<path d="M5.75002 12.03C7.06002 9.36002 7.83 6.17002 6.8 3.27002C6.77 3.18002 6.72001 3.10002 6.68001 3.02002C6.64001 3.05002 6.60999 3.07002 6.56999 3.10002C6.59999 3.17002 6.64 3.24002 6.67 3.32002C7.69 6.17002 6.93002 9.32002 5.63002 11.98C4.63002 14.01 3.60001 16.03 2.57001 18.05C2.01001 19.14 1.46 20.23 0.910004 21.32C0.930004 21.38 0.950001 21.43 0.970001 21.49C1.54 20.36 2.11001 19.24 2.68001 18.11C3.71001 16.09 4.74001 14.07 5.74001 12.03H5.75002Z" fill="url(#paint24_linear_298_630)"/>
<path d="M6.83 14.19C7.28 13.6 7.74001 13 8.18001 12.4C9.98001 9.93998 10.74 7.01998 9.67 4.10998C9.38 3.30998 8.84002 2.63998 8.22002 2.03998C8.18002 2.05998 8.14002 2.08998 8.10002 2.10998C8.72002 2.70998 9.25999 3.37998 9.53999 4.15998C10.59 7.01998 9.84999 9.88998 8.06999 12.33C7.62999 12.93 7.18 13.52 6.73 14.11C5.58 15.62 4.42002 17.13 3.47002 18.79C2.73002 20.08 2.09001 21.42 1.51001 22.79C1.54001 22.84 1.56001 22.9 1.59001 22.95C2.18001 21.55 2.84001 20.17 3.59001 18.86C4.53001 17.21 5.68 15.71 6.83 14.2V14.19Z" fill="url(#paint25_linear_298_630)"/>
<path d="M6.25002 12.09C7.64002 9.45999 8.41001 6.30999 7.37001 3.40999C7.28001 3.16999 7.17 2.94999 7.05 2.73999C7.01 2.75999 6.98002 2.78999 6.94002 2.81999C7.06002 3.01999 7.17002 3.22999 7.25002 3.45999C8.27002 6.30999 7.52 9.40999 6.14 12.03C5.57 13.11 4.99 14.19 4.42 15.26C3.28 17.39 2.14 19.52 1.05 21.67C1.07 21.73 1.09 21.79 1.11 21.84C2.22 19.65 3.37001 17.49 4.53001 15.33C5.11001 14.26 5.67999 13.18 6.25999 12.1L6.25002 12.09Z" fill="url(#paint26_linear_298_630)"/>
<path d="M6.74001 12.17C8.22001 9.56999 8.99002 6.47999 7.94002 3.57999C7.80002 3.19999 7.60001 2.86999 7.37001 2.54999C7.33001 2.56999 7.28999 2.58999 7.25999 2.61999C7.48999 2.92999 7.67999 3.25999 7.81999 3.62999C8.84999 6.47999 8.10002 9.52999 6.63002 12.11C6.35002 12.6 6.07 13.08 5.8 13.57C4.2 16.37 2.62001 19.16 1.18001 22.03C1.20001 22.09 1.22001 22.15 1.24001 22.2C2.70001 19.29 4.29 16.48 5.92 13.64C6.2 13.15 6.48002 12.67 6.75002 12.18L6.74001 12.17Z" fill="url(#paint27_linear_298_630)"/>
<path d="M4.34001 7.17997C4.44001 6.43997 4.47 5.69997 4.42 4.96997C4.38 5.01997 4.32999 5.06997 4.28999 5.10997C4.31999 5.77997 4.29001 6.45997 4.21001 7.14997C4.01001 8.69997 3.53001 10.26 3.01001 11.66C2.15001 13.96 1.21 16.26 0.220001 18.53C0.230001 18.61 0.24001 18.7 0.26001 18.78C1.29001 16.44 2.25 14.07 3.14 11.7C3.67 10.29 4.14002 8.71997 4.35002 7.15997L4.34001 7.17997Z" fill="url(#paint28_linear_298_630)"/>
<path d="M4.92 4.46997C4.92 4.46997 4.84 4.53997 4.8 4.57997C5.09 6.90997 4.40999 9.51997 3.53999 11.73C2.54999 14.28 1.48 16.82 0.330002 19.33C0.340002 19.4 0.370005 19.47 0.380005 19.54C1.55 16.98 2.64002 14.39 3.66002 11.78C4.53002 9.53997 5.23002 6.85997 4.91002 4.46997H4.92Z" fill="url(#paint29_linear_298_630)"/>
<path d="M6.28001 3.32001C6.28001 3.32001 6.2 3.38001 6.17 3.41001C7.07 6.20001 6.34002 9.30001 5.13002 11.91C3.74002 14.94 2.26 17.93 0.770004 20.91C0.790004 20.97 0.810002 21.02 0.830002 21.08C2.34 18.06 3.84002 15.03 5.25002 11.96C6.47002 9.32001 7.22001 6.17001 6.28001 3.32001Z" fill="url(#paint30_linear_298_630)"/>
<path d="M15.27 26.25C15.46 25.45 15.68 24.57 16 23.77C16.37 22.83 16.89 21.99 17.69 21.47C18.6 20.87 19.66 20.58 20.77 20.44C21.53 20.34 22.3 20.3 23.05 20.26C23.4 20.24 23.74 20.23 24.08 20.2C24.22 20.2 24.36 20.18 24.5 20.17C25.2 20.13 25.93 20.09 26.52 19.88C26.88 19.75 27.19 19.56 27.42 19.27C27.65 18.98 27.79 18.59 27.81 18.07C27.88 16.47 27.57 14.84 27.13 13.34C26.24 10.34 24.64 7.53998 23.07 4.79998C22.89 4.48998 22.71 4.16998 22.53 3.85998C22.43 3.68998 22.34 3.51998 22.25 3.35998C21.69 2.34998 21.13 1.40998 20.29 0.609978C20.2 0.579978 20.11 0.559978 20.02 0.539978C20.96 1.35998 21.53 2.33998 22.14 3.41998C22.23 3.58998 22.33 3.74998 22.42 3.91998C22.6 4.22998 22.78 4.53998 22.96 4.85998C24.53 7.60998 26.13 10.38 27.01 13.37C27.45 14.86 27.76 16.48 27.69 18.06C27.67 18.56 27.53 18.92 27.33 19.19C27.12 19.46 26.83 19.64 26.49 19.76C25.92 19.96 25.22 20 24.52 20.05C24.38 20.05 24.23 20.07 24.09 20.08C23.76 20.1 23.42 20.12 23.07 20.14C22.31 20.18 21.54 20.22 20.77 20.32C19.66 20.47 18.57 20.75 17.64 21.38C16.81 21.93 16.28 22.8 15.9 23.75C15.58 24.57 15.36 25.45 15.17 26.25C15.14 26.38 15.11 26.5 15.08 26.63C14.68 28.27 14.29 30.07 14.03 31.9C14.07 31.9 14.12 31.91 14.16 31.92C14.42 30.1 14.81 28.3 15.21 26.67C15.24 26.54 15.27 26.42 15.3 26.29L15.27 26.25Z" fill="url(#paint31_linear_298_630)"/>
<path d="M17.95 27.58C18.21 26.97 18.5 26.3 18.84 25.67C19.3 24.81 19.84 24.03 20.53 23.54C21.34 22.96 22.3 22.65 23.29 22.45C24.03 22.3 24.79 22.22 25.53 22.14C25.79 22.11 26.04 22.08 26.29 22.05C26.4 22.04 26.52 22.02 26.63 22.01C27.31 21.93 28.01 21.85 28.6 21.62C28.94 21.48 29.25 21.3 29.49 21.02C29.73 20.75 29.89 20.39 29.96 19.93C30.21 18.25 29.69 16.29 29.26 14.73C28.37 11.5 26.73 8.43997 25.12 5.43997C24.91 5.03997 24.69 4.63997 24.48 4.24997C24.42 4.12997 24.35 4.00997 24.29 3.88997C23.85 3.05997 23.44 2.29997 22.89 1.59997C22.8 1.55997 22.71 1.50997 22.62 1.46997C23.24 2.21997 23.68 3.03997 24.17 3.94997C24.23 4.06997 24.29 4.18997 24.36 4.29997C24.57 4.69997 24.78 5.09997 25 5.48997C26.61 8.49997 28.24 11.54 29.13 14.76C29.56 16.32 30.08 18.26 29.83 19.91C29.76 20.35 29.61 20.68 29.39 20.93C29.17 21.18 28.88 21.36 28.55 21.49C27.98 21.71 27.3 21.79 26.62 21.87C26.51 21.88 26.39 21.9 26.28 21.91C26.03 21.94 25.78 21.97 25.53 22C24.79 22.08 24.02 22.17 23.27 22.32C22.26 22.52 21.29 22.84 20.46 23.43C19.75 23.94 19.19 24.74 18.73 25.61C18.39 26.25 18.1 26.92 17.84 27.54C17.75 27.75 17.66 27.95 17.57 28.16C17.01 29.42 16.49 30.71 16.01 32.02C16.06 32.02 16.11 32.02 16.16 32.02C16.63 30.73 17.15 29.46 17.69 28.23C17.78 28.03 17.87 27.82 17.96 27.61L17.95 27.58Z" fill="url(#paint32_linear_298_630)"/>
<path d="M15.93 26.56C16.15 25.8 16.38 24.97 16.7 24.21C17.09 23.29 17.62 22.47 18.4 21.95C19.3 21.35 20.34 21.07 21.42 20.91C22.15 20.8 22.9 20.76 23.64 20.71C23.99 20.69 24.33 20.67 24.67 20.64C24.8 20.63 24.93 20.62 25.06 20.61C25.76 20.56 26.49 20.51 27.08 20.28C27.43 20.15 27.74 19.95 27.96 19.66C28.18 19.37 28.32 18.98 28.34 18.46C28.41 16.84 28.09 15.19 27.65 13.67C26.75 10.6 25.14 7.73999 23.56 4.92999C23.38 4.60999 23.21 4.29999 23.03 3.98999C22.93 3.80999 22.84 3.63999 22.74 3.46999C22.2 2.48999 21.67 1.55999 20.88 0.769993C20.78 0.739993 20.69 0.709993 20.59 0.679993C21.48 1.48999 22.04 2.46999 22.62 3.52999C22.72 3.70999 22.81 3.87999 22.91 4.05999C23.09 4.36999 23.26 4.68999 23.44 4.99999C25.02 7.80999 26.62 10.66 27.52 13.71C27.96 15.22 28.28 16.86 28.2 18.46C28.18 18.95 28.05 19.31 27.84 19.58C27.64 19.85 27.35 20.03 27.02 20.16C26.45 20.37 25.75 20.43 25.04 20.48C24.91 20.48 24.78 20.5 24.64 20.51C24.31 20.54 23.97 20.56 23.62 20.58C22.88 20.63 22.13 20.67 21.38 20.78C20.29 20.94 19.23 21.23 18.31 21.84C17.5 22.38 16.96 23.23 16.56 24.16C16.23 24.93 15.99 25.77 15.78 26.53C15.74 26.68 15.7 26.83 15.65 26.98C15.21 28.51 14.76 30.2 14.41 31.93C14.45 31.93 14.5 31.93 14.54 31.93C14.88 30.21 15.33 28.53 15.77 27.01C15.81 26.86 15.85 26.71 15.9 26.56H15.93Z" fill="url(#paint33_linear_298_630)"/>
<path d="M17.28 27.22C17.54 26.54 17.81 25.82 18.14 25.15C18.58 24.28 19.12 23.49 19.87 22.98C20.73 22.39 21.72 22.1 22.76 21.92C23.45 21.8 24.16 21.74 24.85 21.67C25.2 21.64 25.54 21.61 25.88 21.57C25.98 21.56 26.08 21.55 26.19 21.54C26.91 21.46 27.64 21.38 28.22 21.13C28.56 20.98 28.85 20.78 29.06 20.48C29.27 20.18 29.4 19.8 29.43 19.3C29.51 17.64 29.16 15.95 28.73 14.39C27.85 11.22 26.22 8.22998 24.61 5.28998C24.39 4.88998 24.18 4.49998 23.96 4.09998C23.9 3.98998 23.84 3.87998 23.78 3.76998C23.29 2.84998 22.83 2.01998 22.19 1.25998C22.11 1.21998 22.02 1.19998 21.93 1.16998C22.65 1.95998 23.13 2.83998 23.67 3.83998C23.73 3.94998 23.79 4.05998 23.85 4.16998C24.06 4.56998 24.28 4.95998 24.5 5.35998C26.1 8.29998 27.73 11.28 28.6 14.43C29.03 15.98 29.37 17.65 29.3 19.3C29.28 19.78 29.15 20.14 28.96 20.41C28.77 20.68 28.5 20.87 28.18 21.01C27.62 21.25 26.91 21.33 26.19 21.41C26.09 21.42 25.98 21.43 25.88 21.44C25.55 21.48 25.21 21.51 24.86 21.54C24.16 21.6 23.45 21.67 22.75 21.79C21.7 21.97 20.69 22.27 19.81 22.87C19.03 23.4 18.48 24.21 18.04 25.09C17.7 25.77 17.42 26.5 17.17 27.18C17.1 27.38 17.02 27.57 16.95 27.76C16.42 29.14 15.93 30.55 15.5 31.99C15.55 31.99 15.59 31.99 15.64 31.99C16.06 30.57 16.55 29.16 17.08 27.8C17.15 27.61 17.23 27.42 17.3 27.22H17.28Z" fill="url(#paint34_linear_298_630)"/>
<path d="M16.6 26.89C16.84 26.17 17.09 25.4 17.42 24.68C17.83 23.79 18.37 22.98 19.13 22.46C20.01 21.87 21.03 21.58 22.09 21.41C22.81 21.3 23.53 21.24 24.25 21.19C24.6 21.16 24.94 21.14 25.28 21.1C25.4 21.09 25.51 21.08 25.63 21.07C26.34 21.01 27.07 20.94 27.65 20.71C27.99 20.57 28.29 20.37 28.51 20.08C28.73 19.78 28.86 19.4 28.89 18.89C28.97 17.25 28.64 15.58 28.19 14.04C27.28 10.91 25.67 7.97998 24.07 5.09998C23.9 4.78998 23.72 4.46998 23.55 4.15998C23.45 3.97998 23.35 3.78998 23.25 3.60998C22.75 2.68998 22.28 1.80998 21.58 1.03998C21.48 0.999983 21.37 0.959983 21.26 0.919983C22.06 1.71998 22.58 2.64998 23.13 3.65998C23.23 3.83998 23.33 4.02998 23.43 4.20998C23.6 4.51998 23.77 4.83998 23.95 5.14998C25.54 8.02998 27.15 10.95 28.05 14.06C28.49 15.59 28.81 17.25 28.74 18.86C28.72 19.35 28.59 19.71 28.39 19.98C28.19 20.25 27.91 20.44 27.59 20.57C27.03 20.8 26.32 20.86 25.61 20.92C25.49 20.93 25.37 20.94 25.25 20.95C24.92 20.98 24.58 21.01 24.23 21.03C23.51 21.09 22.77 21.14 22.05 21.26C20.98 21.43 19.94 21.72 19.04 22.33C18.25 22.87 17.7 23.7 17.28 24.6C16.94 25.33 16.69 26.11 16.45 26.83C16.39 27 16.34 27.17 16.28 27.34C15.81 28.75 15.3 30.32 14.88 31.93C14.93 31.93 14.97 31.93 15.02 31.93C15.44 30.33 15.94 28.78 16.41 27.37C16.47 27.2 16.52 27.03 16.58 26.86L16.6 26.89Z" fill="url(#paint35_linear_298_630)"/>
<path d="M10.8 24.41C10.86 23.37 10.96 22.22 11.27 21.16C11.58 20.11 12.09 19.16 13 18.53C13.98 17.85 15.16 17.56 16.38 17.44C17.23 17.35 18.09 17.35 18.92 17.34C19.29 17.34 19.66 17.34 20.02 17.32C20.18 17.32 20.35 17.32 20.51 17.32C20.79 17.32 21.08 17.32 21.35 17.3C21.79 17.28 22.21 17.23 22.59 17.11C22.96 16.99 23.29 16.8 23.53 16.5C23.77 16.2 23.91 15.79 23.93 15.23C23.99 13.76 23.74 12.28 23.3 10.91C22.47 8.32003 20.91 5.97003 19.39 3.67003C19.16 3.33003 18.94 2.99003 18.72 2.65003L18.62 2.50003C18.02 1.57003 17.45 0.750029 16.63 0.0400293C16.56 0.0400293 16.48 0.0400293 16.41 0.0300293C17.29 0.750029 17.87 1.60003 18.51 2.58003L18.61 2.73003C18.83 3.07003 19.06 3.41003 19.28 3.75003C20.8 6.05003 22.34 8.38003 23.17 10.95C23.61 12.3 23.85 13.77 23.79 15.22C23.77 15.75 23.63 16.14 23.42 16.41C23.2 16.69 22.9 16.86 22.55 16.97C22.19 17.08 21.78 17.13 21.35 17.15C21.08 17.16 20.8 17.17 20.52 17.17C20.35 17.17 20.19 17.17 20.02 17.17C19.67 17.17 19.31 17.18 18.93 17.19C18.09 17.19 17.22 17.2 16.37 17.29C15.14 17.41 13.94 17.71 12.93 18.41C11.99 19.06 11.46 20.04 11.15 21.11C10.84 22.18 10.74 23.35 10.68 24.39C10.55 26.59 10.64 28.87 10.9 31.15C10.95 31.17 10.99 31.19 11.04 31.2C10.77 28.91 10.67 26.61 10.81 24.4L10.8 24.41Z" fill="url(#paint36_linear_298_630)"/>
<path d="M14.61 25.96C14.78 25.12 14.97 24.19 15.29 23.34C15.64 22.38 16.16 21.53 16.97 20.99C17.9 20.38 18.98 20.1 20.1 19.96C20.87 19.86 21.66 19.83 22.43 19.8C22.78 19.79 23.13 19.77 23.47 19.75C23.62 19.75 23.77 19.74 23.92 19.73C24.62 19.7 25.35 19.67 25.94 19.46C26.3 19.34 26.62 19.15 26.85 18.86C27.08 18.57 27.23 18.17 27.25 17.65C27.32 16.07 27.02 14.46 26.57 12.98C25.69 10.05 24.1 7.33001 22.54 4.66001C22.39 4.41001 22.24 4.15 22.1 3.9C22.02 3.76 21.94 3.62 21.86 3.48C21.21 2.35 20.61 1.32 19.67 0.450005C19.58 0.430005 19.49 0.400005 19.39 0.380005C20.43 1.28 21.05 2.35 21.74 3.55C21.82 3.69 21.9 3.82 21.98 3.96C22.13 4.21 22.28 4.47001 22.42 4.72001C23.98 7.39001 25.56 10.1 26.43 13.02C26.87 14.49 27.17 16.09 27.1 17.65C27.08 18.15 26.94 18.52 26.73 18.78C26.52 19.05 26.22 19.22 25.88 19.34C25.31 19.53 24.6 19.57 23.9 19.6C23.75 19.6 23.6 19.61 23.44 19.62C23.11 19.64 22.76 19.65 22.41 19.67C21.64 19.7 20.84 19.73 20.07 19.83C18.94 19.97 17.83 20.25 16.88 20.88C16.03 21.44 15.51 22.33 15.15 23.3C14.83 24.16 14.64 25.1 14.47 25.94C14.45 26.04 14.43 26.15 14.41 26.25C14.05 27.99 13.74 29.89 13.55 31.81C13.59 31.81 13.64 31.82 13.68 31.83C13.86 29.91 14.17 28.02 14.53 26.27C14.55 26.17 14.57 26.07 14.59 25.96H14.61Z" fill="url(#paint37_linear_298_630)"/>
<path d="M11.42 24.67C11.5 23.65 11.6 22.51 11.91 21.47C12.22 20.43 12.73 19.5 13.62 18.89C14.6 18.22 15.76 17.94 16.97 17.82C17.81 17.74 18.66 17.73 19.49 17.72C19.86 17.72 20.22 17.72 20.57 17.7C20.73 17.7 20.9 17.7 21.07 17.7C21.35 17.7 21.62 17.7 21.89 17.68C22.33 17.66 22.75 17.61 23.13 17.5C23.51 17.38 23.83 17.2 24.07 16.9C24.31 16.6 24.45 16.19 24.48 15.64C24.54 14.15 24.28 12.65 23.84 11.27C23 8.63001 21.45 6.23001 19.93 3.88001C19.74 3.58001 19.55 3.29001 19.36 2.99001L19.27 2.85001C18.59 1.79001 17.98 0.880007 17.06 0.0800073C16.99 0.0800073 16.91 0.0800073 16.84 0.0700073C17.83 0.880007 18.45 1.82001 19.16 2.93001L19.25 3.07001C19.44 3.37001 19.63 3.66001 19.82 3.96001C21.34 6.31001 22.88 8.70001 23.71 11.31C24.15 12.68 24.4 14.17 24.34 15.64C24.32 16.17 24.18 16.55 23.96 16.82C23.74 17.09 23.44 17.27 23.08 17.38C22.72 17.49 22.31 17.54 21.87 17.56C21.6 17.57 21.33 17.58 21.05 17.58C20.88 17.58 20.71 17.58 20.54 17.58C20.19 17.58 19.83 17.59 19.47 17.6C18.64 17.6 17.78 17.61 16.93 17.7C15.71 17.82 14.52 18.11 13.52 18.79C12.59 19.42 12.07 20.39 11.76 21.45C11.45 22.51 11.35 23.66 11.27 24.68C11.11 26.83 11.15 29.09 11.35 31.34C11.39 31.35 11.44 31.36 11.49 31.38C11.28 29.12 11.24 26.85 11.41 24.69L11.42 24.67Z" fill="url(#paint38_linear_298_630)"/>
<path d="M14.92 19.67C15.88 19.03 17.02 18.75 18.2 18.63C19.02 18.54 19.85 18.53 20.65 18.52C21.01 18.52 21.37 18.51 21.71 18.5C21.87 18.5 22.04 18.5 22.21 18.49C22.48 18.49 22.75 18.48 23.02 18.46C23.45 18.44 23.88 18.39 24.25 18.27C24.62 18.15 24.95 17.97 25.19 17.68C25.43 17.38 25.58 16.98 25.6 16.44C25.66 14.92 25.39 13.37 24.95 11.95C24.09 9.18998 22.52 6.64999 20.98 4.16999C20.79 3.86999 20.61 3.56999 20.43 3.26999C20.39 3.20999 20.35 3.13999 20.31 3.07999C19.63 1.96999 19 0.999985 18.03 0.149985C17.95 0.139985 17.87 0.119985 17.78 0.109985C18.84 0.969985 19.48 1.96999 20.2 3.14999L20.31 3.32999C20.49 3.62999 20.68 3.92999 20.86 4.22999C22.4 6.71999 23.97 9.23999 24.82 11.98C25.26 13.39 25.53 14.92 25.47 16.43C25.45 16.95 25.31 17.32 25.09 17.59C24.87 17.86 24.57 18.03 24.21 18.14C23.85 18.25 23.44 18.3 23.01 18.32C22.75 18.33 22.48 18.34 22.21 18.35C22.04 18.35 21.87 18.35 21.71 18.36C21.37 18.37 21.01 18.38 20.66 18.38C19.85 18.39 19.01 18.41 18.19 18.49C17 18.62 15.84 18.89 14.85 19.55C13.95 20.15 13.43 21.09 13.11 22.11C12.79 23.12 12.66 24.22 12.55 25.19V25.24C12.31 27.26 12.22 29.4 12.28 31.55C12.32 31.56 12.37 31.57 12.41 31.58C12.35 29.42 12.44 27.27 12.68 25.25V25.21C12.8 24.24 12.93 23.15 13.24 22.15C13.56 21.14 14.06 20.24 14.93 19.66L14.92 19.67Z" fill="url(#paint39_linear_298_630)"/>
<path d="M12.57 21.8C12.88 20.77 13.39 19.85 14.27 19.26C15.24 18.61 16.39 18.33 17.59 18.21C18.42 18.13 19.26 18.12 20.08 18.11C20.44 18.11 20.8 18.11 21.15 18.09C21.31 18.09 21.48 18.09 21.65 18.08C21.92 18.08 22.2 18.08 22.46 18.06C22.9 18.04 23.32 17.99 23.7 17.88C24.08 17.76 24.4 17.58 24.65 17.28C24.89 16.98 25.04 16.58 25.06 16.03C25.12 14.53 24.86 13 24.42 11.6C23.57 8.90002 22.01 6.43002 20.48 4.02002C20.29 3.72002 20.1 3.42002 19.91 3.13002L19.8 2.96002C19.12 1.87002 18.49 0.920017 17.53 0.0900171C17.46 0.0900171 17.38 0.0900171 17.31 0.0800171C18.34 0.920017 18.97 1.89002 19.69 3.03002L19.79 3.19002C19.98 3.49002 20.17 3.79002 20.36 4.09002C21.89 6.51002 23.44 8.96002 24.29 11.64C24.73 13.03 24.99 14.54 24.93 16.03C24.91 16.55 24.77 16.93 24.55 17.2C24.33 17.47 24.03 17.64 23.67 17.75C23.31 17.86 22.9 17.91 22.47 17.93C22.2 17.94 21.93 17.95 21.67 17.95C21.5 17.95 21.33 17.95 21.16 17.96C20.81 17.97 20.46 17.97 20.1 17.98C19.28 17.98 18.43 18 17.59 18.08C16.39 18.2 15.21 18.48 14.21 19.16C13.29 19.77 12.77 20.73 12.46 21.77C12.14 22.81 12.03 23.95 11.94 24.95C11.74 27.04 11.72 29.24 11.85 31.45C11.89 31.46 11.94 31.47 11.99 31.48C11.85 29.27 11.88 27.05 12.07 24.96C12.16 23.96 12.28 22.84 12.59 21.81L12.57 21.8Z" fill="url(#paint40_linear_298_630)"/>
<path d="M28.9 25.02C28.42 25.14 27.94 25.27 27.47 25.42C26.53 25.72 25.62 26.12 24.85 26.77C23.91 27.56 23.07 28.54 22.26 29.49C21.94 29.87 21.61 30.25 21.29 30.61C21.08 30.85 20.86 31.09 20.64 31.33C20.72 31.3 20.81 31.28 20.89 31.25C21.06 31.07 21.22 30.88 21.39 30.7C21.72 30.33 22.04 29.95 22.37 29.57C23.18 28.62 24 27.65 24.94 26.87C25.69 26.24 26.58 25.85 27.52 25.55C27.99 25.4 28.46 25.28 28.94 25.15L29.17 25.09C29.21 25.03 29.25 24.98 29.29 24.92C29.24 24.93 29.19 24.95 29.14 24.96L28.91 25.02H28.9Z" fill="url(#paint41_linear_298_630)"/>
<path d="M18.65 27.92C18.93 27.35 19.22 26.74 19.56 26.16C20.04 25.33 20.6 24.57 21.28 24.07C22.07 23.5 23 23.18 23.97 22.96C24.68 22.8 25.42 22.71 26.13 22.62C26.39 22.59 26.65 22.55 26.9 22.52C26.99 22.51 27.09 22.49 27.19 22.48C27.88 22.39 28.59 22.29 29.17 22.04C29.5 21.9 29.8 21.7 30.03 21.43C30.26 21.15 30.42 20.8 30.49 20.34C30.74 18.64 30.21 16.66 29.78 15.08C28.88 11.79 27.24 8.66998 25.63 5.59998C25.42 5.18998 25.2 4.78998 24.99 4.37998C24.92 4.24998 24.86 4.11998 24.79 3.98998C24.41 3.24998 24.04 2.56998 23.59 1.91998C23.51 1.86998 23.41 1.83998 23.33 1.78998C23.85 2.47998 24.25 3.21998 24.68 4.03998C24.75 4.16998 24.81 4.28998 24.88 4.41998C25.09 4.81998 25.3 5.22998 25.52 5.63998C27.13 8.70998 28.77 11.82 29.66 15.09C30.09 16.67 30.61 18.63 30.36 20.3C30.3 20.74 30.14 21.07 29.93 21.32C29.72 21.58 29.44 21.76 29.12 21.9C28.55 22.14 27.86 22.24 27.17 22.33C27.07 22.34 26.98 22.36 26.88 22.37C26.63 22.41 26.38 22.44 26.12 22.47C25.4 22.56 24.66 22.66 23.94 22.82C22.96 23.03 22.01 23.36 21.2 23.95C20.5 24.46 19.93 25.24 19.45 26.08C19.11 26.67 18.81 27.29 18.53 27.86C18.41 28.1 18.3 28.33 18.19 28.55C17.63 29.67 17.08 30.81 16.57 31.97C16.62 31.97 16.67 31.97 16.72 31.97C17.22 30.83 17.75 29.71 18.31 28.61C18.42 28.39 18.54 28.15 18.65 27.91V27.92Z" fill="url(#paint42_linear_298_630)"/>
<path d="M26.17 5.81998C25.98 5.45998 25.8 5.09998 25.61 4.73998C25.52 4.55998 25.43 4.38998 25.34 4.20998C25.02 3.57998 24.71 2.96998 24.34 2.38998C24.25 2.33998 24.17 2.27998 24.08 2.22998C24.5 2.86998 24.86 3.54998 25.22 4.26998C25.31 4.43998 25.4 4.61998 25.49 4.79998C25.68 5.15998 25.86 5.51998 26.05 5.87998C27.66 8.98998 29.28 12.14 30.18 15.45C30.61 17.06 31.14 19.03 30.89 20.72C30.83 21.15 30.68 21.48 30.47 21.74C30.26 22 30 22.19 29.69 22.33C29.12 22.59 28.43 22.71 27.72 22.82C27.65 22.83 27.57 22.84 27.5 22.86C27.24 22.9 26.99 22.94 26.73 22.98C26.04 23.08 25.32 23.19 24.63 23.36C23.67 23.59 22.75 23.92 21.96 24.5C21.27 25.01 20.69 25.77 20.18 26.58C19.84 27.11 19.54 27.67 19.25 28.2C19.1 28.47 18.96 28.73 18.82 28.97C18.26 29.95 17.72 30.94 17.19 31.95C17.24 31.95 17.29 31.95 17.34 31.95C17.85 30.97 18.39 29.99 18.93 29.04C19.07 28.79 19.22 28.53 19.36 28.26C19.65 27.74 19.95 27.19 20.28 26.66C20.79 25.86 21.35 25.11 22.03 24.62C22.8 24.05 23.71 23.72 24.66 23.5C25.35 23.34 26.06 23.23 26.75 23.13C27.01 23.09 27.27 23.05 27.53 23.01C27.6 23 27.68 22.99 27.75 22.97C28.45 22.86 29.17 22.74 29.75 22.47C30.07 22.32 30.36 22.12 30.58 21.84C30.8 21.56 30.96 21.21 31.02 20.75C31.27 19.03 30.74 17.03 30.31 15.43C29.41 12.11 27.78 8.93998 26.17 5.82998V5.81998Z" fill="url(#paint43_linear_298_630)"/>
<path d="M28.26 23.3L28.11 23.33C27.85 23.38 27.59 23.42 27.33 23.47C26.66 23.59 25.97 23.71 25.31 23.88C24.38 24.12 23.48 24.46 22.71 25.04C22.02 25.55 21.43 26.29 20.9 27.07C20.57 27.55 20.27 28.05 19.97 28.52C19.79 28.82 19.61 29.11 19.44 29.37C18.91 30.19 18.38 31.04 17.86 31.89C17.92 31.89 17.97 31.87 18.03 31.86C18.53 31.04 19.04 30.24 19.55 29.44C19.73 29.17 19.9 28.88 20.09 28.58C20.38 28.11 20.68 27.62 21.01 27.14C21.54 26.36 22.12 25.64 22.79 25.14C23.54 24.58 24.43 24.24 25.35 24C26.01 23.83 26.69 23.71 27.36 23.6C27.62 23.55 27.89 23.51 28.15 23.46L28.3 23.43C29.02 23.3 29.74 23.16 30.33 22.86C30.39 22.83 30.44 22.79 30.5 22.75C30.54 22.67 30.57 22.6 30.61 22.52C30.5 22.6 30.39 22.67 30.27 22.73C29.7 23.02 29 23.15 28.27 23.29L28.26 23.3Z" fill="url(#paint44_linear_298_630)"/>
<path d="M28.54 24.46C28 24.58 27.44 24.71 26.91 24.86C26.04 25.11 25.19 25.43 24.44 25.96C23.69 26.48 23.03 27.2 22.42 27.95C22.11 28.33 21.82 28.72 21.53 29.1L21.49 29.15C21.21 29.51 20.94 29.87 20.67 30.2C20.51 30.4 20.35 30.59 20.2 30.78C19.98 31.05 19.76 31.33 19.54 31.6C19.61 31.58 19.68 31.56 19.76 31.54C19.94 31.31 20.13 31.08 20.31 30.86C20.47 30.67 20.63 30.47 20.78 30.28C21.05 29.94 21.32 29.59 21.6 29.22L21.64 29.17C21.93 28.79 22.22 28.4 22.53 28.03C23.14 27.28 23.79 26.58 24.53 26.06C25.26 25.55 26.09 25.23 26.96 24.98C27.5 24.83 28.04 24.7 28.58 24.58C28.91 24.5 29.25 24.43 29.58 24.35C29.6 24.35 29.63 24.34 29.65 24.33C29.68 24.28 29.72 24.22 29.75 24.17C29.68 24.19 29.62 24.21 29.55 24.22C29.23 24.3 28.9 24.38 28.56 24.45L28.54 24.46Z" fill="url(#paint45_linear_298_630)"/>
<path d="M27.95 23.96C27.38 24.07 26.79 24.19 26.22 24.34C25.32 24.57 24.45 24.89 23.68 25.42C22.92 25.94 22.27 26.67 21.69 27.45C21.4 27.84 21.12 28.25 20.84 28.64L20.72 28.82C20.49 29.15 20.27 29.48 20.05 29.79L19.91 29.98C19.48 30.57 19.05 31.17 18.62 31.78C18.68 31.77 18.74 31.76 18.8 31.75C19.2 31.18 19.61 30.61 20.02 30.05L20.15 29.86C20.37 29.55 20.6 29.23 20.82 28.89C20.86 28.83 20.9 28.77 20.94 28.71C21.21 28.31 21.49 27.91 21.78 27.52C22.36 26.74 23 26.02 23.74 25.52C24.49 25.01 25.35 24.69 26.24 24.46C26.81 24.31 27.38 24.2 27.95 24.08C28.28 24.01 28.61 23.95 28.93 23.88C29.32 23.79 29.7 23.71 30.05 23.6C30.08 23.54 30.1 23.49 30.13 23.43C29.75 23.55 29.34 23.65 28.9 23.75C28.58 23.82 28.26 23.88 27.93 23.95L27.95 23.96Z" fill="url(#paint46_linear_298_630)"/>
<path d="M7.15001 17.1C8.68001 15.63 10.64 14.84 12.6 14.05C12.87 13.94 13.14 13.83 13.41 13.72C14.26 13.37 15.02 13.05 15.57 12.56C16.13 12.07 16.47 11.42 16.5 10.41C16.54 9.17997 16.37 7.95997 15.98 6.78997C15.6 5.64997 14.91 4.62997 14.13 3.66997C13.64 3.06997 13.12 2.49997 12.6 1.93997C12.29 1.60997 11.99 1.27997 11.71 0.949973C11.62 0.849973 11.54 0.759973 11.45 0.659973C11.4 0.669973 11.35 0.679973 11.3 0.699973C11.4 0.809973 11.5 0.919973 11.61 1.03997C11.9 1.36997 12.2 1.69997 12.51 2.02997C13.02 2.57997 13.54 3.14997 14.03 3.74997C14.81 4.69997 15.48 5.70997 15.85 6.81997C16.23 7.96997 16.41 9.16997 16.36 10.39C16.33 11.36 16 11.98 15.47 12.44C14.94 12.91 14.21 13.22 13.35 13.57C13.08 13.68 12.81 13.79 12.54 13.9C10.59 14.69 8.6 15.49 7.05 16.98C5.14 18.81 4.57002 21.57 4.19002 24.06C4.07002 24.83 3.98001 25.63 3.90001 26.44C3.94001 26.49 3.98 26.53 4.02 26.57C4.1 25.72 4.18999 24.88 4.31999 24.07C4.69999 21.57 5.27 18.86 7.14 17.06L7.15001 17.1Z" fill="url(#paint47_linear_298_630)"/>
<path d="M6.74001 17.26C8.25001 15.71 10.23 14.79 12.19 13.89C12.38 13.8 12.57 13.71 12.76 13.62C13.63 13.22 14.4 12.85 14.97 12.31C15.54 11.77 15.89 11.07 15.92 10.02C15.96 8.82002 15.8 7.62002 15.41 6.51002C15.03 5.43002 14.38 4.46002 13.63 3.56002C13.14 2.97002 12.61 2.40002 12.09 1.85002C11.82 1.56002 11.55 1.27002 11.29 0.98002L11.19 0.87002C11.19 0.87002 11.13 0.80002 11.1 0.77002C11.05 0.78002 11.01 0.80002 10.96 0.82002C11.01 0.87002 11.05 0.92002 11.09 0.97002L11.18 1.07002C11.44 1.36002 11.71 1.65002 11.99 1.94002C12.51 2.49002 13.03 3.05002 13.52 3.64002C14.26 4.54002 14.9 5.49002 15.28 6.55002C15.67 7.65002 15.82 8.83002 15.79 10.02C15.76 11.04 15.42 11.7 14.88 12.22C14.34 12.74 13.58 13.1 12.71 13.5C12.52 13.59 12.33 13.68 12.13 13.77C10.18 14.67 8.17 15.59 6.64 17.17C4.83 19.04 4.21 21.79 3.8 24.26C3.7 24.84 3.61999 25.44 3.53999 26.06C3.57999 26.11 3.61001 26.16 3.65001 26.21C3.73001 25.55 3.82001 24.91 3.93001 24.29C4.34001 21.82 4.95001 19.1 6.74001 17.27V17.26Z" fill="url(#paint48_linear_298_630)"/>
<path d="M6.36 17.44C7.83 15.82 9.75 14.8 11.67 13.79C11.94 13.65 12.21 13.5 12.48 13.36C13.26 12.94 13.95 12.55 14.46 12.02C14.97 11.49 15.29 10.83 15.33 9.88002C15.39 8.64002 15.24 7.39002 14.83 6.23002C14.46 5.17002 13.8 4.23002 13.06 3.36002C12.58 2.79002 12.05 2.25002 11.54 1.71002C11.28 1.44002 11.02 1.16002 10.77 0.900024C10.74 0.910024 10.71 0.919993 10.68 0.929993L10.65 0.959993C10.91 1.23999 11.18 1.52002 11.46 1.81002C11.97 2.34002 12.49 2.88002 12.97 3.45002C13.71 4.32002 14.35 5.24002 14.71 6.28002C15.11 7.42002 15.26 8.66002 15.21 9.88002C15.17 10.8 14.86 11.43 14.37 11.94C13.88 12.45 13.21 12.83 12.42 13.25C12.15 13.39 11.88 13.54 11.61 13.68C9.69 14.69 7.73999 15.72 6.25999 17.36C4.51999 19.29 3.88001 21.96 3.43001 24.43C3.36001 24.83 3.30001 25.23 3.23001 25.64C3.27001 25.69 3.30001 25.74 3.34001 25.79C3.41001 25.34 3.47001 24.9 3.56001 24.46C4.02001 21.99 4.65 19.35 6.36 17.45V17.44Z" fill="url(#paint49_linear_298_630)"/>
<path d="M7.56001 16.96C9.12001 15.57 11.1 14.89 13.06 14.2C13.4 14.08 13.75 13.96 14.09 13.84C14.99 13.51 15.73 13.21 16.26 12.73C16.79 12.24 17.08 11.58 17.1 10.55C17.12 9.37002 16.94 8.19002 16.56 7.08002C16.17 5.92002 15.48 4.87002 14.7 3.88002C14.21 3.26002 13.67 2.66002 13.15 2.08002C12.85 1.74002 12.55 1.41002 12.27 1.08002C12.12 0.910017 11.98 0.740017 11.83 0.580017C11.78 0.590017 11.73 0.600017 11.69 0.620017C11.85 0.800017 12.01 0.980017 12.17 1.17002C12.46 1.50002 12.76 1.84002 13.06 2.18002C13.58 2.76002 14.11 3.35002 14.6 3.97002C15.38 4.95002 16.06 5.99002 16.44 7.12002C16.81 8.22002 16.99 9.38002 16.97 10.55C16.95 11.55 16.67 12.18 16.18 12.63C15.68 13.09 14.96 13.38 14.06 13.71C13.72 13.83 13.38 13.95 13.04 14.07C11.08 14.75 9.07001 15.45 7.49001 16.85C5.50001 18.61 4.95 21.43 4.61 23.93C4.48 24.89 4.39 25.89 4.33 26.91C4.37 26.96 4.41 27 4.45 27.05C4.51 25.99 4.60001 24.95 4.74001 23.95C5.08001 21.45 5.62999 18.68 7.56999 16.95L7.56001 16.96Z" fill="url(#paint50_linear_298_630)"/>
<path d="M11.15 13.72C11.38 13.58 11.62 13.44 11.85 13.3C12.66 12.81 13.37 12.37 13.89 11.79C14.41 11.21 14.73 10.51 14.76 9.49999C14.81 8.28999 14.66 7.07999 14.26 5.94999C13.89 4.90999 13.24 3.99999 12.5 3.14999C12.02 2.59999 11.5 2.07999 11 1.55999C10.81 1.36999 10.63 1.17999 10.45 0.98999C10.4 1.00999 10.36 1.01999 10.31 1.03999C10.51 1.23999 10.71 1.44999 10.91 1.64999C11.42 2.15999 11.93 2.67999 12.4 3.21999C13.13 4.05999 13.77 4.95999 14.13 5.97999C14.52 7.08999 14.67 8.28999 14.62 9.47999C14.58 10.46 14.28 11.13 13.78 11.68C13.28 12.24 12.59 12.67 11.78 13.16C11.55 13.3 11.31 13.44 11.08 13.58C9.21 14.69 7.31001 15.82 5.87001 17.52C4.22001 19.48 3.53 22.13 3.05 24.58C3.01 24.79 2.98 25.01 2.94 25.22C2.98 25.27 3.01 25.32 3.05 25.37C3.09 25.12 3.13001 24.86 3.18001 24.61C3.66001 22.16 4.34002 19.54 5.97002 17.61C7.39002 15.93 9.27 14.81 11.14 13.7L11.15 13.72Z" fill="url(#paint51_linear_298_630)"/>
<path d="M13.56 14.35C13.82 14.27 14.09 14.19 14.35 14.11C15.27 13.83 16.09 13.58 16.68 13.13C17.28 12.68 17.64 12.02 17.66 10.95C17.69 9.72997 17.5 8.51997 17.12 7.36997C16.73 6.17997 16.04 5.09997 15.25 4.08997C14.75 3.44997 14.21 2.82997 13.68 2.21997C13.38 1.86997 13.08 1.52997 12.8 1.18997C12.59 0.939971 12.39 0.699971 12.18 0.469971C12.13 0.479971 12.08 0.499971 12.03 0.509971C12.25 0.749971 12.47 1.00997 12.69 1.26997C12.98 1.60997 13.28 1.95997 13.58 2.29997C14.1 2.89997 14.64 3.51997 15.14 4.15997C15.92 5.16997 16.6 6.22997 16.99 7.39997C17.37 8.53997 17.55 9.72997 17.53 10.94C17.51 11.98 17.16 12.59 16.6 13.02C16.03 13.45 15.24 13.69 14.32 13.98C14.06 14.06 13.79 14.14 13.53 14.22C11.42 14.84 9.21001 15.5 7.56001 17.04C5.74001 18.73 5.28999 21.48 5.00999 23.8C4.86999 24.96 4.78002 26.16 4.75002 27.38C4.79002 27.42 4.84002 27.46 4.88002 27.5C4.91002 26.25 5 25.01 5.14 23.82C5.43 21.49 5.87001 18.79 7.65001 17.14C9.28001 15.63 11.45 14.98 13.56 14.35Z" fill="url(#paint52_linear_298_630)"/>
<path d="M5.67 17.37C6.84 15.97 8.23 14.79 9.64 13.62C9.93 13.38 10.21 13.14 10.5 12.9C11.26 12.26 11.88 11.68 12.31 11.01C12.75 10.33 13 9.56001 13.02 8.54001C13.05 7.41001 12.92 6.26001 12.54 5.21001C12.19 4.26001 11.58 3.44001 10.87 2.69001C10.45 2.24001 9.98999 1.81001 9.53999 1.39001C9.49999 1.41001 9.45002 1.43001 9.41002 1.45001C9.87002 1.88001 10.34 2.32001 10.78 2.78001C11.48 3.53001 12.08 4.33001 12.42 5.26001C12.8 6.29001 12.92 7.43001 12.9 8.54001C12.87 9.54001 12.63 10.29 12.21 10.95C11.79 11.61 11.18 12.18 10.42 12.81C10.14 13.05 9.85001 13.29 9.56001 13.52C7.98001 14.83 6.39002 16.15 5.13002 17.81C3.71002 19.69 2.86001 21.92 2.26001 24.18C2.29001 24.23 2.32 24.29 2.36 24.34C2.97 22.05 3.81001 19.78 5.24001 17.89C5.29001 17.82 5.35001 17.76 5.40001 17.7C5.43001 17.66 5.46001 17.62 5.49001 17.57C5.55001 17.5 5.61 17.44 5.67 17.37Z" fill="url(#paint53_linear_298_630)"/>
<path d="M10.57 13.72C10.9 13.5 11.23 13.28 11.56 13.05C12.32 12.53 12.96 12.04 13.42 11.44C13.88 10.84 14.15 10.12 14.19 9.15001C14.23 7.98001 14.09 6.79001 13.7 5.70001C13.34 4.68001 12.69 3.80001 11.95 2.97001C11.48 2.44001 10.96 1.94 10.46 1.45C10.35 1.34 10.25 1.24 10.14 1.13C10.09 1.15 10.05 1.16 10 1.18C10.12 1.3 10.25 1.43 10.37 1.55C10.87 2.04 11.38 2.54 11.85 3.06C12.58 3.88 13.21 4.75001 13.57 5.74001C13.96 6.82001 14.09 7.99001 14.06 9.15001C14.03 10.1 13.76 10.78 13.32 11.36C12.88 11.94 12.25 12.42 11.49 12.94C11.16 13.16 10.84 13.38 10.51 13.6C8.97999 14.62 7.45001 15.66 6.18001 17.01C7.34001 15.76 8.69001 14.72 10.06 13.7C10.41 13.44 10.76 13.17 11.11 12.91C11.84 12.35 12.45 11.82 12.89 11.19C13.33 10.56 13.58 9.83001 13.62 8.86001C13.66 7.70001 13.53 6.52 13.13 5.44C12.77 4.44 12.12 3.58 11.39 2.78C10.92 2.27 10.41 1.79 9.92 1.31C9.89 1.28 9.87001 1.26 9.84001 1.23C9.80001 1.25 9.75001 1.27 9.71001 1.29C9.75001 1.33 9.79001 1.37 9.84001 1.41C10.33 1.88 10.83 2.36 11.3 2.87C12.03 3.66 12.66 4.51 13.01 5.48C13.4 6.54 13.53 7.71001 13.49 8.85001C13.46 9.79001 13.21 10.5 12.79 11.11C12.37 11.72 11.77 12.24 11.04 12.8C10.69 13.07 10.34 13.33 9.99001 13.59C8.46001 14.73 6.94002 15.89 5.69002 17.36C5.60002 17.47 5.5 17.57 5.42 17.68C3.86 19.66 3.06001 22.09 2.48001 24.51C2.51001 24.56 2.54 24.62 2.58 24.67C3.17 22.17 3.99 19.65 5.61 17.64C5.67 17.57 5.72999 17.51 5.78999 17.45C5.78999 17.45 5.80001 17.43 5.81001 17.42C5.83001 17.4 5.85002 17.38 5.88002 17.35C5.85002 17.38 5.81999 17.41 5.78999 17.45C4.03999 19.51 3.28 22.2 2.72 24.78C2.72 24.81 2.71001 24.84 2.70001 24.88C2.73001 24.93 2.77001 24.98 2.81001 25.03C2.83001 24.96 2.84001 24.88 2.85001 24.81C3.41001 22.22 4.17002 19.54 5.91002 17.51C7.23002 15.96 8.91001 14.84 10.59 13.72H10.57Z" fill="url(#paint54_linear_298_630)"/>
<path d="M7.41001 23.52C7.48001 22.36 7.60999 21.08 7.97999 19.92C8.34999 18.76 8.94999 17.72 9.97999 17.02C10.96 16.35 12.09 16 13.27 15.78C14.15 15.62 15.05 15.53 15.92 15.44C16.22 15.41 16.52 15.38 16.81 15.35C16.94 15.34 17.08 15.32 17.21 15.31C17.96 15.23 18.68 15.16 19.26 14.92C19.6 14.78 19.9 14.57 20.12 14.27C20.34 13.97 20.48 13.57 20.52 13.05C20.63 11.67 20.39 10.2 19.95 8.93001C19.19 6.73001 17.73 4.80001 16.3 2.91001C16.07 2.61001 15.85 2.31001 15.63 2.01001L15.54 1.89001C15.06 1.25001 14.61 0.670015 14.09 0.140015C14.03 0.140015 13.98 0.160015 13.93 0.170015C14.48 0.710015 14.94 1.30001 15.44 1.98001L15.52 2.09001C15.74 2.39001 15.97 2.69001 16.2 2.99001C17.63 4.88001 19.08 6.79001 19.83 8.97001C20.27 10.23 20.5 11.67 20.4 13.04C20.36 13.54 20.23 13.91 20.03 14.19C19.83 14.47 19.55 14.66 19.23 14.8C18.67 15.03 17.97 15.11 17.22 15.18C17.09 15.19 16.95 15.21 16.81 15.22C16.52 15.25 16.22 15.28 15.92 15.31C15.04 15.4 14.14 15.49 13.25 15.65C12.06 15.87 10.91 16.23 9.91001 16.91C8.85001 17.63 8.22999 18.7 7.85999 19.88C7.48999 21.06 7.35999 22.35 7.28999 23.51C7.15999 25.54 7.28999 27.57 7.56999 29.59C7.61999 29.62 7.67001 29.65 7.72001 29.68C7.43001 27.64 7.3 25.58 7.43 23.52H7.41001Z" fill="url(#paint55_linear_298_630)"/>
<path d="M8.44001 16.76C10.06 15.53 12.08 15.02 14.04 14.53C14.23 14.48 14.42 14.44 14.61 14.39C14.7 14.37 14.79 14.34 14.89 14.32C15.72 14.11 16.5 13.91 17.1 13.54C17.43 13.33 17.71 13.07 17.91 12.71C18.11 12.36 18.22 11.92 18.24 11.36C18.28 10.1 18.11 8.82001 17.69 7.66001C16.96 5.65001 15.53 3.93 14.13 2.25C13.87 1.93 13.6 1.62 13.35 1.31C13.08 0.980005 12.82 0.680005 12.55 0.380005C12.5 0.390005 12.45 0.410005 12.4 0.420005C12.68 0.730005 12.96 1.05 13.24 1.4C13.5 1.72 13.76 2.03 14.03 2.35C15.43 4.02 16.85 5.72 17.57 7.71C17.98 8.85 18.15 10.12 18.11 11.36C18.09 11.9 17.98 12.31 17.8 12.64C17.62 12.97 17.36 13.22 17.04 13.42C16.46 13.78 15.7 13.97 14.87 14.18C14.78 14.2 14.69 14.23 14.6 14.25C14.41 14.3 14.22 14.35 14.03 14.39C12.07 14.88 10.02 15.39 8.38001 16.64C6.22001 18.28 5.71999 21.16 5.44999 23.68C5.30999 25.02 5.24001 26.41 5.25001 27.82C5.30001 27.86 5.33999 27.9 5.38999 27.94C5.37999 26.49 5.43 25.07 5.58 23.69C5.85 21.17 6.35 18.35 8.46 16.74L8.44001 16.76Z" fill="url(#paint56_linear_298_630)"/>
<path d="M7.91002 23.56C7.97002 22.42 8.08999 21.15 8.44999 20C8.80999 18.85 9.41 17.82 10.43 17.14C11.42 16.48 12.56 16.15 13.75 15.96C14.63 15.82 15.52 15.76 16.4 15.7C16.71 15.68 17.02 15.66 17.32 15.63C17.46 15.62 17.6 15.61 17.74 15.6C18.04 15.58 18.35 15.56 18.63 15.52C19.05 15.47 19.45 15.4 19.8 15.26C20.15 15.12 20.45 14.93 20.68 14.62C20.9 14.32 21.05 13.92 21.09 13.4C21.2 12 20.95 10.52 20.51 9.23001C19.74 6.99001 18.28 5.00001 16.85 3.06001C16.66 2.80001 16.47 2.54001 16.28 2.29001C16.18 2.15001 16.07 2.01001 15.97 1.86001C15.52 1.22001 15.06 0.610007 14.51 0.0700073C14.45 0.0700073 14.39 0.0700073 14.33 0.0700073C14.91 0.620007 15.37 1.26001 15.85 1.93001C15.95 2.07001 16.06 2.22001 16.16 2.36001C16.35 2.62001 16.54 2.88001 16.73 3.13001C18.16 5.07001 19.61 7.04001 20.37 9.26001C20.81 10.54 21.05 12 20.94 13.38C20.9 13.89 20.76 14.26 20.56 14.54C20.35 14.82 20.08 15 19.74 15.13C19.41 15.26 19.02 15.33 18.6 15.38C18.32 15.41 18.02 15.43 17.72 15.46C17.58 15.47 17.44 15.48 17.29 15.49C16.99 15.51 16.68 15.54 16.37 15.56C15.5 15.62 14.59 15.68 13.71 15.82C12.51 16.01 11.34 16.35 10.33 17.02C9.28 17.72 8.66 18.78 8.3 19.95C7.93 21.12 7.81001 22.39 7.75001 23.54C7.64001 25.71 7.82999 27.85 8.16999 29.97C8.21999 30 8.26999 30.03 8.31999 30.06C7.95999 27.91 7.76002 25.75 7.88002 23.55L7.91002 23.56Z" fill="url(#paint57_linear_298_630)"/>
<path d="M8.96001 23.77C9.00001 22.74 9.11001 21.55 9.43001 20.46C9.75001 19.36 10.28 18.36 11.15 17.7C12.09 16.98 13.26 16.64 14.49 16.48C15.44 16.35 16.43 16.33 17.36 16.31C17.62 16.31 17.88 16.3 18.14 16.29C18.32 16.29 18.51 16.29 18.69 16.28C18.95 16.28 19.22 16.28 19.48 16.26C19.93 16.24 20.36 16.19 20.75 16.08C21.14 15.97 21.48 15.79 21.75 15.5C22.01 15.21 22.18 14.81 22.24 14.26C22.38 12.8 22.09 11.24 21.64 9.89998C20.85 7.52998 19.35 5.40998 17.89 3.32998C17.67 3.01998 17.46 2.71998 17.25 2.40998C17.2 2.33998 17.16 2.27998 17.11 2.20998C16.56 1.40998 16.04 0.679978 15.35 0.039978C15.28 0.039978 15.22 0.039978 15.15 0.049978C15.88 0.699978 16.42 1.44998 17 2.28998C17.05 2.35998 17.09 2.41998 17.14 2.48998C17.35 2.79998 17.57 3.09998 17.79 3.40998C19.25 5.48998 20.73 7.58998 21.52 9.93998C21.97 11.27 22.25 12.82 22.11 14.25C22.06 14.77 21.89 15.14 21.65 15.41C21.41 15.68 21.09 15.85 20.72 15.95C20.35 16.06 19.92 16.1 19.48 16.12C19.22 16.13 18.96 16.14 18.7 16.14C18.51 16.14 18.33 16.14 18.14 16.15C17.89 16.15 17.63 16.16 17.37 16.17C16.44 16.19 15.45 16.21 14.49 16.34C13.25 16.5 12.06 16.84 11.09 17.59C10.19 18.28 9.64999 19.31 9.31999 20.42C8.98999 21.53 8.88001 22.73 8.84001 23.76C8.76001 26 8.97001 28.27 9.34001 30.53C9.39001 30.55 9.44001 30.58 9.49001 30.6C9.11001 28.32 8.89 26.02 8.98 23.76L8.96001 23.77Z" fill="url(#paint58_linear_298_630)"/>
<path d="M10.19 24.17C10.24 23.12 10.34 21.95 10.65 20.88C10.96 19.81 11.49 18.85 12.4 18.2C13.39 17.5 14.57 17.21 15.8 17.08C16.65 16.99 17.52 16.98 18.37 16.98C18.74 16.98 19.11 16.98 19.47 16.96C19.63 16.96 19.79 16.96 19.95 16.95C20.24 16.95 20.53 16.94 20.82 16.92C21.26 16.9 21.68 16.84 22.05 16.72C22.42 16.6 22.74 16.41 22.98 16.1C23.21 15.79 23.36 15.38 23.38 14.82C23.43 13.37 23.2 11.91 22.76 10.56C21.94 8.03 20.39 5.75 18.89 3.52C18.63 3.14 18.37 2.76 18.12 2.37C17.53 1.48 16.98 0.69 16.2 0C16.14 0 16.08 0 16.01 0C16 0 15.99 0 15.98 0C16.82 0.7 17.39 1.51 18.01 2.46L18.09 2.59C18.32 2.93 18.55 3.27 18.78 3.61C20.29 5.84 21.82 8.11 22.64 10.61C23.08 11.95 23.31 13.39 23.25 14.82C23.23 15.36 23.09 15.75 22.88 16.03C22.67 16.31 22.37 16.49 22.02 16.6C21.67 16.72 21.26 16.77 20.82 16.79C20.54 16.81 20.25 16.81 19.96 16.82C19.8 16.82 19.64 16.82 19.48 16.83C19.13 16.84 18.76 16.84 18.39 16.85C17.55 16.85 16.66 16.87 15.8 16.95C14.56 17.08 13.35 17.38 12.34 18.1C11.39 18.77 10.86 19.76 10.54 20.85C10.22 21.93 10.13 23.12 10.08 24.17C9.97001 26.4 10.12 28.7 10.42 30.99C10.47 31.01 10.51 31.02 10.56 31.04C10.25 28.73 10.1 26.42 10.21 24.18L10.19 24.17Z" fill="url(#paint59_linear_298_630)"/>
<path d="M8.41999 23.64C8.46999 22.6 8.58 21.4 8.9 20.29C9.22 19.18 9.74999 18.17 10.64 17.5C11.59 16.78 12.75 16.42 13.96 16.23C14.92 16.08 15.91 16.04 16.84 16C17.09 15.99 17.34 15.98 17.59 15.96C17.77 15.96 17.95 15.94 18.14 15.94C18.4 15.94 18.67 15.92 18.92 15.9C19.36 15.87 19.8 15.82 20.18 15.7C20.57 15.58 20.91 15.4 21.17 15.1C21.43 14.81 21.6 14.41 21.65 13.87C21.79 12.43 21.51 10.89 21.06 9.55999C20.28 7.24999 18.8 5.19999 17.36 3.19999C17.18 2.93999 16.99 2.68999 16.81 2.42999C16.71 2.27999 16.6 2.13999 16.5 1.98999C16.02 1.29999 15.54 0.629988 14.94 0.0499878C14.88 0.0499878 14.82 0.0499878 14.76 0.0499878C15.4 0.629988 15.89 1.32999 16.4 2.05999C16.5 2.20999 16.61 2.35999 16.71 2.49999C16.89 2.75999 17.08 3.00999 17.26 3.26999C18.7 5.27999 20.17 7.30999 20.94 9.59999C21.38 10.91 21.66 12.44 21.52 13.85C21.47 14.36 21.31 14.74 21.07 15C20.83 15.27 20.51 15.44 20.14 15.56C19.77 15.67 19.35 15.73 18.91 15.76C18.65 15.78 18.39 15.79 18.13 15.8C17.94 15.8 17.76 15.81 17.57 15.82C17.33 15.83 17.08 15.84 16.83 15.86C15.89 15.9 14.89 15.95 13.93 16.1C12.7 16.29 11.52 16.65 10.55 17.39C9.63999 18.09 9.08999 19.13 8.76999 20.25C8.43999 21.37 8.32998 22.58 8.28998 23.63C8.18998 25.84 8.39999 28.06 8.76999 30.27C8.81999 30.29 8.86999 30.32 8.91999 30.34C8.53999 28.11 8.33 25.87 8.43 23.64H8.41999Z" fill="url(#paint60_linear_298_630)"/>
<path d="M8.82001 16.77C10.47 15.57 12.53 15.15 14.51 14.73C14.7 14.69 14.9 14.65 15.09 14.61C15.2 14.59 15.31 14.56 15.42 14.54C16.24 14.37 17.02 14.21 17.63 13.87C17.97 13.68 18.26 13.42 18.47 13.07C18.68 12.72 18.8 12.28 18.81 11.72C18.85 10.45 18.67 9.15 18.25 7.97C17.51 5.91 16.07 4.13 14.66 2.41C14.4 2.09 14.13 1.77 13.88 1.44C13.56 1.04 13.25 0.659998 12.92 0.309998C12.87 0.319998 12.81 0.319998 12.76 0.329998C13.11 0.699998 13.43 1.09 13.78 1.52C14.04 1.84 14.3 2.17 14.57 2.49C15.98 4.22 17.41 5.97 18.14 8.01C18.55 9.16 18.73 10.45 18.69 11.71C18.67 12.25 18.56 12.67 18.36 12.99C18.17 13.31 17.9 13.55 17.57 13.74C16.99 14.07 16.23 14.23 15.4 14.4C15.29 14.42 15.18 14.45 15.07 14.47C14.88 14.51 14.68 14.55 14.49 14.59C12.51 15 10.42 15.43 8.75003 16.65C6.58003 18.23 6.11002 21.11 5.87002 23.59C5.73002 25.12 5.70002 26.71 5.77002 28.3C5.82002 28.34 5.86003 28.37 5.91003 28.41C5.84003 26.78 5.86003 25.16 6.00003 23.6C6.23003 21.12 6.70001 18.3 8.82001 16.76V16.77Z" fill="url(#paint61_linear_298_630)"/>
<path d="M6.45999 23.55C6.55999 22.4 6.7 21.13 7.06 19.97C7.42 18.81 7.98998 17.75 8.94998 17C9.90998 16.25 11.04 15.81 12.22 15.5C13.09 15.27 13.98 15.12 14.86 14.97C15.18 14.92 15.5 14.86 15.81 14.8C15.92 14.78 16.03 14.76 16.14 14.74C16.92 14.6 17.67 14.47 18.24 14.16C18.57 13.98 18.85 13.75 19.05 13.42C19.25 13.09 19.37 12.68 19.39 12.14C19.45 10.83 19.25 9.47998 18.83 8.27998C18.09 6.18998 16.65 4.36998 15.25 2.59998C15.02 2.30998 14.79 2.01998 14.56 1.71998L14.48 1.61998C14.09 1.11998 13.73 0.65998 13.33 0.22998C13.28 0.22998 13.22 0.24998 13.17 0.24998C13.59 0.68998 13.97 1.16998 14.38 1.69998L14.45 1.78998C14.68 2.07998 14.91 2.37998 15.14 2.66998C16.54 4.43998 17.97 6.22998 18.7 8.29998C19.12 9.48998 19.31 10.82 19.26 12.11C19.24 12.63 19.12 13.02 18.94 13.33C18.75 13.63 18.5 13.85 18.18 14.02C17.62 14.32 16.9 14.44 16.12 14.58C16.01 14.6 15.9 14.62 15.79 14.64C15.48 14.7 15.17 14.75 14.85 14.8C13.97 14.95 13.07 15.1 12.2 15.33C11.01 15.64 9.86001 16.09 8.88001 16.85C7.89001 17.62 7.31001 18.71 6.94001 19.88C6.58001 21.06 6.43 22.33 6.34 23.49C6.2 25.2 6.22 26.95 6.34 28.69C6.39 28.73 6.42998 28.76 6.47998 28.79C6.33998 27.01 6.32 25.23 6.47 23.49L6.45999 23.55Z" fill="url(#paint62_linear_298_630)"/>
<path d="M6.91999 23.51C6.98999 22.45 7.11 21.25 7.43 20.14C7.74 19.03 8.25001 18 9.10001 17.27C10.1 16.41 11.33 15.94 12.63 15.64C13.56 15.43 14.52 15.3 15.45 15.18C15.82 15.13 16.19 15.08 16.55 15.03L16.74 15C17.52 14.89 18.27 14.78 18.84 14.48C19.15 14.32 19.42 14.1 19.61 13.79C19.8 13.48 19.92 13.09 19.95 12.58C20.03 11.23 19.82 9.83 19.38 8.59C18.63 6.44 17.18 4.57 15.77 2.75C15.54 2.45 15.31 2.15 15.08 1.86L15 1.75C14.57 1.18 14.16 0.660002 13.71 0.190002C13.65 0.190002 13.6 0.210002 13.54 0.220002C14.02 0.710002 14.44 1.24 14.9 1.84L14.98 1.95C15.21 2.25 15.44 2.55 15.67 2.85C17.09 4.68 18.52 6.53 19.26 8.65C19.69 9.88 19.9 11.26 19.82 12.59C19.79 13.08 19.68 13.45 19.5 13.74C19.32 14.03 19.08 14.23 18.78 14.38C18.23 14.67 17.5 14.77 16.71 14.89C16.65 14.89 16.59 14.91 16.52 14.92C16.16 14.97 15.8 15.02 15.43 15.07C14.5 15.19 13.53 15.32 12.59 15.53C11.28 15.83 10.03 16.3 9 17.19C8.13 17.94 7.60998 19 7.28998 20.13C6.96998 21.26 6.85 22.46 6.78 23.53C6.65 25.41 6.70999 27.31 6.91999 29.21C6.96999 29.24 7.01998 29.28 7.06998 29.32C6.84998 27.39 6.78999 25.46 6.91999 23.55V23.51Z" fill="url(#paint63_linear_298_630)"/>
<path d="M16 29.88C23.6602 29.88 29.87 23.6702 29.87 16.01C29.87 8.34981 23.6602 2.14 16 2.14C8.33983 2.14 2.13 8.34981 2.13 16.01C2.13 23.6702 8.33983 29.88 16 29.88Z" fill="url(#paint64_linear_298_630)"/>
<path d="M16 28.28C22.7766 28.28 28.27 22.7865 28.27 16.01C28.27 9.23347 22.7766 3.74 16 3.74C9.22348 3.74 3.73 9.23347 3.73 16.01C3.73 22.7865 9.22348 28.28 16 28.28Z" fill="#0D052D"/>
<path d="M15.59 21.55C15.06 21.51 14.56 21.39 14.09 21.2C13.62 21 13.22 20.74 12.87 20.42C12.53 20.1 12.26 19.73 12.05 19.32C11.85 18.9 11.74 18.45 11.73 17.96H13.7C13.72 18.48 13.9 18.92 14.24 19.27C14.59 19.61 15.04 19.81 15.58 19.86V16.69L14.83 16.58C13.97 16.46 13.28 16.14 12.77 15.6C12.27 15.07 12.02 14.39 12.02 13.57C12.02 13.14 12.12 12.74 12.31 12.37C12.5 11.99 12.76 11.65 13.09 11.36C13.42 11.06 13.8 10.82 14.23 10.64C14.66 10.46 15.12 10.35 15.59 10.3V8.81H16.76V10.33C17.24 10.39 17.68 10.52 18.09 10.71C18.5 10.89 18.85 11.13 19.15 11.41C19.45 11.69 19.68 12.03 19.85 12.4C20.03 12.77 20.13 13.17 20.15 13.6H18.18C18.16 13.22 18.01 12.89 17.75 12.61C17.49 12.32 17.16 12.12 16.76 12.02V14.95L17.3 15.03C17.71 15.09 18.09 15.21 18.45 15.37C18.81 15.53 19.13 15.74 19.39 15.99C19.67 16.25 19.88 16.56 20.03 16.92C20.19 17.27 20.27 17.67 20.27 18.12C20.27 18.6 20.18 19.04 20 19.43C19.83 19.81 19.58 20.16 19.26 20.45C18.95 20.74 18.58 20.98 18.14 21.17C17.71 21.35 17.25 21.47 16.75 21.52V23.17H15.58V21.54L15.59 21.55ZM16.76 19.83C17.26 19.74 17.65 19.56 17.93 19.29C18.21 19 18.35 18.64 18.35 18.2C18.35 17.79 18.22 17.5 17.95 17.3C17.68 17.1 17.38 16.96 17.04 16.9L16.77 16.85V19.83H16.76ZM15.59 11.98C15.14 12.04 14.76 12.21 14.44 12.48C14.13 12.74 13.98 13.08 13.98 13.52C13.98 13.89 14.08 14.18 14.28 14.37C14.49 14.55 14.77 14.67 15.11 14.72L15.59 14.8V11.98Z" fill="white"/>
</g>
<defs>
<linearGradient id="paint0_linear_298_630" x1="16" y1="0" x2="16" y2="46.8092" gradientUnits="userSpaceOnUse">
<stop stop-color="#07021C"/>
<stop offset="1" stop-color="#1C0872"/>
</linearGradient>
<linearGradient id="paint1_linear_298_630" x1="16" y1="0" x2="16" y2="46.8092" gradientUnits="userSpaceOnUse">
<stop stop-color="#07021C"/>
<stop offset="1" stop-color="#1C0872"/>
</linearGradient>
<linearGradient id="paint2_linear_298_630" x1="4.69" y1="4.69293" x2="27.3241" y2="27.3129" gradientUnits="userSpaceOnUse">
<stop stop-color="#080221"/>
<stop offset="1" stop-color="#13064C"/>
</linearGradient>
<linearGradient id="paint3_linear_298_630" x1="-180.608" y1="-71.9447" x2="-85.8275" y2="139.853" gradientUnits="userSpaceOnUse">
<stop stop-color="#0B0825"/>
<stop offset="1" stop-color="#1B1556"/>
</linearGradient>
<linearGradient id="paint4_linear_298_630" x1="-84.9587" y1="-27.2637" x2="-39.4932" y2="78.9128" gradientUnits="userSpaceOnUse">
<stop stop-color="#0B0825"/>
<stop offset="1" stop-color="#1B1556"/>
</linearGradient>
<linearGradient id="paint5_linear_298_630" x1="-2.67355" y1="9.70211" x2="21.4032" y2="66.0716" gradientUnits="userSpaceOnUse">
<stop stop-color="#0B0825"/>
<stop offset="1" stop-color="#1B1556"/>
</linearGradient>
<linearGradient id="paint6_linear_298_630" x1="-71.1557" y1="-20.4373" x2="-33.3902" y2="69.941" gradientUnits="userSpaceOnUse">
<stop stop-color="#0B0825"/>
<stop offset="1" stop-color="#1B1556"/>
</linearGradient>
<linearGradient id="paint7_linear_298_630" x1="-2.83068" y1="9.49757" x2="21.1387" y2="62.8571" gradientUnits="userSpaceOnUse">
<stop stop-color="#0B0825"/>
<stop offset="1" stop-color="#1B1556"/>
</linearGradient>
<linearGradient id="paint8_linear_298_630" x1="-936.001" y1="-1248.78" x2="21793.9" y2="15780.3" gradientUnits="userSpaceOnUse">
<stop stop-color="#0B0825"/>
<stop offset="1" stop-color="#1B1556"/>
</linearGradient>
<linearGradient id="paint9_linear_298_630" x1="-2.75974" y1="9.59863" x2="21.2115" y2="64.4237" gradientUnits="userSpaceOnUse">
<stop stop-color="#0B0825"/>
<stop offset="1" stop-color="#1B1556"/>
</linearGradient>
<linearGradient id="paint10_linear_298_630" x1="-3.02465" y1="9.42265" x2="20.9383" y2="61.4617" gradientUnits="userSpaceOnUse">
<stop stop-color="#0B0825"/>
<stop offset="1" stop-color="#1B1556"/>
</linearGradient>
<linearGradient id="paint11_linear_298_630" x1="-61.3972" y1="-15.7379" x2="-28.7831" y2="63.7612" gradientUnits="userSpaceOnUse">
<stop stop-color="#0B0825"/>
<stop offset="1" stop-color="#1B1556"/>
</linearGradient>
<linearGradient id="paint12_linear_298_630" x1="-92.8637" y1="-126.604" x2="44.5033" y2="-21.6983" gradientUnits="userSpaceOnUse">
<stop stop-color="#0B0825"/>
<stop offset="1" stop-color="#1B1556"/>
</linearGradient>
<linearGradient id="paint13_linear_298_630" x1="-55.5516" y1="-11.9659" x2="-27.7664" y2="59.0831" gradientUnits="userSpaceOnUse">
<stop stop-color="#0B0825"/>
<stop offset="1" stop-color="#1B1556"/>
</linearGradient>
<linearGradient id="paint14_linear_298_630" x1="-212.355" y1="-264.757" x2="58.2534" y2="-44.9098" gradientUnits="userSpaceOnUse">
<stop stop-color="#0B0825"/>
<stop offset="1" stop-color="#1B1556"/>
</linearGradient>
<linearGradient id="paint15_linear_298_630" x1="-110.351" y1="-39.3202" x2="-51.372" y2="95.2129" gradientUnits="userSpaceOnUse">
<stop stop-color="#0B0825"/>
<stop offset="1" stop-color="#1B1556"/>
</linearGradient>
<linearGradient id="paint16_linear_298_630" x1="-2.63838" y1="10.2026" x2="22.7599" y2="90.4254" gradientUnits="userSpaceOnUse">
<stop stop-color="#0B0825"/>
<stop offset="1" stop-color="#1B1556"/>
</linearGradient>
<linearGradient id="paint17_linear_298_630" x1="-5.87755" y1="9.03021" x2="47.0532" y2="176.003" gradientUnits="userSpaceOnUse">
<stop stop-color="#0B0825"/>
<stop offset="1" stop-color="#1B1556"/>
</linearGradient>
<linearGradient id="paint18_linear_298_630" x1="-3.65433" y1="9.86875" x2="34.5975" y2="133.576" gradientUnits="userSpaceOnUse">
<stop stop-color="#0B0825"/>
<stop offset="1" stop-color="#1B1556"/>
</linearGradient>
<linearGradient id="paint19_linear_298_630" x1="-3.04762" y1="10.1388" x2="29.0278" y2="115.125" gradientUnits="userSpaceOnUse">
<stop stop-color="#0B0825"/>
<stop offset="1" stop-color="#1B1556"/>
</linearGradient>
<linearGradient id="paint20_linear_298_630" x1="-2.04393" y1="9.83426" x2="22.0971" y2="69.4073" gradientUnits="userSpaceOnUse">
<stop stop-color="#0B0825"/>
<stop offset="1" stop-color="#1B1556"/>
</linearGradient>
<linearGradient id="paint21_linear_298_630" x1="-19.5782" y1="4.63527" x2="-3.26396" y2="42.7682" gradientUnits="userSpaceOnUse">
<stop stop-color="#0B0825"/>
<stop offset="1" stop-color="#1B1556"/>
</linearGradient>
<linearGradient id="paint22_linear_298_630" x1="-19.9855" y1="4.3941" x2="-3.55721" y2="42.4419" gradientUnits="userSpaceOnUse">
<stop stop-color="#0B0825"/>
<stop offset="1" stop-color="#1B1556"/>
</linearGradient>
<linearGradient id="paint23_linear_298_630" x1="-2.68448" y1="10.1899" x2="21.7295" y2="85.8671" gradientUnits="userSpaceOnUse">
<stop stop-color="#0B0825"/>
<stop offset="1" stop-color="#1B1556"/>
</linearGradient>
<linearGradient id="paint24_linear_298_630" x1="-2.56316" y1="10.0723" x2="21.1626" y2="78.8227" gradientUnits="userSpaceOnUse">
<stop stop-color="#0B0825"/>
<stop offset="1" stop-color="#1B1556"/>
</linearGradient>
<linearGradient id="paint25_linear_298_630" x1="-2.55227" y1="9.75453" x2="21.4737" y2="67.7637" gradientUnits="userSpaceOnUse">
<stop stop-color="#0B0825"/>
<stop offset="1" stop-color="#1B1556"/>
</linearGradient>
<linearGradient id="paint26_linear_298_630" x1="-2.54067" y1="10.0251" x2="20.9639" y2="76.0207" gradientUnits="userSpaceOnUse">
<stop stop-color="#0B0825"/>
<stop offset="1" stop-color="#1B1556"/>
</linearGradient>
<linearGradient id="paint27_linear_298_630" x1="-2.60584" y1="9.92375" x2="20.8602" y2="73.5553" gradientUnits="userSpaceOnUse">
<stop stop-color="#0B0825"/>
<stop offset="1" stop-color="#1B1556"/>
</linearGradient>
<linearGradient id="paint28_linear_298_630" x1="-2.87896" y1="10.2482" x2="25.9154" y2="104.336" gradientUnits="userSpaceOnUse">
<stop stop-color="#0B0825"/>
<stop offset="1" stop-color="#1B1556"/>
</linearGradient>
<linearGradient id="paint29_linear_298_630" x1="-2.67872" y1="10.2413" x2="23.9538" y2="96.2953" gradientUnits="userSpaceOnUse">
<stop stop-color="#0B0825"/>
<stop offset="1" stop-color="#1B1556"/>
</linearGradient>
<linearGradient id="paint30_linear_298_630" x1="-2.58875" y1="10.1324" x2="21.4707" y2="82.1034" gradientUnits="userSpaceOnUse">
<stop stop-color="#0B0825"/>
<stop offset="1" stop-color="#1B1556"/>
</linearGradient>
<linearGradient id="paint31_linear_298_630" x1="-20.8153" y1="3.69383" x2="-4.12884" y2="41.6415" gradientUnits="userSpaceOnUse">
<stop stop-color="#0B0825"/>
<stop offset="1" stop-color="#1B1556"/>
</linearGradient>
<linearGradient id="paint32_linear_298_630" x1="-22.9922" y1="1.90757" x2="-5.35586" y2="40.3271" gradientUnits="userSpaceOnUse">
<stop stop-color="#0B0825"/>
<stop offset="1" stop-color="#1B1556"/>
</linearGradient>
<linearGradient id="paint33_linear_298_630" x1="-20.9819" y1="3.36082" x2="-4.05689" y2="41.2799" gradientUnits="userSpaceOnUse">
<stop stop-color="#0B0825"/>
<stop offset="1" stop-color="#1B1556"/>
</linearGradient>
<linearGradient id="paint34_linear_298_630" x1="-22.4482" y1="2.43111" x2="-5.12175" y2="40.693" gradientUnits="userSpaceOnUse">
<stop stop-color="#0B0825"/>
<stop offset="1" stop-color="#1B1556"/>
</linearGradient>
<linearGradient id="paint35_linear_298_630" x1="-21.4292" y1="2.91185" x2="-4.21847" y2="40.9501" gradientUnits="userSpaceOnUse">
<stop stop-color="#0B0825"/>
<stop offset="1" stop-color="#1B1556"/>
</linearGradient>
<linearGradient id="paint36_linear_298_630" x1="-16.6299" y1="5.64998" x2="-0.145636" y2="44.1895" gradientUnits="userSpaceOnUse">
<stop stop-color="#0B0825"/>
<stop offset="1" stop-color="#1B1556"/>
</linearGradient>
<linearGradient id="paint37_linear_298_630" x1="-20.2828" y1="4.06231" x2="-3.71884" y2="42.0181" gradientUnits="userSpaceOnUse">
<stop stop-color="#0B0825"/>
<stop offset="1" stop-color="#1B1556"/>
</linearGradient>
<linearGradient id="paint38_linear_298_630" x1="-17.5202" y1="5.39973" x2="-1.16088" y2="43.8204" gradientUnits="userSpaceOnUse">
<stop stop-color="#0B0825"/>
<stop offset="1" stop-color="#1B1556"/>
</linearGradient>
<linearGradient id="paint39_linear_298_630" x1="-19.1622" y1="4.93476" x2="-2.9365" y2="43.1876" gradientUnits="userSpaceOnUse">
<stop stop-color="#0B0825"/>
<stop offset="1" stop-color="#1B1556"/>
</linearGradient>
<linearGradient id="paint40_linear_298_630" x1="-18.4959" y1="5.1701" x2="-2.24753" y2="43.5221" gradientUnits="userSpaceOnUse">
<stop stop-color="#0B0825"/>
<stop offset="1" stop-color="#1B1556"/>
</linearGradient>
<linearGradient id="paint41_linear_298_630" x1="-65.1468" y1="-93.5622" x2="40.8816" y2="-15.0399" gradientUnits="userSpaceOnUse">
<stop stop-color="#0B0825"/>
<stop offset="1" stop-color="#1B1556"/>
</linearGradient>
<linearGradient id="paint42_linear_298_630" x1="-23.7752" y1="1.33682" x2="-5.8199" y2="40.08" gradientUnits="userSpaceOnUse">
<stop stop-color="#0B0825"/>
<stop offset="1" stop-color="#1B1556"/>
</linearGradient>
<linearGradient id="paint43_linear_298_630" x1="-24.8274" y1="0.635659" x2="-6.47053" y2="39.8589" gradientUnits="userSpaceOnUse">
<stop stop-color="#0B0825"/>
<stop offset="1" stop-color="#1B1556"/>
</linearGradient>
<linearGradient id="paint44_linear_298_630" x1="-36.9945" y1="-56.0777" x2="35.3613" y2="-2.93636" gradientUnits="userSpaceOnUse">
<stop stop-color="#0B0825"/>
<stop offset="1" stop-color="#1B1556"/>
</linearGradient>
<linearGradient id="paint45_linear_298_630" x1="-51.8707" y1="-77.2703" x2="39.0773" y2="-11.0972" gradientUnits="userSpaceOnUse">
<stop stop-color="#0B0825"/>
<stop offset="1" stop-color="#1B1556"/>
</linearGradient>
<linearGradient id="paint46_linear_298_630" x1="-43.3988" y1="-65.9956" x2="37.4508" y2="-7.35295" gradientUnits="userSpaceOnUse">
<stop stop-color="#0B0825"/>
<stop offset="1" stop-color="#1B1556"/>
</linearGradient>
<linearGradient id="paint47_linear_298_630" x1="-5.68632" y1="8.53948" x2="15.9042" y2="52.8695" gradientUnits="userSpaceOnUse">
<stop stop-color="#0B0825"/>
<stop offset="1" stop-color="#1B1556"/>
</linearGradient>
<linearGradient id="paint48_linear_298_630" x1="-5.11547" y1="8.68466" x2="16.8776" y2="53.8289" gradientUnits="userSpaceOnUse">
<stop stop-color="#0B0825"/>
<stop offset="1" stop-color="#1B1556"/>
</linearGradient>
<linearGradient id="paint49_linear_298_630" x1="-4.64966" y1="8.82511" x2="17.8294" y2="54.967" gradientUnits="userSpaceOnUse">
<stop stop-color="#0B0825"/>
<stop offset="1" stop-color="#1B1556"/>
</linearGradient>
<linearGradient id="paint50_linear_298_630" x1="-6.41428" y1="8.32253" x2="14.6051" y2="51.8597" gradientUnits="userSpaceOnUse">
<stop stop-color="#0B0825"/>
<stop offset="1" stop-color="#1B1556"/>
</linearGradient>
<linearGradient id="paint51_linear_298_630" x1="-4.19299" y1="8.99659" x2="18.6911" y2="56.1523" gradientUnits="userSpaceOnUse">
<stop stop-color="#0B0825"/>
<stop offset="1" stop-color="#1B1556"/>
</linearGradient>
<linearGradient id="paint52_linear_298_630" x1="-7.11217" y1="8.15011" x2="13.3446" y2="50.9441" gradientUnits="userSpaceOnUse">
<stop stop-color="#0B0825"/>
<stop offset="1" stop-color="#1B1556"/>
</linearGradient>
<linearGradient id="paint53_linear_298_630" x1="-3.24039" y1="9.30602" x2="20.5741" y2="60.0487" gradientUnits="userSpaceOnUse">
<stop stop-color="#0B0825"/>
<stop offset="1" stop-color="#1B1556"/>
</linearGradient>
<linearGradient id="paint54_linear_298_630" x1="-3.22279" y1="9.09689" x2="20.2866" y2="57.0226" gradientUnits="userSpaceOnUse">
<stop stop-color="#0B0825"/>
<stop offset="1" stop-color="#1B1556"/>
</linearGradient>
<linearGradient id="paint55_linear_298_630" x1="-11.1564" y1="7.03485" x2="6.85243" y2="47.005" gradientUnits="userSpaceOnUse">
<stop stop-color="#0B0825"/>
<stop offset="1" stop-color="#1B1556"/>
</linearGradient>
<linearGradient id="paint56_linear_298_630" x1="-7.99977" y1="7.95852" x2="11.9056" y2="50.1235" gradientUnits="userSpaceOnUse">
<stop stop-color="#0B0825"/>
<stop offset="1" stop-color="#1B1556"/>
</linearGradient>
<linearGradient id="paint57_linear_298_630" x1="-11.7966" y1="6.81185" x2="5.85667" y2="46.3049" gradientUnits="userSpaceOnUse">
<stop stop-color="#0B0825"/>
<stop offset="1" stop-color="#1B1556"/>
</linearGradient>
<linearGradient id="paint58_linear_298_630" x1="-13.5187" y1="6.33903" x2="3.62216" y2="45.2716" gradientUnits="userSpaceOnUse">
<stop stop-color="#0B0825"/>
<stop offset="1" stop-color="#1B1556"/>
</linearGradient>
<linearGradient id="paint59_linear_298_630" x1="-15.6705" y1="5.89027" x2="0.946829" y2="44.5239" gradientUnits="userSpaceOnUse">
<stop stop-color="#0B0825"/>
<stop offset="1" stop-color="#1B1556"/>
</linearGradient>
<linearGradient id="paint60_linear_298_630" x1="-12.6491" y1="6.57525" x2="4.73944" y2="45.7771" gradientUnits="userSpaceOnUse">
<stop stop-color="#0B0825"/>
<stop offset="1" stop-color="#1B1556"/>
</linearGradient>
<linearGradient id="paint61_linear_298_630" x1="-8.81512" y1="7.73721" x2="10.542" y2="49.291" gradientUnits="userSpaceOnUse">
<stop stop-color="#0B0825"/>
<stop offset="1" stop-color="#1B1556"/>
</linearGradient>
<linearGradient id="paint62_linear_298_630" x1="-9.63631" y1="7.53411" x2="9.28123" y2="48.5696" gradientUnits="userSpaceOnUse">
<stop stop-color="#0B0825"/>
<stop offset="1" stop-color="#1B1556"/>
</linearGradient>
<linearGradient id="paint63_linear_298_630" x1="-10.3365" y1="7.26577" x2="8.06115" y2="47.6719" gradientUnits="userSpaceOnUse">
<stop stop-color="#0B0825"/>
<stop offset="1" stop-color="#1B1556"/>
</linearGradient>
<linearGradient id="paint64_linear_298_630" x1="13.5314" y1="0.692573" x2="18.6248" y2="32.3075" gradientUnits="userSpaceOnUse">
<stop stop-color="#0F0927"/>
<stop offset="1" stop-color="#24185B"/>
</linearGradient>
<clipPath id="clip0_298_630">
<rect width="32" height="32" fill="white"/>
</clipPath>
</defs>
</svg>
