<svg width="33" height="32" viewBox="0 0 33 32" fill="none" xmlns="http://www.w3.org/2000/svg">
<path d="M16.54 32C25.3765 32 32.54 24.8366 32.54 16C32.54 7.16344 25.3765 0 16.54 0C7.70344 0 0.539978 7.16344 0.539978 16C0.539978 24.8366 7.70344 32 16.54 32Z" fill="url(#paint0_linear_82_147)"/>
<path d="M16.54 32C25.3765 32 32.54 24.8366 32.54 16C32.54 7.16344 25.3765 0 16.54 0C7.70344 0 0.539978 7.16344 0.539978 16C0.539978 24.8366 7.70344 32 16.54 32Z" fill="url(#paint1_linear_82_147)"/>
<path d="M16.54 32C25.3765 32 32.54 24.8366 32.54 16C32.54 7.16344 25.3765 0 16.54 0C7.70344 0 0.539978 7.16344 0.539978 16C0.539978 24.8366 7.70344 32 16.54 32Z" fill="url(#paint2_linear_82_147)"/>
<path d="M32.11 12.4C32.04 12.09 31.96 11.79 31.88 11.49C31.33 10.18 30.74 8.89 30.14 7.61C29.97 7.34 29.8 7.07 29.62 6.81C29.62 6.83 29.64 6.85 29.65 6.87C30.51 8.7 31.36 10.54 32.12 12.4H32.11Z" fill="url(#paint3_linear_82_147)"/>
<path d="M28.16 5.56999C28.32 5.90999 28.48 6.23999 28.65 6.57999C30.11 9.60999 31.59 12.68 32.52 15.86C32.52 15.67 32.5 15.48 32.49 15.3C31.55 12.3 30.15 9.38999 28.76 6.52999C28.6 6.18999 28.43 5.85999 28.27 5.51999C28.16 5.28999 28.05 5.05999 27.95 4.81999C27.86 4.72999 27.77 4.63999 27.68 4.54999C27.7 4.59999 27.73 4.64999 27.75 4.69999C27.88 4.98999 28.02 5.28999 28.16 5.57999V5.56999Z" fill="url(#paint4_linear_82_147)"/>
<path d="M4.39 18.64L4.45 18.67C5.45 16.99 6.68999 15.5 7.93999 14C8.35999 13.49 8.79 12.98 9.2 12.46C11.12 10.06 11.87 7.21 10.79 4.28C10.47 3.4 9.86 2.66 9.17 2C9.12 1.95 9.06997 1.91 9.01997 1.87C8.97997 1.89 8.93 1.91 8.89 1.94C8.95 2 9.01997 2.04 9.07997 2.1C9.76997 2.76 10.36 3.48 10.67 4.33C11.73 7.21 11 10.01 9.09999 12.38C8.68999 12.89 8.26998 13.4 7.83998 13.91C6.58998 15.41 5.34998 16.91 4.33998 18.6C3.49998 20.01 2.79999 21.5 2.18999 23.03C2.21999 23.08 2.23999 23.14 2.26999 23.19C2.87999 21.63 3.59 20.1 4.45 18.66L4.39 18.63V18.64Z" fill="url(#paint5_linear_82_147)"/>
<path d="M28.27 6.36002C28.11 6.03002 27.94 5.70002 27.78 5.37002C27.64 5.09002 27.51 4.81002 27.38 4.53002C27.31 4.38002 27.24 4.23002 27.16 4.07002C27.07 3.99002 26.99 3.91002 26.9 3.83002C27.02 4.08002 27.14 4.32002 27.25 4.57002C27.38 4.85002 27.51 5.14002 27.65 5.42002C27.81 5.75002 27.97 6.08002 28.14 6.41002C29.74 9.68002 31.37 12.99 32.27 16.44C32.34 16.69 32.4 16.95 32.47 17.21C32.48 17.06 32.49 16.91 32.49 16.76C32.46 16.64 32.43 16.53 32.4 16.41C31.5 12.94 29.86 9.62002 28.26 6.35002L28.27 6.36002Z" fill="url(#paint6_linear_82_147)"/>
<path d="M8.98997 13.82C9.40997 13.4 9.82998 12.97 10.25 12.54C11.5 11.23 12.32 10.04 12.39 8.18C12.43 7.01 12.33 5.82 11.93 4.72C11.59 3.80999 10.98 3.03 10.28 2.32C10.04 2.08 9.78999 1.85 9.53999 1.62C9.48999 1.64 9.44 1.67 9.39 1.69C9.66 1.93 9.92998 2.16 10.18 2.42C10.87 3.12 11.47 3.88 11.8 4.77C12.2 5.84 12.3 7.02 12.26 8.17C12.19 9.97 11.4 11.14 10.15 12.44C9.73998 12.87 9.31998 13.29 8.89998 13.72C7.50998 15.13 6.10997 16.53 4.98997 18.2C3.86997 19.86 3.06998 21.71 2.44998 23.61C2.47998 23.66 2.50998 23.71 2.53998 23.77C3.16998 21.84 3.96999 19.96 5.09999 18.28C6.20999 16.63 7.59997 15.23 8.98997 13.83V13.82Z" fill="url(#paint7_linear_82_147)"/>
<path d="M11.19 0.949983L11.22 0.919983C11.22 0.919983 11.19 0.929983 11.18 0.939983H11.19V0.949983Z" fill="url(#paint8_linear_82_147)"/>
<path d="M8.43999 13.93C8.88999 13.43 9.33999 12.93 9.78999 12.42C10.98 11.05 11.75 9.77999 11.82 7.92999C11.86 6.76999 11.76 5.57999 11.36 4.48999C11.02 3.56999 10.38 2.78999 9.65999 2.08999C9.53999 1.96999 9.40998 1.85999 9.27998 1.73999C9.22998 1.75999 9.19 1.77999 9.14 1.80999C9.28 1.93999 9.42998 2.04999 9.55998 2.18999C10.28 2.88999 10.9 3.64999 11.23 4.53999C11.63 5.60999 11.72 6.77999 11.68 7.92999C11.61 9.73999 10.87 10.97 9.67998 12.33C9.23998 12.84 8.78998 13.33 8.33998 13.83C7.03998 15.26 5.73999 16.7 4.68999 18.35C3.69999 19.9 2.93999 21.59 2.31999 23.32C2.34999 23.37 2.36998 23.43 2.39998 23.49C3.02998 21.72 3.79998 20 4.80998 18.42C5.85998 16.78 7.14999 15.36 8.43999 13.93Z" fill="url(#paint9_linear_82_147)"/>
<path d="M9.53999 13.74C9.92999 13.38 10.33 13.02 10.72 12.65C12.03 11.41 12.91 10.29 12.98 8.42999C13.02 7.24999 12.92 6.05999 12.51 4.94999C12.17 4.01999 11.55 3.21999 10.85 2.48999C10.52 2.13999 10.16 1.80999 9.80998 1.48999C9.76998 1.50999 9.71998 1.52999 9.67998 1.54999C10.05 1.87999 10.41 2.21999 10.75 2.57999C11.44 3.29999 12.04 4.07999 12.38 4.98999C12.78 6.06999 12.88 7.24999 12.84 8.40999C12.77 10.21 11.93 11.3 10.63 12.54C10.24 12.91 9.84998 13.27 9.45998 13.63C7.96998 15 6.47997 16.36 5.29997 18.03C4.04997 19.79 3.23998 21.81 2.61998 23.87C2.64998 23.92 2.67999 23.97 2.70999 24.02C3.32999 21.93 4.14999 19.88 5.40999 18.1C6.57999 16.44 8.05997 15.09 9.54997 13.72L9.53999 13.74Z" fill="url(#paint10_linear_82_147)"/>
<path d="M27.72 6.11996C27.53 5.74996 27.35 5.37996 27.17 5.00996C27.07 4.80996 26.98 4.61996 26.88 4.42996C26.71 4.08996 26.55 3.74996 26.37 3.40996C26.28 3.33996 26.19 3.27996 26.1 3.20996C26.32 3.61996 26.54 4.04996 26.75 4.47996C26.84 4.67996 26.94 4.86996 27.04 5.06996C27.22 5.43996 27.41 5.80996 27.59 6.17996C29.2 9.40996 30.84 12.69 31.75 16.11C31.95 16.87 32.16 17.68 32.31 18.51C32.33 18.38 32.35 18.24 32.37 18.11C32.23 17.41 32.05 16.72 31.88 16.08C30.97 12.64 29.33 9.34996 27.72 6.11996Z" fill="url(#paint11_linear_82_147)"/>
<path d="M26.14 27.29C25.26 28.03 24.44 28.89 23.64 29.75C23.31 30.1 22.97 30.45 22.64 30.79C22.75 30.75 22.85 30.7 22.96 30.65C23.22 30.38 23.48 30.11 23.74 29.84C24.54 28.99 25.35 28.14 26.22 27.4C26.96 26.78 27.82 26.38 28.73 26.07C28.83 26.04 28.93 26.01 29.03 25.98C29.08 25.92 29.12 25.86 29.17 25.8C29.01 25.85 28.85 25.89 28.69 25.95C27.78 26.26 26.9 26.67 26.14 27.31V27.29Z" fill="url(#paint12_linear_82_147)"/>
<path d="M27.22 5.96997C27.03 5.59997 26.85 5.22997 26.66 4.86997C26.57 4.67997 26.47 4.49997 26.38 4.30997C26.13 3.79997 25.87 3.30997 25.6 2.82997C25.52 2.76997 25.43 2.71997 25.35 2.65997C25.68 3.20997 25.97 3.77997 26.27 4.36997C26.36 4.55997 26.46 4.73997 26.55 4.92997C26.74 5.29997 26.92 5.65997 27.11 6.02997C28.72 9.19997 30.35 12.41 31.25 15.78C31.59 17.07 31.99 18.58 32.02 20C32.06 19.85 32.1 19.71 32.13 19.56C32.04 18.25 31.68 16.9 31.38 15.75C30.48 12.37 28.84 9.13997 27.23 5.97997L27.22 5.96997Z" fill="url(#paint13_linear_82_147)"/>
<path d="M24.98 29.57C25.17 29.45 25.37 29.34 25.56 29.21C26.03 28.77 26.5 28.33 26.99 27.92C27.26 27.7 27.54 27.51 27.83 27.33C27.94 27.22 28.03 27.11 28.14 27C27.71 27.23 27.29 27.49 26.91 27.82C26.25 28.37 25.62 28.97 24.99 29.57H24.98Z" fill="url(#paint14_linear_82_147)"/>
<path d="M29.15 6.72996C30.33 9.21996 31.53 11.74 32.44 14.32C32.42 14.1 32.37 13.88 32.34 13.66C31.46 11.29 30.36 8.95996 29.27 6.66996C29.13 6.37996 28.99 6.07996 28.85 5.78996C28.81 5.74996 28.77 5.70996 28.74 5.65996C28.68 5.58996 28.62 5.52996 28.56 5.45996C28.6 5.53996 28.63 5.61996 28.67 5.69996C28.83 6.03996 28.99 6.37996 29.16 6.71996L29.15 6.72996Z" fill="url(#paint15_linear_82_147)"/>
<path d="M5.95998 4.02002C5.95998 4.02002 5.87998 4.09002 5.83998 4.13002C6.32998 6.58002 5.58998 9.43002 4.61998 11.79C3.49998 14.52 2.29998 17.24 1.02998 19.92C1.04998 19.99 1.05999 20.05 1.07999 20.12C2.37999 17.39 3.59997 14.63 4.73997 11.84C5.71997 9.45002 6.48 6.54002 5.95 4.02002H5.95998Z" fill="url(#paint16_linear_82_147)"/>
<path d="M3.01999 7.45996C2.94999 7.56996 2.88999 7.67996 2.81999 7.77996C2.55999 9.03996 2.15998 10.31 1.74998 11.5C1.37998 12.58 0.989981 13.66 0.589981 14.74C0.579981 14.89 0.569992 15.04 0.569992 15.19C1.01999 13.98 1.45999 12.76 1.87999 11.55C2.32999 10.25 2.75999 8.85996 3.01999 7.46996V7.45996Z" fill="url(#paint17_linear_82_147)"/>
<path d="M3.78998 6.34998C3.73998 6.41998 3.68998 6.47998 3.63998 6.54998C3.46998 8.24998 2.97999 9.98998 2.40999 11.57C1.81999 13.21 1.20999 14.86 0.549988 16.51C0.549988 16.62 0.559992 16.72 0.569992 16.83C1.25999 15.09 1.91998 13.35 2.53998 11.62C3.12998 9.96998 3.64998 8.13998 3.78998 6.34998Z" fill="url(#paint18_linear_82_147)"/>
<path d="M4.30998 7.10002C4.37998 6.59002 4.39998 6.09002 4.39998 5.58002C4.35998 5.63002 4.30997 5.67002 4.26997 5.72002C4.26997 6.17002 4.23 6.62002 4.17 7.08002C3.97 8.63002 3.49999 10.19 2.98999 11.61C2.24999 13.64 1.46998 15.69 0.61998 17.71C0.61998 17.79 0.649988 17.88 0.659988 17.96C1.53999 15.87 2.34999 13.76 3.10999 11.66C3.61999 10.24 4.08997 8.67002 4.29997 7.11002L4.30998 7.10002Z" fill="url(#paint19_linear_82_147)"/>
<path d="M6.80998 14.37C7.28998 13.69 7.77998 13 8.24998 12.3C9.93998 9.78998 10.7 6.79998 9.64 3.89998C9.4 3.23998 8.98999 2.67998 8.50999 2.16998C8.46999 2.18998 8.43 2.21998 8.39 2.23998C8.87 2.74998 9.26999 3.30998 9.50999 3.94998C10.56 6.79998 9.81 9.73998 8.14 12.23C7.67 12.92 7.18998 13.61 6.70998 14.29C6.13998 15.1 5.55997 15.91 5.01997 16.74C5.87997 15.29 6.77 13.85 7.67 12.4L7.77998 12.23C9.35998 9.66998 10.13 6.61998 9.06999 3.72998C8.87999 3.21998 8.58 2.75998 8.23 2.34998C8.19 2.36998 8.14997 2.39998 8.10997 2.41998C8.45997 2.82998 8.75999 3.27998 8.93999 3.77998C9.97999 6.61998 9.22999 9.62998 7.65999 12.16L7.54997 12.33C5.50997 15.63 3.51999 18.86 1.82999 22.29C1.84999 22.35 1.87999 22.4 1.90999 22.46C2.10999 22.06 2.28999 21.66 2.48999 21.26C2.28999 21.67 2.11998 22.09 1.92998 22.51C1.94998 22.56 1.97998 22.6 1.99998 22.65C2.55998 21.4 3.15998 20.18 3.80998 18.99C4.69998 17.37 5.74998 15.88 6.80998 14.37Z" fill="url(#paint20_linear_82_147)"/>
<path d="M13.86 25.42C13.99 24.5 14.14 23.46 14.45 22.52C14.78 21.53 15.28 20.64 16.13 20.08C17.08 19.45 18.2 19.17 19.36 19.05C20.16 18.96 20.98 18.94 21.77 18.93C22.13 18.93 22.48 18.91 22.83 18.9C22.99 18.9 23.15 18.89 23.32 18.89C23.59 18.89 23.86 18.88 24.13 18.86C24.56 18.83 24.98 18.78 25.35 18.66C25.72 18.54 26.05 18.36 26.29 18.07C26.53 17.78 26.67 17.38 26.7 16.84C26.76 15.3 26.48 13.73 26.04 12.29C25.18 9.48 23.61 6.9 22.07 4.36C21.92 4.11 21.76 3.85 21.61 3.6C21.54 3.48 21.46 3.36 21.39 3.23C20.72 2.11 20.1 1.09 19.13 0.230002C19.04 0.210002 18.94 0.200002 18.84 0.190002C19.9 1.07 20.56 2.11 21.27 3.3C21.34 3.42 21.42 3.54 21.49 3.66C21.64 3.91 21.8 4.17 21.95 4.42C23.49 6.96 25.05 9.53 25.91 12.32C26.35 13.75 26.63 15.3 26.56 16.83C26.54 17.34 26.4 17.71 26.18 17.98C25.96 18.25 25.66 18.42 25.31 18.53C24.95 18.64 24.55 18.69 24.12 18.72C23.86 18.74 23.59 18.74 23.32 18.75C23.16 18.75 22.99 18.75 22.83 18.77C22.49 18.78 22.14 18.79 21.78 18.8C20.98 18.82 20.16 18.83 19.35 18.92C18.18 19.05 17.04 19.33 16.06 19.97C15.18 20.56 14.66 21.48 14.32 22.48C14.01 23.44 13.86 24.48 13.72 25.4L13.7 25.55C13.42 27.49 13.26 29.57 13.24 31.66C13.28 31.66 13.33 31.68 13.37 31.69C13.39 29.6 13.55 27.52 13.83 25.57L13.85 25.43L13.86 25.42Z" fill="url(#paint21_linear_82_147)"/>
<path d="M14.51 25.67C14.66 24.79 14.83 23.81 15.14 22.91C15.48 21.93 15.99 21.06 16.82 20.51C17.76 19.89 18.86 19.61 20.01 19.48C20.8 19.39 21.6 19.36 22.38 19.34C22.73 19.33 23.08 19.32 23.43 19.3C23.58 19.3 23.74 19.29 23.9 19.28C24.17 19.28 24.45 19.26 24.71 19.24C25.14 19.21 25.55 19.15 25.92 19.04C26.29 18.92 26.61 18.74 26.85 18.44C27.09 18.15 27.23 17.75 27.25 17.22C27.31 15.66 27.02 14.07 26.58 12.61C25.71 9.73999 24.13 7.07999 22.58 4.47999C22.43 4.22999 22.28 3.96999 22.13 3.71999C22.05 3.58999 21.98 3.45999 21.9 3.32999C21.23 2.18999 20.62 1.15999 19.64 0.27999C19.56 0.25999 19.47 0.25999 19.39 0.23999C20.45 1.12999 21.08 2.18999 21.78 3.38999C21.86 3.51999 21.93 3.64999 22.01 3.77999C22.16 4.02999 22.31 4.27999 22.46 4.53999C24.01 7.13999 25.58 9.78999 26.45 12.64C26.89 14.09 27.18 15.66 27.11 17.2C27.09 17.71 26.95 18.07 26.74 18.34C26.52 18.61 26.23 18.78 25.88 18.89C25.53 19 25.12 19.06 24.7 19.09C24.43 19.11 24.16 19.12 23.9 19.13C23.74 19.13 23.58 19.14 23.42 19.15C23.08 19.17 22.74 19.18 22.38 19.19C21.6 19.21 20.78 19.24 19.99 19.33C18.84 19.46 17.71 19.74 16.75 20.38C15.88 20.95 15.36 21.86 15.02 22.84C14.7 23.75 14.53 24.73 14.38 25.62C14.37 25.7 14.35 25.78 14.34 25.85C14.02 27.69 13.78 29.69 13.68 31.7C13.72 31.7 13.77 31.71 13.81 31.72C13.91 29.71 14.15 27.72 14.47 25.88L14.51 25.65V25.67Z" fill="url(#paint22_linear_82_147)"/>
<path d="M6.36998 3.64001C6.36998 3.64001 6.29999 3.71001 6.25999 3.74001C6.92999 6.42001 6.22998 9.34001 5.14998 11.84C3.89998 14.73 2.55998 17.6 1.16998 20.44C1.18998 20.51 1.19999 20.57 1.21999 20.64C2.62999 17.75 3.99997 14.84 5.26997 11.89C6.35997 9.36001 7.07998 6.38001 6.36998 3.64001Z" fill="url(#paint23_linear_82_147)"/>
<path d="M6.28999 12.02C7.59999 9.35001 8.36998 6.16001 7.33998 3.26001C7.30998 3.17001 7.25999 3.09001 7.21999 3.01001C7.17999 3.04001 7.14997 3.06001 7.10997 3.09001C7.13997 3.16001 7.17998 3.23001 7.20998 3.31001C8.22998 6.16001 7.47 9.31001 6.17 11.97C5.17 14 4.13999 16.02 3.10999 18.04C2.54999 19.13 1.99998 20.22 1.44998 21.31C1.46998 21.37 1.48998 21.42 1.50998 21.48C2.07998 20.35 2.64999 19.23 3.21999 18.1C4.24999 16.08 5.27998 14.06 6.27998 12.02H6.28999Z" fill="url(#paint24_linear_82_147)"/>
<path d="M7.36998 14.18C7.81998 13.59 8.27999 12.99 8.71999 12.39C10.52 9.92997 11.28 7.00997 10.21 4.09997C9.91998 3.29997 9.37999 2.62997 8.75999 2.02997C8.71999 2.04997 8.68 2.07997 8.64 2.09997C9.26 2.69997 9.79997 3.36997 10.08 4.14997C11.13 7.00997 10.39 9.87997 8.60997 12.32C8.16997 12.92 7.71997 13.51 7.26997 14.1C6.11997 15.61 4.95999 17.12 4.00999 18.78C3.26999 20.07 2.62999 21.41 2.04999 22.78C2.07999 22.83 2.09999 22.89 2.12999 22.94C2.71999 21.54 3.37999 20.16 4.12999 18.85C5.06999 17.2 6.21998 15.7 7.36998 14.19V14.18Z" fill="url(#paint25_linear_82_147)"/>
<path d="M6.78999 12.08C8.17999 9.44998 8.94999 6.29998 7.90999 3.39998C7.81999 3.15998 7.70998 2.93998 7.58998 2.72998C7.54998 2.74998 7.52 2.77998 7.48 2.80998C7.6 3.00998 7.70999 3.21998 7.78999 3.44998C8.80999 6.29998 8.05998 9.39998 6.67998 12.02C6.10998 13.1 5.52998 14.18 4.95998 15.25C3.81998 17.38 2.67998 19.51 1.58998 21.66C1.60998 21.72 1.62998 21.78 1.64998 21.83C2.75998 19.64 3.90999 17.48 5.06999 15.32C5.64999 14.25 6.21997 13.17 6.79997 12.09L6.78999 12.08Z" fill="url(#paint26_linear_82_147)"/>
<path d="M7.27998 12.16C8.75998 9.55998 9.53 6.46998 8.48 3.56998C8.34 3.18998 8.13999 2.85998 7.90999 2.53998C7.86999 2.55998 7.82997 2.57998 7.79997 2.60998C8.02997 2.91998 8.21997 3.24998 8.35997 3.61998C9.38997 6.46998 8.64 9.51998 7.17 12.1C6.89 12.59 6.60998 13.07 6.33998 13.56C4.73998 16.36 3.15999 19.15 1.71999 22.02C1.73999 22.08 1.75998 22.14 1.77998 22.19C3.23998 19.28 4.82998 16.47 6.45998 13.63C6.73998 13.14 7.01999 12.66 7.28999 12.17L7.27998 12.16Z" fill="url(#paint27_linear_82_147)"/>
<path d="M4.87999 7.16996C4.97999 6.42996 5.00998 5.68996 4.95998 4.95996C4.91998 5.00996 4.86997 5.05996 4.82997 5.09996C4.85997 5.76996 4.82998 6.44996 4.74998 7.13996C4.54998 8.68996 4.06999 10.25 3.54999 11.65C2.68999 13.95 1.74998 16.25 0.759979 18.52C0.769979 18.6 0.779988 18.69 0.799988 18.77C1.82999 16.43 2.78998 14.06 3.67998 11.69C4.20998 10.28 4.68 8.70996 4.89 7.14996L4.87999 7.16996Z" fill="url(#paint28_linear_82_147)"/>
<path d="M5.45998 4.45996C5.45998 4.45996 5.37998 4.52996 5.33998 4.56996C5.62998 6.89996 4.94997 9.50996 4.07997 11.72C3.08997 14.27 2.01998 16.81 0.86998 19.32C0.87998 19.39 0.909983 19.46 0.919983 19.53C2.08998 16.97 3.18 14.38 4.2 11.77C5.07 9.52996 5.77 6.84996 5.45 4.45996H5.45998Z" fill="url(#paint29_linear_82_147)"/>
<path d="M6.81999 3.31C6.81999 3.31 6.73998 3.37 6.70998 3.4C7.60998 6.19 6.88 9.29 5.67 11.9C4.28 14.93 2.79998 17.92 1.30998 20.9C1.32998 20.96 1.34998 21.01 1.36998 21.07C2.87998 18.05 4.37999 15.02 5.78999 11.95C7.00999 9.31 7.75999 6.16 6.81999 3.31Z" fill="url(#paint30_linear_82_147)"/>
<path d="M15.81 26.24C16 25.44 16.22 24.56 16.54 23.76C16.91 22.82 17.43 21.98 18.23 21.46C19.14 20.86 20.2 20.57 21.31 20.43C22.07 20.33 22.84 20.29 23.59 20.25C23.94 20.23 24.28 20.22 24.62 20.19C24.76 20.19 24.9 20.17 25.04 20.16C25.74 20.12 26.47 20.08 27.06 19.87C27.42 19.74 27.73 19.55 27.96 19.26C28.19 18.97 28.33 18.58 28.35 18.06C28.42 16.46 28.11 14.83 27.67 13.33C26.78 10.33 25.18 7.52997 23.61 4.78997C23.43 4.47997 23.25 4.15997 23.07 3.84997C22.97 3.67997 22.88 3.50997 22.79 3.34997C22.23 2.33997 21.67 1.39997 20.83 0.599968C20.74 0.569968 20.65 0.549968 20.56 0.529968C21.5 1.34997 22.07 2.32997 22.68 3.40997C22.77 3.57997 22.87 3.73997 22.96 3.90997C23.14 4.21997 23.32 4.52997 23.5 4.84997C25.07 7.59997 26.67 10.37 27.55 13.36C27.99 14.85 28.3 16.47 28.23 18.05C28.21 18.55 28.07 18.91 27.87 19.18C27.66 19.45 27.37 19.63 27.03 19.75C26.46 19.95 25.76 19.99 25.06 20.04C24.92 20.04 24.77 20.06 24.63 20.07C24.3 20.09 23.96 20.11 23.61 20.13C22.85 20.17 22.08 20.21 21.31 20.31C20.2 20.46 19.11 20.74 18.18 21.37C17.35 21.92 16.82 22.79 16.44 23.74C16.12 24.56 15.9 25.44 15.71 26.24C15.68 26.37 15.65 26.49 15.62 26.62C15.22 28.26 14.83 30.06 14.57 31.89C14.61 31.89 14.66 31.9 14.7 31.91C14.96 30.09 15.35 28.29 15.75 26.66C15.78 26.53 15.81 26.41 15.84 26.28L15.81 26.24Z" fill="url(#paint31_linear_82_147)"/>
<path d="M18.49 27.57C18.75 26.96 19.04 26.29 19.38 25.66C19.84 24.8 20.38 24.02 21.07 23.53C21.88 22.95 22.84 22.64 23.83 22.44C24.57 22.29 25.33 22.21 26.07 22.13C26.33 22.1 26.58 22.07 26.83 22.04C26.94 22.03 27.06 22.01 27.17 22C27.85 21.92 28.55 21.84 29.14 21.61C29.48 21.47 29.79 21.29 30.03 21.01C30.27 20.74 30.43 20.38 30.5 19.92C30.75 18.24 30.23 16.28 29.8 14.72C28.91 11.49 27.27 8.42996 25.66 5.42996C25.45 5.02996 25.23 4.62996 25.02 4.23996C24.96 4.11996 24.89 3.99996 24.83 3.87996C24.39 3.04996 23.98 2.28996 23.43 1.58996C23.34 1.54996 23.25 1.49996 23.16 1.45996C23.78 2.20996 24.22 3.02996 24.71 3.93996C24.77 4.05996 24.83 4.17996 24.9 4.28996C25.11 4.68996 25.32 5.08996 25.54 5.47996C27.15 8.48996 28.78 11.53 29.67 14.75C30.1 16.31 30.62 18.25 30.37 19.9C30.3 20.34 30.15 20.67 29.93 20.92C29.71 21.17 29.42 21.35 29.09 21.48C28.52 21.7 27.84 21.78 27.16 21.86C27.05 21.87 26.93 21.89 26.82 21.9C26.57 21.93 26.32 21.96 26.07 21.99C25.33 22.07 24.56 22.16 23.81 22.31C22.8 22.51 21.83 22.83 21 23.42C20.29 23.93 19.73 24.73 19.27 25.6C18.93 26.24 18.64 26.91 18.38 27.53C18.29 27.74 18.2 27.94 18.11 28.15C17.55 29.41 17.03 30.7 16.55 32.01C16.6 32.01 16.65 32.01 16.7 32.01C17.17 30.72 17.69 29.45 18.23 28.22C18.32 28.02 18.41 27.81 18.5 27.6L18.49 27.57Z" fill="url(#paint32_linear_82_147)"/>
<path d="M16.47 26.55C16.69 25.79 16.92 24.96 17.24 24.2C17.63 23.28 18.16 22.46 18.94 21.94C19.84 21.34 20.88 21.06 21.96 20.9C22.69 20.79 23.44 20.75 24.18 20.7C24.53 20.68 24.87 20.66 25.21 20.63C25.34 20.62 25.47 20.61 25.6 20.6C26.3 20.55 27.03 20.5 27.62 20.27C27.97 20.14 28.28 19.94 28.5 19.65C28.72 19.36 28.86 18.97 28.88 18.45C28.95 16.83 28.63 15.18 28.19 13.66C27.29 10.59 25.68 7.72998 24.1 4.91998C23.92 4.59998 23.75 4.28998 23.57 3.97998C23.47 3.79998 23.38 3.62998 23.28 3.45998C22.74 2.47998 22.21 1.54998 21.42 0.759983C21.32 0.729983 21.23 0.699983 21.13 0.669983C22.02 1.47998 22.58 2.45998 23.16 3.51998C23.26 3.69998 23.35 3.86998 23.45 4.04998C23.63 4.35998 23.8 4.67998 23.98 4.98998C25.56 7.79998 27.16 10.65 28.06 13.7C28.5 15.21 28.82 16.85 28.74 18.45C28.72 18.94 28.59 19.3 28.38 19.57C28.18 19.84 27.89 20.02 27.56 20.15C26.99 20.36 26.29 20.42 25.58 20.47C25.45 20.47 25.32 20.49 25.18 20.5C24.85 20.53 24.51 20.55 24.16 20.57C23.42 20.62 22.67 20.66 21.92 20.77C20.83 20.93 19.77 21.22 18.85 21.83C18.04 22.37 17.5 23.22 17.1 24.15C16.77 24.92 16.53 25.76 16.32 26.52C16.28 26.67 16.24 26.82 16.19 26.97C15.75 28.5 15.3 30.19 14.95 31.92C14.99 31.92 15.04 31.92 15.08 31.92C15.42 30.2 15.87 28.52 16.31 27C16.35 26.85 16.39 26.7 16.44 26.55H16.47Z" fill="url(#paint33_linear_82_147)"/>
<path d="M17.82 27.21C18.08 26.53 18.35 25.81 18.68 25.14C19.12 24.27 19.66 23.48 20.41 22.97C21.27 22.38 22.26 22.09 23.3 21.91C23.99 21.79 24.7 21.73 25.39 21.66C25.74 21.63 26.08 21.6 26.42 21.56C26.52 21.55 26.62 21.54 26.73 21.53C27.45 21.45 28.18 21.37 28.76 21.12C29.1 20.97 29.39 20.77 29.6 20.47C29.81 20.17 29.94 19.79 29.97 19.29C30.05 17.63 29.7 15.94 29.27 14.38C28.39 11.21 26.76 8.21997 25.15 5.27997C24.93 4.87997 24.72 4.48997 24.5 4.08997C24.44 3.97997 24.38 3.86997 24.32 3.75997C23.83 2.83997 23.37 2.00997 22.73 1.24997C22.65 1.20997 22.56 1.18997 22.47 1.15997C23.19 1.94997 23.67 2.82997 24.21 3.82997C24.27 3.93997 24.33 4.04997 24.39 4.15997C24.6 4.55997 24.82 4.94997 25.04 5.34997C26.64 8.28997 28.27 11.27 29.14 14.42C29.57 15.97 29.91 17.64 29.84 19.29C29.82 19.77 29.69 20.13 29.5 20.4C29.31 20.67 29.04 20.86 28.72 21C28.16 21.24 27.45 21.32 26.73 21.4C26.63 21.41 26.52 21.42 26.42 21.43C26.09 21.47 25.75 21.5 25.4 21.53C24.7 21.59 23.99 21.66 23.29 21.78C22.24 21.96 21.23 22.26 20.35 22.86C19.57 23.39 19.02 24.2 18.58 25.08C18.24 25.76 17.96 26.49 17.71 27.17C17.64 27.37 17.56 27.56 17.49 27.75C16.96 29.13 16.47 30.54 16.04 31.98C16.09 31.98 16.13 31.98 16.18 31.98C16.6 30.56 17.09 29.15 17.62 27.79C17.69 27.6 17.77 27.41 17.84 27.21H17.82Z" fill="url(#paint34_linear_82_147)"/>
<path d="M17.14 26.88C17.38 26.16 17.63 25.39 17.96 24.67C18.37 23.78 18.91 22.97 19.67 22.45C20.55 21.86 21.57 21.57 22.63 21.4C23.35 21.29 24.07 21.23 24.79 21.18C25.14 21.15 25.48 21.13 25.82 21.09C25.94 21.08 26.05 21.07 26.17 21.06C26.88 21 27.61 20.93 28.19 20.7C28.53 20.56 28.83 20.36 29.05 20.07C29.27 19.77 29.4 19.39 29.43 18.88C29.51 17.24 29.18 15.57 28.73 14.03C27.82 10.9 26.21 7.96997 24.61 5.08997C24.44 4.77997 24.26 4.45997 24.09 4.14997C23.99 3.96997 23.89 3.77997 23.79 3.59997C23.29 2.67997 22.82 1.79997 22.12 1.02997C22.02 0.989973 21.91 0.949973 21.8 0.909973C22.6 1.70997 23.12 2.63997 23.67 3.64997C23.77 3.82997 23.87 4.01997 23.97 4.19997C24.14 4.50997 24.31 4.82997 24.49 5.13997C26.08 8.01997 27.69 10.94 28.59 14.05C29.03 15.58 29.35 17.24 29.28 18.85C29.26 19.34 29.13 19.7 28.93 19.97C28.73 20.24 28.45 20.43 28.13 20.56C27.57 20.79 26.86 20.85 26.15 20.91C26.03 20.92 25.91 20.93 25.79 20.94C25.46 20.97 25.12 21 24.77 21.02C24.05 21.08 23.31 21.13 22.59 21.25C21.52 21.42 20.48 21.71 19.58 22.32C18.79 22.86 18.24 23.69 17.82 24.59C17.48 25.32 17.23 26.1 16.99 26.82C16.93 26.99 16.88 27.16 16.82 27.33C16.35 28.74 15.84 30.31 15.42 31.92C15.47 31.92 15.51 31.92 15.56 31.92C15.98 30.32 16.48 28.77 16.95 27.36C17.01 27.19 17.06 27.02 17.12 26.85L17.14 26.88Z" fill="url(#paint35_linear_82_147)"/>
<path d="M11.34 24.4C11.4 23.36 11.5 22.21 11.81 21.15C12.12 20.1 12.63 19.15 13.54 18.52C14.52 17.84 15.7 17.55 16.92 17.43C17.77 17.34 18.63 17.34 19.46 17.33C19.83 17.33 20.2 17.33 20.56 17.31C20.72 17.31 20.89 17.31 21.05 17.31C21.33 17.31 21.62 17.31 21.89 17.29C22.33 17.27 22.75 17.22 23.13 17.1C23.5 16.98 23.83 16.79 24.07 16.49C24.31 16.19 24.45 15.78 24.47 15.22C24.53 13.75 24.28 12.27 23.84 10.9C23.01 8.31002 21.45 5.96002 19.93 3.66002C19.7 3.32002 19.48 2.98002 19.26 2.64002L19.16 2.49002C18.56 1.56002 17.99 0.74002 17.17 0.0300195C17.1 0.0300195 17.02 0.0300195 16.95 0.0200195C17.83 0.74002 18.41 1.59002 19.05 2.57002L19.15 2.72002C19.37 3.06002 19.6 3.40002 19.82 3.74002C21.34 6.04002 22.88 8.37002 23.71 10.94C24.15 12.29 24.39 13.76 24.33 15.21C24.31 15.74 24.17 16.13 23.96 16.4C23.74 16.68 23.44 16.85 23.09 16.96C22.73 17.07 22.32 17.12 21.89 17.14C21.62 17.15 21.34 17.16 21.06 17.16C20.89 17.16 20.73 17.16 20.56 17.16C20.21 17.16 19.85 17.17 19.47 17.18C18.63 17.18 17.76 17.19 16.91 17.28C15.68 17.4 14.48 17.7 13.47 18.4C12.53 19.05 12 20.03 11.69 21.1C11.38 22.17 11.28 23.34 11.22 24.38C11.09 26.58 11.18 28.86 11.44 31.14C11.49 31.16 11.53 31.18 11.58 31.19C11.31 28.9 11.21 26.6 11.35 24.39L11.34 24.4Z" fill="url(#paint36_linear_82_147)"/>
<path d="M15.15 25.95C15.32 25.11 15.51 24.18 15.83 23.33C16.18 22.37 16.7 21.52 17.51 20.98C18.44 20.37 19.52 20.09 20.64 19.95C21.41 19.85 22.2 19.82 22.97 19.79C23.32 19.78 23.67 19.76 24.01 19.74C24.16 19.74 24.31 19.73 24.46 19.72C25.16 19.69 25.89 19.66 26.48 19.45C26.84 19.33 27.16 19.14 27.39 18.85C27.62 18.56 27.77 18.16 27.79 17.64C27.86 16.06 27.56 14.45 27.11 12.97C26.23 10.04 24.64 7.32 23.08 4.65C22.93 4.4 22.78 4.14 22.64 3.89C22.56 3.75 22.48 3.61 22.4 3.47C21.75 2.34 21.15 1.31 20.21 0.439995C20.12 0.419995 20.03 0.389995 19.93 0.369995C20.97 1.27 21.59 2.34 22.28 3.54C22.36 3.68 22.44 3.81 22.52 3.95C22.67 4.2 22.82 4.46 22.96 4.71C24.52 7.38 26.1 10.09 26.97 13.01C27.41 14.48 27.71 16.08 27.64 17.64C27.62 18.14 27.48 18.51 27.27 18.77C27.06 19.04 26.76 19.21 26.42 19.33C25.85 19.52 25.14 19.56 24.44 19.59C24.29 19.59 24.14 19.6 23.98 19.61C23.65 19.63 23.3 19.64 22.95 19.66C22.18 19.69 21.38 19.72 20.61 19.82C19.48 19.96 18.37 20.24 17.42 20.87C16.57 21.43 16.05 22.32 15.69 23.29C15.37 24.15 15.18 25.09 15.01 25.93C14.99 26.03 14.97 26.14 14.95 26.24C14.59 27.98 14.28 29.88 14.09 31.8C14.13 31.8 14.18 31.81 14.22 31.82C14.4 29.9 14.71 28.01 15.07 26.26C15.09 26.16 15.11 26.06 15.13 25.95H15.15Z" fill="url(#paint37_linear_82_147)"/>
<path d="M11.96 24.66C12.04 23.64 12.14 22.5 12.45 21.46C12.76 20.42 13.27 19.49 14.16 18.88C15.14 18.21 16.3 17.93 17.51 17.81C18.35 17.73 19.2 17.72 20.03 17.71C20.4 17.71 20.76 17.71 21.11 17.69C21.27 17.69 21.44 17.69 21.61 17.69C21.89 17.69 22.16 17.69 22.43 17.67C22.87 17.65 23.29 17.6 23.67 17.49C24.05 17.37 24.37 17.19 24.61 16.89C24.85 16.59 24.99 16.18 25.02 15.63C25.08 14.14 24.82 12.64 24.38 11.26C23.54 8.62 21.99 6.22 20.47 3.87C20.28 3.57 20.09 3.28 19.9 2.98L19.81 2.84C19.13 1.78 18.52 0.869998 17.6 0.0699976C17.53 0.0699976 17.45 0.0699976 17.38 0.0599976C18.37 0.869998 18.99 1.81 19.7 2.92L19.79 3.06C19.98 3.36 20.17 3.65 20.36 3.95C21.88 6.3 23.42 8.69 24.25 11.3C24.69 12.67 24.94 14.16 24.88 15.63C24.86 16.16 24.72 16.54 24.5 16.81C24.28 17.08 23.98 17.26 23.62 17.37C23.26 17.48 22.85 17.53 22.41 17.55C22.14 17.56 21.87 17.57 21.59 17.57C21.42 17.57 21.25 17.57 21.08 17.57C20.73 17.57 20.37 17.58 20.01 17.59C19.18 17.59 18.32 17.6 17.47 17.69C16.25 17.81 15.06 18.1 14.06 18.78C13.13 19.41 12.61 20.38 12.3 21.44C11.99 22.5 11.89 23.65 11.81 24.67C11.65 26.82 11.69 29.08 11.89 31.33C11.93 31.34 11.98 31.35 12.03 31.37C11.82 29.11 11.78 26.84 11.95 24.68L11.96 24.66Z" fill="url(#paint38_linear_82_147)"/>
<path d="M15.46 19.66C16.42 19.02 17.56 18.74 18.74 18.62C19.56 18.53 20.39 18.52 21.19 18.51C21.55 18.51 21.91 18.5 22.25 18.49C22.41 18.49 22.58 18.49 22.75 18.48C23.02 18.48 23.29 18.47 23.56 18.45C23.99 18.43 24.42 18.38 24.79 18.26C25.16 18.14 25.49 17.96 25.73 17.67C25.97 17.37 26.12 16.97 26.14 16.43C26.2 14.91 25.93 13.36 25.49 11.94C24.63 9.17997 23.06 6.63998 21.52 4.15998C21.33 3.85998 21.15 3.55998 20.97 3.25998C20.93 3.19998 20.89 3.12998 20.85 3.06998C20.17 1.95998 19.54 0.989976 18.57 0.139976C18.49 0.129976 18.41 0.109976 18.32 0.0999756C19.38 0.959976 20.02 1.95998 20.74 3.13998L20.85 3.31998C21.03 3.61998 21.22 3.91998 21.4 4.21998C22.94 6.70998 24.51 9.22998 25.36 11.97C25.8 13.38 26.07 14.91 26.01 16.42C25.99 16.94 25.85 17.31 25.63 17.58C25.41 17.85 25.11 18.02 24.75 18.13C24.39 18.24 23.98 18.29 23.55 18.31C23.29 18.32 23.02 18.33 22.75 18.34C22.58 18.34 22.41 18.34 22.25 18.35C21.91 18.36 21.55 18.37 21.2 18.37C20.39 18.38 19.55 18.4 18.73 18.48C17.54 18.61 16.38 18.88 15.39 19.54C14.49 20.14 13.97 21.08 13.65 22.1C13.33 23.11 13.2 24.21 13.09 25.18V25.23C12.85 27.25 12.76 29.39 12.82 31.54C12.86 31.55 12.91 31.56 12.95 31.57C12.89 29.41 12.98 27.26 13.22 25.24V25.2C13.34 24.23 13.47 23.14 13.78 22.14C14.1 21.13 14.6 20.23 15.47 19.65L15.46 19.66Z" fill="url(#paint39_linear_82_147)"/>
<path d="M13.11 21.79C13.42 20.76 13.93 19.84 14.81 19.25C15.78 18.6 16.93 18.32 18.13 18.2C18.96 18.12 19.8 18.11 20.62 18.1C20.98 18.1 21.34 18.1 21.69 18.08C21.85 18.08 22.02 18.08 22.19 18.07C22.46 18.07 22.74 18.07 23 18.05C23.44 18.03 23.86 17.98 24.24 17.87C24.62 17.75 24.94 17.57 25.19 17.27C25.43 16.97 25.58 16.57 25.6 16.02C25.66 14.52 25.4 12.99 24.96 11.59C24.11 8.89001 22.55 6.42001 21.02 4.01001C20.83 3.71001 20.64 3.41001 20.45 3.12001L20.34 2.95001C19.66 1.86001 19.03 0.910007 18.07 0.0800073C18 0.0800073 17.92 0.0800073 17.85 0.0700073C18.88 0.910007 19.51 1.88001 20.23 3.02001L20.33 3.18001C20.52 3.48001 20.71 3.78001 20.9 4.08001C22.43 6.50001 23.98 8.95001 24.83 11.63C25.27 13.02 25.53 14.53 25.47 16.02C25.45 16.54 25.31 16.92 25.09 17.19C24.87 17.46 24.57 17.63 24.21 17.74C23.85 17.85 23.44 17.9 23.01 17.92C22.74 17.93 22.47 17.94 22.21 17.94C22.04 17.94 21.87 17.94 21.7 17.95C21.35 17.96 21 17.96 20.64 17.97C19.82 17.97 18.97 17.99 18.13 18.07C16.93 18.19 15.75 18.47 14.75 19.15C13.83 19.76 13.31 20.72 13 21.76C12.68 22.8 12.57 23.94 12.48 24.94C12.28 27.03 12.26 29.23 12.39 31.44C12.43 31.45 12.48 31.46 12.53 31.47C12.39 29.26 12.42 27.04 12.61 24.95C12.7 23.95 12.82 22.83 13.13 21.8L13.11 21.79Z" fill="url(#paint40_linear_82_147)"/>
<path d="M29.44 25.01C28.96 25.13 28.48 25.26 28.01 25.41C27.07 25.71 26.16 26.11 25.39 26.76C24.45 27.55 23.61 28.53 22.8 29.48C22.48 29.86 22.15 30.24 21.83 30.6C21.62 30.84 21.4 31.08 21.18 31.32C21.26 31.29 21.35 31.27 21.43 31.24C21.6 31.06 21.76 30.87 21.93 30.69C22.26 30.32 22.58 29.94 22.91 29.56C23.72 28.61 24.54 27.64 25.48 26.86C26.23 26.23 27.12 25.84 28.06 25.54C28.53 25.39 29 25.27 29.48 25.14L29.71 25.08C29.75 25.02 29.79 24.97 29.83 24.91C29.78 24.92 29.73 24.94 29.68 24.95L29.45 25.01H29.44Z" fill="url(#paint41_linear_82_147)"/>
<path d="M19.19 27.91C19.47 27.34 19.76 26.73 20.1 26.15C20.58 25.32 21.14 24.56 21.82 24.06C22.61 23.49 23.54 23.17 24.51 22.95C25.22 22.79 25.96 22.7 26.67 22.61C26.93 22.58 27.19 22.54 27.44 22.51C27.53 22.5 27.63 22.48 27.73 22.47C28.42 22.38 29.13 22.28 29.71 22.03C30.04 21.89 30.34 21.69 30.57 21.42C30.8 21.14 30.96 20.79 31.03 20.33C31.28 18.63 30.75 16.65 30.32 15.07C29.42 11.78 27.78 8.65997 26.17 5.58997C25.96 5.17997 25.74 4.77997 25.53 4.36997C25.46 4.23997 25.4 4.10997 25.33 3.97997C24.95 3.23997 24.58 2.55997 24.13 1.90997C24.05 1.85997 23.95 1.82997 23.87 1.77997C24.39 2.46997 24.79 3.20997 25.22 4.02997C25.29 4.15997 25.35 4.27997 25.42 4.40997C25.63 4.80997 25.84 5.21997 26.06 5.62997C27.67 8.69997 29.31 11.81 30.2 15.08C30.63 16.66 31.15 18.62 30.9 20.29C30.84 20.73 30.68 21.06 30.47 21.31C30.26 21.57 29.98 21.75 29.66 21.89C29.09 22.13 28.4 22.23 27.71 22.32C27.61 22.33 27.52 22.35 27.42 22.36C27.17 22.4 26.92 22.43 26.66 22.46C25.94 22.55 25.2 22.65 24.48 22.81C23.5 23.02 22.55 23.35 21.74 23.94C21.04 24.45 20.47 25.23 19.99 26.07C19.65 26.66 19.35 27.28 19.07 27.85C18.95 28.09 18.84 28.32 18.73 28.54C18.17 29.66 17.62 30.8 17.11 31.96C17.16 31.96 17.21 31.96 17.26 31.96C17.76 30.82 18.29 29.7 18.85 28.6C18.96 28.38 19.08 28.14 19.19 27.9V27.91Z" fill="url(#paint42_linear_82_147)"/>
<path d="M26.71 5.80997C26.52 5.44997 26.34 5.08997 26.15 4.72997C26.06 4.54997 25.97 4.37997 25.88 4.19997C25.56 3.56997 25.25 2.95997 24.88 2.37997C24.79 2.32997 24.71 2.26997 24.62 2.21997C25.04 2.85997 25.4 3.53997 25.76 4.25997C25.85 4.42997 25.94 4.60997 26.03 4.78997C26.22 5.14997 26.4 5.50997 26.59 5.86997C28.2 8.97997 29.82 12.13 30.72 15.44C31.15 17.05 31.68 19.02 31.43 20.71C31.37 21.14 31.22 21.47 31.01 21.73C30.8 21.99 30.54 22.18 30.23 22.32C29.66 22.58 28.97 22.7 28.26 22.81C28.19 22.82 28.11 22.83 28.04 22.85C27.78 22.89 27.53 22.93 27.27 22.97C26.58 23.07 25.86 23.18 25.17 23.35C24.21 23.58 23.29 23.91 22.5 24.49C21.81 25 21.23 25.76 20.72 26.57C20.38 27.1 20.08 27.66 19.79 28.19C19.64 28.46 19.5 28.72 19.36 28.96C18.8 29.94 18.26 30.93 17.73 31.94C17.78 31.94 17.83 31.94 17.88 31.94C18.39 30.96 18.93 29.98 19.47 29.03C19.61 28.78 19.76 28.52 19.9 28.25C20.19 27.73 20.49 27.18 20.82 26.65C21.33 25.85 21.89 25.1 22.57 24.61C23.34 24.04 24.25 23.71 25.2 23.49C25.89 23.33 26.6 23.22 27.29 23.12C27.55 23.08 27.81 23.04 28.07 23C28.14 22.99 28.22 22.98 28.29 22.96C28.99 22.85 29.71 22.73 30.29 22.46C30.61 22.31 30.9 22.11 31.12 21.83C31.34 21.55 31.5 21.2 31.56 20.74C31.81 19.02 31.28 17.02 30.85 15.42C29.95 12.1 28.32 8.92997 26.71 5.81997V5.80997Z" fill="url(#paint43_linear_82_147)"/>
<path d="M28.8 23.29L28.65 23.32C28.39 23.37 28.13 23.41 27.87 23.46C27.2 23.58 26.51 23.7 25.85 23.87C24.92 24.11 24.02 24.45 23.25 25.03C22.56 25.54 21.97 26.28 21.44 27.06C21.11 27.54 20.81 28.04 20.51 28.51C20.33 28.81 20.15 29.1 19.98 29.36C19.45 30.18 18.92 31.03 18.4 31.88C18.46 31.88 18.51 31.86 18.57 31.85C19.07 31.03 19.58 30.23 20.09 29.43C20.27 29.16 20.44 28.87 20.63 28.57C20.92 28.1 21.22 27.61 21.55 27.13C22.08 26.35 22.66 25.63 23.33 25.13C24.08 24.57 24.97 24.23 25.89 23.99C26.55 23.82 27.23 23.7 27.9 23.59C28.16 23.54 28.43 23.5 28.69 23.45L28.84 23.42C29.56 23.29 30.28 23.15 30.87 22.85C30.93 22.82 30.98 22.78 31.04 22.74C31.08 22.66 31.11 22.59 31.15 22.51C31.04 22.59 30.93 22.66 30.81 22.72C30.24 23.01 29.54 23.14 28.81 23.28L28.8 23.29Z" fill="url(#paint44_linear_82_147)"/>
<path d="M29.08 24.45C28.54 24.57 27.98 24.7 27.45 24.85C26.58 25.1 25.73 25.42 24.98 25.95C24.23 26.47 23.57 27.19 22.96 27.94C22.65 28.32 22.36 28.71 22.07 29.09L22.03 29.14C21.75 29.5 21.48 29.86 21.21 30.19C21.05 30.39 20.89 30.58 20.74 30.77C20.52 31.04 20.3 31.32 20.08 31.59C20.15 31.57 20.22 31.55 20.3 31.53C20.48 31.3 20.67 31.07 20.85 30.85C21.01 30.66 21.17 30.46 21.32 30.27C21.59 29.93 21.86 29.58 22.14 29.21L22.18 29.16C22.47 28.78 22.76 28.39 23.07 28.02C23.68 27.27 24.33 26.57 25.07 26.05C25.8 25.54 26.63 25.22 27.5 24.97C28.04 24.82 28.58 24.69 29.12 24.57C29.45 24.49 29.79 24.42 30.12 24.34C30.14 24.34 30.17 24.33 30.19 24.32C30.22 24.27 30.26 24.21 30.29 24.16C30.22 24.18 30.16 24.2 30.09 24.21C29.77 24.29 29.44 24.37 29.1 24.44L29.08 24.45Z" fill="url(#paint45_linear_82_147)"/>
<path d="M28.49 23.95C27.92 24.06 27.33 24.18 26.76 24.33C25.86 24.56 24.99 24.88 24.22 25.41C23.46 25.93 22.81 26.66 22.23 27.44C21.94 27.83 21.66 28.24 21.38 28.63L21.26 28.81C21.03 29.14 20.81 29.47 20.59 29.78L20.45 29.97C20.02 30.56 19.59 31.16 19.16 31.77C19.22 31.76 19.28 31.75 19.34 31.74C19.74 31.17 20.15 30.6 20.56 30.04L20.69 29.85C20.91 29.54 21.14 29.22 21.36 28.88C21.4 28.82 21.44 28.76 21.48 28.7C21.75 28.3 22.03 27.9 22.32 27.51C22.9 26.73 23.54 26.01 24.28 25.51C25.03 25 25.89 24.68 26.78 24.45C27.35 24.3 27.92 24.19 28.49 24.07C28.82 24 29.15 23.94 29.47 23.87C29.86 23.78 30.24 23.7 30.59 23.59C30.62 23.53 30.64 23.48 30.67 23.42C30.29 23.54 29.88 23.64 29.44 23.74C29.12 23.81 28.8 23.87 28.47 23.94L28.49 23.95Z" fill="url(#paint46_linear_82_147)"/>
<path d="M7.68999 17.09C9.21999 15.62 11.18 14.83 13.14 14.04C13.41 13.93 13.68 13.82 13.95 13.71C14.8 13.36 15.56 13.04 16.11 12.55C16.67 12.06 17.01 11.41 17.04 10.4C17.08 9.16996 16.91 7.94996 16.52 6.77996C16.14 5.63996 15.45 4.61996 14.67 3.65996C14.18 3.05996 13.66 2.48996 13.14 1.92996C12.83 1.59996 12.53 1.26996 12.25 0.939963C12.16 0.839963 12.08 0.749963 11.99 0.649963C11.94 0.659963 11.89 0.669963 11.84 0.689963C11.94 0.799963 12.04 0.909963 12.15 1.02996C12.44 1.35996 12.74 1.68996 13.05 2.01996C13.56 2.56996 14.08 3.13996 14.57 3.73996C15.35 4.68996 16.02 5.69996 16.39 6.80996C16.77 7.95996 16.95 9.15996 16.9 10.38C16.87 11.35 16.54 11.97 16.01 12.43C15.48 12.9 14.75 13.21 13.89 13.56C13.62 13.67 13.35 13.78 13.08 13.89C11.13 14.68 9.13998 15.48 7.58998 16.97C5.67998 18.8 5.11 21.56 4.73 24.05C4.61 24.82 4.51999 25.62 4.43999 26.43C4.47999 26.48 4.51998 26.52 4.55998 26.56C4.63998 25.71 4.72997 24.87 4.85997 24.06C5.23997 21.56 5.80998 18.85 7.67998 17.05L7.68999 17.09Z" fill="url(#paint47_linear_82_147)"/>
<path d="M7.27998 17.25C8.78998 15.7 10.77 14.78 12.73 13.88C12.92 13.79 13.11 13.7 13.3 13.61C14.17 13.21 14.94 12.84 15.51 12.3C16.08 11.76 16.43 11.06 16.46 10.01C16.5 8.81001 16.34 7.61001 15.95 6.50001C15.57 5.42001 14.92 4.45001 14.17 3.55001C13.68 2.96001 13.15 2.39001 12.63 1.84001C12.36 1.55001 12.09 1.26001 11.83 0.97001L11.73 0.86001C11.73 0.86001 11.67 0.79001 11.64 0.76001C11.59 0.77001 11.55 0.79001 11.5 0.81001C11.55 0.86001 11.59 0.91001 11.63 0.96001L11.72 1.06001C11.98 1.35001 12.25 1.64001 12.53 1.93001C13.05 2.48001 13.57 3.04001 14.06 3.63001C14.8 4.53001 15.44 5.48001 15.82 6.54001C16.21 7.64001 16.36 8.82001 16.33 10.01C16.3 11.03 15.96 11.69 15.42 12.21C14.88 12.73 14.12 13.09 13.25 13.49C13.06 13.58 12.87 13.67 12.67 13.76C10.72 14.66 8.70998 15.58 7.17998 17.16C5.36998 19.03 4.74998 21.78 4.33998 24.25C4.23998 24.83 4.15997 25.43 4.07997 26.05C4.11997 26.1 4.14999 26.15 4.18999 26.2C4.26999 25.54 4.35999 24.9 4.46999 24.28C4.87999 21.81 5.48998 19.09 7.27998 17.26V17.25Z" fill="url(#paint48_linear_82_147)"/>
<path d="M6.89998 17.43C8.36998 15.81 10.29 14.79 12.21 13.78C12.48 13.64 12.75 13.49 13.02 13.35C13.8 12.93 14.49 12.54 15 12.01C15.51 11.48 15.83 10.82 15.87 9.87001C15.93 8.63001 15.78 7.38001 15.37 6.22001C15 5.16001 14.34 4.22001 13.6 3.35001C13.12 2.78001 12.59 2.24001 12.08 1.70001C11.82 1.43001 11.56 1.15001 11.31 0.890015C11.28 0.900015 11.25 0.910015 11.22 0.920015L11.19 0.950015C11.45 1.23001 11.72 1.51001 12 1.80001C12.51 2.33001 13.03 2.87001 13.51 3.44001C14.25 4.31001 14.89 5.23001 15.25 6.27001C15.65 7.41001 15.8 8.65001 15.75 9.87001C15.71 10.79 15.4 11.42 14.91 11.93C14.42 12.44 13.75 12.82 12.96 13.24C12.69 13.38 12.42 13.53 12.15 13.67C10.23 14.68 8.27997 15.71 6.79997 17.35C5.05997 19.28 4.41999 21.95 3.96999 24.42C3.89999 24.82 3.83999 25.22 3.76999 25.63C3.80999 25.68 3.83999 25.73 3.87999 25.78C3.94999 25.33 4.00999 24.89 4.09999 24.45C4.55999 21.98 5.18998 19.34 6.89998 17.44V17.43Z" fill="url(#paint49_linear_82_147)"/>
<path d="M8.09999 16.95C9.65999 15.56 11.64 14.88 13.6 14.19C13.94 14.07 14.29 13.95 14.63 13.83C15.53 13.5 16.27 13.2 16.8 12.72C17.33 12.23 17.62 11.57 17.64 10.54C17.66 9.36001 17.48 8.18001 17.1 7.07001C16.71 5.91001 16.02 4.86001 15.24 3.87001C14.75 3.25001 14.21 2.65001 13.69 2.07001C13.39 1.73001 13.09 1.40001 12.81 1.07001C12.66 0.900007 12.52 0.730007 12.37 0.570007C12.32 0.580007 12.27 0.590007 12.23 0.610007C12.39 0.790007 12.55 0.970007 12.71 1.16001C13 1.49001 13.3 1.83001 13.6 2.17001C14.12 2.75001 14.65 3.34001 15.14 3.96001C15.92 4.94001 16.6 5.98001 16.98 7.11001C17.35 8.21001 17.53 9.37001 17.51 10.54C17.49 11.54 17.21 12.17 16.72 12.62C16.22 13.08 15.5 13.37 14.6 13.7C14.26 13.82 13.92 13.94 13.58 14.06C11.62 14.74 9.60998 15.44 8.02998 16.84C6.03998 18.6 5.48998 21.42 5.14998 23.92C5.01998 24.88 4.92998 25.88 4.86998 26.9C4.90998 26.95 4.94997 26.99 4.98997 27.04C5.04997 25.98 5.13998 24.94 5.27998 23.94C5.61998 21.44 6.16997 18.67 8.10997 16.94L8.09999 16.95Z" fill="url(#paint50_linear_82_147)"/>
<path d="M11.69 13.71C11.92 13.57 12.16 13.43 12.39 13.29C13.2 12.8 13.91 12.36 14.43 11.78C14.95 11.2 15.27 10.5 15.3 9.48998C15.35 8.27998 15.2 7.06998 14.8 5.93998C14.43 4.89998 13.78 3.98998 13.04 3.13998C12.56 2.58998 12.04 2.06998 11.54 1.54998C11.35 1.35998 11.17 1.16998 10.99 0.97998C10.94 0.99998 10.9 1.00998 10.85 1.02998C11.05 1.22998 11.25 1.43998 11.45 1.63998C11.96 2.14998 12.47 2.66998 12.94 3.20998C13.67 4.04998 14.31 4.94998 14.67 5.96998C15.06 7.07998 15.21 8.27998 15.16 9.46998C15.12 10.45 14.82 11.12 14.32 11.67C13.82 12.23 13.13 12.66 12.32 13.15C12.09 13.29 11.85 13.43 11.62 13.57C9.74998 14.68 7.84999 15.81 6.40999 17.51C4.75999 19.47 4.06998 22.12 3.58998 24.57C3.54998 24.78 3.51998 25 3.47998 25.21C3.51998 25.26 3.54998 25.31 3.58998 25.36C3.62998 25.11 3.66999 24.85 3.71999 24.6C4.19999 22.15 4.87999 19.53 6.50999 17.6C7.92999 15.92 9.80998 14.8 11.68 13.69L11.69 13.71Z" fill="url(#paint51_linear_82_147)"/>
<path d="M14.1 14.34C14.36 14.26 14.63 14.18 14.89 14.1C15.81 13.82 16.63 13.57 17.22 13.12C17.82 12.67 18.18 12.01 18.2 10.94C18.23 9.71996 18.04 8.50996 17.66 7.35996C17.27 6.16996 16.58 5.08996 15.79 4.07996C15.29 3.43996 14.75 2.81996 14.22 2.20996C13.92 1.85996 13.62 1.51996 13.34 1.17996C13.13 0.929961 12.93 0.689961 12.72 0.459961C12.67 0.469961 12.62 0.489961 12.57 0.499961C12.79 0.739961 13.01 0.999961 13.23 1.25996C13.52 1.59996 13.82 1.94996 14.12 2.28996C14.64 2.88996 15.18 3.50996 15.68 4.14996C16.46 5.15996 17.14 6.21996 17.53 7.38996C17.91 8.52996 18.09 9.71996 18.07 10.93C18.05 11.97 17.7 12.58 17.14 13.01C16.57 13.44 15.78 13.68 14.86 13.97C14.6 14.05 14.33 14.13 14.07 14.21C11.96 14.83 9.74999 15.49 8.09999 17.03C6.27999 18.72 5.82997 21.47 5.54997 23.79C5.40997 24.95 5.31999 26.15 5.28999 27.37C5.32999 27.41 5.38 27.45 5.42 27.49C5.45 26.24 5.53998 25 5.67998 23.81C5.96998 21.48 6.40999 18.78 8.18999 17.13C9.81999 15.62 11.99 14.97 14.1 14.34Z" fill="url(#paint52_linear_82_147)"/>
<path d="M6.20998 17.36C7.37998 15.96 8.76998 14.78 10.18 13.61C10.47 13.37 10.75 13.13 11.04 12.89C11.8 12.25 12.42 11.67 12.85 11C13.29 10.32 13.54 9.55 13.56 8.53C13.59 7.4 13.46 6.25 13.08 5.2C12.73 4.25 12.12 3.43 11.41 2.68C10.99 2.23 10.53 1.8 10.08 1.38C10.04 1.4 9.99 1.42 9.95 1.44C10.41 1.87 10.88 2.31 11.32 2.77C12.02 3.52 12.62 4.32 12.96 5.25C13.34 6.28 13.46 7.42 13.44 8.53C13.41 9.53 13.17 10.28 12.75 10.94C12.33 11.6 11.72 12.17 10.96 12.8C10.68 13.04 10.39 13.28 10.1 13.51C8.51999 14.82 6.93 16.14 5.67 17.8C4.25 19.68 3.39999 21.91 2.79999 24.17C2.82999 24.22 2.85998 24.28 2.89998 24.33C3.50998 22.04 4.34998 19.77 5.77998 17.88C5.82998 17.81 5.88999 17.75 5.93999 17.69C5.96999 17.65 5.99998 17.61 6.02998 17.56C6.08998 17.49 6.14998 17.43 6.20998 17.36Z" fill="url(#paint53_linear_82_147)"/>
<path d="M11.11 13.71C11.44 13.49 11.77 13.27 12.1 13.04C12.86 12.52 13.5 12.03 13.96 11.43C14.42 10.83 14.69 10.11 14.73 9.14C14.77 7.97 14.63 6.78 14.24 5.69C13.88 4.67 13.23 3.79 12.49 2.96C12.02 2.43 11.5 1.93 11 1.44C10.89 1.33 10.79 1.23 10.68 1.12C10.63 1.14 10.59 1.15 10.54 1.17C10.66 1.29 10.79 1.42 10.91 1.54C11.41 2.03 11.92 2.53 12.39 3.05C13.12 3.87 13.75 4.74 14.11 5.73C14.5 6.81 14.63 7.98 14.6 9.14C14.57 10.09 14.3 10.77 13.86 11.35C13.42 11.93 12.79 12.41 12.03 12.93C11.7 13.15 11.38 13.37 11.05 13.59C9.51997 14.61 7.98999 15.65 6.71999 17C7.87999 15.75 9.22999 14.71 10.6 13.69C10.95 13.43 11.3 13.16 11.65 12.9C12.38 12.34 12.99 11.81 13.43 11.18C13.87 10.55 14.12 9.82 14.16 8.85C14.2 7.69 14.07 6.51 13.67 5.43C13.31 4.43 12.66 3.57 11.93 2.77C11.46 2.26 10.95 1.78 10.46 1.3C10.43 1.27 10.41 1.25 10.38 1.22C10.34 1.24 10.29 1.26 10.25 1.28C10.29 1.32 10.33 1.36 10.38 1.4C10.87 1.87 11.37 2.35 11.84 2.86C12.57 3.65 13.2 4.49999 13.55 5.47C13.94 6.52999 14.07 7.7 14.03 8.84C14 9.78 13.75 10.49 13.33 11.1C12.91 11.71 12.31 12.23 11.58 12.79C11.23 13.06 10.88 13.32 10.53 13.58C8.99998 14.72 7.48 15.88 6.23 17.35C6.14 17.46 6.03998 17.56 5.95998 17.67C4.39998 19.65 3.59999 22.08 3.01999 24.5C3.04999 24.55 3.07998 24.61 3.11998 24.66C3.70998 22.16 4.52998 19.64 6.14998 17.63C6.20998 17.56 6.26997 17.5 6.32997 17.44C6.32997 17.44 6.33999 17.42 6.34999 17.41C6.36999 17.39 6.39 17.37 6.42 17.34C6.39 17.37 6.35997 17.4 6.32997 17.44C4.57997 19.5 3.81998 22.19 3.25998 24.77C3.25998 24.8 3.24999 24.83 3.23999 24.87C3.26999 24.92 3.30999 24.97 3.34999 25.02C3.36999 24.95 3.37998 24.87 3.38998 24.8C3.94998 22.21 4.71 19.53 6.45 17.5C7.77 15.95 9.44999 14.83 11.13 13.71H11.11Z" fill="url(#paint54_linear_82_147)"/>
<path d="M7.94999 23.51C8.01999 22.35 8.14997 21.07 8.51997 19.91C8.88997 18.75 9.48997 17.71 10.52 17.01C11.5 16.34 12.63 15.99 13.81 15.77C14.69 15.61 15.59 15.52 16.46 15.43C16.76 15.4 17.06 15.37 17.35 15.34C17.48 15.33 17.62 15.31 17.75 15.3C18.5 15.22 19.22 15.15 19.8 14.91C20.14 14.77 20.44 14.56 20.66 14.26C20.88 13.96 21.02 13.56 21.06 13.04C21.17 11.66 20.93 10.19 20.49 8.92C19.73 6.72 18.27 4.79 16.84 2.9C16.61 2.6 16.39 2.3 16.17 2L16.08 1.88C15.6 1.24 15.15 0.660005 14.63 0.130005C14.57 0.130005 14.52 0.150005 14.47 0.160005C15.02 0.700005 15.48 1.29 15.98 1.97L16.06 2.08C16.28 2.38 16.51 2.68 16.74 2.98C18.17 4.87 19.62 6.78 20.37 8.96C20.81 10.22 21.04 11.66 20.94 13.03C20.9 13.53 20.77 13.9 20.57 14.18C20.37 14.46 20.09 14.65 19.77 14.79C19.21 15.02 18.51 15.1 17.76 15.17C17.63 15.18 17.49 15.2 17.35 15.21C17.06 15.24 16.76 15.27 16.46 15.3C15.58 15.39 14.68 15.48 13.79 15.64C12.6 15.86 11.45 16.22 10.45 16.9C9.38999 17.62 8.76997 18.69 8.39997 19.87C8.02997 21.05 7.89996 22.34 7.82996 23.5C7.69996 25.53 7.82996 27.56 8.10996 29.58C8.15996 29.61 8.20999 29.64 8.25999 29.67C7.96999 27.63 7.83998 25.57 7.96998 23.51H7.94999Z" fill="url(#paint55_linear_82_147)"/>
<path d="M8.97999 16.75C10.6 15.52 12.62 15.01 14.58 14.52C14.77 14.47 14.96 14.43 15.15 14.38C15.24 14.36 15.33 14.33 15.43 14.31C16.26 14.1 17.04 13.9 17.64 13.53C17.97 13.32 18.25 13.06 18.45 12.7C18.65 12.35 18.76 11.91 18.78 11.35C18.82 10.09 18.65 8.81 18.23 7.65C17.5 5.64 16.07 3.92 14.67 2.24C14.41 1.92 14.14 1.61 13.89 1.3C13.62 0.969995 13.36 0.669995 13.09 0.369995C13.04 0.379995 12.99 0.399995 12.94 0.409995C13.22 0.719995 13.5 1.04 13.78 1.39C14.04 1.71 14.3 2.02 14.57 2.34C15.97 4.00999 17.39 5.71 18.11 7.7C18.52 8.84 18.69 10.11 18.65 11.35C18.63 11.89 18.52 12.3 18.34 12.63C18.16 12.96 17.9 13.21 17.58 13.41C17 13.77 16.24 13.96 15.41 14.17C15.32 14.19 15.23 14.22 15.14 14.24C14.95 14.29 14.76 14.34 14.57 14.38C12.61 14.87 10.56 15.38 8.91999 16.63C6.75999 18.27 6.25997 21.15 5.98997 23.67C5.84997 25.01 5.77999 26.4 5.78999 27.81C5.83999 27.85 5.87997 27.89 5.92997 27.93C5.91997 26.48 5.96997 25.06 6.11997 23.68C6.38997 21.16 6.88998 18.34 8.99998 16.73L8.97999 16.75Z" fill="url(#paint56_linear_82_147)"/>
<path d="M8.44999 23.55C8.50999 22.41 8.62997 21.14 8.98997 19.99C9.34997 18.84 9.94998 17.81 10.97 17.13C11.96 16.47 13.1 16.14 14.29 15.95C15.17 15.81 16.06 15.75 16.94 15.69C17.25 15.67 17.56 15.65 17.86 15.62C18 15.61 18.14 15.6 18.28 15.59C18.58 15.57 18.89 15.55 19.17 15.51C19.59 15.46 19.99 15.39 20.34 15.25C20.69 15.11 20.99 14.92 21.22 14.61C21.44 14.31 21.59 13.91 21.63 13.39C21.74 11.99 21.49 10.51 21.05 9.22C20.28 6.98 18.82 4.99 17.39 3.05C17.2 2.79 17.01 2.53 16.82 2.28C16.72 2.14 16.61 2 16.51 1.85C16.06 1.21 15.6 0.599998 15.05 0.0599976C14.99 0.0599976 14.93 0.0599976 14.87 0.0599976C15.45 0.609998 15.91 1.25 16.39 1.92C16.49 2.06 16.6 2.21 16.7 2.35C16.89 2.61 17.08 2.87 17.27 3.12C18.7 5.06 20.15 7.03 20.91 9.25C21.35 10.53 21.59 11.99 21.48 13.37C21.44 13.88 21.3 14.25 21.1 14.53C20.89 14.81 20.62 14.99 20.28 15.12C19.95 15.25 19.56 15.32 19.14 15.37C18.86 15.4 18.56 15.42 18.26 15.45C18.12 15.46 17.98 15.47 17.83 15.48C17.53 15.5 17.22 15.53 16.91 15.55C16.04 15.61 15.13 15.67 14.25 15.81C13.05 16 11.88 16.34 10.87 17.01C9.81998 17.71 9.19998 18.77 8.83998 19.94C8.46998 21.11 8.34999 22.38 8.28999 23.53C8.17999 25.7 8.36997 27.84 8.70997 29.96C8.75997 29.99 8.80997 30.02 8.85997 30.05C8.49997 27.9 8.29999 25.74 8.41999 23.54L8.44999 23.55Z" fill="url(#paint57_linear_82_147)"/>
<path d="M9.49999 23.76C9.53999 22.73 9.64999 21.54 9.96999 20.45C10.29 19.35 10.82 18.35 11.69 17.69C12.63 16.97 13.8 16.63 15.03 16.47C15.98 16.34 16.97 16.32 17.9 16.3C18.16 16.3 18.42 16.29 18.68 16.28C18.86 16.28 19.05 16.28 19.23 16.27C19.49 16.27 19.76 16.27 20.02 16.25C20.47 16.23 20.9 16.18 21.29 16.07C21.68 15.96 22.02 15.78 22.29 15.49C22.55 15.2 22.72 14.8 22.78 14.25C22.92 12.79 22.63 11.23 22.18 9.88997C21.39 7.51997 19.89 5.39997 18.43 3.31997C18.21 3.00997 18 2.70997 17.79 2.39997C17.74 2.32997 17.7 2.26997 17.65 2.19997C17.1 1.39997 16.58 0.669968 15.89 0.0299683C15.82 0.0299683 15.76 0.0299683 15.69 0.0399683C16.42 0.689968 16.96 1.43997 17.54 2.27997C17.59 2.34997 17.63 2.40997 17.68 2.47997C17.89 2.78997 18.11 3.08997 18.33 3.39997C19.79 5.47997 21.27 7.57997 22.06 9.92997C22.51 11.26 22.79 12.81 22.65 14.24C22.6 14.76 22.43 15.13 22.19 15.4C21.95 15.67 21.63 15.84 21.26 15.94C20.89 16.05 20.46 16.09 20.02 16.11C19.76 16.12 19.5 16.13 19.24 16.13C19.05 16.13 18.87 16.13 18.68 16.14C18.43 16.14 18.17 16.15 17.91 16.16C16.98 16.18 15.99 16.2 15.03 16.33C13.79 16.49 12.6 16.83 11.63 17.58C10.73 18.27 10.19 19.3 9.85997 20.41C9.52997 21.52 9.41999 22.72 9.37999 23.75C9.29999 25.99 9.50999 28.26 9.87999 30.52C9.92999 30.54 9.97999 30.57 10.03 30.59C9.64999 28.31 9.42998 26.01 9.51998 23.75L9.49999 23.76Z" fill="url(#paint58_linear_82_147)"/>
<path d="M10.73 24.16C10.78 23.11 10.88 21.94 11.19 20.87C11.5 19.8 12.03 18.84 12.94 18.19C13.93 17.49 15.11 17.2 16.34 17.07C17.19 16.98 18.06 16.97 18.91 16.97C19.28 16.97 19.65 16.97 20.01 16.95C20.17 16.95 20.33 16.95 20.49 16.94C20.78 16.94 21.07 16.93 21.36 16.91C21.8 16.89 22.22 16.83 22.59 16.71C22.96 16.59 23.28 16.4 23.52 16.09C23.75 15.78 23.9 15.37 23.92 14.81C23.97 13.36 23.74 11.9 23.3 10.55C22.48 8.01999 20.93 5.73999 19.43 3.50999C19.17 3.12999 18.91 2.74999 18.66 2.35999C18.07 1.46999 17.52 0.67999 16.74 -0.0100098C16.68 -0.0100098 16.62 -0.0100098 16.55 -0.0100098C16.54 -0.0100098 16.53 -0.0100098 16.52 -0.0100098C17.36 0.68999 17.93 1.49999 18.55 2.44999L18.63 2.57999C18.86 2.91999 19.09 3.25999 19.32 3.59999C20.83 5.82999 22.36 8.09999 23.18 10.6C23.62 11.94 23.85 13.38 23.79 14.81C23.77 15.35 23.63 15.74 23.42 16.02C23.21 16.3 22.91 16.48 22.56 16.59C22.21 16.71 21.8 16.76 21.36 16.78C21.08 16.8 20.79 16.8 20.5 16.81C20.34 16.81 20.18 16.81 20.02 16.82C19.67 16.83 19.3 16.83 18.93 16.84C18.09 16.84 17.2 16.86 16.34 16.94C15.1 17.07 13.89 17.37 12.88 18.09C11.93 18.76 11.4 19.75 11.08 20.84C10.76 21.92 10.67 23.11 10.62 24.16C10.51 26.39 10.66 28.69 10.96 30.98C11.01 31 11.05 31.01 11.1 31.03C10.79 28.72 10.64 26.41 10.75 24.17L10.73 24.16Z" fill="url(#paint59_linear_82_147)"/>
<path d="M8.95997 23.63C9.00997 22.59 9.11998 21.39 9.43998 20.28C9.75998 19.17 10.29 18.16 11.18 17.49C12.13 16.77 13.29 16.41 14.5 16.22C15.46 16.07 16.45 16.03 17.38 15.99C17.63 15.98 17.88 15.97 18.13 15.95C18.31 15.95 18.49 15.93 18.68 15.93C18.94 15.93 19.21 15.91 19.46 15.89C19.9 15.86 20.34 15.81 20.72 15.69C21.11 15.57 21.45 15.39 21.71 15.09C21.97 14.8 22.14 14.4 22.19 13.86C22.33 12.42 22.05 10.88 21.6 9.54998C20.82 7.23998 19.34 5.18998 17.9 3.18998C17.72 2.92998 17.53 2.67998 17.35 2.41998C17.25 2.26998 17.14 2.12998 17.04 1.97998C16.56 1.28998 16.08 0.619978 15.48 0.039978C15.42 0.039978 15.36 0.039978 15.3 0.039978C15.94 0.619978 16.43 1.31998 16.94 2.04998C17.04 2.19998 17.15 2.34998 17.25 2.48998C17.43 2.74998 17.62 2.99998 17.8 3.25998C19.24 5.26998 20.71 7.29998 21.48 9.58998C21.92 10.9 22.2 12.43 22.06 13.84C22.01 14.35 21.85 14.73 21.61 14.99C21.37 15.26 21.05 15.43 20.68 15.55C20.31 15.66 19.89 15.72 19.45 15.75C19.19 15.77 18.93 15.78 18.67 15.79C18.48 15.79 18.3 15.8 18.11 15.81C17.87 15.82 17.62 15.83 17.37 15.85C16.43 15.89 15.43 15.94 14.47 16.09C13.24 16.28 12.06 16.64 11.09 17.38C10.18 18.08 9.62997 19.12 9.30997 20.24C8.97997 21.36 8.86996 22.57 8.82996 23.62C8.72996 25.83 8.93997 28.05 9.30997 30.26C9.35997 30.28 9.40997 30.31 9.45997 30.33C9.07997 28.1 8.86998 25.86 8.96998 23.63H8.95997Z" fill="url(#paint60_linear_82_147)"/>
<path d="M9.35998 16.76C11.01 15.56 13.07 15.14 15.05 14.72C15.24 14.68 15.44 14.64 15.63 14.6C15.74 14.58 15.85 14.55 15.96 14.53C16.78 14.36 17.56 14.2 18.17 13.86C18.51 13.67 18.8 13.41 19.01 13.06C19.22 12.71 19.34 12.27 19.35 11.71C19.39 10.44 19.21 9.13999 18.79 7.95999C18.05 5.89999 16.61 4.11999 15.2 2.39999C14.94 2.07999 14.67 1.75999 14.42 1.42999C14.1 1.02999 13.79 0.649988 13.46 0.299988C13.41 0.309988 13.35 0.309988 13.3 0.319988C13.65 0.689988 13.97 1.07999 14.32 1.50999C14.58 1.82999 14.84 2.15999 15.11 2.47999C16.52 4.20999 17.95 5.95999 18.68 7.99999C19.09 9.14999 19.27 10.44 19.23 11.7C19.21 12.24 19.1 12.66 18.9 12.98C18.71 13.3 18.44 13.54 18.11 13.73C17.53 14.06 16.77 14.22 15.94 14.39C15.83 14.41 15.72 14.44 15.61 14.46C15.42 14.5 15.22 14.54 15.03 14.58C13.05 14.99 10.96 15.42 9.29001 16.64C7.12001 18.22 6.65 21.1 6.41 23.58C6.27 25.11 6.24 26.7 6.31 28.29C6.36 28.33 6.40001 28.36 6.45001 28.4C6.38001 26.77 6.40001 25.15 6.54001 23.59C6.77001 21.11 7.23998 18.29 9.35998 16.75V16.76Z" fill="url(#paint61_linear_82_147)"/>
<path d="M6.99997 23.54C7.09997 22.39 7.23998 21.12 7.59998 19.96C7.95998 18.8 8.52996 17.74 9.48996 16.99C10.45 16.24 11.58 15.8 12.76 15.49C13.63 15.26 14.52 15.11 15.4 14.96C15.72 14.91 16.04 14.85 16.35 14.79C16.46 14.77 16.57 14.75 16.68 14.73C17.46 14.59 18.21 14.46 18.78 14.15C19.11 13.97 19.39 13.74 19.59 13.41C19.79 13.08 19.91 12.67 19.93 12.13C19.99 10.82 19.79 9.46997 19.37 8.26997C18.63 6.17997 17.19 4.35997 15.79 2.58997C15.56 2.29997 15.33 2.00997 15.1 1.70997L15.02 1.60997C14.63 1.10997 14.27 0.649971 13.87 0.219971C13.82 0.219971 13.76 0.239971 13.71 0.239971C14.13 0.679971 14.51 1.15997 14.92 1.68997L14.99 1.77997C15.22 2.06997 15.45 2.36997 15.68 2.65997C17.08 4.42997 18.51 6.21997 19.24 8.28997C19.66 9.47997 19.85 10.81 19.8 12.1C19.78 12.62 19.66 13.01 19.48 13.32C19.29 13.62 19.04 13.84 18.72 14.01C18.16 14.31 17.44 14.43 16.66 14.57C16.55 14.59 16.44 14.61 16.33 14.63C16.02 14.69 15.71 14.74 15.39 14.79C14.51 14.94 13.61 15.09 12.74 15.32C11.55 15.63 10.4 16.08 9.41999 16.84C8.42999 17.61 7.84998 18.7 7.47998 19.87C7.11998 21.05 6.96998 22.32 6.87998 23.48C6.73998 25.19 6.75998 26.94 6.87998 28.68C6.92998 28.72 6.96996 28.75 7.01996 28.78C6.87996 27 6.85998 25.22 7.00998 23.48L6.99997 23.54Z" fill="url(#paint62_linear_82_147)"/>
<path d="M7.45997 23.5C7.52997 22.44 7.64998 21.24 7.96998 20.13C8.27998 19.02 8.78999 17.99 9.63999 17.26C10.64 16.4 11.87 15.93 13.17 15.63C14.1 15.42 15.06 15.29 15.99 15.17C16.36 15.12 16.73 15.07 17.09 15.02L17.28 14.99C18.06 14.88 18.81 14.77 19.38 14.47C19.69 14.31 19.96 14.09 20.15 13.78C20.34 13.47 20.46 13.08 20.49 12.57C20.57 11.22 20.36 9.81999 19.92 8.57999C19.17 6.42999 17.72 4.55999 16.31 2.73999C16.08 2.43999 15.85 2.13999 15.62 1.84999L15.54 1.73999C15.11 1.16999 14.7 0.649993 14.25 0.179993C14.19 0.179993 14.14 0.199993 14.08 0.209993C14.56 0.699993 14.98 1.22999 15.44 1.82999L15.52 1.93999C15.75 2.23999 15.98 2.53999 16.21 2.83999C17.63 4.66999 19.06 6.51999 19.8 8.63999C20.23 9.86999 20.44 11.25 20.36 12.58C20.33 13.07 20.22 13.44 20.04 13.73C19.86 14.02 19.62 14.22 19.32 14.37C18.77 14.66 18.04 14.76 17.25 14.88C17.19 14.88 17.13 14.9 17.06 14.91C16.7 14.96 16.34 15.01 15.97 15.06C15.04 15.18 14.07 15.31 13.13 15.52C11.82 15.82 10.57 16.29 9.53998 17.18C8.66998 17.93 8.14996 18.99 7.82996 20.12C7.50996 21.25 7.38998 22.45 7.31998 23.52C7.18998 25.4 7.24997 27.3 7.45997 29.2C7.50997 29.23 7.55996 29.27 7.60996 29.31C7.38996 27.38 7.32997 25.45 7.45997 23.54V23.5Z" fill="url(#paint63_linear_82_147)"/>
<path d="M16.54 29.87C24.2002 29.87 30.41 23.6602 30.41 16C30.41 8.33982 24.2002 2.13 16.54 2.13C8.8798 2.13 2.66998 8.33982 2.66998 16C2.66998 23.6602 8.8798 29.87 16.54 29.87Z" fill="url(#paint64_linear_82_147)"/>
<path d="M16.54 28.27C23.3165 28.27 28.81 22.7765 28.81 16C28.81 9.22345 23.3165 3.72998 16.54 3.72998C9.76346 3.72998 4.26997 9.22345 4.26997 16C4.26997 22.7765 9.76346 28.27 16.54 28.27Z" fill="#0D052D"/>
<path d="M16.13 21.54C15.6 21.5 15.1 21.38 14.63 21.19C14.16 20.99 13.76 20.73 13.41 20.41C13.07 20.09 12.8 19.72 12.59 19.31C12.39 18.89 12.28 18.44 12.27 17.95H14.24C14.26 18.47 14.44 18.91 14.78 19.26C15.13 19.6 15.58 19.8 16.12 19.85V16.68L15.37 16.57C14.51 16.45 13.82 16.13 13.31 15.59C12.81 15.06 12.56 14.38 12.56 13.56C12.56 13.13 12.66 12.73 12.85 12.36C13.04 11.98 13.3 11.64 13.63 11.35C13.96 11.05 14.34 10.81 14.77 10.63C15.2 10.45 15.66 10.34 16.13 10.29V8.79999H17.3V10.32C17.78 10.38 18.22 10.51 18.63 10.7C19.04 10.88 19.39 11.12 19.69 11.4C19.99 11.68 20.22 12.02 20.39 12.39C20.57 12.76 20.67 13.16 20.69 13.59H18.72C18.7 13.21 18.55 12.88 18.29 12.6C18.03 12.31 17.7 12.11 17.3 12.01V14.94L17.84 15.02C18.25 15.08 18.63 15.2 18.99 15.36C19.35 15.52 19.67 15.73 19.93 15.98C20.21 16.24 20.42 16.55 20.57 16.91C20.73 17.26 20.81 17.66 20.81 18.11C20.81 18.59 20.72 19.03 20.54 19.42C20.37 19.8 20.12 20.15 19.8 20.44C19.49 20.73 19.12 20.97 18.68 21.16C18.25 21.34 17.79 21.46 17.29 21.51V23.16H16.12V21.53L16.13 21.54ZM17.3 19.82C17.8 19.73 18.19 19.55 18.47 19.28C18.75 18.99 18.89 18.63 18.89 18.19C18.89 17.78 18.76 17.49 18.49 17.29C18.22 17.09 17.92 16.95 17.58 16.89L17.31 16.84V19.82H17.3ZM16.13 11.97C15.68 12.03 15.3 12.2 14.98 12.47C14.67 12.73 14.52 13.07 14.52 13.51C14.52 13.88 14.62 14.17 14.82 14.36C15.03 14.54 15.31 14.66 15.65 14.71L16.13 14.79V11.97Z" fill="white"/>
<defs>
<linearGradient id="paint0_linear_82_147" x1="16.54" y1="0" x2="16.54" y2="46.78" gradientUnits="userSpaceOnUse">
<stop stop-color="#07021C"/>
<stop offset="1" stop-color="#1C0872"/>
</linearGradient>
<linearGradient id="paint1_linear_82_147" x1="16.54" y1="0" x2="16.54" y2="46.78" gradientUnits="userSpaceOnUse">
<stop stop-color="#07021C"/>
<stop offset="1" stop-color="#1C0872"/>
</linearGradient>
<linearGradient id="paint2_linear_82_147" x1="5.22998" y1="4.69" x2="27.85" y2="27.31" gradientUnits="userSpaceOnUse">
<stop stop-color="#080221"/>
<stop offset="1" stop-color="#13064C"/>
</linearGradient>
<linearGradient id="paint3_linear_82_147" x1="15.51" y1="-5.75" x2="37.7" y2="16.44" gradientUnits="userSpaceOnUse">
<stop stop-color="#0B0825"/>
<stop offset="1" stop-color="#1B1556"/>
</linearGradient>
<linearGradient id="paint4_linear_82_147" x1="14.83" y1="-5.08001" x2="37.02" y2="17.11" gradientUnits="userSpaceOnUse">
<stop stop-color="#0B0825"/>
<stop offset="1" stop-color="#1B1556"/>
</linearGradient>
<linearGradient id="paint5_linear_82_147" x1="1.42999" y1="8.32999" x2="23.62" y2="30.51" gradientUnits="userSpaceOnUse">
<stop stop-color="#0B0825"/>
<stop offset="1" stop-color="#1B1556"/>
</linearGradient>
<linearGradient id="paint6_linear_82_147" x1="14.47" y1="-4.70998" x2="36.65" y2="17.48" gradientUnits="userSpaceOnUse">
<stop stop-color="#0B0825"/>
<stop offset="1" stop-color="#1B1556"/>
</linearGradient>
<linearGradient id="paint7_linear_82_147" x1="1.56998" y1="8.19" x2="23.75" y2="30.38" gradientUnits="userSpaceOnUse">
<stop stop-color="#0B0825"/>
<stop offset="1" stop-color="#1B1556"/>
</linearGradient>
<linearGradient id="paint8_linear_82_147" x1="10.0097" y1="-0.250015" x2="32.1997" y2="21.9347" gradientUnits="userSpaceOnUse">
<stop stop-color="#0B0825"/>
<stop offset="1" stop-color="#1B1556"/>
</linearGradient>
<linearGradient id="paint9_linear_82_147" x1="1.49999" y1="8.25999" x2="23.68" y2="30.45" gradientUnits="userSpaceOnUse">
<stop stop-color="#0B0825"/>
<stop offset="1" stop-color="#1B1556"/>
</linearGradient>
<linearGradient id="paint10_linear_82_147" x1="1.63998" y1="8.11999" x2="23.83" y2="30.31" gradientUnits="userSpaceOnUse">
<stop stop-color="#0B0825"/>
<stop offset="1" stop-color="#1B1556"/>
</linearGradient>
<linearGradient id="paint11_linear_82_147" x1="14.07" y1="-4.31004" x2="36.26" y2="17.8699" gradientUnits="userSpaceOnUse">
<stop stop-color="#0B0825"/>
<stop offset="1" stop-color="#1B1556"/>
</linearGradient>
<linearGradient id="paint12_linear_82_147" x1="3.69" y1="6.06998" x2="25.88" y2="28.26" gradientUnits="userSpaceOnUse">
<stop stop-color="#0B0825"/>
<stop offset="1" stop-color="#1B1556"/>
</linearGradient>
<linearGradient id="paint13_linear_82_147" x1="13.58" y1="-3.82003" x2="35.76" y2="18.37" gradientUnits="userSpaceOnUse">
<stop stop-color="#0B0825"/>
<stop offset="1" stop-color="#1B1556"/>
</linearGradient>
<linearGradient id="paint14_linear_82_147" x1="4.00997" y1="5.75" x2="26.2" y2="27.93" gradientUnits="userSpaceOnUse">
<stop stop-color="#0B0825"/>
<stop offset="1" stop-color="#1B1556"/>
</linearGradient>
<linearGradient id="paint15_linear_82_147" x1="15.18" y1="-5.42004" x2="37.37" y2="16.76" gradientUnits="userSpaceOnUse">
<stop stop-color="#0B0825"/>
<stop offset="1" stop-color="#1B1556"/>
</linearGradient>
<linearGradient id="paint16_linear_82_147" x1="0.609983" y1="9.15002" x2="22.8" y2="31.3401" gradientUnits="userSpaceOnUse">
<stop stop-color="#0B0825"/>
<stop offset="1" stop-color="#1B1556"/>
</linearGradient>
<linearGradient id="paint17_linear_82_147" x1="0.119993" y1="9.63996" x2="22.3" y2="31.8299" gradientUnits="userSpaceOnUse">
<stop stop-color="#0B0825"/>
<stop offset="1" stop-color="#1B1556"/>
</linearGradient>
<linearGradient id="paint18_linear_82_147" x1="0.179989" y1="9.57998" x2="22.36" y2="31.7699" gradientUnits="userSpaceOnUse">
<stop stop-color="#0B0825"/>
<stop offset="1" stop-color="#1B1556"/>
</linearGradient>
<linearGradient id="paint19_linear_82_147" x1="0.25998" y1="9.50002" x2="22.45" y2="31.69" gradientUnits="userSpaceOnUse">
<stop stop-color="#0B0825"/>
<stop offset="1" stop-color="#1B1556"/>
</linearGradient>
<linearGradient id="paint20_linear_82_147" x1="1.29999" y1="8.45998" x2="23.48" y2="30.65" gradientUnits="userSpaceOnUse">
<stop stop-color="#0B0825"/>
<stop offset="1" stop-color="#1B1556"/>
</linearGradient>
<linearGradient id="paint21_linear_82_147" x1="4.99996" y1="4.75" x2="27.19" y2="26.94" gradientUnits="userSpaceOnUse">
<stop stop-color="#0B0825"/>
<stop offset="1" stop-color="#1B1556"/>
</linearGradient>
<linearGradient id="paint22_linear_82_147" x1="5.19997" y1="4.55999" x2="27.39" y2="26.74" gradientUnits="userSpaceOnUse">
<stop stop-color="#0B0825"/>
<stop offset="1" stop-color="#1B1556"/>
</linearGradient>
<linearGradient id="paint23_linear_82_147" x1="0.709983" y1="9.05001" x2="22.89" y2="31.24" gradientUnits="userSpaceOnUse">
<stop stop-color="#0B0825"/>
<stop offset="1" stop-color="#1B1556"/>
</linearGradient>
<linearGradient id="paint24_linear_82_147" x1="0.939981" y1="8.82001" x2="23.13" y2="31" gradientUnits="userSpaceOnUse">
<stop stop-color="#0B0825"/>
<stop offset="1" stop-color="#1B1556"/>
</linearGradient>
<linearGradient id="paint25_linear_82_147" x1="1.35999" y1="8.39997" x2="23.55" y2="30.5799" gradientUnits="userSpaceOnUse">
<stop stop-color="#0B0825"/>
<stop offset="1" stop-color="#1B1556"/>
</linearGradient>
<linearGradient id="paint26_linear_82_147" x1="1.04998" y1="8.70998" x2="23.23" y2="30.9" gradientUnits="userSpaceOnUse">
<stop stop-color="#0B0825"/>
<stop offset="1" stop-color="#1B1556"/>
</linearGradient>
<linearGradient id="paint27_linear_82_147" x1="1.12999" y1="8.62998" x2="23.31" y2="30.82" gradientUnits="userSpaceOnUse">
<stop stop-color="#0B0825"/>
<stop offset="1" stop-color="#1B1556"/>
</linearGradient>
<linearGradient id="paint28_linear_82_147" x1="0.379979" y1="9.37996" x2="22.57" y2="31.57" gradientUnits="userSpaceOnUse">
<stop stop-color="#0B0825"/>
<stop offset="1" stop-color="#1B1556"/>
</linearGradient>
<linearGradient id="paint29_linear_82_147" x1="0.479978" y1="9.27996" x2="22.67" y2="31.46" gradientUnits="userSpaceOnUse">
<stop stop-color="#0B0825"/>
<stop offset="1" stop-color="#1B1556"/>
</linearGradient>
<linearGradient id="paint30_linear_82_147" x1="0.829982" y1="8.93" x2="23.02" y2="31.12" gradientUnits="userSpaceOnUse">
<stop stop-color="#0B0825"/>
<stop offset="1" stop-color="#1B1556"/>
</linearGradient>
<linearGradient id="paint31_linear_82_147" x1="5.59999" y1="4.14997" x2="27.79" y2="26.34" gradientUnits="userSpaceOnUse">
<stop stop-color="#0B0825"/>
<stop offset="1" stop-color="#1B1556"/>
</linearGradient>
<linearGradient id="paint32_linear_82_147" x1="6.47996" y1="3.27996" x2="28.67" y2="25.47" gradientUnits="userSpaceOnUse">
<stop stop-color="#0B0825"/>
<stop offset="1" stop-color="#1B1556"/>
</linearGradient>
<linearGradient id="paint33_linear_82_147" x1="5.81" y1="3.94998" x2="28" y2="26.14" gradientUnits="userSpaceOnUse">
<stop stop-color="#0B0825"/>
<stop offset="1" stop-color="#1B1556"/>
</linearGradient>
<linearGradient id="paint34_linear_82_147" x1="6.26" y1="3.49997" x2="28.45" y2="25.68" gradientUnits="userSpaceOnUse">
<stop stop-color="#0B0825"/>
<stop offset="1" stop-color="#1B1556"/>
</linearGradient>
<linearGradient id="paint35_linear_82_147" x1="6.03001" y1="3.72997" x2="28.22" y2="25.9199" gradientUnits="userSpaceOnUse">
<stop stop-color="#0B0825"/>
<stop offset="1" stop-color="#1B1556"/>
</linearGradient>
<linearGradient id="paint36_linear_82_147" x1="4.24" y1="5.52002" x2="26.43" y2="27.7" gradientUnits="userSpaceOnUse">
<stop stop-color="#0B0825"/>
<stop offset="1" stop-color="#1B1556"/>
</linearGradient>
<linearGradient id="paint37_linear_82_147" x1="5.39997" y1="4.35999" x2="27.59" y2="26.54" gradientUnits="userSpaceOnUse">
<stop stop-color="#0B0825"/>
<stop offset="1" stop-color="#1B1556"/>
</linearGradient>
<linearGradient id="paint38_linear_82_147" x1="4.41999" y1="5.34" x2="26.61" y2="27.52" gradientUnits="userSpaceOnUse">
<stop stop-color="#0B0825"/>
<stop offset="1" stop-color="#1B1556"/>
</linearGradient>
<linearGradient id="paint39_linear_82_147" x1="4.80998" y1="4.94998" x2="26.99" y2="27.14" gradientUnits="userSpaceOnUse">
<stop stop-color="#0B0825"/>
<stop offset="1" stop-color="#1B1556"/>
</linearGradient>
<linearGradient id="paint40_linear_82_147" x1="4.61999" y1="5.14001" x2="26.8" y2="27.33" gradientUnits="userSpaceOnUse">
<stop stop-color="#0B0825"/>
<stop offset="1" stop-color="#1B1556"/>
</linearGradient>
<linearGradient id="paint41_linear_82_147" x1="3.56999" y1="6.17997" x2="25.76" y2="28.37" gradientUnits="userSpaceOnUse">
<stop stop-color="#0B0825"/>
<stop offset="1" stop-color="#1B1556"/>
</linearGradient>
<linearGradient id="paint42_linear_82_147" x1="6.71996" y1="3.03997" x2="28.9" y2="25.23" gradientUnits="userSpaceOnUse">
<stop stop-color="#0B0825"/>
<stop offset="1" stop-color="#1B1556"/>
</linearGradient>
<linearGradient id="paint43_linear_82_147" x1="6.95001" y1="2.80997" x2="29.14" y2="24.99" gradientUnits="userSpaceOnUse">
<stop stop-color="#0B0825"/>
<stop offset="1" stop-color="#1B1556"/>
</linearGradient>
<linearGradient id="paint44_linear_82_147" x1="3.65998" y1="6.10001" x2="25.85" y2="28.29" gradientUnits="userSpaceOnUse">
<stop stop-color="#0B0825"/>
<stop offset="1" stop-color="#1B1556"/>
</linearGradient>
<linearGradient id="paint45_linear_82_147" x1="3.52994" y1="6.22997" x2="25.7099" y2="28.42" gradientUnits="userSpaceOnUse">
<stop stop-color="#0B0825"/>
<stop offset="1" stop-color="#1B1556"/>
</linearGradient>
<linearGradient id="paint46_linear_82_147" x1="3.54998" y1="6.20998" x2="25.73" y2="28.4" gradientUnits="userSpaceOnUse">
<stop stop-color="#0B0825"/>
<stop offset="1" stop-color="#1B1556"/>
</linearGradient>
<linearGradient id="paint47_linear_82_147" x1="2.19999" y1="7.55996" x2="24.39" y2="29.74" gradientUnits="userSpaceOnUse">
<stop stop-color="#0B0825"/>
<stop offset="1" stop-color="#1B1556"/>
</linearGradient>
<linearGradient id="paint48_linear_82_147" x1="2.09997" y1="7.66001" x2="24.29" y2="29.85" gradientUnits="userSpaceOnUse">
<stop stop-color="#0B0825"/>
<stop offset="1" stop-color="#1B1556"/>
</linearGradient>
<linearGradient id="paint49_linear_82_147" x1="2.00999" y1="7.75002" x2="24.2" y2="29.93" gradientUnits="userSpaceOnUse">
<stop stop-color="#0B0825"/>
<stop offset="1" stop-color="#1B1556"/>
</linearGradient>
<linearGradient id="paint50_linear_82_147" x1="2.30998" y1="7.45001" x2="24.5" y2="29.64" gradientUnits="userSpaceOnUse">
<stop stop-color="#0B0825"/>
<stop offset="1" stop-color="#1B1556"/>
</linearGradient>
<linearGradient id="paint51_linear_82_147" x1="1.92998" y1="7.82998" x2="24.11" y2="30.02" gradientUnits="userSpaceOnUse">
<stop stop-color="#0B0825"/>
<stop offset="1" stop-color="#1B1556"/>
</linearGradient>
<linearGradient id="paint52_linear_82_147" x1="2.41999" y1="7.33996" x2="24.61" y2="29.53" gradientUnits="userSpaceOnUse">
<stop stop-color="#0B0825"/>
<stop offset="1" stop-color="#1B1556"/>
</linearGradient>
<linearGradient id="paint53_linear_82_147" x1="1.70999" y1="8.05001" x2="23.9" y2="30.24" gradientUnits="userSpaceOnUse">
<stop stop-color="#0B0825"/>
<stop offset="1" stop-color="#1B1556"/>
</linearGradient>
<linearGradient id="paint54_linear_82_147" x1="1.83999" y1="7.90999" x2="24.03" y2="30.1" gradientUnits="userSpaceOnUse">
<stop stop-color="#0B0825"/>
<stop offset="1" stop-color="#1B1556"/>
</linearGradient>
<linearGradient id="paint55_linear_82_147" x1="3.13996" y1="6.62" x2="25.32" y2="28.81" gradientUnits="userSpaceOnUse">
<stop stop-color="#0B0825"/>
<stop offset="1" stop-color="#1B1556"/>
</linearGradient>
<linearGradient id="paint56_linear_82_147" x1="2.53999" y1="7.21999" x2="24.73" y2="29.4" gradientUnits="userSpaceOnUse">
<stop stop-color="#0B0825"/>
<stop offset="1" stop-color="#1B1556"/>
</linearGradient>
<linearGradient id="paint57_linear_82_147" x1="3.31999" y1="6.44" x2="25.51" y2="28.63" gradientUnits="userSpaceOnUse">
<stop stop-color="#0B0825"/>
<stop offset="1" stop-color="#1B1556"/>
</linearGradient>
<linearGradient id="paint58_linear_82_147" x1="3.68" y1="6.07997" x2="25.86" y2="28.27" gradientUnits="userSpaceOnUse">
<stop stop-color="#0B0825"/>
<stop offset="1" stop-color="#1B1556"/>
</linearGradient>
<linearGradient id="paint59_linear_82_147" x1="4.04998" y1="5.69999" x2="26.24" y2="27.89" gradientUnits="userSpaceOnUse">
<stop stop-color="#0B0825"/>
<stop offset="1" stop-color="#1B1556"/>
</linearGradient>
<linearGradient id="paint60_linear_82_147" x1="3.49996" y1="6.25998" x2="25.69" y2="28.44" gradientUnits="userSpaceOnUse">
<stop stop-color="#0B0825"/>
<stop offset="1" stop-color="#1B1556"/>
</linearGradient>
<linearGradient id="paint61_linear_82_147" x1="2.67" y1="7.08999" x2="24.86" y2="29.28" gradientUnits="userSpaceOnUse">
<stop stop-color="#0B0825"/>
<stop offset="1" stop-color="#1B1556"/>
</linearGradient>
<linearGradient id="paint62_linear_82_147" x1="2.81998" y1="6.93997" x2="25.01" y2="29.13" gradientUnits="userSpaceOnUse">
<stop stop-color="#0B0825"/>
<stop offset="1" stop-color="#1B1556"/>
</linearGradient>
<linearGradient id="paint63_linear_82_147" x1="2.96998" y1="6.78999" x2="25.16" y2="28.98" gradientUnits="userSpaceOnUse">
<stop stop-color="#0B0825"/>
<stop offset="1" stop-color="#1B1556"/>
</linearGradient>
<linearGradient id="paint64_linear_82_147" x1="14.4" y1="2.73" x2="18.81" y2="30.12" gradientUnits="userSpaceOnUse">
<stop stop-color="#0F0927"/>
<stop offset="1" stop-color="#24185B"/>
</linearGradient>
</defs>
</svg>
