<svg width="33" height="33" viewBox="0 0 33 33" fill="none" xmlns="http://www.w3.org/2000/svg">
<path d="M17.57 17.26L17.3 17.21V20.19C17.8 20.1 18.19 19.92 18.47 19.65C18.75 19.36 18.89 19 18.89 18.56C18.89 18.15 18.76 17.86 18.49 17.66C18.22 17.46 17.92 17.32 17.58 17.26H17.57Z" fill="#213147"/>
<path d="M14.51 13.86C14.51 14.23 14.61 14.52 14.81 14.71C15.02 14.89 15.3 15.01 15.64 15.06L16.12 15.14V12.32C15.67 12.38 15.29 12.55 14.97 12.82C14.66 13.08 14.51 13.42 14.51 13.86Z" fill="#213147"/>
<path d="M16.54 0.359985C7.69999 0.359985 0.539978 7.51999 0.539978 16.36C0.539978 25.2 7.69999 32.36 16.54 32.36C25.38 32.36 32.54 25.2 32.54 16.36C32.54 7.51999 25.38 0.359985 16.54 0.359985ZM16.55 30.23C8.88997 30.23 2.67998 24.02 2.67998 16.36C2.67998 8.69999 8.88997 2.48999 16.55 2.48999C24.21 2.48999 30.42 8.69999 30.42 16.36C30.42 24.02 24.21 30.23 16.55 30.23Z" fill="#213147"/>
<path d="M16.55 4.08997C9.77997 4.08997 4.27998 9.57997 4.27998 16.36C4.27998 23.14 9.76997 28.63 16.55 28.63C23.33 28.63 28.82 23.14 28.82 16.36C28.82 9.57997 23.33 4.08997 16.55 4.08997ZM20.55 19.78C20.38 20.16 20.13 20.51 19.81 20.8C19.5 21.09 19.13 21.33 18.69 21.52C18.26 21.7 17.8 21.82 17.3 21.87V23.52H16.13V21.89C15.6 21.85 15.1 21.73 14.63 21.54C14.16 21.34 13.76 21.08 13.41 20.76C13.07 20.44 12.8 20.07 12.59 19.66C12.39 19.24 12.28 18.79 12.27 18.3H14.24C14.26 18.82 14.44 19.26 14.78 19.61C15.13 19.95 15.58 20.15 16.12 20.2V17.03L15.37 16.92C14.51 16.8 13.82 16.48 13.31 15.94C12.81 15.41 12.56 14.73 12.56 13.91C12.56 13.48 12.66 13.08 12.85 12.71C13.04 12.33 13.3 11.99 13.63 11.7C13.96 11.4 14.34 11.16 14.77 10.98C15.2 10.8 15.66 10.69 16.13 10.64V9.14997H17.3V10.67C17.78 10.73 18.22 10.86 18.63 11.05C19.04 11.23 19.39 11.47 19.69 11.75C19.99 12.04 20.22 12.37 20.39 12.74C20.57 13.11 20.67 13.51 20.69 13.94H18.72C18.7 13.56 18.55 13.23 18.29 12.95C18.03 12.66 17.7 12.46 17.3 12.36V15.29L17.84 15.37C18.25 15.43 18.63 15.55 18.99 15.71C19.35 15.87 19.67 16.08 19.93 16.33C20.21 16.59 20.42 16.9 20.57 17.26C20.73 17.61 20.81 18.01 20.81 18.46C20.81 18.94 20.72 19.38 20.54 19.77L20.55 19.78Z" fill="#213147"/>
</svg>
