<svg width="32" height="33" viewBox="0 0 32 33" fill="none" xmlns="http://www.w3.org/2000/svg">
<path d="M16 32.35C24.8366 32.35 32 25.1865 32 16.35C32 7.51342 24.8366 0.349976 16 0.349976C7.16344 0.349976 0 7.51342 0 16.35C0 25.1865 7.16344 32.35 16 32.35Z" fill="white"/>
<path d="M19.53 16.32C19.27 16.18 18.02 15.82 17.2 15.63C16.79 15.54 16.37 15.45 15.96 15.37C14.72 15.12 13.78 14.96 13.32 14.67C12.7 14.28 12.62 13.44 12.62 13.23V12.11C12.62 11.62 12.79 11.22 13.13 10.88C13.48 10.54 13.88 10.37 14.37 10.37H17.54C18.03 10.37 18.43 10.54 18.77 10.88C19.11 11.22 19.28 11.63 19.28 12.11V12.84H20.83V12.25C20.83 11.36 20.5 10.58 19.86 9.92999C19.22 9.27999 18.43 8.94999 17.53 8.94999H16.78V6.79999H15.24V8.94999H14.36C13.45 8.94999 12.67 9.27999 12.03 9.91999C11.39 10.56 11.06 11.34 11.06 12.25V13.14C11.06 14.2 11.65 15.34 12.61 15.93C13.08 16.22 13.73 16.35 14.63 16.53C15.01 16.61 15.45 16.69 15.94 16.8C16.37 16.88 16.66 16.95 16.86 16.99C17.05 17.03 17.32 17.1 17.69 17.2C18.04 17.29 18.3 17.38 18.47 17.47C18.64 17.56 18.84 17.66 19.05 17.79C19.24 17.91 19.37 18.04 19.45 18.18C19.53 18.32 19.57 18.49 19.57 18.66V20.32C19.57 20.83 19.39 21.25 19.03 21.62C18.67 21.99 18.24 22.16 17.73 22.16H14.37C13.86 22.16 13.44 21.98 13.08 21.62C12.72 21.26 12.54 20.83 12.54 20.32V19.39H10.99V20.18C10.99 21.1 11.32 21.91 11.98 22.57C12.64 23.23 13.44 23.57 14.37 23.57H15.24V25.87H16.79V23.57H17.73C18.65 23.57 19.45 23.24 20.12 22.58C20.79 21.92 21.12 21.12 21.12 20.19V18.76C21.12 17.7 20.62 16.95 19.51 16.32H19.53Z" fill="black"/>
<path d="M13.44 28.18C7.99 27 3.9 22.14 3.9 16.35C3.9 10.56 7.99 5.69999 13.44 4.51999V3.23999C7.29 4.43999 2.64 9.84999 2.64 16.35C2.64 22.85 7.28 28.27 13.44 29.46V28.18Z" fill="black"/>
<path d="M18.56 3.22998V4.50998C24.01 5.68998 28.1 10.55 28.1 16.34C28.1 22.13 24.01 26.99 18.56 28.17V29.45C24.71 28.25 29.36 22.84 29.36 16.34C29.36 9.83998 24.72 4.41998 18.56 3.22998Z" fill="black"/>
</svg>
