<svg width="33" height="33" viewBox="0 0 33 33" fill="none" xmlns="http://www.w3.org/2000/svg">
<path d="M16.36 32.1C25.2 32.1 32.36 24.94 32.36 16.1C32.36 7.25998 25.2 0.0999756 16.36 0.0999756C7.52 0.0999756 0.360001 7.25998 0.360001 16.1C0.360001 24.94 7.52 32.1 16.36 32.1Z" fill="white"/>
<path fill-rule="evenodd" clip-rule="evenodd" d="M27.63 19.4399L23.15 25.6899C22.44 26.6799 21.08 27.1599 19.3 27.0099C17 26.8199 13.96 25.6099 11.05 23.5199C8.13 21.4299 6.01 18.9299 5.08 16.8199C4.37 15.1799 4.38001 13.7399 5.10001 12.7499L9.57001 6.49995C10.29 5.50995 11.65 5.02995 13.42 5.17995C15.72 5.36995 18.77 6.57995 21.68 8.67995C24.6 10.7699 26.72 13.2699 27.64 15.3799C28.36 17.0199 28.33 18.4599 27.63 19.4499V19.4399ZM10.77 7.35995C11.23 6.71995 12.16 6.54995 13.31 6.64995C15.41 6.81995 18.16 7.95995 20.83 9.86995C23.49 11.7799 25.46 14.0299 26.3 15.9599C26.75 17.0199 26.9 17.9499 26.44 18.5899L21.96 24.8399C21.51 25.4799 20.58 25.6499 19.43 25.5499C17.33 25.3799 14.57 24.2399 11.9 22.3299C9.23999 20.4199 7.27 18.1699 6.44 16.2399C5.98 15.1799 5.84 14.2499 6.3 13.6099L10.77 7.35995Z" fill="white"/>
<path fill-rule="evenodd" clip-rule="evenodd" d="M10.18 7.08C11.64 5.04 16.6 6.09 21.26 9.42C25.91 12.75 28.5 17.12 27.04 19.16L22.57 25.41C21.11 27.45 16.14 26.4 11.48 23.07C6.83 19.74 4.24 15.37 5.7 13.33L10.18 7.08Z" fill="white"/>
<path fill-rule="evenodd" clip-rule="evenodd" d="M9.85 6.70999C10.5 5.79999 11.76 5.39999 13.39 5.52999C15.64 5.70999 18.61 6.91999 21.47 8.95999C24.32 11.01 26.42 13.45 27.31 15.51C27.96 17.01 27.98 18.33 27.33 19.24L22.86 25.49C22.21 26.4 20.94 26.8 19.32 26.67C17.07 26.47 14.09 25.28 11.24 23.23C8.38 21.19 6.29 18.75 5.39 16.69C4.74 15.19 4.71999 13.87 5.36999 12.96L9.85 6.70999ZM26.71 18.79C27.23 18.06 27.12 17 26.61 15.81C25.75 13.85 23.75 11.54 21.01 9.57999C18.29 7.62999 15.45 6.46999 13.32 6.28999C12.02 6.17999 10.99 6.41999 10.47 7.14999L10.45 7.18999C9.96 7.91999 10.07 8.94999 10.58 10.12C11.44 12.09 13.44 14.41 16.17 16.36C18.89 18.31 21.73 19.47 23.86 19.65C25.14 19.75 26.15 19.52 26.68 18.84L26.71 18.79ZM19.75 11.35C21.12 12.33 22.13 13.49 22.55 14.47C22.8 15.02 22.86 15.51 22.62 15.85C22.38 16.19 21.89 16.28 21.3 16.23C20.23 16.14 18.82 15.56 17.45 14.58C16.08 13.6 15.07 12.45 14.65 11.47C14.41 10.92 14.35 10.43 14.59 10.09C14.83 9.74999 15.32 9.65999 15.92 9.69999C16.98 9.79999 18.4 10.37 19.76 11.35H19.75Z" fill="#0E0F22"/>
<path d="M27.52 16.03C27.46 15.85 27.39 15.68 27.32 15.51C26.43 13.45 24.34 11.01 21.48 8.95999C18.62 6.91999 15.64 5.71999 13.4 5.52999C11.77 5.39999 10.51 5.79999 9.86001 6.70999L5.38001 12.96C4.73001 13.87 4.75 15.19 5.4 16.69C5.99 18.05 7.11 19.58 8.62 21.05C8.75 21.04 8.89001 21.02 9.02001 20.99C9.83001 20.81 10.6 20.1 11.37 19.38C12.36 18.46 13.35 17.55 14.39 17.8C15.12 17.96 15.7 18.74 16.3 19.53C16.55 19.87 16.81 20.21 17.08 20.5C17.95 21.5 18.9 21.94 19.87 21.74C20.97 21.52 21.81 20.55 22.6 19.46C20.68 19.02 18.39 17.96 16.18 16.37C13.46 14.42 11.45 12.11 10.59 10.13C10.08 8.95999 9.97001 7.92999 10.46 7.19999L10.48 7.15999C11 6.42999 12.03 6.18999 13.33 6.29999C15.47 6.46999 18.3 7.62999 21.02 9.58999C23.75 11.54 25.76 13.85 26.62 15.81C26.66 15.81 26.71 15.81 26.75 15.81C27.06 15.84 27.31 15.92 27.52 16.03Z" fill="url(#paint0_linear_82_223)"/>
<path d="M22.55 14.47C22.13 13.48 21.12 12.32 19.75 11.35C18.39 10.37 16.97 9.8 15.91 9.7C15.3 9.66 14.81 9.75 14.58 10.09C14.34 10.43 14.41 10.91 14.65 11.47C15.07 12.46 16.08 13.61 17.45 14.58C18.82 15.56 20.23 16.14 21.3 16.23C21.9 16.28 22.38 16.19 22.62 15.85C22.87 15.51 22.8 15.03 22.55 14.47Z" fill="url(#paint1_linear_82_223)"/>
<path fill-rule="evenodd" clip-rule="evenodd" d="M22.78 20.51C23.63 20.65 24.41 20.68 25.06 20.58C25.15 20.57 25.21 20.48 25.2 20.4C25.18 20.31 25.1 20.25 25.02 20.26C24.39 20.37 23.65 20.34 22.84 20.19C22.75 20.18 22.67 20.24 22.66 20.33C22.65 20.42 22.7 20.5 22.79 20.51H22.78ZM21.5 20.23C21.72 20.28 21.92 20.34 22.14 20.38C22.23 20.4 22.31 20.35 22.32 20.26C22.34 20.17 22.29 20.09 22.2 20.06C21.99 20.02 21.79 19.96 21.58 19.91C21.49 19.88 21.4 19.93 21.37 20.02C21.35 20.11 21.4 20.19 21.49 20.23H21.5ZM9.38 9.94998C9.99 12.43 12.37 14.76 14.3 16.41C14.37 16.48 14.47 16.46 14.53 16.4C14.58 16.32 14.58 16.23 14.51 16.17C12.64 14.55 10.3 12.3 9.71001 9.87998C9.69001 9.78998 9.59 9.73998 9.5 9.75998C9.41 9.77998 9.36 9.86998 9.38 9.95998V9.94998ZM9.24001 8.94998C9.24001 9.05998 9.24999 9.17998 9.25999 9.28998C9.26999 9.37998 9.36 9.43998 9.44 9.42998C9.53 9.41998 9.59 9.33998 9.58 9.25998C9.57 9.14998 9.56 9.03998 9.56 8.94998C9.56 8.85998 9.48 8.78998 9.39 8.78998C9.3 8.79998 9.24001 8.87998 9.24001 8.95998V8.94998Z" fill="white"/>
<defs>
<linearGradient id="paint0_linear_82_223" x1="14.2" y1="5.40999" x2="17.23" y2="20.66" gradientUnits="userSpaceOnUse">
<stop stop-color="#56ACE0"/>
<stop offset="0.52" stop-color="#B56FAE"/>
<stop offset="1" stop-color="#E65F9D"/>
</linearGradient>
<linearGradient id="paint1_linear_82_223" x1="16.98" y1="4.86" x2="20.01" y2="20.11" gradientUnits="userSpaceOnUse">
<stop stop-color="#56ACE0"/>
<stop offset="0.52" stop-color="#B56FAE"/>
<stop offset="1" stop-color="#E65F9D"/>
</linearGradient>
</defs>
</svg>
