<svg width="32" height="32" viewBox="0 0 32 32" fill="none" xmlns="http://www.w3.org/2000/svg">
<g clip-path="url(#clip0_298_930)">
<path d="M16 32C24.8366 32 32 24.8366 32 16C32 7.16344 24.8366 0 16 0C7.16344 0 0 7.16344 0 16C0 24.8366 7.16344 32 16 32Z" fill="#428AC9"/>
<path d="M7.49999 8.51C7.49999 7.06 8.58997 5.84 10.04 5.73C12.02 5.58 14.01 5.5 16 5.5C18.27 5.5 20.4 5.62 21.96 5.73C23.41 5.84 24.5 7.06 24.5 8.51C24.5 9.96 23.42 11.17 21.98 11.27C19.99 11.42 17.99 11.49 16 11.5C13.64 11.5 11.54 11.39 10.02 11.27C8.57998 11.16 7.49999 9.95 7.49999 8.51ZM7.45998 16.63C7.54998 15.71 8.36997 15.03 9.28997 15.12C9.29997 15.12 9.31997 15.12 9.32997 15.12C9.65997 15.16 10.05 15.2 10.49 15.26C10.88 15.31 11.23 15.39 11.55 15.49C12.9 15.9 13.5 17.3 13.5 18.71V24.5C13.5 25.33 12.83 26 12 26H10.13C8.70999 26 7.50999 24.99 7.37999 23.58C7.17999 21.27 7.20998 18.94 7.45998 16.63ZM24.28 16.63C24.19 15.71 23.37 15.03 22.45 15.12C22.44 15.12 22.42 15.12 22.41 15.12C22.02 15.16 21.64 15.21 21.25 15.26C20.86 15.31 20.51 15.39 20.19 15.49C18.84 15.9 18.24 17.3 18.24 18.71V24.5C18.24 25.33 18.91 26 19.74 26H21.61C23.03 26 24.23 24.99 24.36 23.58C24.56 21.27 24.54 18.94 24.28 16.63Z" fill="white"/>
</g>
<defs>
<clipPath id="clip0_298_930">
<rect width="32" height="32" fill="white"/>
</clipPath>
</defs>
</svg>
