<svg width="33" height="33" viewBox="0 0 33 33" fill="none" xmlns="http://www.w3.org/2000/svg">
<path d="M16.82 0.380005C7.98001 0.380005 0.820007 7.54 0.820007 16.38C0.820007 25.22 7.98001 32.38 16.82 32.38C25.66 32.38 32.82 25.22 32.82 16.38C32.82 7.54 25.66 0.380005 16.82 0.380005ZM14.32 24.88C14.32 25.71 13.65 26.38 12.82 26.38H10.95C9.53001 26.38 8.33001 25.37 8.20001 23.96C8.00001 21.65 8.03 19.32 8.28 17.01C8.37 16.09 9.18999 15.41 10.11 15.5C10.12 15.5 10.14 15.5 10.15 15.5C10.48 15.54 10.87 15.58 11.31 15.64C11.7 15.69 12.05 15.77 12.37 15.87C13.72 16.28 14.32 17.68 14.32 19.09V24.88ZM25.18 23.95C25.06 25.36 23.85 26.37 22.43 26.37H20.56C19.73 26.37 19.06 25.7 19.06 24.87V19.08C19.06 17.67 19.66 16.27 21.01 15.86C21.33 15.76 21.68 15.68 22.07 15.63C22.46 15.58 22.84 15.53 23.23 15.49C23.24 15.49 23.26 15.49 23.27 15.49C24.19 15.4 25.01 16.08 25.1 17C25.35 19.31 25.38 21.64 25.18 23.95ZM22.8 11.65C20.81 11.8 18.81 11.87 16.82 11.88C14.46 11.88 12.36 11.77 10.84 11.65C9.4 11.54 8.32001 10.33 8.32001 8.89C8.32001 7.45 9.40999 6.22 10.86 6.11C12.84 5.96 14.83 5.88 16.82 5.88C19.09 5.88 21.22 6 22.78 6.11C24.23 6.22 25.32 7.44 25.32 8.89C25.32 10.34 24.24 11.55 22.8 11.65Z" fill="#213147"/>
</svg>
