<svg width="33" height="33" viewBox="0 0 33 33" fill="none" xmlns="http://www.w3.org/2000/svg">
<path d="M16.82 32.07C25.6566 32.07 32.82 24.9066 32.82 16.07C32.82 7.23345 25.6566 0.0700073 16.82 0.0700073C7.98345 0.0700073 0.820007 7.23345 0.820007 16.07C0.820007 24.9066 7.98345 32.07 16.82 32.07Z" fill="#428AC9"/>
<path d="M8.31999 8.58001C8.31999 7.13001 9.40997 5.91001 10.86 5.80001C12.84 5.65001 14.83 5.57001 16.82 5.57001C19.09 5.57001 21.22 5.69001 22.78 5.80001C24.23 5.91001 25.32 7.13001 25.32 8.58001C25.32 10.03 24.24 11.24 22.8 11.34C20.81 11.49 18.81 11.56 16.82 11.57C14.46 11.57 12.36 11.46 10.84 11.34C9.39998 11.23 8.31999 10.02 8.31999 8.58001ZM8.27999 16.7C8.36999 15.78 9.18997 15.1 10.11 15.19C10.12 15.19 10.14 15.19 10.15 15.19C10.48 15.23 10.87 15.27 11.31 15.33C11.7 15.38 12.05 15.46 12.37 15.56C13.72 15.97 14.32 17.37 14.32 18.78V24.57C14.32 25.4 13.65 26.07 12.82 26.07H10.95C9.53 26.07 8.33 25.06 8.2 23.65C8 21.34 8.02999 19.01 8.27999 16.7ZM25.1 16.7C25.01 15.78 24.19 15.1 23.27 15.19C23.26 15.19 23.24 15.19 23.23 15.19C22.84 15.23 22.46 15.28 22.07 15.33C21.68 15.38 21.33 15.46 21.01 15.56C19.66 15.97 19.06 17.37 19.06 18.78V24.57C19.06 25.4 19.73 26.07 20.56 26.07H22.43C23.85 26.07 25.05 25.06 25.18 23.65C25.38 21.34 25.36 19.01 25.1 16.7Z" fill="white"/>
</svg>
