<svg width="32" height="32" viewBox="0 0 32 32" fill="none" xmlns="http://www.w3.org/2000/svg">
<g clip-path="url(#clip0_298_928)">
<path d="M16 0C7.16 0 0 7.16 0 16C0 24.84 7.16 32 16 32C24.84 32 32 24.84 32 16C32 7.16 24.84 0 16 0ZM13.5 24.5C13.5 25.33 12.83 26 12 26H10.13C8.71 26 7.51 24.99 7.38 23.58C7.18 21.27 7.20999 18.94 7.45999 16.63C7.54999 15.71 8.36998 15.03 9.28998 15.12C9.29998 15.12 9.31999 15.12 9.32999 15.12C9.65999 15.16 10.05 15.2 10.49 15.26C10.88 15.31 11.23 15.39 11.55 15.49C12.9 15.9 13.5 17.3 13.5 18.71V24.5ZM24.36 23.57C24.24 24.98 23.03 25.99 21.61 25.99H19.74C18.91 25.99 18.24 25.32 18.24 24.49V18.7C18.24 17.29 18.84 15.89 20.19 15.48C20.51 15.38 20.86 15.3 21.25 15.25C21.64 15.2 22.02 15.15 22.41 15.11C22.42 15.11 22.44 15.11 22.45 15.11C23.37 15.02 24.19 15.7 24.28 16.62C24.53 18.93 24.56 21.26 24.36 23.57ZM21.98 11.27C19.99 11.42 17.99 11.49 16 11.5C13.64 11.5 11.54 11.39 10.02 11.27C8.57999 11.16 7.5 9.95 7.5 8.51C7.5 7.07 8.58998 5.84 10.04 5.73C12.02 5.58 14.01 5.5 16 5.5C18.27 5.5 20.4 5.62 21.96 5.73C23.41 5.84 24.5 7.06 24.5 8.51C24.5 9.96 23.42 11.17 21.98 11.27Z" fill="#213147"/>
</g>
<defs>
<clipPath id="clip0_298_928">
<rect width="32" height="32" fill="white"/>
</clipPath>
</defs>
</svg>
