<svg width="32" height="32" viewBox="0 0 32 32" fill="none" xmlns="http://www.w3.org/2000/svg">
<path d="M16 0C7.2 0 0 7.2 0 16C0 24.8 7.2 32 16 32C24.8 32 32 24.8 32 16C32 7.2 24.8 0 16 0ZM25.6 24.07C25.6 24.91 24.91 25.61 24.06 25.61H7.92999C7.08999 25.61 6.39 24.92 6.39 24.07V7.94C6.39 7.1 7.07999 6.4 7.92999 6.4H24.06C24.9 6.4 25.6 7.09 25.6 7.94V24.07Z" fill="#213147"/>
<path d="M10.14 23.67C10.09 23.67 10.05 23.62 10.05 23.57V20.99C10.05 20.94 10.01 20.89 9.96001 20.89H9.05C9 20.89 8.95 20.85 8.95 20.8V20.3C8.95 20.25 9 20.2 9.05 20.2H11.85C11.9 20.2 11.95 20.25 11.95 20.3V20.8C11.95 20.85 11.9 20.89 11.85 20.89H10.94C10.89 20.89 10.84 20.94 10.84 20.99V23.57C10.84 23.62 10.8 23.67 10.75 23.67H10.13H10.14ZM14.75 20.31C14.75 20.26 14.79 20.21 14.84 20.21H15.45C15.5 20.21 15.55 20.26 15.55 20.31V22.07C15.55 23.11 14.96 23.72 14.02 23.72C13.08 23.72 12.5 23.11 12.5 22.07V20.31C12.5 20.26 12.54 20.21 12.59 20.21H13.2C13.25 20.21 13.3 20.26 13.3 20.31V22.1C13.3 22.61 13.56 22.98 14.02 22.98C14.48 22.98 14.74 22.61 14.74 22.1V20.31H14.75ZM18.35 21.34C18.27 21.34 18.24 21.31 18.21 21.25C18.1 21 17.87 20.84 17.51 20.84C17.19 20.84 16.92 20.95 16.92 21.17C16.92 21.4 17.17 21.5 17.72 21.57C18.55 21.67 19.03 21.92 19.03 22.58C19.03 23.32 18.38 23.71 17.54 23.71C16.82 23.71 16.2 23.36 16.1 22.62C16.09 22.55 16.13 22.52 16.2 22.52H16.76C16.83 22.52 16.87 22.55 16.89 22.61C16.97 22.85 17.23 23.04 17.6 23.04C17.93 23.04 18.22 22.92 18.22 22.66C18.22 22.35 17.91 22.29 17.3 22.22C16.6 22.13 16.11 21.92 16.11 21.28C16.11 20.64 16.66 20.17 17.53 20.17C18.31 20.17 18.86 20.59 18.97 21.22C18.99 21.29 18.97 21.34 18.89 21.34H18.33H18.35ZM19.73 23.67C19.68 23.67 19.64 23.62 19.64 23.57V20.3C19.64 20.25 19.68 20.2 19.73 20.2H21.11C22.14 20.2 22.94 20.91 22.94 21.94C22.94 22.97 22.15 23.66 21.11 23.66H19.73V23.67ZM21.11 22.98C21.66 22.98 22.1 22.54 22.1 21.94C22.1 21.34 21.67 20.9 21.11 20.9H20.54C20.49 20.9 20.45 20.95 20.45 21V22.9C20.45 22.95 20.49 22.99 20.54 22.99H21.12L21.11 22.98Z" fill="#213147"/>
<path d="M7.92999 6.66C7.22999 6.66 6.64999 7.24 6.64999 7.94V18.05C6.64999 18.19 6.77 18.31 6.91 18.31H25.09C25.23 18.31 25.35 18.19 25.35 18.05V7.94C25.35 7.24 24.77 6.66 24.07 6.66H7.92999ZM19.97 10.66C19.97 10.77 19.88 10.85 19.78 10.85H17.03V16.03C17.03 16.14 16.94 16.22 16.84 16.22H15.18C15.07 16.22 14.99 16.13 14.99 16.03V10.85H12.24C12.13 10.85 12.05 10.76 12.05 10.66V9C12.05 8.89 12.14 8.81 12.24 8.81H19.79C19.9 8.81 19.98 8.9 19.98 9V10.66H19.97Z" fill="#213147"/>
</svg>
