<svg width="33" height="32" viewBox="0 0 33 32" fill="none" xmlns="http://www.w3.org/2000/svg">
<path d="M16.36 32C7.56 32 0.360001 24.8 0.360001 16C0.360001 7.2 7.56 0 16.36 0C25.16 0 32.36 7.2 32.36 16C32.36 24.8 25.16 32 16.36 32Z" fill="#0C2764"/>
<path d="M24.42 25.6H8.28999C7.44999 25.6 6.75 24.91 6.75 24.06V7.93999C6.75 7.09999 7.43999 6.39999 8.28999 6.39999H24.42C25.26 6.39999 25.96 7.08999 25.96 7.93999V24.07C25.96 24.91 25.27 25.61 24.42 25.61V25.6Z" fill="white"/>
<path d="M10.5 23.67C10.45 23.67 10.41 23.62 10.41 23.57V20.99C10.41 20.94 10.37 20.89 10.32 20.89H9.41C9.36 20.89 9.31 20.85 9.31 20.8V20.3C9.31 20.25 9.36 20.2 9.41 20.2H12.21C12.26 20.2 12.31 20.25 12.31 20.3V20.8C12.31 20.85 12.26 20.89 12.21 20.89H11.3C11.25 20.89 11.2 20.94 11.2 20.99V23.57C11.2 23.62 11.16 23.67 11.11 23.67H10.49H10.5ZM15.11 20.3C15.11 20.25 15.15 20.2 15.2 20.2H15.81C15.86 20.2 15.91 20.25 15.91 20.3V22.06C15.91 23.1 15.32 23.71 14.38 23.71C13.44 23.71 12.86 23.1 12.86 22.06V20.3C12.86 20.25 12.9 20.2 12.95 20.2H13.56C13.61 20.2 13.66 20.25 13.66 20.3V22.09C13.66 22.6 13.92 22.97 14.38 22.97C14.84 22.97 15.1 22.6 15.1 22.09V20.3H15.11ZM18.71 21.34C18.63 21.34 18.6 21.31 18.57 21.25C18.46 21 18.23 20.84 17.87 20.84C17.55 20.84 17.28 20.95 17.28 21.17C17.28 21.4 17.53 21.5 18.08 21.57C18.91 21.67 19.39 21.92 19.39 22.58C19.39 23.32 18.74 23.71 17.9 23.71C17.18 23.71 16.56 23.36 16.46 22.62C16.45 22.55 16.49 22.52 16.56 22.52H17.12C17.19 22.52 17.23 22.55 17.25 22.61C17.33 22.85 17.59 23.04 17.96 23.04C18.29 23.04 18.58 22.92 18.58 22.66C18.58 22.35 18.27 22.29 17.66 22.22C16.96 22.13 16.47 21.92 16.47 21.28C16.47 20.64 17.02 20.17 17.89 20.17C18.67 20.17 19.22 20.59 19.33 21.22C19.35 21.29 19.33 21.34 19.25 21.34H18.69H18.71ZM20.09 23.67C20.04 23.67 20 23.62 20 23.57V20.3C20 20.25 20.04 20.2 20.09 20.2H21.47C22.5 20.2 23.3 20.91 23.3 21.94C23.3 22.97 22.51 23.66 21.47 23.66H20.09V23.67ZM21.47 22.98C22.02 22.98 22.46 22.54 22.46 21.94C22.46 21.34 22.03 20.9 21.47 20.9H20.9C20.85 20.9 20.81 20.95 20.81 21V22.9C20.81 22.95 20.85 22.99 20.9 22.99H21.48L21.47 22.98Z" fill="#0C2764"/>
<path d="M25.45 18.3H7.27C7.13 18.3 7.00999 18.18 7.00999 18.04V7.94C7.00999 7.24 7.58999 6.66 8.28999 6.66H24.42C25.12 6.66 25.7 7.24 25.7 7.94V18.05C25.7 18.19 25.58 18.31 25.44 18.31L25.45 18.3Z" fill="#0C2764"/>
<path d="M20.13 8.8H12.58C12.47 8.8 12.39 8.89 12.39 8.99V10.65C12.39 10.76 12.48 10.84 12.58 10.84H15.33V16.02C15.33 16.13 15.42 16.21 15.52 16.21H17.18C17.29 16.21 17.37 16.12 17.37 16.02V10.84H20.12C20.23 10.84 20.31 10.75 20.31 10.65V8.99C20.31 8.88 20.22 8.8 20.12 8.8H20.13Z" fill="white"/>
</svg>
