<svg width="33" height="33" viewBox="0 0 33 33" fill="none" xmlns="http://www.w3.org/2000/svg">
<path d="M16.36 0.320007C7.56 0.320007 0.360001 7.52001 0.360001 16.32C0.360001 25.12 7.56 32.32 16.36 32.32C25.16 32.32 32.36 25.12 32.36 16.32C32.36 7.52001 25.16 0.320007 16.36 0.320007ZM25.96 24.39C25.96 25.23 25.27 25.93 24.42 25.93H8.28999C7.44999 25.93 6.75 25.24 6.75 24.39V8.26001C6.75 7.42001 7.43999 6.72001 8.28999 6.72001H24.42C25.26 6.72001 25.96 7.41001 25.96 8.26001V24.39Z" fill="#213147"/>
<path d="M10.5 23.99C10.45 23.99 10.41 23.94 10.41 23.89V21.31C10.41 21.26 10.37 21.21 10.32 21.21H9.41C9.36 21.21 9.31 21.17 9.31 21.12V20.62C9.31 20.57 9.36 20.52 9.41 20.52H12.21C12.26 20.52 12.31 20.57 12.31 20.62V21.12C12.31 21.17 12.26 21.21 12.21 21.21H11.3C11.25 21.21 11.2 21.26 11.2 21.31V23.89C11.2 23.94 11.16 23.99 11.11 23.99H10.49H10.5ZM15.11 20.63C15.11 20.58 15.15 20.53 15.2 20.53H15.81C15.86 20.53 15.91 20.58 15.91 20.63V22.39C15.91 23.43 15.32 24.04 14.38 24.04C13.44 24.04 12.86 23.43 12.86 22.39V20.63C12.86 20.58 12.9 20.53 12.95 20.53H13.56C13.61 20.53 13.66 20.58 13.66 20.63V22.42C13.66 22.93 13.92 23.3 14.38 23.3C14.84 23.3 15.1 22.93 15.1 22.42V20.63H15.11ZM18.71 21.66C18.63 21.66 18.6 21.63 18.57 21.57C18.46 21.32 18.23 21.16 17.87 21.16C17.55 21.16 17.28 21.27 17.28 21.49C17.28 21.72 17.53 21.82 18.08 21.89C18.91 21.99 19.39 22.24 19.39 22.9C19.39 23.64 18.74 24.03 17.9 24.03C17.18 24.03 16.56 23.68 16.46 22.94C16.45 22.87 16.49 22.84 16.56 22.84H17.12C17.19 22.84 17.23 22.87 17.25 22.93C17.33 23.17 17.59 23.36 17.96 23.36C18.29 23.36 18.58 23.24 18.58 22.98C18.58 22.67 18.27 22.61 17.66 22.54C16.96 22.45 16.47 22.24 16.47 21.6C16.47 20.96 17.02 20.49 17.89 20.49C18.67 20.49 19.22 20.91 19.33 21.54C19.35 21.61 19.33 21.66 19.25 21.66H18.69H18.71ZM20.09 23.99C20.04 23.99 20 23.94 20 23.89V20.62C20 20.57 20.04 20.52 20.09 20.52H21.47C22.5 20.52 23.3 21.23 23.3 22.26C23.3 23.29 22.51 23.98 21.47 23.98H20.09V23.99ZM21.47 23.3C22.02 23.3 22.46 22.86 22.46 22.26C22.46 21.66 22.03 21.22 21.47 21.22H20.9C20.85 21.22 20.81 21.27 20.81 21.32V23.22C20.81 23.27 20.85 23.31 20.9 23.31H21.48L21.47 23.3Z" fill="#213147"/>
<path d="M24.42 6.98001H8.28999C7.58999 6.98001 7.00999 7.56001 7.00999 8.26001V18.37C7.00999 18.51 7.13 18.63 7.27 18.63H25.45C25.59 18.63 25.71 18.51 25.71 18.37V8.26001C25.71 7.56001 25.13 6.98001 24.43 6.98001H24.42ZM20.33 10.98C20.33 11.09 20.24 11.17 20.14 11.17H17.39V16.35C17.39 16.46 17.3 16.54 17.2 16.54H15.54C15.43 16.54 15.35 16.45 15.35 16.35V11.17H12.6C12.49 11.17 12.41 11.08 12.41 10.98V9.32001C12.41 9.21001 12.5 9.13001 12.6 9.13001H20.15C20.26 9.13001 20.34 9.22001 20.34 9.32001V10.98H20.33Z" fill="#213147"/>
</svg>
