<svg width="32" height="32" viewBox="0 0 32 32" fill="none" xmlns="http://www.w3.org/2000/svg">
<g clip-path="url(#clip0_297_141)">
<path d="M16 32C7.2 32 0 24.8 0 16C0 7.2 7.2 0 16 0C24.8 0 32 7.2 32 16C32 24.8 24.8 32 16 32Z" fill="#0C2764"/>
<path d="M24.06 25.6H7.92999C7.08999 25.6 6.39 24.91 6.39 24.06V7.94C6.39 7.1 7.07999 6.4 7.92999 6.4H24.06C24.9 6.4 25.6 7.09 25.6 7.94V24.07C25.6 24.91 24.91 25.61 24.06 25.61V25.6Z" fill="white"/>
<path d="M10.14 23.67C10.09 23.67 10.05 23.62 10.05 23.57V20.99C10.05 20.94 10.01 20.89 9.96001 20.89H9.05C9 20.89 8.95 20.85 8.95 20.8V20.3C8.95 20.25 9 20.2 9.05 20.2H11.85C11.9 20.2 11.95 20.25 11.95 20.3V20.8C11.95 20.85 11.9 20.89 11.85 20.89H10.94C10.89 20.89 10.84 20.94 10.84 20.99V23.57C10.84 23.62 10.8 23.67 10.75 23.67H10.13H10.14ZM14.75 20.3C14.75 20.25 14.79 20.2 14.84 20.2H15.45C15.5 20.2 15.55 20.25 15.55 20.3V22.06C15.55 23.1 14.96 23.71 14.02 23.71C13.08 23.71 12.5 23.1 12.5 22.06V20.3C12.5 20.25 12.54 20.2 12.59 20.2H13.2C13.25 20.2 13.3 20.25 13.3 20.3V22.09C13.3 22.6 13.56 22.97 14.02 22.97C14.48 22.97 14.74 22.6 14.74 22.09V20.3H14.75ZM18.35 21.34C18.27 21.34 18.24 21.31 18.21 21.25C18.1 21 17.87 20.84 17.51 20.84C17.19 20.84 16.92 20.95 16.92 21.17C16.92 21.4 17.17 21.5 17.72 21.57C18.55 21.67 19.03 21.92 19.03 22.58C19.03 23.32 18.38 23.71 17.54 23.71C16.82 23.71 16.2 23.36 16.1 22.62C16.09 22.55 16.13 22.52 16.2 22.52H16.76C16.83 22.52 16.87 22.55 16.89 22.61C16.97 22.85 17.23 23.04 17.6 23.04C17.93 23.04 18.22 22.92 18.22 22.66C18.22 22.35 17.91 22.29 17.3 22.22C16.6 22.13 16.11 21.92 16.11 21.28C16.11 20.64 16.66 20.17 17.53 20.17C18.31 20.17 18.86 20.59 18.97 21.22C18.99 21.29 18.97 21.34 18.89 21.34H18.33H18.35ZM19.73 23.67C19.68 23.67 19.64 23.62 19.64 23.57V20.3C19.64 20.25 19.68 20.2 19.73 20.2H21.11C22.14 20.2 22.94 20.91 22.94 21.94C22.94 22.97 22.15 23.66 21.11 23.66H19.73V23.67ZM21.11 22.98C21.66 22.98 22.1 22.54 22.1 21.94C22.1 21.34 21.67 20.9 21.11 20.9H20.54C20.49 20.9 20.45 20.95 20.45 21V22.9C20.45 22.95 20.49 22.99 20.54 22.99H21.12L21.11 22.98Z" fill="#0C2764"/>
<path d="M25.09 18.3H6.91C6.77 18.3 6.64999 18.18 6.64999 18.04V7.94C6.64999 7.24 7.22999 6.66 7.92999 6.66H24.06C24.76 6.66 25.34 7.24 25.34 7.94V18.05C25.34 18.19 25.22 18.31 25.08 18.31L25.09 18.3Z" fill="#0C2764"/>
<path d="M19.77 8.8H12.22C12.11 8.8 12.03 8.89 12.03 8.99V10.65C12.03 10.76 12.12 10.84 12.22 10.84H14.97V16.02C14.97 16.13 15.06 16.21 15.16 16.21H16.82C16.93 16.21 17.01 16.12 17.01 16.02V10.84H19.76C19.87 10.84 19.95 10.75 19.95 10.65V8.99C19.95 8.88 19.86 8.8 19.76 8.8H19.77Z" fill="white"/>
</g>
<defs>
<clipPath id="clip0_297_141">
<rect width="32" height="32" fill="white"/>
</clipPath>
</defs>
</svg>
