<svg width="33" height="33" viewBox="0 0 33 33" fill="none" xmlns="http://www.w3.org/2000/svg">
<path d="M8.14999 19.81C8.14999 19.86 8.17999 19.9 8.24999 19.94C8.35999 20 8.36999 20.06 8.27999 20.19C8.18999 20.32 8.2 20.44 8.3 20.52C8.46 20.65 8.7 20.58 8.82 20.36C8.95 20.13 8.87999 19.85 8.66999 19.7C8.46999 19.57 8.14999 19.63 8.14999 19.8V19.81Z" fill="#213147"/>
<path d="M13.53 14.49C13.53 14.64 13.79 14.81 14.03 14.81C14.2 14.81 14.36 14.74 14.47 14.62C14.57 14.48 14.53 14.32 14.35 14.21C14.02 14.01 13.52 14.18 13.52 14.49H13.53Z" fill="#213147"/>
<path d="M16.27 0.700012C7.43 0.700012 0.269989 7.86001 0.269989 16.7C0.269989 25.54 7.43 32.7 16.27 32.7C25.11 32.7 32.27 25.54 32.27 16.7C32.27 7.86001 25.11 0.700012 16.27 0.700012ZM21.02 9.80001C21.44 9.96001 21.52 9.98001 21.57 9.96001C21.6 9.95001 21.62 9.85001 21.64 9.55001C21.64 9.19001 21.72 8.84001 21.85 8.51001C21.88 8.44001 21.91 8.37001 21.95 8.31001C21.95 8.37001 21.93 8.43001 21.9 8.49001C21.8 8.84001 21.79 9.20001 21.86 9.55001C21.94 10.09 21.98 10.17 22.56 10.76C22.83 11.03 23.14 11.38 23.25 11.53L23.46 11.8L23.25 11.61C22.95 11.33 22.63 11.08 22.29 10.85C22.2 10.81 22.19 10.81 22.14 10.85C22.09 10.9 22.08 10.97 22.07 11.32C22.06 11.86 21.99 12.2 21.81 12.55C21.71 12.74 21.7 12.7 21.79 12.49C21.85 12.33 21.86 12.26 21.86 11.74C21.86 10.69 21.74 10.44 21.01 10.01C20.83 9.90001 20.52 9.74001 20.34 9.66001C20.23 9.61001 20.12 9.56001 20.01 9.50001C20.36 9.57001 20.7 9.67001 21.03 9.80001H21.02ZM12.52 7.97001C12.9 7.95001 13.28 7.98001 13.65 8.07001C14.51 8.28001 15.3 8.80001 16.14 9.73001L16.36 9.98001L16.68 9.93001C17.98 9.71001 19.32 9.88001 20.53 10.41C20.84 10.55 21.13 10.72 21.4 10.92C21.44 11.03 21.47 11.14 21.48 11.26C21.56 11.82 21.52 12.25 21.35 12.58C21.26 12.76 21.25 12.81 21.31 12.96C21.37 13.09 21.5 13.17 21.64 13.17C21.92 13.17 22.23 12.71 22.37 12.07L22.43 11.82L22.54 11.95C23.15 12.64 23.63 13.59 23.71 14.26L23.73 14.43L23.63 14.27C23.48 14.03 23.28 13.82 23.05 13.66C22.64 13.39 22.21 13.3 21.06 13.24C20.02 13.19 19.44 13.1 18.85 12.91C17.86 12.59 17.36 12.16 16.19 10.61C15.84 10.12 15.45 9.66001 15.02 9.24001C14.29 8.55001 13.57 8.18001 12.66 8.04001C12.41 8.00001 12.4 8.00001 12.52 7.98001V7.97001ZM19.34 16.99C19.31 16.82 19.27 16.65 19.22 16.48L19.16 16.3L19.27 16.43C19.44 16.64 19.57 16.87 19.66 17.13C19.74 17.36 19.75 17.43 19.75 17.8C19.75 18.17 19.74 18.24 19.67 18.45C19.57 18.75 19.39 19.03 19.17 19.25C18.73 19.69 18.17 19.94 17.36 20.04C17.22 20.06 16.81 20.09 16.45 20.11C15.54 20.16 14.94 20.25 14.4 20.44C14.35 20.46 14.3 20.47 14.25 20.48C14.23 20.46 14.59 20.24 14.9 20.09C15.33 19.88 15.75 19.77 16.7 19.61C17.17 19.53 17.65 19.44 17.78 19.4C18.94 19.04 19.54 18.12 19.35 16.98L19.34 16.99ZM13.69 15.6C13.35 15.6 13.23 15.56 13.1 15.39C13.02 15.28 12.99 14.94 13.04 14.75C13.13 14.42 13.38 14.16 13.7 14.03C13.95 13.98 14.21 14 14.44 14.1C14.79 14.28 15.04 14.68 14.98 14.96C14.91 15.31 14.34 15.59 13.69 15.6ZM12.42 8.51001L12.54 8.53001C12.81 8.59001 13.07 8.69001 13.31 8.82001C13.79 9.11001 14 9.50001 14.22 10.5C14.28 10.79 14.36 11.12 14.4 11.23C14.53 11.54 14.69 11.83 14.88 12.1C15.01 12.3 14.93 12.39 14.63 12.36C14.18 12.32 13.56 11.89 13.17 11.35C12.66 10.65 12.34 9.57001 12.41 8.76001L12.43 8.51001H12.42ZM8.50999 23.05C8.50999 22.92 8.35 22.6 8.07 22.17C7.82 21.82 7.62999 21.44 7.49999 21.03C7.36999 20.65 7.30999 20.25 7.33999 19.84C7.33999 19.5 7.41999 19.17 7.57999 18.88C7.71999 18.61 7.79999 18.49 8.33999 17.81C9.25999 16.66 9.59 15.99 9.71 15.04C9.82 14.19 9.95999 13.78 10.29 13.42C10.49 13.2 10.53 13.12 10.53 12.96C10.53 12.88 10.22 12.3 9.28999 10.64C8.30999 8.88668 7.83333 8.02334 7.85999 8.05001C7.85999 8.05001 8.55999 9.11001 9.36999 10.37C10.43 12.02 10.89 12.71 11.01 12.81C11.17 12.96 11.37 13.05 11.59 13.06C11.83 13.04 12.06 12.98 12.28 12.87C12.58 12.7 12.65 12.48 12.47 12.23C12.26 11.93 10.87 10.76 8.05999 7.35001C7.82999 7.07001 7.63999 6.83001 7.64999 6.83001C7.67999 6.83001 12.59 11.33 13.16 11.98L13.32 12.16V12.44C13.3 12.78 13.15 13.1 12.89 13.32C12.57 13.62 12.18 13.78 11.56 13.86C11.18 13.91 11.05 13.97 10.89 14.14C10.74 14.3 10.69 14.5 10.65 15.01C10.59 15.8 10.5 16.13 10.12 16.91C9.75999 17.66 9.68999 17.95 9.74999 18.35C9.82999 18.84 10.1 19.2 10.76 19.64C11.26 19.98 11.48 20.2 11.61 20.46C11.69 20.62 11.7 20.68 11.69 20.96C11.69 21.39 11.62 21.56 11.32 21.88C10.84 22.39 10 22.8 8.96 23.04C8.52 23.14 8.50999 23.14 8.50999 23.04V23.05ZM20.07 25.85C19.8 25.99 19.5 26.07 19.2 26.06C18.62 26.06 18.13 25.76 17.73 25.16C17.58 24.9 17.45 24.64 17.33 24.37C16.9 23.4 16.69 23.1 16.2 22.78C15.78 22.5 15.25 22.45 14.8 22.65C14.34 22.86 14.15 23.4 14.36 23.86C14.39 23.93 14.44 24 14.49 24.07C14.67 24.26 14.91 24.39 15.18 24.43C15.58 24.48 15.95 24.2 16 23.8C16 23.77 16 23.73 16 23.7C16 23.41 15.89 23.24 15.6 23.11C15.21 22.94 14.8 23.14 14.8 23.5C14.8 23.65 14.89 23.78 15.02 23.82C15.12 23.87 15.12 23.87 15.04 23.85C14.69 23.78 14.6 23.35 14.89 23.07C15.23 22.73 15.94 22.88 16.18 23.35C16.28 23.61 16.29 23.9 16.2 24.17C16 24.69 15.42 24.97 14.83 24.82C14.43 24.72 14.27 24.61 13.78 24.11C12.94 23.24 12.61 23.08 11.4 22.89L11.17 22.85L11.43 22.63C12.32 21.88 13.42 21.35 14.43 21.19C14.95 21.12 15.47 21.14 15.99 21.25C16.63 21.41 17.21 21.78 17.51 22.22C17.8 22.65 17.93 23.02 18.06 23.86C18.11 24.19 18.17 24.52 18.18 24.59C18.28 25.02 18.47 25.37 18.7 25.54C19.08 25.81 19.72 25.83 20.36 25.58C20.43 25.55 20.5 25.53 20.57 25.52C20.59 25.54 20.27 25.76 20.05 25.87L20.07 25.85ZM24.16 21.94C23.93 22.92 23.3 23.76 22.42 24.25C22.34 24.3 22.25 24.34 22.17 24.38C22.19 24.29 22.23 24.2 22.27 24.12C22.56 23.54 22.6 22.86 22.37 22.25C22.23 21.84 21.96 21.35 21.4 20.51C20.75 19.54 20.59 19.28 20.43 18.94C20.11 18.26 20.04 17.6 20.21 16.98C20.23 16.91 20.26 16.86 20.28 16.86C20.34 16.88 20.4 16.91 20.45 16.95C20.6 17.05 20.89 17.21 21.67 17.64C22.65 18.17 23.2 18.58 23.58 19.05C23.92 19.47 24.13 19.97 24.22 20.5C24.27 20.98 24.25 21.46 24.16 21.93V21.94ZM24.88 18.62C24.8 18.92 24.55 19.47 24.49 19.49C24.47 19.49 24.45 19.43 24.45 19.33C24.41 18.8 24.16 18.31 23.75 17.97C23.26 17.55 22.61 17.22 21.02 16.58C18.63 15.62 17.79 14.78 17.79 13.37C17.79 13.24 17.79 13.12 17.81 12.99C17.88 13.04 17.95 13.09 18.02 13.14C18.5 13.53 19.05 13.69 20.55 13.91C21.43 14.04 21.93 14.14 22.39 14.3C23.85 14.78 24.75 15.77 24.97 17.1C25.03 17.6 25 18.11 24.9 18.6L24.88 18.62Z" fill="#213147"/>
</svg>
