<svg width="33" height="33" viewBox="0 0 33 33" fill="none" xmlns="http://www.w3.org/2000/svg">
<path d="M16.27 32.1C25.1066 32.1 32.27 24.9365 32.27 16.1C32.27 7.26342 25.1066 0.0999756 16.27 0.0999756C7.43344 0.0999756 0.269989 7.26342 0.269989 16.1C0.269989 24.9365 7.43344 32.1 16.27 32.1Z" fill="white"/>
<path d="M16.27 32.1C15.19 32.1 14.11 31.99 13.05 31.78C9.97999 31.15 7.17 29.63 4.96 27.42C3.5 25.96 2.33999 24.23 1.52999 22.33C1.11999 21.36 0.809989 20.36 0.599989 19.33C0.169989 17.2 0.169989 15.01 0.599989 12.88C1.01999 10.83 1.83998 8.88998 3.00998 7.15998C4.74998 4.58998 7.18999 2.56998 10.05 1.35998C11.02 0.949983 12.02 0.639983 13.05 0.429983C15.18 -1.71065e-05 17.37 -1.71065e-05 19.5 0.429983C21.55 0.849983 23.49 1.66998 25.22 2.83998C27.79 4.57998 29.81 7.01998 31.02 9.87998C31.43 10.85 31.74 11.85 31.95 12.88C32.38 15.01 32.38 17.2 31.95 19.33C31.53 21.38 30.71 23.32 29.54 25.05C27.8 27.62 25.36 29.64 22.5 30.85C21.53 31.26 20.53 31.57 19.5 31.78C18.44 32 17.36 32.11 16.28 32.1H16.27ZM16.27 0.469983C15.21 0.469983 14.16 0.579983 13.12 0.789983C11.12 1.19998 9.21999 1.99998 7.52999 3.13998C5.01999 4.83998 3.04999 7.21998 1.86999 10.01C1.46999 10.96 1.16999 11.94 0.959989 12.94C0.539989 15.02 0.539989 17.16 0.959989 19.24C1.36999 21.24 2.16999 23.14 3.30999 24.83C5.00999 27.34 7.38998 29.31 10.18 30.49C11.13 30.89 12.11 31.19 13.11 31.4C15.19 31.82 17.33 31.82 19.41 31.4C21.41 30.99 23.31 30.19 25 29.05C27.51 27.35 29.48 24.97 30.66 22.18C31.06 21.23 31.36 20.25 31.57 19.25C31.99 17.17 31.99 15.03 31.57 12.95C31.16 10.95 30.36 9.04998 29.22 7.35998C27.52 4.84998 25.14 2.87998 22.35 1.69998C21.4 1.29998 20.42 0.999983 19.42 0.789983C18.38 0.579983 17.33 0.469983 16.27 0.469983Z" fill="#E9337A"/>
<path d="M12.67 7.43C12.42 7.39 12.41 7.39 12.53 7.37C12.91 7.35 13.29 7.38 13.66 7.47C14.52 7.68 15.31 8.2 16.15 9.13L16.37 9.38L16.69 9.33C17.99 9.11 19.33 9.28 20.54 9.81C20.85 9.95 21.14 10.12 21.41 10.32C21.45 10.43 21.48 10.54 21.49 10.66C21.57 11.22 21.53 11.65 21.36 11.98C21.27 12.15 21.26 12.21 21.32 12.36C21.38 12.49 21.51 12.57 21.65 12.57C21.93 12.57 22.24 12.11 22.38 11.47L22.44 11.22L22.55 11.35C23.16 12.04 23.64 12.99 23.72 13.66L23.74 13.83L23.64 13.67C23.49 13.43 23.29 13.22 23.06 13.06C22.65 12.79 22.22 12.7 21.07 12.64C20.03 12.59 19.45 12.5 18.86 12.31C17.87 11.99 17.37 11.56 16.2 10.01C15.85 9.52 15.46 9.06 15.03 8.64C14.3 7.95 13.58 7.58 12.67 7.44V7.43Z" fill="#E9337A"/>
<path d="M21.64 8.95997C21.64 8.59997 21.72 8.24997 21.85 7.91997C21.88 7.84997 21.91 7.77997 21.95 7.71997C21.95 7.77997 21.93 7.83997 21.9 7.89997C21.8 8.24997 21.79 8.60997 21.86 8.95997C21.94 9.49997 21.98 9.57997 22.56 10.17C22.83 10.44 23.14 10.79 23.25 10.94L23.46 11.21L23.25 11.02C22.95 10.74 22.63 10.49 22.29 10.26C22.2 10.22 22.19 10.22 22.14 10.26C22.09 10.31 22.08 10.38 22.07 10.73C22.06 11.27 21.99 11.61 21.81 11.96C21.71 12.15 21.7 12.11 21.79 11.9C21.85 11.74 21.86 11.67 21.86 11.15C21.86 10.1 21.74 9.84997 21.01 9.41997C20.83 9.30997 20.52 9.14997 20.34 9.06997C20.23 9.01997 20.12 8.96997 20.01 8.90997C20.36 8.97997 20.7 9.07997 21.03 9.20997C21.45 9.36997 21.53 9.38997 21.58 9.36997C21.61 9.35997 21.63 9.25997 21.65 8.95997H21.64Z" fill="#E9337A"/>
<path d="M13.16 10.75C12.65 10.05 12.33 8.96997 12.4 8.15997L12.42 7.90997L12.54 7.92997C12.81 7.98997 13.07 8.08997 13.31 8.21997C13.79 8.50997 14 8.89997 14.22 9.89997C14.28 10.19 14.36 10.52 14.4 10.63C14.53 10.94 14.69 11.23 14.88 11.5C15.01 11.7 14.93 11.79 14.63 11.76C14.18 11.72 13.56 11.29 13.17 10.75H13.16Z" fill="#E9337A"/>
<path d="M21.02 15.99C18.63 15.03 17.79 14.19 17.79 12.78C17.79 12.65 17.79 12.53 17.81 12.4C17.88 12.45 17.95 12.5 18.02 12.55C18.5 12.94 19.05 13.1 20.55 13.32C21.43 13.45 21.93 13.55 22.39 13.71C23.85 14.19 24.75 15.18 24.97 16.51C25.03 17.01 25 17.52 24.9 18.01C24.82 18.31 24.58 18.86 24.51 18.88C24.49 18.88 24.47 18.82 24.47 18.72C24.43 18.19 24.18 17.7 23.77 17.36C23.28 16.94 22.63 16.61 21.04 15.97L21.02 15.99Z" fill="#E9337A"/>
<path d="M19.34 16.39C19.31 16.22 19.27 16.05 19.22 15.88L19.16 15.7L19.27 15.83C19.44 16.04 19.57 16.27 19.66 16.53C19.74 16.76 19.75 16.83 19.75 17.2C19.75 17.57 19.74 17.64 19.67 17.85C19.57 18.15 19.39 18.43 19.17 18.65C18.73 19.09 18.17 19.34 17.36 19.44C17.22 19.46 16.81 19.49 16.45 19.51C15.54 19.56 14.94 19.65 14.4 19.84C14.35 19.86 14.3 19.87 14.25 19.88C14.23 19.86 14.59 19.64 14.9 19.49C15.33 19.28 15.75 19.17 16.7 19.01C17.17 18.93 17.65 18.84 17.78 18.8C18.94 18.44 19.54 17.52 19.35 16.38L19.34 16.39Z" fill="#E9337A"/>
<path d="M20.44 18.34C20.12 17.66 20.05 17 20.22 16.38C20.24 16.31 20.27 16.26 20.29 16.26C20.35 16.28 20.41 16.31 20.46 16.35C20.61 16.45 20.9 16.61 21.68 17.04C22.66 17.57 23.21 17.98 23.59 18.45C23.93 18.87 24.14 19.37 24.22 19.9C24.27 20.38 24.25 20.86 24.16 21.33C23.93 22.31 23.3 23.15 22.42 23.64C22.34 23.69 22.25 23.73 22.17 23.77C22.19 23.68 22.23 23.59 22.27 23.51C22.56 22.93 22.6 22.25 22.37 21.64C22.23 21.23 21.96 20.74 21.4 19.9C20.75 18.93 20.59 18.67 20.43 18.33L20.44 18.34Z" fill="#E9337A"/>
<path d="M11.46 22.02C12.35 21.27 13.45 20.74 14.46 20.58C14.98 20.51 15.5 20.53 16.02 20.64C16.66 20.8 17.24 21.17 17.54 21.61C17.83 22.04 17.96 22.41 18.09 23.25C18.14 23.58 18.2 23.91 18.21 23.98C18.31 24.41 18.5 24.76 18.73 24.93C19.11 25.2 19.75 25.22 20.39 24.97C20.46 24.94 20.53 24.92 20.6 24.91C20.62 24.93 20.3 25.15 20.08 25.26C19.81 25.4 19.51 25.48 19.21 25.47C18.63 25.47 18.14 25.17 17.74 24.57C17.59 24.31 17.46 24.05 17.34 23.78C16.91 22.81 16.7 22.51 16.21 22.19C15.79 21.91 15.26 21.86 14.81 22.06C14.35 22.27 14.16 22.81 14.37 23.27C14.4 23.34 14.45 23.41 14.5 23.48C14.68 23.67 14.92 23.8 15.19 23.84C15.59 23.89 15.96 23.61 16.01 23.21C16.01 23.18 16.01 23.14 16.01 23.11C16.01 22.82 15.9 22.65 15.61 22.52C15.22 22.35 14.81 22.55 14.81 22.91C14.81 23.06 14.9 23.19 15.03 23.23C15.13 23.28 15.13 23.28 15.05 23.26C14.7 23.19 14.61 22.76 14.9 22.48C15.24 22.14 15.95 22.29 16.19 22.75C16.29 23.01 16.3 23.3 16.21 23.57C16.01 24.09 15.43 24.37 14.84 24.22C14.44 24.12 14.28 24.01 13.79 23.51C12.95 22.64 12.62 22.48 11.41 22.29L11.18 22.25L11.44 22.03L11.46 22.02Z" fill="#E9337A"/>
<path fill-rule="evenodd" clip-rule="evenodd" d="M8.05999 6.76C10.87 10.17 12.25 11.34 12.47 11.64C12.65 11.89 12.58 12.11 12.28 12.28C12.06 12.39 11.83 12.46 11.59 12.47C11.37 12.47 11.17 12.37 11.01 12.22C10.9 12.11 10.44 11.42 9.36998 9.78C8.55998 8.52 7.87999 7.47 7.85999 7.46C7.85999 7.46 8.33665 8.32333 9.28998 10.05C10.21 11.7 10.53 12.29 10.53 12.37C10.53 12.53 10.49 12.61 10.29 12.83C9.95998 13.19 9.82 13.6 9.71 14.45C9.59 15.4 9.25998 16.07 8.33998 17.22C7.79998 17.89 7.70999 18.02 7.57999 18.29C7.41999 18.59 7.33998 18.92 7.33998 19.25C7.30998 19.65 7.36999 20.06 7.49999 20.44C7.62999 20.85 7.83 21.23 8.07 21.58C8.35 22.01 8.50998 22.34 8.50998 22.46C8.50998 22.56 8.53 22.56 8.96 22.46C10 22.23 10.85 21.81 11.32 21.3C11.61 20.99 11.68 20.81 11.69 20.38C11.69 20.1 11.69 20.04 11.61 19.88C11.49 19.62 11.26 19.4 10.76 19.06C10.11 18.62 9.82998 18.26 9.75998 17.77C9.69998 17.37 9.76999 17.08 10.13 16.33C10.5 15.55 10.59 15.22 10.66 14.43C10.7 13.92 10.76 13.72 10.9 13.56C11.05 13.39 11.19 13.34 11.57 13.28C12.18 13.2 12.58 13.04 12.9 12.74C13.16 12.52 13.31 12.2 13.31 11.86V11.58L13.17 11.4C12.6 10.74 7.69999 6.25 7.65999 6.25C7.65999 6.25 7.84 6.48 8.07 6.77L8.05999 6.76ZM8.82 19.76C8.95 19.53 8.87999 19.25 8.66999 19.1C8.46999 18.97 8.14998 19.03 8.14998 19.2C8.14998 19.25 8.17999 19.29 8.24999 19.33C8.35999 19.39 8.36999 19.45 8.27999 19.58C8.18999 19.71 8.19999 19.83 8.29999 19.91C8.45999 20.04 8.7 19.97 8.82 19.75V19.76Z" fill="#E9337A"/>
<path fill-rule="evenodd" clip-rule="evenodd" d="M13.7 13.43C13.38 13.55 13.14 13.82 13.04 14.14C12.99 14.34 13.02 14.68 13.1 14.78C13.23 14.95 13.35 15 13.69 14.99C14.35 14.99 14.92 14.7 14.98 14.35C15.03 14.06 14.78 13.66 14.44 13.49C14.21 13.39 13.95 13.37 13.7 13.42V13.43ZM14.47 14.03C14.57 13.89 14.53 13.73 14.35 13.63C14.02 13.43 13.53 13.6 13.53 13.9C13.53 14.05 13.79 14.22 14.03 14.22C14.2 14.22 14.36 14.15 14.47 14.03Z" fill="#E9337A"/>
</svg>
