<svg width="33" height="33" viewBox="0 0 33 33" fill="none" xmlns="http://www.w3.org/2000/svg">
<path d="M16.54 0.0700073C25.38 0.0700073 32.54 7.23001 32.54 16.07C32.54 24.91 25.38 32.07 16.54 32.07C7.69999 32.07 0.539993 24.91 0.539993 16.07C0.539993 7.24001 7.70999 0.0700073 16.54 0.0700073Z" fill="#2151F4"/>
<path fill-rule="evenodd" clip-rule="evenodd" d="M15.69 4.95001V10.84C13.71 11.14 12.56 12.43 12.56 13.98C12.56 15.96 13.86 16.79 15.7 17.11L16.82 17.31C17.86 17.49 18.36 17.63 18.36 18.39C18.36 19.15 17.8 19.7 16.61 19.7C15.42 19.7 14.71 19.18 14.71 18.13H12.35C12.35 19.9 13.67 21.17 15.71 21.44V23.48H17.55V21.42C19.48 21.11 20.72 19.91 20.72 18.19C20.72 16.1 19.27 15.37 17.48 15.09L16.41 14.92C15.46 14.77 14.93 14.55 14.93 13.78C14.93 13.17 15.38 12.58 16.53 12.58C17.68 12.58 18.22 13.16 18.22 13.94H20.58C20.55 12.46 19.5 11.18 17.55 10.86V4.97001C23.25 5.49001 27.71 10.28 27.71 16.11C27.71 22.29 22.7 27.3 16.52 27.3C10.34 27.3 5.33 22.29 5.33 16.11C5.33 10.22 9.89 5.39001 15.67 4.95001H15.69Z" fill="white"/>
</svg>
