<svg width="33" height="33" viewBox="0 0 33 33" fill="none" xmlns="http://www.w3.org/2000/svg">
<path d="M16.54 0.469971C7.69999 0.469971 0.539993 7.62997 0.539993 16.47C0.539993 25.31 7.69999 32.47 16.54 32.47C25.38 32.47 32.54 25.31 32.54 16.47C32.54 7.62997 25.38 0.469971 16.54 0.469971ZM16.54 27.69C10.36 27.69 5.35001 22.68 5.35001 16.5C5.35001 10.32 9.91 5.77997 15.69 5.33997V11.23C13.71 11.53 12.56 12.82 12.56 14.37C12.56 16.35 13.86 17.18 15.7 17.5L16.82 17.7C17.86 17.88 18.36 18.02 18.36 18.78C18.36 19.54 17.8 20.09 16.61 20.09C15.42 20.09 14.71 19.57 14.71 18.52H12.35C12.35 20.29 13.67 21.56 15.71 21.83V23.87H17.55V21.81C19.48 21.5 20.72 20.3 20.72 18.58C20.72 16.49 19.27 15.76 17.48 15.48L16.41 15.31C15.46 15.16 14.93 14.94 14.93 14.17C14.93 13.56 15.38 12.97 16.53 12.97C17.68 12.97 18.22 13.55 18.22 14.33H20.58C20.55 12.85 19.5 11.57 17.55 11.25V5.35997C23.25 5.87997 27.71 10.67 27.71 16.5C27.71 22.68 22.7 27.69 16.52 27.69H16.54Z" fill="#213147"/>
</svg>
