<svg width="32" height="32" viewBox="0 0 32 32" fill="none" xmlns="http://www.w3.org/2000/svg">
<g clip-path="url(#clip0_298_899)">
<path d="M16 0C7.16 0 0 7.16 0 16C0 24.84 7.16 32 16 32C24.84 32 32 24.84 32 16C32 7.16 24.84 0 16 0ZM16 27.22C9.82 27.22 4.81001 22.21 4.81001 16.03C4.81001 9.85 9.37001 5.31 15.15 4.87V10.76C13.17 11.06 12.02 12.35 12.02 13.9C12.02 15.88 13.32 16.71 15.16 17.03L16.28 17.23C17.32 17.41 17.82 17.55 17.82 18.31C17.82 19.07 17.26 19.62 16.07 19.62C14.88 19.62 14.17 19.1 14.17 18.05H11.81C11.81 19.82 13.13 21.09 15.17 21.36V23.4H17.01V21.34C18.94 21.03 20.18 19.83 20.18 18.11C20.18 16.02 18.73 15.29 16.94 15.01L15.87 14.84C14.92 14.69 14.39 14.47 14.39 13.7C14.39 13.09 14.84 12.5 15.99 12.5C17.14 12.5 17.68 13.08 17.68 13.86H20.04C20.01 12.38 18.96 11.1 17.01 10.78V4.89C22.71 5.41 27.17 10.2 27.17 16.03C27.17 22.21 22.16 27.22 15.98 27.22H16Z" fill="#213147"/>
</g>
<defs>
<clipPath id="clip0_298_899">
<rect width="32" height="32" fill="white"/>
</clipPath>
</defs>
</svg>
