<svg width="32" height="32" viewBox="0 0 32 32" fill="none" xmlns="http://www.w3.org/2000/svg">
<g clip-path="url(#clip0_298_783)">
<path d="M13.2 22.8C9.43004 21.28 7.61004 16.99 9.13004 13.22C9.88004 11.37 11.35 9.90002 13.2 9.15002C13.55 9.01002 13.78 8.67002 13.78 8.29002V8.06002C13.78 7.83002 13.6 7.64001 13.36 7.64001C13.31 7.64001 13.26 7.64002 13.22 7.66002C9.62 8.85002 7.19003 12.21 7.19003 16C7.19003 19.78 9.61003 23.13 13.19 24.33H13.33C13.58 24.33 13.78 24.13 13.78 23.88V23.67C13.78 23.29 13.55 22.95 13.2 22.8Z" fill="#213147"/>
<path d="M18.81 7.67999H18.66C18.4 7.67999 18.19 7.88999 18.19 8.14999V8.29999C18.19 8.68999 18.44 9.04999 18.8 9.19999C22.57 10.73 24.38 15.02 22.85 18.79C22.1 20.63 20.64 22.09 18.8 22.84C18.44 23 18.21 23.34 18.2 23.73V23.9C18.2 24.16 18.42 24.37 18.68 24.36C18.73 24.36 18.78 24.36 18.82 24.34C22.4 23.14 24.81 19.78 24.81 16C24.81 12.23 22.39 8.87999 18.81 7.67999Z" fill="#213147"/>
<path d="M19.33 17.73C19.33 16.46 18.6 15.73 16.87 15.36L15.87 15.14C14.87 14.89 14.4 14.56 14.4 14C14.4 13.44 15 12.82 16 12.82C16.64 12.75 17.27 13.07 17.59 13.63C17.72 13.91 18 14.09 18.31 14.09H18.78C19 14.04 19.14 13.81 19.09 13.59C18.81 12.48 17.85 11.67 16.71 11.59V10.9C16.71 10.51 16.39 10.2 16.01 10.2C15.63 10.2 15.3 10.52 15.3 10.9V11.64C13.97 11.71 12.91 12.78 12.85 14.11C12.85 15.32 13.59 16.11 15.16 16.44L16.26 16.7C17.33 16.95 17.77 17.31 17.77 17.92C17.77 18.53 17 19.13 16 19.13C15.28 19.2 14.58 18.84 14.2 18.22C14.09 17.98 13.85 17.83 13.59 17.83H13C12.81 17.87 12.68 18.05 12.72 18.24C13.02 19.45 14.09 20.3 15.33 20.32V21.16C15.33 21.55 15.65 21.87 16.03 21.87C16.41 21.87 16.74 21.55 16.74 21.16V20.31C18.16 20.29 19.31 19.15 19.33 17.73Z" fill="#213147"/>
<path d="M16 0C7.16003 0 0 7.16 0 16C0 24.84 7.16003 32 16 32C24.84 32 32 24.84 32 16C32 7.16 24.84 0 16 0ZM16 27.75C9.51003 27.75 4.25 22.49 4.25 16C4.25 9.51 9.51003 4.25 16 4.25C22.49 4.25 27.75 9.51 27.75 16C27.75 22.49 22.49 27.75 16 27.75Z" fill="#213147"/>
</g>
<defs>
<clipPath id="clip0_298_783">
<rect width="32" height="32" fill="white"/>
</clipPath>
</defs>
</svg>
