<svg width="33" height="33" viewBox="0 0 33 33" fill="none" xmlns="http://www.w3.org/2000/svg">
<path d="M13.28 23.78C9.51 22.26 7.68999 17.97 9.20999 14.2C9.95999 12.35 11.43 10.88 13.28 10.13C13.63 9.99 13.86 9.65 13.86 9.27V9.04C13.86 8.81 13.68 8.62 13.44 8.62C13.39 8.62 13.34 8.62 13.3 8.64C9.69996 9.83 7.26999 13.19 7.26999 16.98C7.26999 20.76 9.68999 24.11 13.27 25.31H13.4099C13.6599 25.31 13.86 25.11 13.86 24.86V24.65C13.86 24.27 13.63 23.93 13.28 23.78Z" fill="#213147"/>
<path d="M18.89 8.65997H18.74C18.48 8.65997 18.27 8.86997 18.27 9.12997V9.27997C18.27 9.66997 18.52 10.03 18.88 10.18C22.65 11.71 24.46 16 22.93 19.77C22.18 21.61 20.72 23.07 18.88 23.82C18.52 23.98 18.29 24.32 18.28 24.71V24.88C18.28 25.14 18.5 25.35 18.76 25.34C18.81 25.34 18.86 25.34 18.9 25.32C22.48 24.12 24.89 20.76 24.89 16.98C24.89 13.21 22.47 9.85997 18.89 8.65997Z" fill="#213147"/>
<path d="M19.4099 18.71C19.4099 17.44 18.68 16.71 16.95 16.34L15.95 16.12C14.95 15.87 14.4799 15.54 14.4799 14.98C14.4799 14.42 15.08 13.8 16.08 13.8C16.72 13.73 17.3499 14.05 17.6699 14.61C17.7999 14.89 18.08 15.07 18.39 15.07H18.8599C19.0799 15.02 19.2199 14.79 19.1699 14.57C18.8899 13.46 17.9299 12.65 16.7899 12.57V11.88C16.7899 11.49 16.47 11.18 16.09 11.18C15.71 11.18 15.38 11.5 15.38 11.88V12.62C14.05 12.69 12.9899 13.76 12.9299 15.09C12.9299 16.3 13.6699 17.09 15.2399 17.42L16.34 17.68C17.41 17.93 17.8499 18.29 17.8499 18.9C17.8499 19.51 17.08 20.11 16.08 20.11C15.36 20.18 14.66 19.82 14.28 19.2C14.17 18.96 13.9299 18.81 13.6699 18.81H13.08C12.89 18.85 12.7599 19.03 12.7999 19.22C13.0999 20.43 14.1699 21.28 15.4099 21.3V22.14C15.4099 22.53 15.7299 22.85 16.1099 22.85C16.4899 22.85 16.82 22.53 16.82 22.14V21.29C18.24 21.27 19.3899 20.13 19.4099 18.71Z" fill="#213147"/>
<path d="M16.08 0.97998C7.23999 0.97998 0.0799561 8.13998 0.0799561 16.98C0.0799561 25.82 7.23999 32.98 16.08 32.98C24.92 32.98 32.08 25.82 32.08 16.98C32.08 8.13998 24.92 0.97998 16.08 0.97998ZM16.08 28.73C9.58999 28.73 4.32996 23.47 4.32996 16.98C4.32996 10.49 9.58999 5.22998 16.08 5.22998C22.57 5.22998 27.83 10.49 27.83 16.98C27.83 23.47 22.57 28.73 16.08 28.73Z" fill="#213147"/>
</svg>
