<svg width="33" height="33" viewBox="0 0 33 33" fill="none" xmlns="http://www.w3.org/2000/svg">
<path d="M16.08 32.1C24.9165 32.1 32.08 24.9365 32.08 16.1C32.08 7.26342 24.9165 0.0999756 16.08 0.0999756C7.24343 0.0999756 0.0799561 7.26342 0.0799561 16.1C0.0799561 24.9365 7.24343 32.1 16.08 32.1Z" fill="#3E73C2"/>
<path d="M16.08 27.85C9.58999 27.85 4.32996 22.59 4.32996 16.1C4.32996 9.60998 9.58999 4.34998 16.08 4.34998C22.57 4.34998 27.83 9.60998 27.83 16.1C27.83 22.59 22.57 27.85 16.08 27.85ZM15.38 11.74C14.05 11.81 12.99 12.88 12.93 14.21C12.93 15.42 13.67 16.21 15.24 16.54L16.34 16.8C17.41 17.05 17.8499 17.41 17.8499 18.02C17.8499 18.63 17.08 19.23 16.08 19.23C15.36 19.3 14.66 18.94 14.28 18.32C14.17 18.08 13.93 17.93 13.67 17.93H13.08C12.89 17.97 12.76 18.15 12.8 18.34C13.1 19.55 14.1699 20.4 15.4099 20.42V21.26C15.4099 21.65 15.73 21.96 16.11 21.96C16.49 21.96 16.81 21.64 16.81 21.26V20.41C18.23 20.39 19.38 19.25 19.4 17.83C19.4 16.56 18.67 15.83 16.94 15.46L15.94 15.24C14.94 14.99 14.4699 14.66 14.4699 14.1C14.4699 13.54 15.07 12.92 16.07 12.92C16.71 12.85 17.3399 13.17 17.6599 13.73C17.7899 14.01 18.07 14.19 18.38 14.19H18.8499C19.0699 14.14 19.2099 13.91 19.1599 13.69C18.8799 12.58 17.92 11.77 16.78 11.69V11C16.78 10.61 16.46 10.3 16.08 10.3C15.7 10.3 15.38 10.62 15.38 11V11.74ZM7.26999 16.1C7.26999 19.88 9.68999 23.23 13.27 24.43H13.4099C13.6599 24.43 13.86 24.23 13.86 23.98V23.77C13.86 23.39 13.63 23.05 13.28 22.9C9.51 21.38 7.68999 17.09 9.20999 13.32C9.95999 11.47 11.43 9.99998 13.28 9.24998C13.63 9.10998 13.86 8.76998 13.86 8.38998V8.15998C13.86 7.92998 13.68 7.73998 13.44 7.73998C13.39 7.73998 13.34 7.73998 13.3 7.75998C9.69996 8.94998 7.26999 12.31 7.26999 16.1ZM24.89 16.1C24.89 12.33 22.47 8.97998 18.89 7.77998H18.74C18.48 7.77998 18.27 7.98998 18.27 8.24998V8.39998C18.27 8.78998 18.52 9.14998 18.88 9.29998C22.65 10.83 24.46 15.12 22.93 18.89C22.18 20.73 20.72 22.2 18.88 22.94C18.52 23.1 18.29 23.44 18.28 23.83V24C18.28 24.26 18.5 24.47 18.76 24.46C18.81 24.46 18.86 24.46 18.9 24.44C22.48 23.24 24.89 19.88 24.89 16.1Z" fill="white"/>
</svg>
