<svg width="32" height="33" viewBox="0 0 32 33" fill="none" xmlns="http://www.w3.org/2000/svg">
<path d="M29.68 24.75C31.15 22.33 32 19.49 32 16.45C32 7.60995 24.84 0.449951 16 0.449951C7.16 0.449951 0 7.60995 0 16.45C0 19.47 0.839997 22.29 2.29 24.7L15.51 1.77995V10.45L7.93 24.25C6.34 24.83 4.85 25.5699 3.5 26.4499C6.43 30.1099 10.94 32.4599 16 32.4599C21.06 32.4599 25.56 30.1099 28.5 26.4499C27.13 25.5499 25.62 24.8 24 24.22L16.44 10.45V1.77995L29.69 24.75H29.68ZM20.42 23.2599C19 22.9999 17.52 22.86 16 22.86C14.48 22.86 13 22.9999 11.58 23.2599L16 15.5999L20.42 23.2599Z" fill="#213147"/>
</svg>
