<svg width="32" height="33" viewBox="0 0 32 33" fill="none" xmlns="http://www.w3.org/2000/svg">
<path d="M16 32.1C24.84 32.1 32 24.94 32 16.1C32 7.25998 24.84 0.0999756 16 0.0999756C7.16 0.0999756 0 7.25998 0 16.1C0 24.94 7.16 32.1 16 32.1Z" fill="#4AA259"/>
<path d="M16 32.1C24.84 32.1 32 24.94 32 16.1C32 7.25998 24.84 0.0999756 16 0.0999756C7.16 0.0999756 0 7.25998 0 16.1C0 24.94 7.16 32.1 16 32.1Z" fill="url(#paint0_radial_82_260)"/>
<path d="M16 32.1C24.84 32.1 32 24.94 32 16.1C32 7.25998 24.84 0.0999756 16 0.0999756C7.16 0.0999756 0 7.25998 0 16.1C0 24.94 7.16 32.1 16 32.1Z" fill="url(#paint1_radial_82_260)"/>
<path d="M16 32.1C24.84 32.1 32 24.94 32 16.1C32 7.25998 24.84 0.0999756 16 0.0999756C7.16 0.0999756 0 7.25998 0 16.1C0 24.94 7.16 32.1 16 32.1Z" fill="url(#paint2_radial_82_260)"/>
<path d="M18.89 14.86H17.53V10.87H23.46V8.41997H17.53V4.58997H14.48V8.42997H13.19C10.41 8.42997 8.08 9.82997 8.08 12.91C8.08 15.6 10.12 17.29 13.12 17.29H14.48V21.28H8.55V23.73H14.48V27.56H17.53V23.72H18.82C21.61 23.72 23.93 22.32 23.93 19.24C23.93 16.55 21.89 14.86 18.89 14.86ZM14.47 17.29V14.86H13.5C12.2 14.86 11.15 14.31 11.15 12.86C11.15 11.41 12.15 10.88 13.57 10.88H14.48V14.87H17.53V17.3H14.48L14.47 17.29ZM18.43 21.28H17.52V17.29H18.49C19.79 17.29 20.84 17.84 20.84 19.29C20.84 20.74 19.84 21.28 18.42 21.28H18.43Z" fill="white"/>
<defs>
<radialGradient id="paint0_radial_82_260" cx="0" cy="0" r="1" gradientUnits="userSpaceOnUse" gradientTransform="translate(1.7162 24.6206) scale(26.0897 26.0897)">
<stop offset="0.09" stop-color="#215130"/>
<stop offset="1" stop-color="#215130" stop-opacity="0"/>
</radialGradient>
<radialGradient id="paint1_radial_82_260" cx="0" cy="0" r="1" gradientUnits="userSpaceOnUse" gradientTransform="translate(26.0893 29.4355) rotate(-97.18) scale(26.091 26.091)">
<stop offset="0.09" stop-color="#4AA259"/>
<stop offset="1" stop-color="#4AA259" stop-opacity="0"/>
</radialGradient>
<radialGradient id="paint2_radial_82_260" cx="0" cy="0" r="1" gradientUnits="userSpaceOnUse" gradientTransform="translate(31.414 6.02797) scale(21.6619 21.6619)">
<stop offset="0.1" stop-color="#99CE52"/>
<stop offset="1" stop-color="#99CE52" stop-opacity="0"/>
</radialGradient>
</defs>
</svg>
