<svg width="32" height="33" viewBox="0 0 32 33" fill="none" xmlns="http://www.w3.org/2000/svg">
<path d="M17.53 21.58H18.44C19.85 21.58 20.86 21.03 20.86 19.59C20.86 18.15 19.81 17.59 18.51 17.59H17.54V15.17H14.49V17.59H17.54V21.58H17.53Z" fill="#213147"/>
<path d="M11.15 13.1601C11.15 14.6101 12.2 15.1601 13.5 15.1601H14.47V11.1801H13.56C12.15 11.1801 11.14 11.7301 11.14 13.1601H11.15Z" fill="#213147"/>
<path d="M16 0.400024C7.16 0.400024 0 7.56002 0 16.4C0 25.24 7.16 32.4 16 32.4C24.84 32.4 32 25.24 32 16.4C32 7.56002 24.84 0.400024 16 0.400024ZM18.82 24.01H17.53V27.85H14.48V24.02H8.55V21.57H14.48V17.58H13.12C10.12 17.58 8.08 15.89 8.08 13.2C8.08 10.12 10.41 8.72002 13.19 8.72002H14.48V4.88002H17.53V8.71002H23.46V11.16H17.53V15.15H18.89C21.89 15.15 23.93 16.84 23.93 19.53C23.93 22.61 21.61 24.01 18.82 24.01Z" fill="#213147"/>
</svg>
