<svg width="32" height="32" viewBox="0 0 32 32" fill="none" xmlns="http://www.w3.org/2000/svg">
<g clip-path="url(#clip0_298_500)">
<path d="M16 32C24.84 32 32 24.84 32 16C32 7.16 24.84 0 16 0C7.16 0 0 7.16 0 16C0 24.84 7.16 32 16 32Z" fill="#4AA259"/>
<path d="M16 32C24.84 32 32 24.84 32 16C32 7.16 24.84 0 16 0C7.16 0 0 7.16 0 16C0 24.84 7.16 32 16 32Z" fill="url(#paint0_radial_298_500)"/>
<path d="M16 32C24.84 32 32 24.84 32 16C32 7.16 24.84 0 16 0C7.16 0 0 7.16 0 16C0 24.84 7.16 32 16 32Z" fill="url(#paint1_radial_298_500)"/>
<path d="M16 32C24.84 32 32 24.84 32 16C32 7.16 24.84 0 16 0C7.16 0 0 7.16 0 16C0 24.84 7.16 32 16 32Z" fill="url(#paint2_radial_298_500)"/>
<path d="M18.89 14.76H17.53V10.77H23.46V8.32H17.53V4.49H14.48V8.33H13.19C10.41 8.33 8.08 9.73 8.08 12.81C8.08 15.5 10.12 17.19 13.12 17.19H14.48V21.18H8.55V23.63H14.48V27.46H17.53V23.62H18.82C21.61 23.62 23.93 22.22 23.93 19.14C23.93 16.45 21.89 14.76 18.89 14.76ZM14.47 17.19V14.76H13.5C12.2 14.76 11.15 14.21 11.15 12.76C11.15 11.31 12.15 10.78 13.57 10.78H14.48V14.77H17.53V17.2H14.48L14.47 17.19ZM18.43 21.18H17.52V17.19H18.49C19.79 17.19 20.84 17.74 20.84 19.19C20.84 20.64 19.84 21.18 18.42 21.18H18.43Z" fill="white"/>
</g>
<defs>
<radialGradient id="paint0_radial_298_500" cx="0" cy="0" r="1" gradientUnits="userSpaceOnUse" gradientTransform="translate(1.7162 24.5206) scale(26.0897 26.0897)">
<stop offset="0.09" stop-color="#215130"/>
<stop offset="1" stop-color="#215130" stop-opacity="0"/>
</radialGradient>
<radialGradient id="paint1_radial_298_500" cx="0" cy="0" r="1" gradientUnits="userSpaceOnUse" gradientTransform="translate(26.0893 29.3355) rotate(-97.18) scale(26.091 26.091)">
<stop offset="0.09" stop-color="#4AA259"/>
<stop offset="1" stop-color="#4AA259" stop-opacity="0"/>
</radialGradient>
<radialGradient id="paint2_radial_298_500" cx="0" cy="0" r="1" gradientUnits="userSpaceOnUse" gradientTransform="translate(31.414 5.928) scale(21.6619 21.6619)">
<stop offset="0.1" stop-color="#99CE52"/>
<stop offset="1" stop-color="#99CE52" stop-opacity="0"/>
</radialGradient>
<clipPath id="clip0_298_500">
<rect width="32" height="32" fill="white"/>
</clipPath>
</defs>
</svg>
