<svg width="32" height="32" viewBox="0 0 32 32" fill="none" xmlns="http://www.w3.org/2000/svg">
<g clip-path="url(#clip0_298_498)">
<path d="M17.53 21.18H18.44C19.85 21.18 20.86 20.63 20.86 19.19C20.86 17.75 19.81 17.19 18.51 17.19H17.54V14.77H14.49V17.19H17.54V21.18H17.53Z" fill="#213147"/>
<path d="M11.15 12.76C11.15 14.21 12.2 14.76 13.5 14.76H14.47V10.78H13.56C12.15 10.78 11.14 11.33 11.14 12.76H11.15Z" fill="#213147"/>
<path d="M16 0C7.16 0 0 7.16 0 16C0 24.84 7.16 32 16 32C24.84 32 32 24.84 32 16C32 7.16 24.84 0 16 0ZM18.82 23.61H17.53V27.45H14.48V23.62H8.55V21.17H14.48V17.18H13.12C10.12 17.18 8.08 15.49 8.08 12.8C8.08 9.72 10.41 8.32 13.19 8.32H14.48V4.48H17.53V8.31H23.46V10.76H17.53V14.75H18.89C21.89 14.75 23.93 16.44 23.93 19.13C23.93 22.21 21.61 23.61 18.82 23.61Z" fill="#213147"/>
</g>
<defs>
<clipPath id="clip0_298_498">
<rect width="32" height="32" fill="white"/>
</clipPath>
</defs>
</svg>
