<svg width="33" height="33" viewBox="0 0 33 33" fill="none" xmlns="http://www.w3.org/2000/svg">
<path fill-rule="evenodd" clip-rule="evenodd" d="M18.19 14.38V17.02C18.08 17.03 17.47 17.08 16.26 17.08C15.25 17.08 14.53 17.04 14.27 17.02V14.38C10.38 14.55 7.48 15.23 7.48 16.04C7.48 16.85 10.38 17.53 14.27 17.7C14.52 17.7 15.23 17.74 16.24 17.74C17.51 17.74 18.07 17.71 18.18 17.7C22.06 17.53 24.95 16.86 24.95 16.05C24.95 15.24 22.06 14.57 18.18 14.39L18.19 14.38Z" fill="#213147"/>
<path fill-rule="evenodd" clip-rule="evenodd" d="M16.27 0.309998C7.42999 0.309998 0.269989 7.47 0.269989 16.31C0.269989 25.15 7.42999 32.31 16.27 32.31C25.11 32.31 32.27 25.15 32.27 16.31C32.27 7.47 25.11 0.309998 16.27 0.309998ZM18.19 18.34V25.92H14.28V18.34C9.87999 18.14 6.56999 17.27 6.56999 16.22C6.56999 15.17 9.87999 14.3 14.28 14.1V11.74H8.87V8.13H23.61V11.74H18.2V14.11C22.59 14.31 25.89 15.18 25.89 16.23C25.89 17.28 22.59 18.14 18.2 18.35L18.19 18.34Z" fill="#213147"/>
</svg>
