<svg width="33" height="33" viewBox="0 0 33 33" fill="none" xmlns="http://www.w3.org/2000/svg">
<path d="M16.27 32.07C25.1065 32.07 32.27 24.9066 32.27 16.07C32.27 7.23345 25.1065 0.0700073 16.27 0.0700073C7.43343 0.0700073 0.269989 7.23345 0.269989 16.07C0.269989 24.9066 7.43343 32.07 16.27 32.07Z" fill="#509E7D"/>
<path fill-rule="evenodd" clip-rule="evenodd" d="M18.19 17.46C18.08 17.46 17.51 17.5 16.25 17.5C15.24 17.5 14.53 17.47 14.28 17.46C10.39 17.29 7.49 16.62 7.49 15.81C7.49 15 10.39 14.32 14.28 14.15V16.79C14.53 16.81 15.26 16.85 16.27 16.85C17.48 16.85 18.08 16.8 18.2 16.79V14.15C22.08 14.32 24.97 15 24.97 15.81C24.97 16.62 22.07 17.29 18.2 17.47M18.19 13.87V11.5H23.6V7.89001H8.86V11.5H14.27V13.86C9.87 14.06 6.56 14.93 6.56 15.98C6.56 17.03 9.87 17.9 14.27 18.1V25.68H18.18V18.1C22.57 17.9 25.87 17.03 25.87 15.98C25.87 14.93 22.57 14.07 18.18 13.86" fill="white"/>
</svg>
