<svg width="32" height="33" viewBox="0 0 32 33" fill="none" xmlns="http://www.w3.org/2000/svg">
<path fill-rule="evenodd" clip-rule="evenodd" d="M16 32.5C7.32 32.5 0.25 25.43 0.25 16.75C0.25 8.07 7.32 1 16 1C24.68 1 31.75 8.07 31.75 16.75C31.75 25.43 24.68 32.5 16 32.5Z" fill="white"/>
<path d="M16 1.25C24.55 1.25 31.5 8.2 31.5 16.75C31.5 25.3 24.55 32.25 16 32.25C7.45 32.25 0.5 25.3 0.5 16.75C0.5 8.2 7.45 1.25 16 1.25ZM16 0.75C7.16 0.75 0 7.91 0 16.75C0 25.59 7.16 32.75 16 32.75C24.84 32.75 32 25.59 32 16.75C32 7.91 24.84 0.75 16 0.75Z" fill="#383D51"/>
<path d="M19.31 23.11H23.76C24.42 23.11 24.75 23.11 24.94 22.98C25.15 22.84 25.29 22.61 25.3 22.36C25.31 22.14 25.15 21.86 24.84 21.33C24.83 21.31 24.82 21.29 24.81 21.27L22.58 17.46L22.55 17.42C22.24 16.89 22.08 16.62 21.88 16.52C21.66 16.41 21.39 16.41 21.17 16.52C20.97 16.63 20.8 16.91 20.47 17.47L18.25 21.28C17.92 21.85 17.76 22.13 17.77 22.36C17.79 22.61 17.92 22.84 18.13 22.98C18.32 23.11 18.65 23.11 19.31 23.11Z" fill="black"/>
<path d="M19.28 12.89C19.37 12.53 19.37 12.16 19.28 11.8C19.2 11.47 19.02 11.16 18.67 10.54L17.09 7.77003C16.76 7.20003 16.6 6.91003 16.39 6.80003C16.17 6.69003 15.9 6.69003 15.67 6.80003C15.46 6.91003 15.3 7.19003 14.97 7.77003L7.3 21.28C6.98 21.85 6.82 22.13 6.83 22.36C6.85 22.61 6.98 22.84 7.19 22.98C7.39 23.11 7.71 23.11 8.36 23.11H11.47C12.2 23.11 12.57 23.11 12.89 23.02C13.25 22.91 13.57 22.73 13.85 22.47C14.1 22.23 14.28 21.92 14.63 21.3V21.28L18.67 14.16C19.03 13.54 19.2 13.22 19.28 12.89Z" fill="black"/>
</svg>
