<svg width="32" height="33" viewBox="0 0 32 33" fill="none" xmlns="http://www.w3.org/2000/svg">
<path fill-rule="evenodd" clip-rule="evenodd" d="M16 0.659912C7.16 0.659912 0 7.81991 0 16.6599C0 25.4999 7.16 32.6599 16 32.6599C24.84 32.6599 32 25.4999 32 16.6599C32 7.81991 24.84 0.659912 16 0.659912ZM14.64 21.1899V21.2099C14.27 21.8299 14.1 22.1499 13.85 22.3799C13.58 22.6399 13.25 22.8299 12.89 22.9299C12.56 23.0199 12.2 23.0199 11.47 23.0199H8.36C7.71 23.0199 7.39 23.0199 7.19 22.8899C6.98 22.7499 6.85 22.5199 6.83 22.2699C6.82 22.0399 6.98 21.7599 7.3 21.1899L14.97 7.67991C15.3 7.10991 15.46 6.81991 15.67 6.70991C15.89 6.59991 16.16 6.59991 16.39 6.70991C16.6 6.81991 16.76 7.09991 17.09 7.67991L18.67 10.4299C19.02 11.0599 19.2 11.3699 19.28 11.6999C19.37 12.0599 19.37 12.4299 19.28 12.7899C19.2 13.1199 19.02 13.4299 18.67 14.0599L14.64 21.1799V21.1899ZM24.94 22.8999C24.74 23.0299 24.41 23.0299 23.76 23.0299H19.31C18.65 23.0299 18.32 23.0299 18.13 22.8999C17.92 22.7599 17.79 22.5299 17.77 22.2799C17.76 22.0499 17.92 21.7699 18.25 21.2099L20.47 17.3799C20.8 16.8199 20.96 16.5399 21.17 16.4299C21.39 16.3199 21.66 16.3199 21.88 16.4299C22.08 16.5299 22.24 16.7999 22.55 17.3299L22.58 17.3699L24.81 21.1799C24.81 21.1799 24.83 21.2199 24.84 21.2399C25.15 21.7699 25.31 22.0499 25.3 22.2699C25.29 22.5199 25.15 22.7499 24.94 22.8899V22.8999ZM30.13 16.6599C30.13 24.4699 23.8 30.7899 16 30.7899C8.2 30.7899 1.87 24.4599 1.87 16.6599C1.87 8.85991 8.2 2.52991 16 2.52991C23.8 2.52991 30.13 8.85991 30.13 16.6599ZM29.31 16.6599C29.31 24.0099 23.35 29.9699 16 29.9699C8.65 29.9699 2.69 24.0099 2.69 16.6599C2.69 9.30991 8.65 3.34991 16 3.34991C23.35 3.34991 29.31 9.30991 29.31 16.6599Z" fill="#213147"/>
</svg>
