<svg width="32" height="32" viewBox="0 0 32 32" fill="none" xmlns="http://www.w3.org/2000/svg">
<path d="M16 0C7.16 0 0 7.16 0 16C0 24.84 7.16 32 16 32C24.84 32 32 24.84 32 16C32 7.16 24.84 0 16 0ZM16 1.67C19.66 1.67 23 3.04 25.54 5.3L24.68 6.16C22.36 4.12 19.33 2.88 16.01 2.88C12.69 2.88 9.66 4.12 7.34 6.16L6.48 5.3C9.02 3.05 12.35 1.67 16.02 1.67H16ZM16 25.17L10.46 17.25L16 20.57L21.54 17.31L16 25.17ZM16 19.48L10.47 16.17H10.46L15.99 6.83L21.53 16.18L15.99 19.48H16ZM6.14 24.7L5.28 25.56C3.03 23.02 1.64999 19.69 1.64999 16.02C1.64999 12.35 3.04 8.99 5.31 6.44L6.17 7.3C4.11 9.62 2.86 12.67 2.86 16.01C2.86 19.35 4.1 22.36 6.14 24.68V24.7ZM16 30.39C12.32 30.39 8.97 29 6.42 26.73L7.28 25.87C9.6 27.93 12.65 29.18 15.99 29.18C19.33 29.18 22.38 27.93 24.7 25.87L25.56 26.73C23.02 29.01 19.66 30.39 15.98 30.39H16ZM26.74 25.57L25.88 24.71C27.92 22.39 29.16 19.36 29.16 16.04C29.16 12.72 27.91 9.65 25.85 7.33L26.71 6.47C28.99 9.01 30.37 12.37 30.37 16.05C30.37 19.73 29 23.05 26.74 25.59V25.57Z" fill="#213147"/>
</svg>
