<svg width="32" height="32" viewBox="0 0 32 32" fill="none" xmlns="http://www.w3.org/2000/svg">
<g clip-path="url(#clip0_298_1050)">
<path d="M16 32C24.8366 32 32 24.8366 32 16C32 7.16344 24.8366 0 16 0C7.16344 0 0 7.16344 0 16C0 24.8366 7.16344 32 16 32Z" fill="#FECA00"/>
<path d="M16 6.83L10.46 16.18L16 13.61V6.83Z" fill="#868686"/>
<path d="M16 19.49L10.46 16.17L16 13.61V19.49Z" fill="#363636"/>
<path d="M16 20.57L10.46 17.25L16 25.17V20.57Z" fill="#868686"/>
<path d="M16 6.83L21.54 16.18L16 13.61V6.83Z" fill="#332600"/>
<path d="M16 19.49L21.54 16.19L16 13.62V19.5V19.49Z" fill="#140F02"/>
<path d="M16 20.57L21.54 17.31L16 25.17V20.57Z" fill="#332701"/>
<path d="M26.7 6.46L25.84 7.32C27.9 9.64 29.15 12.69 29.15 16.03C29.15 19.37 27.91 22.38 25.87 24.7L26.73 25.56C28.98 23.02 30.36 19.69 30.36 16.02C30.36 12.35 28.97 8.99 26.7 6.44V6.46Z" fill="#FFFDF7"/>
<path d="M7.33 6.17C9.65 4.13 12.68 2.89 16 2.89C19.32 2.89 22.35 4.13 24.67 6.17L25.53 5.31C22.99 3.06 19.66 1.68 15.99 1.68C12.32 1.68 8.99 3.05 6.45 5.31L7.31 6.17H7.33Z" fill="#FFFDF7"/>
<path d="M24.71 25.87C22.39 27.93 19.34 29.18 16 29.18C12.66 29.18 9.60999 27.93 7.28999 25.87L6.43 26.73C8.97 29.01 12.33 30.39 16.01 30.39C19.69 30.39 23.04 29 25.59 26.73L24.73 25.87H24.71Z" fill="#FFFDF7"/>
<path d="M6.14 24.71C4.1 22.39 2.86 19.36 2.86 16.04C2.86 12.72 4.11 9.65 6.17 7.33L5.31 6.47C3.03 9.01 1.64999 12.37 1.64999 16.05C1.64999 19.73 3.02 23.05 5.28 25.59L6.14 24.73V24.71Z" fill="#FFFDF7"/>
</g>
<defs>
<clipPath id="clip0_298_1050">
<rect width="32" height="32" fill="white"/>
</clipPath>
</defs>
</svg>
