<svg width="33" height="32" viewBox="0 0 33 32" fill="none" xmlns="http://www.w3.org/2000/svg">
<path d="M26.64 6.72001L25.76 7.60001C30.11 12.35 30.11 19.63 25.76 24.39L26.64 25.27C31.48 20.02 31.48 11.95 26.64 6.70001V6.72001Z" fill="#595563"/>
<path d="M8.17 6.79003C12.92 2.44003 20.2 2.44003 24.96 6.79003L25.84 5.91003C20.59 1.07003 12.52 1.07003 7.27 5.91003L8.17 6.79003Z" fill="#595563"/>
<path d="M7.33999 24.39C2.99999 19.64 2.99999 12.36 7.33999 7.60998L6.46 6.72998C1.62 11.98 1.62 20.05 6.46 25.3L7.33999 24.39Z" fill="#595563"/>
<path d="M24.94 25.2C20.19 29.55 12.91 29.55 8.14999 25.2L7.27 26.08C12.52 30.92 20.59 30.92 25.84 26.08L24.94 25.2Z" fill="#595563"/>
<path d="M22.1 13.07C21.92 11.24 20.34 10.62 18.34 10.43V7.90997H16.79V10.39H15.55V7.90997H14.02V10.45H10.88V12.1C10.88 12.1 12.02 12.08 12 12.1C12.43 12.05 12.82 12.35 12.88 12.78V19.74C12.88 19.89 12.8 20.02 12.69 20.12C12.58 20.22 12.44 20.27 12.29 20.25C12.31 20.27 11.17 20.25 11.17 20.25L10.88 22.1H13.99V24.68H15.54V22.13H16.78V24.66H18.33V22.11C20.94 21.95 22.76 21.31 22.99 18.86C23.17 16.89 22.25 16.01 20.77 15.66C21.67 15.22 22.23 14.4 22.1 13.06V13.07ZM19.93 18.57C19.93 20.49 16.64 20.27 15.59 20.27V16.86C16.64 16.86 19.93 16.56 19.93 18.57ZM19.21 13.77C19.21 15.53 16.46 15.31 15.59 15.31V12.21C16.46 12.21 19.21 11.93 19.21 13.77Z" fill="#E29552"/>
<path d="M16.55 32C7.71 32 0.550003 24.83 0.550003 16C0.550003 7.17 7.72 0 16.55 0C25.38 0 32.54 7.16 32.55 16C32.55 24.84 25.39 32 16.55 32ZM16.55 1.25C8.41 1.25 1.81001 7.86 1.82001 16.01C1.82001 24.15 8.43 30.75 16.58 30.74C24.72 30.74 31.31 24.14 31.31 16C31.31 7.86 24.71 1.25 16.57 1.25C16.57 1.25 16.56 1.25 16.55 1.25Z" fill="#272136"/>
</svg>
