<svg width="32" height="32" viewBox="0 0 32 32" fill="none" xmlns="http://www.w3.org/2000/svg">
<g clip-path="url(#clip0_298_909)">
<path d="M16 0C7.16 0 0 7.16 0 16C0 24.84 7.16 32 16 32C24.84 32 32 24.84 32 16C32 7.16 24.84 0 16 0ZM16.12 31.13C7.76999 31.13 1 24.36 1 16C1 7.65 7.77001 0.880001 16.13 0.880001C24.48 0.880001 31.25 7.65 31.25 16C31.25 24.35 24.48 31.12 16.13 31.13H16.12Z" fill="#213147"/>
<path d="M16.13 2.06H16.11C8.41 2.06 2.18001 8.30999 2.18001 16.01C2.18001 23.71 8.43001 29.94 16.13 29.94C23.82 29.94 30.05 23.7 30.06 16.01C30.06 8.30999 23.83 2.07 16.13 2.07V2.06ZM24.89 6.47L24.06 7.3C19.57 3.19 12.68 3.19 8.19 7.3L7.34 6.47C12.3 1.9 19.93 1.9 24.89 6.47ZM15.11 22.15V24.7H13.56V22.12H10.45L10.74 20.27C10.74 20.27 11.89 20.29 11.86 20.27C12.01 20.28 12.15 20.23 12.26 20.14C12.37 20.04 12.44 19.91 12.45 19.76V12.8C12.39 12.37 12 12.07 11.57 12.12C11.59 12.1 10.45 12.12 10.45 12.12V10.47H13.59V7.93H15.12V10.41H16.36V7.93H17.91V10.45C19.91 10.64 21.49 11.25 21.67 13.09C21.8 14.43 21.24 15.25 20.34 15.69C21.82 16.04 22.74 16.92 22.56 18.89C22.33 21.34 20.51 21.98 17.9 22.14V24.69H16.35V22.16H15.11V22.15ZM6.59 7.25L7.42 8.07999C3.32 12.57 3.32 19.45 7.42 23.94L6.59 24.8C2.02 19.84 2.02 12.21 6.59 7.25ZM7.35001 25.53L8.18001 24.7C12.67 28.81 19.56 28.81 24.05 24.7L24.9 25.53C19.94 30.1 12.31 30.1 7.35001 25.53ZM25.66 24.76L24.83 23.93C28.94 19.44 28.94 12.55 24.83 8.06L25.66 7.23V7.21C30.23 12.17 30.23 19.8 25.66 24.76Z" fill="#213147"/>
<path d="M18.78 13.77C18.78 11.94 16.03 12.21 15.16 12.21V15.31C16.03 15.31 18.78 15.52 18.78 13.77Z" fill="#213147"/>
<path d="M19.5 18.57C19.5 16.56 16.21 16.87 15.16 16.86V20.27C16.21 20.27 19.5 20.49 19.5 18.57Z" fill="#213147"/>
</g>
<defs>
<clipPath id="clip0_298_909">
<rect width="32" height="32" fill="white"/>
</clipPath>
</defs>
</svg>
