<svg width="33" height="33" viewBox="0 0 33 33" fill="none" xmlns="http://www.w3.org/2000/svg">
<path d="M16.56 0.590027C7.72 0.590027 0.559998 7.75003 0.559998 16.59C0.559998 25.43 7.72 32.59 16.56 32.59C25.4 32.59 32.56 25.43 32.56 16.59C32.56 7.75003 25.4 0.590027 16.56 0.590027ZM16.68 31.72C8.32999 31.72 1.56 24.95 1.56 16.59C1.56 8.24003 8.33 1.47003 16.69 1.47003C25.04 1.47003 31.81 8.24003 31.81 16.59C31.81 24.94 25.04 31.71 16.69 31.72H16.68Z" fill="#213147"/>
<path d="M16.69 2.65002H16.67C8.97 2.65002 2.74001 8.90002 2.74001 16.6C2.74001 24.3 8.99 30.53 16.69 30.53C24.38 30.53 30.61 24.29 30.62 16.6C30.62 8.90002 24.39 2.66002 16.69 2.66002V2.65002ZM25.45 7.06002L24.62 7.89002C20.13 3.78002 13.24 3.78002 8.75 7.89002L7.89999 7.06002C12.86 2.49002 20.49 2.49002 25.45 7.06002ZM15.67 22.74V25.29H14.12V22.71H11.01L11.3 20.86C11.3 20.86 12.45 20.88 12.42 20.86C12.57 20.87 12.71 20.82 12.82 20.73C12.93 20.63 13 20.5 13.01 20.35V13.39C12.95 12.96 12.56 12.66 12.13 12.71C12.15 12.69 11.01 12.71 11.01 12.71V11.06H14.15V8.52002H15.68V11H16.92V8.52002H18.47V11.04C20.47 11.23 22.05 11.84 22.23 13.68C22.36 15.02 21.8 15.84 20.9 16.28C22.38 16.63 23.3 17.51 23.12 19.48C22.89 21.93 21.07 22.57 18.46 22.73V25.28H16.91V22.75H15.67V22.74ZM7.14999 7.84002L7.98 8.67002C3.88 13.16 3.88 20.04 7.98 24.53L7.14999 25.39C2.57999 20.43 2.57999 12.8 7.14999 7.84002ZM7.91 26.12L8.74001 25.29C13.23 29.4 20.12 29.4 24.61 25.29L25.46 26.12C20.5 30.69 12.87 30.69 7.91 26.12ZM26.22 25.35L25.39 24.52C29.5 20.03 29.5 13.14 25.39 8.65002L26.22 7.82002V7.80002C30.79 12.76 30.79 20.39 26.22 25.35Z" fill="#213147"/>
<path d="M19.34 14.36C19.34 12.53 16.59 12.8 15.72 12.8V15.9C16.59 15.9 19.34 16.11 19.34 14.36Z" fill="#213147"/>
<path d="M20.06 19.16C20.06 17.15 16.77 17.46 15.72 17.45V20.86C16.77 20.86 20.06 21.08 20.06 19.16Z" fill="#213147"/>
</svg>
