<svg width="32" height="33" viewBox="0 0 32 33" fill="none" xmlns="http://www.w3.org/2000/svg">
<path d="M15.09 5.52997L9.21001 9.13997L11.89 10.75L15.09 5.52997Z" fill="#213147"/>
<path d="M11.56 11.28L8.92 9.69V15.59L11.56 11.28Z" fill="#213147"/>
<path d="M8.92 19.32V23.54L11.05 22.25L8.92 19.32Z" fill="#213147"/>
<path d="M22.77 9.07996L16.84 5.45996L20.07 10.71L22.77 9.07996Z" fill="#213147"/>
<path d="M15.99 20.24L22.86 16.46L15.99 5.25L9.11 16.46L15.99 20.24Z" fill="#213147"/>
<path d="M23.06 15.59V9.63L20.39 11.24L23.06 15.59Z" fill="#213147"/>
<path d="M9.21 24.1L14.96 27.63L11.42 22.76C10.83 23.12 9.2 24.1 9.2 24.1H9.21Z" fill="#213147"/>
<path d="M16.14 22.91C16.04 22.97 15.92 22.97 15.83 22.91L9.72 19.37L15.98 27.99L22.19 19.4L16.14 22.91Z" fill="#213147"/>
<path d="M20.93 22.21L23.06 23.49V19.26L20.93 22.21Z" fill="#213147"/>
<path d="M16 0.609985C7.16 0.609985 0 7.77999 0 16.61C0 25.44 7.16 32.61 16 32.61C24.84 32.61 32 25.45 32 16.61C32 7.76999 24.84 0.609985 16 0.609985ZM16 31.75C7.65 31.75 0.86 24.96 0.86 16.62C0.86 8.27998 7.65 1.48999 16 1.48999C24.35 1.48999 31.13 8.27998 31.13 16.62C31.13 24.96 24.34 31.75 16 31.75Z" fill="#213147"/>
<path d="M16 2.22998C8.07 2.22998 1.61 8.67998 1.61 16.61C1.61 24.54 8.06 30.99 16 30.99C23.94 30.99 30.38 24.54 30.38 16.61C30.38 8.67998 23.93 2.22998 16 2.22998ZM8.3 9.23998C8.3 9.23998 8.3 9.19998 8.3 9.18998C8.28 9.05998 8.34 8.93998 8.44 8.86998L15.85 4.31998C15.95 4.25998 16.07 4.25998 16.17 4.31998L23.52 8.80998C23.61 8.86998 23.67 8.96998 23.67 9.07998C23.67 9.07998 23.67 9.07998 23.67 9.08998C23.67 9.09998 23.67 9.08998 23.67 9.09998V16.53C23.67 16.66 23.59 16.77 23.47 16.82L16.12 20.86C16.03 20.91 15.91 20.91 15.82 20.86L8.58 16.88C8.41 16.88 8.28 16.74 8.28 16.57V9.23998H8.3ZM23.68 24C23.7 24.12 23.64 24.24 23.54 24.31L16.13 28.88C16.03 28.94 15.9 28.94 15.8 28.88L8.45 24.37C8.35 24.31 8.29 24.19 8.3 24.08C8.3 24.08 8.3 24.06 8.3 24.05V18.41C8.3 18.41 8.3 18.4 8.3 18.39C8.29 18.22 8.42 18.07 8.59 18.06C8.65 18.06 8.71 18.07 8.77 18.1L15.99 22.29L23.15 18.14C23.15 18.14 23.17 18.13 23.19 18.12C23.24 18.08 23.31 18.06 23.38 18.06C23.55 18.06 23.69 18.2 23.69 18.37V23.96C23.69 23.96 23.69 23.99 23.69 24H23.68Z" fill="#213147"/>
<path d="M17.06 27.57L22.77 24.04L20.57 22.71L17.06 27.57Z" fill="#213147"/>
</svg>
