<svg width="32" height="33" viewBox="0 0 32 33" fill="none" xmlns="http://www.w3.org/2000/svg">
<path d="M16 0.0700073C24.84 0.0700073 32 7.23001 32 16.07C32 24.91 24.84 32.07 16 32.07C7.16 32.07 0 24.91 0 16.07C0 7.24001 7.16 0.0700073 16 0.0700073Z" fill="url(#paint0_linear_82_429)"/>
<path fill-rule="evenodd" clip-rule="evenodd" d="M23.68 23.46C23.7 23.58 23.64 23.7 23.54 23.77L16.13 28.34C16.03 28.4 15.9 28.4 15.8 28.34L8.45 23.83C8.35 23.77 8.29001 23.65 8.30001 23.54C8.30001 23.54 8.30001 23.52 8.30001 23.51V17.87C8.30001 17.87 8.30001 17.86 8.30001 17.85C8.29001 17.68 8.42001 17.53 8.59001 17.52C8.65001 17.52 8.71001 17.53 8.77001 17.56L15.99 21.75L23.15 17.6C23.15 17.6 23.17 17.59 23.19 17.58C23.24 17.54 23.31 17.52 23.38 17.52C23.55 17.52 23.69 17.66 23.69 17.83V23.42C23.69 23.42 23.69 23.45 23.69 23.46H23.68ZM8.92001 23.01L11.06 21.72L8.92001 18.78V23.01ZM11.42 22.22C10.83 22.58 9.2 23.56 9.2 23.56L14.95 27.09L11.41 22.22H11.42ZM17.06 27.03L22.77 23.51L20.56 22.18L17.05 27.03H17.06ZM20.93 21.67L23.06 22.95V18.72L20.93 21.67ZM15.83 22.37L9.72001 18.83L15.98 27.45L22.19 18.86L16.14 22.37C16.04 22.43 15.92 22.43 15.83 22.37ZM8.60001 16.35C8.43001 16.35 8.30001 16.21 8.30001 16.04V8.71C8.30001 8.71 8.30001 8.67 8.30001 8.66C8.28001 8.53 8.34 8.41 8.44 8.34L15.85 3.79C15.95 3.73 16.07 3.73 16.17 3.79L23.52 8.27999C23.61 8.33999 23.67 8.44 23.67 8.55C23.67 8.55 23.67 8.55 23.67 8.56C23.67 8.57 23.67 8.55999 23.67 8.56999V16C23.67 16.13 23.59 16.24 23.47 16.29L16.12 20.33C16.03 20.38 15.91 20.38 15.82 20.33L8.58 16.35H8.60001ZM8.92001 9.14999V15.05L11.56 10.74L8.92001 9.14999ZM23.06 9.09L20.39 10.7L23.06 15.05V9.09ZM20.07 10.17L22.78 8.54L16.85 4.92L20.07 10.17ZM15.09 4.98999L9.21 8.6L11.89 10.21L15.09 4.98999ZM9.11 15.92L15.98 19.7L22.85 15.92L15.98 4.71999L9.11 15.92Z" fill="url(#paint1_linear_82_429)"/>
<path fill-rule="evenodd" clip-rule="evenodd" d="M23.68 23.46C23.7 23.58 23.64 23.7 23.54 23.77L16.13 28.34C16.03 28.4 15.9 28.4 15.8 28.34L8.45 23.83C8.35 23.77 8.29001 23.65 8.30001 23.54C8.30001 23.54 8.30001 23.52 8.30001 23.51V17.87C8.30001 17.87 8.30001 17.86 8.30001 17.85C8.29001 17.68 8.42001 17.53 8.59001 17.52C8.65001 17.52 8.71001 17.53 8.77001 17.56L15.99 21.75L23.15 17.6C23.15 17.6 23.17 17.59 23.19 17.58C23.24 17.54 23.31 17.52 23.38 17.52C23.55 17.52 23.69 17.66 23.69 17.83V23.42C23.69 23.42 23.69 23.45 23.69 23.46H23.68ZM8.92001 23.01L11.06 21.72L8.92001 18.78V23.01ZM11.42 22.22C10.83 22.58 9.2 23.56 9.2 23.56L14.95 27.09L11.41 22.22H11.42ZM17.06 27.03L22.77 23.51L20.56 22.18L17.05 27.03H17.06ZM20.93 21.67L23.06 22.95V18.72L20.93 21.67ZM15.83 22.37L9.72001 18.83L15.98 27.45L22.19 18.86L16.14 22.37C16.04 22.43 15.92 22.43 15.83 22.37ZM8.60001 16.35C8.43001 16.35 8.30001 16.21 8.30001 16.04V8.71C8.30001 8.71 8.30001 8.67 8.30001 8.66C8.28001 8.53 8.34 8.41 8.44 8.34L15.85 3.79C15.95 3.73 16.07 3.73 16.17 3.79L23.52 8.27999C23.61 8.33999 23.67 8.44 23.67 8.55C23.67 8.55 23.67 8.55 23.67 8.56C23.67 8.57 23.67 8.55999 23.67 8.56999V16C23.67 16.13 23.59 16.24 23.47 16.29L16.12 20.33C16.03 20.38 15.91 20.38 15.82 20.33L8.58 16.35H8.60001ZM8.92001 9.14999V15.05L11.56 10.74L8.92001 9.14999ZM23.06 9.09L20.39 10.7L23.06 15.05V9.09ZM20.07 10.17L22.78 8.54L16.85 4.92L20.07 10.17ZM15.09 4.98999L9.21 8.6L11.89 10.21L15.09 4.98999ZM9.11 15.92L15.98 19.7L22.85 15.92L15.98 4.71999L9.11 15.92Z" fill="#10046B"/>
<path d="M16 30.83C24.1517 30.83 30.76 24.2217 30.76 16.07C30.76 7.91827 24.1517 1.31 16 1.31C7.84828 1.31 1.24001 7.91827 1.24001 16.07C1.24001 24.2217 7.84828 30.83 16 30.83Z" stroke="#10046B" stroke-width="0.75"/>
<defs>
<linearGradient id="paint0_linear_82_429" x1="2.21" y1="21.08" x2="29.93" y2="11.01" gradientUnits="userSpaceOnUse">
<stop stop-color="#5CB8F3"/>
<stop offset="0.43" stop-color="#6464DB"/>
<stop offset="1" stop-color="#A75FF1"/>
</linearGradient>
<linearGradient id="paint1_linear_82_429" x1="11.88" y1="26.36" x2="19.54" y2="7.10999" gradientUnits="userSpaceOnUse">
<stop stop-color="#5CB8F3"/>
<stop offset="0.43" stop-color="#6464DB"/>
<stop offset="1" stop-color="#A75FF1"/>
</linearGradient>
</defs>
</svg>
