<svg width="33" height="33" viewBox="0 0 33 33" fill="none" xmlns="http://www.w3.org/2000/svg">
<path d="M7.06001 15C7.07001 14.94 7.09002 14.89 7.10002 14.83L5.93 14.25C5.89 14.73 5.87 15.21 5.9 15.69L6.9 16.15C6.93 15.77 6.98001 15.38 7.06001 15Z" fill="#213147"/>
<path d="M6.06 16.97C6.1 17.18 6.14001 17.4 6.20001 17.61C6.22001 17.69 6.23 17.73 6.25 17.85V17.87C6.28 18.02 6.34 18.17 6.41 18.3C6.5 18.5 6.69 18.86 6.91 19.26C7 19.42 7.10001 19.57 7.20001 19.72C7.00001 18.95 6.89 18.15 6.87 17.33L6.07001 16.96L6.06 16.97Z" fill="#213147"/>
<path d="M7.09 10.46C6.63 11.3 6.30001 12.2 6.10001 13.12L7.39999 13.77C9.04999 8.73001 14.24 5.60001 19.57 6.66001C19.89 6.72001 20.2 6.81001 20.5 6.90001C20.41 6.83001 20.32 6.76001 20.23 6.70001C15.56 4.11001 9.68001 5.80001 7.10001 10.47L7.09 10.46Z" fill="#213147"/>
<path d="M16.51 0.119995C7.67001 0.119995 0.51001 7.27999 0.51001 16.12C0.51001 24.96 7.67001 32.12 16.51 32.12C25.35 32.12 32.51 24.96 32.51 16.12C32.51 7.27999 25.35 0.119995 16.51 0.119995ZM17.49 27.71C14.46 27.71 11.74 26.44 9.79999 24.41C8.93999 23.83 8.06999 22.86 7.20999 21.6C6.79999 21 6.42001 20.37 6.07001 19.74C5.84001 19.32 5.64001 18.94 5.54001 18.73C5.43001 18.52 5.36 18.3 5.31 18.07V18.04C5.29 17.95 5.27999 17.92 5.26999 17.86C3.75999 12.18 7.14001 6.35999 12.82 4.84999C15.49 4.13999 18.32 4.5 20.73 5.84L20.77 5.87C21.82 6.6 22.93 7.57 24.1 8.75C27.12 11.15 28.73 15.11 27.93 19.15C26.94 24.12 22.57 27.71 17.5 27.71H17.49Z" fill="#213147"/>
<path d="M24.31 10.25C20.54 6.47999 14.42 6.47999 10.65 10.25C10.2 10.7 9.80003 11.19 9.45003 11.71C6.49003 16.14 7.68 22.14 12.11 25.1C13.7 26.16 15.57 26.73 17.48 26.73C21.39 26.73 24.91 24.38 26.4 20.77C27.89 17.16 27.07 13.01 24.31 10.25ZM13.73 19.14H12.8L12.02 16.91L11.25 19.14H10.32L9.03001 15.25H10.16L10.83 17.49L11.58 15.24H12.5L13.25 17.49L13.92 15.25H15.03L13.74 19.14H13.73ZM18.58 19.11H15.44V15.24H18.55V16.15H16.5V16.74H18.36V17.58H16.5V18.19H18.58V19.1V19.11ZM22.31 16.18H21.15V19.11H20.08V16.18H18.92V15.24H22.31V16.18ZM26.29 19.11H25.22V17.64H23.84V19.11H22.77V15.24H23.84V16.69H25.22V15.24H26.29V19.11Z" fill="#213147"/>
</svg>
