<svg width="34" height="33" viewBox="0 0 34 33" fill="none" xmlns="http://www.w3.org/2000/svg">
<path d="M33.01 16.25C33.01 25.09 25.85 32.25 17.01 32.25C8.17001 32.25 1.01001 25.09 1.01001 16.25C1.01001 7.41 8.18001 0.25 17.01 0.25C25.84 0.25 33.01 7.41 33.01 16.25Z" fill="white" stroke="#393D4F" stroke-width="0.5"/>
<path d="M12.34 28.07C18.39 28.07 18.39 27.98 19.41 27.68C20.75 27.28 15.63 23.74 12.34 23.74C9.05 23.74 6.38 24.71 6.38 25.91C6.38 27.11 9.05 28.08 12.34 28.08V28.07Z" fill="black"/>
<path d="M26.08 9.62L26.36 9.92L26.12 10.25C18.23 20.91 13.69 25.74 11.76 25.1C10.59 24.71 9.41002 23.52 8.23002 21.8C7.82002 21.19 7.43001 20.57 7.07001 19.92C6.88001 19.58 6.7 19.24 6.53 18.89C6.42 18.68 6.33999 18.45 6.29999 18.22V18.19C6.27999 18.13 6.27002 18.07 6.26002 18.01C4.74002 12.27 8.15002 6.38 13.89 4.86C16.58 4.14 19.45 4.5 21.89 5.86L21.93 5.89C23.23 6.8 24.61 8.04 26.08 9.62ZM21.38 6.71C16.66 4.1 10.72 5.8 8.10001 10.52C6.88001 12.73 6.56002 15.32 7.20002 17.75C7.22002 17.83 7.23001 17.88 7.25001 17.99V18.01C7.28001 18.16 7.34001 18.31 7.41001 18.45C7.50001 18.65 7.69002 19.01 7.92002 19.42C8.26002 20.04 8.63 20.64 9.03 21.22C10.09 22.78 11.15 23.84 12.06 24.15C13.27 24.56 17.84 19.72 25.07 9.98C23.76 8.6 22.53 7.5 21.38 6.7V6.71Z" fill="black"/>
<path d="M21.38 6.71C16.66 4.1 10.72 5.81 8.1 10.53C6.88 12.74 6.56001 15.33 7.20001 17.76C7.22001 17.84 7.22999 17.89 7.24999 18V18.02C7.27999 18.17 7.34 18.32 7.41 18.46C7.5 18.66 7.69001 19.02 7.92001 19.43C8.26001 20.05 8.62999 20.65 9.02999 21.23C10.09 22.79 11.15 23.85 12.06 24.16C13.27 24.57 17.84 19.73 25.07 9.99C23.76 8.61 22.53 7.51 21.38 6.71Z" fill="#D83878"/>
<path d="M18.61 27.97C12.67 28.02 7.81998 23.24 7.76998 17.31C7.71998 11.37 12.5 6.52 18.43 6.47C18.49 6.47 18.55 6.47 18.6 6.47C24.54 6.52 29.31 11.37 29.26 17.31C29.21 23.18 24.47 27.92 18.6 27.97H18.61ZM18.61 26.98C24 26.98 28.37 22.61 28.37 17.22C28.37 11.83 24 7.46 18.61 7.46C13.22 7.46 8.85 11.83 8.85 17.22C8.85 22.61 13.22 26.98 18.61 26.98Z" fill="black"/>
<path d="M18.61 26.98C24 26.98 28.37 22.61 28.37 17.22C28.37 11.83 24 7.45999 18.61 7.45999C13.22 7.45999 8.85001 11.83 8.85001 17.22C8.85001 22.61 13.22 26.98 18.61 26.98Z" fill="white"/>
<path fill-rule="evenodd" clip-rule="evenodd" d="M11.31 19.22L10.02 15.33H11.15L11.82 17.57L12.57 15.32H13.49L14.24 17.57L14.91 15.33H16.02L14.73 19.22H13.8L13.02 16.99L12.25 19.22H11.32H11.31ZM16.45 19.19V15.32H19.56V16.23H17.51V16.82H19.37V17.66H17.51V18.27H19.59V19.18H16.45V19.19ZM21.07 19.19V16.26H19.91V15.32H23.3V16.26H22.14V19.19H21.07ZM23.78 19.19V15.32H24.85V16.77H26.22V15.32H27.29V19.19H26.22V17.72H24.85V19.19H23.78Z" fill="black"/>
<path d="M6.53 14.16C6.26 14.02 6.15 13.69 6.28 13.42C6.42 13.15 6.74999 13.04 7.01999 13.17L8.60001 13.96C8.88001 14.08 9.01001 14.41 8.88001 14.69C8.76001 14.97 8.43 15.1 8.15 14.97C8.13 14.97 8.12001 14.95 8.10001 14.95L6.51999 14.16H6.53ZM6.35001 16.78C6.07001 16.65 5.94999 16.32 6.07999 16.05C6.20999 15.77 6.54 15.65 6.81 15.78L8.39002 16.51C8.67002 16.62 8.81001 16.95 8.70001 17.23C8.59001 17.51 8.26001 17.65 7.98001 17.54C7.96001 17.54 7.94999 17.53 7.92999 17.52L6.35001 16.79V16.78Z" fill="black"/>
</svg>
