<svg width="32" height="32" viewBox="0 0 32 32" fill="none" xmlns="http://www.w3.org/2000/svg">
<g clip-path="url(#clip0_298_452)">
<path d="M6.55 14.88C6.56 14.82 6.58001 14.77 6.59001 14.71L5.41999 14.13C5.37999 14.61 5.35999 15.09 5.38999 15.57L6.38999 16.03C6.41999 15.65 6.47 15.26 6.55 14.88Z" fill="#213147"/>
<path d="M5.54999 16.85C5.58999 17.06 5.63 17.28 5.69 17.49C5.71 17.57 5.71999 17.61 5.73999 17.73V17.75C5.76999 17.9 5.82999 18.05 5.89999 18.18C5.98999 18.38 6.17999 18.74 6.39999 19.14C6.48999 19.3 6.59 19.45 6.69 19.6C6.49 18.83 6.37999 18.03 6.35999 17.21L5.56 16.84L5.54999 16.85Z" fill="#213147"/>
<path d="M6.57999 10.34C6.11999 11.18 5.79 12.08 5.59 13L6.88998 13.65C8.53998 8.61002 13.73 5.48002 19.06 6.54002C19.38 6.60002 19.69 6.69002 19.99 6.78002C19.9 6.71002 19.81 6.64002 19.72 6.58002C15.05 3.99002 9.17 5.68002 6.59 10.35L6.57999 10.34Z" fill="#213147"/>
<path d="M16 0C7.16 0 0 7.16 0 16C0 24.84 7.16 32 16 32C24.84 32 32 24.84 32 16C32 7.16 24.84 0 16 0ZM16.98 27.59C13.95 27.59 11.23 26.32 9.28998 24.29C8.42998 23.71 7.55998 22.74 6.69998 21.48C6.28998 20.88 5.91 20.25 5.56 19.62C5.33 19.2 5.13 18.82 5.03 18.61C4.92 18.4 4.84999 18.18 4.79999 17.95V17.92C4.77999 17.83 4.76998 17.8 4.75998 17.74C3.24998 12.06 6.63 6.24 12.31 4.73C14.98 4.02 17.81 4.38 20.22 5.72L20.26 5.75C21.31 6.48 22.42 7.45 23.59 8.63C26.61 11.03 28.22 14.99 27.42 19.03C26.43 24 22.06 27.59 16.99 27.59H16.98Z" fill="#213147"/>
<path d="M23.8 10.13C20.03 6.36 13.91 6.36 10.14 10.13C9.69 10.58 9.29002 11.07 8.94002 11.59C5.98002 16.02 7.16999 22.02 11.6 24.98C13.19 26.04 15.06 26.61 16.97 26.61C20.88 26.61 24.4 24.26 25.89 20.65C27.38 17.04 26.56 12.89 23.8 10.13ZM12.29 19.02L11.51 16.79L10.74 19.02H9.81001L8.52 15.13H9.65001L10.32 17.37L11.07 15.12H11.99L12.74 17.37L13.41 15.13H14.52L13.23 19.02H12.29ZM18.07 18.99H14.93V15.12H18.04V16.03H15.99V16.62H17.85V17.46H15.99V18.07H18.07V18.99ZM21.8 16.06H20.64V18.99H19.57V16.06H18.41V15.12H21.8V16.06ZM25.78 18.99H24.71V17.52H23.33V18.99H22.26V15.12H23.33V16.57H24.71V15.12H25.78V18.99Z" fill="#213147"/>
</g>
<defs>
<clipPath id="clip0_298_452">
<rect width="32" height="32" fill="white"/>
</clipPath>
</defs>
</svg>
