<svg width="32" height="32" viewBox="0 0 32 32" fill="none" xmlns="http://www.w3.org/2000/svg">
<g clip-path="url(#clip0_298_317)">
<path d="M6.55 14.88C6.56 14.82 6.58 14.77 6.59 14.71L5.42 14.13C5.38 14.61 5.35999 15.09 5.38999 15.57L6.38999 16.03C6.41999 15.65 6.47 15.26 6.55 14.88Z" fill="#213147"/>
<path d="M5.55 16.85C5.59 17.06 5.63 17.28 5.69 17.49C5.71 17.57 5.72001 17.61 5.74001 17.73V17.75C5.77001 17.9 5.83 18.05 5.9 18.18C5.99 18.38 6.18 18.74 6.4 19.14C6.49 19.3 6.59 19.45 6.69 19.6C6.49 18.83 6.38 18.03 6.36 17.21L5.56001 16.84L5.55 16.85Z" fill="#213147"/>
<path d="M6.57999 10.33C6.11999 11.17 5.79 12.07 5.59 12.99L6.88999 13.64C8.53999 8.60001 13.73 5.47001 19.06 6.53001C19.38 6.59001 19.69 6.68001 19.99 6.77001C19.9 6.70001 19.81 6.63001 19.72 6.57001C15.05 3.98001 9.17 5.67001 6.59 10.34L6.57999 10.33Z" fill="#213147"/>
<path d="M16 0C7.16 0 0 7.16 0 16C0 24.84 7.16 32 16 32C24.84 32 32 24.84 32 16C32 7.16 24.84 0 16 0ZM16.98 27.59C13.95 27.59 11.23 26.32 9.29 24.29C8.43 23.71 7.56 22.74 6.7 21.48C6.29 20.88 5.91001 20.25 5.56001 19.62C5.33001 19.2 5.13 18.82 5.03 18.61C4.92 18.4 4.85 18.18 4.8 17.95V17.92C4.78 17.83 4.77 17.8 4.76 17.74C3.25 12.06 6.63001 6.24 12.31 4.73C14.98 4.02 17.81 4.38 20.22 5.72L20.26 5.75C21.31 6.48 22.42 7.45 23.59 8.63C26.61 11.03 28.22 14.99 27.42 19.03C26.43 24 22.06 27.59 16.99 27.59H16.98Z" fill="#213147"/>
<path d="M13.41 13.04V16.16L16.38 14.6L13.41 13.04Z" fill="#213147"/>
<path d="M16.51 18.93L13.41 17.29V21.15L16.51 22.78C16.69 22.88 16.88 22.97 17.07 22.98H17.08C17.27 22.98 17.44 22.89 17.63 22.8L20.76 21.14V17.29L17.65 18.93C17.33 19.1 16.83 19.1 16.51 18.93Z" fill="#213147"/>
<path d="M13.46 16.73L16.76 18.48C16.78 18.49 16.8 18.5 16.83 18.51V14.94C16.83 14.94 16.78 14.96 16.76 14.97L13.46 16.72V16.73Z" fill="#213147"/>
<path d="M17.35 18.53C17.35 18.53 17.4 18.51 17.42 18.5L20.72 16.75L17.42 15C17.42 15 17.38 14.98 17.35 14.97V18.54V18.53Z" fill="#213147"/>
<path d="M13.46 12.48L16.77 14.23C16.94 14.32 17.25 14.32 17.43 14.23L20.74 12.48L17.43 10.73C17.26 10.64 16.95 10.64 16.77 10.73L13.46 12.48Z" fill="#213147"/>
<path d="M20.76 16.16V13.04L17.79 14.6L20.76 16.16Z" fill="#213147"/>
<path d="M23.8 10.13C20.03 6.35999 13.91 6.35999 10.14 10.13C9.69 10.58 9.29001 11.07 8.94001 11.59C5.98001 16.02 7.17001 22.02 11.6 24.98C13.19 26.04 15.06 26.61 16.97 26.61C20.88 26.61 24.4 24.26 25.89 20.65C27.38 17.04 26.56 12.89 23.8 10.13ZM12.93 22.74L12.72 22.61L12.69 22.59C12.63 22.55 12.58 22.52 12.53 22.49C12.03 22.15 11.85 21.78 11.84 21.01V20.99H12.36C12.36 21.33 12.4 21.55 12.48 21.7C12.54 21.83 12.64 21.93 12.81 22.05C12.81 22.05 12.89 22.11 12.94 22.14L13 22.18L13.19 22.29L12.92 22.74H12.93ZM21.28 21.18C21.28 21.35 21.17 21.52 20.96 21.64L17.65 23.38C17.33 23.55 16.83 23.55 16.51 23.38L13.2 21.64C12.99 21.53 12.89 21.36 12.88 21.18C12.88 21.17 12.88 21.15 12.88 21.14V12.47C12.88 12.47 12.88 12.45 12.88 12.43V12.41C12.89 12.25 13 12.1 13.2 12L16.51 10.26C16.83 10.09 17.33 10.09 17.65 10.26L20.96 12C21.16 12.1 21.26 12.26 21.28 12.41V21.18ZM22.34 12.64H21.82C21.82 12.3 21.78 12.08 21.7 11.93C21.64 11.8 21.54 11.7 21.37 11.58H21.36C21.36 11.58 21.27 11.52 21.23 11.49L21.17 11.45L20.98 11.34L21.25 10.89L21.46 11.02L21.49 11.04C21.55 11.08 21.6 11.11 21.65 11.14C22.15 11.48 22.33 11.85 22.34 12.61V12.64Z" fill="#213147"/>
</g>
<defs>
<clipPath id="clip0_298_317">
<rect width="32" height="32" fill="white"/>
</clipPath>
</defs>
</svg>
