<svg width="33" height="33" viewBox="0 0 33 33" fill="none" xmlns="http://www.w3.org/2000/svg">
<path d="M7.35999 15.08C7.36999 15.02 7.38999 14.97 7.39999 14.91L6.23 14.33C6.19 14.81 6.16999 15.29 6.19999 15.77L7.19999 16.23C7.22999 15.85 7.27999 15.46 7.35999 15.08Z" fill="#213147"/>
<path d="M6.36 17.05C6.4 17.26 6.44 17.48 6.5 17.69C6.52 17.77 6.53 17.81 6.55 17.93V17.95C6.58 18.1 6.64 18.25 6.71 18.38C6.8 18.58 6.99 18.94 7.21 19.34C7.3 19.5 7.4 19.65 7.5 19.8C7.3 19.03 7.19 18.23 7.17 17.41L6.37 17.04L6.36 17.05Z" fill="#213147"/>
<path d="M7.38999 10.53C6.92999 11.37 6.59999 12.27 6.39999 13.19L7.69999 13.84C9.34999 8.80002 14.54 5.67002 19.87 6.73002C20.19 6.79002 20.5 6.88002 20.8 6.97002C20.71 6.90002 20.62 6.83002 20.53 6.77002C15.86 4.18002 9.97999 5.87002 7.39999 10.54L7.38999 10.53Z" fill="#213147"/>
<path d="M16.81 0.200012C7.97 0.200012 0.809998 7.36001 0.809998 16.2C0.809998 25.04 7.97 32.2 16.81 32.2C25.65 32.2 32.81 25.04 32.81 16.2C32.81 7.36001 25.65 0.200012 16.81 0.200012ZM17.79 27.79C14.76 27.79 12.04 26.52 10.1 24.49C9.24 23.91 8.37 22.94 7.51 21.68C7.1 21.08 6.72 20.45 6.37 19.82C6.14 19.4 5.94 19.02 5.84 18.81C5.73 18.6 5.66 18.38 5.61 18.15V18.12C5.59 18.03 5.58 18 5.57 17.94C4.06 12.26 7.44 6.44001 13.12 4.93001C15.79 4.22001 18.62 4.58001 21.03 5.92001L21.07 5.95001C22.12 6.68001 23.23 7.65001 24.4 8.83001C27.42 11.23 29.03 15.19 28.23 19.23C27.24 24.2 22.87 27.79 17.8 27.79H17.79Z" fill="#213147"/>
<path d="M14.22 13.24V16.36L17.19 14.8L14.22 13.24Z" fill="#213147"/>
<path d="M17.32 19.13L14.22 17.49V21.35L17.32 22.98C17.5 23.08 17.69 23.17 17.88 23.18H17.89C18.08 23.18 18.25 23.09 18.44 23L21.57 21.34V17.49L18.46 19.13C18.14 19.3 17.64 19.3 17.32 19.13Z" fill="#213147"/>
<path d="M14.27 16.93L17.57 18.68C17.59 18.69 17.61 18.7 17.64 18.71V15.14C17.64 15.14 17.59 15.16 17.57 15.17L14.27 16.92V16.93Z" fill="#213147"/>
<path d="M18.16 18.73C18.16 18.73 18.21 18.71 18.23 18.7L21.53 16.95L18.23 15.2C18.23 15.2 18.19 15.18 18.16 15.17V18.74V18.73Z" fill="#213147"/>
<path d="M14.27 12.68L17.58 14.43C17.75 14.52 18.06 14.52 18.24 14.43L21.55 12.68L18.24 10.93C18.07 10.84 17.76 10.84 17.58 10.93L14.27 12.68Z" fill="#213147"/>
<path d="M21.57 16.36V13.24L18.6 14.8L21.57 16.36Z" fill="#213147"/>
<path d="M24.61 10.33C20.84 6.56 14.72 6.56 10.95 10.33C10.5 10.78 10.1 11.27 9.75001 11.79C6.79 16.22 7.98001 22.22 12.41 25.18C14 26.24 15.87 26.81 17.78 26.81C21.69 26.81 25.21 24.46 26.7 20.85C28.19 17.24 27.37 13.09 24.61 10.33ZM13.74 22.94L13.53 22.81L13.5 22.79C13.44 22.75 13.39 22.72 13.34 22.69C12.84 22.35 12.66 21.98 12.65 21.21V21.19H13.17C13.17 21.53 13.21 21.75 13.29 21.9C13.35 22.03 13.45 22.13 13.62 22.25C13.62 22.25 13.7 22.31 13.75 22.34L13.81 22.38L14 22.49L13.73 22.94H13.74ZM22.09 21.38C22.09 21.55 21.98 21.72 21.77 21.84L18.46 23.58C18.14 23.75 17.64 23.75 17.32 23.58L14.01 21.84C13.8 21.73 13.7 21.56 13.69 21.38C13.69 21.37 13.69 21.35 13.69 21.34V12.67C13.69 12.67 13.69 12.65 13.69 12.63V12.61C13.7 12.45 13.81 12.3 14.01 12.2L17.32 10.46C17.64 10.29 18.14 10.29 18.46 10.46L21.77 12.2C21.97 12.3 22.07 12.46 22.09 12.61V21.38ZM23.15 12.84H22.63C22.63 12.5 22.59 12.28 22.51 12.13C22.45 12 22.35 11.9 22.18 11.78H22.17C22.17 11.78 22.08 11.72 22.04 11.69L21.98 11.65L21.79 11.54L22.06 11.09L22.27 11.22L22.3 11.24C22.36 11.28 22.41 11.31 22.46 11.34C22.96 11.68 23.14 12.05 23.15 12.81V12.83V12.84Z" fill="#213147"/>
</svg>
