<svg width="33" height="33" viewBox="0 0 33 33" fill="none" xmlns="http://www.w3.org/2000/svg">
<path d="M16.2 32.25C25.04 32.25 32.2 25.09 32.2 16.25C32.2 7.41 25.04 0.25 16.2 0.25C7.36 0.25 0.199997 7.41 0.199997 16.25C0.199997 25.09 7.36 32.25 16.2 32.25Z" fill="white"/>
<path d="M11.58 27.94C17.56 27.94 17.56 27.85 18.58 27.55C19.91 27.16 14.84 23.65 11.58 23.65C8.32 23.65 5.69 24.61 5.69 25.8C5.69 26.99 8.33 27.95 11.58 27.95V27.94Z" fill="black"/>
<path d="M20.52 6.81C15.85 4.22 9.97001 5.91 7.39001 10.58C6.18001 12.76 5.86001 15.33 6.50001 17.74C6.52001 17.82 6.53001 17.86 6.55001 17.98V18C6.58001 18.15 6.64001 18.3 6.71001 18.43C6.80001 18.63 6.99001 18.99 7.21001 19.39C7.55001 19.99 7.92001 20.6 8.31001 21.17C9.36001 22.71 10.41 23.76 11.31 24.06C12.51 24.46 17.03 19.68 24.18 10.05C22.88 8.68 21.67 7.6 20.53 6.8L20.52 6.81Z" fill="#D83878"/>
<path d="M24.39 8.87999C23.23 7.69999 22.12 6.72999 21.06 5.99999L21.02 5.96999C18.61 4.62999 15.78 4.26999 13.11 4.97999C7.43 6.48999 4.05 12.31 5.56 17.99C5.57 18.04 5.58 18.07 5.6 18.17V18.2C5.65 18.43 5.73 18.65 5.83 18.86C5.93 19.07 6.13 19.46 6.36 19.87C6.71 20.5 7.09 21.13 7.5 21.73C8.36 22.99 9.23 23.97 10.09 24.54C12.03 26.57 14.75 27.84 17.78 27.84C22.85 27.84 27.22 24.26 28.21 19.28C29.01 15.24 27.4 11.28 24.38 8.87999H24.39ZM6.2 15.82C6.17 15.34 6.19 14.86 6.23 14.38L7.4 14.96C7.39 15.02 7.37 15.07 7.36 15.13C7.28 15.51 7.23 15.89 7.2 16.28L6.2 15.82ZM20.52 6.80999C20.61 6.86999 20.7 6.94999 20.79 7.00999C20.48 6.91999 20.18 6.83999 19.86 6.76999C14.53 5.70999 9.34 8.83999 7.69 13.88L6.39 13.23C6.59 12.31 6.92 11.41 7.38 10.57C9.97 5.89999 15.85 4.20999 20.51 6.79999L20.52 6.80999ZM7.21 19.4C6.99 19 6.8 18.64 6.71 18.44C6.64 18.3 6.59 18.16 6.56 18.01V17.99C6.53 17.87 6.52 17.83 6.5 17.75C6.44 17.54 6.4 17.32 6.36 17.11L7.16 17.48C7.18 18.3 7.3 19.1 7.49 19.87C7.4 19.71 7.29 19.56 7.2 19.41L7.21 19.4Z" fill="black"/>
<path d="M17.79 26.86C21.7 26.86 25.22 24.51 26.71 20.9C28.2 17.29 27.38 13.14 24.62 10.38C20.85 6.60999 14.73 6.60999 10.96 10.38C10.51 10.83 10.11 11.32 9.76 11.84C6.8 16.27 7.99 22.27 12.42 25.23C14.01 26.29 15.88 26.86 17.79 26.86Z" fill="white"/>
<path d="M17.24 10.69C17.56 10.52 18.06 10.52 18.38 10.69L21.69 12.43C21.89 12.53 21.99 12.69 22.01 12.84V21.61C22.01 21.78 21.9 21.95 21.69 22.07L18.38 23.81C18.06 23.98 17.56 23.98 17.24 23.81L13.93 22.07C13.72 21.96 13.62 21.79 13.61 21.61C13.61 21.6 13.61 21.58 13.61 21.57V12.9C13.61 12.9 13.61 12.88 13.61 12.86V12.84C13.62 12.68 13.73 12.53 13.93 12.43L17.24 10.69ZM21.49 17.72L18.38 19.36C18.06 19.53 17.56 19.53 17.24 19.36L14.14 17.72V21.58L17.24 23.21C17.42 23.31 17.61 23.4 17.8 23.41H17.81C18 23.41 18.17 23.32 18.36 23.23L21.49 21.57V17.72ZM13.1 21.42C13.1 21.76 13.14 21.98 13.22 22.13C13.28 22.26 13.38 22.36 13.55 22.48H13.56C13.56 22.48 13.64 22.54 13.69 22.57L13.75 22.61L13.94 22.72L13.67 23.16L13.46 23.03L13.43 23.01C13.37 22.97 13.32 22.94 13.27 22.91C12.77 22.57 12.59 22.2 12.58 21.43V21.41H13.1V21.42ZM17.56 15.39C17.56 15.39 17.51 15.41 17.49 15.42L14.19 17.17L17.49 18.92C17.51 18.93 17.53 18.94 17.56 18.95V15.38V15.39ZM18.09 15.39V18.96C18.09 18.96 18.14 18.94 18.16 18.93L21.46 17.18L18.16 15.43C18.16 15.43 18.12 15.41 18.09 15.4V15.39ZM21.49 13.47L18.52 15.03L21.49 16.59V13.47ZM14.14 13.47V16.59L17.11 15.03L14.14 13.47ZM18.16 11.15C17.99 11.06 17.68 11.06 17.5 11.15L14.19 12.9L17.5 14.65C17.67 14.74 17.98 14.74 18.16 14.65L21.47 12.9L18.16 11.15ZM21.99 11.33L22.2 11.46L22.23 11.48C22.29 11.52 22.34 11.55 22.39 11.58C22.89 11.92 23.07 12.29 23.08 13.06V13.08H22.56C22.56 12.74 22.52 12.52 22.44 12.37C22.38 12.24 22.28 12.14 22.11 12.02H22.1C22.1 12.02 22.01 11.96 21.97 11.93L21.91 11.89L21.72 11.78L21.99 11.34V11.33Z" fill="#3367F5"/>
</svg>
