<svg width="32" height="32" viewBox="0 0 32 32" fill="none" xmlns="http://www.w3.org/2000/svg">
<g clip-path="url(#clip0_298_319)">
<path d="M16 32C24.84 32 32 24.84 32 16C32 7.16 24.84 0 16 0C7.16 0 0 7.16 0 16C0 24.84 7.16 32 16 32Z" fill="white"/>
<path d="M11.38 27.69C17.36 27.69 17.36 27.6 18.38 27.3C19.71 26.91 14.64 23.4 11.38 23.4C8.12 23.4 5.49001 24.36 5.49001 25.55C5.49001 26.74 8.13 27.7 11.38 27.7V27.69Z" fill="black"/>
<path d="M20.32 6.56C15.65 3.97 9.77 5.66 7.19 10.33C5.98 12.51 5.66 15.08 6.3 17.49C6.32 17.57 6.33001 17.61 6.35001 17.73V17.75C6.38001 17.9 6.44 18.05 6.51 18.18C6.6 18.38 6.79 18.74 7.01 19.14C7.35 19.74 7.72 20.35 8.11 20.92C9.16 22.46 10.21 23.51 11.11 23.81C12.31 24.21 16.83 19.43 23.98 9.8C22.68 8.43 21.47 7.35 20.33 6.55L20.32 6.56Z" fill="#D83878"/>
<path d="M24.19 8.63C23.03 7.45 21.92 6.48 20.86 5.75L20.82 5.72C18.41 4.38 15.58 4.02 12.91 4.73C7.23 6.24 3.85 12.06 5.36 17.74C5.37 17.79 5.38 17.82 5.4 17.92V17.95C5.45 18.18 5.53 18.4 5.63 18.61C5.73 18.82 5.93 19.21 6.16 19.62C6.51 20.25 6.89 20.88 7.3 21.48C8.16 22.74 9.03 23.72 9.89 24.29C11.83 26.32 14.55 27.59 17.58 27.59C22.65 27.59 27.02 24.01 28.01 19.03C28.81 14.99 27.2 11.03 24.18 8.63H24.19ZM6 15.57C5.97 15.09 5.99001 14.61 6.03001 14.13L7.2 14.71C7.19 14.77 7.17 14.82 7.16 14.88C7.08 15.26 7.03 15.64 7 16.03L6 15.57ZM20.32 6.56C20.41 6.62 20.5 6.7 20.59 6.76C20.28 6.67 19.98 6.59 19.66 6.52C14.33 5.46 9.14001 8.59 7.49001 13.63L6.19 12.98C6.39 12.06 6.72 11.16 7.18 10.32C9.77 5.65 15.65 3.96 20.31 6.55L20.32 6.56ZM7.01 19.15C6.79 18.75 6.6 18.39 6.51 18.19C6.44 18.05 6.39 17.91 6.36 17.76V17.74C6.33 17.62 6.32 17.58 6.3 17.5C6.24 17.29 6.2 17.07 6.16 16.86L6.96001 17.23C6.98001 18.05 7.1 18.85 7.29 19.62C7.2 19.46 7.09 19.31 7 19.16L7.01 19.15Z" fill="black"/>
<path d="M17.59 26.61C21.5 26.61 25.02 24.26 26.51 20.65C28 17.04 27.18 12.89 24.42 10.13C20.65 6.36 14.53 6.36 10.76 10.13C10.31 10.58 9.91001 11.07 9.56001 11.59C6.60001 16.02 7.79 22.02 12.22 24.98C13.81 26.04 15.68 26.61 17.59 26.61Z" fill="white"/>
<path d="M17.04 10.44C17.36 10.27 17.86 10.27 18.18 10.44L21.49 12.18C21.69 12.28 21.79 12.44 21.81 12.59V21.36C21.81 21.53 21.7 21.7 21.49 21.82L18.18 23.56C17.86 23.73 17.36 23.73 17.04 23.56L13.73 21.82C13.52 21.71 13.42 21.54 13.41 21.36C13.41 21.35 13.41 21.33 13.41 21.32V12.65C13.41 12.65 13.41 12.63 13.41 12.61V12.59C13.42 12.43 13.53 12.28 13.73 12.18L17.04 10.44ZM21.29 17.47L18.18 19.11C17.86 19.28 17.36 19.28 17.04 19.11L13.94 17.47V21.33L17.04 22.96C17.22 23.06 17.41 23.15 17.6 23.16H17.61C17.8 23.16 17.97 23.07 18.16 22.98L21.29 21.32V17.47ZM12.9 21.17C12.9 21.51 12.94 21.73 13.02 21.88C13.08 22.01 13.18 22.11 13.35 22.23H13.36C13.36 22.23 13.44 22.29 13.49 22.32L13.55 22.36L13.74 22.47L13.47 22.91L13.26 22.78L13.23 22.76C13.17 22.72 13.12 22.69 13.07 22.66C12.57 22.32 12.39 21.95 12.38 21.18V21.16H12.9V21.17ZM17.36 15.14C17.36 15.14 17.31 15.16 17.29 15.17L13.99 16.92L17.29 18.67C17.31 18.68 17.33 18.69 17.36 18.7V15.13V15.14ZM17.89 15.14V18.71C17.89 18.71 17.94 18.69 17.96 18.68L21.26 16.93L17.96 15.18C17.96 15.18 17.92 15.16 17.89 15.15V15.14ZM21.29 13.22L18.32 14.78L21.29 16.34V13.22ZM13.94 13.22V16.34L16.91 14.78L13.94 13.22ZM17.96 10.9C17.79 10.81 17.48 10.81 17.3 10.9L13.99 12.65L17.3 14.4C17.47 14.49 17.78 14.49 17.96 14.4L21.27 12.65L17.96 10.9ZM21.79 11.08L22 11.21L22.03 11.23C22.09 11.27 22.14 11.3 22.19 11.33C22.69 11.67 22.87 12.04 22.88 12.81V12.83H22.36C22.36 12.49 22.32 12.27 22.24 12.12C22.18 11.99 22.08 11.89 21.91 11.77H21.9C21.9 11.77 21.81 11.71 21.77 11.68L21.71 11.64L21.52 11.53L21.79 11.09V11.08Z" fill="#3367F5"/>
</g>
<defs>
<clipPath id="clip0_298_319">
<rect width="32" height="32" fill="white"/>
</clipPath>
</defs>
</svg>
