<svg width="32" height="32" viewBox="0 0 32 32" fill="none" xmlns="http://www.w3.org/2000/svg">
<g clip-path="url(#clip0_297_199)">
<path d="M16 32C24.84 32 32 24.84 32 16C32 7.16 24.84 0 16 0C7.16 0 0 7.16 0 16C0 24.84 7.16 32 16 32Z" fill="white"/>
<path d="M21.44 20.06L26.76 16.99C27.04 16.83 27.22 16.53 27.22 16.2V10.06C27.22 9.74 27.05 9.43 26.76 9.27L21.44 6.2C21.16 6.04 20.81 6.04 20.53 6.2L15.21 9.27C14.93 9.43 14.75 9.73 14.75 10.06V21.03L11.02 23.18L7.28998 21.03V16.73L11.02 14.58L13.48 16V13.11L11.48 11.95C11.2 11.79 10.85 11.79 10.57 11.95L5.25 15.02C4.97 15.18 4.78998 15.48 4.78998 15.81V21.95C4.78998 22.27 4.96 22.58 5.25 22.74L10.57 25.81C10.85 25.97 11.2 25.97 11.48 25.81L16.8 22.74C17.08 22.58 17.26 22.28 17.26 21.95V10.98L17.33 10.94L20.99 8.83L24.72 10.98V15.28L20.99 17.43L18.53 16.01V18.9L20.53 20.05C20.81 20.21 21.16 20.21 21.44 20.05V20.06Z" fill="url(#paint0_linear_297_199)"/>
</g>
<defs>
<linearGradient id="paint0_linear_297_199" x1="6.69998" y1="22.78" x2="25.96" y2="8.73994" gradientUnits="userSpaceOnUse">
<stop stop-color="#9932B9"/>
<stop offset="0.88" stop-color="#773FD6"/>
<stop offset="1" stop-color="#7342DB"/>
</linearGradient>
<clipPath id="clip0_297_199">
<rect width="32" height="32" fill="white"/>
</clipPath>
</defs>
</svg>
