<svg width="33" height="33" viewBox="0 0 33 33" fill="none" xmlns="http://www.w3.org/2000/svg">
<path d="M16.92 0.779999C8.08001 0.779999 0.920013 7.94 0.920013 16.78C0.920013 25.62 8.08001 32.78 16.92 32.78C25.76 32.78 32.92 25.62 32.92 16.78C32.92 7.94 25.76 0.779999 16.92 0.779999ZM26.47 16.94C26.47 17.22 26.32 17.47 26.08 17.61L21.55 20.22C21.31 20.36 21.01 20.36 20.77 20.22L19.07 19.24V16.78L21.16 17.99L24.33 16.16V12.49L21.16 10.66L18.04 12.46L17.98 12.49V21.83C17.98 22.11 17.83 22.36 17.59 22.5L13.06 25.11C12.82 25.25 12.52 25.25 12.28 25.11L7.75 22.5C7.51 22.36 7.35999 22.1 7.35999 21.83V16.6C7.35999 16.32 7.51 16.07 7.75 15.93L12.28 13.32C12.52 13.18 12.82 13.18 13.06 13.32L14.77 14.3V16.76L12.68 15.55L9.51001 17.38V21.05L12.68 22.88L15.85 21.05V11.71C15.85 11.43 16 11.18 16.24 11.04L20.77 8.43C21.01 8.29 21.31 8.29 21.55 8.43L26.08 11.04C26.32 11.18 26.47 11.44 26.47 11.71V16.94Z" fill="#213147"/>
</svg>
