<svg width="32" height="32" viewBox="0 0 32 32" fill="none" xmlns="http://www.w3.org/2000/svg">
<g clip-path="url(#clip0_297_197)">
<path d="M16 0C7.16 0 0 7.16 0 16C0 24.84 7.16 32 16 32C24.84 32 32 24.84 32 16C32 7.16 24.84 0 16 0ZM25.55 16.16C25.55 16.44 25.4 16.69 25.16 16.83L20.63 19.44C20.39 19.58 20.09 19.58 19.85 19.44L18.15 18.46V16L20.24 17.21L23.41 15.38V11.71L20.24 9.88L17.12 11.68L17.06 11.71V21.05C17.06 21.33 16.91 21.58 16.67 21.72L12.14 24.33C11.9 24.47 11.6 24.47 11.36 24.33L6.82999 21.72C6.58999 21.58 6.43997 21.32 6.43997 21.05V15.82C6.43997 15.54 6.58999 15.29 6.82999 15.15L11.36 12.54C11.6 12.4 11.9 12.4 12.14 12.54L13.85 13.52V15.98L11.76 14.77L8.59 16.6V20.27L11.76 22.1L14.93 20.27V10.93C14.93 10.65 15.08 10.4 15.32 10.26L19.85 7.65C20.09 7.51 20.39 7.51 20.63 7.65L25.16 10.26C25.4 10.4 25.55 10.66 25.55 10.93V16.16Z" fill="#213147"/>
</g>
<defs>
<clipPath id="clip0_297_197">
<rect width="32" height="32" fill="white"/>
</clipPath>
</defs>
</svg>
