<svg width="33" height="33" viewBox="0 0 33 33" fill="none" xmlns="http://www.w3.org/2000/svg">
<path d="M16.92 32.45C25.76 32.45 32.92 25.29 32.92 16.45C32.92 7.61001 25.76 0.450012 16.92 0.450012C8.08001 0.450012 0.920013 7.61001 0.920013 16.45C0.920013 25.29 8.08001 32.45 16.92 32.45Z" fill="white"/>
<path d="M22.36 20.51L27.68 17.44C27.96 17.28 28.14 16.98 28.14 16.65V10.51C28.14 10.19 27.97 9.88001 27.68 9.72001L22.36 6.65001C22.08 6.49001 21.73 6.49001 21.45 6.65001L16.13 9.72001C15.85 9.88001 15.67 10.18 15.67 10.51V21.48L11.94 23.63L8.20999 21.48V17.18L11.94 15.03L14.4 16.45V13.56L12.4 12.4C12.12 12.24 11.77 12.24 11.49 12.4L6.17001 15.47C5.89001 15.63 5.70999 15.93 5.70999 16.26V22.4C5.70999 22.72 5.88001 23.03 6.17001 23.19L11.49 26.26C11.77 26.42 12.12 26.42 12.4 26.26L17.72 23.19C18 23.03 18.18 22.73 18.18 22.4V11.43L18.25 11.39L21.91 9.28001L25.64 11.43V15.73L21.91 17.88L19.45 16.46V19.35L21.45 20.5C21.73 20.66 22.08 20.66 22.36 20.5V20.51Z" fill="url(#paint0_linear_66_10884)"/>
<defs>
<linearGradient id="paint0_linear_66_10884" x1="7.61999" y1="23.23" x2="26.88" y2="9.19" gradientUnits="userSpaceOnUse">
<stop stop-color="#9932B9"/>
<stop offset="0.88" stop-color="#773FD6"/>
<stop offset="1" stop-color="#7342DB"/>
</linearGradient>
</defs>
</svg>
