<svg width="32" height="32" viewBox="0 0 32 32" fill="none" xmlns="http://www.w3.org/2000/svg">
<g clip-path="url(#clip0_297_116)">
<path d="M16 32C24.84 32 32 24.84 32 16C32 7.16 24.84 0 16 0C7.16 0 0 7.16 0 16C0 24.84 7.16 32 16 32Z" fill="white"/>
<path d="M11.38 27.69C17.36 27.69 17.36 27.6 18.38 27.3C19.71 26.91 14.64 23.4 11.38 23.4C8.12 23.4 5.48999 24.36 5.48999 25.55C5.48999 26.74 8.13 27.7 11.38 27.7V27.69Z" fill="black"/>
<path d="M20.32 6.57C15.65 3.98 9.77 5.67 7.19 10.34C5.98 12.52 5.66 15.09 6.3 17.5C6.32 17.58 6.32999 17.62 6.34999 17.74V17.76C6.37999 17.91 6.43999 18.06 6.50999 18.19C6.59999 18.39 6.78999 18.75 7.00999 19.15C7.34999 19.75 7.71999 20.36 8.10999 20.93C9.15999 22.47 10.21 23.52 11.11 23.82C12.31 24.22 16.83 19.44 23.98 9.81C22.68 8.44 21.47 7.36 20.33 6.56L20.32 6.57Z" fill="#D83878"/>
<path d="M17.58 26.62C21.49 26.62 25.01 24.27 26.5 20.66C27.99 17.05 27.17 12.9 24.41 10.14C20.64 6.37 14.52 6.37 10.75 10.14C10.3 10.59 9.9 11.08 9.55 11.6C6.59 16.03 7.77999 22.03 12.21 24.99C13.8 26.05 15.67 26.62 17.58 26.62Z" fill="white"/>
<path d="M24.18 8.64C23.02 7.46 21.91 6.49 20.85 5.76L20.81 5.73C18.4 4.39 15.57 4.03 12.9 4.74C7.21999 6.25 3.83999 12.07 5.34999 17.75C5.35999 17.8 5.37 17.83 5.39 17.93V17.96C5.44 18.19 5.52 18.41 5.62 18.62C5.72 18.83 5.91999 19.22 6.14999 19.63C6.49999 20.26 6.87999 20.89 7.28999 21.49C8.14999 22.75 9.02 23.73 9.88 24.3C11.82 26.33 14.54 27.6 17.57 27.6C22.64 27.6 27.01 24.02 28 19.04C28.8 15 27.19 11.04 24.17 8.64H24.18ZM5.98999 15.57C5.95999 15.09 5.98 14.61 6.02 14.13L7.19 14.71C7.18 14.77 7.15999 14.82 7.14999 14.88C7.06999 15.26 7.01999 15.64 6.98999 16.03L5.98999 15.57ZM20.32 6.57C20.41 6.63 20.5 6.71 20.59 6.77C20.28 6.68 19.98 6.6 19.66 6.53C14.33 5.47 9.13999 8.6 7.48999 13.64L6.19 12.99C6.39 12.07 6.71999 11.17 7.17999 10.33C9.76999 5.66 15.65 3.97 20.31 6.56L20.32 6.57ZM7.00999 19.15C6.78999 18.75 6.59999 18.39 6.50999 18.19C6.43999 18.05 6.39 17.91 6.36 17.76V17.74C6.33 17.62 6.32 17.58 6.3 17.5C6.24 17.29 6.2 17.07 6.16 16.86L6.95999 17.23C6.97999 18.05 7.09999 18.85 7.28999 19.62C7.19999 19.46 7.09 19.31 7 19.16L7.00999 19.15Z" fill="black"/>
<path d="M17.55 26.55C22.863 26.55 27.17 22.243 27.17 16.93C27.17 11.617 22.863 7.31 17.55 7.31C12.237 7.31 7.92999 11.617 7.92999 16.93C7.92999 22.243 12.237 26.55 17.55 26.55Z" fill="white"/>
<path d="M20.85 11.16C19.49 11.16 18.37 12.28 18.34 13.64V16.41C18.09 16.41 17.84 16.45 17.55 16.45C17.26 16.45 17.01 16.45 16.76 16.49V13.65C16.76 12.28 15.61 11.17 14.21 11.2C12.88 11.2 11.81 12.32 11.77 13.65V20.27C11.81 21.64 12.92 22.75 14.32 22.72C15.68 22.68 16.76 21.6 16.76 20.27V17.5C17.01 17.5 17.26 17.46 17.55 17.46C17.84 17.46 18.09 17.46 18.34 17.42V20.23C18.38 21.6 19.49 22.71 20.89 22.68C22.25 22.64 23.33 21.56 23.33 20.23V13.65C23.33 12.28 22.22 11.17 20.85 11.17V11.16ZM14.29 12.16C15.11 12.16 15.76 12.81 15.76 13.64V16.55C15.04 16.66 14.33 16.87 13.64 17.16C13.35 17.3 13.07 17.45 12.82 17.66V13.63C12.82 12.84 13.47 12.15 14.29 12.15V12.16ZM15.76 20.26C15.76 21.09 15.11 21.74 14.29 21.74C13.47 21.74 12.82 21.09 12.82 20.26V19.61C12.82 19.03 13.29 18.46 14.08 18.13C14.62 17.88 15.19 17.73 15.8 17.63L15.76 20.26ZM20.85 21.73C20.02 21.73 19.38 21.08 19.38 20.25V17.34C20.1 17.23 20.81 17.02 21.5 16.73C21.79 16.59 22.07 16.44 22.33 16.23V20.26C22.33 21.09 21.65 21.74 20.86 21.74L20.85 21.73ZM21.06 15.8C20.52 16.05 19.95 16.2 19.34 16.3V13.64C19.34 12.81 19.99 12.16 20.81 12.16C21.63 12.16 22.28 12.81 22.28 13.64V14.29C22.32 14.9 21.85 15.44 21.06 15.8Z" fill="url(#paint0_linear_297_116)"/>
</g>
<defs>
<linearGradient id="paint0_linear_297_116" x1="20.44" y1="14.05" x2="12.45" y2="22.02" gradientUnits="userSpaceOnUse">
<stop stop-color="#6AE4A6"/>
<stop offset="1" stop-color="#4DA9E2"/>
</linearGradient>
<clipPath id="clip0_297_116">
<rect width="32" height="32" fill="white"/>
</clipPath>
</defs>
</svg>
