<svg width="33" height="33" viewBox="0 0 33 33" fill="none" xmlns="http://www.w3.org/2000/svg">
<path d="M7.34 15.66C7.35 15.6 7.37001 15.55 7.38001 15.49L6.21001 14.91C6.17001 15.39 6.15 15.87 6.18 16.35L7.18 16.81C7.21 16.43 7.26 16.04 7.34 15.66Z" fill="#213147"/>
<path d="M6.35001 17.62C6.39001 17.83 6.43001 18.05 6.49001 18.26C6.51001 18.34 6.51999 18.38 6.53999 18.5V18.52C6.56999 18.67 6.63 18.82 6.7 18.95C6.79 19.15 6.98 19.51 7.2 19.91C7.29 20.07 7.39001 20.22 7.49001 20.37C7.29001 19.6 7.18 18.8 7.16 17.98L6.36 17.61L6.35001 17.62Z" fill="#213147"/>
<path d="M7.37 11.11C6.91 11.95 6.58 12.85 6.38 13.77L7.67999 14.42C9.32999 9.38 14.52 6.25001 19.85 7.31001C20.17 7.37001 20.48 7.46001 20.78 7.55001C20.69 7.48001 20.6 7.41001 20.51 7.35001C15.84 4.76001 9.96 6.45001 7.38 11.12L7.37 11.11Z" fill="#213147"/>
<path d="M16.79 0.779999C7.94999 0.779999 0.789993 7.94 0.789993 16.78C0.789993 25.62 7.94999 32.78 16.79 32.78C25.63 32.78 32.79 25.62 32.79 16.78C32.79 7.94 25.63 0.779999 16.79 0.779999ZM17.77 28.37C14.74 28.37 12.02 27.1 10.08 25.07C9.22 24.49 8.35001 23.52 7.49001 22.26C7.08001 21.66 6.70001 21.03 6.35001 20.4C6.12001 19.98 5.92001 19.6 5.82001 19.39C5.71001 19.18 5.64 18.96 5.59 18.73V18.7C5.57 18.61 5.56 18.58 5.55 18.52C4.04 12.84 7.42001 7.02 13.1 5.51C15.77 4.8 18.6 5.16 21.01 6.5L21.05 6.53C22.1 7.26 23.21 8.23 24.38 9.41C27.4 11.81 29.01 15.77 28.21 19.81C27.22 24.78 22.85 28.37 17.78 28.37H17.77Z" fill="#213147"/>
<path d="M13 20.38V21.03C13 21.86 13.65 22.51 14.47 22.51C15.29 22.51 15.94 21.86 15.94 21.03L15.98 18.4C15.37 18.51 14.8 18.65 14.26 18.9C13.47 19.22 13 19.8 13 20.38Z" fill="#213147"/>
<path d="M22.47 15.06V14.41C22.47 13.58 21.82 12.94 21 12.94C20.18 12.94 19.53 13.59 19.53 14.41V17.07C20.14 16.96 20.71 16.82 21.25 16.57C22.04 16.21 22.51 15.67 22.47 15.06Z" fill="#213147"/>
<path d="M15.95 17.32V14.41C15.95 13.58 15.3 12.94 14.48 12.94C13.66 12.94 13.01 13.62 13.01 14.41V18.44C13.26 18.22 13.55 18.08 13.84 17.94C14.52 17.65 15.24 17.44 15.96 17.33L15.95 17.32Z" fill="#213147"/>
<path d="M19.57 18.12V21.03C19.57 21.86 20.22 22.51 21.04 22.51C21.86 22.51 22.51 21.86 22.51 21.03V17C22.26 17.22 21.97 17.36 21.68 17.5C21 17.79 20.28 18 19.56 18.11L19.57 18.12Z" fill="#213147"/>
<path d="M24.6 10.91C20.83 7.13999 14.71 7.13999 10.94 10.91C10.49 11.36 10.09 11.85 9.74 12.37C6.78 16.8 7.96999 22.8 12.4 25.76C13.99 26.82 15.86 27.39 17.77 27.39C21.68 27.39 25.2 25.04 26.69 21.43C28.18 17.82 27.36 13.67 24.6 10.91ZM23.51 20.99C23.51 22.32 22.43 23.4 21.07 23.44C19.67 23.48 18.56 22.36 18.52 20.99V18.18C18.27 18.22 18.02 18.22 17.73 18.22C17.44 18.22 17.19 18.26 16.94 18.26V21.03C16.94 22.36 15.86 23.44 14.5 23.48C13.1 23.52 11.99 22.4 11.95 21.03V14.41C11.99 13.08 13.06 11.96 14.39 11.96C15.79 11.92 16.94 13.04 16.94 14.41V17.25C17.19 17.21 17.44 17.21 17.73 17.21C18.02 17.21 18.27 17.17 18.52 17.17V14.4C18.56 13.03 19.67 11.92 21.03 11.92C22.39 11.92 23.5 13.04 23.5 14.4V20.98L23.51 20.99Z" fill="#213147"/>
</svg>
