<svg width="33" height="33" viewBox="0 0 33 33" fill="none" xmlns="http://www.w3.org/2000/svg">
<path d="M16.19 32.45C25.03 32.45 32.19 25.29 32.19 16.45C32.19 7.61001 25.03 0.450012 16.19 0.450012C7.35 0.450012 0.190002 7.61001 0.190002 16.45C0.190002 25.29 7.35 32.45 16.19 32.45Z" fill="white"/>
<path d="M11.57 28.14C17.55 28.14 17.55 28.05 18.57 27.75C19.9 27.36 14.83 23.85 11.57 23.85C8.31001 23.85 5.67999 24.81 5.67999 26C5.67999 27.19 8.32001 28.15 11.57 28.15V28.14Z" fill="black"/>
<path d="M20.51 7.02002C15.84 4.43002 9.96 6.12002 7.38 10.79C6.17 12.97 5.85 15.54 6.49 17.95C6.51 18.03 6.51999 18.07 6.53999 18.19V18.21C6.56999 18.36 6.62999 18.51 6.69999 18.64C6.78999 18.84 6.97999 19.2 7.19999 19.6C7.53999 20.2 7.91 20.81 8.3 21.38C9.35 22.92 10.4 23.97 11.3 24.27C12.5 24.67 17.02 19.89 24.17 10.26C22.87 8.89002 21.66 7.81002 20.52 7.01002L20.51 7.02002Z" fill="#D83878"/>
<path d="M17.77 27.07C21.68 27.07 25.2 24.72 26.69 21.11C28.18 17.5 27.36 13.35 24.6 10.59C20.83 6.82001 14.71 6.82001 10.94 10.59C10.49 11.04 10.09 11.53 9.74 12.05C6.78 16.48 7.96999 22.48 12.4 25.44C13.99 26.5 15.86 27.07 17.77 27.07Z" fill="white"/>
<path d="M24.37 9.09001C23.21 7.91001 22.1 6.94001 21.04 6.21001L21 6.18001C18.59 4.84001 15.76 4.48001 13.09 5.19001C7.41 6.70001 4.02999 12.52 5.53999 18.2C5.54999 18.25 5.56 18.28 5.58 18.38V18.41C5.63 18.64 5.71 18.86 5.81 19.07C5.91 19.28 6.11 19.67 6.34 20.08C6.69 20.71 7.07 21.34 7.48 21.94C8.34 23.2 9.21001 24.18 10.07 24.75C12.01 26.78 14.73 28.05 17.76 28.05C22.83 28.05 27.2 24.47 28.19 19.49C28.99 15.45 27.38 11.49 24.36 9.09001H24.37ZM6.17999 16.02C6.14999 15.54 6.17001 15.06 6.21001 14.58L7.38 15.16C7.37 15.22 7.35 15.27 7.34 15.33C7.26 15.71 7.20999 16.09 7.17999 16.48L6.17999 16.02ZM20.51 7.02001C20.6 7.08001 20.69 7.16001 20.78 7.22001C20.47 7.13001 20.17 7.05001 19.85 6.98001C14.52 5.92001 9.32999 9.05001 7.67999 14.09L6.38 13.44C6.58 12.52 6.91 11.62 7.37 10.78C9.96 6.11001 15.84 4.42001 20.5 7.01001L20.51 7.02001ZM7.2 19.6C6.98 19.2 6.79 18.84 6.7 18.64C6.63 18.5 6.58 18.36 6.55 18.21V18.19C6.52 18.07 6.51001 18.03 6.49001 17.95C6.43001 17.74 6.39001 17.52 6.35001 17.31L7.14999 17.68C7.16999 18.5 7.29 19.3 7.48 20.07C7.39 19.91 7.28 19.76 7.19 19.61L7.2 19.6Z" fill="black"/>
<path d="M17.74 27C23.053 27 27.36 22.693 27.36 17.38C27.36 12.067 23.053 7.76001 17.74 7.76001C12.427 7.76001 8.12 12.067 8.12 17.38C8.12 22.693 12.427 27 17.74 27Z" fill="white"/>
<path d="M21.04 11.61C19.68 11.61 18.56 12.73 18.53 14.09V16.86C18.28 16.86 18.03 16.9 17.74 16.9C17.45 16.9 17.2 16.9 16.95 16.94V14.1C16.95 12.73 15.8 11.62 14.4 11.65C13.07 11.65 12 12.77 11.96 14.1V20.72C12 22.09 13.11 23.2 14.51 23.17C15.87 23.13 16.95 22.05 16.95 20.72V17.95C17.2 17.95 17.45 17.91 17.74 17.91C18.03 17.91 18.28 17.91 18.53 17.87V20.68C18.57 22.05 19.68 23.16 21.08 23.13C22.44 23.09 23.52 22.01 23.52 20.68V14.1C23.52 12.73 22.41 11.62 21.04 11.62V11.61ZM14.48 12.61C15.3 12.61 15.95 13.26 15.95 14.09V17C15.23 17.11 14.52 17.32 13.83 17.61C13.54 17.75 13.26 17.9 13.01 18.11V14.08C13.01 13.29 13.66 12.6 14.48 12.6V12.61ZM15.95 20.71C15.95 21.54 15.3 22.19 14.48 22.19C13.66 22.19 13.01 21.54 13.01 20.71V20.06C13.01 19.48 13.48 18.91 14.27 18.58C14.81 18.33 15.38 18.18 15.99 18.08L15.95 20.71ZM21.04 22.18C20.21 22.18 19.57 21.53 19.57 20.7V17.79C20.29 17.68 21 17.47 21.69 17.18C21.98 17.04 22.26 16.89 22.52 16.68V20.71C22.52 21.54 21.84 22.19 21.05 22.19L21.04 22.18ZM21.25 16.25C20.71 16.5 20.14 16.65 19.53 16.75V14.09C19.53 13.26 20.18 12.61 21 12.61C21.82 12.61 22.47 13.26 22.47 14.09V14.74C22.51 15.35 22.04 15.89 21.25 16.25Z" fill="url(#paint0_linear_66_10887)"/>
<defs>
<linearGradient id="paint0_linear_66_10887" x1="20.63" y1="14.5" x2="12.64" y2="22.47" gradientUnits="userSpaceOnUse">
<stop stop-color="#6AE4A6"/>
<stop offset="1" stop-color="#4DA9E2"/>
</linearGradient>
</defs>
</svg>
