<svg width="33" height="33" viewBox="0 0 33 33" fill="none" xmlns="http://www.w3.org/2000/svg">
<path d="M21.39 16.48L16.09 19.61L10.78 16.48L16.09 26.15L21.39 16.48Z" fill="#213147"/>
<path d="M11.69 13.26L16.1 15.82L20.52 13.28L16.09 10.84L11.69 13.26Z" fill="#213147"/>
<path d="M16.09 0.0300293C7.25 0.0300293 0.0899963 7.19003 0.0899963 16.03C0.0899963 24.87 7.25 32.03 16.09 32.03C24.93 32.03 32.09 24.87 32.09 16.03C32.09 7.19003 24.93 0.0300293 16.09 0.0300293ZM16.06 4.80003C16.06 4.80003 16.06 4.80003 16.07 4.80003C16.07 4.80003 16.07 4.78003 16.09 4.78003C16.09 4.78003 16.1 4.78003 16.11 4.78003H16.13L21.78 13.45L21.68 13.5L16.08 16.7L10.48 13.5C10.48 13.5 10.37 13.46 10.39 13.45L16.04 4.78003L16.06 4.80003ZM24.1 20.24C23.9 22.02 23.08 23.7 21.79 24.96C20.27 26.45 18.25 27.27 16.1 27.27C13.95 27.27 11.93 26.45 10.41 24.96C9.12 23.69 8.3 22.02 8.1 20.24C7.9 18.46 8.33 16.65 9.32 15.14L9.5 14.87L16.1 18.64L22.59 14.93C22.59 14.93 22.7 14.85 22.71 14.86L22.89 15.13C23.87 16.64 24.31 18.45 24.11 20.23L24.1 20.24Z" fill="#213147"/>
</svg>
