<svg width="33" height="33" viewBox="0 0 33 33" fill="none" xmlns="http://www.w3.org/2000/svg">
<path d="M16.09 0.450012C24.93 0.450012 32.09 7.61001 32.09 16.45C32.09 25.29 24.93 32.45 16.09 32.45C7.25 32.45 0.0899963 25.29 0.0899963 16.45C0.0899963 7.61001 7.25 0.450012 16.09 0.450012Z" fill="#48A0F7"/>
<path opacity="0.6" d="M22.66 15.32L22.84 15.59C24.86 18.69 24.41 22.75 21.76 25.35C20.2 26.88 18.15 27.64 16.11 27.65L22.67 15.32H22.66Z" fill="white"/>
<path opacity="0.2" d="M16.1 19.06L22.66 15.31L16.1 27.64V19.06Z" fill="white"/>
<path d="M9.53 15.32L9.35 15.59C7.33 18.69 7.78 22.75 10.43 25.35C11.99 26.88 14.04 27.64 16.08 27.65L9.52 15.32H9.53Z" fill="white"/>
<path opacity="0.6" d="M16.09 19.06L9.53 15.31L16.09 27.64V19.06Z" fill="white"/>
<path opacity="0.2" d="M16.1 10.69V17.15L21.75 13.92L16.1 10.69Z" fill="white"/>
<path opacity="0.6" d="M16.1 10.69L10.45 13.92L16.1 17.15V10.69Z" fill="white"/>
<path d="M16.1 5.26001L10.45 13.93L16.1 10.69V5.26001Z" fill="white"/>
<path opacity="0.6" d="M16.1 10.69L21.75 13.93L16.1 5.26001V10.69Z" fill="white"/>
</svg>
