<svg width="32" height="32" viewBox="0 0 32 32" fill="none" xmlns="http://www.w3.org/2000/svg">
<path d="M21.3 16.45L16 19.58L10.69 16.45L16 26.12L21.3 16.45Z" fill="#213147"/>
<path d="M11.6 13.23L16.01 15.79L20.43 13.25L16 10.81L11.6 13.23Z" fill="#213147"/>
<path d="M16 0C7.16 0 0 7.16 0 16C0 24.84 7.16 32 16 32C24.84 32 32 24.84 32 16C32 7.16 24.84 0 16 0ZM15.97 4.77C15.97 4.77 15.97 4.77 15.98 4.77C15.98 4.77 15.98 4.75 16 4.75C16 4.75 16.01 4.75 16.02 4.75H16.04L21.69 13.42L21.59 13.47L15.99 16.67L10.39 13.47C10.39 13.47 10.28 13.43 10.3 13.42L15.95 4.75L15.97 4.77ZM24.01 20.21C23.81 21.99 22.99 23.67 21.7 24.93C20.18 26.42 18.16 27.24 16.01 27.24C13.86 27.24 11.84 26.42 10.32 24.93C9.03001 23.66 8.21 21.99 8.01 20.21C7.81 18.43 8.24 16.62 9.23 15.11L9.41 14.84L16.01 18.61L22.5 14.9C22.5 14.9 22.61 14.82 22.62 14.83L22.8 15.1C23.78 16.61 24.22 18.42 24.02 20.2L24.01 20.21Z" fill="#213147"/>
</svg>
