<svg width="33" height="33" viewBox="0 0 33 33" fill="none" xmlns="http://www.w3.org/2000/svg">
<path d="M27.78 0.369995H5.22C2.61322 0.369995 0.5 2.48321 0.5 5.09V27.65C0.5 30.2568 2.61322 32.37 5.22 32.37H27.78C30.3868 32.37 32.5 30.2568 32.5 27.65V5.09C32.5 2.48321 30.3868 0.369995 27.78 0.369995Z" fill="#12326C"/>
<path d="M20.63 15.94L24.35 12.22C25.3 11.27 25.49 9.70999 24.63 8.66999C23.65 7.46999 21.87 7.39999 20.8 8.46999L12.8 16.47L20.8 24.47C21.81 25.48 23.44 25.48 24.45 24.47C25.46 23.46 25.46 21.83 24.45 20.82L20.62 16.99C20.33 16.7 20.33 16.23 20.62 15.94H20.63Z" fill="#34775D"/>
<path d="M12.8127 16.4648L16.4613 12.8161L24.4587 20.8135C25.4628 21.8176 25.4628 23.4581 24.4587 24.4622C23.4546 25.4663 21.8141 25.4663 20.81 24.4622L12.8127 16.4648Z" fill="#52B136"/>
<path d="M24.4917 8.49367L24.4352 8.43711C23.4433 7.44518 21.8366 7.44359 20.8466 8.43357C19.8566 9.42355 19.8582 11.0302 20.8502 12.0221L20.9067 12.0787C21.8986 13.0706 23.5053 13.0722 24.4953 12.0822C25.4853 11.0923 25.4837 9.4856 24.4917 8.49367Z" fill="#68DF57"/>
<path d="M18.3 14.68L12.11 8.46C11.1 7.45 9.46998 7.45 8.45998 8.46C7.44998 9.47 7.44998 11.1 8.45998 12.11L12.25 15.9C12.56 16.21 12.56 16.71 12.25 17.02L8.45998 20.81C7.44998 21.82 7.44998 23.45 8.45998 24.46C9.46998 25.47 11.1 25.47 12.11 24.46C12.11 24.46 18.25 18.32 18.31 18.26C19.3 17.27 19.3 15.66 18.31 14.67L18.3 14.68Z" fill="#68DF57"/>
</svg>
