<svg width="32" height="32" viewBox="0 0 32 32" fill="none" xmlns="http://www.w3.org/2000/svg">
<g clip-path="url(#clip0_297_211)">
<path d="M27.28 0H4.72C2.11322 0 0 2.11322 0 4.72V27.28C0 29.8868 2.11322 32 4.72 32H27.28C29.8868 32 32 29.8868 32 27.28V4.72C32 2.11322 29.8868 0 27.28 0Z" fill="#12326C"/>
<path d="M20.13 15.57L23.85 11.85C24.8 10.9 24.99 9.33999 24.13 8.29999C23.15 7.09999 21.37 7.02999 20.3 8.09999L12.3 16.1L20.3 24.1C21.31 25.11 22.94 25.11 23.95 24.1C24.96 23.09 24.96 21.46 23.95 20.45L20.12 16.62C19.83 16.33 19.83 15.86 20.12 15.57H20.13Z" fill="#34775D"/>
<path d="M12.3127 16.0948L15.9613 12.4461L23.9587 20.4435C24.9628 21.4476 24.9628 23.0881 23.9587 24.0922C22.9546 25.0963 21.3141 25.0963 20.31 24.0922L12.3127 16.0948Z" fill="#52B136"/>
<path d="M23.9917 8.12367L23.9352 8.06711C22.9433 7.07518 21.3366 7.07359 20.3466 8.06357C19.3566 9.05355 19.3582 10.6602 20.3502 11.6521L20.4067 11.7087C21.3986 12.7006 23.0053 12.7022 23.9953 11.7122C24.9853 10.7223 24.9837 9.11561 23.9917 8.12367Z" fill="#68DF57"/>
<path d="M17.8 14.31L11.61 8.09C10.6 7.08 8.96998 7.08 7.95998 8.09C6.94998 9.1 6.94998 10.73 7.95998 11.74L11.75 15.53C12.06 15.84 12.06 16.34 11.75 16.65L7.95998 20.44C6.94998 21.45 6.94998 23.08 7.95998 24.09C8.96998 25.1 10.6 25.1 11.61 24.09C11.61 24.09 17.75 17.95 17.81 17.89C18.8 16.9 18.8 15.29 17.81 14.3L17.8 14.31Z" fill="#68DF57"/>
</g>
<defs>
<clipPath id="clip0_297_211">
<rect width="32" height="32" fill="white"/>
</clipPath>
</defs>
</svg>
