<svg width="33" height="33" viewBox="0 0 33 33" fill="none" xmlns="http://www.w3.org/2000/svg">
<path d="M16.5 0.690002C7.66 0.690002 0.5 7.85 0.5 16.69C0.5 25.53 7.66 32.69 16.5 32.69C25.34 32.69 32.5 25.53 32.5 16.69C32.5 7.85 25.34 0.690002 16.5 0.690002ZM27.35 24.35C27.35 26.12 25.92 27.55 24.15 27.55H8.85001C7.08001 27.55 5.64999 26.12 5.64999 24.35V9.05C5.64999 7.28 7.08001 5.85 8.85001 5.85H24.15C25.92 5.85 27.35 7.28 27.35 9.05V24.35Z" fill="#213147"/>
<path d="M24.46 21.14L20.63 17.31C20.34 17.02 20.34 16.55 20.63 16.26L24.35 12.54C24.35 12.54 24.39 12.49 24.41 12.46C24.43 12.44 24.46 12.43 24.48 12.4C25.4 11.48 25.45 10.05 24.68 9.05999C24.66 9.03999 24.65 9.00999 24.63 8.98999C24.61 8.96999 24.59 8.94999 24.57 8.92999C24.54 8.89999 24.52 8.85999 24.48 8.81999L24.42 8.75999C24.42 8.75999 24.33 8.68999 24.29 8.65999C24.25 8.61999 24.21 8.58999 24.16 8.55999C24.04 8.45999 23.91 8.37999 23.77 8.30999C23.77 8.30999 23.76 8.30999 23.75 8.30999C22.8 7.82999 21.62 7.97999 20.82 8.76999C20.82 8.76999 20.82 8.77999 20.81 8.78999C20.81 8.78999 20.8 8.78999 20.79 8.79999L16.43 13.16L12.09 8.79999C11.08 7.78999 9.45 7.78999 8.44 8.79999C7.43 9.80999 7.43 11.44 8.44 12.45L12.23 16.24C12.54 16.55 12.54 17.05 12.23 17.36L8.44 21.15C7.43 22.16 7.43 23.79 8.44 24.8C9.45 25.81 11.08 25.81 12.09 24.8C12.09 24.8 14.62 22.27 16.44 20.45L20.79 24.8C21.8 25.81 23.43 25.81 24.44 24.8C25.07 24.17 25.31 23.3 25.15 22.48C25.06 21.99 24.82 21.53 24.44 21.15L24.46 21.14Z" fill="#213147"/>
</svg>
