<svg width="33" height="33" viewBox="0 0 33 33" fill="none" xmlns="http://www.w3.org/2000/svg">
<path d="M16.25 0.0300293C7.41 0.0300293 0.25 7.19003 0.25 16.03C0.25 24.87 7.41 32.03 16.25 32.03C25.09 32.03 32.25 24.87 32.25 16.03C32.25 7.19003 25.09 0.0300293 16.25 0.0300293ZM25.79 25.59C24.59 26.79 22.64 26.79 21.44 25.59L16.24 20.39C14.06 22.57 11.04 25.59 11.04 25.59C9.84 26.79 7.89 26.79 6.69 25.59C5.49 24.39 5.49 22.44 6.69 21.24L11.22 16.71C11.59 16.34 11.59 15.74 11.22 15.37L6.69 10.84C5.49 9.64003 5.49 7.69003 6.69 6.49003C7.89 5.29003 9.84 5.29003 11.04 6.49003L16.23 11.7H16.24L25.79 21.24C26.99 22.44 26.99 24.39 25.79 25.59ZM25.83 10.8C24.65 11.98 22.73 11.98 21.55 10.8L21.48 10.73C20.3 9.55003 20.3 7.63003 21.48 6.45003C22.66 5.27003 24.58 5.27003 25.76 6.45003L25.83 6.52003C27.01 7.70003 27.01 9.62003 25.83 10.8Z" fill="#213147"/>
</svg>
