<svg width="33" height="33" viewBox="0 0 33 33" fill="none" xmlns="http://www.w3.org/2000/svg">
<path d="M16.25 32.95C25.0866 32.95 32.25 25.7866 32.25 16.95C32.25 8.11346 25.0866 0.950012 16.25 0.950012C7.41344 0.950012 0.25 8.11346 0.25 16.95C0.25 25.7866 7.41344 32.95 16.25 32.95Z" fill="#FDFDFD"/>
<path d="M21.22 16.33L25.67 11.88C26.81 10.74 27.03 8.88001 26.01 7.64001C24.84 6.21001 22.72 6.13001 21.44 7.40001L11.89 16.95L21.44 26.5C22.64 27.7 24.59 27.7 25.79 26.5C26.99 25.3 26.99 23.35 25.79 22.15L21.22 17.58C20.87 17.23 20.87 16.67 21.22 16.32V16.33Z" fill="#34775D"/>
<path d="M11.8931 16.9708L16.2488 12.615L25.8019 22.1681C27.0039 23.3701 27.0039 25.3218 25.8019 26.5238C24.5998 27.7259 22.6482 27.7259 21.4461 26.5238L11.8931 16.9708Z" fill="#52B136"/>
<path d="M25.8324 7.43726L25.7616 7.36655C24.5784 6.18326 22.6599 6.18326 21.4766 7.36655C20.2933 8.54984 20.2933 10.4683 21.4766 11.6516L21.5473 11.7223C22.7306 12.9056 24.6491 12.9056 25.8324 11.7223C27.0156 10.539 27.0156 8.62055 25.8324 7.43726Z" fill="#68DF57"/>
<path d="M18.44 14.84L11.04 7.41001C9.84 6.21001 7.88999 6.21001 6.68999 7.41001C5.48999 8.61001 5.48999 10.56 6.68999 11.76L11.22 16.29C11.59 16.66 11.59 17.26 11.22 17.63L6.68999 22.16C5.48999 23.36 5.48999 25.31 6.68999 26.51C7.88999 27.71 9.84 27.71 11.04 26.51C11.04 26.51 18.37 19.18 18.44 19.11C19.62 17.93 19.62 16.01 18.44 14.83V14.84Z" fill="#68DF57"/>
</svg>
