<svg width="32" height="32" viewBox="0 0 32 32" fill="none" xmlns="http://www.w3.org/2000/svg">
<g clip-path="url(#clip0_298_486)">
<path d="M16 32C24.84 32 32 24.84 32 16C32 7.16 24.84 0 16 0C7.15997 0 0 7.16 0 16C0 24.84 7.15997 32 16 32Z" fill="white"/>
<path fill-rule="evenodd" clip-rule="evenodd" d="M9.91 7.21C10.52 6.36 11.7 5.98 13.22 6.1C15.32 6.27 18.1 7.4 20.78 9.31C23.45 11.23 25.41 13.51 26.24 15.44C26.85 16.84 26.87 18.08 26.26 18.93L22.08 24.78C21.47 25.63 20.28 26.01 18.77 25.89C16.67 25.71 13.88 24.59 11.21 22.67C8.52999 20.76 6.57999 18.48 5.73999 16.55C5.12999 15.15 5.11 13.91 5.72 13.06L9.91 7.21ZM25.69 18.51C26.18 17.84 26.08 16.84 25.6 15.73C24.8 13.89 22.92 11.73 20.36 9.9C17.81 8.07 15.16 6.99 13.16 6.82C11.94 6.72 10.98 6.94 10.49 7.62L10.47 7.66C10.01 8.34 10.12 9.3 10.59 10.4C11.39 12.25 13.27 14.41 15.82 16.24C18.37 18.07 21.02 19.15 23.02 19.32C24.22 19.41 25.16 19.2 25.66 18.56L25.69 18.51ZM19.17 11.56C20.45 12.47 21.39 13.56 21.79 14.48C22.02 15 22.08 15.45 21.85 15.77C21.63 16.08 21.17 16.18 20.61 16.13C19.61 16.05 18.28 15.5 17.01 14.59C15.73 13.68 14.79 12.6 14.39 11.68C14.17 11.16 14.11 10.7 14.33 10.39C14.55 10.08 15.01 9.98 15.58 10.02C16.57 10.11 17.9 10.65 19.17 11.56Z" fill="#0E0F22"/>
<path fill-rule="evenodd" clip-rule="evenodd" d="M8.75998 20.64C7.33998 19.26 6.28999 17.83 5.73999 16.55C5.12999 15.15 5.11 13.91 5.72 13.06L9.91 7.21C10.52 6.36 11.7 5.98 13.22 6.11C15.32 6.28 18.11 7.4 20.78 9.32C23.45 11.24 25.41 13.51 26.25 15.45C26.32 15.61 26.38 15.78 26.44 15.95C26.21 15.84 25.96 15.77 25.71 15.74C25.67 15.74 25.63 15.74 25.59 15.74C24.79 13.9 22.91 11.74 20.36 9.92C17.81 8.09 15.16 7.01 13.16 6.84C11.95 6.74 10.98 6.97 10.49 7.64L10.46 7.68C10.01 8.36 10.11 9.33 10.58 10.42C11.38 12.26 13.26 14.42 15.81 16.25C17.88 17.74 20.02 18.73 21.83 19.14C21.1 20.17 20.31 21.08 19.27 21.28C18.37 21.46 17.47 21.05 16.66 20.13C15.81 19.17 15.12 17.8 14.15 17.58C12.41 17.18 10.85 20.19 9.12002 20.58C9.00002 20.61 8.87997 20.63 8.74997 20.64H8.75998ZM19.18 11.56C20.46 12.47 21.4 13.55 21.8 14.48C22.03 15 22.09 15.46 21.86 15.77C21.63 16.09 21.18 16.17 20.61 16.13C19.61 16.05 18.28 15.5 17.01 14.59C15.73 13.68 14.79 12.6 14.39 11.67C14.16 11.15 14.1 10.69 14.33 10.38C14.56 10.06 15.01 9.98 15.58 10.02C16.58 10.1 17.91 10.65 19.18 11.56Z" fill="#F3B46E"/>
<path fill-rule="evenodd" clip-rule="evenodd" d="M22.01 20.13C22.71 20.26 23.43 20.28 24.14 20.19C24.22 20.18 24.28 20.1 24.27 20.02C24.25 19.94 24.18 19.88 24.1 19.89C23.42 19.98 22.73 19.96 22.06 19.83C21.98 19.83 21.9 19.88 21.89 19.96C21.89 20 21.89 20.04 21.92 20.07C21.94 20.1 21.98 20.12 22.02 20.13H22.01ZM20.81 19.86C21.01 19.91 21.21 19.96 21.41 20C21.45 20.01 21.49 20 21.52 19.98C21.55 19.96 21.58 19.92 21.58 19.89C21.59 19.83 21.58 19.77 21.52 19.73C21.5 19.72 21.49 19.71 21.47 19.71C21.28 19.67 21.08 19.62 20.89 19.57C20.87 19.57 20.85 19.57 20.83 19.57C20.79 19.57 20.75 19.59 20.72 19.63C20.71 19.65 20.7 19.66 20.69 19.68C20.69 19.72 20.69 19.76 20.71 19.8C20.73 19.84 20.76 19.86 20.8 19.87L20.81 19.86ZM9.47 10.25C10.04 12.57 12.27 14.75 14.07 16.29C14.1 16.32 14.14 16.33 14.18 16.33C14.22 16.33 14.26 16.31 14.28 16.28C14.32 16.23 14.33 16.17 14.3 16.11C14.3 16.09 14.28 16.08 14.26 16.06C12.51 14.55 10.32 12.44 9.76999 10.17C9.74999 10.09 9.65999 10.04 9.57999 10.06C9.53999 10.06 9.51002 10.09 9.49002 10.13C9.47002 10.16 9.46 10.21 9.47 10.24V10.25ZM9.34 9.31C9.34 9.41 9.35002 9.52 9.36002 9.62C9.37002 9.7 9.45 9.76 9.53 9.75C9.57 9.75 9.59997 9.73 9.62997 9.7C9.64997 9.67 9.67 9.63 9.66 9.59C9.65 9.49 9.63998 9.39 9.63998 9.3C9.63998 9.24 9.60001 9.18 9.54001 9.16C9.52001 9.16 9.50001 9.15 9.48001 9.16C9.40001 9.17 9.34 9.24 9.34 9.32V9.31Z" fill="white"/>
</g>
<defs>
<clipPath id="clip0_298_486">
<rect width="32" height="32" fill="white"/>
</clipPath>
</defs>
</svg>
