<svg width="33" height="33" viewBox="0 0 33 33" fill="none" xmlns="http://www.w3.org/2000/svg">
<path d="M16.2199 32.25C25.0599 32.25 32.2199 25.09 32.2199 16.25C32.2199 7.41 25.0599 0.25 16.2199 0.25C7.37994 0.25 0.219971 7.41 0.219971 16.25C0.219971 25.09 7.37994 32.25 16.2199 32.25Z" fill="white"/>
<path fill-rule="evenodd" clip-rule="evenodd" d="M10.13 7.45999C10.74 6.60999 11.92 6.22999 13.44 6.34999C15.54 6.51999 18.32 7.64999 21 9.55999C23.67 11.48 25.63 13.76 26.46 15.69C27.07 17.09 27.0899 18.33 26.4799 19.18L22.3 25.03C21.69 25.88 20.5 26.26 18.99 26.14C16.89 25.96 14.1 24.84 11.43 22.92C8.74996 21.01 6.79996 18.73 5.95996 16.8C5.34996 15.4 5.32997 14.16 5.93997 13.31L10.13 7.45999ZM25.9099 18.76C26.3999 18.09 26.3 17.09 25.82 15.98C25.02 14.14 23.14 11.98 20.58 10.15C18.03 8.31999 15.38 7.23999 13.38 7.06999C12.16 6.96999 11.2 7.18999 10.71 7.86999L10.69 7.90999C10.23 8.58999 10.34 9.54999 10.81 10.65C11.61 12.5 13.4899 14.66 16.0399 16.49C18.5899 18.32 21.24 19.4 23.24 19.57C24.44 19.66 25.38 19.45 25.88 18.81L25.9099 18.76ZM19.39 11.81C20.67 12.72 21.61 13.81 22.01 14.73C22.24 15.25 22.3 15.7 22.07 16.02C21.85 16.33 21.39 16.43 20.83 16.38C19.83 16.3 18.4999 15.75 17.2299 14.84C15.9499 13.93 15.01 12.85 14.61 11.93C14.39 11.41 14.33 10.95 14.55 10.64C14.77 10.33 15.23 10.23 15.8 10.27C16.79 10.36 18.12 10.9 19.39 11.81Z" fill="#0E0F22"/>
<path fill-rule="evenodd" clip-rule="evenodd" d="M8.97995 20.89C7.55995 19.51 6.50996 18.08 5.95996 16.8C5.34996 15.4 5.32997 14.16 5.93997 13.31L10.13 7.45999C10.74 6.60999 11.92 6.22999 13.44 6.35999C15.54 6.52999 18.33 7.64999 21 9.56999C23.67 11.49 25.6299 13.76 26.4699 15.7C26.5399 15.86 26.5999 16.03 26.6599 16.2C26.4299 16.09 26.18 16.02 25.93 15.99C25.89 15.99 25.85 15.99 25.81 15.99C25.01 14.15 23.13 11.99 20.58 10.17C18.03 8.33999 15.38 7.25999 13.38 7.08999C12.17 6.98999 11.2 7.21999 10.71 7.88999L10.68 7.92999C10.23 8.60999 10.33 9.57999 10.8 10.67C11.6 12.51 13.48 14.67 16.03 16.5C18.1 17.99 20.24 18.98 22.05 19.39C21.32 20.42 20.53 21.33 19.49 21.53C18.59 21.71 17.69 21.3 16.88 20.38C16.03 19.42 15.34 18.05 14.37 17.83C12.63 17.43 11.07 20.44 9.33999 20.83C9.21999 20.86 9.09994 20.88 8.96994 20.89H8.97995ZM19.4 11.81C20.68 12.72 21.62 13.8 22.02 14.73C22.25 15.25 22.31 15.71 22.08 16.02C21.85 16.34 21.4 16.42 20.83 16.38C19.83 16.3 18.4999 15.75 17.2299 14.84C15.9499 13.93 15.01 12.85 14.61 11.92C14.38 11.4 14.32 10.94 14.55 10.63C14.78 10.31 15.23 10.23 15.8 10.27C16.8 10.35 18.13 10.9 19.4 11.81Z" fill="#F3B46E"/>
<path fill-rule="evenodd" clip-rule="evenodd" d="M22.2299 20.38C22.9299 20.51 23.65 20.53 24.36 20.44C24.44 20.43 24.5 20.35 24.49 20.27C24.47 20.19 24.4 20.13 24.32 20.14C23.64 20.23 22.95 20.21 22.28 20.08C22.2 20.08 22.12 20.13 22.11 20.21C22.11 20.25 22.11 20.29 22.14 20.32C22.16 20.35 22.2 20.37 22.24 20.38H22.2299ZM21.03 20.11C21.23 20.16 21.43 20.21 21.63 20.25C21.67 20.26 21.71 20.25 21.74 20.23C21.77 20.21 21.8 20.17 21.8 20.14C21.81 20.08 21.8 20.02 21.74 19.98C21.72 19.97 21.71 19.96 21.69 19.96C21.5 19.92 21.3 19.87 21.11 19.82C21.09 19.82 21.07 19.82 21.05 19.82C21.01 19.82 20.97 19.84 20.94 19.88C20.93 19.9 20.9199 19.91 20.9099 19.93C20.9099 19.97 20.91 20.01 20.93 20.05C20.95 20.09 20.98 20.11 21.02 20.12L21.03 20.11ZM9.68997 10.5C10.26 12.82 12.4899 15 14.2899 16.54C14.3199 16.57 14.36 16.58 14.4 16.58C14.44 16.58 14.48 16.56 14.5 16.53C14.54 16.48 14.55 16.42 14.52 16.36C14.52 16.34 14.4999 16.33 14.4799 16.31C12.7299 14.8 10.54 12.69 9.98996 10.42C9.96996 10.34 9.87996 10.29 9.79996 10.31C9.75996 10.31 9.72999 10.34 9.70999 10.38C9.68999 10.41 9.67997 10.46 9.68997 10.49V10.5ZM9.55997 9.55999C9.55997 9.65999 9.56999 9.76999 9.57999 9.86999C9.58999 9.94999 9.66997 10.01 9.74997 9.99999C9.78997 9.99999 9.81995 9.97999 9.84995 9.94999C9.86995 9.91999 9.88997 9.87999 9.87997 9.83999C9.86997 9.73999 9.85995 9.63999 9.85995 9.54999C9.85995 9.48999 9.81998 9.42999 9.75998 9.40999C9.73998 9.40999 9.71998 9.39999 9.69998 9.40999C9.61998 9.41999 9.55997 9.48999 9.55997 9.56999V9.55999Z" fill="white"/>
</svg>
