<svg width="32" height="32" viewBox="0 0 32 32" fill="none" xmlns="http://www.w3.org/2000/svg">
<g clip-path="url(#clip0_298_773)">
<path d="M16 32C24.8366 32 32 24.8366 32 16C32 7.16344 24.8366 0 16 0C7.16344 0 0 7.16344 0 16C0 24.8366 7.16344 32 16 32Z" fill="url(#paint0_linear_298_773)"/>
<path d="M17.39 16.23C17.83 16.52 18.2 16.73 18.52 17C18.97 17.39 19.4 17.8 19.81 18.23C20.43 18.88 20.7 19.69 20.83 20.56C21.05 22.03 20.64 23.29 19.75 24.48C18.49 26.15 15.72 26.8 14.06 26.04C13.14 25.62 12.32 25.1 11.78 24.3C10.96 23.08 10.45 21.73 11.05 20.22C11.21 19.83 11.35 19.44 11.52 19.01C10.9 19.13 10.28 19.26 9.66 19.38C9.55 18.95 9.45 18.58 9.38 18.21C9.39 18.1 9.46 18 9.56 17.95C10.93 17.66 12.31 17.39 13.68 17.1C13.92 17.05 13.99 17.12 14.02 17.34C14.12 18.12 14.21 18.9 14.32 19.68C14.4 20.26 14.49 20.84 14.59 21.42C14.63 21.66 14.59 21.77 14.33 21.8C13.96 21.83 13.6 21.88 13.22 21.92L12.87 19.63C12.36 20.55 12.01 21.37 12.36 22.33C12.64 23.1 13.03 23.8 13.71 24.26C14.8 25 15.98 25.2 17.24 24.67C17.94 24.39 18.53 23.9 18.93 23.26C19.47 22.42 19.63 21.38 19.36 20.41C19.11 19.5 18.63 18.78 17.8 18.3C17.54 18.15 17.34 17.92 17.38 17.55C17.42 17.16 17.38 16.75 17.38 16.24L17.39 16.23Z" fill="white"/>
<path d="M20.58 12.64C21.19 12.43 21.76 12.24 22.38 12.03C22.51 12.4 22.65 12.74 22.74 13.1C22.74 13.24 22.66 13.36 22.54 13.43C21.33 13.89 20.12 14.34 18.91 14.78C18.4 14.97 18.4 14.92 18.26 14.4C17.99 13.37 17.68 12.35 17.38 11.32C17.3 11.04 17.22 10.76 17.14 10.44C17.53 10.3 17.93 10.18 18.34 10.09C18.42 10.08 18.6 10.34 18.65 10.5C18.77 10.85 18.82 11.23 18.92 11.59C18.97 11.77 19.05 11.94 19.14 12.17C19.54 11.44 19.57 10.73 19.45 10C19.28 8.88002 18.58 7.91002 17.56 7.41002C17.01 7.14002 16.4 7.00002 15.78 7.01002C14.47 7.03002 13.43 7.67002 12.73 8.79002C11.95 10.08 12.08 11.72 13.06 12.86C13.45 13.27 13.88 13.64 14.35 13.97C14.58 14.14 14.69 14.31 14.68 14.59C14.67 15.02 14.68 15.44 14.68 15.97C14.3 15.71 13.98 15.51 13.68 15.27C13.13 14.83 12.59 14.39 12.08 13.91C11.36 13.23 11.03 12.34 10.88 11.4C10.62 9.70002 11.14 8.21002 12.36 7.03002C13.67 5.76002 15.27 5.37002 17.06 5.76002C18.39 6.05002 19.4 6.81002 20.12 7.91002C20.87 9.06002 21.07 10.36 20.78 11.71C20.72 12 20.65 12.28 20.57 12.63L20.58 12.64Z" fill="white"/>
<path d="M16.71 9.43003V22.52C16.29 22.52 15.9 22.52 15.5 22.52C15.21 22.52 15.3 22.28 15.3 22.13C15.3 20.05 15.3 17.98 15.3 15.9C15.3 13.89 15.3 11.88 15.3 9.88003C15.3 9.53003 15.38 9.39003 15.75 9.43003C16.05 9.46003 16.36 9.43003 16.72 9.43003H16.71Z" fill="white"/>
</g>
<defs>
<linearGradient id="paint0_linear_298_773" x1="31.87" y1="16.45" x2="1.15" y2="16.45" gradientUnits="userSpaceOnUse">
<stop stop-color="#285DAF"/>
<stop offset="1" stop-color="#3375F2"/>
</linearGradient>
<clipPath id="clip0_298_773">
<rect width="32" height="32" fill="white"/>
</clipPath>
</defs>
</svg>
