<svg width="32" height="33" viewBox="0 0 32 33" fill="none" xmlns="http://www.w3.org/2000/svg">
<path d="M15.99 0.0300293C7.14999 0.0300293 -0.0100098 7.19003 -0.0100098 16.03C-0.0100098 24.87 7.14999 32.03 15.99 32.03C24.83 32.03 31.99 24.87 31.99 16.03C31.99 7.19003 24.83 0.0300293 15.99 0.0300293ZM19.74 24.52C18.48 26.19 15.71 26.84 14.05 26.08C13.13 25.66 12.31 25.14 11.77 24.34C10.95 23.12 10.44 21.77 11.04 20.26C11.2 19.87 11.34 19.48 11.51 19.05C10.89 19.17 10.27 19.3 9.64999 19.42C9.53999 18.99 9.44 18.62 9.37 18.25C9.38 18.14 9.44999 18.04 9.54999 17.99C10.92 17.7 12.3 17.43 13.67 17.14C13.91 17.09 13.98 17.16 14.01 17.38C14.11 18.16 14.2 18.94 14.31 19.72C14.39 20.3 14.48 20.88 14.58 21.46C14.62 21.7 14.58 21.81 14.32 21.84C13.95 21.87 13.59 21.92 13.21 21.96L12.86 19.67C12.35 20.59 12 21.41 12.35 22.37C12.63 23.14 13.02 23.84 13.7 24.3C14.79 25.04 15.97 25.24 17.23 24.71C17.93 24.43 18.52 23.94 18.92 23.3C19.46 22.46 19.62 21.42 19.35 20.45C19.1 19.54 18.62 18.82 17.79 18.34C17.53 18.19 17.33 17.96 17.37 17.59C17.41 17.2 17.38 16.79 17.38 16.28C17.82 16.57 18.19 16.78 18.51 17.05C18.96 17.44 19.39 17.85 19.8 18.28C20.42 18.93 20.69 19.74 20.82 20.61C21.04 22.08 20.63 23.34 19.74 24.53V24.52ZM15.29 15.93C15.29 13.92 15.29 11.91 15.29 9.90003C15.29 9.55003 15.37 9.41003 15.74 9.45003C16.04 9.48003 16.35 9.45003 16.71 9.45003V22.54C16.29 22.54 15.89 22.54 15.5 22.54C15.21 22.54 15.3 22.3 15.3 22.15C15.3 20.07 15.3 18 15.3 15.92L15.29 15.93ZM22.52 13.46C21.31 13.92 20.1 14.37 18.89 14.81C18.38 15 18.38 14.95 18.24 14.43C17.97 13.4 17.66 12.38 17.36 11.35C17.28 11.07 17.2 10.79 17.12 10.47C17.51 10.33 17.91 10.21 18.32 10.12C18.4 10.11 18.58 10.37 18.63 10.53C18.75 10.88 18.8 11.25 18.9 11.62C18.95 11.8 19.03 11.97 19.12 12.2C19.52 11.47 19.55 10.76 19.43 10.03C19.26 8.91003 18.56 7.94003 17.54 7.44003C16.99 7.17003 16.38 7.03003 15.76 7.04003C14.45 7.06003 13.41 7.70003 12.71 8.82003C11.93 10.11 12.06 11.75 13.04 12.89C13.43 13.3 13.86 13.67 14.33 14C14.56 14.17 14.67 14.34 14.66 14.62C14.65 15.05 14.66 15.47 14.66 16C14.28 15.74 13.96 15.54 13.66 15.3C13.11 14.86 12.57 14.42 12.06 13.94C11.34 13.26 11.01 12.37 10.86 11.43C10.6 9.73003 11.12 8.24003 12.34 7.06003C13.65 5.79003 15.25 5.40003 17.04 5.78003C18.37 6.07003 19.38 6.83003 20.1 7.93003C20.85 9.08003 21.05 10.38 20.76 11.73C20.7 12.02 20.63 12.3 20.55 12.65C21.16 12.44 21.73 12.25 22.35 12.04C22.48 12.41 22.62 12.75 22.71 13.11C22.71 13.25 22.63 13.37 22.51 13.44L22.52 13.46Z" fill="#213147"/>
</svg>
