<svg width="32" height="33" viewBox="0 0 32 33" fill="none" xmlns="http://www.w3.org/2000/svg">
<path d="M15.99 32.1C24.8265 32.1 31.99 24.9365 31.99 16.1C31.99 7.26342 24.8265 0.0999756 15.99 0.0999756C7.15343 0.0999756 -0.0100098 7.26342 -0.0100098 16.1C-0.0100098 24.9365 7.15343 32.1 15.99 32.1Z" fill="url(#paint0_linear_82_270)"/>
<path d="M17.38 16.33C17.82 16.62 18.19 16.83 18.51 17.1C18.96 17.49 19.39 17.9 19.8 18.33C20.42 18.98 20.69 19.79 20.82 20.66C21.04 22.13 20.63 23.39 19.74 24.58C18.48 26.25 15.71 26.9 14.05 26.14C13.13 25.72 12.31 25.2 11.77 24.4C10.95 23.18 10.44 21.83 11.04 20.32C11.2 19.93 11.34 19.54 11.51 19.11C10.89 19.23 10.27 19.36 9.64999 19.48C9.53999 19.05 9.44 18.68 9.37 18.31C9.38 18.2 9.44999 18.1 9.54999 18.05C10.92 17.76 12.3 17.49 13.67 17.2C13.91 17.15 13.98 17.22 14.01 17.44C14.11 18.22 14.2 19 14.31 19.78C14.39 20.36 14.48 20.94 14.58 21.52C14.62 21.76 14.58 21.87 14.32 21.9C13.95 21.93 13.59 21.98 13.21 22.02L12.86 19.73C12.35 20.65 12 21.47 12.35 22.43C12.63 23.2 13.02 23.9 13.7 24.36C14.79 25.1 15.97 25.3 17.23 24.77C17.93 24.49 18.52 24 18.92 23.36C19.46 22.52 19.62 21.48 19.35 20.51C19.1 19.6 18.62 18.88 17.79 18.4C17.53 18.25 17.33 18.02 17.37 17.65C17.41 17.26 17.37 16.85 17.37 16.34L17.38 16.33Z" fill="white"/>
<path d="M20.57 12.74C21.18 12.53 21.75 12.34 22.37 12.13C22.5 12.5 22.64 12.84 22.73 13.2C22.73 13.34 22.65 13.46 22.53 13.53C21.32 13.99 20.11 14.44 18.9 14.88C18.39 15.07 18.39 15.02 18.25 14.5C17.98 13.47 17.67 12.45 17.37 11.42C17.29 11.14 17.21 10.86 17.13 10.54C17.52 10.4 17.92 10.28 18.33 10.19C18.41 10.18 18.59 10.44 18.64 10.6C18.76 10.95 18.81 11.33 18.91 11.69C18.96 11.87 19.04 12.04 19.13 12.27C19.53 11.54 19.56 10.83 19.44 10.1C19.27 8.98 18.57 8.00999 17.55 7.50999C17 7.23999 16.39 7.09999 15.77 7.10999C14.46 7.12999 13.42 7.77 12.72 8.89C11.94 10.18 12.07 11.82 13.05 12.96C13.44 13.37 13.87 13.74 14.34 14.07C14.57 14.24 14.68 14.41 14.67 14.69C14.66 15.12 14.67 15.54 14.67 16.07C14.29 15.81 13.97 15.61 13.67 15.37C13.12 14.93 12.58 14.49 12.07 14.01C11.35 13.33 11.02 12.44 10.87 11.5C10.61 9.79999 11.13 8.30999 12.35 7.12999C13.66 5.85999 15.26 5.46999 17.05 5.85999C18.38 6.14999 19.39 6.90999 20.11 8.00999C20.86 9.15999 21.06 10.46 20.77 11.81C20.71 12.1 20.64 12.38 20.56 12.73L20.57 12.74Z" fill="white"/>
<path d="M16.7 9.53V22.62C16.28 22.62 15.89 22.62 15.49 22.62C15.2 22.62 15.29 22.38 15.29 22.23C15.29 20.15 15.29 18.08 15.29 16C15.29 13.99 15.29 11.98 15.29 9.98C15.29 9.63 15.37 9.49 15.74 9.53C16.04 9.56 16.35 9.53 16.71 9.53H16.7Z" fill="white"/>
<defs>
<linearGradient id="paint0_linear_82_270" x1="31.86" y1="16.55" x2="1.13999" y2="16.55" gradientUnits="userSpaceOnUse">
<stop stop-color="#285DAF"/>
<stop offset="1" stop-color="#3375F2"/>
</linearGradient>
</defs>
</svg>
