<svg width="33" height="33" viewBox="0 0 33 33" fill="none" xmlns="http://www.w3.org/2000/svg">
<path d="M16.12 0.169983C7.27999 0.169983 0.119995 7.32998 0.119995 16.17C0.119995 25.01 7.27999 32.17 16.12 32.17C24.96 32.17 32.12 25.01 32.12 16.17C32.12 7.32998 24.96 0.169983 16.12 0.169983ZM8.41 8.33998C10.03 6.75998 11.96 5.74998 14.19 5.34998C14.62 5.26998 15.06 5.24998 15.49 5.18998C15.54 5.18998 15.59 5.16998 15.64 5.15998H16.58C16.77 5.17998 16.95 5.19999 17.14 5.21999C18.72 5.36999 20.19 5.83998 21.56 6.61998C21.58 6.62998 21.6 6.64998 21.63 6.66998L14.91 11.49C14.82 11.41 14.74 11.33 14.65 11.24C14.18 10.78 13.7 10.32 13.24 9.85999C13.16 9.78999 13.11 9.77999 13.01 9.82999C11.89 10.38 10.94 11.22 10.24 12.25L10.14 12.4L7.67001 9.10999C7.92001 8.84999 8.14999 8.57998 8.39999 8.33998H8.41ZM5.34 18.35C4.8 15.66 5.24001 13.13 6.57001 10.71L11.56 17.26L10.55 18.29C10.3 18.55 10.05 18.81 9.79001 19.06C9.72001 19.13 9.71001 19.19 9.76001 19.28C10.31 20.4 11.15 21.35 12.18 22.05C12.21 22.07 12.25 22.09 12.28 22.12C12.28 22.12 12.28 22.13 12.31 22.17L9.04999 24.62C7.09999 22.94 5.83999 20.87 5.32999 18.36L5.34 18.35ZM24.46 23.33C22.68 25.36 20.46 26.6 17.79 27.03C17.45 27.08 17.11 27.1 16.77 27.14C16.73 27.14 16.68 27.16 16.64 27.17H15.61C15.34 27.14 15.07 27.12 14.8 27.09C13.35 26.92 11.95 26.45 10.68 25.73C10.66 25.72 10.64 25.7 10.61 25.68C12.82 24.03 15.01 22.39 17.22 20.74L17.89 21.39C18.26 21.75 18.63 22.11 18.99 22.48C19.08 22.57 19.14 22.57 19.25 22.52C20.35 21.97 21.29 21.15 21.98 20.13L22.09 19.97C22.09 19.97 22.15 20.04 22.17 20.07C22.94 21.09 23.7 22.11 24.47 23.13C24.54 23.22 24.53 23.27 24.46 23.35V23.33ZM25.67 21.58L20.75 15.08L21.67 14.13C21.93 13.86 22.18 13.6 22.44 13.34C22.52 13.26 22.52 13.2 22.47 13.1C21.92 11.97 21.07 11 20.02 10.3C19.98 10.27 19.95 10.25 19.88 10.2L23.16 7.73999C25.02 9.32999 26.25 11.29 26.82 13.65C27.53 16.6 26.9 19.52 25.67 21.58Z" fill="#213147"/>
</svg>
