<svg width="33" height="33" viewBox="0 0 33 33" fill="none" xmlns="http://www.w3.org/2000/svg">
<path d="M16.12 32.25C24.9566 32.25 32.12 25.0866 32.12 16.25C32.12 7.41344 24.9566 0.25 16.12 0.25C7.28344 0.25 0.119995 7.41344 0.119995 16.25C0.119995 25.0866 7.28344 32.25 16.12 32.25Z" fill="#2F2C2C"/>
<path fill-rule="evenodd" clip-rule="evenodd" d="M15.61 27.25C15.34 27.22 15.07 27.2 14.8 27.17C13.35 27 11.95 26.53 10.68 25.81C10.66 25.8 10.64 25.79 10.61 25.76C12.82 24.11 15.01 22.47 17.22 20.82L17.89 21.47C18.26 21.83 18.63 22.19 18.99 22.56C19.08 22.65 19.15 22.65 19.25 22.59C20.35 22.04 21.29 21.22 21.98 20.2L22.09 20.04C22.09 20.04 22.15 20.11 22.17 20.14C22.94 21.16 23.7 22.18 24.47 23.2C24.54 23.29 24.53 23.34 24.46 23.42C22.68 25.45 20.46 26.69 17.79 27.12C17.45 27.17 17.11 27.19 16.77 27.23C16.72 27.23 16.68 27.25 16.64 27.26H15.62L15.61 27.25ZM16.58 5.25C16.77 5.27 16.95 5.29 17.14 5.31C18.72 5.46 20.19 5.93 21.56 6.71C21.58 6.72 21.6 6.74 21.63 6.76L14.91 11.58C14.82 11.5 14.73 11.42 14.65 11.33C14.18 10.87 13.7 10.41 13.24 9.95C13.17 9.88 13.11 9.87 13.01 9.92C11.89 10.47 10.94 11.31 10.24 12.34L10.14 12.49L7.67003 9.2C7.92003 8.94 8.15001 8.67 8.40001 8.43C10.02 6.85 11.95 5.84 14.18 5.44C14.61 5.36 15.05 5.34 15.48 5.28C15.53 5.28 15.58 5.26 15.63 5.25H16.57H16.58ZM6.57002 10.78L11.56 17.33L10.55 18.36C10.3 18.62 10.05 18.88 9.79002 19.13C9.72002 19.2 9.72002 19.26 9.76002 19.35C10.31 20.47 11.15 21.42 12.18 22.12C12.21 22.14 12.25 22.17 12.28 22.19C12.28 22.19 12.28 22.2 12.31 22.24L9.05 24.69C7.1 23.01 5.84 20.94 5.33 18.43C4.79 15.74 5.23001 13.21 6.56001 10.79L6.57002 10.78ZM20.75 15.15L21.67 14.2C21.93 13.93 22.18 13.67 22.44 13.41C22.52 13.33 22.52 13.27 22.47 13.17C21.91 12.04 21.07 11.07 20.02 10.37C19.98 10.35 19.95 10.32 19.88 10.27L23.16 7.81C25.02 9.4 26.25 11.36 26.82 13.72C27.53 16.67 26.9 19.59 25.67 21.65L20.75 15.15Z" fill="white"/>
</svg>
