<svg width="32" height="32" viewBox="0 0 32 32" fill="none" xmlns="http://www.w3.org/2000/svg">
<g clip-path="url(#clip0_298_474)">
<path d="M16 0C7.16 0 0 7.16 0 16C0 24.84 7.16 32 16 32C24.84 32 32 24.84 32 16C32 7.16 24.84 0 16 0ZM8.29001 8.17C9.91001 6.59 11.84 5.58 14.07 5.18C14.5 5.1 14.94 5.08 15.37 5.02C15.42 5.02 15.47 5 15.52 4.99H16.46C16.65 5.01 16.83 5.03 17.02 5.05C18.6 5.2 20.07 5.67 21.44 6.45C21.46 6.46 21.48 6.48 21.51 6.5L14.79 11.32C14.7 11.24 14.62 11.16 14.53 11.07C14.06 10.61 13.58 10.15 13.12 9.69C13.04 9.62 12.99 9.61 12.89 9.66C11.77 10.21 10.82 11.05 10.12 12.08L10.02 12.23L7.55002 8.94C7.80002 8.68 8.03 8.41 8.28 8.17H8.29001ZM5.22 18.18C4.68 15.49 5.12001 12.96 6.45001 10.54L11.44 17.09L10.43 18.12C10.18 18.38 9.93001 18.64 9.67001 18.89C9.60001 18.96 9.59001 19.02 9.64001 19.11C10.19 20.23 11.03 21.18 12.06 21.88C12.09 21.9 12.13 21.92 12.16 21.95C12.16 21.95 12.16 21.96 12.19 22L8.92999 24.45C6.97999 22.77 5.71999 20.7 5.20999 18.19L5.22 18.18ZM24.34 23.16C22.56 25.19 20.34 26.43 17.67 26.86C17.33 26.91 16.99 26.93 16.65 26.97C16.61 26.97 16.56 26.99 16.52 27H15.49C15.22 26.97 14.95 26.95 14.68 26.92C13.23 26.75 11.83 26.28 10.56 25.56C10.54 25.55 10.52 25.53 10.49 25.51C12.7 23.86 14.89 22.22 17.1 20.57L17.77 21.22C18.14 21.58 18.51 21.94 18.87 22.31C18.96 22.4 19.02 22.4 19.13 22.35C20.23 21.8 21.17 20.98 21.86 19.96L21.97 19.8C21.97 19.8 22.03 19.87 22.05 19.9C22.82 20.92 23.58 21.94 24.35 22.96C24.42 23.05 24.41 23.1 24.34 23.18V23.16ZM25.55 21.41L20.63 14.91L21.55 13.96C21.81 13.69 22.06 13.43 22.32 13.17C22.4 13.09 22.4 13.03 22.35 12.93C21.8 11.8 20.95 10.83 19.9 10.13C19.86 10.1 19.83 10.08 19.76 10.03L23.04 7.57C24.9 9.16 26.13 11.12 26.7 13.48C27.41 16.43 26.78 19.35 25.55 21.41Z" fill="#213147"/>
</g>
<defs>
<clipPath id="clip0_298_474">
<rect width="32" height="32" fill="white"/>
</clipPath>
</defs>
</svg>
