<svg width="32" height="32" viewBox="0 0 32 32" fill="none" xmlns="http://www.w3.org/2000/svg">
  <path fill-rule="evenodd" clip-rule="evenodd"
    d="M31.9514 17.2566L29.9574 17.1017C29.9856 16.7385 30 16.3711 30 16C30 15.6289 29.9856 15.2615 29.9574 14.8983L31.9514 14.7434C31.9836 15.158 32 15.5771 32 16C32 16.4229 31.9836 16.842 31.9514 17.2566ZM31.5613 12.2633L29.6162 12.7286C29.4442 12.0098 29.2167 11.3125 28.9385 10.6415L30.7859 9.87539C31.1042 10.643 31.3645 11.4408 31.5613 12.2633ZM29.6443 7.63905L27.94 8.68564C27.5553 8.05912 27.1224 7.46495 26.6466 6.90831L28.1668 5.60871C28.7102 6.24434 29.2046 6.92307 29.6443 7.63905ZM26.3913 3.83321L25.0917 5.35342C24.535 4.87756 23.9409 4.44473 23.3144 4.06L24.361 2.35569C25.0769 2.79537 25.7557 3.28982 26.3913 3.83321ZM22.1246 1.21409L21.3585 3.06154C20.6875 2.78328 19.9902 2.5558 19.2714 2.38381L19.7367 0.438703C20.5592 0.635478 21.357 0.895765 22.1246 1.21409ZM17.2566 0.0486182L17.1017 2.04261C16.7385 2.0144 16.3711 2 16 2C15.6289 2 15.2615 2.0144 14.8983 2.04261L14.7434 0.0486183C15.158 0.0164067 15.5771 0 16 0C16.4229 0 16.842 0.0164067 17.2566 0.0486182ZM12.2633 0.438703L12.7286 2.38381C12.0098 2.5558 11.3125 2.78329 10.6415 3.06154L9.87539 1.21409C10.643 0.895765 11.4408 0.635479 12.2633 0.438703ZM7.63905 2.3557L8.68564 4.06C8.05912 4.44473 7.46495 4.87756 6.90831 5.35342L5.60871 3.83321C6.24434 3.28982 6.92307 2.79537 7.63905 2.3557ZM3.83321 5.60872L5.35342 6.90832C4.87756 7.46495 4.44473 8.05913 4.06 8.68564L2.35569 7.63905C2.79537 6.92307 3.28982 6.24435 3.83321 5.60872ZM1.21409 9.8754L3.06154 10.6415C2.78328 11.3125 2.5558 12.0098 2.38381 12.7286L0.438703 12.2633C0.635478 11.4408 0.895764 10.643 1.21409 9.8754ZM0.0486182 14.7434C0.0164067 15.158 0 15.5771 0 16C0 16.4229 0.0164067 16.842 0.0486183 17.2566L2.04261 17.1017C2.0144 16.7385 2 16.3711 2 16C2 15.6289 2.0144 15.2615 2.04261 14.8983L0.0486182 14.7434ZM0.438703 19.7367L2.38381 19.2714C2.5558 19.9902 2.78329 20.6875 3.06154 21.3585L1.21409 22.1246C0.895765 21.357 0.635479 20.5592 0.438703 19.7367ZM2.3557 24.361L4.06 23.3144C4.44473 23.9409 4.87756 24.5351 5.35342 25.0917L3.83321 26.3913C3.28982 25.7557 2.79537 25.0769 2.3557 24.361ZM5.60872 28.1668L6.90832 26.6466C7.46495 27.1224 8.05913 27.5553 8.68564 27.94L7.63905 29.6443C6.92307 29.2046 6.24435 28.7102 5.60872 28.1668ZM9.8754 30.7859L10.6415 28.9385C11.3125 29.2167 12.0098 29.4442 12.7286 29.6162L12.2633 31.5613C11.4408 31.3645 10.643 31.1042 9.8754 30.7859ZM14.7434 31.9514L14.8983 29.9574C15.2615 29.9856 15.6289 30 16 30C16.3711 30 16.7385 29.9856 17.1017 29.9574L17.2566 31.9514C16.842 31.9836 16.4229 32 16 32C15.5771 32 15.158 31.9836 14.7434 31.9514ZM19.7367 31.5613L19.2714 29.6162C19.9902 29.4442 20.6875 29.2167 21.3585 28.9385L22.1246 30.7859C21.357 31.1042 20.5592 31.3645 19.7367 31.5613ZM24.361 29.6443L23.3144 27.94C23.9409 27.5553 24.5351 27.1224 25.0917 26.6466L26.3913 28.1668C25.7557 28.7102 25.0769 29.2046 24.361 29.6443ZM28.1668 26.3913L26.6466 25.0917C27.1224 24.535 27.5553 23.9409 27.94 23.3144L29.6443 24.361C29.2046 25.0769 28.7102 25.7557 28.1668 26.3913ZM30.7859 22.1246L28.9385 21.3585C29.2167 20.6875 29.4442 19.9902 29.6162 19.2714L31.5613 19.7367C31.3645 20.5592 31.1042 21.357 30.7859 22.1246Z"
    fill="url(#paint0_linear_42_5)" />
  <g clip-path="url(#circleClip)">
    <g style="transform: scale(0.8125); transform-origin: 50% 50%;"><g clip-path="url(#clip0_297_171)"><path fill="#fff" d="M32 16c0 8.84-7.16 16-16 16S0 24.84 0 16 7.16 0 16 0s16 7.16 16 16"/><path fill="#51377C" d="M27.78 21.95 16.97 2.56c-.19-.35-.55-.56-.94-.56s-.76.22-.94.56L4.28 21.95c-.28.51-.11 1.15.38 1.45l10.82 6.47c.35.2.78.2 1.12 0l10.81-6.46c.49-.31.65-.95.36-1.46zm-8.18-7.82-.26-.22-.02-.02c-.08-.07-.17-.13-.26-.19l-.02-.02c-.09-.06-.18-.12-.28-.18-.02 0-.02-.02-.03-.02-.09-.06-.18-.1-.28-.15-.02 0-.02-.02-.03-.02-.09-.05-.19-.09-.29-.13-.02 0-.02-.02-.03-.02-.09-.03-.18-.07-.26-.1-.24-.09-.49-.16-.74-.21-.19.36-.45.69-.75.97.45.03.88.14 1.3.31.23.1.46.22.68.36.01 0 .02 0 .03.02.06.03.11.07.16.12.03.02.05.03.07.06.05.03.1.08.15.12.03.03.06.05.09.07.05.05.09.07.13.12l.3.3s.07.08.1.12c.03.03.06.07.09.1l.09.13s.05.08.07.12l.09.13s.05.08.07.12c.03.05.05.09.07.13.03.05.05.09.07.13.02.05.05.09.06.13.02.06.05.11.07.16.12.3.21.62.25.94l.13.52c.06.22.59 2.11 1.83 2.74 1.42.74 3.29 1.65 4.03 2l-9.71 5.81V24.6c0-.63 1.25-1.37 1.83-1.62l.03-.02c.12-.06.24-.12.36-.19l.05-.03c.25-.15.49-.32.71-.52.02-.02.05-.03.06-.06.03-.02.05-.05.07-.06.07-.06.13-.13.21-.19l.03-.03q.12-.105.21-.24c.02-.03.05-.05.06-.07.06-.07.11-.13.16-.21.02-.02.03-.05.05-.06l.18-.26s.02-.02.02-.03c.07-.12.15-.25.22-.37-.27-.34-.5-.7-.69-1.09-.08.22-.17.43-.28.63-.05.09-.1.18-.15.26-.02.02-.02.03-.03.03l-.15.21c-.02.02-.03.05-.05.06-.05.07-.1.13-.16.19-.02.02-.02.03-.03.03-.36.4-.79.73-1.27.97l-.09.05c-.25.1-2.42 1.09-2.42 2.58v3.98l-9.73-5.79c.63-.38 2.46-1.48 3.97-1.95.59-.19 1.84.6 2.55 1.18l.05.05c.09.09.19.18.29.25l.03.03c.22.19.47.35.72.49l.18.09s.02 0 .03.02c.16.09.33.17.5.24.02.01.05.02.07.03.02 0 .03.02.06.02.25.09.5.16.75.22.2-.37.46-.69.77-.97a4.6 4.6 0 0 1-1.21-.26c-.02-.02-.05-.02-.06-.03a.3.3 0 0 1-.13-.06c-.02-.02-.05-.02-.06-.03-.05-.02-.09-.05-.12-.06a3.9 3.9 0 0 1-.81-.52l-.38-.36a8 8 0 0 0-1.15-.83c-.96-.55-1.77-.72-2.39-.53-1.28.41-2.74 1.19-3.63 1.71l9.72-17.46v7.65c0 .26-.4.97-1.74 1.58l-.09.05c-.13.06-.25.13-.38.21l-.03.02a5.3 5.3 0 0 0-1.12.9l-.02.02c-.13.13-.25.27-.36.41l-.02.02c-.06.07-.1.15-.16.22 0 .02-.02.02-.02.03-.05.07-.09.13-.13.21 0 .02-.02.02-.02.03l-.13.22s-.02.03-.03.06c-.05.07-.07.15-.1.21 0 .01 0 .02-.02.03-.03.07-.06.13-.09.21-.01.02-.02.05-.03.07l-.09.22s-.02.05-.03.07c-.01.06-.03.11-.06.16l-.03.09c-.02.07-.05.15-.06.21l-.03.1c-.02.05-.02.1-.03.15-.02.05-.02.09-.03.13-.02.06-.02.12-.03.18 0 .05-.02.07-.02.12 0 .06-.02.1-.02.16 0 .05 0 .11-.02.16v.22c0 .27.02.53.06.8.42.11.83.26 1.21.46-.12-.39-.18-.79-.19-1.19v-.07c0-.1 0-.2.02-.29v-.07c0-.08.01-.17.03-.25v-.03c.02-.09.03-.18.05-.28 0-.03.02-.05.02-.07.02-.07.05-.15.06-.22 0-.02.02-.03.02-.05l.09-.26s.02-.05.03-.06c.03-.07.06-.15.09-.21.02-.02.02-.03.03-.06.04-.08.08-.16.13-.24.01-.01.02-.03.03-.05.05-.07.07-.13.12-.21a1.768 1.768 0 0 1 .19-.27h.01c.06-.07.1-.13.16-.21.01-.01.02-.03.03-.05.27-.29.57-.55.9-.77l.46-.22c.25-.1 2.41-1.12 2.41-2.61V4.04l9.81 17.61c-.87-.43-2.42-1.19-3.61-1.81-.69-.36-1.15-1.61-1.28-2.07l-.13-.53c-.01-.29-.07-.57-.16-.84-.31-.88-.84-1.66-1.54-2.27"/></g><defs><clipPath id="clip0_297_171"><path fill="#fff" d="M0 0h32v32H0z"/></clipPath></defs></g>
  </g>
  <defs>
    <clipPath id="circleClip">
      <circle cx="16" cy="16" r="13" />
    </clipPath>
    <linearGradient id="paint0_linear_42_5" x1="26.976" y1="4.32" x2="6.59198" y2="28.352"
      gradientUnits="userSpaceOnUse">
      <stop stop-color="#B6509E" />
      <stop offset="1" stop-color="#2EBAC6" />
    </linearGradient>
  </defs>
</svg>