<svg xmlns="http://www.w3.org/2000/svg" width="50" height="50" fill="none" viewBox="0 0 50 50"><g clip-path="url(#clip0_1_10)"><path fill="#00DACC" d="M50 24.46C49.7 10.88 38.6 0 25 0 11.2 0 0 11.2 0 25c0 9.96 5.92 18.98 15.06 22.94 1.22-1.82 2.14-3.84 2.76-5.94.5-1.28 1.04-2.52 1.62-3.74.72.22 1.48.34 2.26.34 2.1 0 4.1-.84 5.56-2.32l.08-.08c-.86-.32-1.78-.48-2.7-.48-1.7 0-3.36.56-4.72 1.6q1.05-2.16 2.22-4.2c.84.3 1.72.44 2.6.44 1.96 0 3.84-.74 5.28-2.06l.08-.08c-.96-.4-2-.62-3.04-.62-1.54 0-3.04.46-4.32 1.3.78-1.28 1.56-2.52 2.4-3.7.64.18 1.32.26 1.98.26 2.2 0 4.3-.92 5.78-2.56l.06-.08a7.4 7.4 0 0 0-2.38-.38c-1.6 0-3.16.5-4.46 1.42.06-.08.14-.18.2-.28.5-.64 1.02-1.3 1.54-1.92a9.21 9.21 0 0 0 6.22-7.2l.02-.12h-.02c-3.38.88-5.96 3.6-6.66 7.02-.5.6-1 1.22-1.48 1.84.34-.88.5-1.8.5-2.74 0-1.34-.34-2.64-1-3.8l-.06.08a7.84 7.84 0 0 0-1.52 4.62c0 1.22.28 2.44.84 3.54-.8 1.12-1.56 2.28-2.3 3.5.1-.48.14-.98.14-1.46 0-2-.78-3.92-2.16-5.36l-.04.1c-.38.92-.56 1.92-.56 2.9 0 1.88.68 3.68 1.9 5.1-.74 1.28-1.42 2.6-2.1 3.96.06-.42.1-.86.1-1.28 0-2.16-.86-4.24-2.4-5.74l-.04.1c-.28.84-.44 1.74-.44 2.62 0 2.06.78 4.04 2.2 5.54-.44.94-.86 1.88-1.26 2.86-.1-.1-.24-.18-.38-.22-.72-.2-1.4-.52-2.02-.9-.52-.32-1.08-.56-1.66-.76-2.26-.74-1.92-1.82-3.1-4.02-.38-.44-.78-.88-1.2-1.3-.4-.26-.72-.6-.94-1.02-.26-.52-.42-1.08-.48-1.66-.02-.66-.44-1.22-1.06-1.42-3.32-1.14-1.84-5.46-1.72-6.02-.06-.72-.22-1.44-.48-2.14-.02-.08-.04-.18-.06-.28a2.95 2.95 0 0 1 .68-2.54c.4-.4 1.78-1.04 2.08-1.42s.5-.8.8-1.14c.92-.92 2-1.7 3.18-2.28.96-.52 1.12-1.86 1.5-2.28.62-.72 1.58-.72 2.3-1.34.36-.32.88-.48 1.22-.82 1.66-1.52 3.78-2.5 6.02-2.78.36-.02.74-.04 1.12-.04 1.2 0 2.38.16 3.52.46.22.04.44.08.64.14 3.44.12 7.58.84 9.1 2.3.74.72 1.3 1.6 1.6 2.6.24.76.58 1.5 1 2.18l.92 1.5c.42.66.64 1.44.64 2.22 0 .32-.04.64-.1.96-.1.28-.14.58-.14.88 0 .26.04.5.1.74.48.74 1.06 1.4 1.7 2q.39.39.84.66c.7.42 1.4.88 2.04 1.38v.12c0 .38-.18.72-.48.92-.58.52-1.72 1.34-1.72 1.34.04.24.12.46.2.66.16.3.54.76.42 1.14-.12.4-.94.74-.72 1.18.22.46.82.58.64 1-.16.4-.98 1.1-.9 1.4s.76 3.1-.8 3.58c-1.92.38-3.86.6-5.82.64-.64.04-1.22.4-1.52.96s-.48 1.16-.56 1.78c-.56 2.22-1.32 4.4-2.24 6.5s-.06.12-.14.32c-.2.42-.34.86-.38 1.32.14.34.34.64.58.9.2.22.48.36.8.36.1 0 .22-.02.32-.04 10.12-3.52 16.9-13.08 16.9-23.8v-.44z"/></g><defs><clipPath id="clip0_1_10"><path fill="#fff" d="M0 0h50v50H0z"/></clipPath></defs></svg>