<svg xmlns="http://www.w3.org/2000/svg" fill="none" viewBox="0 0 50 50">
  <g clip-path="url(#clip0_1_8)">
    <path fill="#F0B90B" fill-rule="evenodd" d="M25 0c13.8081 0 25 11.1919 25 25S38.8081 50 25 50 0 38.8081 0 25 11.1919 0 25 0Z" clip-rule="evenodd"/>
    <path fill="#fff" d="m13.74 25 .018 6.6106 5.617 3.3053v3.8702l-8.9042-5.2224V23.0669L13.74 25Zm0-6.6106v3.8522l-3.2712-1.9351v-3.8522l3.2712-1.9351 3.2872 1.9351-3.2872 1.9351Zm7.9808-1.9351 3.2712-1.9351 3.2872 1.9351-3.2872 1.9351-3.2712-1.9351Z"/>
    <path fill="#fff" d="M16.1038 30.2404v-3.8702l3.2712 1.9351v3.8521l-3.2712-1.917Zm5.617 6.0617 3.2712 1.9351 3.2872-1.9351v3.8521l-3.2872 1.9351-3.2712-1.9351v-3.8521Zm11.25-19.8478 3.2712-1.9351 3.2873 1.9351v3.8522l-3.2873 1.9351v-3.8522l-3.2712-1.9351Zm3.2712 15.1563L36.26 25l3.2713-1.9351v10.4968L30.627 38.784v-3.8701l5.615-3.3033Z"/>
    <path fill="#fff" d="m33.8962 30.2404-3.2712 1.9171v-3.8522l3.2712-1.9351v3.8702Z"/>
    <path fill="#fff" d="m33.8962 19.7596.0181 3.8702-5.633 3.3053v6.6266L25.01 35.4788l-3.2712-1.9171v-6.6266l-5.633-3.3053v-3.8702l3.2852-1.9351 5.599 3.3213 5.633-3.3213 3.2873 1.9351h-.0141ZM16.1038 13.151l8.8882-5.24034 8.9042 5.24034-3.2712 1.9351-5.633-3.3213-5.617 3.3213-3.2712-1.9351Z"/>
  </g>
  <defs>
    <clipPath id="clip0_1_8">
      <path fill="#fff" d="M0 0h50v50H0z"/>
    </clipPath>
  </defs>
</svg>