<svg width="32" height="32" viewBox="0 0 32 32" fill="none" xmlns="http://www.w3.org/2000/svg">
<path fill-rule="evenodd" clip-rule="evenodd" d="M32 16C32 24.84 24.84 32 16 32C7.16 32 0 24.84 0 16C0 7.16 7.16 0 16 0C24.84 0 32 7.16 32 16ZM11.47 22.37H8.36002C7.71002 22.37 7.39 22.37 7.19 22.24C6.98 22.1 6.85002 21.87 6.83002 21.62C6.82002 21.39 6.98002 21.11 7.30002 20.54L14.97 7.03C15.3 6.46 15.46 6.17 15.67 6.06C15.89 5.95 16.16 5.95 16.39 6.06C16.6 6.17 16.76 6.45 17.09 7.03L18.67 9.78C19.02 10.41 19.2 10.72 19.28 11.05C19.37 11.41 19.37 11.78 19.28 12.14C19.2 12.47 19.02 12.78 18.67 13.41L14.64 20.53V20.55C14.27 21.17 14.1 21.49 13.85 21.72C13.58 21.98 13.25 22.17 12.89 22.27C12.56 22.36 12.2 22.36 11.47 22.36V22.37ZM19.31 22.37H23.76C24.42 22.37 24.75 22.37 24.94 22.24C25.15 22.1 25.29 21.87 25.3 21.62C25.31 21.4 25.15 21.12 24.84 20.59C24.83 20.57 24.82 20.55 24.81 20.53L22.58 16.72L22.55 16.68C22.24 16.15 22.08 15.88 21.88 15.78C21.66 15.67 21.39 15.67 21.17 15.78C20.97 15.89 20.8 16.17 20.47 16.73L18.25 20.54C17.92 21.11 17.76 21.39 17.77 21.62C17.79 21.87 17.92 22.1 18.13 22.24C18.32 22.37 18.65 22.37 19.31 22.37Z" fill="#213147"/>
</svg>
