<svg width="32" height="33" viewBox="0 0 32 33" fill="none" xmlns="http://www.w3.org/2000/svg">
<path d="M16 0.27002C7.16 0.27002 0 7.43002 0 16.27C0 25.11 7.16 32.27 16 32.27C24.84 32.27 32 25.11 32 16.27C32 7.43002 24.84 0.27002 16 0.27002ZM16.05 7.32002L21.59 10.48V11.67L16.05 8.57002V7.32002ZM21.52 11.79L18.31 13.61L16.95 14.38C16.95 14.38 16.92 14.43 16.93 14.46C16.93 14.48 16.95 14.49 16.97 14.5L20.37 16.3L19.33 16.85L14.94 14.38L19.35 11.8C19.35 11.8 19.38 11.75 19.37 11.72C19.37 11.7 19.35 11.69 19.34 11.68L16.02 9.79002H15.97L12.64 11.69L11.54 11.2L15.99 8.71002L21.54 11.8L21.52 11.79ZM19.36 20.9L19.59 20.67L19.38 20.79V16.97L20.43 16.42L20.48 21.49L16.08 23.99V22.83L19.35 20.91L19.36 20.9ZM17 19.47L11.42 16.28L11.44 11.29L12.57 11.79V15.77L12.58 15.79C12.58 15.79 12.59 15.82 12.61 15.83L17 18.25V19.47ZM14.87 14.25V13.07L18.23 11.2L19.17 11.73L14.87 14.25ZM10.38 10.55L15.91 7.32002V8.57002L11.34 11.13C11.34 11.13 11.31 11.17 11.31 11.19L11.29 16.29L10.4 16.94L10.38 10.54V10.55ZM10.41 20.84L13.66 19L14.71 19.58L10.41 22.1V20.84ZM16 25.34L10.48 22.21L14.89 19.63C14.89 19.63 14.92 19.57 14.91 19.55C14.91 19.53 14.89 19.52 14.88 19.51L10.46 17.08L11.37 16.41L16.95 19.59L13.66 21.45L12.52 22.09C12.52 22.09 12.49 22.14 12.5 22.17C12.5 22.19 12.52 22.2 12.53 22.21L15.96 24.14L15.9 24.17H16.05H16.06L20.56 21.6L21.54 22.05L15.99 25.33L16 25.34ZM15.95 22.83V23.98L12.67 22.14L13.67 21.58L15.95 22.83ZM20.63 21.49L20.58 16.31V16.29C20.58 16.28 20.56 16.26 20.55 16.25L17.14 14.45L18.35 13.76L21.61 15.8L21.63 21.96L20.64 21.5L20.63 21.49Z" fill="#213147"/>
</svg>
