<svg width="32" height="32" viewBox="0 0 32 32" fill="none" xmlns="http://www.w3.org/2000/svg">
<path d="M16 32C24.8366 32 32 24.8366 32 16C32 7.16344 24.8366 0 16 0C7.16344 0 0 7.16344 0 16C0 24.8366 7.16344 32 16 32Z" fill="black"/>
<path d="M19.39 16.7L19.4 20.52L19.61 20.39L19.38 20.62L19.37 20.63H19.36L16.1 22.55V23.72L20.5 21.22L20.45 16.14L19.39 16.7Z" fill="#FFB500"/>
<path d="M20.59 16.02V16.04L20.64 21.22L21.63 21.68L21.61 15.53L18.35 13.49L17.14 14.18L20.55 15.98C20.55 15.98 20.58 16.01 20.58 16.02H20.59Z" fill="#FFB500"/>
<path d="M21.59 11.4V10.22L16.05 7.06V8.31L21.59 11.4Z" fill="#FFB500"/>
<path d="M11.34 10.87L15.91 8.31V7.06L10.38 10.29L10.4 16.69L11.29 16.04L11.31 10.94C11.31 10.94 11.32 10.9 11.34 10.89V10.87Z" fill="#FFB500"/>
<path d="M21.54 21.79L20.56 21.34L16.06 23.9H16.05H15.9L15.96 23.87L12.53 21.94C12.53 21.94 12.5 21.92 12.5 21.9C12.48 21.87 12.5 21.83 12.52 21.82L13.66 21.17L16.95 19.31L11.37 16.13L10.46 16.8L14.88 19.23C14.88 19.23 14.91 19.25 14.91 19.27C14.92 19.3 14.91 19.33 14.89 19.35L10.48 21.94L16 25.07L21.55 21.79H21.54Z" fill="#FFB500"/>
<path d="M16.93 14.2C16.93 14.2 16.93 14.13 16.95 14.12L18.31 13.34L21.52 11.52L15.97 8.42999L11.52 10.92L12.62 11.41L15.95 9.50999H16.01L19.33 11.41C19.35 11.41 19.36 11.43 19.36 11.45C19.38 11.48 19.36 11.52 19.34 11.53L14.93 14.12L19.32 16.59L20.36 16.04L16.96 14.24C16.96 14.24 16.93 14.22 16.92 14.2H16.93Z" fill="#FFB500"/>
<path d="M15.95 23.72V22.57L13.67 21.32L12.67 21.88L15.95 23.72Z" fill="#FFB500"/>
<path d="M10.41 20.57V21.83L14.71 19.31L13.66 18.73L10.41 20.57Z" fill="#FFB500"/>
<path d="M14.88 12.8L14.87 13.99L19.17 11.47L18.23 10.93L14.88 12.8Z" fill="#FFB500"/>
<path d="M17 17.99L12.61 15.57C12.61 15.57 12.59 15.55 12.58 15.53V15.51L12.57 11.53L11.44 11.03L11.42 16.02L17 19.21V17.99Z" fill="#FFB500"/>
</svg>
