<svg width="32" height="32" viewBox="0 0 32 32" fill="none" xmlns="http://www.w3.org/2000/svg">
<g clip-path="url(#clip0_97_2747)">
<path d="M31.5198 19.8697C29.3798 28.4397 20.6998 33.6597 12.1298 31.5197C3.55979 29.3797 -1.66021 20.6997 0.479788 12.1297C2.61979 3.55973 11.2998 -1.66027 19.8698 0.479728C28.4398 2.61973 33.6598 11.2997 31.5198 19.8697Z" fill="#F7931A"/>
<path d="M23.0498 13.7197C23.3698 11.5897 21.7498 10.4497 19.5298 9.67973L20.2498 6.79973L18.4898 6.35973L17.7898 9.16973C17.3298 9.05973 16.8498 8.94973 16.3798 8.83973L17.0798 6.00973L15.3298 5.56973L14.6098 8.44973C14.2298 8.35973 13.8498 8.27973 13.4898 8.18973L11.0698 7.57973L10.5998 9.44973C10.5998 9.44973 11.8998 9.74973 11.8698 9.76973C12.5798 9.94973 12.7098 10.4197 12.6898 10.7897L11.8698 14.0797C11.8698 14.0797 11.9798 14.1097 12.0498 14.1397C11.9898 14.1297 11.9298 14.1097 11.8598 14.0897L10.7098 18.6897C10.6198 18.9097 10.3998 19.2297 9.90979 19.1097C9.92979 19.1397 8.62979 18.7897 8.62979 18.7897L7.75979 20.7997L10.0398 21.3697C10.4598 21.4797 10.8798 21.5897 11.2898 21.6897L10.5598 24.6097L12.3098 25.0497L13.0298 22.1597C13.5098 22.2897 13.9698 22.4097 14.4298 22.5197L13.7098 25.3897L15.4698 25.8297L16.1998 22.9197C19.1898 23.4897 21.4398 23.2597 22.3898 20.5497C23.1498 18.3697 22.3498 17.1097 20.7798 16.2897C21.9298 16.0297 22.7898 15.2697 23.0198 13.7097L23.0498 13.7197ZM19.0398 19.3497C18.4998 21.5297 14.8298 20.3497 13.6398 20.0597L14.5998 16.1997C15.7898 16.4997 19.6098 17.0797 19.0398 19.3597V19.3497ZM19.5798 13.6897C19.0898 15.6697 16.0298 14.6697 15.0398 14.4197L15.9098 10.9197C16.8998 11.1697 20.0898 11.6297 19.5798 13.6997V13.6897Z" fill="white"/>
</g>
<defs>
<clipPath id="clip0_97_2747">
<rect width="32" height="32" fill="white"/>
</clipPath>
</defs>
</svg>
