<svg width="32" height="32" viewBox="0 0 32 32" fill="none" xmlns="http://www.w3.org/2000/svg">
<g clip-path="url(#clip0_292_114)">
<path d="M16 32C24.8366 32 32 24.8366 32 16C32 7.16344 24.8366 0 16 0C7.16344 0 0 7.16344 0 16C0 24.8366 7.16344 32 16 32Z" fill="white"/>
<path d="M16 3.25L19.18 6.43L11.2 14.41L8.01999 11.23L16 3.25ZM8.03 20.78L11.21 23.96L23.96 11.21L20.78 8.03L8.03 20.78ZM12.81 25.56L15.99 28.75L28.74 16L25.56 12.82L12.81 25.56ZM9.60999 16L6.42999 12.82L3.25 16L6.42999 19.18L9.60999 16Z" fill="#F0B90B"/>
</g>
<defs>
<clipPath id="clip0_292_114">
<rect width="32" height="32" fill="white"/>
</clipPath>
</defs>
</svg>
