<svg width="32" height="32" viewBox="0 0 32 32" fill="none" xmlns="http://www.w3.org/2000/svg">
<g clip-path="url(#clip0_98_2762)">
<path d="M16 32C24.8366 32 32 24.8366 32 16C32 7.16344 24.8366 0 16 0C7.16344 0 0 7.16344 0 16C0 24.8366 7.16344 32 16 32Z" fill="url(#paint0_linear_98_2762)"/>
<path fill-rule="evenodd" clip-rule="evenodd" d="M15.96 26.62C12.85 26.62 10.34 25.87 8.59 24.53C6.82 23.17 5.88 21.24 5.88 19.06C5.88 16.88 6.82 15.44 7.88 14.42C8.71 13.62 9.63 13.1 10.27 12.81C10.09 12.27 9.93 11.73 9.78 11.18C9.56 10.38 9.35 9.43 9.35 8.74C9.35 7.92 9.53 7.1 10.01 6.46C10.52 5.79 11.28 5.43 12.2 5.43C12.92 5.43 13.53 5.7 14.01 6.16C14.47 6.6 14.77 7.18 14.98 7.79C15.35 8.86 15.49 10.2 15.53 11.54H16.41C16.45 10.2 16.59 8.86 16.96 7.79C17.17 7.18 17.47 6.6 17.93 6.16C18.41 5.7 19.02 5.43 19.74 5.43C20.66 5.43 21.42 5.79 21.93 6.46C22.41 7.1 22.59 7.92 22.59 8.74C22.59 9.43 22.38 10.37 22.16 11.18C22.01 11.73 21.85 12.27 21.67 12.81C22.31 13.11 23.23 13.62 24.06 14.42C25.12 15.44 26.06 16.96 26.06 19.06C26.06 21.16 25.12 23.17 23.35 24.53C21.6 25.87 19.09 26.62 15.98 26.62H15.96Z" fill="#633001"/>
<path d="M12.2 6.22C10.85 6.22 10.23 7.24 10.23 8.64C10.23 9.76 10.95 11.99 11.25 12.86C11.31 13.06 11.21 13.27 11.02 13.35C9.94 13.78 6.76 15.35 6.76 18.96C6.76 22.76 10 25.62 15.97 25.63H15.98C21.95 25.63 25.19 22.76 25.19 18.96C25.19 15.16 22 13.78 20.93 13.35C20.74 13.27 20.64 13.06 20.7 12.86C21 11.99 21.72 9.76 21.72 8.64C21.72 7.24 21.1 6.22 19.75 6.22C17.81 6.22 17.33 8.99 17.29 11.97C17.29 12.17 17.13 12.33 16.93 12.33H15.02C14.82 12.33 14.66 12.17 14.66 11.97C14.63 8.99 14.14 6.22 12.2 6.22Z" fill="#D1884F"/>
<path d="M15.97 24.4C11.58 24.4 6.76 22.03 6.75 18.96C6.75 22.78 9.99 25.64 15.97 25.64C21.95 25.64 25.19 22.78 25.19 18.97C25.19 22.03 20.36 24.4 15.97 24.4Z" fill="#FEDC90"/>
<path d="M13.54 18.02C13.54 19.06 13.05 19.6 12.46 19.6C11.87 19.6 11.38 19.06 11.38 18.02C11.38 16.98 11.87 16.44 12.46 16.44C13.05 16.44 13.54 16.98 13.54 18.02ZM20.58 18.02C20.58 19.06 20.09 19.6 19.5 19.6C18.91 19.6 18.42 19.06 18.42 18.02C18.42 16.98 18.9 16.44 19.5 16.44C20.1 16.44 20.58 16.98 20.58 18.02Z" fill="#633001"/>
</g>
<defs>
<linearGradient id="paint0_linear_98_2762" x1="16" y1="0" x2="16" y2="32" gradientUnits="userSpaceOnUse">
<stop stop-color="#53DEE9"/>
<stop offset="1" stop-color="#1FC7D4"/>
</linearGradient>
<clipPath id="clip0_98_2762">
<rect width="32" height="32" fill="white"/>
</clipPath>
</defs>
</svg>
