<svg width="32" height="32" viewBox="0 0 32 32" fill="none" xmlns="http://www.w3.org/2000/svg">
<path d="M15.89 0.119995C7.11 0.119995 0 7.22999 0 16.01C0 24.79 7.11 31.9 15.89 31.9C24.67 31.9 31.78 24.79 31.78 16.01C31.78 7.22999 24.67 0.119995 15.89 0.119995ZM15.89 31.02C7.6 31.02 0.89 24.3 0.89 16.02C0.89 7.74 7.61 1.02 15.89 1.02C24.17 1.02 30.89 7.74 30.89 16.02C30.89 24.3 24.17 31.02 15.89 31.02Z" fill="#213147"/>
<path d="M15.89 2.50999C8.43 2.50999 2.39 8.55999 2.39 16.01C2.39 23.46 8.44 29.51 15.89 29.51C23.34 29.51 29.39 23.46 29.39 16.01C29.39 8.55999 23.34 2.50999 15.89 2.50999ZM15.89 26.91L9.18 17.31L15.89 21.33L22.61 17.38L15.89 26.91ZM15.89 20.02L9.19 16.01L15.89 4.69L22.61 16.03L15.89 20.04V20.02Z" fill="#213147"/>
</svg>
