<svg width="32" height="32" viewBox="0 0 32 32" fill="none" xmlns="http://www.w3.org/2000/svg">
<g clip-path="url(#clip0_294_3414)">
<path d="M16 32C24.8366 32 32 24.8366 32 16C32 7.16344 24.8366 0 16 0C7.16344 0 0 7.16344 0 16C0 24.8366 7.16344 32 16 32Z" fill="#7567CD"/>
<path d="M25.59 21.69C25.18 21.04 24.48 21.04 24.15 21.04H21.89C19.25 21.04 16.54 21.04 13.88 21.02C13.02 21.02 12.03 20.97 11.06 20.7C10.34 20.5 9.91 20.07 9.73 19.37C9.62 18.92 9.57 18.47 9.55 17.99V17.9H23.97C24.2 17.9 24.42 17.9 24.67 17.85C25.37 17.71 25.75 17.29 25.8 16.65C25.8 16.58 25.82 16.49 25.82 16.42C25.87 15.88 25.93 15.13 25.17 14.64C24.92 14.5 24.63 14.41 24.33 14.41H9.55C9.55 14.3 9.57 14.16 9.57 14.03C9.71 12.45 10.22 11.89 11.78 11.64C12.28 11.55 12.8 11.5 13.29 11.5C16.79 11.5 20.31 11.48 23.81 11.45C24.1 11.45 24.37 11.43 24.65 11.38C25.26 11.29 25.71 10.82 25.78 10.25C26.01 8.94 25.51 8.22 24.22 7.97C23.81 7.88 23.43 7.86 23.05 7.81C22.89 7.81 22.71 7.79 22.55 7.76H12.44C12.21 7.78 11.99 7.81 11.76 7.83C11.06 7.9 10.36 7.97 9.64 8.12C6.91 8.73 5.6 10.15 5.28 12.93C5.26 13.2 5.21 13.47 5.19 13.76L5.14 14.17V18.46C5.16 18.64 5.19 18.8 5.21 18.96C5.23 19.32 5.28 19.7 5.35 20.09C5.76 22.53 7.02 23.84 9.48 24.36C10.47 24.59 11.49 24.7 12.5 24.72C14.1 24.74 15.7 24.77 17.33 24.77C18.96 24.77 20.58 24.75 22.18 24.75C22.9 24.73 23.76 24.68 24.59 24.41C24.73 24.36 24.86 24.3 24.97 24.23C25.4 23.96 25.69 23.55 25.8 23.08C25.91 22.61 25.85 22.11 25.57 21.68L25.59 21.69Z" fill="white"/>
</g>
<defs>
<clipPath id="clip0_294_3414">
<rect width="32" height="32" fill="white"/>
</clipPath>
</defs>
</svg>
