<svg width="32" height="32" viewBox="0 0 32 32" fill="none" xmlns="http://www.w3.org/2000/svg">
<g clip-path="url(#clip0_294_3412)">
<path fill-rule="evenodd" clip-rule="evenodd" d="M16 0C7.16 0 0 7.16 0 16C0 24.84 7.16 32 16 32C24.84 32 32 24.84 32 16C32 7.16 24.84 0 16 0ZM25.82 23.09C25.71 23.56 25.41 23.97 24.99 24.24C24.88 24.31 24.74 24.38 24.61 24.42C23.78 24.69 22.92 24.74 22.2 24.76C20.6 24.76 18.97 24.78 17.35 24.78C15.73 24.78 14.12 24.76 12.52 24.73C11.5 24.71 10.49 24.59 9.5 24.37C7.04 23.85 5.78 22.54 5.37 20.1C5.3 19.72 5.26 19.33 5.23 18.97C5.21 18.81 5.18 18.65 5.16 18.47V14.18L5.21 13.77C5.23 13.48 5.28 13.21 5.3 12.94C5.62 10.16 6.92 8.74 9.66 8.13C10.38 7.97 11.08 7.9 11.78 7.84C12.01 7.82 12.23 7.79 12.46 7.77H22.57C22.73 7.79 22.91 7.82 23.07 7.82C23.45 7.87 23.84 7.89 24.24 7.98C25.53 8.23 26.02 8.95 25.8 10.26C25.73 10.82 25.28 11.3 24.67 11.39C24.4 11.44 24.13 11.46 23.83 11.46C20.33 11.48 16.81 11.51 13.31 11.51C12.81 11.51 12.29 11.56 11.8 11.65C10.24 11.9 9.72 12.46 9.59 14.04C9.59 14.18 9.57 14.31 9.57 14.42H24.35C24.64 14.42 24.94 14.51 25.19 14.65C25.96 15.15 25.89 15.89 25.84 16.43C25.84 16.5 25.82 16.59 25.82 16.66C25.77 17.29 25.39 17.72 24.69 17.86C24.44 17.91 24.22 17.91 23.99 17.91H9.57V18C9.59 18.47 9.64 18.93 9.75 19.38C9.93 20.08 10.36 20.51 11.08 20.71C12.05 20.98 13.04 21.03 13.9 21.03C16.56 21.05 19.27 21.05 21.91 21.05H24.17C24.51 21.05 25.21 21.05 25.61 21.7C25.88 22.13 25.95 22.63 25.84 23.1L25.82 23.09Z" fill="#213147"/>
</g>
<defs>
<clipPath id="clip0_294_3412">
<rect width="32" height="32" fill="white"/>
</clipPath>
</defs>
</svg>
