<svg width="32" height="32" viewBox="0 0 32 32" fill="none" xmlns="http://www.w3.org/2000/svg">
<g clip-path="url(#clip0_294_3461)">
<path d="M16 0C7.16357 0 0 7.16357 0 16C0 24.8364 7.16357 32 16 32C24.8364 32 32 24.8364 32 16C32 7.16357 24.8364 0 16 0ZM15.6613 29.1058L7.65619 17.8165L15.6613 22.6196V29.1058ZM8.0154 16.431L15.6613 12.9314V20.8647L8.0154 16.4208V16.431ZM15.6613 12.213L7.94355 15.7126L15.6613 2.89416V12.213ZM16.39 2.89416L24.1078 15.7126L16.39 12.213V2.89416ZM16.39 12.9314L24.0359 16.431L16.39 20.8749V12.9314ZM16.39 22.6299L24.3951 17.8268L16.39 29.1161V22.6299Z" fill="#213147"/>
</g>
<defs>
<clipPath id="clip0_294_3461">
<rect width="32" height="32" fill="white"/>
</clipPath>
</defs>
</svg>
