<svg width="32" height="33" viewBox="0 0 32 33" fill="none" xmlns="http://www.w3.org/2000/svg">
<path d="M16 0.429932C7.16002 0.429932 0 7.58993 0 16.4299C0 25.2699 7.16002 32.4299 16 32.4299C24.84 32.4299 32 25.2699 32 16.4299C32 7.58993 24.84 0.429932 16 0.429932ZM16 8.37993L20.86 16.5899L16 19.4899L11.15 16.5799L16 8.37993ZM5.13 10.0099L9.59 5.54993L11.48 7.43993C9.56 8.40993 7.99001 9.96993 7.01001 11.8899L5.13 10.0099ZM9.59 27.3599L5.13 22.8999L7.02 21.0099C8 22.9299 9.57 24.4899 11.5 25.4499L9.59 27.3599ZM11.13 17.5399L15.99 20.4499L20.85 17.5899L15.99 24.4899L11.13 17.5399ZM22.48 27.3599L20.55 25.4199C22.47 24.4499 24.04 22.8799 25 20.9499L26.94 22.8899L22.48 27.3499V27.3599ZM25.01 11.9399C24.05 10.0099 22.49 8.43993 20.57 7.45993L22.48 5.54993L26.94 10.0099L25.01 11.9399Z" fill="#213147"/>
</svg>
