<svg width="32" height="32" viewBox="0 0 32 32" fill="none" xmlns="http://www.w3.org/2000/svg">
<g clip-path="url(#clip0_297_5)">
<path d="M16 32.0001C24.8364 32.0001 32 24.8366 32 16.0001C32 7.16369 24.8364 0.00012207 16 0.00012207C7.16356 0.00012207 0 7.16369 0 16.0001C0 24.8366 7.16356 32.0001 16 32.0001Z" fill="url(#paint0_linear_297_5)"/>
<path d="M5.20334 13.1367L16 2.40157L26.7967 13.1367L21.501 18.4016L16.1026 13.0443L16.0103 12.9519L15.9179 13.0443L10.5196 18.4118L5.21359 13.1469L5.20334 13.1367Z" fill="#FFF6F0"/>
<path d="M7.82039 20.0847H12.059V21.2957H9.08275V22.8352H11.9461V24.0462H9.08275V25.6062H12.1719V26.8172H7.81012V20.095L7.82039 20.0847ZM18.2681 20.0847V24.4773C18.2681 25.247 18.0629 25.8423 17.6524 26.2836C17.2521 26.7146 16.6466 26.9404 15.8461 26.9404C15.0455 26.9404 14.44 26.7249 14.0295 26.2836C13.6292 25.8525 13.424 25.247 13.424 24.4773V20.0847H14.6863V24.4773C14.6863 24.8775 14.7787 25.1854 14.9634 25.4112C15.1482 25.637 15.4355 25.7499 15.8358 25.7499C16.236 25.7499 16.5234 25.637 16.7081 25.4112C16.8929 25.1854 16.9852 24.8775 16.9852 24.4773V20.0847H18.2681ZM24.0051 26.807H22.7428V24.7954C22.7428 24.6415 22.7017 24.5183 22.6196 24.426C22.5478 24.3336 22.4144 24.2823 22.2296 24.2823H20.7723V26.8172H19.51V20.095H22.0859C22.4349 20.095 22.7325 20.1463 22.9994 20.2387C23.2662 20.331 23.4817 20.4644 23.6562 20.6389C23.8307 20.8031 23.9743 20.9981 24.0565 21.2239C24.1488 21.4497 24.2001 21.6857 24.2001 21.9423V22.1681C24.2001 22.4452 24.1283 22.7018 23.9743 22.9481C23.8307 23.1841 23.6049 23.3689 23.297 23.492V23.6665C23.5228 23.687 23.6972 23.7794 23.8204 23.9231C23.9538 24.0668 24.0257 24.2515 24.0257 24.4773V26.7967L24.0051 26.807ZM20.762 23.061H21.9731C22.281 23.061 22.517 22.9891 22.6709 22.8455C22.8352 22.7018 22.907 22.4965 22.907 22.2297V22.1168C22.907 21.891 22.8249 21.696 22.6709 21.5421C22.5067 21.3779 22.281 21.2957 21.9731 21.2957H20.762V23.061Z" fill="#2A363A"/>
</g>
<defs>
<linearGradient id="paint0_linear_297_5" x1="16" y1="0.00012207" x2="16" y2="32.0001" gradientUnits="userSpaceOnUse">
<stop stop-color="#99B998"/>
<stop offset="1" stop-color="#FDCEAA"/>
</linearGradient>
<clipPath id="clip0_297_5">
<rect width="32" height="32" fill="white"/>
</clipPath>
</defs>
</svg>
