<svg width="32" height="32" viewBox="0 0 32 32" fill="none" xmlns="http://www.w3.org/2000/svg">
<g clip-path="url(#clip0_294_3783)">
<path d="M16 0C7.16356 0 0 7.16357 0 16C0 24.8364 7.16356 32 16 32C24.8364 32 32 24.8364 32 16C32 7.16357 24.8364 0 16 0ZM23.7588 21.2854C23.5022 21.7781 23.1636 22.2194 22.7633 22.5991C22.2399 23.102 21.6446 23.533 21.0083 23.8717C20.3412 24.2207 19.6331 24.4875 18.9044 24.6722C18.186 24.8467 17.4471 24.9391 16.7081 24.9493C15.4561 24.9493 14.2963 24.6825 13.27 24.1591C12.2437 23.6459 11.3303 22.9378 10.5709 22.0757C9.83193 21.2341 9.2367 20.2694 8.82618 19.2329L8.75433 19.0481H4.60807C4.50544 19.0481 4.42335 18.966 4.42335 18.8634V17.2213C4.42335 17.1187 4.50544 17.0366 4.60807 17.0366H8.24118L8.21039 16.7184C8.1796 16.4208 8.16933 16.1232 8.16933 15.8358C8.16933 15.6613 8.16932 15.4766 8.18985 15.2508L8.21039 14.9429H4.60807C4.50544 14.9429 4.42335 14.8608 4.42335 14.7582V13.1161C4.42335 13.0135 4.50544 12.9314 4.60807 12.9314H8.65169L8.72354 12.7364C8.72354 12.7364 8.73379 12.7056 8.74406 12.6851C8.74406 12.6851 8.74408 12.6543 8.7646 12.6337C9.54459 10.499 11.1353 8.75433 13.1982 7.79987C14.2655 7.28672 15.5074 7.03015 16.8724 7.03015C18.4837 7.03015 19.8999 7.38935 21.0802 8.0975C22.1168 8.72354 22.9275 9.52405 23.5022 10.4785C23.5536 10.5606 23.533 10.6735 23.4509 10.7248L21.5317 12.0488C21.5317 12.0488 21.4599 12.0795 21.4291 12.0795C21.4189 12.0795 21.3983 12.0795 21.3881 12.0795C21.3368 12.0693 21.2957 12.0385 21.2649 11.9872C20.8236 11.2277 20.1873 10.6119 19.4073 10.2014C18.9968 9.98589 18.5555 9.82169 18.1039 9.72932C17.6729 9.63695 17.2316 9.58564 16.78 9.58564C15.8461 9.58564 15.0147 9.78063 14.3169 10.1604C13.6395 10.5196 13.0443 11.0327 12.5824 11.6382C12.3772 11.9153 12.1924 12.2027 12.0282 12.5003L11.8024 12.9314H17.1187C17.2213 12.9314 17.3034 13.0135 17.3034 13.1161V14.7582C17.3034 14.8608 17.2213 14.9429 17.1187 14.9429H11.2687L11.238 15.1995C11.2174 15.4561 11.1969 15.7024 11.1969 15.9384C11.1969 16.2155 11.2174 16.5029 11.2482 16.78L11.279 17.0366H17.1187C17.2213 17.0366 17.3034 17.1187 17.3034 17.2213V18.8634C17.3034 18.966 17.2213 19.0481 17.1187 19.0481H11.864L12.1103 19.4792C12.2951 19.8076 12.5106 20.1155 12.7466 20.4131C13.2392 21.0083 13.8448 21.4907 14.5324 21.8499C15.2405 22.2194 16.0411 22.4041 16.8416 22.3938C17.2931 22.3938 17.7447 22.3323 18.1963 22.2296C18.6684 22.1168 19.12 21.9423 19.5407 21.7165C19.9821 21.4702 20.3823 21.1623 20.721 20.8031C20.9776 20.5362 21.2033 20.2386 21.3778 19.9102C21.3983 19.8692 21.4394 19.8281 21.4907 19.8178C21.5112 19.8178 21.5215 19.8178 21.542 19.8178C21.5728 19.8178 21.6036 19.8178 21.6344 19.8384L23.7075 21.0289C23.7999 21.0802 23.8306 21.1931 23.7793 21.2752L23.7588 21.2854Z" fill="#213147"/>
</g>
<defs>
<clipPath id="clip0_294_3783">
<rect width="32" height="32" fill="white"/>
</clipPath>
</defs>
</svg>
