<svg width="32" height="32" viewBox="0 0 32 32" fill="none" xmlns="http://www.w3.org/2000/svg">
<path d="M19.04 11.66C18.3 11.14 17.51 10.84 16.61 10.73C14.45 10.47 12.36 11.61 11.39 13.55C11.15 14.04 11.02 14.4 10.92 14.89C10.82 15.39 10.82 16.33 10.92 16.84C11.24 18.43 12.24 19.76 13.66 20.48C15.62 21.48 17.95 21.14 19.57 19.64C21.46 17.87 21.75 14.98 20.24 12.86C19.98 12.48 19.41 11.92 19.04 11.66Z" fill="#213147"/>
<path d="M16 0C7.17 0 0 7.16 0 16C0 24.84 7.16 32 16 32C24.84 32 32 24.84 32 16C32 7.16 24.84 0 16 0ZM23.83 26.12C23.83 26.12 21.56 23.97 20.96 23.39L20.68 23.12L20.42 23.28C19.43 23.88 18.21 24.29 16.99 24.43C16.35 24.51 15.22 24.48 14.62 24.37C13.43 24.16 12.36 23.75 11.44 23.17L11.26 23.06L11.07 23.25C10.58 23.77 10.08 24.29 9.59 24.81L8.28999 26.16L8.21 26.09C7.99 25.91 5.69 23.69 5.7 23.67C5.71 23.66 6.38 22.94 7.2 22.09C8.02 21.23 8.7 20.51 8.71 20.49C8.72 20.47 8.67 20.34 8.56 20.15C8.33 19.76 8.05999 19.17 7.89999 18.71C7.05999 16.27 7.34 13.62 8.67 11.41L8.82 11.16L8.74 11.08C8.74 11.08 8.04 10.42 7.3 9.7C6.55 8.99 5.95 8.4 5.95 8.38C5.95 8.37 6.50999 7.77 7.18999 7.06L8.41 5.75999L8.66 6C8.79 6.13 9.36 6.67 9.92 7.2C10.48 7.73 11.04 8.26 11.16 8.39L11.39 8.61L11.59 8.49C11.7 8.42 11.99 8.27 12.24 8.15C13.09 7.72 13.93 7.47 14.95 7.32C15.38 7.26 16.76 7.27 17.22 7.34C18.11 7.47 18.87 7.69999 19.69 8.07999C19.96 8.19999 20.44 8.47 20.63 8.6C20.7 8.65 20.77 8.68 20.78 8.68C20.8 8.68 21.43 8.02 22.19 7.23C22.95 6.43 23.58 5.79 23.61 5.79C23.64 5.79 26.17 8.18 26.2 8.24C26.2 8.26 25.56 8.95 24.77 9.77L23.33 11.28L23.44 11.47C23.66 11.84 24.04 12.65 24.16 13.01C25.01 15.47 24.74 18.13 23.42 20.33L23.26 20.59L23.6 20.92C24.63 21.89 26.33 23.52 26.33 23.53C26.33 23.56 23.87 26.14 23.85 26.13L23.83 26.12Z" fill="#213147"/>
</svg>
