<svg width="32" height="32" viewBox="0 0 32 32" fill="none" xmlns="http://www.w3.org/2000/svg">
<g clip-path="url(#clip0_292_227)">
<path d="M16 0C7.16 0 0 7.16 0 16C0 24.84 7.16 32 16 32C24.84 32 32 24.84 32 16C32 7.16 24.84 0 16 0ZM24.95 23.79H14.57C10.05 23.79 6.22 20.11 6.22 15.58C6.22 11.05 10.06 7.37 14.57 7.37H19.65L21.02 10.65H14.57C13.26 10.65 12.03 11.17 11.1 12.1C10.17 13.03 9.65001 14.27 9.65001 15.58C9.65001 16.89 10.16 18.12 11.1 19.06C12.03 19.99 13.26 20.51 14.57 20.51H21.34L19.26 15.58H22.76L24.94 20.62V23.79H24.95ZM14.02 15.14C13.11 15.14 12.38 14.4 12.38 13.5C12.38 12.6 13.11 11.86 14.02 11.86C14.93 11.86 15.66 12.6 15.66 13.5C15.66 14.4 14.93 15.14 14.02 15.14ZM15.66 17.72C15.66 18.63 14.93 19.36 14.02 19.36C13.11 19.36 12.38 18.62 12.38 17.72C12.38 16.82 13.11 16.08 14.02 16.08C14.93 16.08 15.66 16.82 15.66 17.72Z" fill="#213147"/>
</g>
<defs>
<clipPath id="clip0_292_227">
<rect width="32" height="32" fill="white"/>
</clipPath>
</defs>
</svg>
