<svg width="32" height="32" viewBox="0 0 32 32" fill="none" xmlns="http://www.w3.org/2000/svg">
<g clip-path="url(#clip0_294_295)">
<path d="M16 32C24.8366 32 32 24.8366 32 16C32 7.16344 24.8366 0 16 0C7.16344 0 0 7.16344 0 16C0 24.8366 7.16344 32 16 32Z" fill="#33453D"/>
<path d="M17.24 8.00999H10.38V12.48H8.34003V13.63C8.34003 14.41 8.97001 15.05 9.76001 15.05H10.38V16.96H9.76001C8.98001 16.96 8.34003 17.59 8.34003 18.38V19.53H10.38V24.06H17.24C21.67 24.06 25.26 20.47 25.26 16.04C25.26 11.61 21.67 8.02 17.24 8.02V8.00999ZM17.25 21.53H12.94V19.52H17.81C19.23 19.52 20.38 18.37 20.38 16.95H12.94V15.04H20.38C20.38 13.62 19.23 12.47 17.81 12.47H12.94V10.53H17.25C20.29 10.53 22.75 12.99 22.75 16.03C22.75 19.07 20.29 21.53 17.25 21.53Z" fill="#F7C04B"/>
</g>
<defs>
<clipPath id="clip0_294_295">
<rect width="32" height="32" fill="white"/>
</clipPath>
</defs>
</svg>
