<svg width="32" height="33" viewBox="0 0 32 33" fill="none" xmlns="http://www.w3.org/2000/svg">
<path d="M21.65 10.9699L15.96 5.36993L24.6 9.35994L21.65 10.9699Z" fill="#213147"/>
<path d="M27.33 5.36992V5.40992V9.35992H24.6L16.01 17.9499V19.6299L18.03 21.6499L20.3 20.1699L24.28 18.7399H27.09C26.12 23.9899 21.52 27.9799 15.98 27.9799C9.74 27.9799 4.68 22.9199 4.68 16.6799C4.68 10.4399 9.71999 5.39992 15.95 5.37992V0.669922C7.13999 0.699922 0 7.84992 0 16.6699C0 25.4899 7.15999 32.6699 16 32.6699C24.84 32.6699 32 25.5099 32 16.6699C32 12.2499 30.23 8.27992 27.33 5.37992V5.36992Z" fill="#213147"/>
<path d="M19.32 3.55994C19.32 3.91994 19.24 4.18994 19.09 4.34994C18.94 4.50994 18.73 4.58994 18.46 4.58994C18.19 4.58994 17.98 4.50994 17.83 4.34994C17.68 4.18994 17.6 3.91994 17.6 3.55994V1.43994H16.71V3.81994C16.71 4.38994 16.86 4.64994 17.17 4.94994C17.48 5.24994 17.9 5.34994 18.45 5.34994C19 5.34994 19.42 5.24994 19.72 4.94994C20.03 4.64994 20.18 4.38994 20.18 3.81994V1.43994H19.31V3.55994H19.32Z" fill="#213147"/>
<path d="M23.72 3.75993L21.81 1.42993H21.08V5.26993H21.96V2.93993L23.87 5.26993H24.6V1.42993H23.72V3.75993Z" fill="#213147"/>
<path d="M26.4 1.42993H25.51V5.26993H26.4V1.42993Z" fill="#213147"/>
</svg>
