<svg width="32" height="32" viewBox="0 0 32 32" fill="none" xmlns="http://www.w3.org/2000/svg">
<path d="M19.79 18.21C20.89 18.04 21.91 17.53 22.7 16.74C23.49 15.95 24 14.93 24.17 13.83H19.79V18.21Z" fill="#213147"/>
<path d="M18.28 13.83H13.84V18.27H18.28V13.83Z" fill="#213147"/>
<path d="M19.79 7.94C16.95 7.52 14.31 9.48 13.89 12.32H24.17C23.84 10.05 22.06 8.27 19.79 7.94Z" fill="#213147"/>
<path d="M12.32 24.17C15.16 24.59 17.8 22.63 18.22 19.79H7.94C8.27 22.06 10.05 23.84 12.32 24.17Z" fill="#213147"/>
<path d="M12.32 13.89C10.06 14.23 8.28 16.01 7.94 18.27H12.32V13.89Z" fill="#213147"/>
<path d="M16 0C7.16 0 0 7.16 0 16C0 24.84 7.16 32 16 32C24.84 32 32 24.84 32 16C32 7.16 24.84 0 16 0ZM28.53 24.44C26.89 26.87 24.58 28.77 21.89 29.91C20.98 30.3 20.03 30.59 19.06 30.79C18.06 30.99 17.04 31.1 16.02 31.1C15 31.1 13.98 31 12.98 30.79C11.05 30.39 9.20999 29.62 7.57999 28.52C5.14999 26.88 3.24999 24.57 2.10999 21.88C1.71999 20.97 1.43001 20.02 1.23001 19.05C0.820011 17.04 0.820011 14.97 1.23001 12.96C1.63001 11.03 2.4 9.19 3.5 7.56C5.14 5.13 7.45001 3.23 10.14 2.09C11.05 1.7 12 1.41 12.97 1.21C14.98 0.799999 17.05 0.799999 19.06 1.21C20.99 1.61 22.83 2.38 24.46 3.48C26.89 5.12 28.79 7.43 29.93 10.12C30.32 11.03 30.61 11.98 30.81 12.95C31.22 14.96 31.22 17.03 30.81 19.04C30.41 20.97 29.64 22.81 28.54 24.44H28.53Z" fill="#213147"/>
<path d="M28.13 7.82C26.54 5.47 24.31 3.63 21.69 2.52C20.8 2.15 19.89 1.86 18.94 1.67C17.97 1.47 16.98 1.37 15.99 1.37C15 1.37 14.01 1.47 13.04 1.67C11.17 2.05 9.39001 2.79999 7.81001 3.87C5.46001 5.46 3.62002 7.69 2.51002 10.31C2.14002 11.2 1.85002 12.11 1.66002 13.06C1.26002 15.01 1.26002 17.01 1.66002 18.96C2.04002 20.83 2.79 22.61 3.86 24.19C5.45 26.54 7.68 28.38 10.3 29.49C11.18 29.86 12.1 30.15 13.05 30.34C15 30.74 17 30.74 18.95 30.34C20.82 29.96 22.6 29.21 24.18 28.14C26.53 26.55 28.37 24.32 29.48 21.7C29.85 20.81 30.14 19.9 30.33 18.95C30.73 17 30.73 15 30.33 13.05C29.95 11.18 29.2 9.4 28.13 7.82ZM19.75 19.75C19.72 20.01 19.68 20.26 19.62 20.52C18.8 24.13 15.2 26.4 11.59 25.58C11.34 25.52 11.09 25.45 10.84 25.36C7.34001 24.13 5.51 20.29 6.74 16.8C7.6 14.36 9.78002 12.64 12.35 12.36C12.73 8.96 15.6 6.39 19.02 6.37C22.59 6.37 25.54 9.16 25.73 12.72C25.92 16.28 23.29 19.37 19.74 19.75H19.75Z" fill="#213147"/>
</svg>
