<svg width="32" height="32" viewBox="0 0 32 32" fill="none" xmlns="http://www.w3.org/2000/svg">
<path d="M16 32C24.8366 32 32 24.8366 32 16C32 7.16344 24.8366 0 16 0C7.16344 0 0 7.16344 0 16C0 24.8366 7.16344 32 16 32Z" fill="white"/>
<path d="M14.65 15.79L24.28 21.31C24.52 21.45 24.83 21.38 24.98 21.14C25.03 21.06 25.05 20.97 25.05 20.87V10.71C25.05 10.43 24.83 10.2 24.55 10.2C24.45 10.2 24.36 10.23 24.28 10.28L14.65 15.8V15.79Z" fill="#65C7A0"/>
<path d="M24.07 7.83002L17.49 2.99002C17.26 2.81002 16.93 2.86002 16.76 3.09002C16.72 3.14002 16.69 3.21002 16.67 3.27002L14.27 14.05L24.02 8.66002C24.26 8.54002 24.35 8.24002 24.23 8.01002C24.19 7.94002 24.14 7.88002 24.08 7.84002" fill="#65C7A0"/>
<path d="M17.48 28.59L24.07 23.75C24.29 23.59 24.34 23.28 24.18 23.06C24.14 23 24.08 22.95 24.01 22.91L14.25 17.52L16.65 28.3C16.72 28.58 17 28.75 17.28 28.69C17.35 28.67 17.41 28.64 17.47 28.6" fill="#65C7A0"/>
<path d="M12.14 15.6L14.64 3.89C14.69 3.62 14.52 3.36 14.25 3.31C14.12 3.28 13.98 3.31 13.87 3.39L7.46 8.31C7.13 8.56 6.94 8.95 6.94 9.37V21.85C6.94 22.27 7.13 22.67 7.46 22.93L13.84 27.83C14.07 27.99 14.38 27.93 14.53 27.7C14.61 27.59 14.63 27.45 14.61 27.32L12.14 15.61V15.6Z" fill="#65C7A0"/>
</svg>
