<svg width="32" height="32" viewBox="0 0 32 32" fill="none" xmlns="http://www.w3.org/2000/svg">
<g clip-path="url(#clip0_297_185)">
<path d="M31.3681 20.5198C29.6771 26.3624 24.8243 30.7418 18.8509 31.8141V27.2543C19.9315 26.8434 20.902 26.192 21.6925 25.3402C22.1328 24.8691 22.503 24.338 22.8131 23.7668C23.3835 22.6845 23.6837 21.4718 23.6737 20.2392C23.6737 16.2105 20.762 14.5971 18.0404 13.3945L16.6596 12.7832C15.1788 12.1218 14.0581 11.5305 14.0581 10.5183C14.0581 9.12532 15.2788 8.37371 16.4195 8.37371C17.6402 8.37371 18.3306 8.82468 19.061 10.0974L19.6313 11.0795L23.2834 8.73448L22.8032 7.85259C21.9627 6.25917 20.5519 5.03654 18.8509 4.44527V0.276314C19.2011 0.336443 19.5513 0.416615 19.9115 0.506809C19.9415 0.506809 19.9815 0.526852 20.0216 0.526852C20.0616 0.526852 20.1016 0.546895 20.1416 0.556916C20.1516 0.556916 20.1616 0.556916 20.1716 0.556916C20.2717 0.576959 20.3617 0.607024 20.4618 0.637089C28.9467 3.11241 33.8295 12.0115 31.3581 20.5098L31.3681 20.5198Z" fill="#705ED6"/>
<path d="M19.2011 20.4797C19.2011 22.3136 17.5401 23.4561 16.0092 23.4561C14.1682 23.4561 13.1176 21.9328 12.9174 20.5198L12.7473 19.2971L8.33478 20.5398L8.53491 21.5319C9.16527 24.6486 11.2865 26.8834 14.1781 27.5649V31.9844C13.3977 31.8942 12.6173 31.7439 11.8568 31.5334C11.7468 31.5134 11.6467 31.4733 11.5366 31.4432C4.70271 29.449 0 23.1855 0 16.0502V0.637058C0 0.286304 0.280166 0.0057013 0.630368 0.0057013H14.1781V4.41517C12.5972 4.87616 11.2465 5.9184 10.406 7.34146C9.86567 8.28348 9.58551 9.35579 9.59552 10.4481V10.5383C9.63554 14.1361 12.2771 15.6393 14.7685 16.7717L16.0192 17.3129L16.1193 17.363C18.1004 18.2649 19.211 18.8662 19.211 20.4697L19.2011 20.4797Z" fill="#5BB2E4"/>
<path d="M23.6836 20.2592C23.6836 21.4919 23.3935 22.6945 22.8231 23.7868C22.523 24.358 22.1427 24.8791 21.7025 25.3602C20.912 26.202 19.9415 26.8634 18.8609 27.2743V31.8541L17.5801 31.9644C17.5801 31.9644 14.8385 32.0445 14.1781 31.9644L14.1781 27.5649C11.2865 26.8935 9.16527 24.6487 8.5249 21.532L8.3248 20.5398L12.7373 19.2972L12.9074 20.5198C13.1075 21.9328 14.1681 23.4561 15.9992 23.4561C17.5301 23.4561 19.191 22.3237 19.191 20.4797C19.191 18.8662 18.0704 18.275 16.0993 17.373L15.9992 17.3229L14.7485 16.7818C12.257 15.6493 9.61554 14.1461 9.57552 10.5484V10.4582C9.57552 9.36582 9.84567 8.29352 10.386 7.35149C11.2265 5.92844 12.5772 4.8862 14.1581 4.42521V0.00571362C17.0398 -0.0143294 17.2599 0.0057137 18.8408 0.276295V4.46529C20.5418 5.05656 21.9526 6.27919 22.7931 7.87261L23.2734 8.75451L19.6313 11.0995L19.061 10.1174C18.3305 8.8447 17.6402 8.39373 16.4195 8.39373C15.2688 8.39373 14.0581 9.14535 14.0581 10.5383C14.0581 11.5505 15.1887 12.1418 16.6596 12.8032L18.0404 13.4145C20.772 14.6071 23.6736 16.2205 23.6736 20.2592H23.6836Z" fill="white"/>
</g>
<defs>
<clipPath id="clip0_297_185">
<rect width="32" height="32" fill="white"/>
</clipPath>
</defs>
</svg>
