<svg width="32" height="32" viewBox="0 0 32 32" fill="none" xmlns="http://www.w3.org/2000/svg">
<g clip-path="url(#clip0_298_256)">
<path d="M15.03 17.53H16.76L17.85 15.24H13.94L15.03 17.53Z" fill="#213147"/>
<path d="M11.48 15.24V17.53H13.14L12.06 15.24H11.48Z" fill="#213147"/>
<path d="M18.65 17.53H20.3V15.24H19.73L18.65 17.53Z" fill="#213147"/>
<path d="M16 0C7.16 0 0 7.16 0 16C0 24.84 7.16 32 16 32C24.84 32 32 24.84 32 16C32 7.16 24.84 0 16 0ZM22.05 19.37V22.49H20.31V19.37H17.8L16.34 22.49H15.48L14.01 19.37H11.49V22.49H9.75V19.37H7.19V17.53H9.75V15.24H7.19V13.4H9.75V9.67H11.33L13.09 13.4H18.73L20.5 9.67H22.06V13.4H24.62V15.24H22.06V17.53H24.62V19.37H22.05Z" fill="#213147"/>
</g>
<defs>
<clipPath id="clip0_298_256">
<rect width="32" height="32" fill="white"/>
</clipPath>
</defs>
</svg>
