<svg width="32" height="32" viewBox="0 0 32 32" fill="none" xmlns="http://www.w3.org/2000/svg">
<g clip-path="url(#clip0_297_227)">
<path d="M14.3345 25.33L16.5852 22.63H1.45047C1.8906 23.58 2.41076 24.49 3.02096 25.33H14.3345Z" fill="#213147"/>
<path d="M1.54048 22.13L11.3235 10.39L19.0459 19.66L21.4367 16.78L28.5589 25.32H28.979C30.8696 22.69 32 19.48 32 15.99C32.01 7.16 24.8478 0 16.005 0C7.16224 0 0 7.16 0 16C0 18.17 0.440137 20.24 1.22038 22.13H1.54048ZM21.4467 6.39C23.6574 6.39 25.4479 8.18 25.4479 10.39C25.4479 12.6 23.6574 14.39 21.4467 14.39C19.236 14.39 17.4454 12.6 17.4454 10.39C17.4454 8.18 19.236 6.39 21.4467 6.39ZM11.3335 4C12.4339 4 13.3342 4.89 13.3342 6C13.3342 7.11 12.4439 8 11.3335 8C10.2232 8 9.33291 7.11 9.33291 6C9.33291 4.89 10.2232 4 11.3335 4Z" fill="#213147"/>
<path d="M6.73211 29.02C9.35293 30.89 12.5439 32 16.005 32C19.4661 32 22.6571 30.89 25.2779 29.02H6.73211Z" fill="#213147"/>
<path d="M28.619 25.83H3.39107C4.17132 26.83 5.06159 27.74 6.06191 28.53H25.9481C26.9384 27.74 27.8387 26.83 28.619 25.83Z" fill="#213147"/>
</g>
<defs>
<clipPath id="clip0_297_227">
<rect width="32" height="32" fill="white"/>
</clipPath>
</defs>
</svg>
