<svg width="32" height="32" viewBox="0 0 32 32" fill="none" xmlns="http://www.w3.org/2000/svg">
<g clip-path="url(#clip0_298_364)">
<path d="M16 32C24.8366 32 32 24.8366 32 16C32 7.16344 24.8366 0 16 0C7.16344 0 0 7.16344 0 16C0 24.8366 7.16344 32 16 32Z" fill="url(#paint0_linear_298_364)"/>
<path d="M20.22 19.15L24.36 16.76C24.58 16.63 24.71 16.4 24.71 16.15V11.37C24.71 11.12 24.57 10.88 24.36 10.76L20.22 8.37C20 8.24 19.73 8.24 19.51 8.37L15.37 10.76C15.15 10.89 15.02 11.12 15.02 11.37V19.9L12.12 21.57L9.22 19.9V16.55L12.12 14.88L14.03 15.98V13.73L12.47 12.83C12.25 12.7 11.98 12.7 11.76 12.83L7.62 15.22C7.4 15.35 7.26999 15.58 7.26999 15.83V20.6C7.26999 20.85 7.41 21.09 7.62 21.21L11.76 23.6C11.98 23.73 12.25 23.73 12.47 23.6L16.61 21.21C16.83 21.08 16.96 20.85 16.96 20.6V12.07L17.01 12.04L19.86 10.4L22.76 12.07V15.42L19.86 17.09L17.95 15.99V18.24L19.51 19.14C19.73 19.27 20 19.27 20.22 19.14V19.15Z" fill="white"/>
</g>
<defs>
<linearGradient id="paint0_linear_298_364" x1="0.0999999" y1="6.27" x2="24.13" y2="20.98" gradientUnits="userSpaceOnUse">
<stop stop-color="#9433BD"/>
<stop offset="1" stop-color="#7342DB"/>
</linearGradient>
<clipPath id="clip0_298_364">
<rect width="32" height="32" fill="white"/>
</clipPath>
</defs>
</svg>
