<svg width="32" height="32" viewBox="0 0 32 32" fill="none" xmlns="http://www.w3.org/2000/svg">
<g clip-path="url(#clip0_298_297)">
<path d="M16 0C24.84 0 32 7.16 32 16C32 24.84 24.84 32 16 32C7.16 32 0 24.84 0 16C0 7.16 7.16 0 16 0Z" fill="black"/>
<path d="M4.29 9.08L22.98 27.77L27.78 22.97L9.1 4.27L4.29 9.08Z" fill="white"/>
<path d="M9.1 27.76L27.79 9.07L22.99 4.27L4.3 22.96L9.1 27.76Z" fill="white"/>
<path d="M16 5.92C21.57 5.92 26.08 10.43 26.08 16C26.08 21.57 21.57 26.08 16 26.08C10.43 26.08 5.92 21.57 5.92 16C5.92 10.43 10.43 5.92 16 5.92Z" fill="black"/>
<path d="M19.8 13.48C19.53 13.33 19.18 13.33 18.88 13.48L16.72 14.75L15.26 15.56L13.14 16.83C12.87 16.98 12.52 16.98 12.22 16.83L10.56 15.83C10.29 15.68 10.1 15.37 10.1 15.02V13.1C10.1 12.79 10.25 12.48 10.56 12.29L12.22 11.33C12.49 11.18 12.84 11.18 13.14 11.33L14.8 12.33C15.07 12.48 15.26 12.79 15.26 13.14V14.41L16.72 13.56V12.25C16.72 11.94 16.57 11.63 16.26 11.44L13.18 9.63C12.91 9.48 12.56 9.48 12.26 9.63L9.1 11.48C8.79 11.63 8.64 11.94 8.64 12.25V15.87C8.64 16.18 8.79 16.49 9.1 16.68L12.22 18.49C12.49 18.64 12.84 18.64 13.14 18.49L15.26 17.26L16.72 16.41L18.84 15.18C19.11 15.03 19.46 15.03 19.76 15.18L21.42 16.14C21.69 16.29 21.88 16.6 21.88 16.95V18.87C21.88 19.18 21.73 19.49 21.42 19.68L19.8 20.64C19.53 20.79 19.18 20.79 18.88 20.64L17.22 19.68C16.95 19.53 16.76 19.22 16.76 18.87V17.64L15.3 18.49V19.76C15.3 20.07 15.45 20.38 15.76 20.57L18.88 22.38C19.15 22.53 19.5 22.53 19.8 22.38L22.92 20.57C23.19 20.42 23.38 20.11 23.38 19.76V16.1C23.38 15.79 23.23 15.48 22.92 15.29L19.8 13.48Z" fill="#7A4ADC"/>
</g>
<defs>
<clipPath id="clip0_298_297">
<rect width="32" height="32" fill="white"/>
</clipPath>
</defs>
</svg>
