<svg width="32" height="32" viewBox="0 0 32 32" fill="none" xmlns="http://www.w3.org/2000/svg">
<g clip-path="url(#clip0_298_722)">
<path d="M16 32C24.8366 32 32 24.8366 32 16C32 7.16344 24.8366 0 16 0C7.16344 0 0 7.16344 0 16C0 24.8366 7.16344 32 16 32Z" fill="#E93431"/>
<path d="M11.34 20.25C10.39 20.25 9.61 20.03 9 19.58C8.4 19.12 8.10001 18.48 8.10001 17.63C8.10001 17.45 8.12 17.24 8.16 16.98C8.26 16.4 8.41001 15.71 8.60001 14.9C9.14001 12.7 10.55 11.6 12.82 11.6C13.44 11.6 13.99 11.7 14.48 11.91C14.97 12.11 15.35 12.41 15.63 12.82C15.91 13.22 16.05 13.7 16.05 14.26C16.05 14.43 16.03 14.64 15.99 14.9C15.87 15.61 15.73 16.31 15.56 16.98C15.28 18.08 14.8 18.9 14.11 19.44C13.42 19.98 12.5 20.24 11.35 20.24L11.34 20.25ZM11.51 18.52C11.96 18.52 12.34 18.39 12.65 18.12C12.97 17.86 13.2 17.45 13.33 16.91C13.51 16.16 13.65 15.5 13.75 14.94C13.78 14.77 13.8 14.6 13.8 14.42C13.8 13.69 13.42 13.33 12.66 13.33C12.21 13.33 11.83 13.46 11.51 13.73C11.2 13.99 10.97 14.4 10.84 14.94C10.7 15.48 10.55 16.13 10.41 16.91C10.38 17.07 10.36 17.24 10.36 17.41C10.36 18.15 10.74 18.51 11.51 18.51V18.52ZM16.6 20.13C16.51 20.13 16.44 20.1 16.4 20.05C16.36 19.99 16.35 19.91 16.36 19.83L18.02 12.02C18.04 11.93 18.08 11.86 18.15 11.8C18.22 11.74 18.3 11.72 18.38 11.72H21.57C22.46 11.72 23.17 11.9 23.71 12.27C24.25 12.64 24.53 13.17 24.53 13.87C24.53 14.07 24.51 14.28 24.46 14.49C24.26 15.41 23.86 16.09 23.25 16.53C22.65 16.97 21.82 17.19 20.78 17.19H19.16L18.61 19.82C18.59 19.91 18.55 19.98 18.48 20.04C18.41 20.1 18.33 20.12 18.25 20.12H16.62L16.6 20.13ZM20.85 15.54C21.19 15.54 21.48 15.45 21.73 15.26C21.99 15.08 22.15 14.81 22.23 14.47C22.25 14.33 22.27 14.21 22.27 14.11C22.27 13.88 22.2 13.7 22.07 13.58C21.93 13.45 21.7 13.39 21.37 13.39H19.93L19.47 15.54H20.85Z" fill="white"/>
</g>
<defs>
<clipPath id="clip0_298_722">
<rect width="32" height="32" fill="white"/>
</clipPath>
</defs>
</svg>
