<svg width="32" height="32" viewBox="0 0 32 32" fill="none" xmlns="http://www.w3.org/2000/svg">
<g clip-path="url(#clip0_298_734)">
<path d="M18.66 8.26H13.41L13.13 10.07L18.53 10.09C20.04 10.09 21.29 11.34 21.29 12.85C21.29 14.37 20.05 15.61 18.53 15.61H12.24L11.01 23.54H14.11L14.92 18.48C15.03 17.86 15.56 17.4 16.19 17.4H18.57C21.08 17.4 23.18 15.44 23.26 12.94C23.32 10.37 21.24 8.25 18.67 8.25L18.66 8.26Z" fill="#213147"/>
<path d="M19.47 12.85C19.47 12.33 19.05 11.91 18.53 11.91L12.83 11.89L12.53 13.8H18.54C19.06 13.8 19.48 13.38 19.48 12.86L19.47 12.85Z" fill="#213147"/>
<path d="M16 0C7.16 0 0 7.16 0 16C0 24.84 7.16 32 16 32C24.84 32 32 24.84 32 16C32 7.16 24.84 0 16 0ZM18.64 19.25H16.66L15.85 24.29C15.74 24.91 15.21 25.37 14.58 25.37H10.35C10.28 25.37 10.22 25.37 10.15 25.35C9.44999 25.24 8.97002 24.59 9.08002 23.89L9.51001 21.08L10.38 15.58H8.76999C8.27999 15.58 7.86002 15.16 7.86002 14.67C7.86002 14.18 8.26999 13.76 8.76999 13.76H10.66L10.68 13.63L10.96 11.87H9.35001C8.86001 11.85 8.44 11.45 8.44 10.94C8.44 10.43 8.85001 10.03 9.35001 10.03H11.24V10.01L11.64 7.46C11.73 6.84 12.28 6.38 12.91 6.38H18.54C22.05 6.38 25 9.16 25.06 12.69C25.12 16.28 22.21 19.23 18.64 19.23V19.25Z" fill="#213147"/>
</g>
<defs>
<clipPath id="clip0_298_734">
<rect width="32" height="32" fill="white"/>
</clipPath>
</defs>
</svg>
