<svg width="32" height="32" viewBox="0 0 32 32" fill="none" xmlns="http://www.w3.org/2000/svg">
<g clip-path="url(#clip0_298_748)">
<path d="M16 0C7.16 0 0 7.16 0 16C0 24.84 7.16 32 16 32C24.84 32 32 24.84 32 16C32 7.16 24.84 0 16 0ZM6.63 10.79L16.01 5.37L16.22 5.49L16.64 5.74L17.06 5.98L11.3 9.3L11.09 8.94L9.53 9.84L9.32001 9.48L6.63 11.04V10.8V10.79ZM6.63 12.49L17.48 6.22L17.69 6.35L18.11 6.59L18.53 6.83L12.78 10.15L12.57 9.78L9.53 11.53L9.32001 11.17L6.63 12.72V12.48V12.49ZM6.63 14.19L18.95 7.07L19.16 7.19L19.58 7.43L20 7.68L14.24 11L14.03 10.63L9.52002 13.24L9.31 12.87L6.62 14.43V14.19H6.63ZM6.63 15.9L20.43 7.93L20.64 8.05L21.06 8.3L21.48 8.54L15.72 11.86L15.51 11.5L9.52002 14.96L9.31 14.59L6.62 16.15V15.9H6.63ZM6.63 17.6L21.9 8.78L22.11 8.9L22.53 9.14L22.95 9.39L17.24 12.69L17.03 12.33L9.53 16.66L9.32001 16.29L6.63 17.85V17.61V17.6ZM6.63 19.3L23.38 9.63L23.59 9.75L24.01 10L24.43 10.24L18.72 13.54L18.51 13.17L9.53 18.35L9.32001 17.99L6.63 19.54V19.3ZM6.63 21.01L24.85 10.48L25.06 10.6L25.38 10.78V11.39L18.72 15.23L18.51 14.87L9.53 20.05L9.32001 19.69L6.63 21.24V21V21.01ZM7.57001 22.16L25.37 11.88V13.1L18.67 16.97L18.46 16.6L9.5 21.77L9.29001 21.41L7.78 22.28L7.57001 22.16ZM9.05002 23.01L25.38 13.58V14.8L18.68 18.67L18.47 18.3L11.01 22.61L10.8 22.24L9.27002 23.13L9.06 23.01H9.05002ZM10.52 23.86L25.38 15.28V16.5L18.68 20.37L18.47 20L12.49 23.46L12.28 23.09L10.75 23.98L10.54 23.86H10.52ZM13.47 25.57L25.37 18.7V19.92L18.67 23.79L18.46 23.42L15.43 25.18L15.22 24.81L13.68 25.7L13.47 25.58V25.57ZM25.38 21.62L18.68 25.49L18.47 25.12L16.91 26.03L16.7 25.66L15.17 26.55L14.96 26.43L25.39 20.41V21.63L25.38 21.62ZM25.38 18.2L18.68 22.07L18.47 21.71L13.96 24.31L13.75 23.95L12.22 24.84L12.01 24.72L25.39 16.99V18.2H25.38Z" fill="#213147"/>
</g>
<defs>
<clipPath id="clip0_298_748">
<rect width="32" height="32" fill="white"/>
</clipPath>
</defs>
</svg>
