<svg width="32" height="32" viewBox="0 0 32 32" fill="none" xmlns="http://www.w3.org/2000/svg">
<g clip-path="url(#clip0_298_273)">
<path d="M16 0C7.16 0 0 7.16 0 16C0 24.84 7.16 32 16 32C24.84 32 32 24.84 32 16C32 7.16 24.84 0 16 0ZM16.48 4.06L23.78 8.24V9.84L16.48 5.73V4.06ZM23.7 9.98L19.47 12.41L17.69 13.42C17.69 13.42 17.67 13.44 17.66 13.45C17.64 13.49 17.66 13.54 17.69 13.56L22.18 15.96L20.81 16.69L15.02 13.41L20.82 10C20.82 10 20.84 9.98 20.85 9.97C20.85 9.97 20.85 9.96 20.85 9.95C20.87 9.91 20.85 9.86 20.82 9.84L19.41 9.02L16.46 7.32C16.46 7.32 16.4 7.31 16.38 7.32L12.01 9.85L10.89 9.37L10.53 9.21L16.4 5.89L23.7 9.99V9.98ZM20.85 22.05C20.85 22.05 20.89 22.01 20.89 21.98V16.82L22.3 16.08L22.35 22.83L16.56 26.14V24.57L20.85 22.04V22.05ZM17.78 20.17L10.42 15.93L10.45 9.34L10.83 9.5L11.94 10L11.97 15.29C11.97 15.29 11.99 15.35 12.01 15.36L17.78 18.58V20.17ZM14.95 13.26L14.97 11.67L19.38 9.19L20.61 9.91L14.95 13.26ZM9.05 8.32L16.33 4.03V5.7L10.32 9.13C10.31 9.13 10.29 9.15 10.29 9.17C10.29 9.17 10.29 9.17 10.29 9.18C10.29 9.18 10.28 9.19 10.28 9.2V15.93L9.08 16.82L9.05 8.31V8.32ZM9.1 21.97L13.38 19.52L14.76 20.28L9.11 23.63V21.97H9.1ZM16.43 27.94L9.17 23.79L14.99 20.35C14.99 20.35 15.01 20.33 15.02 20.32C15.04 20.28 15.02 20.23 14.99 20.21L13.43 19.36L9.16 16.98L10.37 16.1L17.67 20.33L13.35 22.78L11.86 23.63C11.86 23.63 11.84 23.65 11.83 23.66C11.81 23.7 11.83 23.75 11.86 23.77L11.89 23.79L16.42 26.37C16.42 26.37 16.45 26.38 16.46 26.38C16.46 26.38 16.46 26.38 16.47 26.37C16.49 26.37 16.51 26.37 16.53 26.37L22.44 22.96L23.38 23.4L23.75 23.57L16.43 27.93V27.94ZM16.38 26.15L12.05 23.7L13.38 22.94L16.38 24.59V26.15ZM22.51 22.83L22.46 15.95C22.46 15.95 22.45 15.9 22.42 15.88L17.9 13.48L19.51 12.57L23.81 15.28L23.84 23.45L22.51 22.83Z" fill="#213147"/>
</g>
<defs>
<clipPath id="clip0_298_273">
<rect width="32" height="32" fill="white"/>
</clipPath>
</defs>
</svg>
