<svg width="32" height="32" viewBox="0 0 32 32" fill="none" xmlns="http://www.w3.org/2000/svg">
<path d="M13.51 17.05H12.64L9.77 21.07H13.51C14.62 21.07 15.52 20.16 15.52 19.05C15.52 17.94 14.62 17.05 13.51 17.04V17.05Z" fill="#213147"/>
<path d="M11.84 15.48L14.71 11.46H11.04C9.93 11.46 9.03 12.37 9.03 13.48C9.03 14.59 9.93 15.48 11.04 15.49H11.83L11.84 15.48Z" fill="#213147"/>
<path d="M16 0C7.16 0 0 7.16 0 16C0 24.84 7.16 32 16 32C24.84 32 32 24.84 32 16C32 7.16 24.84 0 16 0ZM13.51 22.65H8.26C7.82 22.65 7.48 22.29 7.48 21.85C7.48 21.69 7.54 21.55 7.63 21.43L7.61 21.41L10.75 17.02C8.92 16.86 7.47 15.34 7.47 13.46C7.47 11.48 9.08 9.87 11.06 9.87H16.31C16.75 9.87 17.09 10.23 17.09 10.67C17.09 10.92 16.96 11.13 16.78 11.27L13.77 15.49C15.64 15.62 17.12 17.15 17.12 19.05C17.12 20.95 15.51 22.64 13.53 22.64L13.51 22.65ZM23.29 22.26H18.38V18.87H19.29V21.07H20.33V19.21H21.21V21.07H22.38V18.87H23.29V22.26ZM23.29 17.14H19.3V18.59H18.39V14.49H19.3V15.96H23.29V17.14ZM23.29 11.05H21.24V12.79H23.29V13.97H18.38V12.79H20.33V11.05H18.38V9.87H23.29V11.05Z" fill="#213147"/>
</svg>
