<svg width="32" height="32" viewBox="0 0 32 32" fill="none" xmlns="http://www.w3.org/2000/svg">
<g clip-path="url(#clip0_298_543)">
<path d="M21.3 16.46L15.99 19.59L10.69 16.46L15.99 26.12L21.3 16.46Z" fill="#213147"/>
<path d="M11.6 13.23L16.01 15.79L20.42 13.25L16 10.81L11.6 13.23Z" fill="#213147"/>
<path d="M16 0C7.16 0 0 7.16 0 16C0 24.84 7.16 32 16 32C24.84 32 32 24.84 32 16C32 7.16 24.84 0 16 0ZM15.96 4.78C15.96 4.78 15.96 4.78 15.97 4.78C15.97 4.78 15.97 4.76 15.99 4.76C15.99 4.76 16 4.76 16.01 4.76H16.03L21.68 13.43L21.58 13.48L15.98 16.68L10.38 13.48C10.38 13.48 10.27 13.44 10.29 13.43L15.94 4.76L15.96 4.78ZM24 20.21C23.8 21.99 22.98 23.67 21.69 24.93C20.17 26.42 18.15 27.24 16 27.24C13.85 27.24 11.83 26.42 10.31 24.93C9.02 23.66 8.2 21.99 8 20.21C7.8 18.43 8.23 16.62 9.22 15.11L9.4 14.84L16 18.61L22.49 14.9C22.49 14.9 22.6 14.82 22.61 14.83L22.79 15.1C23.77 16.61 24.21 18.42 24.01 20.2L24 20.21Z" fill="#213147"/>
</g>
<defs>
<clipPath id="clip0_298_543">
<rect width="32" height="32" fill="white"/>
</clipPath>
</defs>
</svg>
