<svg width="32" height="32" viewBox="0 0 32 32" fill="none" xmlns="http://www.w3.org/2000/svg">
<g clip-path="url(#clip0_298_887)">
<path d="M16 32C24.8366 32 32 24.8366 32 16C32 7.16344 24.8366 0 16 0C7.16344 0 0 7.16344 0 16C0 24.8366 7.16344 32 16 32Z" fill="url(#paint0_linear_298_887)"/>
<path d="M25.02 8.16L16.24 5.53C16.12 5.49 15.99 5.49 15.86 5.53L7.08 8.16C6.8 8.24 6.61 8.5 6.61 8.79V18.45C6.67 19.86 7.2 21.2 8.12 22.27C9.03 23.38 10.09 24.36 11.27 25.19C12.69 26.21 14.2 27.09 15.78 27.83C15.95 27.91 16.14 27.91 16.31 27.83C17.89 27.09 19.4 26.21 20.82 25.19C22 24.37 23.06 23.39 23.97 22.27C24.89 21.2 25.42 19.86 25.48 18.45V8.79C25.48 8.5 25.29 8.25 25.01 8.16H25.02Z" fill="white"/>
<path d="M21.45 20.33L17.29 10.28C17.14 9.83 16.72 9.52 16.25 9.51H15.88C15.4 9.51 14.98 9.83 14.84 10.28L13.03 14.65H11.67C11.26 14.65 10.92 14.98 10.92 15.4C10.92 15.82 11.25 16.16 11.67 16.16H12.41L10.68 20.33C10.65 20.42 10.63 20.52 10.63 20.61C10.63 20.82 10.7 21.02 10.83 21.17C10.97 21.32 11.18 21.39 11.38 21.38C11.53 21.38 11.68 21.33 11.81 21.24C11.94 21.14 12.04 21.01 12.11 20.86L14.01 16.15H15.33C15.74 16.15 16.08 15.82 16.08 15.4V15.38C16.08 14.97 15.75 14.63 15.33 14.63H14.63L16.08 11.02L20.03 20.85C20.09 21 20.2 21.13 20.33 21.23C20.45 21.32 20.6 21.37 20.76 21.37C20.97 21.38 21.17 21.3 21.31 21.16C21.45 21.01 21.52 20.81 21.51 20.6C21.51 20.5 21.51 20.41 21.47 20.31L21.45 20.33Z" fill="url(#paint1_linear_298_887)"/>
</g>
<defs>
<linearGradient id="paint0_linear_298_887" x1="27.83" y1="6.01" x2="4.13" y2="26.11" gradientUnits="userSpaceOnUse">
<stop stop-color="#A85699"/>
<stop offset="1" stop-color="#5DB6C3"/>
</linearGradient>
<linearGradient id="paint1_linear_298_887" x1="19.197" y1="13.6612" x2="11.5422" y2="21.8989" gradientUnits="userSpaceOnUse">
<stop stop-color="#A85699"/>
<stop offset="1" stop-color="#5DB6C3"/>
</linearGradient>
<clipPath id="clip0_298_887">
<rect width="32" height="32" fill="white"/>
</clipPath>
</defs>
</svg>
