<svg width="32" height="32" viewBox="0 0 32 32" fill="none" xmlns="http://www.w3.org/2000/svg">
<path d="M17.86 15.25L19.82 18.5H14.94C13.18 18.5 11.85 17.03 11.85 15.25C11.85 13.47 13.18 12 14.94 12H19.14L17.94 10H14.94C12.12 10 9.75 12.36 9.75 15.26C9.75 18.16 12.13 20.5 14.94 20.5H22.25V18.51L20.31 15.26H17.87L17.86 15.25Z" fill="#213147"/>
<path d="M14.7 15.54C14.16 15.54 13.72 15.99 13.72 16.54C13.72 17.09 14.16 17.54 14.7 17.54C15.24 17.54 15.68 17.09 15.68 16.54C15.68 15.99 15.24 15.54 14.7 15.54Z" fill="#213147"/>
<path d="M14.7 12.77C14.16 12.77 13.72 13.22 13.72 13.77C13.72 14.32 14.16 14.77 14.7 14.77C15.24 14.77 15.68 14.32 15.68 13.77C15.68 13.22 15.24 12.77 14.7 12.77Z" fill="#213147"/>
<path d="M16 0C7.16 0 0 7.16 0 16C0 24.84 7.16 32 16 32C24.84 32 32 24.84 32 16C32 7.16 24.84 0 16 0ZM25.49 17.69C25.49 18.95 24.98 20.23 23.98 21.51C23.21 22.49 22.15 23.47 20.83 24.43C19.41 25.45 17.9 26.33 16.32 27.07C16.24 27.11 16.14 27.13 16.05 27.13C15.96 27.13 15.87 27.11 15.78 27.07C14.2 26.33 12.69 25.45 11.27 24.43C9.95 23.47 8.89 22.49 8.12 21.51C7.12 20.23 6.61 18.94 6.61 17.69V8.04C6.61 7.9 6.65999 7.76 6.73999 7.65C6.81999 7.54 6.94 7.45 7.08 7.41L15.86 4.78C15.98 4.74 16.11 4.74 16.24 4.78L25.02 7.41C25.16 7.45 25.27 7.53 25.36 7.65C25.44 7.76 25.49 7.9 25.49 8.04V17.69Z" fill="#213147"/>
</svg>
