<svg width="32" height="32" viewBox="0 0 32 32" fill="none" xmlns="http://www.w3.org/2000/svg">
<g clip-path="url(#clip0_292_25)">
<path d="M16 0C24.84 0 32 7.16 32 16C32 24.84 24.84 32 16 32C7.16 32 0 24.84 0 16C0 7.16 7.16 0 16 0Z" fill="#201F2D"/>
<path d="M25.02 7.41L16.24 4.78C16.12 4.74 15.99 4.74 15.86 4.78L7.08 7.41C6.94 7.45 6.83001 7.53 6.74001 7.65C6.66001 7.76 6.61 7.9 6.61 8.04V17.69C6.61 18.95 7.12 20.23 8.12 21.51C8.89 22.49 9.95 23.47 11.27 24.43C12.69 25.45 14.2 26.33 15.78 27.07C15.86 27.11 15.96 27.13 16.05 27.13C16.14 27.13 16.23 27.11 16.32 27.07C17.9 26.33 19.41 25.45 20.83 24.43C22.15 23.47 23.21 22.49 23.98 21.51C24.98 20.23 25.49 18.94 25.49 17.69V8.04C25.49 7.9 25.44 7.76 25.36 7.65C25.28 7.54 25.16 7.45 25.02 7.41Z" fill="#A795D0"/>
<path fill-rule="evenodd" clip-rule="evenodd" d="M22.25 18.51L20.31 15.26H17.87L19.83 18.51H14.95C13.19 18.51 11.86 17.04 11.86 15.26C11.86 13.48 13.19 12.01 14.95 12.01H19.15L17.95 10.01H14.95C12.13 10.01 9.75999 12.37 9.75999 15.27C9.75999 18.17 12.14 20.51 14.95 20.51H22.26M15.68 13.77C15.68 14.32 15.24 14.77 14.7 14.77C14.16 14.77 13.72 14.32 13.72 13.77C13.72 13.22 14.16 12.77 14.7 12.77C15.24 12.77 15.68 13.22 15.68 13.77ZM14.7 17.55C15.24 17.55 15.68 17.1 15.68 16.55C15.68 16 15.24 15.55 14.7 15.55C14.16 15.55 13.72 16 13.72 16.55C13.72 17.1 14.16 17.55 14.7 17.55Z" fill="#201F2D"/>
</g>
<defs>
<clipPath id="clip0_292_25">
<rect width="32" height="32" fill="white"/>
</clipPath>
</defs>
</svg>
