<svg width="32" height="32" viewBox="0 0 32 32" fill="none" xmlns="http://www.w3.org/2000/svg">
<g clip-path="url(#clip0_298_712)">
<path d="M16 0C24.84 0 32 7.16 32 16C32 24.84 24.84 32 16 32C7.16 32 0 24.84 0 16C0 7.16 7.16 0 16 0Z" fill="white"/>
<path d="M21.31 12.37C20.9 12.13 20.39 12.13 19.98 12.37L16.93 14.19L14.86 15.37L11.81 17.19C11.4 17.43 10.89 17.43 10.48 17.19L8.06001 15.77C7.66001 15.53 7.41001 15.1 7.40001 14.63V11.83C7.40001 11.35 7.65001 10.91 8.06001 10.68L10.45 9.3C10.86 9.06 11.37 9.06 11.78 9.3L14.16 10.68C14.56 10.92 14.82 11.35 14.82 11.83V13.64L16.89 12.42V10.6C16.89 10.13 16.64 9.68 16.23 9.46L11.81 6.85C11.4 6.61 10.89 6.61 10.48 6.85L5.99 9.46C5.57 9.69 5.32 10.13 5.33 10.6V15.85C5.33 16.32 5.58 16.77 5.99 16.99L10.48 19.59C10.89 19.83 11.4 19.83 11.81 19.59L14.86 17.81L16.93 16.59L19.98 14.81C20.39 14.57 20.9 14.57 21.31 14.81L23.69 16.19C24.09 16.43 24.35 16.86 24.36 17.33V20.13C24.36 20.6 24.11 21.05 23.7 21.27L21.32 22.69C20.91 22.93 20.4 22.93 19.99 22.69L17.61 21.31C17.21 21.07 16.95 20.64 16.95 20.16V18.35L14.88 19.57V21.39C14.88 21.87 15.13 22.31 15.54 22.53L20.03 25.14C20.44 25.38 20.95 25.38 21.36 25.14L25.85 22.53C26.25 22.29 26.5 21.86 26.51 21.39V16.14C26.51 15.67 26.26 15.23 25.85 15L21.32 12.36L21.31 12.37Z" fill="url(#paint0_linear_298_712)"/>
</g>
<defs>
<linearGradient id="paint0_linear_298_712" x1="27.22" y1="7.61992" x2="4.64002" y2="24.3499" gradientUnits="userSpaceOnUse">
<stop stop-color="#48A0F7"/>
<stop offset="1" stop-color="#70D8FA"/>
</linearGradient>
<clipPath id="clip0_298_712">
<rect width="32" height="32" fill="white"/>
</clipPath>
</defs>
</svg>
