<svg width="32" height="32" viewBox="0 0 32 32" fill="none" xmlns="http://www.w3.org/2000/svg">
<g clip-path="url(#clip0_298_628)">
<path d="M17.03 16.9L16.76 16.85V19.83C17.26 19.74 17.65 19.56 17.93 19.29C18.21 19 18.35 18.64 18.35 18.2C18.35 17.79 18.22 17.5 17.95 17.3C17.68 17.1 17.38 16.96 17.04 16.9H17.03Z" fill="#213147"/>
<path d="M13.97 13.5C13.97 13.87 14.07 14.16 14.27 14.35C14.48 14.53 14.76 14.65 15.1 14.7L15.58 14.78V11.96C15.13 12.02 14.75 12.19 14.43 12.46C14.12 12.72 13.97 13.06 13.97 13.5Z" fill="#213147"/>
<path d="M16 0C7.16002 0 0 7.16 0 16C0 24.84 7.16002 32 16 32C24.84 32 32 24.84 32 16C32 7.16 24.84 0 16 0ZM16.01 29.87C8.34999 29.87 2.14 23.66 2.14 16C2.14 8.34 8.34999 2.13 16.01 2.13C23.67 2.13 29.88 8.34 29.88 16C29.88 23.66 23.67 29.87 16.01 29.87Z" fill="#213147"/>
<path d="M16.01 3.72998C9.23999 3.72998 3.74001 9.21998 3.74001 16C3.74001 22.78 9.22999 28.27 16.01 28.27C22.79 28.27 28.28 22.78 28.28 16C28.28 9.21998 22.79 3.72998 16.01 3.72998ZM20.01 19.42C19.84 19.8 19.59 20.15 19.27 20.44C18.96 20.73 18.59 20.97 18.15 21.16C17.72 21.34 17.26 21.46 16.76 21.51V23.16H15.59V21.53C15.06 21.49 14.56 21.37 14.09 21.18C13.62 20.98 13.22 20.72 12.87 20.4C12.53 20.08 12.26 19.71 12.05 19.3C11.85 18.88 11.74 18.43 11.73 17.94H13.7C13.72 18.46 13.9 18.9 14.24 19.25C14.59 19.59 15.04 19.79 15.58 19.84V16.67L14.83 16.56C13.97 16.44 13.28 16.12 12.77 15.58C12.27 15.05 12.02 14.37 12.02 13.55C12.02 13.12 12.12 12.72 12.31 12.35C12.5 11.97 12.76 11.63 13.09 11.34C13.42 11.04 13.8 10.8 14.23 10.62C14.66 10.44 15.12 10.33 15.59 10.28V8.78998H16.76V10.31C17.24 10.37 17.68 10.5 18.09 10.69C18.5 10.87 18.85 11.11 19.15 11.39C19.45 11.68 19.68 12.01 19.85 12.38C20.03 12.75 20.13 13.15 20.15 13.58H18.18C18.16 13.2 18.01 12.87 17.75 12.59C17.49 12.3 17.16 12.1 16.76 12V14.93L17.3 15.01C17.71 15.07 18.09 15.19 18.45 15.35C18.81 15.51 19.13 15.72 19.39 15.97C19.67 16.23 19.88 16.54 20.03 16.9C20.19 17.25 20.27 17.65 20.27 18.1C20.27 18.58 20.18 19.02 20 19.41L20.01 19.42Z" fill="#213147"/>
</g>
<defs>
<clipPath id="clip0_298_628">
<rect width="32" height="32" fill="white"/>
</clipPath>
</defs>
</svg>
