<svg width="32" height="32" viewBox="0 0 32 32" fill="none" xmlns="http://www.w3.org/2000/svg">
<g clip-path="url(#clip0_298_573)">
<path d="M16 32C24.8366 32 32 24.8366 32 16C32 7.16344 24.8366 0 16 0C7.16345 0 0 7.16344 0 16C0 24.8366 7.16345 32 16 32Z" fill="white"/>
<path d="M16 32C14.92 32 13.84 31.89 12.78 31.68C9.71 31.05 6.90001 29.53 4.69001 27.32C3.23001 25.86 2.07 24.13 1.26 22.23C0.85 21.26 0.54 20.26 0.33 19.23C-0.1 17.1 -0.1 14.91 0.33 12.78C0.75 10.73 1.57 8.79001 2.74 7.06001C4.48 4.49001 6.92 2.47001 9.78 1.26001C10.75 0.850007 11.75 0.540007 12.78 0.330007C14.91 -0.0999927 17.1 -0.0999927 19.23 0.330007C21.28 0.750007 23.22 1.57001 24.95 2.74001C27.52 4.48001 29.54 6.92001 30.75 9.78001C31.16 10.75 31.47 11.75 31.68 12.78C32.11 14.91 32.11 17.1 31.68 19.23C31.26 21.28 30.44 23.22 29.27 24.95C27.53 27.52 25.09 29.54 22.23 30.75C21.26 31.16 20.26 31.47 19.23 31.68C18.17 31.9 17.09 32.01 16.01 32L16 32ZM16 0.370007C14.94 0.370007 13.89 0.480007 12.85 0.690007C10.85 1.10001 8.95 1.90001 7.26 3.04001C4.75 4.74001 2.78 7.12001 1.6 9.91001C1.2 10.86 0.9 11.84 0.69 12.84C0.27 14.92 0.27 17.06 0.69 19.14C1.1 21.14 1.9 23.04 3.04 24.73C4.74 27.24 7.11999 29.21 9.90999 30.39C10.86 30.79 11.84 31.09 12.84 31.3C14.92 31.72 17.06 31.72 19.14 31.3C21.14 30.89 23.04 30.09 24.73 28.95C27.24 27.25 29.21 24.87 30.39 22.08C30.79 21.13 31.09 20.15 31.3 19.15C31.72 17.07 31.72 14.93 31.3 12.85C30.89 10.85 30.09 8.95001 28.95 7.26001C27.25 4.75001 24.87 2.78001 22.08 1.60001C21.13 1.20001 20.15 0.900007 19.15 0.690007C18.11 0.480007 17.06 0.370007 16 0.370007Z" fill="#E9337A"/>
<path d="M12.4 7.33002C12.15 7.29002 12.14 7.29002 12.26 7.27002C12.64 7.25002 13.02 7.28002 13.39 7.37002C14.25 7.58002 15.04 8.10002 15.88 9.03002L16.1 9.28002L16.42 9.23002C17.72 9.01002 19.06 9.18002 20.27 9.71002C20.58 9.85002 20.87 10.02 21.14 10.22C21.18 10.33 21.21 10.44 21.22 10.56C21.3 11.12 21.26 11.55 21.09 11.88C21 12.05 20.99 12.11 21.05 12.26C21.11 12.39 21.24 12.47 21.38 12.47C21.66 12.47 21.97 12.01 22.11 11.37L22.17 11.12L22.28 11.25C22.89 11.94 23.37 12.89 23.45 13.56L23.47 13.73L23.37 13.57C23.22 13.33 23.02 13.12 22.79 12.96C22.38 12.69 21.95 12.6 20.8 12.54C19.76 12.49 19.18 12.4 18.59 12.21C17.6 11.89 17.1 11.46 15.93 9.91002C15.58 9.42002 15.19 8.96002 14.76 8.54002C14.03 7.85002 13.31 7.48002 12.4 7.34002V7.33002Z" fill="#E9337A"/>
<path d="M21.37 8.85999C21.37 8.49999 21.45 8.14999 21.58 7.81999C21.61 7.74999 21.64 7.68 21.68 7.62C21.68 7.68 21.66 7.73999 21.63 7.79999C21.53 8.14999 21.52 8.50999 21.59 8.85999C21.67 9.39999 21.71 9.47999 22.29 10.07C22.56 10.34 22.87 10.69 22.98 10.84L23.19 11.11L22.98 10.92C22.68 10.64 22.36 10.39 22.02 10.16C21.93 10.12 21.92 10.12 21.87 10.16C21.82 10.21 21.81 10.28 21.8 10.63C21.79 11.17 21.72 11.51 21.54 11.86C21.44 12.05 21.43 12.01 21.52 11.8C21.58 11.64 21.59 11.57 21.59 11.05C21.59 9.99999 21.47 9.74999 20.74 9.31999C20.56 9.20999 20.25 9.04999 20.07 8.96999C19.96 8.91999 19.85 8.86999 19.74 8.80999C20.09 8.87999 20.43 8.97999 20.76 9.10999C21.18 9.26999 21.26 9.28999 21.31 9.26999C21.34 9.25999 21.36 9.15999 21.38 8.85999H21.37Z" fill="#E9337A"/>
<path d="M12.89 10.65C12.38 9.95 12.06 8.87 12.13 8.06L12.15 7.81L12.27 7.83C12.54 7.89 12.8 7.99 13.04 8.12C13.52 8.41 13.73 8.8 13.95 9.8C14.01 10.09 14.09 10.42 14.13 10.53C14.26 10.84 14.42 11.13 14.61 11.4C14.74 11.6 14.66 11.69 14.36 11.66C13.91 11.62 13.29 11.19 12.9 10.65H12.89Z" fill="#E9337A"/>
<path d="M20.75 15.89C18.36 14.93 17.52 14.09 17.52 12.68C17.52 12.55 17.52 12.43 17.54 12.3C17.61 12.35 17.68 12.4 17.75 12.45C18.23 12.84 18.78 13 20.28 13.22C21.16 13.35 21.66 13.45 22.12 13.61C23.58 14.09 24.48 15.08 24.7 16.41C24.76 16.91 24.73 17.42 24.63 17.91C24.55 18.21 24.31 18.76 24.24 18.78C24.22 18.78 24.2 18.72 24.2 18.62C24.16 18.09 23.91 17.6 23.5 17.26C23.01 16.84 22.36 16.51 20.77 15.87L20.75 15.89Z" fill="#E9337A"/>
<path d="M19.07 16.29C19.04 16.12 19 15.95 18.95 15.78L18.89 15.6L19 15.73C19.17 15.94 19.3 16.17 19.39 16.43C19.47 16.66 19.48 16.73 19.48 17.1C19.48 17.47 19.47 17.54 19.4 17.75C19.3 18.05 19.12 18.33 18.9 18.55C18.46 18.99 17.9 19.24 17.09 19.34C16.95 19.36 16.54 19.39 16.18 19.41C15.27 19.46 14.67 19.55 14.13 19.74C14.08 19.76 14.03 19.77 13.98 19.78C13.96 19.76 14.32 19.54 14.63 19.39C15.06 19.18 15.48 19.07 16.43 18.91C16.9 18.83 17.38 18.74 17.51 18.7C18.67 18.34 19.27 17.42 19.08 16.28L19.07 16.29Z" fill="#E9337A"/>
<path d="M20.17 18.24C19.85 17.56 19.78 16.9 19.95 16.28C19.97 16.21 20 16.16 20.02 16.16C20.08 16.18 20.14 16.21 20.19 16.25C20.34 16.35 20.63 16.51 21.41 16.94C22.39 17.47 22.94 17.88 23.32 18.35C23.66 18.77 23.87 19.27 23.95 19.8C24 20.28 23.98 20.76 23.89 21.23C23.66 22.21 23.03 23.05 22.15 23.54C22.07 23.59 21.98 23.63 21.9 23.67C21.92 23.58 21.96 23.49 22 23.41C22.29 22.83 22.33 22.15 22.1 21.54C21.96 21.13 21.69 20.64 21.13 19.8C20.48 18.83 20.32 18.57 20.16 18.23L20.17 18.24Z" fill="#E9337A"/>
<path d="M11.19 21.92C12.08 21.17 13.18 20.64 14.19 20.48C14.71 20.41 15.23 20.43 15.75 20.54C16.39 20.7 16.97 21.07 17.27 21.51C17.56 21.94 17.69 22.31 17.82 23.15C17.87 23.48 17.93 23.81 17.94 23.88C18.04 24.31 18.23 24.66 18.46 24.83C18.84 25.1 19.48 25.12 20.12 24.87C20.19 24.84 20.26 24.82 20.33 24.81C20.35 24.83 20.03 25.05 19.81 25.16C19.54 25.3 19.24 25.38 18.94 25.37C18.36 25.37 17.87 25.07 17.47 24.47C17.32 24.21 17.19 23.95 17.07 23.68C16.64 22.71 16.43 22.41 15.94 22.09C15.52 21.81 14.99 21.76 14.54 21.96C14.08 22.17 13.89 22.71 14.1 23.17C14.13 23.24 14.18 23.31 14.23 23.38C14.41 23.57 14.65 23.7 14.92 23.74C15.32 23.79 15.69 23.51 15.74 23.11C15.74 23.08 15.74 23.04 15.74 23.01C15.74 22.72 15.63 22.55 15.34 22.42C14.95 22.25 14.54 22.45 14.54 22.81C14.54 22.96 14.63 23.09 14.76 23.13C14.86 23.18 14.86 23.18 14.78 23.16C14.43 23.09 14.34 22.66 14.63 22.38C14.97 22.04 15.68 22.19 15.92 22.65C16.02 22.91 16.03 23.2 15.94 23.47C15.74 23.99 15.16 24.27 14.57 24.12C14.17 24.02 14.01 23.91 13.52 23.41C12.68 22.54 12.35 22.38 11.14 22.19L10.91 22.15L11.17 21.93L11.19 21.92Z" fill="#E9337A"/>
<path fill-rule="evenodd" clip-rule="evenodd" d="M7.79 6.66002C10.6 10.07 11.98 11.24 12.2 11.54C12.38 11.79 12.31 12.01 12.01 12.18C11.79 12.29 11.56 12.36 11.32 12.37C11.1 12.37 10.9 12.27 10.74 12.12C10.63 12.01 10.17 11.32 9.09999 9.68002C8.28999 8.42002 7.61 7.37002 7.59 7.36002C7.59 7.36002 8.06666 8.22336 9.01999 9.95002C9.93999 11.6 10.26 12.19 10.26 12.27C10.26 12.43 10.22 12.51 10.02 12.73C9.68999 13.09 9.55001 13.5 9.44001 14.35C9.32001 15.3 8.99 15.97 8.07 17.12C7.53 17.79 7.44 17.92 7.31 18.19C7.15 18.49 7.07 18.82 7.07 19.15C7.04 19.55 7.1 19.96 7.23 20.34C7.36 20.75 7.56001 21.13 7.80001 21.48C8.08001 21.91 8.23999 22.24 8.23999 22.36C8.23999 22.46 8.26001 22.46 8.69001 22.36C9.73001 22.13 10.58 21.71 11.05 21.2C11.34 20.89 11.41 20.71 11.42 20.28C11.42 20 11.42 19.94 11.34 19.78C11.22 19.52 10.99 19.3 10.49 18.96C9.83999 18.52 9.55999 18.16 9.48999 17.67C9.42999 17.27 9.5 16.98 9.86 16.23C10.23 15.45 10.32 15.12 10.39 14.33C10.43 13.82 10.49 13.62 10.63 13.46C10.78 13.29 10.92 13.24 11.3 13.18C11.91 13.1 12.31 12.94 12.63 12.64C12.89 12.42 13.04 12.1 13.04 11.76V11.48L12.9 11.3C12.33 10.64 7.43 6.15002 7.39 6.15002C7.39 6.15002 7.57001 6.38002 7.80001 6.67002L7.79 6.66002ZM8.55001 19.66C8.68001 19.43 8.61 19.15 8.4 19C8.2 18.87 7.87999 18.93 7.87999 19.1C7.87999 19.15 7.91 19.19 7.98 19.23C8.09 19.29 8.1 19.35 8.01 19.48C7.92 19.61 7.93 19.73 8.03 19.81C8.19 19.94 8.43001 19.87 8.55001 19.65V19.66Z" fill="#E9337A"/>
<path fill-rule="evenodd" clip-rule="evenodd" d="M13.43 13.33C13.11 13.45 12.87 13.72 12.77 14.04C12.72 14.24 12.75 14.58 12.83 14.68C12.96 14.85 13.08 14.9 13.42 14.89C14.08 14.89 14.65 14.6 14.71 14.25C14.76 13.96 14.51 13.56 14.17 13.39C13.94 13.29 13.68 13.27 13.43 13.32V13.33ZM14.2 13.93C14.3 13.79 14.26 13.63 14.08 13.53C13.75 13.33 13.26 13.5 13.26 13.8C13.26 13.95 13.52 14.12 13.76 14.12C13.93 14.12 14.09 14.05 14.2 13.93Z" fill="#E9337A"/>
</g>
<defs>
<clipPath id="clip0_298_573">
<rect width="32" height="32" fill="white"/>
</clipPath>
</defs>
</svg>
