<svg width="32" height="32" viewBox="0 0 32 32" fill="none" xmlns="http://www.w3.org/2000/svg">
  <path fill-rule="evenodd" clip-rule="evenodd"
    d="M16 32C24.8366 32 32 24.8366 32 16C32 7.16344 24.8366 0 16 0C7.16344 0 0 7.16344 0 16C0 24.8366 7.16344 32 16 32ZM14.1849 18.8696V19.1285H16.9985V18.8696C17.0035 18.3723 17.0653 17.9537 17.1841 17.6137C17.3078 17.2737 17.4934 16.9743 17.7409 16.7155C17.9933 16.4567 18.315 16.2081 18.706 15.9696C19.1712 15.6854 19.5746 15.3682 19.9161 15.0181C20.2576 14.6629 20.5224 14.2569 20.7105 13.8002C20.9035 13.3384 21 12.8107 21 12.2169C21 11.3289 20.7847 10.5703 20.3541 9.94101C19.9235 9.31177 19.3296 8.83222 18.5724 8.50238C17.8151 8.16746 16.9441 8 15.9592 8C15.0634 8 14.2442 8.16492 13.5019 8.49477C12.7595 8.81954 12.1631 9.3143 11.7127 9.97907C11.2623 10.6388 11.0247 11.4761 11 12.491H14.029C14.0438 12.0749 14.1428 11.7272 14.3259 11.4481C14.509 11.164 14.7441 10.9508 15.0312 10.8088C15.3182 10.6616 15.6226 10.588 15.9443 10.588C16.2759 10.588 16.5778 10.6591 16.85 10.8011C17.1272 10.9432 17.3474 11.1462 17.5108 11.4101C17.6741 11.674 17.7558 11.981 17.7558 12.3311C17.7558 12.661 17.684 12.9604 17.5405 13.2293C17.3969 13.4932 17.2039 13.7342 16.9614 13.9524C16.7189 14.1706 16.4442 14.3812 16.1373 14.5842C15.7266 14.8481 15.3752 15.1424 15.0831 15.4672C14.7911 15.7919 14.5684 16.2182 14.415 16.746C14.2665 17.2737 14.1898 17.9816 14.1849 18.8696ZM14.3853 23.4672C14.7367 23.8224 15.1599 24 15.6548 24C15.9715 24 16.2635 23.9188 16.5308 23.7564C16.7981 23.589 17.0134 23.3682 17.1767 23.0942C17.345 22.8151 17.4316 22.5081 17.4365 22.1732C17.4316 21.6759 17.2509 21.2496 16.8946 20.8944C16.5382 20.5392 16.125 20.3616 15.6548 20.3616C15.1599 20.3616 14.7367 20.5392 14.3853 20.8944C14.0389 21.2496 13.8681 21.6759 13.8731 22.1732C13.8681 22.6755 14.0389 23.1069 14.3853 23.4672Z"
    fill="currentColor" />
</svg>