<svg width="32" height="32" viewBox="0 0 32 32" fill="none" xmlns="http://www.w3.org/2000/svg">
<g clip-path="url(#clip0_298_1077)">
<path d="M16 32C24.8366 32 32 24.8366 32 16C32 7.16344 24.8366 0 16 0C7.16344 0 0 7.16344 0 16C0 24.8366 7.16344 32 16 32Z" fill="white"/>
<path d="M29.68 24.3C31.15 21.88 32 19.04 32 16C32 7.16 24.84 0 16 0C7.16 0 0 7.16 0 16C0 19.02 0.839997 21.84 2.29 24.25L15.51 1.32V9.99L7.93 23.79C6.34 24.37 4.85 25.11 3.5 25.99C6.43 29.65 10.94 32 16 32C21.06 32 25.56 29.65 28.5 25.99C27.13 25.09 25.62 24.34 24 23.76L16.44 9.99V1.32L29.69 24.29L29.68 24.3ZM20.42 22.8C19 22.54 17.52 22.4 16 22.4C14.48 22.4 13 22.54 11.58 22.8L16 15.14L20.42 22.8Z" fill="#0091DA"/>
</g>
<defs>
<clipPath id="clip0_298_1077">
<rect width="32" height="32" fill="white"/>
</clipPath>
</defs>
</svg>
