<svg width="32" height="32" viewBox="0 0 32 32" fill="none" xmlns="http://www.w3.org/2000/svg">
<path d="M29.68 24.2924C31.15 21.8732 32 19.0341 32 15.995C32 7.15776 24.84 0 16 0C7.16 0 0 7.15776 0 15.995C0 19.0141 0.839997 21.8332 2.29 24.2424L15.51 1.32958V9.99688L7.93 23.7926C6.34 24.3724 4.85 25.1122 3.5 25.9919C6.43 29.6507 10.94 32 16 32C21.06 32 25.56 29.6507 28.5 25.9919C27.13 25.0922 25.62 24.3424 24 23.7626L16.44 9.99688V1.32958L29.69 24.2924H29.68ZM20.42 22.8029C19 22.543 17.52 22.403 16 22.403C14.48 22.403 13 22.543 11.58 22.8029L16 15.1453L20.42 22.8029Z" fill="#213147"/>
</svg>
