<svg width="32" height="32" viewBox="0 0 32 32" fill="none" xmlns="http://www.w3.org/2000/svg">
<g clip-path="url(#clip0_298_871)">
<path fill-rule="evenodd" clip-rule="evenodd" d="M17.92 14.07V16.71C17.81 16.72 17.2 16.77 15.99 16.77C14.98 16.77 14.26 16.73 14 16.71V14.07C10.11 14.24 7.21001 14.92 7.21001 15.73C7.21001 16.54 10.11 17.22 14 17.39C14.25 17.39 14.96 17.43 15.97 17.43C17.24 17.43 17.8 17.4 17.91 17.39C21.79 17.22 24.68 16.55 24.68 15.74C24.68 14.93 21.79 14.26 17.91 14.08L17.92 14.07Z" fill="#213147"/>
<path fill-rule="evenodd" clip-rule="evenodd" d="M16 0C7.16 0 0 7.16 0 16C0 24.84 7.16 32 16 32C24.84 32 32 24.84 32 16C32 7.16 24.84 0 16 0ZM17.92 18.03V25.61H14.01V18.03C9.61 17.83 6.3 16.96 6.3 15.91C6.3 14.86 9.61 13.99 14.01 13.79V11.43H8.60001V7.82H23.34V11.43H17.93V13.8C22.32 14 25.62 14.87 25.62 15.92C25.62 16.97 22.32 17.83 17.93 18.04L17.92 18.03Z" fill="#213147"/>
</g>
<defs>
<clipPath id="clip0_298_871">
<rect width="32" height="32" fill="white"/>
</clipPath>
</defs>
</svg>
