<svg width="32" height="32" viewBox="0 0 32 32" fill="none" xmlns="http://www.w3.org/2000/svg">
<path d="M16 0C7.16 0 0 7.16 0 16C0 24.84 7.16 32 16 32C24.84 32 32 24.84 32 16C32 7.16 24.84 0 16 0ZM28.44 24.38C26.81 26.79 24.52 28.68 21.85 29.81C20.95 30.2 20 30.49 19.04 30.69C18.03 30.89 17.03 30.99 16.01 30.99C14.99 30.99 13.98 30.88 12.99 30.69C11.07 30.29 9.25 29.53 7.63 28.43C5.22 26.8 3.33 24.51 2.2 21.84C1.81 20.94 1.52 19.99 1.32 19.03C0.91 17.04 0.91 14.98 1.32 12.99C1.73 11.07 2.49 9.25 3.59 7.63C5.22 5.22 7.51 3.33 10.18 2.2C11.08 1.81 12.03 1.52 12.99 1.32C14.98 0.91 17.04 0.91 19.03 1.32C20.95 1.72 22.77 2.48 24.39 3.58C26.8 5.21 28.69 7.5 29.82 10.17C30.21 11.07 30.5 12.02 30.7 12.98C31.11 14.97 31.11 17.03 30.7 19.02C30.3 20.94 29.54 22.76 28.44 24.38Z" fill="#213147"/>
<path d="M19.32 8.81C19.47 8.81 19.75 8.81 20.07 8.86C17.94 7.5 15.25 7.23 12.89 8.18C13.55 8.51 13 9.34 12.98 9.34C12.55 9.98 11.72 10.55 10.84 10.99C11.04 11.39 11.42 11.76 11.92 12.1C13.23 10.13 17.31 8.86 19.32 8.79V8.81Z" fill="#213147"/>
<path d="M10.66 24.64C10.64 24.98 10.86 25.25 11.2 25.29C18.39 25.34 25.3 25.13 25.34 23.94C25.87 21.44 11.72 26.22 10.67 24.64H10.66ZM11.14 25.22C10.92 25.2 10.72 25.02 10.67 24.8C10.73 25.05 10.96 25.22 11.21 25.22C18.38 25.17 25.2 22.97 25.2 23.93C25.2 24.89 18.41 25.27 11.21 25.22H11.14Z" fill="#213147"/>
<path d="M29.13 13.31C28.78 11.6 28.1 9.97 27.12 8.52C25.67 6.37 23.62 4.68 21.23 3.67C20.42 3.33 19.58 3.06 18.71 2.89C17.82 2.71 16.91 2.62 16.01 2.62C15.11 2.62 14.2 2.71 13.32 2.89C11.61 3.24 9.98 3.92 8.53 4.9C6.38 6.35 4.69 8.4 3.68 10.79C3.34 11.6 3.07 12.44 2.9 13.31C2.54 15.09 2.54 16.93 2.9 18.71C3.25 20.42 3.93 22.05 4.91 23.5C6.36 25.65 8.41 27.34 10.8 28.35C11.61 28.69 12.45 28.96 13.32 29.13C15.1 29.49 16.94 29.49 18.72 29.13C20.43 28.78 22.06 28.1 23.51 27.12C25.66 25.67 27.34 23.62 28.36 21.23C28.7 20.42 28.97 19.58 29.14 18.71C29.5 16.93 29.5 15.09 29.14 13.31H29.13ZM13.02 25.54C12.44 25.54 11.83 25.54 11.2 25.54C10.9 25.51 10.66 25.35 10.53 25.1L10.5 25.04C10.5 25.04 10.48 24.99 10.46 24.96L10.43 24.87C10.4 24.79 10.39 24.71 10.39 24.63V22.61C10.39 22.61 10.37 22.6 10.37 22.59C9.67 22.08 9.05 21.44 8.52 20.73C8.27 20.37 8.02 20.01 7.82 19.61C7.62 19.22 7.43 18.8 7.28 18.4C7.14 17.98 7.03 17.53 6.94 17.08C6.8 16.16 6.8 15.23 6.94 14.33C7.03 13.88 7.1 13.43 7.28 13.01C7.31 12.92 7.33 12.85 7.37 12.76C7.99 13.57 8.69 14.33 9.31 15.15C9.67 15.63 10.09 16.27 10.4 16.78V15.97C10.4 15.52 10.76 15.16 11.21 15.16C11.55 15.16 11.89 15.15 12.24 15.13C11.87 14.7 11.6 14.21 11.53 13.67C11.48 13.29 11.55 12.92 11.7 12.58C11.1 12.18 10.64 11.74 10.4 11.26C10.4 11.26 10.4 11.25 10.4 11.24C9.23 11.76 8.08 12.04 7.76 11.93L7.85 11.79C8.05 11.39 8.27 11.03 8.55 10.67C8.8 10.31 9.09 10 9.4 9.68C9.71 9.36 10.05 9.09 10.39 8.83C10.61 8.66 10.84 8.52 11.06 8.38C11.32 8.24 12.16 7.83 12.23 7.79C15.16 6.49 18.63 7.1 21.07 9.16C21.47 9.52 21.84 9.89 22.14 10.41C22.89 11.36 23.44 12.46 23.73 13.63C24.64 13.52 25.16 13.55 25.41 13.76C25.52 13.86 25.58 13.98 25.57 14.13V23.78C25.57 23.78 25.6 23.88 25.6 23.95C25.57 24.79 23.98 25.56 13.03 25.56L13.02 25.54Z" fill="#213147"/>
<path d="M21.27 24.39C20.37 24.54 19.36 24.71 18.28 24.87C22.62 24.68 24.6 24.29 24.91 23.97C24.84 23.95 24.74 23.94 24.61 23.94C23.96 23.94 22.6 24.17 21.28 24.39H21.27Z" fill="#213147"/>
<path d="M19.32 19.89L19.99 19.78L20.64 19.67L21.31 19.58L22.53 19.36C22.75 19.31 22.95 19.27 23.18 19.25C23.39 19.21 23.63 19.19 23.9 19.16C24.21 19.14 24.51 19.11 24.82 19.14C25.04 19.17 25.21 19.2 25.29 19.3V18.6C25.23 18.45 25.01 18.38 24.78 18.36C24.47 18.32 24.17 18.32 23.86 18.39C23.55 18.43 23.35 18.45 23.12 18.48L22.47 18.59L21.85 18.7L20.63 18.92L19.98 19.03L19.31 19.14L18.59 19.25L17.8 19.36V20.12L18.59 20.01L19.31 19.9L19.32 19.89Z" fill="#213147"/>
<path d="M24.8 15.33C24.49 15.3 24.19 15.3 23.88 15.35C23.57 15.37 23.37 15.37 23.14 15.44C22.92 15.49 22.72 15.53 22.49 15.55L21.87 15.66L20.65 15.88L20 15.99C19.78 16.01 19.55 16.08 19.33 16.1L18.61 16.21L17.82 16.32V17.04L18.61 16.93L19.33 16.82L20 16.71L20.65 16.6L21.87 16.38L22.49 16.27C22.71 16.22 22.91 16.18 23.14 16.16C23.36 16.12 23.6 16.1 23.88 16.07C24.19 16.05 24.49 16.02 24.8 16.05C25.06 16.08 25.26 16.13 25.31 16.28V15.57C25.25 15.42 25.03 15.35 24.8 15.33Z" fill="#213147"/>
<path d="M17.79 18.59L18.58 18.48L19.32 18.37L19.99 18.26L20.64 18.15L21.86 17.93L22.48 17.82L23.13 17.71C23.35 17.69 23.59 17.65 23.87 17.62C24.18 17.6 24.48 17.57 24.79 17.6C25.05 17.63 25.25 17.68 25.3 17.83V17.08C25.24 16.93 25.02 16.86 24.79 16.84C24.48 16.82 24.18 16.84 23.87 16.86C23.56 16.89 23.36 16.92 23.13 16.95L22.48 17.06L21.87 17.17L21.25 17.28L20.64 17.39L19.99 17.5L19.32 17.61L18.58 17.72L17.79 17.83V18.59Z" fill="#213147"/>
<path d="M12.72 15.34C13 15.33 13.28 15.31 13.57 15.29C13.29 15.31 13.01 15.33 12.72 15.34Z" fill="#213147"/>
<path d="M17.81 14.82V15.58L18.6 15.47L19.32 15.36L19.99 15.25L20.64 15.14L21.86 14.92L22.48 14.81C22.7 14.76 22.9 14.72 23.13 14.7C23.35 14.68 23.59 14.64 23.87 14.61C24.18 14.59 24.48 14.55 24.79 14.59C25.05 14.62 25.25 14.67 25.3 14.82V14.13C25.32 13.14 20.07 14.8 13.97 15.28C15.25 15.18 16.53 15.04 17.79 14.84L17.81 14.82Z" fill="#213147"/>
<path d="M24.81 22.91C24.47 22.91 24.14 22.91 23.8 22.96C23.49 22.99 23.26 23.05 23.01 23.07L22.27 23.18L21.57 23.29L20.9 23.4L19.6 23.62L18.95 23.71L18.33 23.8L17.72 23.89L17.07 24L15.77 24.18L15.12 24.23L14.45 24.28L13.75 24.33C13.49 24.35 13.26 24.38 13.01 24.38C12.75 24.38 12.5 24.38 12.25 24.4C12 24.42 11.71 24.42 11.46 24.42H10.65V23.68H11.46L12.25 23.65L13.01 23.63L13.75 23.58L14.47 23.49L15.14 23.44L15.79 23.39L16.44 23.3L17.09 23.19L18.92 22.92L20.87 22.59L21.54 22.48L22.24 22.37L22.96 22.26C23.21 22.24 23.43 22.17 23.75 22.15C24.09 22.09 24.42 22.09 24.76 22.09C25 22.09 25.2 22.14 25.3 22.29V21.57C25.22 21.44 25.02 21.38 24.78 21.36C24.44 21.36 24.11 21.36 23.79 21.47C23.48 21.52 23.25 21.56 23 21.58L22.26 21.69L21.56 21.8L20.89 21.91L18.94 22.24L18.29 22.33L17.07 22.51L16.42 22.56L15.77 22.65L15.12 22.7L14.45 22.75L13.75 22.8L13.03 22.85L12.27 22.87L11.51 22.93H10.7V22.17C10.97 22.17 11.22 22.15 11.51 22.15C11.8 22.15 12.05 22.13 12.3 22.13C12.55 22.13 12.81 22.11 13.06 22.11L13.78 22.06C14.03 22.06 14.25 22.04 14.48 22.01L15.15 21.95L15.8 21.9C16.02 21.88 16.22 21.84 16.45 21.81L17.1 21.72L18.32 21.54L18.93 21.43C19.15 21.37 19.35 21.34 19.58 21.32L20.88 21.1L21.55 20.99L22.25 20.88L22.97 20.77C23.22 20.75 23.44 20.68 23.76 20.66C24.1 20.61 24.43 20.61 24.77 20.61C25.02 20.63 25.22 20.69 25.29 20.82V20.06C25.2 19.96 25.01 19.91 24.79 19.89C24.45 19.89 24.12 19.89 23.78 19.94C23.47 19.99 23.24 20.03 22.99 20.05L22.25 20.16L21.55 20.27L20.88 20.38L18.93 20.71L18.28 20.8L17.06 20.98L16.41 21.07C16.19 21.09 15.99 21.13 15.76 21.16L15.11 21.21L14.44 21.26C14.22 21.3 13.97 21.3 13.74 21.32L13.02 21.37C12.76 21.37 12.51 21.39 12.26 21.39C12 21.39 11.7 21.42 11.47 21.42H10.66V15.94C10.66 15.63 10.91 15.38 11.22 15.38C11.29 15.38 11.36 15.38 11.43 15.38C11.35 15.38 11.27 15.38 11.18 15.38C10.87 15.38 10.62 15.63 10.62 15.94V24.62C10.62 24.93 10.87 25.18 11.16 25.18C18.35 25.13 25.3 22.73 25.3 23.88V23.07C25.21 22.97 25.02 22.92 24.8 22.9L24.81 22.91Z" fill="#213147"/>
<path d="M11.19 15.4C10.88 15.4 10.63 15.65 10.63 15.96V20.68H11.44L12.21 20.64L12.91 20.62L13.58 20.59L14.88 20.49L15.53 20.43C15.75 20.4 15.98 20.38 16.23 20.34L16.95 20.25C17.2 20.23 17.49 20.16 17.76 20.14V14.83C15.6 15.17 13.4 15.37 11.18 15.39L11.19 15.4ZM11.03 15.85C11.07 15.79 11.07 15.74 11.09 15.65L11.13 15.87H11.35L11.19 16.01C11.21 16.1 11.21 16.12 11.24 16.21L11.08 16.07L10.92 16.21L10.97 15.99L10.81 15.85H11.03ZM11.03 16.91L11.09 16.71C11.12 16.8 11.15 16.82 11.13 16.91H11.35L11.19 17.05C11.21 17.14 11.21 17.16 11.24 17.25L11.08 17.11L10.92 17.25C10.94 17.16 10.94 17.14 10.97 17.05L10.81 16.91H11.03ZM11.03 17.94C11.07 17.85 11.07 17.83 11.09 17.74C11.12 17.83 11.15 17.89 11.13 17.94H11.35L11.19 18.08C11.21 18.17 11.21 18.19 11.24 18.28L11.08 18.14L10.92 18.28C10.94 18.19 10.94 18.17 10.97 18.08L10.81 17.94H11.03ZM11.03 19.04C11.07 18.95 11.07 18.9 11.09 18.82C11.12 18.87 11.15 18.93 11.13 19.02H11.35L11.19 19.16L11.24 19.36L11.08 19.25L10.92 19.39C10.94 19.28 10.94 19.24 10.97 19.19L10.81 19.05H11.03V19.04ZM11.27 20.42L11.11 20.28L10.94 20.42L11 20.2L10.84 20.06H11.06C11.1 20 11.1 19.95 11.12 19.86L11.17 20.06L11.38 20.09L11.21 20.23C11.25 20.32 11.25 20.34 11.27 20.43V20.42ZM16.03 15.53L16.09 15.31C16.11 15.38 16.14 15.45 16.14 15.56L16.36 15.54L16.19 15.68C16.19 15.77 16.23 15.79 16.25 15.88L16.08 15.77L15.92 15.91C15.94 15.82 15.94 15.77 15.97 15.69L15.81 15.58L16.03 15.56V15.53ZM16.03 16.57L16.09 16.37C16.11 16.43 16.14 16.48 16.14 16.59L16.36 16.57L16.19 16.71C16.19 16.8 16.23 16.82 16.25 16.91L16.08 16.8L15.92 16.94C15.94 16.85 15.94 16.8 15.97 16.72L15.81 16.61L16.03 16.59V16.57ZM16.03 17.63L16.09 17.41C16.11 17.5 16.14 17.53 16.14 17.66L16.36 17.64L16.19 17.78C16.19 17.87 16.23 17.89 16.25 17.98L16.08 17.87L15.92 18.01C15.94 17.92 15.94 17.87 15.97 17.79L15.81 17.68L16.03 17.66V17.63ZM15.42 16.12C15.44 16.03 15.44 16.01 15.47 15.9C15.51 15.99 15.53 16.04 15.49 16.15L15.71 16.12L15.55 16.26C15.55 16.35 15.59 16.37 15.61 16.46L15.45 16.35L15.29 16.49C15.29 16.4 15.33 16.35 15.35 16.27L15.19 16.16L15.41 16.13L15.42 16.12ZM15.41 17.19C15.45 17.1 15.45 17.05 15.47 16.97C15.51 17.04 15.53 17.08 15.49 17.22L15.71 17.2L15.55 17.34C15.55 17.43 15.57 17.45 15.6 17.54L15.44 17.43L15.28 17.57C15.28 17.48 15.32 17.43 15.34 17.35L15.18 17.24L15.4 17.22L15.41 17.19ZM11.9 19.83L11.73 19.72L11.57 19.86C11.61 19.77 11.61 19.75 11.63 19.66L11.46 19.52H11.68C11.7 19.46 11.7 19.41 11.73 19.32C11.77 19.41 11.77 19.43 11.79 19.52L12 19.49L11.84 19.63C11.88 19.72 11.88 19.74 11.9 19.83ZM11.82 18.59L11.88 18.79L11.72 18.68L11.55 18.82L11.64 18.62L11.47 18.48H11.69C11.71 18.39 11.71 18.34 11.74 18.26C11.76 18.35 11.76 18.4 11.8 18.46H12L11.83 18.6L11.82 18.59ZM11.85 17.56C11.89 17.65 11.89 17.67 11.91 17.76L11.74 17.65L11.58 17.79L11.64 17.57L11.47 17.46H11.69C11.71 17.37 11.71 17.32 11.74 17.24L11.79 17.44H12.01L11.85 17.58V17.56ZM11.85 16.51C11.89 16.57 11.89 16.62 11.91 16.71L11.74 16.6L11.58 16.74L11.64 16.52L11.47 16.41H11.69C11.71 16.32 11.71 16.27 11.74 16.19L11.79 16.39H12.01L11.85 16.53V16.51ZM12.5 20.34L12.34 20.23L12.18 20.39C12.2 20.3 12.2 20.25 12.23 20.17L12.07 20.06H12.29C12.33 19.97 12.33 19.92 12.35 19.84L12.41 20.04L12.61 20.02L12.45 20.16L12.5 20.36V20.34ZM12.46 19.1C12.49 19.19 12.49 19.21 12.51 19.3L12.35 19.19L12.19 19.33C12.21 19.24 12.21 19.19 12.24 19.11L12.08 19H12.3C12.34 18.91 12.34 18.86 12.36 18.78L12.4 18.98H12.62L12.46 19.12V19.1ZM12.46 18.06C12.49 18.15 12.49 18.17 12.51 18.26L12.35 18.15L12.19 18.29C12.21 18.2 12.21 18.15 12.24 18.07L12.08 17.96H12.3C12.34 17.87 12.34 17.82 12.36 17.74C12.38 17.83 12.38 17.85 12.4 17.94H12.62C12.62 17.94 12.51 18.01 12.46 18.08V18.06ZM12.46 17.02C12.49 17.11 12.49 17.13 12.51 17.22L12.35 17.11L12.19 17.25C12.21 17.16 12.21 17.11 12.24 17.03L12.08 16.92H12.3C12.34 16.83 12.34 16.78 12.36 16.7L12.4 16.9H12.62C12.62 16.9 12.51 16.99 12.46 17.04V17.02ZM12.46 15.95C12.49 16.04 12.49 16.06 12.51 16.15L12.35 16.04L12.19 16.18C12.21 16.09 12.21 16.04 12.24 15.96L12.08 15.85H12.3C12.34 15.76 12.34 15.71 12.36 15.63L12.4 15.83H12.62L12.46 15.97V15.95ZM13.12 19.8L12.96 19.69L12.8 19.83C12.82 19.74 12.82 19.69 12.85 19.61L12.69 19.5H12.91C12.95 19.41 12.95 19.36 12.97 19.28C13.01 19.37 13.01 19.39 13.03 19.48H13.23L13.07 19.62C13.09 19.71 13.09 19.73 13.12 19.82V19.8ZM13.06 18.57C13.1 18.66 13.1 18.68 13.12 18.77L12.96 18.66L12.79 18.8C12.83 18.71 12.83 18.66 12.85 18.58L12.69 18.47H12.91C12.95 18.38 12.95 18.33 12.97 18.25C12.99 18.32 13.03 18.36 13.01 18.45H13.23L13.06 18.59V18.57ZM13.06 17.49C13.1 17.58 13.1 17.6 13.12 17.69L12.96 17.58L12.79 17.72C12.83 17.63 12.83 17.58 12.85 17.5L12.69 17.39H12.91C12.95 17.3 12.95 17.25 12.97 17.17C12.99 17.26 13.03 17.31 13.01 17.37H13.23L13.06 17.51V17.49ZM13.06 16.46C13.1 16.55 13.1 16.57 13.12 16.66L12.96 16.55L12.79 16.69C12.83 16.6 12.83 16.55 12.85 16.47L12.69 16.36H12.91C12.95 16.27 12.95 16.22 12.97 16.14C12.99 16.23 13.03 16.25 13.01 16.34H13.23L13.06 16.48V16.46ZM13.85 17.84L13.69 17.98C13.73 18.07 13.73 18.09 13.75 18.18L13.59 18.07L13.42 18.21C13.46 18.12 13.46 18.07 13.48 17.99L13.32 17.88H13.54C13.58 17.79 13.58 17.74 13.6 17.66C13.62 17.73 13.65 17.8 13.62 17.88L13.84 17.86L13.85 17.84ZM13.54 18.93C13.58 18.84 13.58 18.79 13.6 18.71C13.62 18.8 13.65 18.82 13.62 18.93L13.84 18.91L13.68 19.05C13.72 19.14 13.72 19.16 13.74 19.25L13.58 19.14L13.41 19.28C13.45 19.19 13.45 19.14 13.47 19.06L13.31 18.95H13.53L13.54 18.93ZM13.76 20.3L13.6 20.19L13.44 20.33C13.46 20.24 13.46 20.19 13.49 20.11L13.33 20L13.55 19.98C13.59 19.89 13.59 19.84 13.61 19.76C13.65 19.85 13.65 19.87 13.67 19.96L13.86 19.98L13.7 20.12C13.74 20.21 13.74 20.23 13.76 20.32V20.3ZM13.7 16.93C13.74 17.02 13.74 17.04 13.76 17.13L13.6 17.02L13.43 17.16C13.45 17.09 13.49 17.02 13.47 16.96L13.31 16.85H13.53C13.56 16.76 13.56 16.71 13.58 16.63C13.62 16.72 13.62 16.74 13.64 16.83L13.86 16.81L13.7 16.95V16.93ZM13.7 15.9C13.74 15.99 13.74 16.01 13.76 16.1L13.6 15.99L13.43 16.13C13.45 16.04 13.49 15.99 13.47 15.93L13.31 15.82H13.53C13.56 15.73 13.56 15.68 13.58 15.6L13.64 15.8L13.86 15.78L13.7 15.92V15.9ZM14.38 19.74L14.22 19.63L14.06 19.77C14.08 19.68 14.08 19.63 14.11 19.55L13.95 19.44L14.17 19.42C14.17 19.33 14.21 19.28 14.23 19.2L14.27 19.4L14.49 19.42L14.33 19.56C14.36 19.65 14.36 19.67 14.38 19.76V19.74ZM14.33 18.48C14.36 18.57 14.36 18.59 14.38 18.68L14.22 18.57L14.06 18.71C14.08 18.62 14.08 18.57 14.11 18.49L13.95 18.38L14.17 18.36C14.17 18.27 14.21 18.22 14.23 18.14L14.27 18.39L14.49 18.37L14.33 18.51V18.48ZM14.33 17.44C14.36 17.53 14.36 17.55 14.38 17.64L14.22 17.53L14.06 17.67C14.08 17.58 14.08 17.53 14.11 17.45L13.95 17.34L14.17 17.31C14.17 17.22 14.21 17.17 14.23 17.09L14.27 17.34L14.49 17.31L14.33 17.45V17.44ZM14.33 16.39C14.36 16.48 14.36 16.5 14.38 16.59L14.22 16.48L14.06 16.62C14.08 16.53 14.08 16.48 14.11 16.4L13.95 16.29L14.17 16.27C14.17 16.18 14.21 16.13 14.23 16.05L14.27 16.3L14.49 16.28L14.33 16.42V16.39ZM15.01 20.22L14.85 20.11L14.69 20.25C14.69 20.16 14.73 20.11 14.75 20.03L14.59 19.92L14.81 19.9L14.86 19.68C14.88 19.74 14.88 19.8 14.88 19.93L15.1 19.91L14.94 20.05C14.98 20.14 14.98 20.16 15 20.25L15.01 20.22ZM14.95 18.93C14.99 19.02 14.99 19.04 15.01 19.13L14.85 19.02L14.69 19.16C14.69 19.07 14.73 19.02 14.75 18.94L14.59 18.83H14.81L14.86 18.61C14.88 18.7 14.88 18.72 14.88 18.83L15.1 18.81L14.94 18.95L14.95 18.93ZM14.95 17.92C14.99 18.01 14.99 18.03 15.01 18.12L14.85 18.01L14.69 18.15C14.73 18.06 14.73 18.01 14.75 17.93L14.59 17.82L14.81 17.8C14.83 17.71 14.83 17.66 14.86 17.58C14.88 17.67 14.88 17.69 14.88 17.83L15.1 17.81L14.94 17.95L14.95 17.92ZM14.95 16.84C14.99 16.93 14.99 16.95 15.01 17.04L14.85 16.93L14.69 17.07C14.69 16.98 14.73 16.93 14.75 16.85L14.59 16.74L14.81 16.72L14.86 16.5C14.88 16.59 14.88 16.64 14.88 16.75L15.1 16.73L14.94 16.87L14.95 16.84ZM14.95 15.81C14.99 15.9 14.99 15.92 15.01 16.01L14.85 15.9L14.69 16.04C14.69 15.95 14.73 15.9 14.75 15.82L14.59 15.71L14.81 15.69C14.83 15.6 14.83 15.55 14.86 15.47C14.88 15.56 14.88 15.58 14.88 15.72L15.1 15.7L14.94 15.84L14.95 15.81ZM15.41 18.23C15.45 18.14 15.45 18.09 15.47 18.01C15.51 18.1 15.53 18.12 15.49 18.26L15.71 18.24L15.55 18.38C15.55 18.47 15.57 18.49 15.6 18.58L15.44 18.47L15.28 18.61C15.28 18.52 15.32 18.47 15.34 18.39L15.18 18.28L15.4 18.26L15.41 18.23ZM15.62 19.63L15.46 19.52L15.3 19.66C15.3 19.57 15.34 19.52 15.36 19.44L15.2 19.33L15.42 19.31C15.46 19.22 15.46 19.17 15.48 19.09C15.5 19.18 15.5 19.2 15.53 19.29L15.73 19.31L15.57 19.45C15.57 19.54 15.59 19.56 15.62 19.65V19.63ZM16.03 18.68L16.09 18.46C16.11 18.53 16.14 18.6 16.16 18.71L16.38 18.68L16.21 18.82C16.21 18.91 16.23 18.93 16.26 19.02L16.1 18.91L15.94 19.05C15.98 18.96 15.98 18.91 16 18.83L15.8 18.72L16.02 18.69L16.03 18.68ZM16.28 20.08L16.12 19.97C16.06 20.02 16.01 20.06 15.95 20.11C15.99 20.02 15.99 19.97 16.01 19.89L15.85 19.78L16.07 19.75L16.12 19.53C16.14 19.62 16.14 19.64 16.17 19.73L16.39 19.75L16.23 19.89C16.23 19.98 16.25 20 16.28 20.09V20.08ZM16.68 15.98C16.7 15.89 16.7 15.84 16.73 15.76C16.77 15.85 16.77 15.87 16.77 16.01C16.86 16.01 16.91 15.99 16.99 15.99L16.83 16.13C16.83 16.22 16.85 16.24 16.88 16.33L16.71 16.22L16.55 16.36C16.55 16.27 16.57 16.22 16.6 16.14L16.44 16.03L16.69 16.01L16.68 15.98ZM16.86 19.27C16.86 19.36 16.88 19.38 16.91 19.47L16.75 19.36L16.58 19.5C16.58 19.41 16.62 19.36 16.64 19.28L16.47 19.17L16.69 19.15C16.71 19.06 16.71 19.01 16.74 18.93C16.78 19.02 16.78 19.04 16.8 19.13L17.02 19.15L16.86 19.29V19.27ZM16.86 18.22C16.86 18.31 16.88 18.33 16.91 18.42L16.75 18.31L16.58 18.45C16.58 18.36 16.62 18.31 16.64 18.23L16.47 18.12L16.69 18.1C16.71 18.01 16.71 17.96 16.74 17.88C16.78 17.97 16.78 18 16.8 18.13L17.02 18.11L16.86 18.25V18.22ZM16.86 17.16C16.86 17.25 16.88 17.27 16.91 17.36L16.75 17.25L16.58 17.39C16.58 17.3 16.62 17.25 16.64 17.17L16.47 17.06L16.69 17.04C16.71 16.95 16.71 16.9 16.74 16.82C16.78 16.91 16.78 16.96 16.8 17.07L17.02 17.05L16.86 17.19V17.16ZM17.52 19.9L17.35 19.79L17.19 19.93L17.24 19.71L17.08 19.6L17.3 19.58C17.34 19.49 17.34 19.44 17.36 19.36C17.38 19.45 17.38 19.47 17.41 19.56L17.63 19.58L17.46 19.72C17.5 19.81 17.5 19.83 17.52 19.92V19.9ZM17.46 18.64C17.5 18.73 17.5 18.75 17.52 18.84L17.35 18.73L17.19 18.87L17.24 18.65L17.08 18.54H17.3C17.34 18.45 17.34 18.4 17.36 18.32C17.38 18.41 17.38 18.43 17.41 18.52H17.63L17.46 18.66V18.64ZM17.46 17.61L17.52 17.81L17.35 17.7L17.19 17.84C17.19 17.75 17.22 17.7 17.24 17.62L17.08 17.51L17.3 17.49C17.34 17.4 17.34 17.35 17.36 17.27C17.38 17.36 17.38 17.38 17.41 17.47H17.63L17.46 17.63V17.61ZM17.46 16.57C17.46 16.66 17.5 16.68 17.52 16.77L17.35 16.66L17.19 16.8C17.19 16.71 17.22 16.66 17.24 16.58L17.08 16.47L17.3 16.44C17.34 16.35 17.34 16.3 17.36 16.22C17.38 16.29 17.38 16.33 17.41 16.42L17.63 16.44L17.46 16.58V16.57ZM17.46 15.52C17.46 15.61 17.5 15.63 17.52 15.72L17.35 15.61C17.35 15.61 17.24 15.68 17.19 15.75C17.19 15.66 17.22 15.61 17.24 15.53L17.08 15.42L17.3 15.4L17.36 15.18C17.38 15.24 17.38 15.3 17.41 15.38L17.63 15.4L17.46 15.54V15.52Z" fill="#213147"/>
</svg>
