<svg width="32" height="32" viewBox="0 0 32 32" fill="none" xmlns="http://www.w3.org/2000/svg">
<g clip-path="url(#clip0_298_800)">
<path d="M16 0C24.84 0 32 7.16 32 16C32 24.84 24.84 32 16 32C7.16 32 0 24.84 0 16C0 7.17 7.16 0 16 0Z" fill="url(#paint0_linear_298_800)"/>
<path fill-rule="evenodd" clip-rule="evenodd" d="M23.68 23.39C23.7 23.51 23.64 23.63 23.54 23.7L16.13 28.27C16.03 28.33 15.9 28.33 15.8 28.27L8.44997 23.76C8.34997 23.7 8.28997 23.58 8.29997 23.47C8.29997 23.47 8.29997 23.45 8.29997 23.44V17.8C8.29997 17.8 8.29997 17.79 8.29997 17.78C8.28997 17.61 8.41997 17.46 8.58997 17.45C8.64997 17.45 8.70997 17.46 8.76997 17.49L15.99 21.68L23.15 17.53C23.15 17.53 23.17 17.52 23.19 17.51C23.24 17.47 23.31 17.45 23.38 17.45C23.55 17.45 23.69 17.59 23.69 17.76V23.35C23.69 23.35 23.69 23.38 23.69 23.39H23.68ZM8.91997 22.94L11.06 21.65L8.91997 18.71V22.94ZM11.42 22.15C10.83 22.51 9.19997 23.49 9.19997 23.49L14.95 27.02L11.41 22.15H11.42ZM17.06 26.96L22.77 23.44L20.56 22.11L17.05 26.96H17.06ZM20.93 21.6L23.06 22.88V18.65L20.93 21.6ZM15.83 22.3L9.71997 18.76L15.98 27.38L22.19 18.79L16.14 22.3C16.04 22.36 15.92 22.36 15.83 22.3ZM8.59997 16.28C8.42997 16.28 8.29997 16.14 8.29997 15.97V8.64005C8.29997 8.64005 8.29997 8.60005 8.29997 8.59005C8.27997 8.46005 8.33997 8.34005 8.43997 8.27005L15.85 3.72005C15.95 3.66005 16.07 3.66005 16.17 3.72005L23.52 8.21005C23.61 8.27005 23.67 8.37005 23.67 8.48005C23.67 8.48005 23.67 8.48005 23.67 8.49005C23.67 8.50005 23.67 8.49005 23.67 8.50005V15.93C23.67 16.06 23.59 16.17 23.47 16.22L16.12 20.26C16.03 20.31 15.91 20.31 15.82 20.26L8.57997 16.28H8.59997ZM8.91997 9.08005V14.98L11.56 10.67L8.91997 9.08005ZM23.06 9.02005L20.39 10.63L23.06 14.98V9.02005ZM20.07 10.1L22.78 8.47005L16.85 4.85005L20.07 10.1ZM15.09 4.92005L9.20997 8.53005L11.89 10.14L15.09 4.92005ZM9.10997 15.85L15.98 19.63L22.85 15.85L15.98 4.65005L9.10997 15.85Z" fill="url(#paint1_linear_298_800)"/>
<path fill-rule="evenodd" clip-rule="evenodd" d="M23.68 23.39C23.7 23.51 23.64 23.63 23.54 23.7L16.13 28.27C16.03 28.33 15.9 28.33 15.8 28.27L8.44997 23.76C8.34997 23.7 8.28997 23.58 8.29997 23.47C8.29997 23.47 8.29997 23.45 8.29997 23.44V17.8C8.29997 17.8 8.29997 17.79 8.29997 17.78C8.28997 17.61 8.41997 17.46 8.58997 17.45C8.64997 17.45 8.70997 17.46 8.76997 17.49L15.99 21.68L23.15 17.53C23.15 17.53 23.17 17.52 23.19 17.51C23.24 17.47 23.31 17.45 23.38 17.45C23.55 17.45 23.69 17.59 23.69 17.76V23.35C23.69 23.35 23.69 23.38 23.69 23.39H23.68ZM8.91997 22.94L11.06 21.65L8.91997 18.71V22.94ZM11.42 22.15C10.83 22.51 9.19997 23.49 9.19997 23.49L14.95 27.02L11.41 22.15H11.42ZM17.06 26.96L22.77 23.44L20.56 22.11L17.05 26.96H17.06ZM20.93 21.6L23.06 22.88V18.65L20.93 21.6ZM15.83 22.3L9.71997 18.76L15.98 27.38L22.19 18.79L16.14 22.3C16.04 22.36 15.92 22.36 15.83 22.3ZM8.59997 16.28C8.42997 16.28 8.29997 16.14 8.29997 15.97V8.64005C8.29997 8.64005 8.29997 8.60005 8.29997 8.59005C8.27997 8.46005 8.33997 8.34005 8.43997 8.27005L15.85 3.72005C15.95 3.66005 16.07 3.66005 16.17 3.72005L23.52 8.21005C23.61 8.27005 23.67 8.37005 23.67 8.48005C23.67 8.48005 23.67 8.48005 23.67 8.49005C23.67 8.50005 23.67 8.49005 23.67 8.50005V15.93C23.67 16.06 23.59 16.17 23.47 16.22L16.12 20.26C16.03 20.31 15.91 20.31 15.82 20.26L8.57997 16.28H8.59997ZM8.91997 9.08005V14.98L11.56 10.67L8.91997 9.08005ZM23.06 9.02005L20.39 10.63L23.06 14.98V9.02005ZM20.07 10.1L22.78 8.47005L16.85 4.85005L20.07 10.1ZM15.09 4.92005L9.20997 8.53005L11.89 10.14L15.09 4.92005ZM9.10997 15.85L15.98 19.63L22.85 15.85L15.98 4.65005L9.10997 15.85Z" fill="#10046B"/>
<path d="M16 30.76C24.1517 30.76 30.76 24.1517 30.76 16C30.76 7.84827 24.1517 1.23999 16 1.23999C7.84827 1.23999 1.23999 7.84827 1.23999 16C1.23999 24.1517 7.84827 30.76 16 30.76Z" stroke="#10046B" stroke-width="0.75"/>
</g>
<defs>
<linearGradient id="paint0_linear_298_800" x1="2.21" y1="21.01" x2="29.93" y2="10.94" gradientUnits="userSpaceOnUse">
<stop stop-color="#5CB8F3"/>
<stop offset="0.43" stop-color="#6464DB"/>
<stop offset="1" stop-color="#A75FF1"/>
</linearGradient>
<linearGradient id="paint1_linear_298_800" x1="11.88" y1="26.29" x2="19.54" y2="7.04005" gradientUnits="userSpaceOnUse">
<stop stop-color="#5CB8F3"/>
<stop offset="0.43" stop-color="#6464DB"/>
<stop offset="1" stop-color="#A75FF1"/>
</linearGradient>
<clipPath id="clip0_298_800">
<rect width="32" height="32" fill="white"/>
</clipPath>
</defs>
</svg>
