<svg width="32" height="32" viewBox="0 0 32 32" fill="none" xmlns="http://www.w3.org/2000/svg">
<g clip-path="url(#clip0_298_454)">
<path d="M32 16C32 24.84 24.84 32 16 32C7.16 32 0 24.84 0 16C0 7.16 7.17 0 16 0C24.83 0 32 7.16 32 16Z" fill="white"/>
<path d="M11.33 27.82C17.38 27.82 17.38 27.73 18.4 27.43C19.74 27.03 14.62 23.49 11.33 23.49C8.03999 23.49 5.37 24.46 5.37 25.66C5.37 26.86 8.03999 27.83 11.33 27.83V27.82Z" fill="black"/>
<path d="M25.07 9.37L25.35 9.67L25.11 10C17.22 20.66 12.68 25.49 10.75 24.85C9.58001 24.46 8.40001 23.27 7.22001 21.55C6.81001 20.94 6.42 20.32 6.06 19.67C5.87 19.33 5.68999 18.99 5.51999 18.64C5.40999 18.43 5.32998 18.2 5.28998 17.97V17.94C5.26998 17.88 5.26001 17.82 5.25001 17.76C3.73001 12.02 7.14001 6.13 12.88 4.61C15.57 3.89 18.44 4.25 20.88 5.61L20.92 5.64C22.22 6.55 23.6 7.79 25.07 9.37ZM20.37 6.46C15.65 3.85 9.71 5.55 7.09 10.27C5.87 12.48 5.55001 15.07 6.19001 17.5C6.21001 17.58 6.22 17.63 6.24 17.74V17.76C6.27 17.91 6.33 18.06 6.4 18.2C6.49 18.4 6.68001 18.76 6.91001 19.17C7.25001 19.79 7.61999 20.39 8.01999 20.97C9.07999 22.53 10.14 23.59 11.05 23.9C12.26 24.31 16.83 19.47 24.06 9.73C22.75 8.35 21.52 7.25 20.37 6.45V6.46Z" fill="black"/>
<path d="M20.37 6.46C15.65 3.85 9.70999 5.56 7.08999 10.28C5.86999 12.49 5.55 15.08 6.19 17.51C6.21 17.59 6.21998 17.64 6.23998 17.75V17.77C6.26998 17.92 6.32999 18.07 6.39999 18.21C6.48999 18.41 6.68 18.77 6.91 19.18C7.25 19.8 7.61998 20.4 8.01998 20.98C9.07998 22.54 10.14 23.6 11.05 23.91C12.26 24.32 16.83 19.48 24.06 9.74C22.75 8.36 21.52 7.26 20.37 6.46Z" fill="#D83878"/>
<path d="M17.6 27.72C11.66 27.77 6.80997 22.99 6.75997 17.06C6.70997 11.12 11.49 6.27 17.42 6.22C17.48 6.22 17.54 6.22 17.59 6.22C23.53 6.27 28.3 11.12 28.25 17.06C28.2 22.93 23.46 27.67 17.59 27.72H17.6ZM17.6 26.73C22.99 26.73 27.36 22.36 27.36 16.97C27.36 11.58 22.99 7.21 17.6 7.21C12.21 7.21 7.83999 11.58 7.83999 16.97C7.83999 22.36 12.21 26.73 17.6 26.73Z" fill="black"/>
<path d="M17.6 26.73C22.99 26.73 27.36 22.36 27.36 16.97C27.36 11.58 22.99 7.21 17.6 7.21C12.21 7.21 7.83999 11.58 7.83999 16.97C7.83999 22.36 12.21 26.73 17.6 26.73Z" fill="white"/>
<path fill-rule="evenodd" clip-rule="evenodd" d="M10.3 18.97L9.00998 15.08H10.14L10.81 17.32L11.56 15.07H12.48L13.23 17.32L13.9 15.08H15.01L13.72 18.97H12.79L12.01 16.74L11.24 18.97H10.3ZM15.44 18.94V15.07H18.55V15.98H16.5V16.57H18.36V17.41H16.5V18.02H18.58V18.93H15.44V18.94ZM20.06 18.94V16.01H18.9V15.07H22.29V16.01H21.13V18.94H20.06ZM22.77 18.94V15.07H23.84V16.52H25.21V15.07H26.28V18.94H25.21V17.47H23.84V18.94H22.77Z" fill="black"/>
<path d="M5.51999 13.91C5.24999 13.77 5.13999 13.44 5.26999 13.17C5.40999 12.9 5.73998 12.79 6.00998 12.92L7.59 13.71C7.87 13.83 8 14.16 7.87 14.44C7.75 14.72 7.41999 14.85 7.13999 14.72C7.11999 14.72 7.11 14.7 7.09 14.7L5.50998 13.91H5.51999ZM5.34 16.53C5.06 16.4 4.93998 16.07 5.06998 15.8C5.19998 15.52 5.52999 15.4 5.79999 15.53L7.38001 16.26C7.66001 16.37 7.8 16.7 7.69 16.98C7.58 17.26 7.25 17.4 6.97 17.29C6.95 17.29 6.93999 17.28 6.91999 17.27L5.34 16.54V16.53Z" fill="black"/>
</g>
<defs>
<clipPath id="clip0_298_454">
<rect width="32" height="32" fill="white"/>
</clipPath>
</defs>
</svg>
