<svg width="32" height="32" viewBox="0 0 32 32" fill="none" xmlns="http://www.w3.org/2000/svg">
<path d="M16 0C7.16 0 0 7.16 0 16C0 24.84 7.16 32 16 32C24.84 32 32 24.84 32 16C32 7.16 24.84 0 16 0ZM25.54 25.56C24.34 26.76 22.39 26.76 21.19 25.56L15.99 20.36C13.81 22.54 10.79 25.56 10.79 25.56C9.59 26.76 7.64 26.76 6.44 25.56C5.24 24.36 5.24 22.41 6.44 21.21L10.97 16.68C11.34 16.31 11.34 15.71 10.97 15.34L6.44 10.81C5.24 9.61 5.24 7.66 6.44 6.46C7.64 5.26 9.59 5.26 10.79 6.46L15.98 11.67H15.99L25.54 21.21C26.74 22.41 26.74 24.36 25.54 25.56ZM25.58 10.77C24.4 11.95 22.48 11.95 21.3 10.77L21.23 10.7C20.05 9.52 20.05 7.6 21.23 6.42C22.41 5.24 24.33 5.24 25.51 6.42L25.58 6.49C26.76 7.67 26.76 9.59 25.58 10.77Z" fill="#213147"/>
</svg>
