<svg width="32" height="32" viewBox="0 0 32 32" fill="none" xmlns="http://www.w3.org/2000/svg">
<g clip-path="url(#clip0_297_61)">
<path d="M16 32C24.8366 32 32 24.8366 32 16C32 7.16344 24.8366 0 16 0C7.16344 0 0 7.16344 0 16C0 24.8366 7.16344 32 16 32Z" fill="#FDFDFD"/>
<path d="M20.97 15.38L25.42 10.93C26.56 9.79 26.78 7.93 25.76 6.69C24.59 5.26 22.47 5.18 21.19 6.45L11.64 16L21.19 25.55C22.39 26.75 24.34 26.75 25.54 25.55C26.74 24.35 26.74 22.4 25.54 21.2L20.97 16.63C20.62 16.28 20.62 15.72 20.97 15.37V15.38Z" fill="#34775D"/>
<path d="M11.6431 16.0208L15.9988 11.665L25.5519 21.218C26.7539 22.4201 26.7539 24.3717 25.5519 25.5738C24.3498 26.7759 22.3982 26.7759 21.1961 25.5738L11.6431 16.0208Z" fill="#52B136"/>
<path d="M25.5824 6.48724L25.5116 6.41653C24.3284 5.23325 22.4099 5.23325 21.2266 6.41654C20.0433 7.59982 20.0433 9.51831 21.2266 10.7016L21.2973 10.7723C22.4806 11.9556 24.3991 11.9556 25.5824 10.7723C26.7656 9.58903 26.7656 7.67053 25.5824 6.48724Z" fill="#68DF57"/>
<path d="M18.19 13.89L10.79 6.46C9.59 5.26 7.63999 5.26 6.43999 6.46C5.23999 7.66 5.23999 9.61 6.43999 10.81L10.97 15.34C11.34 15.71 11.34 16.31 10.97 16.68L6.43999 21.21C5.23999 22.41 5.23999 24.36 6.43999 25.56C7.63999 26.76 9.59 26.76 10.79 25.56C10.79 25.56 18.12 18.23 18.19 18.16C19.37 16.98 19.37 15.06 18.19 13.88V13.89Z" fill="#68DF57"/>
</g>
<defs>
<clipPath id="clip0_297_61">
<rect width="32" height="32" fill="white"/>
</clipPath>
</defs>
</svg>
