<svg width="32" height="32" viewBox="0 0 32 32" fill="none" xmlns="http://www.w3.org/2000/svg">
<g clip-path="url(#clip0_298_476)">
<path d="M16 32C24.8366 32 32 24.8366 32 16C32 7.16344 24.8366 0 16 0C7.16344 0 0 7.16344 0 16C0 24.8366 7.16344 32 16 32Z" fill="#2F2C2C"/>
<path fill-rule="evenodd" clip-rule="evenodd" d="M15.49 27C15.22 26.97 14.95 26.95 14.68 26.92C13.23 26.75 11.83 26.28 10.56 25.56C10.54 25.55 10.52 25.54 10.49 25.51C12.7 23.86 14.89 22.22 17.1 20.57L17.77 21.22C18.14 21.58 18.51 21.94 18.87 22.31C18.96 22.4 19.03 22.4 19.13 22.34C20.23 21.79 21.17 20.97 21.86 19.95L21.97 19.79C21.97 19.79 22.03 19.86 22.05 19.89C22.82 20.91 23.58 21.93 24.35 22.95C24.42 23.04 24.41 23.09 24.34 23.17C22.56 25.2 20.34 26.44 17.67 26.87C17.33 26.92 16.99 26.94 16.65 26.98C16.6 26.98 16.56 27 16.52 27.01H15.5L15.49 27ZM16.46 5C16.65 5.02 16.83 5.04 17.02 5.06C18.6 5.21 20.07 5.68 21.44 6.46C21.46 6.47 21.48 6.49 21.51 6.51L14.79 11.33C14.7 11.25 14.61 11.17 14.53 11.08C14.06 10.62 13.58 10.16 13.12 9.7C13.05 9.63 12.99 9.62 12.89 9.67C11.77 10.22 10.82 11.06 10.12 12.09L10.02 12.24L7.55003 8.95C7.80003 8.69 8.03001 8.42 8.28001 8.18C9.90001 6.6 11.83 5.59 14.06 5.19C14.49 5.11 14.93 5.09 15.36 5.03C15.41 5.03 15.46 5.01 15.51 5H16.46ZM6.45003 10.53L11.44 17.08L10.43 18.11C10.18 18.37 9.93003 18.63 9.67003 18.88C9.60003 18.95 9.60003 19.01 9.64003 19.1C10.19 20.22 11.03 21.17 12.06 21.87C12.09 21.89 12.13 21.92 12.16 21.94C12.16 21.94 12.16 21.95 12.19 21.99L8.93001 24.44C6.98001 22.76 5.72 20.69 5.21 18.18C4.67 15.49 5.11002 12.96 6.44002 10.54L6.45003 10.53ZM20.63 14.9L21.55 13.95C21.81 13.68 22.06 13.42 22.32 13.16C22.4 13.08 22.4 13.02 22.35 12.92C21.79 11.79 20.95 10.82 19.9 10.12C19.86 10.1 19.83 10.07 19.76 10.02L23.04 7.56C24.9 9.15 26.13 11.11 26.7 13.47C27.41 16.42 26.78 19.34 25.55 21.4L20.63 14.9Z" fill="white"/>
</g>
<defs>
<clipPath id="clip0_298_476">
<rect width="32" height="32" fill="white"/>
</clipPath>
</defs>
</svg>
