<svg width="32" height="32" viewBox="0 0 32 32" fill="none" xmlns="http://www.w3.org/2000/svg">
  <g clip-path="url(#clip0_292_8)">
    <path d="M11.2933 10.4C9.81334 9.50667 9.64001 7.18666 9.64001 7.17333C9.60001 7.34666 8.74667 10.32 11.2933 10.4Z" fill="#213147"/>
    <path d="M10.68 11.7867C10.84 11.5067 10.7067 11.3067 10.5733 11.2C10.5467 11.1867 10.5333 11.16 10.5333 11.16C10.2667 11.0267 8.63999 10.4133 7.01333 9.85333C8.42666 10.7867 9.99999 11.7067 10.2667 11.84C10.4667 11.92 10.6 11.9467 10.68 11.8V11.7867Z" fill="#213147"/>
    <path d="M13.96 13.0533L12.8267 15C12.8267 15 13.88 14.52 14.28 13.9067C14.6133 13.3867 13.96 13.0533 13.96 13.0533Z" fill="#213147"/>
    <path d="M14 18.8533C13.6533 18.8933 13.1733 18.96 13.0133 19.0667C13.2933 18.6267 13.6933 18.4133 14.08 18.3067C14.4 17.3733 15.1067 15.4533 15.2533 15.32C15.3467 15.2533 15.56 15.1867 15.9333 15.08C16.16 15.04 16.4533 14.9467 16.5067 14.9067C16.5867 14.7733 17.4667 12.68 17.5333 12.52C17.5067 12.36 17.0667 11.2533 16.6133 10.1867C15.5067 11 14.3067 10.7733 14.3067 10.7733C14.3067 10.7733 15.16 10.5333 16.0267 9.24C16.88 7.94666 16.0667 6.18667 16.0667 6.18667C16.0667 6.18667 13.08 10.68 12.7067 10.7733C12.3333 10.8667 12.08 10.4 12.08 10.4C12.08 10.4 11.2933 12.4533 11.08 13.2C10.8667 13.9467 11.12 14.64 11.32 14.9867C11.5467 15.3333 12 16.2133 11.36 17.1067C11.4533 16.72 11.0533 16.0933 10.7733 15.7333C10.6667 16.6933 10.3867 18.9867 10.2933 19.36C10.2533 19.6267 10.0933 19.9067 9.82667 20.4133C9.69333 20.68 9.44 21.1333 9.37333 21.3467C9.45333 21.7333 9.78666 22.68 10 22.96C10.3067 23.0667 10.7467 23.1867 11.12 23.24C11.2933 23.24 11.5067 23.16 11.8133 22.8667C12.3867 22.3467 12.7467 22.0533 12.8667 21.4933C12.9733 20.9467 12.9333 20.0933 13.1867 19.8533C13.4267 19.6133 13.9467 19.5067 14.36 19.6133C14.0267 19.6133 13.6667 19.7733 13.6667 19.7733C13.6667 19.7733 14.2933 19.6667 14.5333 20.12C14.7733 20.5733 14.5733 20.84 14.1867 21.1067C13.8533 21.32 12.8933 22.3333 12.5733 22.76H13.2267C13.4933 22.76 13.6667 22.72 13.7467 22.6267C13.96 22.4 14.2533 22.16 14.5067 21.9333C14.7733 21.6933 15.1333 21.36 15.2267 21.2533C15.4 20.9867 15.5067 20.6667 15.4667 20.32V20.28C15.2267 19.3467 14.2933 18.84 13.9867 18.8667L14 18.8533ZM15.8667 7.49333C15.8667 7.49333 16.0667 8.36 15.56 8.96C14.92 9.68 14.3867 9.65333 14.4 9.65333L15.8667 7.49333ZM10.36 21.8667C10.08 21.8933 9.97333 21.5467 10.04 21.3467C10.1067 21.1733 10.8267 19.9067 10.8267 19.9067L10.6533 20.7733C10.6533 20.7733 11 20.7333 11 21.12C11 21.4267 10.6533 21.84 10.3733 21.8667H10.36ZM12.6533 15.4133C12.52 15.92 11.4133 15.6933 11.8267 14.1067C11.8267 14.1067 12.0267 14.88 12.2133 14.8C12.4133 14.7333 14.64 11.24 14.64 11.24C14.64 11.24 14.36 12.16 14.16 12.6133C14.9333 12.7733 15.1467 13.6667 14.7333 14.1467C14.32 14.6 13.2667 15.2533 12.6533 15.4133Z" fill="#213147"/>
    <path d="M14.8933 7.28C15.2 6.86667 15.68 6.21334 16.1333 5.66667C16.2667 5.94667 16.4133 6.29333 16.4667 6.48C17.9733 5.90667 20.0667 5.61334 23.32 6.21334C21.88 5.49334 20.3733 5.12 18.8667 5.10667C18.2933 5.10667 17.7733 5.14667 17.2933 5.24C15.5867 5.54667 14.1867 6.77334 13.7067 8.4C13.7067 8.4 14.0533 7.85334 14.88 7.28H14.8933Z" fill="#213147"/>
    <path d="M13.8 5.05333C13.64 5.12 10.3467 6.18667 12.2267 9.05334C12.2267 9.05334 11.84 6.24 13.8 5.05333Z" fill="#213147"/>
    <path d="M16 0C7.16 0 0 7.16 0 16C0 24.84 7.16 32 16 32C24.84 32 32 24.84 32 16C32 7.16 24.84 0 16 0ZM24.7333 27.0933C24.9333 26.3467 25.08 25.2533 25.08 25.2533C25.08 25.2533 23.0933 28.6133 19.0133 29.1867H18.9867C19.7333 28.5067 20.1867 27.92 20.1867 27.92C20.1867 27.92 18.88 28.8133 16.4133 28.8133C15.2533 28.8133 13.84 28.6133 12.16 28.0267C12.7067 28.16 13.2533 28.2267 13.8133 28.2267C17.48 28.2267 20.4533 25.48 20.4533 22.0667C20.4533 20.1467 19.52 18.4267 18 17.2933C18 17.2933 17.24 18.28 16.8267 18.8267C16.4933 19.28 16.2133 19.7467 16.28 20.2667C16.36 20.84 16.2 21.4 15.8667 21.8133C15.6 22.12 14.7733 22.7733 14.2933 23.2533C13.9733 23.56 13.5067 23.6267 13.16 23.6267C13 23.6267 12.88 23.6 12.7733 23.6H12.7067C12.44 23.6 12.3333 23.6667 11.96 23.9867C11.88 24.0667 11.68 24.12 11.4533 24.12C10.84 24.12 9.92 23.84 9.56 23.7067C9.05333 23.5067 8.49333 21.7467 8.44 21.32C8.4 20.9067 9.32 19.5067 9.4 19.12C9.48 18.7333 9.88 15.52 9.92 15.1467C9.96 14.7733 9.94667 14.52 9.64 14.0133C9.42667 13.64 9.42667 13.2667 9.64 12.48C8.62667 11.8267 4.05333 8.44 3.8 8.25333C3.66667 8.14667 3.72 8.08 3.72 8.08C3.72 8.08 3.76 8.01333 3.92 8.04C4.02667 8.05333 6.93333 9.09334 8.96 9.82667C8.13333 7.25333 9.89333 5.69333 9.89333 5.69333C9.89333 5.69333 10.1733 6.81333 10.48 7.57333C11.68 3.97333 15.0933 4.29333 15.0933 4.29333L14.24 5.65333C14.3467 5.58667 16.1867 4.48 18.8933 4.48C20.8533 4.48 23.28 5.06667 25.84 7.08C24.7067 6.94667 23.6133 6.90666 23.6133 6.90666C23.6133 6.90666 30.9733 9.81333 30.0933 18.8133C29.8133 18.4667 29.2667 17.8 29.2267 17.7467C29.2533 17.92 30.16 23.0267 24.7333 27.1067V27.0933Z" fill="#213147"/>
    <path d="M25.7467 14.76C25.8533 14.96 28.5333 19.9067 25.72 25.32C26.16 24.88 26.52 24.4267 26.8533 23.9867C28.7333 21.36 28.4667 17.76 26.3067 15.36C26.1333 15.16 25.9333 14.9467 25.7333 14.7467L25.7467 14.76Z" fill="#213147"/>
    <path d="M17.6533 8.98666C17.5067 9.22666 17.3467 9.44 17.2 9.61333C17.52 10.4267 18.3733 12.5467 18.3733 12.6533C18.3733 12.7867 17.96 13.8533 17.9067 13.8933C17.8667 13.92 17.36 13.96 17.16 13.96C16.9467 14.48 16.72 14.9867 16.68 15.0533C16.6133 15.1333 16.4133 15.2133 16 15.32C15.7733 15.3867 15.4533 15.4667 15.4133 15.52C15.3067 15.6533 14.72 17.2 14.32 18.2933C14.84 18.2 15.3067 18.3067 15.4133 18.36C16.2667 16.7467 16.9467 15.8667 17.12 15.8667C17.2933 15.8533 19.3733 16.1467 20.1733 14.2133C20.96 12.2933 19.8267 10.6533 19.7867 10.5867C19.8267 10.6133 21.5733 11.4133 22.0133 14.04C23 15.28 23.6267 16.7867 23.8 18.3867C23.8 18.4933 23.9733 18.6533 24.08 18.7733C24.28 18.9733 24.4667 19.16 24.4667 19.36C24.4667 19.88 24.4267 20.4133 24.3333 20.9067C24.2933 21.08 24.0667 21.2133 23.8533 21.32C23.72 21.4 23.5333 21.52 23.5067 21.5867C23.0267 23.3067 21.9333 24.84 20.52 25.9333C23.5333 24.4933 25.6133 21.4133 25.6133 17.88C25.6133 13.28 22.12 9.48 17.64 9L17.6533 8.98666Z" fill="#213147"/>
    <path d="M26.64 9.86666C25.04 8.18666 22.7067 7.4 20.3867 7.73333C19.5067 7.84 18.64 8.01333 17.96 8.24C17.8533 8.25333 17.7467 8.28 17.64 8.32H17.68C17.8533 8.29333 21.04 8.14666 24.0133 10.1067C27.0933 12.1333 28.48 14.3867 29.4667 17.0267C29.4267 14.2267 28.48 11.8267 26.68 9.90666L26.64 9.86666Z" fill="#213147"/>
    <path d="M13.7067 21C13.92 20.8 14.2267 20.7333 14.2267 20.4533C14.2267 20.1467 13.8133 20.08 13.64 20.1333C13.4667 20.1733 13.4267 20.4533 13.4 20.6133C13.3733 20.7733 13.4 21.24 13.2 21.5333C13.24 21.4933 13.5467 21.16 13.7067 21.0133V21Z" fill="#213147"/>
    <path d="M23.3467 21.52C23.3867 21.3467 23.5867 21.24 23.8 21.1333C23.96 21.0533 24.1467 20.9333 24.1733 20.8667C24.2533 20.36 24.3067 19.8533 24.3067 19.36C24.3067 19.2533 24.1333 19.08 23.9733 18.9467C23.8 18.7733 23.6267 18.6 23.6 18.4267C23.44 17.0133 22.92 15.6267 22.0667 14.4933C22.1333 15.28 22.1067 16.24 21.8933 17.3467C23.4667 20.12 22.48 23.6133 20.4533 25.7333C21.8267 24.68 22.8533 23.2 23.3333 21.52H23.3467Z" fill="#213147"/>
  </g>
  <defs>
    <clipPath id="clip0_292_8">
      <rect width="32" height="32" fill="white"/>
    </clipPath>
  </defs>
</svg>
