<svg width="32" height="32" viewBox="0 0 32 32" fill="none" xmlns="http://www.w3.org/2000/svg">
  <g clip-path="url(#clip0_292_10)">
    <path d="M16 32C24.8366 32 32 24.8366 32 16C32 7.16344 24.8366 0 16 0C7.16344 0 0 7.16344 0 16C0 24.8366 7.16344 32 16 32Z" fill="white"/>
    <path d="M10 18L10.7 12.74L4.63 8.53L10.18 10.41L11.49 8.4L16.27 5.43L26.81 11.24L27.36 20.1L22.66 26.63L18.95 27.2L20.87 23.69V20.31L19.47 17.67L18.05 16.73L15.87 18.98V21.36L14.17 22.95L12.01 23.21L11.05 23.75L9.48 23.25L8.82 20.89L10 19.23V18Z" fill="white"/>
    <path d="M19.7 8.48C18.54 8.24 17.28 8.3 17.28 8.3C17.28 8.3 16.86 10.22 14.29 10.73C14.31 10.73 17.69 11.89 19.7 8.48ZM20.74 25.91C22.14 24.82 23.18 23.31 23.67 21.61C23.69 21.55 23.89 21.43 24.02 21.35C24.24 21.22 24.46 21.11 24.5 20.93C24.59 20.43 24.63 19.9 24.63 19.38C24.63 19.19 24.43 18.99 24.24 18.79C24.09 18.66 23.93 18.51 23.93 18.4C23.71 16.41 22.8 14.56 21.33 13.2L21.18 13.35C22.6 14.68 23.52 16.49 23.71 18.41C23.73 18.59 23.9 18.76 24.08 18.93C24.23 19.06 24.41 19.26 24.41 19.35C24.41 19.85 24.37 20.35 24.28 20.85C24.26 20.94 24.06 21.03 23.91 21.11C23.69 21.22 23.49 21.33 23.45 21.5C22.93 23.36 21.72 24.97 20.13 26.02C20.41 25.41 21.31 23.42 21.79 22.42L21.7 19.19L18.93 16.51L17.36 16.73L15.63 19.53C15.63 19.53 16.44 20.56 15.3 21.76C14.19 22.94 13.31 23.2 13.31 23.2L12.5 22.76C12.74 22.45 13.22 22 13.59 21.69C14.22 21.17 14.86 21.12 14.86 20.56C14.89 19.38 13.62 19.7 13.62 19.7L13.16 20.14L12.97 21.76L12.01 22.96L11.9 22.94L10.33 22.59C10.33 22.59 11.29 22.09 11.45 21.52C11.6 20.97 11.14 19.16 11.12 19.05C11.14 19.07 11.58 19.44 11.78 20.05C12.13 19.09 12.59 18.17 12.72 18.08C12.85 17.99 14.62 17.05 14.62 17.05L14.03 18.6L14.47 18.36L15.52 15.78C15.52 15.78 16.55 15.28 17.31 15.28C18.68 15.26 20.72 13.58 19.8 10.56C20.06 10.67 24.6 12.94 25.39 17.39C25.98 20.81 24.04 24.02 20.76 25.88L20.74 25.91Z" fill="#94A6C3"/>
    <path d="M15.55 8.96C16.05 8.37 15.86 7.5 15.86 7.5L14.4 9.66C14.4 9.66 14.92 9.68 15.56 8.96H15.55ZM10.63 20.78L10.81 19.91C10.81 19.91 10.09 21.18 10.02 21.35C9.95 21.55 10.06 21.9 10.35 21.87C10.63 21.85 10.98 21.43 10.98 21.13C10.98 20.74 10.63 20.78 10.63 20.78Z" fill="#1B314F"/>
    <path d="M23.6 6.89C23.6 6.89 24.69 6.93 25.83 7.07C23.27 5.06 20.85 4.47 18.89 4.47C16.18 4.47 14.35 5.59 14.24 5.65L15.09 4.3C15.09 4.3 11.68 3.97 10.48 7.58C10.17 6.82 9.89 5.7 9.89 5.7C9.89 5.7 8.12 7.25 8.95 9.83C6.92 9.09 4.02 8.06 3.9 8.04C3.75 8.02 3.7 8.08 3.7 8.08C3.7 8.08 3.66 8.14 3.79 8.26C4.03 8.45 8.62 11.84 9.63 12.49C9.41 13.28 9.41 13.65 9.63 14.02C9.94 14.52 9.96 14.78 9.91 15.15C9.87 15.52 9.47 18.73 9.39 19.13C9.31 19.53 8.39 20.92 8.43 21.33C8.47 21.75 9.04 23.51 9.55 23.71C9.92 23.84 10.84 24.13 11.45 24.13C11.67 24.13 11.87 24.09 11.95 24C12.32 23.67 12.43 23.61 12.69 23.61H12.75C12.86 23.61 12.99 23.63 13.14 23.63C13.49 23.63 13.95 23.56 14.27 23.26C14.75 22.78 15.58 22.13 15.84 21.82C16.17 21.4 16.34 20.84 16.26 20.27C16.19 19.75 16.48 19.29 16.81 18.83C17.23 18.28 17.99 17.3 17.99 17.3C19.5 18.43 20.44 20.16 20.44 22.08C20.44 25.49 17.47 28.24 13.8 28.24C13.23 28.24 12.69 28.18 12.14 28.05C13.82 28.64 15.24 28.84 16.4 28.84C18.87 28.84 20.18 27.95 20.18 27.95C20.18 27.95 19.72 28.54 18.98 29.22H19C23.08 28.65 25.07 25.29 25.07 25.29C25.07 25.29 24.92 26.38 24.72 27.12C30.15 23.04 29.23 17.93 29.21 17.76C29.25 17.82 29.8 18.48 30.08 18.83C30.96 9.83 23.6 6.93 23.6 6.93V6.89ZM15.24 21.26C15.15 21.37 14.78 21.7 14.52 21.94C14.26 22.18 13.97 22.42 13.76 22.64C13.67 22.73 13.5 22.77 13.24 22.77H12.58C12.91 22.33 13.87 21.33 14.2 21.11C14.59 20.85 14.79 20.59 14.55 20.13C14.31 19.67 13.68 19.78 13.68 19.78C13.68 19.78 14.05 19.63 14.38 19.63C13.96 19.52 13.44 19.63 13.2 19.87C12.94 20.11 12.98 20.96 12.87 21.51C12.76 22.08 12.39 22.36 11.82 22.89C11.51 23.17 11.3 23.26 11.12 23.26C10.75 23.2 10.31 23.08 10 22.98C9.78 22.7 9.45 21.76 9.37 21.36C9.43 21.14 9.7 20.68 9.83 20.42C10.09 19.92 10.25 19.63 10.29 19.37C10.38 19 10.66 16.71 10.77 15.75C11.05 16.12 11.45 16.73 11.36 17.13C11.99 16.24 11.54 15.36 11.32 15.01C11.13 14.66 10.86 13.96 11.08 13.22C11.3 12.48 12.08 10.42 12.08 10.42C12.08 10.42 12.34 10.88 12.71 10.79C13.08 10.7 16.07 6.2 16.07 6.2C16.07 6.2 16.88 7.97 16.03 9.26C15.16 10.55 14.3 10.79 14.3 10.79C14.3 10.79 15.5 11.01 16.61 10.2C17.07 11.27 17.5 12.38 17.53 12.54C17.46 12.69 16.59 14.79 16.5 14.92C16.46 14.96 16.15 15.05 15.93 15.1C15.56 15.21 15.34 15.28 15.25 15.34C15.1 15.47 14.4 17.39 14.07 18.33C13.68 18.44 13.28 18.66 13 19.09C13.15 18.98 13.63 18.91 13.98 18.87C14.29 18.85 15.22 19.35 15.47 20.29V20.33C15.52 20.67 15.41 21 15.23 21.27L15.24 21.26ZM13.19 21.52C13.39 21.24 13.37 20.76 13.39 20.6C13.41 20.44 13.45 20.16 13.63 20.12C13.81 20.08 14.22 20.14 14.22 20.45C14.22 20.73 13.91 20.8 13.7 21C13.54 21.15 13.24 21.48 13.19 21.52ZM21.9 17.35C22.12 16.24 22.14 15.28 22.08 14.49C22.93 15.62 23.45 17 23.61 18.42C23.63 18.6 23.8 18.77 23.98 18.94C24.13 19.07 24.31 19.25 24.31 19.36C24.31 19.86 24.27 20.36 24.18 20.87C24.16 20.93 23.96 21.05 23.81 21.13C23.59 21.24 23.39 21.35 23.35 21.52C22.87 23.2 21.84 24.69 20.47 25.73C22.5 23.61 23.48 20.12 21.91 17.34L21.9 17.35ZM20.53 25.93C21.95 24.84 23.04 23.31 23.52 21.58C23.54 21.52 23.74 21.4 23.87 21.32C24.09 21.21 24.31 21.08 24.35 20.9C24.44 20.4 24.48 19.87 24.48 19.35C24.48 19.16 24.28 18.96 24.09 18.76C23.98 18.63 23.81 18.48 23.81 18.37C23.63 16.78 23 15.27 22.02 14.02C21.58 11.4 19.84 10.59 19.79 10.57C19.83 10.64 20.97 12.27 20.18 14.19C19.37 16.13 17.3 15.83 17.12 15.85C16.94 15.85 16.27 16.72 15.42 18.34C15.31 18.3 14.85 18.19 14.33 18.28C14.72 17.19 15.31 15.64 15.42 15.51C15.46 15.47 15.79 15.38 16.01 15.32C16.43 15.21 16.62 15.14 16.69 15.06C16.73 14.99 16.95 14.49 17.17 13.97C17.37 13.97 17.87 13.93 17.91 13.9C17.95 13.86 18.37 12.79 18.37 12.66C18.37 12.55 17.52 10.43 17.19 9.62C17.34 9.44 17.5 9.23 17.65 8.99C22.13 9.47 25.62 13.27 25.62 17.88C25.62 21.42 23.55 24.5 20.53 25.94V25.93Z" fill="#1B314F"/>
    <path d="M14.72 14.14C15.14 13.66 14.92 12.77 14.15 12.61C14.35 12.15 14.63 11.24 14.63 11.24C14.63 11.24 12.4 14.73 12.21 14.8C12.01 14.87 11.82 14.1 11.82 14.1C11.4 15.69 12.52 15.91 12.65 15.41C13.26 15.25 14.31 14.6 14.72 14.14Z" fill="#1B314F"/>
    <path d="M12.82 14.99L13.95 13.05C13.95 13.05 14.61 13.38 14.28 13.9C13.87 14.51 12.82 14.99 12.82 14.99Z" fill="#FFD923"/>
    <path d="M26.86 23.99C26.53 24.43 26.16 24.88 25.73 25.32C28.54 19.9 25.86 14.95 25.75 14.75C25.95 14.95 26.14 15.17 26.32 15.36C28.48 17.76 28.74 21.36 26.86 23.98V23.99ZM29.48 17.02C28.5 14.38 27.1 12.13 24.02 10.1C21.05 8.13 17.86 8.29 17.69 8.31H17.65C17.76 8.27 17.87 8.24 17.98 8.22C18.66 8 19.53 7.83 20.41 7.72C22.73 7.39 25.06 8.17 26.66 9.86L26.7 9.9C28.51 11.82 29.45 14.22 29.49 17.02H29.48ZM23.32 6.21C20.07 5.6 17.97 5.9 16.46 6.47C16.42 6.29 16.26 5.95 16.13 5.66C15.68 6.21 15.19 6.86 14.89 7.28C14.06 7.85 13.71 8.4 13.71 8.4C14.19 6.76 15.59 5.54 17.29 5.23C17.77 5.14 18.29 5.1 18.86 5.1C20.36 5.12 21.87 5.49 23.31 6.21H23.32ZM11.29 10.4C8.74 10.31 9.59 7.34 9.63 7.17C9.63 7.19 9.8 9.51 11.29 10.4ZM13.8 5.05C11.83 6.23 12.23 9.04 12.23 9.04C10.35 6.18 13.65 5.11 13.8 5.05Z" fill="#D82122"/>
    <path d="M10.57 11.19C10.7 11.3 10.83 11.5 10.68 11.78C10.59 11.93 10.46 11.91 10.26 11.82C10 11.69 8.43 10.77 7.01 9.83C8.63 10.4 10.26 11.01 10.52 11.14C10.52 11.14 10.54 11.16 10.56 11.18L10.57 11.19Z" fill="white"/>
  </g>
  <defs>
    <clipPath id="clip0_292_10">
      <rect width="32" height="32" fill="white"/>
    </clipPath>
  </defs>
</svg>
