<svg width="32" height="32" viewBox="0 0 32 32" fill="none" xmlns="http://www.w3.org/2000/svg">
<path d="M16 0C7.16 0 0 7.16 0 16C0 24.84 7.16 32 16 32C24.84 32 32 24.84 32 16C32 7.16 24.84 0 16 0ZM22.8 23.47C22.61 23.66 22.35 23.76 22.08 23.75C21.88 23.75 21.68 23.68 21.52 23.56C21.35 23.43 21.22 23.26 21.13 23.07L15.98 10.27L14.09 14.98H15.01C15.54 14.98 15.98 15.41 15.98 15.95V15.98C15.98 16.51 15.54 16.94 15.01 16.95H13.29L10.82 23.08C10.74 23.28 10.6 23.44 10.43 23.57C10.27 23.69 10.07 23.75 9.87 23.76C9.59999 23.77 9.33999 23.67 9.14999 23.48C8.96999 23.28 8.86999 23.02 8.87999 22.75C8.87999 22.62 8.9 22.5 8.95 22.38L11.2 16.95H10.24C9.70999 16.95 9.26999 16.52 9.26999 15.98C9.26999 15.43 9.70999 15 10.24 15H12.02L14.37 9.3C14.56 8.71 15.11 8.31 15.73 8.29H16.21C16.83 8.3 17.38 8.71 17.57 9.3L22.98 22.38C23.03 22.5 23.05 22.62 23.05 22.75C23.06 23.02 22.96 23.28 22.78 23.48L22.8 23.47Z" fill="#213147"/>
</svg>
