<svg width="32" height="32" viewBox="0 0 32 32" fill="none" xmlns="http://www.w3.org/2000/svg">
  <path d="M16 32C24.8366 32 32 24.8366 32 16C32 7.16344 24.8366 0 16 0C7.16344 0 0 7.16344 0 16C0 24.8366 7.16344 32 16 32Z" fill="#9391F7"/>
  <path d="M13.03 16.78C14.4 16.56 15.33 15.26 15.11 13.89C14.89 12.52 13.59 11.59 12.22 11.81C10.85 12.03 9.92 13.33 10.14 14.7C10.36 16.07 11.66 17 13.03 16.78ZM19.61 16.78C20.98 16.56 21.91 15.26 21.69 13.89C21.47 12.52 20.17 11.59 18.8 11.81C17.43 12.03 16.5 13.33 16.72 14.7C16.94 16.07 18.24 17 19.61 16.78Z" fill="white"/>
  <path d="M15.91 3.90997C9.08001 3.90997 3.54001 9.55997 3.54001 16.52H6.70001C6.70001 11.3 10.79 7.06997 15.91 7.06997C21.03 7.06997 25.12 11.3 25.12 16.52H28.28C28.28 9.55997 22.74 3.90997 15.91 3.90997Z" fill="white"/>
</svg>
