<svg width="32" height="32" viewBox="0 0 32 32" fill="none" xmlns="http://www.w3.org/2000/svg">
  <path d="M16 0C7.16 0 0 7.16 0 16C0 24.84 7.16 32 16 32C24.84 32 32 24.84 32 16C32 7.16 24.84 0 16 0ZM13.03 16.78C11.66 17 10.37 16.07 10.14 14.7C9.92 13.33 10.85 12.04 12.22 11.81C13.59 11.59 14.88 12.52 15.11 13.89C15.33 15.26 14.4 16.55 13.03 16.78ZM19.61 16.78C18.24 17 16.95 16.07 16.72 14.7C16.5 13.33 17.43 12.04 18.8 11.81C20.17 11.59 21.46 12.52 21.69 13.89C21.91 15.26 20.98 16.55 19.61 16.78ZM25.12 16.52C25.12 11.3 21.03 7.07 15.91 7.07C10.79 7.07 6.7 11.3 6.7 16.52H3.54C3.54 9.56 9.08 3.91 15.91 3.91C22.74 3.91 28.28 9.56 28.28 16.52H25.12Z" fill="#213147"/>
</svg>
