<svg width="32" height="32" viewBox="0 0 32 32" fill="none" xmlns="http://www.w3.org/2000/svg">
  <path d="M16 32C24.8366 32 32 24.8366 32 16C32 7.16344 24.8366 0 16 0C7.16344 0 0 7.16344 0 16C0 24.8366 7.16344 32 16 32Z" fill="white"/>
  <path fill-rule="evenodd" clip-rule="evenodd" d="M23.66 14.49L23.58 14.59C23.58 14.59 23.63 14.52 23.66 14.49Z" fill="#8CB744"/>
  <path fill-rule="evenodd" clip-rule="evenodd" d="M23.66 14.49L23.58 14.59C23.58 14.59 23.63 14.52 23.66 14.49Z" fill="white"/>
  <path fill-rule="evenodd" clip-rule="evenodd" d="M27.95 7.70999C27.7 8.10999 24.33 13.42 24 13.92L23.78 14.27L23.64 14.49C23.28 13.12 22.14 12.08 20.74 11.86C20.8 11.76 22.78 8.63002 23.28 7.83002C23.34 7.74002 23.39 7.67001 23.51 7.67001C24.97 7.67001 26.42 7.67001 27.87 7.67001C27.88 7.67001 27.9 7.68001 27.94 7.70001" fill="#8CB744"/>
  <path fill-rule="evenodd" clip-rule="evenodd" d="M28.79 23.09C28.06 23.95 27.24 24.56 26.2 24.81C24.77 25.15 23.4 24.99 22.18 24.11C21.29 23.47 20.75 22.57 20.36 21.57C20.35 21.53 20.33 21.5 20.32 21.46V21.44C20.15 21.02 20 20.59 19.86 20.16C19.72 19.74 19.6 19.32 19.49 18.89C20.73 19.14 22.02 18.71 22.86 17.76C23.1 18.35 23.35 19.28 23.59 20.01C23.65 20.19 23.71 20.37 23.78 20.55C24.04 21.21 24.32 21.85 24.85 22.34C24.88 22.37 24.92 22.4 24.96 22.43C25.65 23 26.47 23.15 27.33 23.18C27.8 23.2 28.26 23.13 28.79 23.09Z" fill="#D24139"/>
  <path fill-rule="evenodd" clip-rule="evenodd" d="M17.17 17.29C16.32 18.47 15.41 19.6 14.33 20.6C13.42 21.44 12.45 22.19 11.28 22.65C10.84 22.83 10.37 22.92 9.89001 22.92C8.53001 22.92 7.55999 22.07 7.26999 20.65C7.00999 19.39 7.14 18.14 7.5 16.93C8.16 14.68 9.31 12.68 10.84 10.91C11.53 10.11 12.33 9.42001 13.36 9.09001C14.09 8.86001 14.83 8.79001 15.55 9.16001C16.1 9.44001 16.49 9.9 16.79 10.43C17.23 11.18 17.5 11.98 17.73 12.81C18.53 12.05 19.64 11.71 20.73 11.88L20.95 11.54C20.79 11.16 20.65 10.82 20.49 10.49C20 9.46003 19.34 8.56002 18.39 7.92002C17.26 7.16002 16 6.91003 14.65 7.02003C12.93 7.16003 11.32 7.66002 9.85001 8.57002C7.52001 10.01 5.68999 11.94 4.39999 14.37C3.57999 15.92 3.10001 17.58 3.23001 19.35C3.40001 21.65 4.56002 23.29 6.61002 24.29C8.21002 25.07 9.91002 25.14 11.64 24.93C13.06 24.75 14.43 24.29 15.67 23.56C17.18 22.68 18.49 21.54 19.71 20.3C19.75 20.26 19.78 20.19 19.84 20.16C19.7 19.74 19.58 19.32 19.47 18.89C18.51 18.7 17.67 18.12 17.15 17.29" fill="#6BB9E6"/>
  <path fill-rule="evenodd" clip-rule="evenodd" d="M21.99 15.39C21.99 16.39 21.18 17.2 20.18 17.2C19.18 17.2 18.37 16.39 18.37 15.39C18.37 14.39 19.18 13.58 20.18 13.58C21.18 13.58 21.99 14.39 21.99 15.39Z" fill="#F7D548"/>
</svg>
