<svg width="32" height="32" viewBox="0 0 32 32" fill="none" xmlns="http://www.w3.org/2000/svg">
  <path fill-rule="evenodd" clip-rule="evenodd" d="M16 0C7.16 0 0 7.16 0 16C0 24.84 7.16 32 16 32C24.84 32 32 24.84 32 16C32 7.16 24.84 0 16 0ZM26.2 24.8C24.77 25.14 23.4 24.98 22.18 24.1C21.29 23.46 20.75 22.56 20.36 21.56C20.35 21.52 20.33 21.49 20.32 21.45V21.43C20.15 21.01 20 20.58 19.86 20.15C19.8 20.18 19.77 20.24 19.73 20.29C18.51 21.53 17.2 22.67 15.69 23.55C14.45 24.27 13.08 24.74 11.66 24.92C9.93 25.13 8.23001 25.06 6.63 24.28C4.57 23.28 3.42 21.64 3.25 19.34C3.12 17.56 3.59001 15.91 4.42001 14.36C5.71001 11.94 7.54 10 9.87 8.56003C11.34 7.65003 12.95 7.15001 14.67 7.01001C16.02 6.90001 17.28 7.14 18.41 7.91C19.37 8.55 20.03 9.45001 20.51 10.48C20.67 10.81 20.8 11.15 20.97 11.53C21.51 10.68 22.89 8.49003 23.3 7.84003C23.36 7.75003 23.41 7.68002 23.53 7.68002C24.99 7.68002 26.44 7.68002 27.89 7.68002C27.9 7.68002 27.92 7.69002 27.96 7.71002C27.71 8.11002 24.34 13.42 24.01 13.92L23.79 14.27L23.65 14.49C23.29 13.11 22.15 12.08 20.75 11.86C20.75 11.86 20.78 11.81 20.81 11.76L20.75 11.86C19.66 11.69 18.55 12.03 17.75 12.79C17.51 11.97 17.24 11.16 16.81 10.41C16.5 9.89 16.12 9.43001 15.57 9.14001C14.85 8.77001 14.11 8.84001 13.38 9.07001C12.34 9.40001 11.55 10.09 10.86 10.89C9.33002 12.66 8.17999 14.65 7.51999 16.91C7.16999 18.13 7.04001 19.37 7.29001 20.63C7.58001 22.05 8.55 22.9 9.91 22.9C10.39 22.9 10.86 22.81 11.3 22.63C12.47 22.18 13.44 21.42 14.35 20.58C15.43 19.58 16.35 18.46 17.19 17.27C17.71 18.1 18.55 18.67 19.51 18.87C20.75 19.12 22.03 18.69 22.88 17.74C23.12 18.33 23.37 19.26 23.61 19.99C23.67 20.17 23.73 20.35 23.8 20.53C24.06 21.19 24.34 21.83 24.87 22.32C24.9 22.35 24.94 22.38 24.98 22.41C25.67 22.98 26.49 23.13 27.35 23.16C27.82 23.18 28.28 23.11 28.81 23.07C28.08 23.93 27.26 24.54 26.22 24.79L26.2 24.8ZM23.66 14.49C23.66 14.49 23.61 14.56 23.58 14.59L23.66 14.49ZM21.99 15.38C21.99 16.38 21.18 17.19 20.18 17.19C19.18 17.19 18.37 16.38 18.37 15.38C18.37 14.38 19.18 13.57 20.18 13.57C21.18 13.57 21.99 14.38 21.99 15.38Z" fill="#213147"/>
</svg>
