<svg width="32" height="32" viewBox="0 0 32 32" fill="none" xmlns="http://www.w3.org/2000/svg">
  <path d="M16 32C24.8366 32 32 24.8366 32 16C32 7.16344 24.8366 0 16 0C7.16344 0 0 7.16344 0 16C0 24.8366 7.16344 32 16 32Z" fill="white"/>
  <path d="M5.03999 25.47H8.20999C8.34999 25.47 8.47 25.39 8.53 25.27L17.91 6.60998C17.96 6.50998 17.96 6.37999 17.91 6.27999L16.18 3.02999C16.07 2.81999 15.77 2.82999 15.67 3.02999L4.72 24.94C4.6 25.18 4.76999 25.46 5.03999 25.46V25.47Z" fill="url(#paint0_linear_1208_2999)"/>
  <path d="M18.97 25.51H12.97C12.7 25.51 12.53 25.22 12.65 24.98L15.74 19.07C15.88 18.81 16.25 18.81 16.38 19.07L19.29 24.98C19.41 25.22 19.23 25.5 18.97 25.5V25.51Z" fill="url(#paint1_linear_1208_2999)"/>
  <path d="M26.95 25.51H23.7C23.56 25.51 23.44 25.43 23.38 25.31L18.04 14.67C17.99 14.57 17.99 14.45 18.04 14.35L19.65 11.0799C19.78 10.8099 20.16 10.8099 20.29 11.0799L27.26 25C27.38 25.24 27.21 25.5199 26.94 25.5199L26.95 25.51Z" fill="url(#paint2_linear_1208_2999)"/>
  <defs>
    <linearGradient id="paint0_linear_1208_2999" x1="6.42" y1="26.03" x2="17.24" y2="3.39" gradientUnits="userSpaceOnUse">
      <stop stop-color="#4E9FEB"/>
      <stop offset="1" stop-color="#6BC8F3"/>
    </linearGradient>
    <linearGradient id="paint1_linear_1208_2999" x1="15.97" y1="18.88" x2="15.97" y2="25.51" gradientUnits="userSpaceOnUse">
      <stop stop-color="#55AAED"/>
      <stop offset="1" stop-color="#4D9FEB"/>
    </linearGradient>
    <linearGradient id="paint2_linear_1208_2999" x1="19.41" y1="11.0399" x2="24.68" y2="25.2999" gradientUnits="userSpaceOnUse">
      <stop stop-color="#60B9F1"/>
      <stop offset="1" stop-color="#4D9EEA"/>
    </linearGradient>
  </defs>
</svg>
