<svg width="32" height="32" viewBox="0 0 32 32" fill="none" xmlns="http://www.w3.org/2000/svg">
  <path d="M16 0C7.16 0 0 7.16 0 16C0 24.84 7.16 32 16 32C24.84 32 32 24.84 32 16C32 7.16 24.84 0 16 0ZM8.89999 24.49H6C5.76 24.49 5.59999 24.23 5.70999 24.02L15.71 4.01001C15.81 3.82001 16.08 3.82001 16.18 4.01001L17.76 6.98001C17.81 7.07001 17.81 7.19 17.76 7.28L9.18999 24.32C9.12999 24.43 9.01999 24.5 8.89999 24.5V24.49ZM18.71 24.53H13.24C12.99 24.53 12.84 24.27 12.95 24.05L15.77 18.66C15.89 18.42 16.24 18.43 16.35 18.66L19.01 24.05C19.12 24.27 18.96 24.52 18.72 24.52L18.71 24.53ZM26 24.53H23.04C22.92 24.53 22.8 24.46 22.75 24.35L17.88 14.63C17.83 14.54 17.83 14.43 17.88 14.34L19.35 11.35C19.47 11.11 19.82 11.11 19.94 11.35L26.31 24.06C26.42 24.28 26.26 24.53 26.02 24.53H26Z" fill="#213147"/>
</svg>
