<svg width="32" height="32" viewBox="0 0 32 32" fill="none" xmlns="http://www.w3.org/2000/svg">
<g clip-path="url(#clip0_2016_16)">
<path d="M16 32C24.8366 32 32 24.8366 32 16C32 7.16344 24.8366 0 16 0C7.16344 0 0 7.16344 0 16C0 24.8366 7.16344 32 16 32Z" fill="#989259"/>
<path d="M15.56 5.23V12.49C15.56 12.79 15.2 12.94 14.99 12.73L11.59 9.38L13.02 5.65C13.12 5.39 13.37 5.22 13.65 5.22H15.57L15.56 5.23Z" fill="white"/>
<path d="M15.56 19.2C15.56 19.47 15.24 19.61 15.04 19.42L9.76 14.42L11.31 10.38L15.16 14.16C15.41 14.41 15.56 14.75 15.56 15.11V19.2Z" fill="white"/>
<path d="M15.56 21.7V23.53H7.38C6.91 23.53 6.58 23.06 6.75 22.61L9.5 15.44L15.19 20.83C15.43 21.06 15.56 21.37 15.56 21.7Z" fill="white"/>
<path d="M16.44 5.23V12.49C16.44 12.79 16.8 12.94 17.01 12.73L20.41 9.38L18.98 5.65C18.88 5.39 18.63 5.22 18.35 5.22H16.43L16.44 5.23Z" fill="white"/>
<path d="M16.44 19.2C16.44 19.47 16.76 19.61 16.96 19.42L22.24 14.42L20.69 10.38L16.84 14.16C16.59 14.41 16.44 14.75 16.44 15.11V19.2Z" fill="white"/>
<path d="M16.44 21.7V23.53H24.62C25.09 23.53 25.42 23.06 25.25 22.61L22.5 15.44L16.81 20.83C16.57 21.06 16.44 21.37 16.44 21.7Z" fill="white"/>
</g>
<defs>
<clipPath id="clip0_2016_16">
<rect width="32" height="32" fill="white"/>
</clipPath>
</defs>
</svg>
