<svg width="32" height="32" viewBox="0 0 32 32" fill="none" xmlns="http://www.w3.org/2000/svg">
<g clip-path="url(#clip0_2016_14)">
<path d="M16 0C7.16 0 0 7.16 0 16C0 24.84 7.16 32 16 32C24.84 32 32 24.84 32 16C32 7.16 24.84 0 16 0ZM13.01 5.66C13.11 5.4 13.36 5.23 13.64 5.23H15.56V12.49C15.56 12.79 15.2 12.94 14.99 12.73L11.59 9.39L13.02 5.66H13.01ZM15.56 23.53H7.38C6.91 23.53 6.58 23.06 6.75 22.61L9.5 15.44L15.19 20.83C15.43 21.06 15.56 21.37 15.56 21.7V23.53ZM15.56 15.12V19.2C15.56 19.47 15.24 19.61 15.04 19.42L9.76 14.42L11.31 10.38L15.16 14.16C15.41 14.41 15.56 14.75 15.56 15.11V15.12ZM16.44 5.23H18.36C18.64 5.23 18.89 5.4 18.99 5.66L20.42 9.39L17.02 12.73C16.81 12.94 16.45 12.79 16.45 12.49V5.23H16.44ZM16.44 15.12C16.44 14.76 16.58 14.42 16.84 14.17L20.69 10.39L22.24 14.43L16.96 19.43C16.76 19.62 16.44 19.48 16.44 19.21V15.13V15.12ZM24.62 23.53H16.44V21.7C16.44 21.37 16.57 21.06 16.81 20.83L22.5 15.44L25.25 22.61C25.42 23.05 25.09 23.53 24.62 23.53Z" fill="#213147"/>
</g>
<defs>
<clipPath id="clip0_2016_14">
<rect width="32" height="32" fill="white"/>
</clipPath>
</defs>
</svg>
