<svg width="32" height="32" viewBox="0 0 32 32" fill="none" xmlns="http://www.w3.org/2000/svg">
<path d="M29.82 7.92C28.39 5.51 26.47 3.59 24.07 2.17C21.58 0.720002 18.89 0 16.01 0C13.13 0 10.42 0.730002 7.91998 2.17C5.50998 3.6 3.58998 5.52 2.16998 7.92C0.719983 10.41 0 13.11 0 15.99C0 18.87 0.729983 21.57 2.16998 24.06C3.59998 26.47 5.51998 28.39 7.91998 29.81C10.41 31.26 13.11 31.98 15.99 31.98C18.87 31.98 21.57 31.25 24.06 29.81C26.47 28.38 28.39 26.46 29.81 24.06C31.26 21.57 31.98 18.87 31.98 15.99C31.98 13.11 31.25 10.41 29.81 7.92H29.82ZM15.37 5.07V12.07L11.73 18.46L5.65997 21.94L15.38 5.06L15.37 5.07ZM6.22998 22.97L12.27 19.45H19.72L25.76 22.97H6.22998ZM20.23 18.47L16.49 12.08V5.08L26.27 21.96L20.23 18.48V18.47Z" fill="#213147"/>
</svg>
