<svg width="32" height="32" viewBox="0 0 32 32" fill="none" xmlns="http://www.w3.org/2000/svg">
  <g clip-path="url(#clip0_292_152)">
    <path fill-rule="evenodd" clip-rule="evenodd" d="M16 0C24.84 0 32 7.16 32 16C32 24.84 24.84 32 16 32C7.16 32 0 24.84 0 16C0 7.16 7.16 0 16 0Z" fill="#F0B90B"/>
    <path d="M8.79001 16L8.81 20.23L12.4 22.35V24.82L6.70001 21.48V14.76L8.79001 16Z" fill="white"/>
    <path d="M8.79001 11.77V14.23L6.70001 13V10.53L8.79001 9.29L10.9 10.53L8.79001 11.77Z" fill="white"/>
    <path d="M13.9 10.53L16 9.29L18.1 10.53L16 11.77L13.9 10.53Z" fill="white"/>
    <path d="M10.31 19.35V16.88L12.4 18.12V20.58L10.31 19.35Z" fill="white"/>
    <path d="M13.9 23.23L16 24.47L18.1 23.23V25.7L16 26.94L13.9 25.7V23.23Z" fill="white"/>
    <path d="M21.1 10.53L23.2 9.29L25.3 10.53V13L23.2 14.23V11.77L21.1 10.53Z" fill="white"/>
    <path d="M23.2 20.23L23.21 16L25.3 14.76V21.48L19.6 24.82V22.34L23.2 20.23Z" fill="white"/>
    <path d="M21.69 19.35L19.6 20.58V18.11L21.69 16.87V19.35Z" fill="white"/>
    <path d="M21.69 12.65L21.71 15.12L18.1 17.24V21.48L16.01 22.71L13.91 21.48V17.24L10.31 15.12V12.65L12.41 11.41L15.99 13.53L19.6 11.41L21.7 12.65H21.69Z" fill="white"/>
    <path d="M10.31 8.42L16 5.06L21.69 8.42L19.6 9.66L16 7.53L12.4 9.66L10.31 8.42Z" fill="white"/>
  </g>
  <defs>
    <clipPath id="clip0_292_152">
      <rect width="32" height="32" fill="white"/>
    </clipPath>
  </defs>
</svg>
