<svg width="32" height="32" viewBox="0 0 32 32" fill="none" xmlns="http://www.w3.org/2000/svg">
  <path d="M16 0C7.16 0 0 7.16 0 16C0 24.84 7.16 32 16 32C24.84 32 32 24.84 32 16C32 7.16 24.84 0 16 0ZM24.89 11.72V12.7C24.89 12.8 24.86 12.89 24.82 12.97C24.77 13.05 24.7 13.12 24.62 13.17L21.36 15L24.27 16.63C24.46 16.74 24.62 16.89 24.73 17.08C24.84 17.26 24.9 17.47 24.9 17.69V20.31C24.9 20.52 24.84 20.73 24.73 20.92C24.62 21.11 24.46 21.26 24.27 21.37L16.62 25.64C16.23 25.86 15.76 25.86 15.37 25.64L12.87 24.23C12.79 24.18 12.73 24.09 12.73 24C12.73 23.9 12.78 23.81 12.87 23.77L21.13 19.14C21.19 19.1 21.22 19.02 21.18 18.96C21.17 18.94 21.15 18.92 21.13 18.91L18.06 17.19C17.89 17.09 17.68 17.09 17.5 17.19L9.11 21.89C8.98 21.96 8.82 21.96 8.69 21.89L7.73999 21.36C7.54999 21.25 7.39 21.1 7.28 20.91C7.17 20.73 7.11 20.51 7.11 20.3V19.23C7.11 19.08 7.18999 18.95 7.31999 18.88L19.36 12.15C19.36 12.15 19.43 12.08 19.43 12.03C19.43 11.98 19.4 11.94 19.36 11.91L16.29 10.18C16.12 10.08 15.91 10.08 15.73 10.18L7.53 14.76C7.4 14.83 7.22999 14.79 7.14999 14.66C7.12999 14.62 7.11 14.57 7.11 14.52V11.71C7.11 11.5 7.17 11.29 7.28 11.1C7.39 10.91 7.54999 10.76 7.73999 10.65L15.39 6.38C15.78 6.16 16.25 6.16 16.64 6.38L24.27 10.66C24.46 10.77 24.62 10.92 24.73 11.1C24.84 11.28 24.9 11.49 24.9 11.71L24.89 11.72Z" fill="#213147"/>
</svg>
