<svg width="32" height="32" viewBox="0 0 32 32" fill="none" xmlns="http://www.w3.org/2000/svg">
  <path d="M16.15 28.29C22.86 28.29 28.29 22.85 28.29 16.15C28.29 9.44999 22.85 4.01001 16.15 4.01001C9.45001 4.01001 4.01001 9.44999 4.01001 16.15C4.01001 22.85 9.45001 28.29 16.15 28.29Z" fill="white"/>
  <path fill-rule="evenodd" clip-rule="evenodd" d="M16 0C24.84 0 32 7.16 32 16C32 24.84 24.84 32 16 32C7.16 32 0 24.84 0 16C0 7.16 7.16 0 16 0ZM15.93 3.81C9.19 3.81 3.73 9.27001 3.73 16.01C3.73 22.75 9.19 28.21 15.93 28.21C22.67 28.21 28.13 22.75 28.13 16.01C28.13 9.27001 22.67 3.81 15.93 3.81Z" fill="#213147"/>
  <path fill-rule="evenodd" clip-rule="evenodd" d="M17.84 22.08C18.33 22.95 18.03 24.06 17.15 24.56C16.29 25.05 15.19 24.75 14.69 23.9L14.14 22.96L13.2 23.51C12.34 24.02 11.22 23.73 10.71 22.87C10.2 22.01 10.49 20.89 11.35 20.38C11.35 20.38 11.37 20.37 11.38 20.36L12.32 19.81L10.87 17.29L9.93 17.83C9.07 18.34 7.95 18.05 7.44 17.19C6.93 16.33 7.22 15.21 8.08 14.7C8.08 14.7 8.1 14.69 8.11 14.68L9.05 14.13L8.51 13.19C8 12.33 8.29 11.21 9.15 10.7C10.01 10.19 11.13 10.48 11.64 11.34C11.64 11.34 11.65 11.36 11.66 11.37L12.2 12.31L14.72 10.86L14.18 9.92002C13.68 9.05002 13.98 7.94004 14.85 7.44004C15.72 6.94004 16.83 7.24002 17.33 8.11002L17.88 9.06003L18.83 8.51005C19.71 8.02005 20.82 8.34004 21.3 9.22004C21.77 10.08 21.49 11.15 20.65 11.66L19.71 12.21L21.16 14.73L22.1 14.19C22.98 13.71 24.09 14.03 24.57 14.91C25.04 15.76 24.75 16.83 23.92 17.34L22.98 17.89L23.53 18.84C24.03 19.71 23.73 20.82 22.86 21.32C21.99 21.82 20.88 21.52 20.38 20.65L19.83 19.7L17.31 21.15L17.86 22.09L17.84 22.08ZM15.47 17.99L17.99 16.54L16.54 14.02L14.02 15.47L15.47 17.99Z" fill="#213147"/>
</svg>
