<svg xmlns="http://www.w3.org/2000/svg" fill="none" viewBox="0 0 40 40"><path fill="url(#a)" fill-rule="evenodd" d="M8.721.714h21.59a8.705 8.705 0 0 1 8.705 8.706v21.589a8.705 8.705 0 0 1-8.705 8.705H8.72A8.705 8.705 0 0 1 .016 31.01V9.419A8.705 8.705 0 0 1 8.721.715Z" clip-rule="evenodd"/><path fill="#fff" d="M19.69 35.188c8.173 0 14.8-6.626 14.8-14.8 0-8.173-6.627-14.799-14.8-14.799-8.173 0-14.799 6.626-14.799 14.8 0 8.173 6.626 14.799 14.8 14.799Z"/><path fill="url(#b)" fill-rule="evenodd" d="M19.516.714c10.77 0 19.5 8.73 19.5 19.5s-8.73 19.5-19.5 19.5-19.5-8.73-19.5-19.5 8.73-19.5 19.5-19.5ZM19.43 5.35c-8.21 0-14.866 6.655-14.866 14.865S11.22 35.08 19.43 35.08s14.865-6.656 14.865-14.866S27.64 5.35 19.43 5.35Z" clip-rule="evenodd"/><path fill="url(#c)" fill-rule="evenodd" d="M21.748 27.625a2.216 2.216 0 0 1-3.838 2.216l-.665-1.151-1.151.665a2.216 2.216 0 1 1-2.216-3.838l1.15-.665-1.772-3.07-1.151.664a2.216 2.216 0 1 1-2.216-3.838l1.151-.665-.664-1.151a2.216 2.216 0 1 1 3.838-2.216l.664 1.151 3.07-1.773-.664-1.15a2.216 2.216 0 1 1 3.838-2.217l.665 1.152 1.152-.665a2.216 2.216 0 0 1 2.215 3.838l-1.151.665 1.773 3.07 1.151-.664a2.216 2.216 0 0 1 2.216 3.837l-1.151.665.665 1.152a2.216 2.216 0 0 1-3.839 2.216l-.665-1.152-3.07 1.773.665 1.151Zm-2.88-4.99 3.07-1.772-1.773-3.07-3.07 1.772 1.772 3.07Z" clip-rule="evenodd"/><defs><linearGradient id="a" x1="20.509" x2="20.509" y1="39.714" y2=".714" gradientUnits="userSpaceOnUse"><stop stop-color="#1E3DA0"/><stop offset="1" stop-color="#3750DE"/></linearGradient><linearGradient id="b" x1="19.516" x2="19.516" y1=".714" y2="39.714" gradientUnits="userSpaceOnUse"><stop stop-color="#1D3BA3" stop-opacity="0"/><stop offset="1" stop-color="#173793" stop-opacity=".653"/></linearGradient><linearGradient id="c" x1="24.391" x2="14.641" y1="28.658" y2="11.771" gradientUnits="userSpaceOnUse"><stop stop-color="#1E3DA0"/><stop offset="1" stop-color="#3750DE"/></linearGradient></defs></svg>