<svg width="32" height="32" viewBox="0 0 32 32" fill="none" xmlns="http://www.w3.org/2000/svg">
  <path d="M19.22 14.21L16.99 16.44C16.72 16.71 16.74 16.92 17.01 17.19L17.81 17.99C18.08 18.26 18.29 18.27 18.56 18.01L20.79 15.78C21.44 15.13 21.57 14.53 21.02 13.98C20.49 13.45 19.87 13.56 19.22 14.21Z" fill="#213147"/>
  <path d="M13.79 11.53L12.94 12.38C12.67 12.65 12.69 12.86 12.96 13.13L13.76 13.93C14.03 14.2 14.24 14.21 14.51 13.95L15.36 13.1C15.79 12.67 15.86 12.07 15.34 11.55C14.84 11.05 14.23 11.1 13.79 11.53Z" fill="#213147"/>
  <path d="M16 0C7.16 0 0 7.16 0 16C0 24.84 7.16 32 16 32C24.84 32 32 24.84 32 16C32 7.16 24.84 0 16 0ZM16.5 26.05C16.12 26.44 15.5 26.45 15.11 26.07L8.18 19.14C7.8 18.76 7.8 18.14 8.18 17.75C8.56 17.36 9.18 17.37 9.57 17.75L16.5 24.68C16.87 25.06 16.87 25.66 16.5 26.04V26.05ZM23.84 18.73L18.87 23.7C18.6 23.97 18.39 23.95 18.12 23.68L7.25 12.81C6.98 12.54 6.97 12.33 7.23 12.06L10.77 8.52002C13.11 6.18002 15.79 6.36001 17.88 8.45001C18.15 8.72001 18.48 9.18001 18.68 9.48001C18.7 9.51001 18.72 9.54001 18.74 9.57001C18.79 9.64001 18.83 9.7 18.88 9.75C19.01 9.88 19.15 9.92002 19.43 9.83002C21.18 9.35002 22.7 9.88 24.17 11.34C26.21 13.38 26.43 16.13 23.84 18.72V18.73Z" fill="#213147"/>
</svg>
