<svg width="32" height="32" viewBox="0 0 32 32" fill="none" xmlns="http://www.w3.org/2000/svg">
  <path d="M16 32C24.8366 32 32 24.8366 32 16C32 7.16344 24.8366 0 16 0C7.16344 0 0 7.16344 0 16C0 24.8366 7.16344 32 16 32Z" fill="#E93F5E"/>
  <path fill-rule="evenodd" clip-rule="evenodd" d="M10.78 8.51002L7.24 12.05C6.97 12.32 6.98999 12.53 7.25999 12.8L18.13 23.67C18.4 23.94 18.61 23.95 18.88 23.69L23.85 18.72C26.44 16.13 26.23 13.38 24.18 11.34C22.72 9.88 21.19 9.34999 19.44 9.82999C19.16 9.90999 19.02 9.88001 18.89 9.75001C18.84 9.70001 18.8 9.64001 18.75 9.57001C18.73 9.54001 18.71 9.51002 18.69 9.48002C18.49 9.18002 18.16 8.72002 17.89 8.45002C15.8 6.36002 13.12 6.16999 10.78 8.51999V8.51002ZM15.35 13.08L14.5 13.93C14.23 14.2 14.02 14.18 13.75 13.91L12.95 13.11C12.68 12.84 12.67 12.63 12.93 12.36L13.78 11.51C14.21 11.08 14.83 11.03 15.33 11.53C15.85 12.05 15.78 12.64 15.35 13.08ZM20.79 15.76L18.56 17.99C18.29 18.26 18.08 18.24 17.81 17.97L17.01 17.17C16.74 16.9 16.73 16.69 16.99 16.42L19.22 14.19C19.87 13.54 20.48 13.43 21.02 13.96C21.57 14.51 21.44 15.11 20.79 15.76ZM8.18999 17.75C7.80999 18.13 7.80999 18.75 8.18999 19.14L15.12 26.07C15.51 26.45 16.13 26.44 16.51 26.05C16.88 25.67 16.88 25.07 16.51 24.69L9.58 17.76C9.2 17.38 8.58 17.38 8.18999 17.76V17.75Z" fill="white"/>
</svg>
