<svg width="32" height="32" viewBox="0 0 32 32" fill="none" xmlns="http://www.w3.org/2000/svg">
<path fill-rule="evenodd" clip-rule="evenodd" d="M16 0C7.16 0 0 7.16 0 16C0 24.84 7.16 32 16 32C24.84 32 32 24.84 32 16C32 7.16 24.84 0 16 0ZM25.3 10.53V13L23.2 14.24V11.77L21.11 10.53L23.2 9.29L25.3 10.53ZM15.99 5.06L21.69 8.41L19.6 9.65L15.99 7.52L12.4 9.65L10.31 8.41L16 5.06H15.99ZM18.1 10.53L16 11.77L13.91 10.53L16 9.29L18.1 10.53ZM6.70001 10.53L8.79001 9.29L10.89 10.53L8.79001 11.77V14.24L6.70001 13V10.53ZM12.4 24.82L6.70001 21.48V14.76L8.79001 16V20.23L12.4 22.35V24.83V24.82ZM12.4 20.58L10.31 19.35V16.87L12.4 18.11V20.58ZM18.1 25.7L16 26.94L13.91 25.7V23.23L16 24.47L18.1 23.23V25.7ZM18.1 21.48L16.01 22.71L13.92 21.48V17.24L10.31 15.12V12.64L12.41 11.4L15.99 13.53L19.6 11.4L21.7 12.64V15.12L18.11 17.24V21.48H18.1ZM19.6 18.11L21.69 16.87V19.35L19.6 20.58V18.11ZM25.3 21.48L19.6 24.82V22.34L23.19 20.23V16L25.3 14.76V21.48Z" fill="#213147"/>
</svg>
