<svg width="32" height="32" viewBox="0 0 32 32" fill="none" xmlns="http://www.w3.org/2000/svg">
<g clip-path="url(#clip0_2632_3)">
<path d="M16 0C7.16 0 0 7.16 0 16C0 24.84 7.16 32 16 32C24.84 32 32 24.84 32 16C32 7.16 24.84 0 16 0ZM9.99 5.8C9.99 5.63 10.13 5.5 10.29 5.5H15.17C15.34 5.5 15.47 5.64 15.47 5.8V10.68C15.47 10.85 15.33 10.98 15.17 10.98H10.29C10.12 10.98 9.99 10.84 9.99 10.68V5.8ZM9.99 12.66C9.99 12.49 10.13 12.36 10.29 12.36H15.17C15.34 12.36 15.47 12.5 15.47 12.66V17.54C15.47 17.71 15.33 17.84 15.17 17.84H10.29C10.12 17.84 9.99 17.7 9.99 17.54V12.66ZM15.48 24.4C15.48 24.57 15.34 24.7 15.18 24.7H10.3C10.13 24.7 10 24.56 10 24.4V19.52C10 19.35 10.14 19.22 10.3 19.22H15.18C15.35 19.22 15.48 19.36 15.48 19.52V24.4ZM22.33 24.4C22.33 24.57 22.19 24.7 22.03 24.7H17.15C16.98 24.7 16.85 24.56 16.85 24.4V19.52C16.85 19.35 16.99 19.22 17.15 19.22H22.03C22.2 19.22 22.33 19.36 22.33 19.52V24.4ZM22.33 17.54C22.33 17.71 22.19 17.84 22.03 17.84H17.15C16.98 17.84 16.85 17.7 16.85 17.54V12.66C16.85 12.49 16.99 12.36 17.15 12.36H22.03C22.2 12.36 22.33 12.5 22.33 12.66V17.54Z" fill="#213147"/>
</g>
<defs>
<clipPath id="clip0_2632_3">
<rect width="32" height="32" fill="white"/>
</clipPath>
</defs>
</svg>
