<svg width="32" height="32" viewBox="0 0 32 32" fill="none" xmlns="http://www.w3.org/2000/svg">
<g clip-path="url(#clip0_2632_5)">
<path d="M16 32C24.84 32 32 24.84 32 16C32 7.16 24.84 0 16 0C7.16 0 0 7.16 0 16C0 24.84 7.16 32 16 32Z" fill="#E1672A"/>
<path d="M16 32C24.84 32 32 24.84 32 16C32 7.16 24.84 0 16 0C7.16 0 0 7.16 0 16C0 24.84 7.16 32 16 32Z" fill="#E1672A"/>
<path d="M15.17 5.5H10.29C10.12 5.5 9.98999 5.64 9.98999 5.8V10.68C9.98999 10.85 10.13 10.98 10.29 10.98H15.17C15.34 10.98 15.47 10.84 15.47 10.68V5.8C15.47 5.63 15.33 5.5 15.17 5.5Z" fill="white"/>
<path d="M9.98999 19.5202V24.4002C9.98999 24.5702 10.13 24.7002 10.29 24.7002H15.17C15.34 24.7002 15.47 24.5602 15.47 24.4002V19.5202C15.47 19.3502 15.33 19.2202 15.17 19.2202H10.29C10.12 19.2202 9.98999 19.3602 9.98999 19.5202Z" fill="white"/>
<path d="M9.98999 12.6701V17.5501C9.98999 17.7201 10.13 17.8501 10.29 17.8501H15.17C15.34 17.8501 15.47 17.7101 15.47 17.5501V12.6701C15.47 12.5001 15.33 12.3701 15.17 12.3701H10.29C10.12 12.3701 9.98999 12.5101 9.98999 12.6701Z" fill="white"/>
<path d="M16.85 19.5202V24.4002C16.85 24.5702 16.99 24.7002 17.15 24.7002H22.03C22.2 24.7002 22.33 24.5602 22.33 24.4002V19.5202C22.33 19.3502 22.19 19.2202 22.03 19.2202H17.15C16.98 19.2202 16.85 19.3602 16.85 19.5202Z" fill="white"/>
<path d="M16.85 12.6599V17.5399C16.85 17.7099 16.99 17.8399 17.15 17.8399H22.03C22.2 17.8399 22.33 17.6999 22.33 17.5399V12.6599C22.33 12.4899 22.19 12.3599 22.03 12.3599H17.15C16.98 12.3599 16.85 12.4999 16.85 12.6599Z" fill="white"/>
</g>
<defs>
<clipPath id="clip0_2632_5">
<rect width="32" height="32" fill="white"/>
</clipPath>
</defs>
</svg>
