<svg width="32" height="32" viewBox="0 0 32 32" fill="none" xmlns="http://www.w3.org/2000/svg">
<g clip-path="url(#clip0_292_80)">
<path d="M16 32.0025C24.8365 32.0025 32 24.8391 32 16.0025C32 7.16594 24.8365 0.00250003 16 0.00250003C7.16343 0.00250003 0 7.16594 0 16.0025C0 24.8391 7.16343 32.0025 16 32.0025Z" fill="white"/>
<path d="M15.98 32.0025V8.9325C14.04 8.9325 12.48 8.4025 12.48 7.7525C12.48 7.2725 13.35 6.8525 14.59 6.6725C15.06 6.7625 15.54 6.8125 16.02 6.8125C16.49 6.8125 16.96 6.7725 17.42 6.6825H17.45C18.69 6.8625 19.56 7.2725 19.56 7.7625C19.56 8.4025 18.02 8.9325 16.11 8.9425V32.0125H15.99L15.98 32.0025ZM13.19 5.6325C13.19 5.2125 14 4.8625 15.12 4.7325C15.42 4.7825 15.72 4.8025 16.02 4.8025C16.31 4.8025 16.6 4.7825 16.89 4.7325H16.92C18.04 4.8525 18.85 5.2025 18.85 5.6225C18.85 6.1425 17.58 6.5725 16.02 6.5725C14.46 6.5725 13.19 6.1525 13.19 5.6225V5.6325ZM13.89 3.9025C13.89 3.5125 14.84 3.1925 16.01 3.1925C17.18 3.1925 18.13 3.5125 18.13 3.9025C18.13 4.2925 17.18 4.6125 16.01 4.6125C14.84 4.6125 13.89 4.2925 13.89 3.9025ZM15.98 3.1225V0.00250003H16.1V3.1225H15.98Z" fill="black"/>
<path d="M16 32.0025C14.92 32.0025 13.84 31.8925 12.78 31.6725C10.73 31.2525 8.79002 30.4325 7.06002 29.2625C4.49002 27.5225 2.47 25.0825 1.26 22.2225C0.85 21.2525 0.540007 20.2525 0.330007 19.2225C-0.0999927 17.0925 -0.0999927 14.9025 0.330007 12.7725C0.750007 10.7225 1.57001 8.7825 2.74001 7.0525C4.48001 4.4825 6.91999 2.4625 9.77999 1.2525C10.75 0.8425 11.75 0.5325 12.78 0.3225C14.91 -0.1075 17.1 -0.1075 19.23 0.3225C21.28 0.7425 23.22 1.5625 24.95 2.7325C27.52 4.4725 29.54 6.9125 30.75 9.7725C31.16 10.7425 31.47 11.7425 31.68 12.7725C32.11 14.9025 32.11 17.0925 31.68 19.2225C31.26 21.2725 30.44 23.2125 29.27 24.9425C27.53 27.5125 25.09 29.5325 22.23 30.7425C21.26 31.1525 20.26 31.4625 19.23 31.6725C18.17 31.8925 17.09 32.0025 16.01 32.0025H16ZM16 1.2525C15 1.2525 14.01 1.3525 13.03 1.5525C11.14 1.9425 9.35 2.6925 7.76 3.7725C5.39 5.3725 3.53 7.6325 2.42 10.2625C2.04 11.1525 1.75 12.0825 1.56 13.0325C1.16 14.9925 1.16 17.0125 1.56 18.9825C1.95 20.8725 2.7 22.6625 3.78 24.2525C5.38 26.6225 7.64001 28.4825 10.27 29.5925C11.16 29.9725 12.09 30.2625 13.04 30.4525C15 30.8525 17.02 30.8525 18.99 30.4525C20.88 30.0625 22.67 29.3125 24.26 28.2325C26.63 26.6325 28.49 24.3725 29.6 21.7425C29.98 20.8525 30.27 19.9225 30.46 18.9725C30.86 17.0125 30.86 14.9925 30.46 13.0225C30.07 11.1325 29.32 9.3425 28.24 7.7525C26.64 5.3825 24.38 3.5225 21.75 2.4125C20.86 2.0325 19.93 1.7425 18.98 1.5525C18 1.3525 17.01 1.2525 16.01 1.2525H16Z" fill="url(#paint0_linear_292_80)"/>
<path d="M23.15 23.3725L26.21 19.0625L23.15 20.8925V23.3725ZM26.09 18.2625L23.15 13.3725V16.9325L26.09 18.2625Z" fill="#3B3735"/>
<path d="M23.15 17.2125V20.2425L26.07 18.5525L23.15 17.2225V17.2125Z" fill="#1F1D19"/>
<path d="M19.92 18.2625L22.86 13.3725V16.9325L19.92 18.2625Z" fill="#959190"/>
<path d="M22.87 17.2125V20.2425L19.95 18.5525L22.87 17.2225V17.2125Z" fill="#403C3A"/>
<path d="M22.87 23.3725L19.81 19.0625L22.87 20.8925V23.3725Z" fill="#959190"/>
<path d="M8.61 23.3725C11.3714 23.3725 13.61 21.1339 13.61 18.3725C13.61 15.6111 11.3714 13.3725 8.61 13.3725C5.84858 13.3725 3.61 15.6111 3.61 18.3725C3.61 21.1339 5.84858 23.3725 8.61 23.3725Z" fill="url(#paint1_linear_292_80)"/>
<path d="M10.8 20.3725L9.11 16.2825C9.01 16.0725 8.86999 15.9725 8.68999 15.9725H8.53999C8.34999 15.9725 8.21001 16.0725 8.12001 16.2825L7.37999 18.0625H6.81999C6.64999 18.0625 6.52 18.2025 6.52 18.3625C6.52 18.5325 6.65999 18.6725 6.81999 18.6725H7.12001L6.42 20.3725C6.42 20.3725 6.40001 20.4525 6.40001 20.4925C6.40001 20.5725 6.43 20.6625 6.48 20.7225C6.54 20.7825 6.62 20.8125 6.7 20.8125C6.76 20.8125 6.82001 20.7925 6.87001 20.7525C6.92001 20.7125 6.96001 20.6625 6.99001 20.6025L7.75999 18.6825H8.3C8.47 18.6825 8.59999 18.5425 8.59999 18.3825C8.59999 18.2125 8.46 18.0725 8.3 18.0725H8.00999L8.59999 16.6025L10.21 20.6025C10.24 20.6625 10.28 20.7125 10.33 20.7525C10.38 20.7925 10.44 20.8125 10.5 20.8125C10.58 20.8125 10.67 20.7825 10.72 20.7225C10.78 20.6625 10.81 20.5825 10.8 20.4925C10.8 20.4525 10.8 20.4125 10.78 20.3725H10.8Z" fill="white"/>
</g>
<defs>
<linearGradient id="paint0_linear_292_80" x1="24.5283" y1="1.14286" x2="9.52287" y2="31.1513" gradientUnits="userSpaceOnUse">
<stop stop-color="#B6509E"/>
<stop offset="1" stop-color="#2EBAC6"/>
</linearGradient>
<linearGradient id="paint1_linear_292_80" x1="28.7463" y1="6.48253" x2="3.73821" y2="26.4827" gradientUnits="userSpaceOnUse">
<stop stop-color="#B6509E"/>
<stop offset="1" stop-color="#2EBAC6"/>
</linearGradient>
<clipPath id="clip0_292_80">
<rect width="32" height="32" fill="white"/>
</clipPath>
</defs>
</svg>
