<svg width="32" height="32" viewBox="0 0 32 32" fill="none" xmlns="http://www.w3.org/2000/svg">
  <path d="M16 32C24.8366 32 32 24.8366 32 16C32 7.16346 24.8366 0 16 0C7.16344 0 0 7.16346 0 16C0 24.8366 7.16344 32 16 32Z" fill="white"/>
  <path fill-rule="evenodd" clip-rule="evenodd" d="M26.21 9.94L26.81 8.46001C26.81 8.46001 26.04 7.64001 25.11 6.70001C24.18 5.77001 22.21 6.32001 22.21 6.32001L19.96 3.77H12.0699L9.81995 6.32001C9.81995 6.32001 7.84998 5.77001 6.91998 6.70001C5.98998 7.63001 5.21997 8.46001 5.21997 8.46001L5.81995 9.94L5.04999 12.13C5.04999 12.13 7.30995 20.68 7.56995 21.73C8.08995 23.79 8.44999 24.58 9.92999 25.62C11.41 26.66 14.09 28.47 14.53 28.75C14.97 29.02 15.5199 29.49 16.0099 29.49C16.4999 29.49 17.05 29.02 17.49 28.75C17.93 28.48 20.61 26.67 22.09 25.62C23.57 24.58 23.93 23.78 24.45 21.73C24.71 20.69 26.97 12.13 26.97 12.13L26.2 9.94H26.21Z" fill="url(#paint0_linear_1209_3067)"/>
  <path fill-rule="evenodd" clip-rule="evenodd" d="M21.58 7.94C21.58 7.94 24.47 11.44 24.47 12.18C24.47 12.92 24.11 13.12 23.74 13.51L21.5699 15.81C21.3599 16.03 20.9399 16.36 21.1899 16.95C21.4399 17.54 21.81 18.3 21.4 19.07C20.99 19.84 20.28 20.35 19.83 20.27C19.38 20.19 18.32 19.63 17.93 19.38C17.54 19.13 16.3 18.1 16.3 17.71C16.3 17.32 17.58 16.62 17.81 16.46C18.05 16.3 19.12 15.68 19.15 15.44C19.17 15.2 19.16 15.13 18.85 14.53C18.54 13.93 17.96 13.13 18.05 12.6C18.15 12.07 19.07 11.79 19.73 11.54C20.39 11.29 21.6599 10.82 21.8199 10.75C21.9799 10.68 21.94 10.61 21.46 10.56C20.98 10.51 19.62 10.33 19 10.5C18.39 10.67 17.34 10.93 17.25 11.07C17.17 11.21 17.09 11.21 17.18 11.69C17.27 12.17 17.7199 14.46 17.7599 14.86C17.7999 15.27 17.89 15.54 17.45 15.64C17.01 15.74 16.27 15.91 16.02 15.91C15.77 15.91 15.03 15.74 14.59 15.64C14.15 15.54 14.24 15.27 14.28 14.86C14.32 14.45 14.77 12.16 14.86 11.69C14.95 11.22 14.87 11.21 14.79 11.07C14.71 10.93 13.66 10.67 13.04 10.5C12.43 10.33 11.06 10.5 10.58 10.56C10.1 10.61 10.06 10.68 10.22 10.75C10.38 10.82 11.65 11.29 12.31 11.54C12.97 11.79 13.89 12.07 13.99 12.6C14.09 13.13 13.5099 13.93 13.1899 14.53C12.8699 15.13 12.86 15.2 12.89 15.44C12.91 15.68 13.99 16.3 14.23 16.46C14.47 16.62 15.74 17.32 15.74 17.71C15.74 18.1 14.5 19.12 14.11 19.38C13.72 19.63 12.66 20.19 12.21 20.27C11.76 20.35 11.05 19.84 10.64 19.07C10.23 18.3 10.6 17.55 10.85 16.95C11.1 16.36 10.67 16.02 10.47 15.81L8.29999 13.51C7.92999 13.12 7.56995 12.92 7.56995 12.18C7.56995 11.44 10.46 7.94 10.46 7.94C10.46 7.94 12.9 8.41 13.23 8.41C13.56 8.41 14.27 8.14001 14.93 7.92001C15.59 7.70001 16.03 7.70001 16.03 7.70001C16.03 7.70001 16.4699 7.70001 17.1299 7.92001C17.7899 8.14001 18.5 8.41 18.83 8.41C19.16 8.41 21.6 7.94 21.6 7.94H21.58ZM19.42 21.32C19.6 21.43 19.49 21.64 19.33 21.76C19.17 21.88 16.98 23.57 16.77 23.76C16.56 23.95 16.25 24.26 16.03 24.26C15.81 24.26 15.51 23.95 15.29 23.76C15.08 23.57 12.89 21.88 12.73 21.76C12.57 21.64 12.46 21.43 12.64 21.32C12.82 21.21 13.38 20.93 14.15 20.53C14.92 20.13 15.88 19.79 16.03 19.79C16.18 19.79 17.14 20.13 17.91 20.53C18.68 20.93 19.24 21.21 19.42 21.32Z" fill="white"/>
  <path fill-rule="evenodd" clip-rule="evenodd" d="M22.21 6.32001L19.96 3.77H12.0699L9.81995 6.32001C9.81995 6.32001 7.84998 5.77001 6.91998 6.70001C6.91998 6.70001 9.54995 6.46001 10.45 7.93001C10.45 7.93001 12.89 8.40001 13.22 8.40001C13.55 8.40001 14.26 8.13 14.92 7.91C15.58 7.69 16.02 7.69 16.02 7.69C16.02 7.69 16.46 7.69 17.12 7.91C17.78 8.13 18.4899 8.40001 18.8199 8.40001C19.1499 8.40001 21.59 7.93001 21.59 7.93001C22.49 6.46001 25.12 6.70001 25.12 6.70001C24.19 5.77001 22.22 6.32001 22.22 6.32001" fill="url(#paint1_linear_1209_3067)"/>
  <defs>
    <linearGradient id="paint0_linear_1209_3067" x1="-0.738686" y1="12.2634" x2="31.0277" y2="12.2634" gradientUnits="userSpaceOnUse">
      <stop stop-color="#EB622B"/>
      <stop offset="0.41" stop-color="#EB622B"/>
      <stop offset="0.58" stop-color="#E93D25"/>
      <stop offset="1" stop-color="#E93D25"/>
    </linearGradient>
    <linearGradient id="paint1_linear_1209_3067" x1="6.98428" y1="2.13662" x2="25.0453" y2="2.13662" gradientUnits="userSpaceOnUse">
      <stop stop-color="#EA553A"/>
      <stop offset="1" stop-color="#E93D25"/>
    </linearGradient>
  </defs>
</svg>
