<svg width="32" height="32" viewBox="0 0 32 32" fill="none" xmlns="http://www.w3.org/2000/svg">
  <path fill-rule="evenodd" clip-rule="evenodd" d="M18.64 8.88C18.33 8.88 17.66 8.61998 17.05 8.41998C16.43 8.20998 16.02 8.20999 16.02 8.20999C16.02 8.20999 15.61 8.20998 14.99 8.41998C14.37 8.62998 13.71 8.88 13.4 8.88C13.09 8.88 10.81 8.44 10.81 8.44C10.81 8.44 8.09998 11.72 8.09998 12.42C8.09998 13.12 8.43997 13.31 8.77997 13.67L10.81 15.83C11 16.03 11.4 16.34 11.17 16.9C10.93 17.46 10.59 18.17 10.97 18.89C11.36 19.61 12.0199 20.09 12.4399 20.01C12.8599 19.93 13.86 19.41 14.22 19.17C14.59 18.93 15.75 17.97 15.75 17.61C15.75 17.25 14.55 16.59 14.33 16.44C14.11 16.29 13.1 15.71 13.08 15.49C13.06 15.26 13.07 15.2 13.37 14.64C13.67 14.08 14.2 13.33 14.12 12.83C14.03 12.33 13.16 12.07 12.55 11.84C11.93 11.61 10.74 11.17 10.59 11.1C10.44 11.03 10.48 10.97 10.93 10.92C11.38 10.88 12.66 10.71 13.23 10.87C13.81 11.03 14.79 11.28 14.87 11.41C14.95 11.54 15.0199 11.54 14.9399 11.99C14.8599 12.44 14.44 14.58 14.4 14.96C14.36 15.34 14.2799 15.59 14.6899 15.69C15.0999 15.78 15.79 15.95 16.03 15.95C16.27 15.95 16.96 15.79 17.37 15.69C17.78 15.6 17.7 15.34 17.66 14.96C17.62 14.58 17.2 12.43 17.12 11.99C17.04 11.54 17.1099 11.54 17.1899 11.41C17.2699 11.28 18.25 11.04 18.83 10.87C19.41 10.71 20.6799 10.87 21.1299 10.92C21.5799 10.96 21.62 11.03 21.47 11.1C21.32 11.17 20.1299 11.61 19.5099 11.84C18.8899 12.07 18.0299 12.33 17.9399 12.83C17.8499 13.33 18.3899 14.08 18.6899 14.64C18.9899 15.2 19 15.27 18.98 15.49C18.96 15.72 17.95 16.3 17.73 16.44C17.51 16.59 16.31 17.25 16.31 17.61C16.31 17.97 17.47 18.93 17.84 19.17C18.21 19.41 19.2 19.93 19.62 20.01C20.04 20.09 20.7 19.61 21.09 18.89C21.48 18.17 21.13 17.46 20.89 16.9C20.65 16.34 21.05 16.03 21.25 15.83L23.28 13.67C23.62 13.31 23.96 13.12 23.96 12.42C23.96 11.72 21.25 8.44 21.25 8.44C21.25 8.44 18.97 8.88 18.66 8.88H18.64Z" fill="#213147"/>
  <path fill-rule="evenodd" clip-rule="evenodd" d="M17.79 20.24C17.07 19.87 16.16 19.55 16.02 19.55C15.88 19.55 14.98 19.87 14.25 20.24C13.53 20.61 13 20.88 12.83 20.99C12.66 21.1 12.76 21.29 12.92 21.4C13.07 21.51 15.12 23.1 15.32 23.27C15.5199 23.45 15.81 23.74 16.01 23.74C16.21 23.74 16.5 23.45 16.7 23.27C16.9 23.09 18.95 21.5 19.1 21.4C19.25 21.29 19.3499 21.09 19.1899 20.99C19.0199 20.88 18.5 20.62 17.77 20.24H17.79Z" fill="#213147"/>
  <path fill-rule="evenodd" clip-rule="evenodd" d="M16 0C7.16 0 0 7.16 0 16C0 24.84 7.16 32 16 32C24.84 32 32 24.84 32 16C32 7.16 24.84 0 16 0ZM23.93 21.37C23.44 23.3 23.11 24.04 21.72 25.02C20.33 26 17.82 27.69 17.41 27.95C17 28.21 16.49 28.64 16.02 28.64C15.55 28.64 15.0399 28.2 14.6299 27.95C14.2199 27.69 11.6999 26 10.3199 25.02C8.92995 24.04 8.59999 23.3 8.10999 21.37C7.85999 20.39 5.75 12.37 5.75 12.37L6.46997 10.31L5.90997 8.91998C5.90997 8.91998 6.63 8.14999 7.5 7.26999C8.37 6.39999 10.22 6.91 10.22 6.91L12.33 4.51999H19.72L21.83 6.91C21.83 6.91 22.09 6.84001 22.46 6.79001C23.08 6.72001 24 6.71999 24.55 7.26999C25.42 8.13999 26.14 8.91998 26.14 8.91998L25.58 10.31L26.3 12.37C26.3 12.37 24.1899 20.39 23.9399 21.37H23.93Z" fill="#213147"/>
</svg>
