<svg width="32" height="32" viewBox="0 0 32 32" fill="none" xmlns="http://www.w3.org/2000/svg">
  <path fill-rule="evenodd" clip-rule="evenodd" d="M16 0C24.84 0 32 7.16 32 16C32 24.84 24.84 32 16 32C7.16 32 0 24.84 0 16C0 7.17 7.17 0 16 0Z" fill="white"/>
  <path d="M23.93 26.85H8.08001C6.47001 26.85 5.16 25.54 5.16 23.93V8.07997C5.16 6.46997 6.47001 5.15997 8.08001 5.15997H23.93C25.54 5.15997 26.85 6.46997 26.85 8.07997V23.93C26.85 25.54 25.54 26.85 23.93 26.85ZM5.99001 11.95V23.93C5.99001 25.08 6.93001 26.02 8.08001 26.02H23.93C25.08 26.02 26.02 25.08 26.02 23.93V11.95H5.99001ZM26.01 11.12V8.07997C26.01 6.92997 25.07 5.98997 23.92 5.98997H8.07C6.92 5.98997 5.98 6.92997 5.98 8.07997V11.12H26.01ZM21.92 23.11H10.16V13.5H21V14.33H21.91V23.11H21.92ZM11 22.28H21.09V15.17H11V22.28ZM18.92 20.18C18.23 20.18 17.67 19.62 17.67 18.93C17.67 18.24 18.23 17.68 18.92 17.68C19.61 17.68 20.17 18.24 20.17 18.93C20.17 19.62 19.61 20.18 18.92 20.18ZM18.92 18.51C18.69 18.51 18.5 18.7 18.5 18.93C18.5 19.16 18.69 19.35 18.92 19.35C19.15 19.35 19.34 19.16 19.34 18.93C19.34 18.7 19.15 18.51 18.92 18.51ZM21.01 10.58H18.09V7.65997H21.01V10.58ZM18.92 9.74997H20.17V8.49997H18.92V9.74997ZM23.63 10.46L22.88 9.70997L22.13 10.46L21.54 9.86997L22.29 9.11997L21.54 8.36997L22.13 7.77997L22.88 8.52997L23.63 7.77997L24.22 8.36997L23.47 9.11997L24.22 9.86997L23.63 10.46ZM17.25 10.16H15.58V9.32997H17.25V10.16Z" fill="#1C202F"/>
</svg>
