<svg width="32" height="32" viewBox="0 0 32 32" fill="none" xmlns="http://www.w3.org/2000/svg">
  <path fill-rule="evenodd" clip-rule="evenodd" d="M11.61 21.5H20.46V15.26H11.61V21.5ZM18.56 17.46C19.17 17.46 19.66 17.95 19.66 18.56C19.66 19.17 19.17 19.66 18.56 19.66C17.95 19.66 17.46 19.17 17.46 18.56C17.46 17.95 17.95 17.46 18.56 17.46Z" fill="#213147"/>
  <path d="M19.66 9.41H18.56V10.51H19.66V9.41Z" fill="#213147"/>
  <path fill-rule="evenodd" clip-rule="evenodd" d="M7.22 22.95C7.22 23.96 8.04 24.78 9.05 24.78H22.95C23.96 24.78 24.78 23.96 24.78 22.95V12.44H7.22V22.95ZM10.88 13.8H20.39V14.53H21.19V22.23H10.88V13.8Z" fill="#213147"/>
  <path fill-rule="evenodd" clip-rule="evenodd" d="M16 0C7.16 0 0 7.16 0 16C0 24.84 7.16 32 16 32C24.84 32 32 24.84 32 16C32 7.16 24.84 0 16 0ZM25.52 22.95C25.52 24.36 24.37 25.51 22.96 25.51H9.06C7.65 25.51 6.5 24.36 6.5 22.95V9.05C6.5 7.64 7.65 6.49 9.06 6.49H22.96C24.37 6.49 25.52 7.64 25.52 9.05V22.95Z" fill="#213147"/>
  <path fill-rule="evenodd" clip-rule="evenodd" d="M18.56 18.93C18.76 18.93 18.93 18.77 18.93 18.56C18.93 18.35 18.77 18.19 18.56 18.19C18.35 18.19 18.19 18.35 18.19 18.56C18.19 18.77 18.35 18.93 18.56 18.93Z" fill="#213147"/>
  <path fill-rule="evenodd" clip-rule="evenodd" d="M22.95 7.22H9.05C8.04 7.22 7.22 8.04 7.22 9.05V11.72H24.78V9.05C24.78 8.04 23.96 7.22 22.95 7.22ZM17.1 10.88H15.64V10.15H17.1V10.88ZM20.39 11.24H17.83V8.68H20.39V11.24ZM23.21 10.62L22.69 11.14L22.03 10.48L21.37 11.14L20.85 10.62L21.51 9.96L20.85 9.3L21.37 8.78L22.03 9.44L22.69 8.78L23.21 9.3L22.55 9.96L23.21 10.62Z" fill="#213147"/>
</svg>
