<svg width="32" height="32" viewBox="0 0 32 32" fill="none" xmlns="http://www.w3.org/2000/svg">
  <path d="M15.94 13.5202L15.51 15.2302C15.99 15.3502 17.48 15.8402 17.72 14.8702C17.97 13.8602 16.42 13.6402 15.93 13.5202H15.94Z" fill="#213147"/>
  <path d="M15.3 16.0902L14.83 17.9702C15.41 18.1102 17.2 18.6902 17.46 17.6302C17.74 16.5202 15.88 16.2402 15.3 16.0902Z" fill="#213147"/>
  <path d="M17.87 8.43018C13.69 7.39018 9.45999 9.93019 8.41999 14.1102C7.37999 18.2902 9.91999 22.5202 14.1 23.5602C18.28 24.6002 22.51 22.0602 23.55 17.8802C24.59 13.7002 22.05 9.47018 17.87 8.43018ZM19.42 14.8902C19.31 15.6502 18.89 16.0202 18.33 16.1502C19.1 16.5502 19.49 17.1602 19.12 18.2302C18.66 19.5502 17.56 19.6602 16.1 19.3902L15.75 20.8102L14.89 20.6002L15.24 19.2002C15.02 19.1402 14.79 19.0902 14.56 19.0202L14.21 20.4302L13.36 20.2202L13.71 18.8002C13.51 18.7502 13.31 18.6902 13.1 18.6402L11.99 18.3602L12.41 17.3802C12.41 17.3802 13.04 17.5502 13.03 17.5402C13.27 17.6002 13.38 17.4402 13.42 17.3402L13.98 15.1002C13.98 15.1002 14.04 15.1202 14.07 15.1202C14.04 15.1102 14 15.1002 13.98 15.0902L14.38 13.4902C14.39 13.3102 14.33 13.0802 13.98 12.9902C13.99 12.9902 13.36 12.8402 13.36 12.8402L13.59 11.9302L14.77 12.2202C14.95 12.2702 15.13 12.3102 15.32 12.3502L15.67 10.9402L16.53 11.1502L16.19 12.5302C16.42 12.5802 16.65 12.6402 16.88 12.6902L17.22 11.3202L18.08 11.5302L17.73 12.9402C18.81 13.3102 19.6 13.8702 19.45 14.9102L19.42 14.8902Z" fill="#213147"/>
  <path d="M16 0C7.16 0 0 7.16 0 16C0 24.84 7.16 32 16 32C24.84 32 32 24.84 32 16C32 7.16 24.84 0 16 0ZM23.69 16C23.69 16.32 23.66 16.63 23.63 16.94H27.21C26.73 22.71 21.9 27.25 16 27.25C9.79 27.25 4.75 22.21 4.75 16C4.75 9.79 9.79 4.75 16 4.75C22.21 4.75 26.73 9.29 27.21 15.06H23.63C23.67 15.37 23.69 15.68 23.69 16Z" fill="#213147"/>
</svg>
