<svg width="32" height="32" viewBox="0 0 32 32" fill="none" xmlns="http://www.w3.org/2000/svg">
  <path d="M16 0C24.84 0 32 7.16 32 16C32 24.84 24.84 32 16 32C7.16 32 0 24.84 0 16C0 7.16 7.16 0 16 0Z" fill="#2151F4"/>
  <path d="M16 21.62C12.89 21.62 10.38 19.1 10.38 16C10.38 12.9 12.9 10.38 16 10.38C18.78 10.38 21.1 12.41 21.54 15.07H27.21C26.73 9.3 21.9 4.76 16 4.76C9.79 4.76 4.75 9.8 4.75 16.01C4.75 22.22 9.79 27.26 16 27.26C22.21 27.26 26.73 22.72 27.21 16.95H21.54C21.09 19.61 18.79 21.64 16 21.64V21.62Z" fill="white"/>
  <path d="M23.55 17.8899C22.51 22.07 18.28 24.61 14.1 23.57C9.91999 22.5299 7.37999 18.2999 8.41999 14.12C9.45999 9.93995 13.69 7.39995 17.87 8.43995C22.05 9.47995 24.59 13.7099 23.55 17.8899Z" fill="#F7931A"/>
  <path d="M19.42 14.89C19.58 13.85 18.79 13.29 17.7 12.92L18.05 11.51L17.19 11.3L16.85 12.67C16.63 12.61 16.39 12.56 16.16 12.51L16.5 11.13L15.64 10.92L15.29 12.33C15.1 12.29 14.92 12.25 14.74 12.2L13.56 11.9L13.33 12.81C13.33 12.81 13.96 12.96 13.95 12.96C14.3 13.05 14.36 13.28 14.35 13.46L13.95 15.06C13.95 15.06 14 15.07 14.04 15.09C14.01 15.09 13.98 15.08 13.95 15.07L13.39 17.3099C13.35 17.42 13.24 17.57 13 17.51C13 17.52 12.38 17.35 12.38 17.35L11.96 18.33L13.07 18.61C13.28 18.66 13.48 18.72 13.68 18.77L13.33 20.19L14.18 20.4L14.53 18.99C14.76 19.0499 14.99 19.11 15.21 19.17L14.86 20.57L15.72 20.78L16.07 19.36C17.53 19.64 18.63 19.52 19.09 18.2C19.46 17.14 19.07 16.52 18.3 16.12C18.86 15.99 19.28 15.62 19.39 14.86L19.42 14.89ZM17.46 17.6299C17.2 18.6899 15.41 18.1199 14.83 17.9699L15.3 16.09C15.88 16.2299 17.74 16.5199 17.46 17.6299ZM17.73 14.87C17.49 15.84 16 15.3499 15.52 15.2299L15.95 13.52C16.43 13.64 17.99 13.87 17.74 14.87H17.73Z" fill="white"/>
</svg>
