<svg width="32" height="32" viewBox="0 0 32 32" fill="none" xmlns="http://www.w3.org/2000/svg">
<g clip-path="url(#clip0_292_184)">
<path d="M31.78 16.11C31.78 7.33 24.67 0.220001 15.89 0.220001C7.11 0.220001 0 7.33 0 16.11C0 24.89 7.11 32 15.89 32C24.67 32 31.78 24.89 31.78 16.11Z" fill="white"/>
<path d="M15.89 4.77L9.17 16.11L15.89 12.99V4.77Z" fill="#0052FF"/>
<path d="M15.89 20.12L9.17 16.1L15.89 13V20.13V20.12Z" fill="#6697FF"/>
<path d="M15.89 21.43L9.18 17.41L15.89 27.01V21.43Z" fill="#0052FF"/>
<path d="M15.89 4.77L22.61 16.11L15.89 12.99V4.77Z" fill="#6697FF"/>
<path d="M15.89 20.12L22.61 16.11L15.89 12.99V20.12Z" fill="#CCDCFF"/>
<path d="M15.89 21.43L22.61 17.48L15.89 27.01V21.43Z" fill="#6697FF"/>
<path fill-rule="evenodd" clip-rule="evenodd" d="M15.89 0.220001C7.11 0.220001 0 7.33 0 16.11C0 24.89 7.11 32 15.89 32C24.67 32 31.78 24.89 31.78 16.11C31.78 7.33 24.67 0.220001 15.89 0.220001ZM15.89 30.41C7.99 30.41 1.59 24.01 1.59 16.11C1.59 8.21 7.99 1.81 15.89 1.81C23.79 1.81 30.19 8.21 30.19 16.11C30.19 24.01 23.79 30.41 15.89 30.41Z" fill="#0052FF"/>
</g>
<defs>
<clipPath id="clip0_292_184">
<rect width="32" height="32" fill="white"/>
</clipPath>
</defs>
</svg>
