<svg width="32" height="32" viewBox="0 0 32 32" fill="none" xmlns="http://www.w3.org/2000/svg">
<path fill-rule="evenodd" clip-rule="evenodd" d="M21.6059 3.19357C19.459 3.81352 17.5726 5.34137 16.7149 7.15497L16.2455 8.14767H15.2017H14.1579L13.9258 8.94377L13.6938 9.73987L14.775 9.82367L15.8561 9.90747L15.8781 10.8713L15.9002 11.835H15.0305L14.1606 11.8349L13.978 12.5158C13.8776 12.8903 13.7541 13.3051 13.7035 13.4376C13.6281 13.6347 13.8559 13.6785 14.9595 13.6785H16.3075L16.7373 14.5906C17.2926 15.7693 18.3852 16.9748 19.5118 17.6519C21.6311 18.9255 24.7357 19.0698 27.1922 18.0086L28 17.6597V16.4094C28 15.7215 27.9436 15.1876 27.8748 15.2224C25.5081 16.4209 25.4642 16.434 23.8111 16.439C22.3042 16.4435 22.141 16.409 21.0669 15.8573C20.2279 15.4262 19.7743 15.0595 19.3572 14.4746L18.7896 13.6785H21.9698H25.1499L25.4066 12.81C25.548 12.3325 25.6635 11.88 25.6635 11.8044C25.6635 11.729 23.9695 11.6673 21.8992 11.6673H18.1349L18.1858 10.8712L18.2367 10.0751L22.2633 10.0303L26.29 9.98541L26.533 9.10852L26.776 8.23147L22.7984 8.18655C20.6108 8.16192 18.8208 8.10376 18.8208 8.05733C18.8208 8.01091 19.0181 7.6737 19.2591 7.30799C19.7614 6.54558 20.9118 5.72383 21.8985 5.42249C23.0331 5.07606 25.085 5.18718 26.3513 5.6635L27.4563 6.07915L27.7281 5.21316C28.1385 3.90604 28.1197 3.86313 26.9569 3.45235C25.6319 2.98441 22.8041 2.84764 21.6059 3.19357ZM9.72507 8.76477C8.21835 9.53942 6.10413 11.6457 5.31539 13.1577C4.03197 15.6188 3.687 18.1112 4.28365 20.6128C4.80102 22.7817 5.61313 24.2299 7.21381 25.8374C9.45103 28.0839 11.6285 29 14.7319 29C16.8229 29 17.8839 28.7431 19.7387 27.7877C21.3306 26.9678 23.3739 24.9134 24.211 23.291C24.551 22.6322 24.829 22.0478 24.829 21.9921C24.829 21.9365 24.1701 21.8909 23.3648 21.8909H21.9008L21.5767 22.4953C20.639 24.244 18.1592 25.888 15.9192 26.2462C10.7127 27.0783 5.97812 22.3236 6.80675 17.0952C7.16341 14.8456 8.80047 12.3554 10.5418 11.4137L11.1437 11.0882V9.61803C11.1437 8.80936 11.0873 8.15136 11.0185 8.15588C10.9497 8.16041 10.3676 8.43443 9.72507 8.76477Z" fill="black"/>
</svg>
