<svg width="32" height="32" viewBox="0 0 32 32" fill="none" xmlns="http://www.w3.org/2000/svg">
<g clip-path="url(#clip0_2381_5)">
<circle cx="16" cy="16" r="16" fill="white"/>
<path fill-rule="evenodd" clip-rule="evenodd" d="M20.2045 6.1489C18.5943 6.62579 17.1795 7.80105 16.5362 9.19613L16.1841 9.95975H15.4013H14.6185L14.4443 10.5721L14.2704 11.1845L15.0812 11.249L15.8921 11.3134L15.9086 12.0549L15.9251 12.7962H15.2729L14.6205 12.7961L14.4835 13.3199C14.4082 13.6079 14.3155 13.927 14.2776 14.029C14.221 14.1806 14.3919 14.2142 15.2197 14.2142H16.2307L16.553 14.9158C16.9694 15.8225 17.7889 16.7499 18.6338 17.2707C20.2234 18.2504 22.5518 18.3614 24.3942 17.5451L25 17.2767V16.3149C25 15.7858 24.9577 15.375 24.9061 15.4019C23.1311 16.3238 23.0982 16.3338 21.8583 16.3377C20.7282 16.3412 20.6058 16.3146 19.8002 15.8902C19.1709 15.5586 18.8307 15.2765 18.5179 14.8266L18.0922 14.2142H20.4773H22.8625L23.055 13.5461C23.161 13.1788 23.2476 12.8307 23.2476 12.7726C23.2476 12.7146 21.9771 12.6671 20.4244 12.6671H17.6012L17.6393 12.0547L17.6775 11.4424L20.6975 11.4079L23.7175 11.3734L23.8997 10.6989L24.082 10.0242L21.0988 9.98966C19.4581 9.9707 18.1156 9.92597 18.1156 9.89026C18.1156 9.85454 18.2636 9.59515 18.4443 9.31384C18.8211 8.72737 19.6839 8.09526 20.4239 7.86345C21.2748 7.59697 22.8138 7.68244 23.7634 8.04884L24.5922 8.36857L24.7961 7.70243C25.1039 6.69695 25.0897 6.66395 24.2177 6.34796C23.224 5.988 21.1031 5.8828 20.2045 6.1489ZM11.2938 10.4344C10.1638 11.0303 8.5781 12.6505 7.98654 13.8137C7.02398 15.7068 6.76525 17.624 7.21273 19.5483C7.60076 21.2167 8.20984 22.3307 9.41036 23.5672C11.0883 25.2953 12.7214 26 15.0489 26C16.6172 26 17.4129 25.8024 18.804 25.0675C19.9979 24.4368 21.5304 22.8565 22.1582 21.6085C22.4132 21.1017 22.6218 20.6521 22.6218 20.6093C22.6218 20.5665 22.1276 20.5315 21.5236 20.5315H20.4256L20.1826 20.9964C19.4792 22.3415 17.6194 23.6061 15.9394 23.8817C12.0346 24.5218 8.48359 20.8643 9.10507 16.8424C9.37256 15.112 10.6004 13.1965 11.9064 12.4721L12.3578 12.2217V11.0908C12.3578 10.4687 12.3154 9.96258 12.2639 9.96606C12.2123 9.96954 11.7757 10.1803 11.2938 10.4344Z" fill="black"/>
</g>
<defs>
<clipPath id="clip0_2381_5">
<rect width="32" height="32" fill="white"/>
</clipPath>
</defs>
</svg>
