<svg width="32" height="32" viewBox="0 0 32 32" fill="none" xmlns="http://www.w3.org/2000/svg">
  <path d="M16 0C24.84 0 32 7.16002 32 16C32 24.84 24.84 32 16 32C7.16 32 0 24.84 0 16C0 7.16002 7.16 0 16 0Z" fill="#2151F4"/>
  <path d="M16.01 21.62C12.9 21.62 10.39 19.1 10.39 16C10.39 12.9 12.91 10.38 16.01 10.38C18.79 10.38 21.11 12.41 21.55 15.07H27.22C26.74 9.29999 21.91 4.76001 16.01 4.76001C9.80001 4.76001 4.76001 9.79999 4.76001 16.01C4.76001 22.22 9.80001 27.26 16.01 27.26C22.22 27.26 26.74 22.72 27.22 16.95H21.55C21.1 19.61 18.8 21.64 16.01 21.64V21.62Z" fill="white"/>
</svg>
