<svg width="32" height="32" viewBox="0 0 32 32" fill="none" xmlns="http://www.w3.org/2000/svg">
  <path d="M16 0C7.16 0 0 7.16 0 16C0 24.84 7.16 32 16 32C24.84 32 32 24.84 32 16C32 7.16 24.84 0 16 0ZM16.01 21.63C18.79 21.63 21.1 19.6 21.55 16.94H27.22C26.74 22.72 21.91 27.25 16.01 27.25C9.80001 27.25 4.76001 22.21 4.76001 16C4.76001 9.79 9.80001 4.75 16.01 4.75C22.22 4.75 26.74 9.29 27.22 15.06H21.55C21.11 12.4 18.79 10.37 16.01 10.37C12.9 10.37 10.39 12.89 10.39 15.99C10.39 19.09 12.91 21.61 16.01 21.61V21.63Z" fill="#213147"/>
</svg>
