<svg width="32" height="32" viewBox="0 0 32 32" fill="none" xmlns="http://www.w3.org/2000/svg">
  <path d="M16 0C24.84 0 32 7.16 32 16C32 24.84 24.84 32 16 32C7.16 32 0 24.84 0 16C0 7.16 7.17 0 16 0Z" fill="black"/>
  <path fill-rule="evenodd" clip-rule="evenodd" d="M10.96 25.42C8.34 25.42 5.88 24.86 3.75 23.88L12.41 15.98C11.21 15 10.45 13.51 10.45 11.84C10.45 10.17 11.24 8.62999 12.47 7.64999V6.48999H15.79C17.07 6.48999 18.32 6.94999 19.29 7.78999C20.26 6.94999 21.5 6.48999 22.79 6.48999H26.11V7.64999C27.34 8.62999 28.13 10.14 28.13 11.84C28.13 13.97 26.88 15.82 25.07 16.68C24.42 18.59 23.21 20.31 21.58 21.7V24.17H17.49C15.52 24.97 13.3 25.42 10.95 25.42H10.96ZM15.8 15.96C16.74 15.96 17.64 15.64 18.37 15.06L19.29 17.12L20.21 15.05C20.94 15.64 21.85 15.96 22.79 15.96C25.06 15.96 26.9 14.12 26.9 11.85C26.9 9.57999 25.06 7.73999 22.79 7.73999C21.31 7.73999 20.02 8.51999 19.29 9.68999C18.56 8.51999 17.27 7.73999 15.79 7.73999C13.52 7.73999 11.68 9.57999 11.68 11.85C11.68 14.12 13.52 15.96 15.79 15.96H15.8ZM15.8 14.73C17.39 14.73 18.68 13.44 18.68 11.85C18.68 10.26 17.39 8.96999 15.8 8.96999C14.21 8.96999 12.92 10.26 12.92 11.85C12.92 13.44 14.21 14.73 15.8 14.73ZM15.8 13.49C16.71 13.49 17.45 12.75 17.45 11.84C17.45 10.93 16.71 10.19 15.8 10.19C14.89 10.19 14.15 10.93 14.15 11.84C14.15 12.75 14.89 13.49 15.8 13.49ZM25.67 11.85C25.67 13.44 24.38 14.73 22.79 14.73C21.2 14.73 19.91 13.44 19.91 11.85C19.91 10.26 21.2 8.96999 22.79 8.96999C24.38 8.96999 25.67 10.26 25.67 11.85ZM24.44 11.85C24.44 12.76 23.7 13.5 22.79 13.5C21.88 13.5 21.14 12.76 21.14 11.85C21.14 10.94 21.88 10.2 22.79 10.2C23.7 10.2 24.44 10.94 24.44 11.85Z" fill="white"/>
</svg>
