<svg width="32" height="32" viewBox="0 0 32 32" fill="none" xmlns="http://www.w3.org/2000/svg">
  <path d="M15.8 10.2C14.89 10.2 14.15 10.94 14.15 11.85C14.15 12.76 14.89 13.5 15.8 13.5C16.71 13.5 17.45 12.76 17.45 11.85C17.45 10.94 16.71 10.2 15.8 10.2Z" fill="#213147"/>
  <path d="M22.79 10.2C21.88 10.2 21.14 10.94 21.14 11.85C21.14 12.76 21.88 13.5 22.79 13.5C23.7 13.5 24.44 12.76 24.44 11.85C24.44 10.94 23.7 10.2 22.79 10.2Z" fill="#213147"/>
  <path d="M22.79 7.72998C21.31 7.72998 20.02 8.50998 19.29 9.67998C18.56 8.50998 17.27 7.72998 15.79 7.72998C13.52 7.72998 11.68 9.56998 11.68 11.84C11.68 14.11 13.52 15.95 15.79 15.95C16.73 15.95 17.63 15.63 18.36 15.05L19.28 17.11L20.2 15.04C20.93 15.63 21.84 15.95 22.79 15.95C25.06 15.95 26.9 14.11 26.9 11.84C26.9 9.56998 25.06 7.72998 22.79 7.72998ZM15.8 14.73C14.21 14.73 12.92 13.44 12.92 11.85C12.92 10.26 14.21 8.96998 15.8 8.96998C17.39 8.96998 18.68 10.26 18.68 11.85C18.68 13.44 17.39 14.73 15.8 14.73ZM22.79 14.73C21.2 14.73 19.91 13.44 19.91 11.85C19.91 10.26 21.2 8.96998 22.79 8.96998C24.38 8.96998 25.67 10.26 25.67 11.85C25.67 13.44 24.38 14.73 22.79 14.73Z" fill="#213147"/>
  <path d="M16 0C7.16 0 0 7.16 0 16C0 24.84 7.16 32 16 32C24.84 32 32 24.84 32 16C32 7.16 24.84 0 16 0ZM25.08 16.68C24.43 18.59 23.22 20.31 21.59 21.7V24.17H17.5C15.53 24.97 13.31 25.42 10.96 25.42C8.34 25.42 5.88 24.86 3.75 23.88L12.41 15.98C11.21 15 10.45 13.51 10.45 11.84C10.45 10.17 11.24 8.63 12.47 7.65V6.49H15.79C17.07 6.49 18.32 6.95 19.29 7.79C20.26 6.95 21.5 6.49 22.79 6.49H26.11V7.65C27.34 8.63 28.13 10.14 28.13 11.84C28.13 13.97 26.88 15.82 25.07 16.68H25.08Z" fill="#213147"/>
</svg>
