<svg width="32" height="32" viewBox="0 0 32 32" fill="none" xmlns="http://www.w3.org/2000/svg">
<path d="M16 0C7.16 0 0 7.16 0 16C0 24.84 7.16 32 16 32C24.84 32 32 24.84 32 16C32 7.16 24.84 0 16 0ZM15.89 15C15.66 14.15 15.36 13.28 14.96 12.4C14.81 11.8 14.99 11.55 15.17 11.4C15.54 11.08 16.25 10.93 17.14 10.93C18.35 10.93 19.88 11.22 21.24 11.76C22.69 12.34 23.04 12.86 23.05 12.95C23.05 12.95 23.03 13 22.91 13.09C20.99 14.56 17.52 14.91 15.89 14.99V15ZM27.31 15.62L27.26 16.24L27.16 16.85L27.03 17.41L26.88 17.93L26.68 18.41L26.43 18.83L26.15 19.17L25.85 19.43L25.27 19.78L24.95 19.94L23.96 20.27L22.6 20.64L20.99 21.04H20.93L19.4 21.42L17.64 21.89L16.39 22.28C16.55 21.09 16.71 18.89 16.22 16.31C18.07 16.2 21.61 15.78 23.74 14.14C24.41 13.63 24.58 12.91 24.2 12.23C23.15 10.38 17.54 8.95 15.11 9.92C13.89 10.4 13.37 11.42 13.73 12.83C15.84 17.47 15.1 22.04 14.95 22.8L14.85 23.27L14.48 24.34L14.31 24.7L13.85 25.59L13.3 26.32L12.68 26.87L12.48 26.97L11.83 27.31L11.14 27.46L10.44 27.42L9.73 27.19L9.03 26.78L8.96 26.72L8.33 26.17L7.74 25.47L7.2 24.63L6.74 23.68L6.73 23.64L6.69 23.56L6.29 22.46L6.19 22.14L6.04 21.69L5.85 21.13L5.65 20.46L5.3 19.12L5.11 18.36L4.88 16.95L4.78 16.17L4.68 14.74L4.71 13.33L4.87 12.05V11.98L5.16 10.72L5.36 9.89L5.76 8.77L6.27 7.8L6.81 7.07L7.36 6.32L7.39 6.3L7.99 5.78L8.68 5.29L9.27 5L10.15 4.73L10.65 4.69L11.7 4.62L13.02 4.75L14.58 5.08L16.32 5.58L18.15 6.24L19.04 6.63L20.15 7.1L21.94 8L23.5 8.97L23.82 9.23L25.04 10.19L25.59 10.83L26.17 11.48L26.37 11.8L26.43 11.9L26.64 12.4L27.02 13.28L27.19 13.81L27.3 14.38L27.37 14.99V15.61L27.31 15.62Z" fill="#213147"/>
<path d="M12.39 17.01C11.78 16.13 11.02 15.69 10.17 15.75C8.57 15.87 7.47 17.93 7.66 20.44C7.85 22.87 9.17 24.7 10.71 24.7C10.76 24.7 10.81 24.7 10.86 24.7C11.68 24.64 12.39 24.07 12.85 23.11C13.27 22.25 13.45 21.15 13.36 20C13.27 18.86 12.92 17.8 12.38 17.01H12.39ZM11.84 22.6C11.56 23.17 11.18 23.52 10.78 23.55C9.96 23.62 8.95 22.31 8.8 20.35C8.65 18.38 9.45 16.94 10.26 16.88C10.28 16.88 10.3 16.88 10.32 16.88C10.7 16.88 11.11 17.16 11.46 17.66C11.89 18.27 12.17 19.16 12.24 20.09C12.31 21.02 12.17 21.94 11.84 22.61V22.6Z" fill="#213147"/>
</svg>
