<svg width="32" height="32" viewBox="0 0 32 32" fill="none" xmlns="http://www.w3.org/2000/svg">
<g clip-path="url(#clip0_2381_28)">
<path fill-rule="evenodd" clip-rule="evenodd" d="M14.514 0.0375191C11.7638 0.324987 9.269 1.21294 7.07434 2.6854C5.42445 3.79238 3.78681 5.43898 2.68201 7.10192C-0.900289 12.4937 -0.893422 19.5961 2.69918 24.924C3.28672 25.7954 3.80185 26.4227 4.59677 27.235C7.05343 29.7451 10.1096 31.3083 13.6289 31.8547C14.7946 32.0357 16.9987 32.05 18.1235 31.884C21.0769 31.4479 23.6227 30.3626 25.8664 28.5833C26.7375 27.8924 27.8214 26.8073 28.4954 25.9513C30.7129 23.135 31.8823 19.7916 31.9918 15.9544C32.0102 15.3124 31.9976 14.9995 31.9536 14.9995C31.9176 14.9995 31.8881 14.8877 31.8881 14.7511C31.8881 14.4015 31.715 13.1893 31.5748 12.5575C31.1406 10.6004 30.3583 8.75847 29.2577 7.10192C28.1428 5.42382 26.5266 3.80327 24.8342 2.66655C22.8368 1.32502 20.4048 0.414527 17.9674 0.0957515C17.2468 0.00151525 15.1902 -0.0331737 14.514 0.0375191ZM18.2797 6.86448L18.2796 7.33904L17.7646 7.44925C16.9944 7.61392 16.3883 7.9265 15.9302 8.39518C15.4119 8.92534 15.2611 9.31005 15.2558 10.1155C15.2457 11.6619 16.0739 12.4528 18.1703 12.899L18.342 12.9355V14.3119C18.342 15.0689 18.321 15.6882 18.2952 15.6881C17.9477 15.6869 15.9704 14.9548 15.4883 14.6489C15.4122 14.6007 15.335 14.5612 15.3166 14.5612C15.2982 14.5612 15.2832 14.9419 15.2832 15.4072V16.2532L15.6758 16.4336C16.2236 16.6853 17.2238 16.9861 17.797 17.0716L18.2796 17.1436V17.637V18.1302H18.9038H19.5281V17.6442V17.158L20.092 17.0229C21.521 16.6805 22.3889 15.8697 22.5974 14.6822C22.7225 13.97 22.4304 12.9563 21.9841 12.5539C21.422 12.0471 21.0643 11.8885 19.7309 11.5546L19.4656 11.4882V10.1443V8.80055L19.6685 8.80074C19.9103 8.80092 20.8595 9.04932 21.3309 9.23585C21.5156 9.30892 21.6755 9.35983 21.6863 9.34906C21.7391 9.29609 21.7269 7.8503 21.6732 7.79645C21.5798 7.70271 20.4368 7.42714 19.9551 7.38225L19.5281 7.34242V6.84983V6.35723L18.9039 6.37357L18.2798 6.38985L18.2797 6.86448ZM17.5465 8.98558C16.4104 9.5247 16.5552 10.8196 17.7972 11.2286C18.0296 11.3052 18.2473 11.3678 18.2809 11.3678C18.3188 11.3678 18.342 10.8798 18.342 10.0842V8.80055L18.1391 8.80061C18.0275 8.80061 17.7609 8.88389 17.5465 8.98558ZM12.5677 10.6362C11.6754 11.0365 10.8572 11.6097 10.2529 12.2578C7.95515 14.7221 7.5974 18.3276 9.36701 21.1854C10.0267 22.2508 11.3074 23.379 12.4438 23.8959C15.5884 25.326 19.3454 24.268 21.2444 21.4176C21.5819 20.9109 22.0875 19.9272 22.0875 19.7772C22.0875 19.7137 21.8762 19.6957 21.1355 19.6958L20.1835 19.6959L20.0083 20.0323C19.402 21.1964 18.0607 22.2175 16.6565 22.5842C15.5381 22.8762 14.1195 22.7232 13.0909 22.1994C12.4222 21.8588 12.1947 21.6952 11.674 21.1804C10.945 20.4595 10.4986 19.7069 10.2137 18.7184C10.0123 18.0193 10.0125 16.5818 10.2142 15.8524C10.5933 14.4813 11.4886 13.2948 12.6597 12.6115L13.0205 12.4009L13.0253 11.4461C13.0288 10.7396 13.0106 10.4918 12.955 10.4937C12.9137 10.495 12.7394 10.5592 12.5677 10.6362ZM19.48 14.3577L19.4969 15.6569L19.7129 15.6355C19.9802 15.609 20.5733 15.3133 20.758 15.1145C20.9269 14.9325 21.0887 14.5563 21.0887 14.3453C21.0887 14.0489 20.8904 13.6774 20.6321 13.4896C20.4195 13.3352 19.7059 13.0584 19.5202 13.0584C19.487 13.0584 19.4701 13.6014 19.48 14.3577ZM0.0142326 16.0013C0.0142326 16.5351 0.023846 16.7535 0.0355194 16.4866C0.0472553 16.2197 0.0472553 15.7829 0.0355194 15.5161C0.023846 15.2492 0.0142326 15.4675 0.0142326 16.0013Z" fill="#213147"/>
</g>
<defs>
<clipPath id="clip0_2381_28">
<rect width="32" height="32" fill="white"/>
</clipPath>
</defs>
</svg>
