<svg width="32" height="32" viewBox="0 0 32 32" fill="none" xmlns="http://www.w3.org/2000/svg">
  <path d="M16 0C7.16 0 0 7.16 0 16C0 24.84 7.16 32 16 32C24.84 32 32 24.84 32 16C32 7.16 24.84 0 16 0ZM16.33 1.88998L18.43 3.10001V6L16.33 7.20999V1.88V1.88998ZM18.34 11.74V17.43L13.52 20.22V14.53L18.34 11.74ZM3.62 22.67V9.22998C3.62 8.97998 3.75001 8.73999 3.98001 8.60999L15.62 1.88998V7.63L8.59 11.68V19.84L3.62 22.71C3.62 22.71 3.62 22.68 3.62 22.67ZM27.97 23.29L16.33 30.01C16.11 30.14 15.84 30.14 15.62 30.01L4.01001 23.31L8.98001 20.44L15.97 24.48L23 20.42L27.98 23.29H27.97ZM23.36 19.79V14.57L18.4 11.71L23.36 8.85001V5.94998L27.97 8.60999C28.19 8.73999 28.32 8.96998 28.33 9.22998V22.66L23.36 19.79Z" fill="#213147"/>
</svg>
