<svg width="32" height="32" viewBox="0 0 32 32" fill="none" xmlns="http://www.w3.org/2000/svg">
  <path d="M16 32C24.8366 32 32 24.8366 32 16C32 7.16346 24.8366 0 16 0C7.16344 0 0 7.16346 0 16C0 24.8366 7.16344 32 16 32Z" fill="white"/>
  <path d="M16.33 7.22L18.43 6.01001V3.11L16.33 1.90001V7.23V7.22Z" fill="#B2B4B4"/>
  <path d="M8.59 19.84V11.68L15.62 7.63V1.89L3.98001 8.61C3.76001 8.74 3.62 8.98 3.62 9.23V22.67C3.62 22.67 3.62 22.7 3.62 22.71L8.59 19.84Z" fill="#83BCBA"/>
  <path d="M23.01 20.41L15.98 24.47L8.99002 20.43L4.02002 23.3L15.63 30C15.85 30.13 16.12 30.13 16.34 30L27.98 23.28L23 20.41H23.01Z" fill="#6D6E70"/>
  <path d="M27.97 8.61L23.36 5.95V8.85001L18.4 11.71L23.36 14.57V19.79L28.33 22.66V9.23C28.33 8.98 28.19 8.74 27.97 8.61Z" fill="#B2B4B4"/>
  <path d="M13.51 14.53V20.22L18.34 17.43V11.74L13.51 14.53Z" fill="#6D6E70"/>
</svg>
