<svg xmlns="http://www.w3.org/2000/svg" fill="none" viewBox="0 0 222 256"><path fill="#fff" d="M111 0 0 64v128l111 64 111-64V64L111 0Zm0 0L0 64v128l111 64 111-64V64L111 0Z"/><path fill="#03316C" d="M154.822 206h-15.794l-18.908-17.333v-8.889l19.575-18.667v-29.555l25.582-16.667 29.14 22L154.822 206Zm-65.4-46.667 2.893-27.777-9.566-24.889h56.502l-9.343 24.889 2.669 27.777H89.423Zm12.903 29.334-18.908 17.555H67.4l-39.818-69.333 29.363-21.778 25.803 16.445v29.555l19.576 18.667v8.889ZM67.178 55.333H154.6l10.455 44.445H56.946l10.232-44.445ZM111 0 0 64v128l111 64 111-64V64L111 0Z"/></svg>