<svg width="32" height="32" viewBox="0 0 32 32" fill="none" xmlns="http://www.w3.org/2000/svg">
  <path d="M16 32C24.8366 32 32 24.8366 32 16C32 7.16344 24.8366 0 16 0C7.16344 0 0 7.16344 0 16C0 24.8366 7.16344 32 16 32Z" fill="white"/>
  <path d="M19.15 24.75L17.03 22.81V21.81L19.23 19.72V16.4L22.1 14.53L25.37 17L20.93 24.75H19.15ZM13.58 19.51L13.9 16.39L12.83 13.6H19.17L18.12 16.39L18.42 19.51H13.58ZM15.03 22.8L12.91 24.77H11.11L6.64 16.99L9.93001 14.55L12.82 16.39V19.71L15.02 21.8V22.8H15.03ZM11.08 7.84H20.89L22.06 12.83H9.93001L11.08 7.84ZM16 1.64L3.55 8.82V23.18L16 30.36L28.45 23.18V8.82L16 1.64Z" fill="#123068"/>
</svg>
