<svg width="32" height="32" viewBox="0 0 32 32" fill="none" xmlns="http://www.w3.org/2000/svg">
<g clip-path="url(#clip0_294_3750)">
<path d="M17.9397 18.6889C18.4426 18.2886 18.8428 17.7652 19.1302 17.1187C19.4176 16.4721 19.5715 15.6921 19.5715 14.7684C19.5715 14.3066 19.5407 13.9063 19.4689 13.5266C19.2328 13.3932 18.9763 13.2803 18.6889 13.1879C18.1347 13.0237 17.5189 12.9314 16.8415 12.9314H15.3739V19.7357C15.6408 19.6947 15.8974 19.6434 16.1539 19.5818C16.8313 19.3868 17.4265 19.0892 17.9294 18.6889H17.9397Z" fill="#213147"/>
<path d="M16.8518 12.1616C17.601 12.1616 18.2886 12.254 18.9249 12.449C19.0276 12.4798 19.1097 12.5311 19.2123 12.5722C19.2123 12.5516 19.202 12.5208 19.1918 12.5003C18.9352 11.8435 18.576 11.3201 18.1142 10.9198C17.6523 10.5196 17.1084 10.2219 16.4824 10.0269C15.8666 9.84219 15.1892 9.74983 14.4606 9.73956H12.1719V19.8691H13.9987C14.2142 19.8691 14.4092 19.8486 14.6247 19.8281V12.1616H16.8621H16.8518Z" fill="#213147"/>
<path d="M24.0051 13.9371C23.6151 12.9929 23.102 12.2129 22.4452 11.5869C22.0346 11.1969 21.5831 10.8685 21.1007 10.6017C21.2649 10.889 21.4188 11.1866 21.5523 11.5048C21.9422 12.449 22.1373 13.4855 22.1373 14.7582C22.1373 16.0308 21.9115 17.17 21.4702 18.1039C21.0186 19.0481 20.4439 19.8281 19.7357 20.4439C19.0276 21.0596 18.2476 21.5215 17.3855 21.8294C16.5234 22.1372 15.6818 22.2912 14.8505 22.2912H12.1616V24.7235H17.2931C18.1244 24.7235 18.966 24.5696 19.8281 24.2617C20.6902 23.9538 21.4702 23.492 22.1783 22.8762C22.8865 22.2604 23.4612 21.4804 23.9128 20.5362C24.3643 19.592 24.5798 18.4734 24.5798 17.1905C24.5798 15.9076 24.3848 14.8813 23.9949 13.9371H24.0051Z" fill="#213147"/>
<path d="M16 0C7.16358 0 0 7.18409 0 16.0513C0 24.9185 7.16358 32.1026 16 32.1026C24.8364 32.1026 32 24.9185 32 16.0513C32 7.18409 24.8364 0 16 0ZM24.6106 20.8749C24.118 21.9115 23.4715 22.7838 22.6915 23.4612C21.9115 24.1385 21.0391 24.6517 20.0949 24.9904C19.1507 25.3188 18.2168 25.4933 17.3034 25.4933H12.1719C11.7511 25.4933 11.4022 25.1443 11.4022 24.7235V22.2912H9.71903V7.30724H15.1379C16.041 7.30724 16.9237 7.46119 17.7652 7.76908C18.6068 8.07697 19.356 8.53881 20.0026 9.16485C20.0744 9.23669 20.1462 9.31879 20.2078 9.39063C20.3002 9.42142 20.3823 9.44194 20.4747 9.47273C21.4188 9.81141 22.2604 10.3348 22.9788 11.0327C23.6972 11.7306 24.2822 12.6029 24.7133 13.6395C25.1546 14.6966 25.3496 15.8255 25.3496 17.1905C25.3496 18.5555 25.1033 19.8281 24.6004 20.8647L24.6106 20.8749Z" fill="#213147"/>
</g>
<defs>
<clipPath id="clip0_294_3750">
<rect width="32" height="32" fill="white"/>
</clipPath>
</defs>
</svg>
