<svg width="32" height="32" viewBox="0 0 32 32" fill="none" xmlns="http://www.w3.org/2000/svg">
<path d="M32 16C32 7.16 24.84 0 16 0C7.16 0 0 7.16 0 16C0 24.84 7.16 32 16 32C24.84 32 32 24.84 32 16Z" fill="#0D0B2F"/>
<path d="M16 31.04C7.7 31.04 0.96 24.29 0.96 16C0.96 7.71 7.7 0.96 16 0.96C24.3 0.96 31.04 7.71 31.04 16C31.04 24.29 24.29 31.04 16 31.04ZM16 1.52C8.01 1.52 1.52 8.01 1.52 16C1.52 23.99 8.02 30.48 16 30.48C23.98 30.48 30.48 23.98 30.48 16C30.48 8.02 23.98 1.52 16 1.52Z" fill="#E29552"/>
<path d="M21.54 13.07C21.36 11.24 19.78 10.62 17.78 10.43V7.91H16.23V10.39H14.99V7.91H13.46V10.45H10.32V12.1C10.32 12.1 11.46 12.08 11.44 12.1C11.65 12.08 11.85 12.14 12.02 12.26C12.18 12.39 12.29 12.57 12.32 12.78V19.74C12.32 19.81 12.3 19.88 12.26 19.95C12.23 20.01 12.18 20.07 12.13 20.12C12.08 20.17 12.01 20.2 11.94 20.23C11.87 20.25 11.8 20.26 11.73 20.26C11.75 20.28 10.61 20.26 10.61 20.26L10.32 22.11H13.43V24.69H14.98V22.15H16.22V24.68H17.77V22.13C20.38 21.97 22.2 21.33 22.43 18.88C22.61 16.91 21.69 16.03 20.21 15.68C21.11 15.24 21.67 14.42 21.54 13.08V13.07ZM19.38 18.57C19.38 20.49 16.09 20.27 15.04 20.27V16.86C16.09 16.86 19.38 16.56 19.38 18.57ZM18.66 13.76C18.66 15.52 15.91 15.3 15.04 15.3V12.2C15.91 12.2 18.66 11.92 18.66 13.75V13.76Z" fill="url(#paint0_linear_2400_15)"/>
<defs>
<linearGradient id="paint0_linear_2400_15" x1="10.81" y1="17.5502" x2="21.93" y2="14.6302" gradientUnits="userSpaceOnUse">
<stop stop-color="#5CB8F3"/>
<stop offset="0.43" stop-color="#6464DB"/>
<stop offset="1" stop-color="#A75FF1"/>
</linearGradient>
</defs>
</svg>
