<svg width="32" height="32" viewBox="0 0 32 32" fill="none" xmlns="http://www.w3.org/2000/svg">
<path d="M16 0C7.16 0 0 7.16 0 16C0 24.84 7.16 32 16 32C24.84 32 32 24.84 32 16C32 7.16 24.84 0 16 0ZM16 31.03C7.71 31.03 0.96 24.28 0.96 15.99C0.96 7.7 7.71 0.950001 16 0.950001C24.29 0.950001 31.04 7.7 31.04 15.99C31.04 24.28 24.29 31.03 16 31.03Z" fill="#0D0B2F"/>
<path d="M18.66 13.7596C18.66 11.9296 15.91 12.1996 15.04 12.1996V15.2996C15.91 15.2996 18.66 15.5096 18.66 13.7596Z" fill="currentColor"/>
<path d="M15.04 16.8499V20.2599C16.09 20.2599 19.38 20.4799 19.38 18.5599C19.38 16.6399 16.09 16.8599 15.04 16.8499Z" fill="currentColor"/>
<path d="M16 1.50977C8.01999 1.50977 1.51999 8.00977 1.51999 15.9898C1.51999 23.9698 8.01999 30.4698 16 30.4698C23.98 30.4698 30.48 23.9698 30.48 15.9898C30.48 8.00977 23.98 1.50977 16 1.50977ZM22.43 18.8698C22.2 21.3198 20.38 21.9598 17.77 22.1198V24.6698H16.22V22.1398H14.98V24.6798H13.43V22.0998H10.32L10.61 20.2498C10.61 20.2498 11.75 20.2698 11.73 20.2498C11.8 20.2498 11.87 20.2498 11.94 20.2198C12.01 20.1898 12.07 20.1598 12.13 20.1098C12.18 20.0598 12.23 20.0098 12.26 19.9398C12.29 19.8798 12.31 19.7998 12.32 19.7298V12.7698C12.29 12.5698 12.18 12.3798 12.02 12.2498C11.86 12.1198 11.65 12.0698 11.44 12.0898C11.46 12.0698 10.32 12.0898 10.32 12.0898V10.4398H13.46V7.89977H14.99V10.3798H16.23V7.89977H17.78V10.4198C19.78 10.6098 21.36 11.2198 21.54 13.0598C21.67 14.3998 21.11 15.2198 20.21 15.6598C21.69 16.0098 22.61 16.8898 22.43 18.8598V18.8698Z" fill="currentColor"/>
</svg>
