<svg width="32" height="32" viewBox="0 0 32 32" fill="none" xmlns="http://www.w3.org/2000/svg">
  <path d="M16 0C7.16 0 0 7.16 0 16C0 24.84 7.16 32 16 32C24.84 32 32 24.84 32 16C32 7.16 24.84 0 16 0ZM26.71 16.59C26.71 18.06 25.52 19.25 24.06 19.25H15.46C13.99 19.25 12.8 18.06 12.8 16.59V15.88C12.8 14.41 13.99 13.22 15.46 13.22H24.06C25.53 13.22 26.71 14.41 26.71 15.88V16.59ZM26.71 8.39C26.71 10.08 25.34 11.44 23.66 11.44H15.28C12.93 11.44 11.03 13.34 11.03 15.69V16.77C11.03 19.12 12.93 21.02 15.28 21.02H23.66C25.35 21.02 26.71 22.39 26.71 24.07V27.2H8.88C6.53 27.2 4.63 25.3 4.63 22.95V9.37C4.63 7.02 6.53 5.12 8.88 5.12H26.71V8.38V8.39Z" fill="#213147"/>
</svg>
