<svg width="32" height="32" viewBox="0 0 32 32" fill="none" xmlns="http://www.w3.org/2000/svg">
<g clip-path="url(#clip0_294_308)">
<path d="M16 0C24.8408 0 32 7.15921 32 16C32 24.8408 24.8408 32 16 32C7.15923 32 0 24.8408 0 16C0 7.15921 7.15923 0 16 0Z" fill="url(#paint0_linear_294_308)"/>
<path d="M9.01195 13.9761C9.2234 14.4191 9.73693 15.2951 9.73693 15.2951L15.6778 5.50786L9.87792 9.54561C9.53556 9.77721 9.25362 10.0894 9.05224 10.4519C8.51857 11.5695 8.50849 12.8584 9.01195 13.9861V13.9761ZM6.65576 17.1982C6.72624 18.1347 6.98803 19.0409 7.43108 19.8666C7.87412 20.6922 8.49843 21.4172 9.24355 21.9811L15.6576 26.4317C15.6576 26.4317 11.6501 20.6721 8.25676 14.9327C7.91441 14.3285 7.68282 13.6639 7.57206 12.9792C7.52171 12.6671 7.52171 12.3549 7.57206 12.0428C7.48144 12.2039 7.31025 12.5362 7.31025 12.5362C6.9679 13.2309 6.7363 13.9761 6.61547 14.7514C6.54499 15.567 6.55508 16.3826 6.63563 17.1882L6.65576 17.1982ZM23.0182 17.9635C22.8068 17.5204 22.2932 16.6444 22.2932 16.6444L16.3524 26.4317L22.1523 22.404C22.4946 22.1724 22.7766 21.8603 22.9779 21.4978C23.5116 20.3801 23.5318 19.0912 23.0182 17.9635ZM25.3744 14.7413C25.3039 13.8049 25.0422 12.8987 24.5991 12.073C24.1561 11.2473 23.5318 10.5223 22.7866 9.95846L16.3725 5.50786C16.3725 5.50786 20.3801 11.2675 23.7734 17.0069C24.1158 17.6111 24.3474 18.2756 24.4481 18.9603C24.4984 19.2725 24.4984 19.5846 24.4481 19.8968C24.5387 19.7357 24.7099 19.4034 24.7099 19.4034C25.0522 18.7086 25.2838 17.9635 25.4046 17.1882C25.4751 16.3726 25.4651 15.5569 25.3845 14.7514L25.3744 14.7413Z" fill="white"/>
</g>
<defs>
<linearGradient id="paint0_linear_294_308" x1="25.7873" y1="33.2486" x2="-5.30644" y2="-21.4978" gradientUnits="userSpaceOnUse">
<stop stop-color="#44BCF0"/>
<stop offset="0.38" stop-color="#7298F8"/>
<stop offset="1" stop-color="#A099FF"/>
</linearGradient>
<clipPath id="clip0_294_308">
<rect width="32" height="32" fill="white"/>
</clipPath>
</defs>
</svg>
