<svg width="32" height="32" viewBox="0 0 32 32" fill="none" xmlns="http://www.w3.org/2000/svg">
<g clip-path="url(#clip0_294_3463)">
<path d="M16 32C24.8366 32 32 24.8366 32 16C32 7.16344 24.8366 0 16 0C7.16345 0 0 7.16344 0 16C0 24.8366 7.16345 32 16 32Z" fill="white"/>
<path d="M16.39 29.0956L24.3951 17.8063L16.39 22.6094V29.0956ZM24.1078 15.7024L16.39 2.8839V12.2027L24.1078 15.7024Z" fill="#3B3735"/>
<path d="M16.39 20.8647L24.0359 16.4208L16.39 12.9211V20.8647Z" fill="#1F1D19"/>
<path d="M7.94355 15.7024L15.6613 2.8839V12.2027L7.94355 15.7024Z" fill="#959190"/>
<path d="M15.6613 20.8647L8.0154 16.4208L15.6613 12.9211V20.8647Z" fill="#403C3A"/>
<path d="M15.6613 29.0956L7.65619 17.8063L15.6613 22.6094V29.0956Z" fill="#959190"/>
</g>
<defs>
<clipPath id="clip0_294_3463">
<rect width="32" height="32" fill="white"/>
</clipPath>
</defs>
</svg>
