<svg width="32" height="32" viewBox="0 0 32 32" fill="none" xmlns="http://www.w3.org/2000/svg">
  <path d="M16 32C24.8366 32 32 24.8366 32 16C32 7.16344 24.8366 0 16 0C7.16344 0 0 7.16344 0 16C0 24.8366 7.16344 32 16 32Z" fill="url(#paint0_linear_1629_13)"/>
  <path d="M25.08 17.02L24.38 14.3C24.36 14.22 24.3 14.16 24.22 14.14L21.53 13.48C21.53 13.48 21.49 13.48 21.47 13.48C21.41 13.48 21.34 13.49 21.29 13.54L16.75 18.08L16.15 15.73C16.13 15.65 16.07 15.59 15.99 15.57L13.68 15L18.22 10.46C18.22 10.46 18.26 10.4 18.27 10.37C18.29 10.33 18.3 10.27 18.28 10.23L17.58 7.51002C17.56 7.43002 17.5 7.37002 17.42 7.35002L14.73 6.69002C14.68 6.68002 14.62 6.69002 14.58 6.71002C14.58 6.71002 14.56 6.73002 14.54 6.73002C14.53 6.73002 14.51 6.74002 14.5 6.75002L6.75 14.5C6.75 14.5 6.74 14.52 6.73 14.53C6.68 14.59 6.66 14.66 6.69 14.74L7.44 17.37C7.46 17.45 7.52 17.5 7.59 17.52L10.11 18.24L10.83 20.76C10.85 20.84 10.91 20.89 10.98 20.91L13.51 21.64L14.24 24.17C14.26 24.25 14.32 24.3 14.39 24.32L17.03 25.08C17.03 25.08 17.07 25.08 17.09 25.08C17.09 25.08 17.09 25.08 17.11 25.08C17.17 25.08 17.23 25.06 17.27 25.01L25.02 17.26C25.02 17.26 25.06 17.2 25.07 17.17C25.09 17.13 25.1 17.07 25.08 17.03V17.02ZM21.61 20.03L21.04 17.82L22.29 16.57L24.44 17.19L21.6 20.03H21.61ZM17.21 24.43L16.64 22.22L18.91 19.95L21.06 20.57L17.2 24.43H17.21ZM18.96 19.27L18.42 17.38L20.37 17.86L18.96 19.27ZM20.67 18.19L21.17 20.13L19.28 19.59L20.68 18.19H20.67ZM20.74 17.49L18.53 16.95L21.36 14.12L21.97 16.26L20.73 17.5L20.74 17.49ZM17.98 17.49L18.59 19.63L16.33 21.89L14.12 21.35L17.98 17.49ZM23.98 14.54L24.55 16.75L22.41 16.14L21.8 14.01L23.99 14.55L23.98 14.54ZM13.8 21.01L13.23 18.8L14.05 17.98L16.21 18.6L13.8 21.01ZM14.1 17.31L13.56 15.42L15.51 15.9L14.1 17.31ZM16.31 18.17L14.42 17.63L15.82 16.23L16.32 18.17H16.31ZM13.74 17.67L12.93 18.48L10.72 17.94L13.12 15.54L13.73 17.68L13.74 17.67ZM11.2 10.67L11.81 12.81L9.53 15.09L7.32 14.55L11.2 10.67ZM14.56 7.30002L15.17 9.44002L13.95 10.66L11.74 10.12L14.56 7.30002ZM14.82 13.2L14.25 10.99L15.48 9.76002L17.63 10.38L14.81 13.2H14.82ZM12.17 12.44L11.63 10.55L13.58 11.03L12.17 12.44ZM13.89 11.36L14.39 13.3L12.5 12.76L13.9 11.36H13.89ZM12.13 13.12L14.28 13.74L10.4 17.62L9.83 15.41L12.12 13.12H12.13ZM17.18 7.73002L17.75 9.94002L15.61 9.33002L15 7.20002L17.19 7.74002L17.18 7.73002ZM7.22 14.97L9.17 15.45L7.77 16.85L7.23 14.96L7.22 14.97ZM8.07 17.18L9.47 15.78L9.97 17.72L8.08 17.18H8.07ZM11.22 20.5L10.61 18.37L12.8 18.91L13.37 21.12L11.23 20.51L11.22 20.5ZM14.02 21.78L15.97 22.26L14.57 23.66L14.03 21.77L14.02 21.78ZM14.88 23.98L16.28 22.58L16.78 24.52L14.89 23.98H14.88Z" fill="url(#paint1_linear_1629_13)"/>
  <path fill-rule="evenodd" clip-rule="evenodd" d="M16 31.2C24.39 31.2 31.2 24.39 31.2 16C31.2 7.60999 24.39 0.799988 16 0.799988C7.60999 0.799988 0.799988 7.60999 0.799988 16C0.799988 24.39 7.60999 31.2 16 31.2ZM16 30.4C23.95 30.4 30.4 23.95 30.4 16C30.4 8.04999 23.95 1.59999 16 1.59999C8.04999 1.59999 1.59999 8.04999 1.59999 16C1.59999 23.95 8.04999 30.4 16 30.4Z" fill="url(#paint2_linear_1629_13)"/>
  <defs>
    <linearGradient id="paint0_linear_1629_13" x1="-4.35" y1="31.78" x2="53.78" y2="-13.29" gradientUnits="userSpaceOnUse">
      <stop offset="0.15" stop-color="#181639"/>
      <stop offset="0.33" stop-color="#181639"/>
      <stop offset="1" stop-color="#45109B"/>
    </linearGradient>
    <linearGradient id="paint1_linear_1629_13" x1="2.19664" y1="21.0051" x2="29.938" y2="10.9352" gradientUnits="userSpaceOnUse">
      <stop stop-color="#5CB8F3"/>
      <stop offset="0.43" stop-color="#6464DB"/>
      <stop offset="1" stop-color="#A75FF1"/>
    </linearGradient>
    <linearGradient id="paint2_linear_1629_13" x1="-3.33001" y1="30.99" x2="51.89" y2="-11.82" gradientUnits="userSpaceOnUse">
      <stop stop-color="#45109B"/>
      <stop offset="0.67" stop-color="#181639"/>
      <stop offset="0.85" stop-color="#181639"/>
    </linearGradient>
  </defs>
</svg>
