<svg width="32" height="32" viewBox="0 0 32 32" fill="none" xmlns="http://www.w3.org/2000/svg">
  <path d="M17.74 9.94L17.18 7.73L14.99 7.19L15.6 9.33L17.74 9.94Z" fill="#213147"/>
  <path d="M14.26 10.99L14.82 13.2L17.64 10.38L15.49 9.76001L14.26 10.99Z" fill="#213147"/>
  <path d="M12.17 12.44L13.58 11.03L11.63 10.55L12.17 12.44Z" fill="#213147"/>
  <path d="M12.49 12.76L14.38 13.3L13.89 11.36L12.49 12.76Z" fill="#213147"/>
  <path d="M11.81 12.8L11.2 10.67L7.33002 14.54L9.53002 15.08L11.81 12.8Z" fill="#213147"/>
  <path d="M16.31 18.17L15.81 16.23L14.42 17.63L16.31 18.17Z" fill="#213147"/>
  <path d="M16.34 21.89L18.6 19.63L17.98 17.49L14.13 21.34L16.34 21.89Z" fill="#213147"/>
  <path d="M18.96 19.27L20.37 17.86L18.42 17.38L18.96 19.27Z" fill="#213147"/>
  <path d="M10.72 17.93L12.93 18.48L13.74 17.67L13.12 15.53L10.72 17.93Z" fill="#213147"/>
  <path d="M21.98 16.25L21.37 14.11L18.53 16.95L20.74 17.49L21.98 16.25Z" fill="#213147"/>
  <path d="M7.21997 14.97L7.75997 16.86L9.15997 15.45L7.21997 14.97Z" fill="#213147"/>
  <path d="M14.1 17.31L15.5 15.9L13.56 15.42L14.1 17.31Z" fill="#213147"/>
  <path d="M15.17 9.43999L14.56 7.29999L11.75 10.12L13.95 10.66L15.17 9.43999Z" fill="#213147"/>
  <path d="M21.04 17.82L21.61 20.03L24.45 17.19L22.3 16.57L21.04 17.82Z" fill="#213147"/>
  <path d="M16.65 22.22L17.21 24.43L21.07 20.57L18.91 19.95L16.65 22.22Z" fill="#213147"/>
  <path d="M20.67 18.19L19.28 19.58L21.17 20.13L20.67 18.19Z" fill="#213147"/>
  <path d="M16 0C7.16 0 0 7.16 0 16C0 24.84 7.16 32 16 32C24.84 32 32 24.84 32 16C32 7.16 24.84 0 16 0ZM25.07 17.16C25.07 17.16 25.04 17.23 25.02 17.25L17.27 25C17.27 25 17.17 25.07 17.11 25.07C17.11 25.07 17.1 25.07 17.09 25.07C17.07 25.07 17.05 25.07 17.03 25.07L14.39 24.31C14.32 24.29 14.26 24.23 14.24 24.16L13.51 21.63L10.98 20.9C10.91 20.88 10.85 20.82 10.83 20.75L10.11 18.23L7.59 17.51C7.52 17.49 7.46 17.43 7.44 17.36L6.69 14.73C6.67 14.66 6.69 14.58 6.73 14.52C6.73 14.51 6.75 14.49 6.75 14.49L14.5 6.74C14.5 6.74 14.52 6.72 14.54 6.72C14.55 6.72 14.56 6.7 14.58 6.7C14.58 6.7 14.68 6.67 14.73 6.68L17.42 7.34C17.5 7.36 17.56 7.42 17.58 7.5L18.28 10.22C18.28 10.22 18.28 10.32 18.27 10.36C18.26 10.39 18.24 10.43 18.22 10.45L13.68 14.99L15.99 15.56C16.07 15.58 16.13 15.64 16.15 15.72L16.75 18.07L21.29 13.53C21.29 13.53 21.41 13.46 21.47 13.47C21.49 13.47 21.51 13.47 21.53 13.47L24.22 14.13C24.3 14.15 24.36 14.21 24.38 14.29L25.08 17.01C25.08 17.01 25.08 17.11 25.07 17.15V17.16Z" fill="#213147"/>
  <path d="M21.8 14L22.41 16.13L24.55 16.75L23.98 14.54L21.8 14Z" fill="#213147"/>
  <path d="M8.07001 17.18H8.08001L9.97001 17.72L9.47001 15.78L8.07001 17.18Z" fill="#213147"/>
  <path d="M10.61 18.37L11.22 20.5L13.36 21.12L12.8 18.91L10.61 18.37Z" fill="#213147"/>
  <path d="M12.13 13.12L9.84003 15.41L10.41 17.61L14.28 13.74L12.13 13.12Z" fill="#213147"/>
  <path d="M14.88 23.98L16.77 24.53L16.28 22.59L14.88 23.98Z" fill="#213147"/>
  <path d="M14.05 17.99L13.23 18.81L13.8 21.01L16.21 18.61L14.05 17.99Z" fill="#213147"/>
  <path d="M14.02 21.78L14.56 23.66L15.97 22.26L14.02 21.78Z" fill="#213147"/>
</svg>
