<svg xmlns="http://www.w3.org/2000/svg" fill="none" viewBox="0 0 60 60">
  <circle cx="30.0007" cy="29.9993" r="30" fill="url(#paint0_linear_12938_73089)"/>
  <g clip-path="url(#clip0_12938_73089)">
    <path fill="url(#paint1_linear_12938_73089)" d="m47.0323 31.907-1.3066-5.0934c-.0374-.1498-.1581-.2663-.3079-.3038l-5.0476-1.2443c-.0375-.0082-.0791-.0124-.1166-.0124-.1206-.0124-.2455.025-.337.1165l-8.5182 8.5182-1.1276-4.4027c-.0375-.1498-.1582-.2663-.308-.3037l-4.3361-1.0695 8.514-8.514c.05-.0499.0791-.1123.0999-.1748.0375-.0832.05-.1789.025-.2705l-1.3066-5.0934c-.0375-.1498-.1582-.2663-.308-.3037l-5.0477-1.2443c-.0998-.0249-.1997-.0083-.2871.0333h-.0042c-.0249.0125-.0457.0292-.0707.0458-.0208.0167-.0499.025-.0666.0458L12.6435 27.159s-.0249.0416-.0416.0624c-.0915.1082-.1248.2497-.0832.387l1.4107 4.9228c.0416.1415.1498.2497.2871.2872l4.7272 1.3565 1.3566 4.7231c.0416.1415.1498.2496.2871.2871l4.7439 1.3607 1.3607 4.7439c.0417.1415.1498.2497.2871.2872l4.9436 1.4189c.0375.0124.0791.0168.1165.0168.0084 0 .0168-.0044.0292-.0044h.0083c.1082 0 .2164-.0414.2996-.1247l14.5353-14.5354c.0499-.05.0792-.1124.1001-.1747.0374-.0833.0499-.179.025-.2706l-.0044.0042Zm-6.5165 5.6468-1.0611-4.1404 2.3511-2.347 4.0406 1.161L40.52 37.558l-.0042-.0042Zm-8.2435 8.2436-1.0611-4.1405 4.2528-4.2528 4.0406 1.161-7.2323 7.2323Zm3.2791-9.6709-1.0154-3.5371 3.6495.8989-2.6341 2.6341v.0041Zm3.2125-2.0224.9321 3.6329-3.5496-1.0196L38.7639 34.1v.0041Zm.1207-1.3107-4.1363-1.0195 5.314-5.314 1.1484 4.0073-2.3261 2.3262Zm-5.1641.0041 1.1484 4.0074-4.232 4.232-4.1363-1.0195 7.2199-7.2199Zm11.252-5.5386 1.0612 4.1404-4.0115-1.1526-1.1485-3.9991 4.0988 1.0113ZM25.8764 39.4015l-1.0612-4.1405 1.5314-1.5314 4.0407 1.161-4.5109 4.5109Zm.5576-6.9494-1.0153-3.537 3.6494.8988-2.6341 2.6341v.0041Zm4.1447 1.6146-3.5496-1.0195 2.6174-2.6175.9322 3.6328v.0042Zm-4.8229-.9321-1.5106 1.5106-4.1363-1.0195 4.4983-4.4984 1.1486 4.0073Zm-4.7606-13.1372 1.1485 4.0074-4.2694 4.2694-4.1364-1.0195 7.2573-7.2573Zm6.3044-6.3044 1.1485 4.0074-2.2887 2.2887-4.1363-1.0195 5.2765-5.2766Zm.491 11.0566-1.0611-4.1364 2.3136-2.3136 4.0406 1.1568-5.2931 5.2932Zm-4.9644-1.4232-1.0154-3.5371 3.6495.8989-2.6341 2.6341v.0041Zm3.2125-2.0224.9321 3.6328-3.5454-1.0195 2.6175-2.6174-.0042.0041Zm-3.2957 3.2958 4.0406 1.1568-7.2698 7.2698-1.0611-4.1363 4.2903-4.2903Zm9.4669-10.0995 1.0611 4.1405-4.0115-1.1526-1.1485-3.9991 4.0989 1.0112Zm-18.68 13.5741 3.6494.8989-2.6341 2.6341-1.0153-3.5371v.0041Zm1.6104 4.1322 2.6175-2.6175.9321 3.6329-3.5454-1.0195-.0042.0041Zm5.9049 6.2378-1.1485-3.999 4.0988 1.0112 1.0611 4.1405-4.0114-1.1527Zm5.2473 2.3927 3.6495.8988-2.6341 2.6341-1.0154-3.537v.0041Zm1.6104 4.1322 2.6175-2.6175.9321 3.6328-3.5496-1.0195v.0042Z"/>
  </g>
  <path fill="url(#paint2_linear_12938_73089)" fill-rule="evenodd" d="M30 58.4993c15.7401 0 28.5-12.7599 28.5-28.5S45.7401 1.49927 30 1.49927 1.5 14.2592 1.5 29.9993c0 15.7401 12.7599 28.5 28.5 28.5Zm-.0007-1.5008c14.9117 0 27-12.0883 27-27 0-14.9116-12.0883-26.99996-27-26.99996S2.99927 15.0869 2.99927 29.9985c0 14.9117 12.08833 27 27.00003 27Z" clip-rule="evenodd"/>
  <defs>
    <linearGradient id="paint0_linear_12938_73089" x1="-8.37427" x2="100.608" y1="59.2993" y2="-25.2072" gradientUnits="userSpaceOnUse">
      <stop offset=".14815" stop-color="#19163B"/>
      <stop offset=".331609" stop-color="#19163B"/>
      <stop offset="1" stop-color="#4C09A2"/>
    </linearGradient>
    <linearGradient id="paint1_linear_12938_73089" x1="14.8948" x2="44.8103" y1="35.1736" y2="24.2835" gradientUnits="userSpaceOnUse">
      <stop stop-color="#29BCFA"/>
      <stop offset=".43" stop-color="#6464E4"/>
      <stop offset="1" stop-color="#B45AFA"/>
    </linearGradient>
    <linearGradient id="paint2_linear_12938_73089" x1="-6.45625" x2="97.0766" y1="57.8343" y2="-22.4469" gradientUnits="userSpaceOnUse">
      <stop stop-color="#4C09A2"/>
      <stop offset=".668391" stop-color="#19163B"/>
      <stop offset=".85185" stop-color="#19163B"/>
    </linearGradient>
    <clipPath id="clip0_12938_73089">
      <path fill="#fff" d="M0 0h35v35H0z" transform="translate(12.5002 12.4995)"/>
    </clipPath>
  </defs>
  <script type="text/javascript"/>
</svg>