<svg width="32" height="33" viewBox="0 0 32 33" fill="none" xmlns="http://www.w3.org/2000/svg">
<path d="M16 0.169983C24.84 0.169983 32 7.32998 32 16.17C32 25.01 24.84 32.17 16 32.17C7.16002 32.17 0 25.01 0 16.17C0 7.32998 7.16002 0.169983 16 0.169983Z" fill="black"/>
<path d="M5.13 9.73997L22.48 27.09L26.94 22.63L9.59 5.27997L5.13 9.73997Z" fill="white"/>
<path d="M9.59 27.09L26.94 9.73997L22.48 5.27997L5.13 22.63L9.59 27.09Z" fill="white"/>
<path d="M16 6.08997C21.57 6.08997 26.08 10.6 26.08 16.17C26.08 21.74 21.57 26.25 16 26.25C10.43 26.25 5.92 21.74 5.92 16.17C5.92 10.6 10.43 6.08997 16 6.08997Z" fill="black"/>
<path d="M16 8.12L11.14 16.33L16 14.07V8.12Z" fill="white"/>
<path d="M16 19.23L11.14 16.32L16 14.07V19.23Z" fill="#B1B1B1"/>
<path d="M16 20.18L11.14 17.27L16 24.22V20.18Z" fill="white"/>
<path d="M16 8.12L20.86 16.33L16 14.07V8.12Z" fill="#B7B7B7"/>
<path d="M16 19.23L20.86 16.33L16 14.07V19.23Z" fill="#949090"/>
<path d="M16 20.18L20.86 17.32L16 24.22V20.18Z" fill="#949090"/>
</svg>
