<svg width="32" height="32" viewBox="0 0 32 32" fill="none" xmlns="http://www.w3.org/2000/svg">
<g clip-path="url(#clip0_297_3)">
<path d="M21.7165 21.2854H20.5054V23.0506H21.7165C22.0244 23.0506 22.2604 22.9788 22.4143 22.8351C22.5786 22.6914 22.6504 22.4862 22.6504 22.2193V22.1064C22.6504 21.8807 22.5683 21.6857 22.4143 21.5317C22.2501 21.3675 22.0244 21.2854 21.7165 21.2854Z" fill="#213147"/>
<path d="M16 0C7.16356 0 0 7.16357 0 16C0 24.8364 7.16356 32 16 32C24.8364 32 32 24.8364 32 16C32 7.16357 24.8364 0 16 0ZM12.1616 26.7966H7.79987V20.0744H12.0385V21.2854H9.06223V22.8249H11.9256V24.0359H9.06223V25.5959H12.1514V26.8069L12.1616 26.7966ZM18.2476 24.467C18.2476 25.2367 18.0423 25.8319 17.6318 26.2732C17.2316 26.7043 16.626 26.9301 15.8255 26.9301C15.025 26.9301 14.4195 26.7145 14.009 26.2732C13.6087 25.8422 13.4035 25.2367 13.4035 24.467V20.0744H14.6658V24.467C14.6658 24.8672 14.7582 25.1751 14.9429 25.4009C15.1276 25.6267 15.415 25.7396 15.8153 25.7396C16.2155 25.7396 16.5029 25.6267 16.6876 25.4009C16.8724 25.1751 16.9647 24.8672 16.9647 24.467V20.0744H18.2271V24.467H18.2476ZM24.1591 22.1578C24.1591 22.4349 24.0872 22.6915 23.9333 22.9378C23.7896 23.1738 23.5638 23.3586 23.2559 23.4817V23.6562C23.4817 23.6767 23.6562 23.7691 23.7793 23.9128C23.9128 24.0564 23.9846 24.2412 23.9846 24.467V26.7864H22.7223V24.7748C22.7223 24.6209 22.6812 24.4977 22.5991 24.4054C22.5273 24.313 22.3938 24.2617 22.2091 24.2617H20.7518V26.7966H19.4894V20.0744H22.0654C22.4144 20.0744 22.712 20.1257 22.9788 20.2181C23.2457 20.3104 23.4612 20.4439 23.6356 20.6183C23.8101 20.7825 23.9538 20.9775 24.0359 21.2033C24.1283 21.4291 24.1796 21.6652 24.1796 21.9217V22.1475L24.1591 22.1578ZM21.501 18.3707L16.1026 13.0135L16.0103 12.9211L15.9179 13.0135L10.5196 18.381L5.21361 13.1161L16.0103 2.38101L26.8069 13.1161L21.5112 18.381L21.501 18.3707Z" fill="#213147"/>
</g>
<defs>
<clipPath id="clip0_297_3">
<rect width="32" height="32" fill="white"/>
</clipPath>
</defs>
</svg>
