<svg width="32" height="32" viewBox="0 0 32 32" fill="none" xmlns="http://www.w3.org/2000/svg">
<path d="M16 32C24.8 32 32 24.8 32 16C32 7.2 24.8 0 16 0C7.2 0 0 7.2 0 16C0 24.8 7.2 32 16 32Z" fill="#3E73C4"/>
<path d="M10.22 16.75L9.63 17.55C9.49 17.83 9.69 18.15 10 18.15H11.93C12.54 20.67 14.3 22.39 16.65 22.36C18.32 22.36 19.58 21.53 20.42 19.87C20.53 19.66 20.43 19.4 20.22 19.3L19.3 18.89C19.1 18.8 18.86 18.89 18.76 19.08C18.33 19.96 17.6 20.52 16.65 20.52C15.79 20.52 15.09 20.1 14.56 19.24C14.35 18.91 14.19 18.54 14.06 18.14H16.53C16.69 18.14 16.83 18.05 16.9 17.91L17.49 17.11C17.63 16.83 17.43 16.51 17.12 16.51H13.78C13.78 16.34 13.76 16.16 13.76 15.98C13.76 15.8 13.76 15.63 13.77 15.45H16.52C16.68 15.45 16.82 15.36 16.89 15.22L17.48 14.42C17.62 14.14 17.42 13.82 17.11 13.82H14.05C14.5 12.36 15.43 11.4 16.64 11.42C17.56 11.42 18.27 11.92 18.73 12.74C18.83 12.92 19.06 13 19.26 12.91L20.19 12.5C20.41 12.4 20.51 12.13 20.39 11.92C19.54 10.38 18.29 9.6 16.65 9.6C15.16 9.6 13.96 10.19 13.05 11.37C12.52 12.06 12.15 12.88 11.93 13.81H10.59C10.43 13.81 10.29 13.9 10.22 14.04L9.63 14.84C9.49 15.12 9.69 15.44 10 15.44H11.71C11.71 15.61 11.69 15.79 11.69 15.97C11.69 16.15 11.69 16.32 11.69 16.5H10.57C10.41 16.5 10.27 16.59 10.2 16.73L10.22 16.75Z" fill="white"/>
<path d="M8.31 23.49C4.56 19.66 4.24 13.56 7.57 9.36C9.32 7.15 11.73 5.83 14.28 5.42C14.53 5.38 14.71 5.17 14.71 4.92V3.86C14.71 3.55 14.44 3.3 14.13 3.35C11.12 3.79 8.25 5.3 6.14 7.85C1.95 12.9 2.29 20.39 6.92 25.03C8.92 27.04 11.41 28.24 13.99 28.64C14.3 28.69 14.58 28.45 14.58 28.13V27.07C14.58 26.82 14.41 26.61 14.16 26.56C12.02 26.19 9.97 25.17 8.31 23.48V23.49Z" fill="white"/>
<path d="M18.02 3.36C17.71 3.31 17.43 3.55 17.43 3.87V4.93C17.43 5.18 17.6 5.39 17.85 5.44C19.99 5.81 22.04 6.83 23.7 8.52C27.45 12.35 27.77 18.45 24.44 22.65C22.69 24.86 20.28 26.18 17.73 26.59C17.48 26.63 17.3 26.84 17.3 27.09V28.15C17.3 28.46 17.57 28.71 17.88 28.66C20.89 28.22 23.76 26.71 25.87 24.16C30.06 19.11 29.72 11.62 25.09 6.98C23.09 4.97 20.6 3.77 18.02 3.37V3.36Z" fill="white"/>
</svg>
