<svg width="32" height="32" viewBox="0 0 32 32" fill="none" xmlns="http://www.w3.org/2000/svg">
<path d="M16 0C7.2 0 0 7.2 0 16C0 24.8 7.2 32 16 32C24.8 32 32 24.8 32 16C32 7.2 24.8 0 16 0ZM14.57 28.13C14.57 28.44 14.29 28.68 13.98 28.64C11.4 28.23 8.92 27.04 6.91 25.03C2.28 20.38 1.94 12.89 6.13 7.85C8.24 5.31 11.11 3.8 14.12 3.35C14.43 3.3 14.71 3.55 14.71 3.86V4.92C14.71 5.17 14.52 5.38 14.27 5.42C11.72 5.83 9.31 7.15 7.56 9.36C4.23 13.57 4.55 19.66 8.3 23.49C9.95 25.18 12.01 26.2 14.15 26.57C14.4 26.61 14.57 26.83 14.57 27.08V28.14V28.13ZM11.93 18.15H10C9.69 18.15 9.49 17.82 9.63 17.55L10.22 16.75C10.29 16.61 10.43 16.52 10.59 16.52H11.71C11.71 16.35 11.7 16.17 11.71 15.99C11.71 15.81 11.71 15.64 11.73 15.46H10.02C9.71 15.46 9.51 15.13 9.65 14.86L10.24 14.06C10.31 13.92 10.45 13.83 10.61 13.83H11.95C12.17 12.9 12.54 12.09 13.07 11.39C13.98 10.21 15.17 9.62 16.67 9.62C18.31 9.62 19.55 10.39 20.41 11.94C20.53 12.15 20.43 12.42 20.21 12.52L19.28 12.93C19.09 13.02 18.86 12.94 18.75 12.76C18.29 11.94 17.58 11.44 16.66 11.44C15.46 11.42 14.52 12.38 14.07 13.84H17.13C17.44 13.84 17.64 14.17 17.5 14.44L16.91 15.24C16.84 15.38 16.7 15.47 16.54 15.47H13.79C13.79 15.64 13.78 15.82 13.78 16C13.78 16.18 13.78 16.35 13.8 16.53H17.14C17.45 16.53 17.65 16.86 17.51 17.13L16.92 17.93C16.85 18.07 16.71 18.16 16.55 18.16H14.08C14.21 18.56 14.37 18.93 14.58 19.26C15.11 20.11 15.8 20.54 16.67 20.54C17.62 20.54 18.35 19.98 18.78 19.1C18.88 18.9 19.12 18.82 19.32 18.91L20.24 19.32C20.46 19.42 20.55 19.67 20.44 19.89C19.6 21.55 18.34 22.38 16.67 22.38C14.32 22.42 12.56 20.7 11.95 18.17L11.93 18.15ZM25.86 24.17C23.75 26.72 20.88 28.22 17.87 28.67C17.56 28.72 17.28 28.47 17.28 28.16V27.1C17.28 26.85 17.47 26.64 17.72 26.6C20.27 26.19 22.68 24.87 24.43 22.66C27.76 18.45 27.44 12.36 23.69 8.53C22.04 6.84 19.98 5.82 17.84 5.45C17.59 5.41 17.42 5.19 17.42 4.94V3.88C17.42 3.57 17.71 3.33 18.02 3.37C20.6 3.78 23.08 4.98 25.09 6.98C29.72 11.63 30.06 19.12 25.87 24.16L25.86 24.17Z" fill="currentColor"/>
</svg>
