<svg width="32" height="32" viewBox="0 0 32 32" fill="none" xmlns="http://www.w3.org/2000/svg">
<g clip-path="url(#clip0_2491_137)">
<path d="M16.01 0C7.17 0 0 7.16 0 16C0 24.84 7.16 32 16 32C24.84 32 32 24.84 32 16C32 7.16 24.84 0 16 0H16.01ZM14.87 23.46C14.08 23.46 13.39 23.29 12.79 22.94C12.19 22.58 11.72 22.08 11.38 21.44C11.05 20.79 10.89 20.04 10.89 19.19H12.3C12.3 20.05 12.54 20.75 13.01 21.3C13.49 21.83 14.13 22.09 14.92 22.09H17.1C17.87 22.09 18.49 21.91 18.97 21.55C19.44 21.17 19.68 20.69 19.68 20.09V18.76C19.68 18.29 19.5 17.88 19.15 17.55C18.81 17.22 18.34 17 17.74 16.9L14.2 16.27C13.2 16.09 12.43 15.71 11.88 15.14C11.33 14.57 11.05 13.85 11.05 12.99V11.86C11.05 10.84 11.4 10.04 12.11 9.44C12.83 8.83 13.78 8.52 14.96 8.52H15.31V6.39H16.72V8.52H17.17C18.28 8.52 19.18 8.88 19.86 9.6C20.54 10.31 20.88 11.25 20.88 12.42H19.47C19.47 11.66 19.26 11.04 18.84 10.58C18.42 10.12 17.86 9.89 17.17 9.89H14.95C14.2 9.89 13.61 10.07 13.16 10.43C12.71 10.78 12.49 11.25 12.49 11.85V12.98C12.49 13.47 12.65 13.88 12.98 14.21C13.32 14.54 13.79 14.77 14.37 14.88L17.89 15.53C18.91 15.72 19.7 16.1 20.27 16.66C20.83 17.2 21.11 17.9 21.11 18.75V20.08C21.11 21.1 20.74 21.92 20.01 22.54C19.28 23.15 18.31 23.46 17.12 23.46H16.71V25.59H15.3V23.46H14.87ZM13.44 2.83V4.08C7.95 5.25 3.83 10.13 3.83 15.97C3.83 21.81 7.95 26.69 13.44 27.86V29.11C7.26 27.92 2.6 22.49 2.6 15.96C2.6 9.43 7.27 4 13.44 2.81V2.83ZM18.56 29.12V27.86C24.04 26.68 28.15 21.81 28.15 15.97C28.15 10.13 24.04 5.26 18.56 4.08V2.82C24.72 4.02 29.38 9.45 29.38 15.96C29.38 22.47 24.73 27.9 18.56 29.1V29.12Z" fill="#213147"/>
</g>
<defs>
<clipPath id="clip0_2491_137">
<rect width="32" height="32" fill="white"/>
</clipPath>
</defs>
</svg>
