<svg xmlns="http://www.w3.org/2000/svg" fill="none" viewBox="0 0 227 230"><path fill="url(#a)" d="M226.623 64.22 128.678 0v35.905l62.832 40.83-7.392 23.39h-55.44v29.75h55.44l7.392 23.39-62.832 40.83V230l97.945-64.014-16.016-50.883 16.016-50.884Z"/><path fill="url(#b)" d="M43.464 129.875h55.235v-29.75H43.26l-7.187-23.39 62.627-40.83V0L.754 64.22l16.016 50.883L.755 165.986 98.904 230v-35.905l-62.832-40.83 7.392-23.39Z"/><mask id="e" width="227" height="230" x="0" y="0" maskUnits="userSpaceOnUse" style="mask-type:alpha"><path fill="url(#c)" d="M226.623 64.22 128.678 0v35.905l62.833 40.83-7.392 23.39h-55.441v29.75h55.441l7.392 23.39-62.833 40.83V230l97.945-64.014-16.016-50.883 16.016-50.884Z"/><path fill="url(#d)" d="M43.464 129.875H98.7v-29.75H43.26l-7.187-23.39L98.7 35.905V0L.755 64.22l16.016 50.883L.755 165.986 98.905 230v-35.905l-62.833-40.83 7.392-23.39Z"/></mask><g mask="url(#e)"><path fill="url(#f)" d="M.875 0h224.25v230H.875z"/></g><defs><linearGradient id="a" x1="194.938" x2="129.33" y1="245.813" y2="-25.259" gradientUnits="userSpaceOnUse"><stop stop-color="#0B46F9"/><stop offset="1" stop-color="#BBFBE0"/></linearGradient><linearGradient id="b" x1="194.938" x2="129.33" y1="245.813" y2="-25.259" gradientUnits="userSpaceOnUse"><stop stop-color="#0B46F9"/><stop offset="1" stop-color="#BBFBE0"/></linearGradient><linearGradient id="c" x1="194.938" x2="129.33" y1="245.813" y2="-25.259" gradientUnits="userSpaceOnUse"><stop stop-color="#0B46F9"/><stop offset="1" stop-color="#BBFBE0"/></linearGradient><linearGradient id="d" x1="194.938" x2="129.33" y1="245.813" y2="-25.259" gradientUnits="userSpaceOnUse"><stop stop-color="#0B46F9"/><stop offset="1" stop-color="#BBFBE0"/></linearGradient><linearGradient id="f" x1="15.251" x2="128.813" y1="51.75" y2="136.562" gradientUnits="userSpaceOnUse"><stop offset=".12" stop-color="#8952FF" stop-opacity=".87"/><stop offset="1" stop-color="#DABDFF" stop-opacity="0"/></linearGradient></defs></svg>