<svg width="32" height="32" viewBox="0 0 32 32" fill="none" xmlns="http://www.w3.org/2000/svg">
  <path d="M16 32C24.8366 32 32 24.8366 32 16C32 7.16344 24.8366 0 16 0C7.16344 0 0 7.16344 0 16C0 24.8366 7.16344 32 16 32Z" fill="white"/>
  <path d="M28.8887 10.1955L17.6979 2.86043V6.9587L24.874 11.6257L24.0293 14.2938H17.6979V17.6895H24.0293L24.874 20.3576L17.6979 25.0246V29.1228L28.8887 21.8129L27.057 16L28.8887 10.1871V10.1955Z" fill="url(#paint0_linear_1209_3060)"/>
  <path d="M7.96236 17.6979H14.2687V14.3021H7.93727L7.11762 11.6341L14.2687 6.96707V2.86043L3.08625 10.1955L4.91793 16.0084L3.08625 21.8212L14.3021 29.1312V25.0329L7.12598 20.3659L7.97073 17.6979H7.96236Z" fill="url(#paint1_linear_1209_3060)"/>
  <path d="M28.8887 10.1955L17.6979 2.86043V6.9587L24.874 11.6257L24.0293 14.2938H17.6979V17.6895H24.0293L24.874 20.3576L17.6979 25.0246V29.1228L28.8887 21.8129L27.057 16L28.8887 10.1871V10.1955Z" fill="url(#paint2_radial_1209_3060)"/>
  <path d="M7.96236 17.6979H14.2687V14.3021H7.93727L7.11762 11.6341L14.2687 6.96707V2.86043L3.08625 10.1955L4.91793 16.0084L3.08625 21.8212L14.3021 29.1312V25.0329L7.12598 20.3659L7.97073 17.6979H7.96236Z" fill="url(#paint3_radial_1209_3060)"/>
  <defs>
    <linearGradient id="paint0_linear_1209_3060" x1="23.6771" y1="34.0076" x2="19.6016" y2="-5.50946" gradientUnits="userSpaceOnUse">
      <stop stop-color="#1F45EE"/>
      <stop offset="1" stop-color="#C7F8E1"/>
    </linearGradient>
    <linearGradient id="paint1_linear_1209_3060" x1="30.7114" y1="37.5727" x2="26.6295" y2="-1.93018" gradientUnits="userSpaceOnUse">
      <stop stop-color="#1F45EE"/>
      <stop offset="1" stop-color="#C7F8E1"/>
    </linearGradient>
    <radialGradient id="paint2_radial_1209_3060" cx="0" cy="0" r="1" gradientUnits="userSpaceOnUse" gradientTransform="translate(-44.1256 0.428025) scale(83.9462 35.7707)">
      <stop offset="0.12" stop-color="#8055F5" stop-opacity="0.87"/>
      <stop offset="0.37" stop-color="#9873F6" stop-opacity="0.55"/>
      <stop offset="1" stop-color="#D4BDF9" stop-opacity="0"/>
    </radialGradient>
    <radialGradient id="paint3_radial_1209_3060" cx="0" cy="0" r="1" gradientUnits="userSpaceOnUse" gradientTransform="translate(2.2666 3.21169) scale(29.357)">
      <stop offset="0.12" stop-color="#8055F5" stop-opacity="0.87"/>
      <stop offset="1" stop-color="#D4BDF9" stop-opacity="0"/>
    </radialGradient>
  </defs>
</svg>
