<svg width="32" height="32" viewBox="0 0 32 32" fill="none" xmlns="http://www.w3.org/2000/svg">
  <path d="M16 0C24.84 0 32 7.12629 32 15.9247C32 24.7231 24.84 31.8494 16 31.8494C7.16 31.8494 0 24.7231 0 15.9247C0 7.12629 7.16 0 16 0Z" fill="black"/>
  <path d="M16 8.36046L10.95 16.1138L16 13.9839V8.36046Z" fill="#CFFC79"/>
  <path d="M16 18.8508L10.95 16.1038L16 13.9839V18.8508Z" fill="#A3CE48"/>
  <path d="M16 19.6272L10.95 16.7806L16 23.5685V19.6272Z" fill="#CFFC79"/>
  <path d="M16 8.36046L21.05 16.1138L16 13.9839V8.36046Z" fill="#A3CE48"/>
  <path d="M16 18.8508L21.05 16.1138L16 13.9839V18.8508Z" fill="#CFFC79"/>
  <path d="M16 19.6272L21.05 16.8304L16 23.5685V19.6272Z" fill="#A3CE48"/>
</svg>
