<svg width="32" height="32" viewBox="0 0 32 32" fill="none" xmlns="http://www.w3.org/2000/svg">
  <path d="M9.96 15.86H9.94V15.87L9.95 15.88L15.44 18.79C15.44 18.79 15.51 18.82 15.55 18.84V12.9C15.55 12.9 15.47 12.93 15.44 12.95L9.95 15.86H9.96Z" fill="#C4BFB8"/>
  <path d="M9.87 9.72V14.9L14.81 12.31L9.87 9.72Z" fill="#C4BFB8"/>
  <path d="M16.43 18.84C16.43 18.84 16.51 18.81 16.54 18.79L22.03 15.88H22.05V15.87L22.04 15.86L16.55 12.95C16.55 12.95 16.48 12.92 16.44 12.9V18.84H16.43Z" fill="#C4BFB8"/>
  <path d="M9.96 8.79L15.46 11.7C15.75 11.85 16.26 11.85 16.55 11.7L22.05 8.79H22.07V8.78L22.06 8.76999L16.56 5.86C16.27 5.71 15.76 5.71 15.47 5.86L9.97 8.76999H9.95V8.78L9.96 8.79Z" fill="#C4BFB8"/>
  <path d="M22.09 14.9V9.72L17.15 12.31L22.09 14.9Z" fill="#C4BFB8"/>
  <path d="M15.03 19.51L9.88 16.78V23.2L15.03 25.91C15.33 26.07 15.65 26.23 15.96 26.24H15.98C16.29 26.24 16.59 26.08 16.89 25.94L22.09 23.18V16.78L16.92 19.51C16.38 19.79 15.56 19.79 15.02 19.51H15.03Z" fill="#C4BFB8"/>
  <path d="M16 0C7.16 0 0 7.16 0 16C0 24.84 7.16 32 16 32C24.84 32 32 24.84 32 16C32 7.16 24.84 0 16 0ZM9.09 25.84L8.74 25.63L8.68 25.59C8.59 25.54 8.51 25.48 8.42 25.42C7.59 24.86 7.28 24.24 7.28 22.97V22.93H8.14C8.14 23.49 8.2 23.86 8.33 24.11C8.44 24.32 8.59 24.49 8.88 24.69H8.9C8.96 24.74 9.03 24.79 9.12 24.84L9.22 24.9L9.53 25.09L9.09 25.83V25.84ZM22.96 23.25C22.96 23.54 22.77 23.82 22.42 24.01L16.92 26.91C16.38 27.19 15.56 27.19 15.02 26.91L9.52 24.01C9.17 23.82 9 23.54 8.99 23.25C8.99 23.23 8.99 23.2 8.99 23.18V8.78C8.99 8.78 8.99 8.74 8.99 8.72V8.68C9.01 8.41 9.18 8.17 9.52 7.99L15.02 5.09C15.56 4.81 16.38 4.81 16.92 5.09L22.42 7.99C22.74 8.16 22.92 8.42 22.95 8.68V23.25H22.96ZM23.86 9.06C23.86 8.5 23.8 8.13 23.67 7.88C23.56 7.67 23.41 7.5 23.12 7.3H23.1C23.03 7.24 22.95 7.19 22.88 7.15L22.78 7.09L22.47 6.9L22.91 6.16L23.26 6.37L23.32 6.41C23.42 6.47 23.5 6.52999 23.58 6.57999C24.41 7.13999 24.72 7.76 24.72 9.03V9.07H23.86V9.06Z" fill="#C4BFB8"/>
</svg>
