<svg width="32" height="32" viewBox="0 0 32 32" fill="none" xmlns="http://www.w3.org/2000/svg">
<g clip-path="url(#clip0_2473_5)">
<path d="M16 0C24.84 0 32 7.16 32 16C32 24.84 24.84 32 16 32C7.16 32 0 24.84 0 16C0 7.16 7.16 0 16 0Z" fill="white"/>
<path fill-rule="evenodd" clip-rule="evenodd" d="M22.5 14.62C22.5 18.23 19.58 21.16 15.97 21.16C12.36 21.16 9.44 18.23 9.44 14.62C9.44 9.08 15.81 2.2 15.97 2.2C16.13 2.2 22.5 9.08 22.5 14.62ZM19.86 14.62C19.86 16.77 18.12 18.52 15.97 18.52C13.82 18.52 12.08 16.78 12.08 14.62C12.08 12.46 13.79 10.76 15.91 10.72V14.74C15.91 14.74 18.37 13.75 19.58 13.16C19.76 13.61 19.86 14.1 19.86 14.62Z" fill="url(#paint0_linear_2473_5)"/>
<path d="M14.5 25.03L25.08 23.9C25.2 25.06 25.17 26.23 24.99 27.38L14.46 26.73C14.55 26.17 14.56 25.6 14.5 25.04V25.03Z" fill="url(#paint1_linear_2473_5)"/>
<path d="M17.28 21.93L6.85 24.03C7.08 25.17 7.46 26.28 7.98 27.32L17.83 23.53C17.58 23.02 17.39 22.48 17.28 21.93Z" fill="url(#paint2_linear_2473_5)"/>
</g>
<defs>
<linearGradient id="paint0_linear_2473_5" x1="15.755" y1="0.658228" x2="15.9294" y2="31.8323" gradientUnits="userSpaceOnUse">
<stop stop-color="#E934F6"/>
<stop offset="0.56" stop-color="#792BF4"/>
<stop offset="0.76" stop-color="#8218F4"/>
<stop offset="0.98" stop-color="#5367F5"/>
</linearGradient>
<linearGradient id="paint1_linear_2473_5" x1="38.6382" y1="1.28735" x2="4.32276" y2="4.46057" gradientUnits="userSpaceOnUse">
<stop stop-color="#D7B7F9"/>
<stop offset="0.49" stop-color="#8218F4"/>
<stop offset="0.99" stop-color="#5562F5"/>
</linearGradient>
<linearGradient id="paint2_linear_2473_5" x1="16.61" y1="24.2802" x2="4.88998" y2="25.3202" gradientUnits="userSpaceOnUse">
<stop stop-color="#5562F5"/>
<stop offset="0.46" stop-color="#8218F4"/>
<stop offset="0.99" stop-color="#D7B7F9"/>
</linearGradient>
<clipPath id="clip0_2473_5">
<rect width="32" height="32" fill="white"/>
</clipPath>
</defs>
</svg>
