<svg width="32" height="32" viewBox="0 0 32 32" fill="none" xmlns="http://www.w3.org/2000/svg">
<g clip-path="url(#clip0_2473_3)">
<path d="M15.97 18.52C18.12 18.52 19.86 16.78 19.86 14.62C19.86 14.1 19.76 13.61 19.58 13.16C18.38 13.75 15.91 14.74 15.91 14.74V10.72C13.79 10.75 12.08 12.46 12.08 14.62C12.08 16.78 13.82 18.52 15.97 18.52Z" fill="#213147"/>
<path d="M16 0C7.16 0 0 7.17 0 16C0 24.83 7.16 32 16 32C24.84 32 32 24.84 32 16C32 7.16 24.84 0 16 0ZM15.97 2.2C16.13 2.2 22.5 9.08 22.5 14.62C22.5 18.23 19.58 21.16 15.97 21.16C12.36 21.16 9.44 18.23 9.44 14.62C9.44 9.08 15.81 2.2 15.97 2.2ZM6.84 24.03L17.27 21.93C17.38 22.49 17.57 23.02 17.82 23.53L7.97 27.32C7.45 26.28 7.07 25.17 6.84 24.03ZM24.99 27.38L14.46 26.73C14.55 26.17 14.56 25.6 14.5 25.04L25.08 23.9C25.2 25.06 25.17 26.23 24.99 27.38Z" fill="#213147"/>
</g>
<defs>
<clipPath id="clip0_2473_3">
<rect width="32" height="32" fill="white"/>
</clipPath>
</defs>
</svg>
