<svg width="32" height="32" viewBox="0 0 32 32" fill="none" xmlns="http://www.w3.org/2000/svg">
<g clip-path="url(#clip0_292_219)">
<path d="M16 32C24.84 32 32 24.84 32 16C32 7.16 24.84 0 16 0C7.16 0 0 7.16 0 16C0 24.84 7.16 32 16 32Z" fill="#22996E"/>
<path d="M16 23.13H7.24C6.05 23.13 5.34001 21.82 5.98001 20.82L10.96 13.05C11.33 12.48 11.96 12.13 12.64 12.13H19.35C20.03 12.13 20.67 12.48 21.03 13.05L26.01 20.82C26.65 21.82 25.93 23.13 24.75 23.13H15.99H16ZM16.9 5.25L18.99 8.45C19.43 9.12 18.95 10 18.15 10H13.89C13.09 10 12.61 9.10001 13.06 8.44001L15.23 5.24001C15.63 4.65001 16.5 4.66 16.89 5.25H16.9Z" fill="white"/>
</g>
<defs>
<clipPath id="clip0_292_219">
<rect width="32" height="32" fill="white"/>
</clipPath>
</defs>
</svg>
