<svg width="32" height="32" viewBox="0 0 32 32" fill="none" xmlns="http://www.w3.org/2000/svg">
  <path d="M16 32C24.8366 32 32 24.8366 32 16C32 7.16344 24.8366 0 16 0C7.16344 0 0 7.16344 0 16C0 24.8366 7.16344 32 16 32Z" fill="white"/>
  <path d="M25.23 15.63V7.81999C25.23 7.12999 24.67 6.56999 23.98 6.56999H16.14C16.06 6.56999 15.99 6.54 15.93 6.48L14.99 5.53999C14.93 5.47999 14.85 5.45 14.77 5.45H6.94C6.25 5.45 5.69 6.01 5.69 6.7V14.51C5.69 14.59 5.72 14.66 5.78 14.72L6.72 15.66C6.78 15.71 6.81 15.79 6.81 15.87V23.68C6.81 24.37 7.37 24.93 8.06 24.93H15.9C15.98 24.93 16.05 24.96 16.11 25.02L17.05 25.96C17.11 26.01 17.18 26.05 17.26 26.05H25.1C25.79 26.05 26.35 25.49 26.35 24.8V16.99C26.35 16.91 26.32 16.84 26.26 16.78L25.32 15.84C25.27 15.79 25.24 15.71 25.24 15.64L25.23 15.63ZM20.88 20.82H11.16C11.04 20.82 10.94 20.72 10.94 20.6V10.91C10.94 10.79 11.04 10.69 11.16 10.69H20.88C21 10.69 21.1 10.79 21.1 10.91V20.6C21.1 20.72 21 20.82 20.88 20.82Z" fill="black"/>
</svg>
