<svg width="32" height="32" viewBox="0 0 32 32" fill="none" xmlns="http://www.w3.org/2000/svg">
  <path d="M20.56 11.01H11.47C11.35 11.01 11.26 11.1 11.26 11.22V20.27C11.26 20.38 11.35 20.48 11.47 20.48H20.56C20.68 20.48 20.77 20.39 20.77 20.27V11.22C20.77 11.1 20.68 11.01 20.56 11.01Z" fill="#213147"/>
  <path d="M16 0C7.16 0 0 7.16 0 16C0 24.84 7.16 32 16 32C24.84 32 32 24.84 32 16C32 7.16 24.84 0 16 0ZM25.67 24.2C25.67 24.85 25.14 25.37 24.5 25.37H17.18C17.11 25.37 17.04 25.34 16.98 25.29L16.1 24.41C16.05 24.36 15.98 24.33 15.9 24.33H8.57001C7.92001 24.33 7.39999 23.81 7.39999 23.16V15.86C7.39999 15.79 7.37001 15.72 7.32001 15.66L6.44 14.78C6.39 14.73 6.36002 14.66 6.36002 14.58V7.28C6.36002 6.63 6.89 6.11002 7.53 6.11002H14.85C14.93 6.11002 15 6.14 15.05 6.19L15.93 7.07001C15.98 7.12001 16.05 7.15002 16.13 7.15002H23.46C24.11 7.15002 24.63 7.67001 24.63 8.32001V15.62C24.63 15.69 24.66 15.76 24.71 15.81L25.59 16.69C25.64 16.74 25.67 16.81 25.67 16.89V24.2Z" fill="#213147"/>
</svg>
