<svg width="32" height="32" viewBox="0 0 32 32" fill="none" xmlns="http://www.w3.org/2000/svg">
  <path d="M16 0C7.16 0 0 7.16 0 16C0 24.84 7.16 32 16 32C24.84 32 32 24.84 32 16C32 7.16 24.84 0 16 0ZM23.93 7.16L23.55 8.04001L23.3 8.61002C21.41 12.86 19.94 14.88 18.37 14.88C17.47 14.88 16.93 14.64 16.24 14.09L16.04 13.93C15.54 13.51 15.33 13.41 14.86 13.41C14.61 13.41 14.16 13.7 13.6 14.38C13.01 15.08 12.37 16.12 11.68 17.48L11.62 17.61H18.33L17.49 19.18H11.22V25.64H9.38V6.88H24.03L23.92 7.16H23.93Z" fill="#213147"/>
  <path d="M14.86 11.82C15.83 11.82 16.4 12.07 17.13 12.65L17.34 12.82C17.8 13.21 17.98 13.3 18.38 13.3C18.82 13.3 19.98 11.63 21.44 8.47H11.24V14.72C12.46 12.8 13.62 11.83 14.87 11.83L14.86 11.82Z" fill="#213147"/>
</svg>
