<svg width="32" height="32" viewBox="0 0 32 32" fill="none" xmlns="http://www.w3.org/2000/svg">
<g clip-path="url(#clip0_294_3389)">
<path d="M16 32C24.83 32 32 24.84 32 16C32 7.16 24.84 0 16 0C7.16 0 0 7.17 0 16C0 24.83 7.16 32 16 32Z" fill="#1969FF"/>
<path d="M15.03 5.09C15.57 4.81 16.39 4.81 16.93 5.09L22.43 7.99C22.75 8.16 22.93 8.42 22.96 8.68V23.25C22.96 23.54 22.77 23.82 22.42 24.01L16.92 26.91C16.38 27.19 15.56 27.19 15.02 26.91L9.52 24.01C9.17 23.82 9 23.54 8.99 23.25C8.99 23.23 8.99 23.2 8.99 23.18V8.78C8.99 8.78 8.99 8.74 8.99 8.72V8.68C9.01 8.41 9.18 8.17 9.52 7.99L15.02 5.09H15.03ZM22.09 16.78L16.92 19.51C16.38 19.79 15.56 19.79 15.02 19.51L9.87 16.78V23.2L15.02 25.91C15.32 26.07 15.64 26.23 15.95 26.24H15.97C16.28 26.24 16.58 26.08 16.88 25.94L22.08 23.18V16.78H22.09ZM8.14 22.94C8.14 23.5 8.2 23.87 8.33 24.12C8.44 24.33 8.59 24.5 8.88 24.7H8.9C8.96 24.75 9.03 24.8 9.12 24.85L9.22 24.91L9.53 25.1L9.09 25.84L8.74 25.63L8.68 25.59C8.59 25.54 8.51 25.48 8.42 25.42C7.59 24.86 7.28 24.24 7.28 22.97V22.93H8.14V22.94ZM15.56 12.91C15.56 12.91 15.48 12.94 15.45 12.96L9.96 15.87H9.94V15.88L9.95 15.89L15.44 18.8C15.44 18.8 15.51 18.83 15.55 18.85V12.91H15.56ZM16.43 12.91V18.85C16.43 18.85 16.51 18.82 16.54 18.8L22.03 15.89H22.05V15.88L22.04 15.87L16.55 12.96C16.55 12.96 16.48 12.93 16.44 12.91H16.43ZM22.09 9.72L17.15 12.31L22.09 14.9V9.71V9.72ZM9.87 9.72V14.91L14.81 12.32L9.87 9.73V9.72ZM16.54 5.87C16.25 5.72 15.74 5.72 15.45 5.87L9.95 8.78H9.93V8.79L9.94 8.8L15.44 11.71C15.73 11.86 16.24 11.86 16.53 11.71L22.03 8.8H22.05V8.79L22.04 8.78L16.54 5.87ZM22.91 6.16L23.26 6.37L23.32 6.41C23.42 6.47 23.5 6.53 23.58 6.58C24.41 7.14 24.72 7.76 24.72 9.03V9.07H23.86C23.86 8.51 23.8 8.14 23.67 7.89C23.56 7.68 23.41 7.51 23.11 7.31H23.09C23.02 7.25 22.94 7.2 22.87 7.16L22.77 7.1L22.46 6.91L22.9 6.17L22.91 6.16Z" fill="white"/>
</g>
<defs>
<clipPath id="clip0_294_3389">
<rect width="32" height="32" fill="white"/>
</clipPath>
</defs>
</svg>
