<svg width="32" height="32" viewBox="0 0 32 32" fill="none" xmlns="http://www.w3.org/2000/svg">
  <path d="M16 32C24.8366 32 32 24.8365 32 16C32 7.16343 24.8366 0 16 0C7.16344 0 0 7.16343 0 16C0 24.8365 7.16344 32 16 32Z" fill="black"/>
  <path fill-rule="evenodd" clip-rule="evenodd" d="M21.51 11.53H21.21V8.5H11.23C9.84 8.5 8.75 9.58999 8.75 10.96V21.28C8.75 21.28 8.75 21.31 8.75 21.32C8.77 22.67 9.88 23.76 11.23 23.74H21.01C21.01 23.74 21.04 23.74 21.05 23.74C22.4 23.74 23.5 22.63 23.49 21.28V13.5C23.49 12.39 22.62 11.53 21.5 11.53H21.51ZM10.04 10.97C10.04 10.97 10.04 10.94 10.04 10.93C10.05 10.28 10.59 9.77 11.23 9.78H19.92V11.54H15.48V15.23H11.23C11.23 15.23 11.2 15.23 11.19 15.23C10.54 15.23 10.02 14.69 10.03 14.04V10.97H10.04ZM22.21 21.33C22.2 21.98 21.66 22.49 21.01 22.48H11.23C11.23 22.48 11.2 22.48 11.19 22.48C10.54 22.48 10.02 21.94 10.03 21.29V16.2C10.39 16.39 10.79 16.51 11.22 16.51H21.5C21.75 16.51 21.98 16.46 22.2 16.38V21.29C22.2 21.29 22.2 21.32 22.2 21.33H22.21ZM22.21 14.53C22.21 14.53 22.21 14.56 22.21 14.58C22.2 14.95 21.88 15.25 21.51 15.23H16.77V12.81H21.51C21.51 12.81 21.54 12.81 21.56 12.81C21.93 12.82 22.23 13.14 22.21 13.51V14.53Z" fill="white"/>
</svg>
