<svg width="32" height="32" viewBox="0 0 32 32" fill="none" xmlns="http://www.w3.org/2000/svg">
  <path d="M11.2 15.23C11.2 15.23 11.23 15.23 11.24 15.23H15.49V11.54H19.93V9.77999H11.24C10.59 9.76999 10.06 10.28 10.05 10.93C10.05 10.94 10.05 10.96 10.05 10.97V14.04C10.05 14.69 10.56 15.22 11.21 15.23H11.2Z" fill="#213147"/>
  <path d="M21.56 12.81C21.56 12.81 21.53 12.81 21.51 12.81H16.77V15.23H21.51C21.88 15.24 22.2 14.95 22.21 14.58C22.21 14.56 22.21 14.55 22.21 14.53V13.51C22.22 13.14 21.93 12.82 21.56 12.81Z" fill="#213147"/>
  <path d="M11.23 16.5C10.8 16.5 10.39 16.39 10.04 16.19V21.28C10.04 21.93 10.55 22.46 11.2 22.47C11.21 22.47 11.23 22.47 11.24 22.47H21.02C21.67 22.48 22.2 21.97 22.22 21.32C22.22 21.31 22.22 21.29 22.22 21.28V16.37C22 16.45 21.77 16.5 21.52 16.5H11.23Z" fill="#213147"/>
  <path d="M16 0C7.16 0 0 7.16 0 16C0 24.84 7.16 32 16 32C24.84 32 32 24.84 32 16C32 7.16 24.84 0 16 0ZM23.5 14.34V21.29C23.5 22.64 22.41 23.75 21.06 23.75C21.05 23.75 21.03 23.75 21.02 23.75H11.24C9.89001 23.77 8.76999 22.68 8.75999 21.33C8.75999 21.32 8.75999 21.3 8.75999 21.29V10.97C8.75999 9.6 9.85001 8.51001 11.24 8.51001H21.22V11.54H21.52C22.64 11.54 23.51 12.41 23.51 13.51V14.34H23.5Z" fill="#213147"/>
</svg>
