<svg width="32" height="32" viewBox="0 0 32 32" fill="none" xmlns="http://www.w3.org/2000/svg">
  <path d="M16 28.43C9.18 28.43 3.65 22.8 3.65 15.85C3.65 8.9 9.18 3.27 16 3.27C22.17 3.27 27.43 7.89 28.35 13.91H25C24.13 9.67 20.46 6.59 16 6.59C10.89 6.59 6.81 10.65 6.81 15.85C6.81 21.05 10.89 25.04 16 25.04C20.62 25.04 24.32 21.78 25 17.3H28.35V26.14C30.62 23.38 32.01 19.86 32.01 16C32.01 7.16 24.85 0 16.01 0C7.17 0 0 7.16 0 16C0 24.84 7.16 32 16 32C19.45 32 22.64 30.9 25.25 29.04V23.35C25.25 23.35 25.16 23.33 25.12 23.31C23.28 26.44 20.29 28.43 16 28.43ZM12.72 16.51C11.28 16.51 10.12 15.34 10.12 13.91C10.12 12.48 11.29 11.31 12.72 11.31C14.15 11.31 15.32 12.48 15.32 13.91C15.32 15.34 14.15 16.51 12.72 16.51ZM19.29 16.51C17.85 16.51 16.69 15.34 16.69 13.91C16.69 12.48 17.86 11.31 19.29 11.31C20.72 11.31 21.89 12.48 21.89 13.91C21.89 15.34 20.72 16.51 19.29 16.51Z" fill="#213147"/>
</svg>
