<svg width="32" height="32" viewBox="0 0 32 32" fill="none" xmlns="http://www.w3.org/2000/svg">
  <path d="M16 32C24.8366 32 32 24.8366 32 16C32 7.16344 24.8366 0 16 0C7.16344 0 0 7.16344 0 16C0 24.8366 7.16344 32 16 32Z" fill="#66CF67"/>
  <path d="M10.12 13.91C10.12 15.35 11.29 16.51 12.72 16.51C14.15 16.51 15.32 15.34 15.32 13.91C15.32 12.48 14.15 11.31 12.72 11.31C11.29 11.31 10.12 12.48 10.12 13.91ZM16.68 13.91C16.68 15.35 17.85 16.51 19.28 16.51C20.71 16.51 21.88 15.34 21.88 13.91C21.88 12.48 20.71 11.31 19.28 11.31C17.85 11.31 16.68 12.48 16.68 13.91Z" fill="white"/>
  <path d="M28.34 26.18V17.3H24.99C24.31 21.78 20.62 25.04 15.99 25.04C10.88 25.04 6.8 21.06 6.8 15.85C6.8 10.64 10.88 6.59002 15.99 6.59002C20.44 6.59002 24.12 9.67002 24.99 13.91H28.34C27.42 7.88002 22.17 3.27002 15.99 3.27002C9.17 3.27002 3.64 8.90002 3.64 15.85C3.64 22.8 9.17 28.43 15.99 28.43C20.28 28.43 23.27 26.44 25.11 23.31C25.15 23.32 25.2 23.33 25.24 23.35V29.05C26.39 28.23 27.44 27.26 28.34 26.17V26.18Z" fill="white"/>
</svg>
