<svg width="32" height="32" viewBox="0 0 32 32" fill="none" xmlns="http://www.w3.org/2000/svg">
<g clip-path="url(#clip0_294_317)">
<path d="M15.99 30.87C24.1362 30.87 30.74 24.2662 30.74 16.12C30.74 7.97379 24.1362 1.37 15.99 1.37C7.84382 1.37 1.24002 7.97379 1.24002 16.12C1.24002 24.2662 7.84382 30.87 15.99 30.87Z" fill="white"/>
<path fill-rule="evenodd" clip-rule="evenodd" d="M16 32C7.16 32 0 24.84 0 16C0 7.16 7.16 0 16 0C24.84 0 32 7.16 32 16C32 24.84 24.84 32 16 32ZM24.78 10.5L23.98 11.31C24.62 12.32 24.81 13.59 24.38 14.8C23.65 16.86 21.4 17.95 19.36 17.21C19.07 17.1 18.8 16.97 18.56 16.8L16 19.39L13.77 17.11C12.71 17.83 11.37 18 10.16 17.57C8.05 16.79 6.97001 14.46 7.73001 12.35C7.84001 12.02 8.00002 11.72 8.18002 11.45L7.22 10.47L7.04001 10.78C6.03001 12.45 5.5 14.37 5.5 16.32C5.48 22.19 10.2 26.99 15.98 26.99H16C21.78 26.99 26.48 22.23 26.5 16.36C26.5 14.41 25.97 12.5 24.98 10.82L24.78 10.49V10.5ZM9.37 12.65C9.09 13.03 8.93002 13.5 8.93002 13.97C8.93002 15.16 9.89001 16.14 11.07 16.14C11.56 16.14 12.01 15.98 12.38 15.68L9.37 12.65ZM19.87 15.5C20.21 15.74 20.61 15.87 21.07 15.87C22.25 15.87 23.21 14.89 23.21 13.7C23.21 13.26 23.08 12.84 22.85 12.49L19.88 15.51L19.87 15.5ZM16.04 17.78L24.6 9.13L24.27 8.75999C22.15 6.36999 19.12 5.00001 15.93 4.99001H15.91C12.77 4.99001 9.85002 6.28 7.71002 8.58L7.37 8.95L16.04 17.78ZM8.79001 8.95C10.69 7.07 13.26 6.01 15.94 6.03H15.96C18.68 6.03 21.29 7.15001 23.21 9.10001L16.05 16.33L8.80002 8.95H8.79001Z" fill="#35775D"/>
</g>
<defs>
<clipPath id="clip0_294_317">
<rect width="32" height="32" fill="white"/>
</clipPath>
</defs>
</svg>
