<svg width="32" height="32" viewBox="0 0 32 32" fill="none" xmlns="http://www.w3.org/2000/svg">
<g clip-path="url(#clip0_423_134)">
<path d="M9.50144 18.167C10.4448 18.167 11.3165 17.8534 12.0186 17.3107L6.25792 11.568C5.69537 12.2827 5.39231 13.1673 5.3984 14.0768C5.38624 16.3334 7.22624 18.167 9.50144 18.167ZM26.6374 14.0653C26.6374 13.1245 26.3226 12.2554 25.7779 11.5565L20.0179 17.2985C20.7078 17.8413 21.5789 18.1549 22.535 18.1549C24.7981 18.167 26.6374 16.3334 26.6374 14.0653Z" fill="#04795B"/>
<path d="M29.5424 7.82847L26.9888 10.3737C27.8663 11.4128 28.3465 12.7296 28.3437 14.0896C28.3437 17.2864 25.7421 19.8803 22.535 19.8803C21.1725 19.8814 19.8531 19.4031 18.8077 18.5293L16.0122 21.3158L13.2166 18.5293C12.172 19.4043 10.852 19.8825 9.48928 19.8797C6.2816 19.8797 3.68 17.2864 3.68 14.0896C3.67907 12.7298 4.15923 11.4135 5.03552 10.3737L2.48192 7.82847C0.98217 10.2883 0.190641 13.1145 0.194556 15.9955C0.194556 24.7059 7.27424 31.7517 16 31.7517C24.7251 31.7517 31.8054 24.6937 31.8054 15.9955C31.8317 13.1147 31.0479 10.2847 29.5424 7.82847Z" fill="#04795B"/>
<path d="M27.4483 5.11359C25.9725 3.56677 24.1977 2.33605 22.2317 1.49617C20.2656 0.656289 18.1494 0.224775 16.0115 0.22783C11.5104 0.22783 7.456 2.10943 4.576 5.11359C4.18587 5.52718 3.8143 5.9579 3.4624 6.40447L16 18.903L28.5376 6.39231C28.2084 5.93868 27.8447 5.51117 27.4496 5.11359M16.0128 2.27839C19.7165 2.27839 23.1533 3.70239 25.7312 6.29631L16.0122 15.9834L6.29376 6.29631C8.88384 3.70239 12.3085 2.27839 16.0128 2.27839Z" fill="#04795B"/>
</g>
<defs>
<clipPath id="clip0_423_134">
<rect width="32" height="32" fill="white"/>
</clipPath>
</defs>
</svg>
