<svg width="32" height="32" viewBox="0 0 32 32" fill="none" xmlns="http://www.w3.org/2000/svg">
  <path d="M16 32C24.8366 32 32 24.8366 32 16C32 7.16344 24.8366 0 16 0C7.16344 0 0 7.16344 0 16C0 24.8366 7.16344 32 16 32Z" fill="#33453D"/>
  <path d="M17.24 8.01H10.38V12.48H8.34V13.63C8.34 14.41 8.97 15.05 9.76 15.05H10.38V16.96H9.76C8.98 16.96 8.34 17.59 8.34 18.38V19.53H10.38V24.06H17.24C21.67 24.06 25.26 20.47 25.26 16.04C25.26 11.61 21.67 8.02 17.24 8.02V8.01ZM17.25 21.54H12.94V19.53H17.81C19.23 19.53 20.38 18.38 20.38 16.96H12.94V15.05H20.38C20.38 13.63 19.23 12.48 17.81 12.48H12.94V10.54H17.25C20.29 10.54 22.75 13 22.75 16.04C22.75 19.08 20.29 21.54 17.25 21.54Z" fill="#F7C04B"/>
</svg>
