<svg width="32" height="32" viewBox="0 0 32 32" fill="none" xmlns="http://www.w3.org/2000/svg">
  <path d="M17.25 10.54H12.94V12.48H17.81C19.23 12.48 20.38 13.63 20.38 15.05H12.94V16.96H20.38C20.38 18.38 19.23 19.53 17.81 19.53H12.94V21.54H17.25C20.29 21.54 22.75 19.08 22.75 16.04C22.75 13 20.29 10.54 17.25 10.54Z" fill="#213147"/>
  <path d="M16 0C7.16 0 0 7.16 0 16C0 24.84 7.16 32 16 32C24.84 32 32 24.84 32 16C32 7.16 24.84 0 16 0ZM17.23 24.05H10.37V19.52H8.33V18.37C8.33 17.59 8.96 16.95 9.75 16.95H10.37V15.04H9.75C8.97 15.04 8.33 14.41 8.33 13.62V12.47H10.37V8H17.23C21.66 8 25.25 11.59 25.25 16.02C25.25 20.45 21.66 24.04 17.23 24.04V24.05Z" fill="#213147"/>
</svg>
