<svg width="32" height="32" viewBox="0 0 32 32" fill="none" xmlns="http://www.w3.org/2000/svg">
<g clip-path="url(#clip0_294_3797)">
<path d="M15.9999 32C24.8364 32 31.9999 24.8364 31.9999 16C31.9999 7.16356 24.8364 -7.63685e-06 15.9999 -7.63685e-06C7.1635 -7.63685e-06 -6.10352e-05 7.16356 -6.10352e-05 16C-6.10352e-05 24.8364 7.1635 32 15.9999 32Z" fill="white"/>
<path d="M19.1199 6.11677C15.6099 6.13729 12.6644 8.77488 12.2744 12.2643C9.63686 12.5517 7.39954 14.3169 6.51693 16.8211C5.25458 20.4131 7.13268 24.3438 10.7247 25.6062C10.971 25.6986 11.2276 25.7704 11.4945 25.832C15.1994 26.6735 18.8941 24.3541 19.7357 20.6389C19.7972 20.3823 19.8383 20.1155 19.8691 19.8486C23.5124 19.4587 26.2116 16.2874 26.0166 12.6338C25.8216 8.98014 22.794 6.11677 19.1301 6.11677H19.1199ZM24.3848 13.7832C24.2103 14.9122 23.6869 15.959 22.8761 16.7698C22.0654 17.5805 21.0185 18.1039 19.8896 18.2784V13.7832H24.3848ZM7.72795 18.34C8.07689 16.0206 9.90371 14.1937 12.2231 13.8448V18.34H7.72795ZM18.2783 19.8897C17.8473 22.8044 15.1378 24.8159 12.2231 24.3849C9.89345 24.0462 8.06663 22.2194 7.72795 19.8897H18.2783ZM18.3399 13.7832V18.34H13.7831V13.7832H18.3399ZM24.3848 12.2232H13.8344C14.2655 9.30856 16.9749 7.29701 19.8896 7.72806C22.2193 8.06673 24.0461 9.89355 24.3848 12.2232Z" fill="#26DDF9"/>
<path d="M15.9999 32C14.9121 32 13.8343 31.8872 12.7772 31.6717C10.7349 31.2509 8.78493 30.4299 7.06075 29.2599C4.48474 27.5255 2.4732 25.0829 1.26216 22.2195C0.851644 21.2548 0.543751 20.249 0.328228 19.2124C-0.102818 17.088 -0.102818 14.8917 0.328228 12.7673C0.749011 10.7249 1.57002 8.77498 2.74001 7.0508C4.47445 4.47479 6.91706 2.46324 9.78043 1.25221C10.7452 0.841692 11.7509 0.533802 12.7875 0.318279C14.9119 -0.112766 17.1082 -0.112766 19.2326 0.318279C21.275 0.739062 23.225 1.5601 24.9491 2.73008C27.5251 4.46453 29.5367 6.90712 30.7477 9.77049C31.1582 10.7352 31.4661 11.741 31.6817 12.7775C32.1127 14.902 32.1127 17.0983 31.6817 19.2227C31.2609 21.265 30.4398 23.215 29.2698 24.9392C27.5354 27.5152 25.0928 29.5268 22.2294 30.7378C21.2647 31.1483 20.259 31.4562 19.2224 31.6717C18.1653 31.8872 17.0776 32 15.9999 32ZM15.9998 0.503013C14.953 0.503013 13.9061 0.605641 12.8798 0.821164C10.8991 1.23168 9.0107 2.02193 7.33784 3.15086C4.84393 4.83399 2.89396 7.20474 1.72398 9.96549C1.32372 10.8994 1.02609 11.8744 0.820832 12.8699C0.400049 14.9328 0.400049 17.0572 0.820832 19.1201C1.23135 21.1008 2.02162 22.9892 3.15055 24.6621C4.83368 27.156 7.20442 29.106 9.96516 30.2759C10.8991 30.6762 11.8741 30.9738 12.8696 31.1791C14.9325 31.5999 17.0569 31.5999 19.1198 31.1791C21.1005 30.7686 22.9889 29.9783 24.6618 28.8494C27.1557 27.1663 29.1056 24.7955 30.2756 22.0348C30.6759 21.1008 30.9735 20.1259 31.1788 19.1303C31.5996 17.0675 31.5996 14.943 31.1788 12.8802C30.7683 10.8994 29.978 9.01103 28.8491 7.33817C27.1659 4.84426 24.7952 2.89429 22.0344 1.72431C21.1005 1.32405 20.1255 1.02642 19.13 0.821164C18.1037 0.615904 17.0569 0.503013 16.0101 0.503013H15.9998Z" fill="#26DDF9"/>
</g>
<defs>
<clipPath id="clip0_294_3797">
<rect width="32" height="32" fill="white"/>
</clipPath>
</defs>
</svg>
