<svg width="32" height="32" viewBox="0 0 32 32" fill="none" xmlns="http://www.w3.org/2000/svg">
<g clip-path="url(#clip0_423_181)">
<path d="M25.097 2.42603e-06C23.2692 -0.00152929 21.5155 0.722302 20.2209 2.01258C18.9263 3.30286 18.1966 5.05414 18.192 6.88192V14.512C17.4624 14.5626 16.7313 14.5886 16 14.5901C15.2461 14.5901 14.5229 14.6202 13.808 14.663V6.88192C13.7905 5.06238 13.0554 3.32332 11.7625 2.04286C10.4697 0.762398 8.72363 0.0440754 6.904 0.0440754C5.08438 0.0440754 3.33832 0.762398 2.04547 2.04286C0.752619 3.32332 0.0175189 5.06238 0 6.88192L0 25.1181C0.0302038 26.9292 0.770869 28.6559 2.06233 29.926C3.3538 31.1961 5.09263 31.9079 6.904 31.9079C8.71537 31.9079 10.4542 31.1961 11.7457 29.926C13.0371 28.6559 13.7778 26.9292 13.808 25.1181V17.488C14.5376 17.4374 15.2687 17.4114 16 17.4099C16.7539 17.4099 17.4771 17.3798 18.192 17.337V25.1181C18.2095 26.9376 18.9446 28.6767 20.2375 29.9571C21.5303 31.2376 23.2764 31.9559 25.096 31.9559C26.9156 31.9559 28.6617 31.2376 29.9545 29.9571C31.2474 28.6767 31.9825 26.9376 32 25.1181V6.88192C31.9954 5.05447 31.266 3.30349 29.9718 2.01326C28.6776 0.723036 26.9244 -0.00102044 25.097 2.42603e-06ZM6.90304 2.81984C7.98171 2.81933 9.01653 3.24673 9.78046 4.00826C10.5444 4.76979 10.975 5.80326 10.9779 6.88192V14.9619C8.95794 15.2545 6.98533 15.8121 5.11104 16.6202C4.29921 16.9769 3.53494 17.4333 2.83584 17.9789V6.88128C2.83889 5.80406 3.26855 4.77191 4.03081 4.01074C4.79306 3.24957 5.82582 2.82136 6.90304 2.81984ZM10.9779 25.1181C10.9779 26.1988 10.5486 27.2353 9.78442 27.9995C9.02023 28.7636 7.98377 29.193 6.90304 29.193C5.82231 29.193 4.78585 28.7636 4.02166 27.9995C3.25748 27.2353 2.82816 26.1988 2.82816 25.1181V23.2896C2.82816 21.6736 4.10816 20.1427 6.25408 19.1898C7.76596 18.5376 9.35225 18.0738 10.9773 17.8086L10.9779 25.1181ZM25.0963 29.1802C24.0178 29.1805 22.9831 28.753 22.2193 27.9915C21.4555 27.23 21.025 26.1966 21.0221 25.1181V17.0381C23.0421 16.7455 25.0147 16.1879 26.889 15.3798C27.7008 15.0231 28.4651 14.5667 29.1642 14.0211V25.1187C29.1611 26.1959 28.7314 27.2281 27.9692 27.9893C27.2069 28.7504 26.1735 29.1786 25.0963 29.1802ZM25.7466 12.8C24.2347 13.4521 22.6484 13.916 21.0234 14.1811V6.88192C21.0368 5.81013 21.472 4.78678 22.2347 4.03362C22.9973 3.28045 24.026 2.85811 25.0979 2.85811C26.1698 2.85811 27.1985 3.28045 27.9612 4.03362C28.7239 4.78678 29.159 5.81013 29.1725 6.88192V8.71104C29.1725 10.32 27.8925 11.8509 25.7466 12.8Z" fill="#213147"/>
</g>
<defs>
<clipPath id="clip0_423_181">
<rect width="32" height="32" fill="white"/>
</clipPath>
</defs>
</svg>
