<svg width="32" height="32" viewBox="0 0 32 32" fill="none" xmlns="http://www.w3.org/2000/svg">
  <path d="M16 32C24.8366 32 32 24.8366 32 16C32 7.16344 24.8366 0 16 0C7.16344 0 0 7.16344 0 16C0 24.8366 7.16344 32 16 32Z" fill="#213147"/>
  <path d="M18.5 11.09C18.5 8.05001 17 5.43 15.86 4.58C15.86 4.58 15.77 4.53001 15.78 4.65001C15.69 10.52 12.65 12.12 10.98 14.26C7.12999 19.21 10.71 24.64 14.36 25.64C16.4 26.2 13.89 24.64 13.57 21.36C13.18 17.4 18.51 14.37 18.51 11.08L18.5 11.09Z" fill="#FBFBFF"/>
  <path d="M20.12 13.05C20.12 13.05 20.06 13.02 20.04 13.06C19.98 13.8 19.21 15.39 18.24 16.84C14.95 21.78 16.82 24.16 17.88 25.44C18.49 26.18 17.88 25.44 19.41 24.68C21.3 23.55 22.53 21.59 22.71 19.41C22.91 17 21.95 14.63 20.12 13.05Z" fill="white"/>
</svg>
