<svg width="32" height="32" viewBox="0 0 32 32" fill="none" xmlns="http://www.w3.org/2000/svg">
  <path d="M16 0C7.17 0 0 7.17 0 16C0 24.83 7.17 31.96 16 31.96C24.83 31.96 32 24.79 32 15.96C32 7.12999 24.83 0 16 0ZM20.22 19.46C19.15 19.46 16.51 19.5 16.51 19.5L15.32 24.11H10.37L11.52 19.59H3.8L5.04 15.88C5.04 15.88 18.48 15.92 19.59 15.88C20.7 15.84 22.41 15.58 22.45 13.36C22.49 10.33 17.84 10.5 17.46 13.19C17.2 14.9 17.2 15.32 17.2 15.32H12.81L13.66 11.31H6.53L7.6 7.56C7.6 7.56 18.05 7.60001 20.02 7.60001C21.99 7.60001 27.23 8.10999 27.23 12.93C27.23 18.22 22.15 19.46 20.23 19.46H20.22Z" fill="#213147"/>
</svg>
