<svg width="32" height="32" viewBox="0 0 32 32" fill="none" xmlns="http://www.w3.org/2000/svg">
  <path fill-rule="evenodd" clip-rule="evenodd" d="M16 0C24.84 0 32 7.16 32 16C32 24.84 24.84 32 16 32C7.16 32 0 24.84 0 16C0 7.16 7.16 0 16 0Z" fill="white"/>
  <path fill-rule="evenodd" clip-rule="evenodd" d="M16.54 2.01H18.07C18.57 2.1 19.06 2.24 19.55 2.43C19.76 2.68 19.74 2.91 19.5 3.12C19.37 3.15 19.24 3.15 19.11 3.12C17.25 2.47 15.56 2.77 14.04 4.01C16.43 4.71 17.88 6.28 18.4 8.71C18.52 9.56 18.48 10.39 18.28 11.22C19.15 11.22 20.02 11.22 20.89 11.2C21.28 10.8 21.59 10.35 21.83 9.85C21.38 9.4 21.18 8.86 21.24 8.22C20.09 8.3 19.45 7.78 19.32 6.64C19.46 5.52 20.1 4.97 21.24 5.01C21.26 4.83 21.22 4.66 21.12 4.52L20.23 3.63C20.21 3.18 20.42 3.03 20.85 3.16C21.09 3.35 21.31 3.55 21.51 3.78C22.22 2.99 23.01 2.89 23.9 3.46C24.34 3.88 24.52 4.4 24.44 5.01C25.93 5.03 26.55 5.77 26.29 7.23C26.21 7.4 26.12 7.57 26.02 7.72C26.55 8.31 26.89 9 27.03 9.79C27.11 14.39 27.13 18.98 27.08 23.58C26.89 25.16 26.08 26.29 24.64 26.95C24.35 27.05 24.05 27.15 23.75 27.22H7.2C5.89 26.89 5.15 26.05 4.96 24.71C4.93 19.47 4.93 14.24 4.96 9C5.26 7.38 6.24 6.54 7.89 6.46C9.15 4.69 10.87 3.82 13.06 3.85C14.02 2.84 15.19 2.23 16.56 2L16.54 2.01ZM22.65 3.88C23.04 3.85 23.35 4 23.56 4.32C23.62 4.71 23.65 5.11 23.66 5.5C23.68 5.62 23.73 5.71 23.83 5.77C24.24 5.77 24.65 5.81 25.06 5.87C25.55 6.13 25.69 6.52 25.48 7.03C25.41 7.17 25.3 7.28 25.16 7.35C24.77 7.41 24.37 7.44 23.98 7.45C23.86 7.47 23.77 7.52 23.71 7.62L23.56 8.95C23.24 9.41 22.84 9.5 22.35 9.22C22.22 9.12 22.13 9 22.08 8.85C22.02 8.44 21.99 8.03 21.98 7.62C21.92 7.52 21.82 7.46 21.71 7.45L20.63 7.4C20.17 7.16 20.01 6.79 20.16 6.29C20.3 6.02 20.52 5.86 20.82 5.82L21.81 5.77C21.81 5.77 21.9 5.73 21.93 5.7C21.98 5.28 22.03 4.85 22.08 4.42C22.2 4.16 22.39 3.98 22.65 3.88ZM12.16 4.67C14.57 4.58 16.28 5.61 17.31 7.77C17.75 8.89 17.79 10.02 17.43 11.17C16.59 11.23 15.76 11.24 14.92 11.19C15.48 10.51 15.44 9.87 14.82 9.27C14.56 9.14 14.28 9.08 13.98 9.1C14 8.15 13.98 7.19 13.91 6.24C13.7 5.83 13.36 5.66 12.9 5.72C12.73 5.75 12.59 5.81 12.46 5.92C11.74 6.84 11.03 7.77 10.32 8.7C10.04 9.15 10.03 9.61 10.27 10.08C10.42 10.28 10.61 10.42 10.84 10.5C11.18 10.52 11.53 10.53 11.87 10.52V11.21C10.57 11.23 9.28 11.21 7.98 11.16C7.4 9.06 7.9 7.28 9.51 5.82C10.3 5.2 11.19 4.82 12.17 4.66L12.16 4.67ZM12.99 6.49C13.06 6.49 13.12 6.52 13.16 6.59L13.21 9.64C13.25 9.73 13.31 9.8 13.38 9.86L14.27 9.91C14.49 9.99 14.57 10.15 14.49 10.38C14.31 10.66 14.12 10.93 13.92 11.19C13.49 11.21 13.07 11.22 12.64 11.21C12.64 10.8 12.64 10.39 12.62 9.98C12.58 9.91 12.52 9.85 12.45 9.81L11.17 9.76C10.87 9.66 10.8 9.47 10.95 9.19C11.65 8.3 12.34 7.4 12.99 6.48V6.49ZM7.18 7.33H7.38C6.9 8.56 6.81 9.82 7.13 11.1C6.54 10.97 6.12 10.61 5.87 10.04C5.51 8.75 5.95 7.85 7.18 7.33ZM25.16 8.16C25.21 8.16 25.26 8.16 25.31 8.18C25.86 8.75 26.18 9.43 26.27 10.22C26.3 11.09 26.3 11.96 26.27 12.83C25.64 11.97 24.8 11.45 23.73 11.28C23.12 11.23 22.52 11.2 21.91 11.18C22.17 10.87 22.39 10.52 22.55 10.15C23.86 10.17 24.49 9.53 24.42 8.2C24.68 8.22 24.92 8.2 25.16 8.15V8.16ZM5.7 11.22C6.11 11.62 6.61 11.87 7.18 11.98L23.24 12.03C24.66 12.16 25.62 12.9 26.12 14.22C26.19 14.46 26.24 14.71 26.27 14.96C26.3 17.82 26.3 20.67 26.27 23.53C26.06 24.97 25.27 25.91 23.88 26.36C23.64 26.41 23.39 26.44 23.14 26.46C21.88 26.48 20.61 26.49 19.35 26.48C19.35 25.15 19.35 23.82 19.37 22.49L20.92 20.94C22.34 20.9 23.01 20.16 22.91 18.75C22.67 17.87 22.1 17.41 21.19 17.37C19.99 17.49 19.38 18.17 19.37 19.39L17.45 21.31C17.37 21.42 17.31 21.53 17.25 21.65C17.18 23.26 17.15 24.87 17.18 26.48H16.74C16.74 24.2 16.74 21.92 16.72 19.63C16.68 19.51 16.63 19.39 16.57 19.29L15.44 18.16C15.44 16.93 14.83 16.24 13.62 16.09C12.33 16.26 11.75 17 11.9 18.31C12.21 19.24 12.86 19.69 13.85 19.66L14.56 20.37C14.56 20.67 14.6 20.97 14.66 21.26C14.91 21.47 15.14 21.45 15.35 21.21C15.38 20.82 15.38 20.42 15.35 20.03C15.15 19.78 14.92 19.54 14.69 19.32C14.84 19.22 14.98 19.1 15.08 18.95C15.38 19.22 15.66 19.5 15.94 19.79C15.96 22.02 15.97 24.26 15.96 26.49H15.37C15.37 25.11 15.37 23.73 15.35 22.35C15.2 22.1 15 22.04 14.73 22.18C14.68 22.25 14.64 22.32 14.61 22.4C14.59 23.76 14.58 25.13 14.59 26.49H14.15C14.15 25.5 14.15 24.52 14.13 23.53C14.11 23.44 14.07 23.36 14.03 23.28C13.36 22.56 12.67 21.85 11.96 21.16C11.9 19.68 11.14 19.03 9.67 19.21C8.65 19.62 8.25 20.37 8.46 21.45C8.8 22.33 9.45 22.75 10.41 22.71L11.96 24.26C11.98 25 11.99 25.74 11.98 26.48C10.42 26.5 8.86 26.48 7.3 26.41C6.4 26.17 5.88 25.58 5.75 24.66C5.73 20.18 5.72 15.7 5.73 11.21L5.7 11.22ZM13.49 16.88C14.33 16.94 14.68 17.38 14.55 18.21C14.23 18.83 13.75 19 13.1 18.73C12.64 18.36 12.54 17.91 12.78 17.38C12.96 17.12 13.2 16.96 13.49 16.89V16.88ZM20.92 18.16C21.81 18.13 22.21 18.56 22.13 19.44C21.8 20.11 21.3 20.29 20.63 19.96C20.09 19.47 20.05 18.96 20.53 18.41C20.65 18.3 20.78 18.22 20.92 18.16ZM9.94 19.94C10.78 19.94 11.16 20.34 11.1 21.17C10.82 21.85 10.34 22.06 9.65 21.79C9.02 21.25 9 20.7 9.6 20.12L9.94 19.95V19.94ZM19.69 20.18C19.85 20.31 19.99 20.45 20.13 20.6C19.6 21.12 19.08 21.65 18.58 22.2C18.56 23.63 18.55 25.06 18.56 26.48H17.97C17.97 24.97 17.97 23.46 17.99 21.95C18.55 21.35 19.11 20.76 19.69 20.18ZM11.56 22C12.18 22.53 12.77 23.11 13.31 23.72C13.33 24.64 13.34 25.56 13.33 26.48H12.74C12.74 25.63 12.74 24.77 12.72 23.92L11.24 22.44C11.24 22.44 11.21 22.37 11.24 22.34C11.36 22.23 11.46 22.12 11.56 22Z" fill="black"/>
</svg>
