<svg width="32" height="32" viewBox="0 0 32 32" fill="none" xmlns="http://www.w3.org/2000/svg">
  <path fill-rule="evenodd" clip-rule="evenodd" d="M8.44999 12.06C8.17999 10.97 8.25 9.9 8.66 8.85H8.49C7.43999 9.29 7.06999 10.06 7.37999 11.16C7.58999 11.65 7.93999 11.95 8.44999 12.06Z" fill="#213147"/>
  <path fill-rule="evenodd" clip-rule="evenodd" d="M19.14 19.8C18.65 20.3 18.17 20.8 17.69 21.31C17.67 22.6 17.66 23.88 17.67 25.17H18.17C18.17 23.95 18.17 22.74 18.19 21.52C18.62 21.05 19.06 20.6 19.51 20.16C19.39 20.03 19.27 19.91 19.13 19.8H19.14Z" fill="#213147"/>
  <path fill-rule="evenodd" clip-rule="evenodd" d="M21.18 10.15C21.22 10.28 21.3 10.38 21.41 10.46C21.82 10.69 22.17 10.62 22.44 10.23L22.57 9.1C22.63 9.02 22.7 8.97 22.8 8.95C23.14 8.95 23.47 8.92 23.81 8.87C23.93 8.81 24.02 8.72 24.08 8.6C24.26 8.16 24.14 7.84 23.72 7.61C23.37 7.56 23.02 7.53 22.67 7.53C22.59 7.47 22.54 7.4 22.52 7.3C22.52 6.96 22.49 6.63 22.44 6.29C22.26 6.01 22 5.89 21.66 5.91C21.44 6 21.28 6.15 21.18 6.37C21.14 6.74 21.1 7.1 21.05 7.46C21.02 7.49 20.98 7.51 20.95 7.52L20.11 7.56C19.85 7.59 19.66 7.73 19.54 7.96C19.41 8.38 19.54 8.7 19.94 8.9L20.86 8.94C20.96 8.95 21.04 9 21.09 9.09C21.09 9.44 21.12 9.79 21.17 10.14L21.18 10.15Z" fill="#213147"/>
  <path fill-rule="evenodd" clip-rule="evenodd" d="M22.16 12.86L8.48 12.82C7.99 12.72 7.57 12.51 7.22 12.17C7.22 15.99 7.22 19.81 7.24 23.62C7.36 24.41 7.8 24.9 8.56 25.11C9.89 25.17 11.22 25.19 12.55 25.17C12.55 24.54 12.55 23.91 12.53 23.28L11.21 21.96C10.4 22 9.84 21.64 9.55 20.89C9.37 19.97 9.71 19.33 10.58 18.98C11.83 18.82 12.48 19.37 12.53 20.64C13.13 21.23 13.72 21.83 14.29 22.44C14.33 22.51 14.35 22.58 14.37 22.65C14.39 23.49 14.4 24.33 14.39 25.17H14.77C14.77 24.01 14.77 22.85 14.79 21.69C14.82 21.62 14.85 21.56 14.89 21.5C15.11 21.39 15.29 21.43 15.41 21.65C15.43 22.82 15.44 24 15.43 25.17H15.93C15.93 23.27 15.93 21.37 15.91 19.46C15.67 19.22 15.43 18.98 15.18 18.75C15.09 18.88 14.98 18.98 14.84 19.06C15.04 19.25 15.23 19.45 15.41 19.67C15.44 20.01 15.44 20.34 15.41 20.68C15.23 20.89 15.03 20.9 14.82 20.72C14.77 20.47 14.74 20.22 14.74 19.96L14.13 19.35C13.29 19.37 12.74 18.99 12.47 18.2C12.35 17.09 12.84 16.46 13.94 16.31C14.97 16.44 15.49 17.02 15.49 18.07L16.45 19.03C16.5 19.12 16.55 19.22 16.58 19.32C16.6 21.26 16.61 23.21 16.6 25.15H16.98C16.96 23.78 16.98 22.41 17.04 21.04C17.08 20.94 17.14 20.84 17.21 20.75L18.85 19.11C18.85 18.07 19.38 17.49 20.4 17.39C21.18 17.42 21.67 17.82 21.87 18.56C21.95 19.77 21.38 20.39 20.17 20.43L18.85 21.75C18.83 22.88 18.82 24.02 18.83 25.15C19.91 25.15 20.98 25.15 22.06 25.13C22.27 25.12 22.48 25.09 22.69 25.05C23.87 24.67 24.55 23.86 24.72 22.64C24.75 20.21 24.75 17.77 24.72 15.34C24.7 15.13 24.66 14.92 24.59 14.71C24.16 13.58 23.34 12.96 22.14 12.84L22.16 12.86Z" fill="#213147"/>
  <path fill-rule="evenodd" clip-rule="evenodd" d="M13.63 10.83L13.59 8.23C13.56 8.17 13.51 8.15 13.44 8.15C12.88 8.93 12.3 9.7 11.7 10.46C11.57 10.7 11.64 10.86 11.89 10.94L12.98 10.98C13.04 11.01 13.09 11.06 13.13 11.13C13.15 11.48 13.16 11.83 13.15 12.18C13.51 12.18 13.88 12.18 14.24 12.16C14.41 11.93 14.57 11.7 14.72 11.47C14.78 11.28 14.72 11.14 14.53 11.07L13.77 11.03C13.71 10.98 13.66 10.92 13.62 10.84L13.63 10.83Z" fill="#213147"/>
  <path fill-rule="evenodd" clip-rule="evenodd" d="M12.47 11.58C12.18 11.58 11.88 11.58 11.59 11.56C11.39 11.49 11.23 11.37 11.11 11.2C10.9 10.8 10.92 10.41 11.15 10.03C11.75 9.24 12.36 8.45 12.98 7.66C13.09 7.57 13.22 7.51 13.36 7.49C13.75 7.44 14.04 7.59 14.22 7.93C14.28 8.74 14.3 9.55 14.28 10.36C14.53 10.35 14.77 10.4 14.99 10.51C15.52 11.03 15.55 11.57 15.07 12.15C15.78 12.19 16.5 12.18 17.21 12.13C17.51 11.15 17.48 10.19 17.11 9.24C16.24 7.4 14.77 6.52 12.73 6.6C11.89 6.73 11.14 7.06 10.46 7.59C9.1 8.84 8.66001 10.36 9.16001 12.14C10.26 12.18 11.37 12.2 12.47 12.18V11.58Z" fill="#213147"/>
  <path fill-rule="evenodd" clip-rule="evenodd" d="M12.22 21.36C12.14 21.46 12.05 21.56 11.95 21.65C11.92 21.68 11.92 21.71 11.95 21.73L13.21 22.99C13.23 23.72 13.24 24.44 13.23 25.17H13.73C13.73 24.39 13.73 23.6 13.71 22.82C13.25 22.3 12.75 21.81 12.22 21.35V21.36Z" fill="#213147"/>
  <path fill-rule="evenodd" clip-rule="evenodd" d="M23.8 9.57C23.6 9.61 23.39 9.63 23.17 9.61C23.23 10.74 22.69 11.29 21.58 11.27C21.44 11.59 21.26 11.89 21.03 12.15C21.55 12.16 22.07 12.19 22.58 12.23C23.49 12.38 24.21 12.82 24.74 13.55C24.77 12.81 24.77 12.07 24.74 11.33C24.66 10.65 24.39 10.07 23.92 9.59C23.88 9.57 23.84 9.56 23.79 9.57H23.8Z" fill="#213147"/>
  <path fill-rule="evenodd" clip-rule="evenodd" d="M16 0C7.16 0 0 7.16 0 16C0 24.84 7.16 32 16 32C24.84 32 32 24.84 32 16C32 7.16 24.84 0 16 0ZM25.42 22.7C25.26 24.05 24.57 25.01 23.34 25.57C23.09 25.66 22.84 25.74 22.58 25.8H8.48C7.37 25.52 6.73 24.81 6.57 23.66C6.54 19.2 6.54 14.74 6.57 10.28C6.83 8.9 7.66 8.18 9.07 8.12C10.14 6.61 11.61 5.87 13.48 5.9C14.3 5.04 15.29 4.52 16.46 4.33H17.76C18.19 4.41 18.61 4.53 19.02 4.69C19.2 4.9 19.19 5.1 18.98 5.28C18.87 5.31 18.75 5.31 18.64 5.28C17.06 4.73 15.62 4.98 14.32 6.04C16.36 6.64 17.6 7.97 18.03 10.05C18.13 10.77 18.1 11.48 17.93 12.19C18.67 12.19 19.41 12.19 20.15 12.17C20.48 11.83 20.75 11.45 20.95 11.02C20.57 10.64 20.4 10.18 20.45 9.64C19.47 9.71 18.93 9.26 18.81 8.3C18.93 7.34 19.47 6.88 20.45 6.92C20.47 6.76 20.44 6.62 20.35 6.5L19.59 5.74C19.57 5.36 19.75 5.23 20.11 5.34C20.31 5.5 20.5 5.68 20.68 5.86C21.28 5.19 21.96 5.1 22.71 5.59C23.08 5.95 23.24 6.39 23.17 6.91C24.44 6.93 24.96 7.56 24.74 8.8C24.67 8.95 24.6 9.09 24.51 9.22C24.96 9.72 25.25 10.31 25.37 10.98C25.44 14.9 25.45 18.81 25.41 22.73L25.42 22.7Z" fill="#213147"/>
  <path fill-rule="evenodd" clip-rule="evenodd" d="M10.54 19.74C10.03 20.23 10.04 20.71 10.58 21.17C11.17 21.4 11.58 21.23 11.82 20.65C11.88 19.94 11.55 19.59 10.83 19.6L10.54 19.75V19.74Z" fill="#213147"/>
  <path fill-rule="evenodd" clip-rule="evenodd" d="M21.22 19.17C21.29 18.42 20.95 18.06 20.19 18.08C20.07 18.13 19.96 18.2 19.85 18.29C19.44 18.76 19.47 19.2 19.93 19.61C20.5 19.89 20.93 19.74 21.21 19.17H21.22Z" fill="#213147"/>
  <path fill-rule="evenodd" clip-rule="evenodd" d="M13.25 17.41C13.04 17.87 13.13 18.25 13.52 18.56C14.07 18.79 14.49 18.65 14.76 18.12C14.88 17.42 14.57 17.04 13.86 16.99C13.61 17.05 13.4 17.19 13.25 17.41Z" fill="#213147"/>
</svg>
