<svg width="32" height="32" viewBox="0 0 32 32" fill="none" xmlns="http://www.w3.org/2000/svg">
  <path d="M16 32C24.8366 32 32 24.8366 32 16C32 7.16344 24.8366 0 16 0C7.16344 0 0 7.16344 0 16C0 24.8366 7.16344 32 16 32Z" fill="url(#paint0_linear_1209_3030)"/>
  <path d="M26.51 10.28C27.17 19.36 21.11 23.68 15.67 24.15C10.62 24.59 5.88 21.62 5.47 17.02C5.13 13.23 7.57 11.59 9.48 11.44C11.45 11.27 13.09 12.57 13.24 14.15C13.38 15.67 12.39 16.37 11.7 16.42C11.16 16.47 10.48 16.15 10.41 15.48C10.36 14.89 10.6 14.82 10.53 14.2C10.43 13.09 9.43 12.97 8.89 13.02C8.23 13.07 7.03 13.83 7.18 15.68C7.35 17.55 9.21 19.03 11.65 18.81C14.29 18.57 16.14 16.6 16.27 13.82C16.27 13.67 16.3 13.53 16.37 13.4C16.4 13.35 16.42 13.3 16.47 13.25C16.54 13.15 16.61 13.06 16.69 12.98L16.93 12.74C18.08 11.7 22.25 9.20001 26.16 9.98001C26.19 9.98001 26.23 10 26.24 10.01C26.39 10.01 26.48 10.13 26.49 10.26" fill="white"/>
  <defs>
    <linearGradient id="paint0_linear_1209_3030" x1="29.86" y1="8" x2="2.13999" y2="24" gradientUnits="userSpaceOnUse">
      <stop stop-color="#5AC0CE"/>
      <stop offset="1" stop-color="#2860A7"/>
    </linearGradient>
  </defs>
</svg>
