<svg width="32" height="32" viewBox="0 0 32 32" fill="none" xmlns="http://www.w3.org/2000/svg">
  <path d="M16 0C7.16 0 0 7.16 0 16C0 24.84 7.16 32 16 32C24.84 32 32 24.84 32 16C32 7.16 24.84 0 16 0ZM15.67 24.14C10.62 24.58 5.88 21.61 5.47 17.01C5.13 13.22 7.57 11.58 9.48 11.43C11.45 11.26 13.09 12.56 13.24 14.14C13.38 15.66 12.39 16.36 11.7 16.41C11.16 16.46 10.48 16.14 10.41 15.47C10.36 14.88 10.6 14.81 10.53 14.19C10.43 13.08 9.43 12.96 8.89 13.01C8.23 13.06 7.03 13.82 7.18 15.67C7.35 17.54 9.21 19.02 11.65 18.8C14.29 18.56 16.14 16.59 16.27 13.81C16.27 13.66 16.3 13.52 16.37 13.39C16.4 13.34 16.42 13.29 16.47 13.24C16.54 13.14 16.61 13.05 16.69 12.97L16.93 12.73C18.08 11.69 22.25 9.19 26.16 9.97C26.19 9.97 26.23 9.99 26.24 10C26.39 10 26.48 10.12 26.49 10.25C27.15 19.33 21.09 23.65 15.65 24.12L15.67 24.14Z" fill="#213147"/>
</svg>
