<svg width="32" height="32" viewBox="0 0 32 32" fill="none" xmlns="http://www.w3.org/2000/svg">
<g clip-path="url(#clip0_2792_2095)">
<path d="M16 0C7.16 0 0 7.16 0 16C0 24.84 7.16 32 16 32C24.84 32 32 24.84 32 16C32 7.16 24.84 0 16 0ZM23.61 13.99L9.69 14.01C6.96 14.25 6.79 17.79 9.85 18.02C12.05 18.18 14.67 17.77 16.81 18.02C18.12 18.18 18.82 19.76 18.28 20.92C17.21 23.24 13.61 20.8 12.54 23.19C11.97 24.47 12.82 25.65 14.1 25.93C15.58 26.25 18.18 25.42 18.45 27.75C18.7 29.88 16.57 30.13 14.97 30.03C7.26 29.53 1.58 22.41 2.11 14.84C2.58 8.13 8.47 2.25 15.29 1.98C16.88 1.92 18.77 2.26 18.45 4.34C18.05 6.97 14.44 5.22 12.88 6.74C11.58 8.01 12.71 9.86 14.41 9.99C17.4 10.23 20.67 9.79 23.69 10.01C25.7 10.66 25.69 13.47 23.61 13.98V13.99Z" fill="#213147"/>
</g>
<defs>
<clipPath id="clip0_2792_2095">
<rect width="32" height="32" fill="white"/>
</clipPath>
</defs>
</svg>
