<svg width="32" height="32" viewBox="0 0 32 32" fill="none" xmlns="http://www.w3.org/2000/svg">
<g clip-path="url(#clip0_2792_2097)">
<path d="M16 32C24.8366 32 32 24.8366 32 16C32 7.16344 24.8366 0 16 0C7.16344 0 0 7.16344 0 16C0 24.8366 7.16344 32 16 32Z" fill="url(#paint0_linear_2792_2097)"/>
<path d="M12.89 6.76C11.59 8.03 12.72 9.88 14.42 10.01C17.41 10.25 20.68 9.81 23.7 10.03C25.71 10.68 25.7 13.49 23.62 14L9.7 14.02C6.97 14.26 6.8 17.8 9.86 18.03C12.06 18.19 14.68 17.78 16.82 18.03C18.13 18.19 18.83 19.77 18.29 20.93C17.22 23.25 13.62 20.81 12.55 23.2C11.98 24.48 12.83 25.66 14.11 25.94C15.59 26.26 18.19 25.43 18.46 27.76C18.71 29.89 16.58 30.14 14.98 30.04C7.27 29.54 1.59 22.42 2.12 14.85C2.59 8.14 8.48 2.26 15.3 1.99C16.89 1.93 18.78 2.27 18.46 4.35C18.06 6.98 14.45 5.23 12.89 6.75V6.76Z" fill="white"/>
</g>
<defs>
<linearGradient id="paint0_linear_2792_2097" x1="0" y1="16" x2="32" y2="16" gradientUnits="userSpaceOnUse">
<stop stop-color="#271F38"/>
<stop offset="1" stop-color="#7446D7"/>
</linearGradient>
<clipPath id="clip0_2792_2097">
<rect width="32" height="32" fill="white"/>
</clipPath>
</defs>
</svg>
