<svg width="32" height="32" viewBox="0 0 32 32" fill="none" xmlns="http://www.w3.org/2000/svg">
<g clip-path="url(#clip0_294_241)">
<path d="M16.0038 32.0025C24.8417 32.0025 32 24.8442 32 16.0062C32 7.16831 24.8417 0.00999451 16.0038 0.00999451C7.16583 0.00999451 0.00750732 7.16831 0.00750732 16.0062C0.00750732 24.8442 7.16583 32.0025 16.0038 32.0025Z" fill="#FFCC00"/>
<path d="M16.0038 1.33968C7.94564 1.35968 1.42717 7.89815 1.43716 15.9663C1.45716 24.0244 7.99563 30.5428 16.0637 30.5328C24.1218 30.5128 30.6403 23.9744 30.6303 15.9063C30.6303 12.0572 29.0907 8.36804 26.3813 5.63868C23.632 2.88932 19.9028 1.33968 16.0137 1.33968H16.0038ZM16.0038 0.00999451C24.8417 0.00999451 32 7.16831 32 16.0062C32 20.2452 30.3104 24.3143 27.3111 27.3136C21.0626 33.5621 10.9349 33.5621 4.6864 27.3136C-1.56213 21.065 -1.56213 10.9374 4.6864 4.6889C7.6857 1.68961 11.7547 0 15.9937 0L16.0038 0.00999451Z" fill="#003399"/>
<path d="M29.3406 16.0062C29.3406 21.395 26.0914 26.2538 21.1126 28.3234C14.3142 31.1427 6.516 27.9135 3.69666 21.105C3.36674 20.2952 3.10679 19.4654 2.93683 18.6056C1.49716 11.3873 6.18607 4.36897 13.4144 2.92931C14.2742 2.75935 15.144 2.66937 16.0138 2.66937C23.362 2.66937 29.3306 8.60798 29.3406 15.9663C29.3406 15.9763 29.3406 15.9862 29.3406 16.0062Z" fill="#003399"/>
<path d="M16.0038 5.55869L16.3237 6.51846H17.2835L16.5337 7.15832L16.8536 8.00812L16.0038 7.47824L15.154 8.00812L15.4739 7.15832L14.7241 6.51846H15.6839L16.0038 5.55869ZM11.3149 6.83839L11.6348 7.79817H12.5946L11.7448 8.32805L12.0647 9.28781L11.3149 8.75794L10.4651 9.28781L10.785 8.32805L9.9352 7.79817H11.005L11.3249 6.83839H11.3149ZM7.7957 10.2476L8.11563 11.2074H9.18538L8.33558 11.7372L8.6555 12.697L7.80571 12.0572L7.05589 12.697L7.3758 11.7372L6.52601 11.2074H7.48578L7.80571 10.2476H7.7957ZM20.7027 6.83839L21.0226 7.79817H22.0924L21.2425 8.32805L21.5625 9.28781L20.7127 8.75794L19.9628 9.28781L20.2828 8.32805L19.433 7.79817H20.3928L20.7127 6.83839H20.7027ZM25.3916 11.0974L24.5418 11.6273L24.8617 12.587L24.0119 12.0572L23.2621 12.587L23.582 11.6273L22.7322 11.0974H23.692L24.0119 10.1376L24.3318 11.0974H25.4016H25.3916ZM26.6713 15.7963L25.8215 16.3262L26.1414 17.2859L25.3916 16.6461L24.5418 17.2859L24.8617 16.3262L24.0119 15.7963H25.0817L25.4016 14.8365L25.6115 15.7963H26.6813H26.6713ZM24.9617 21.7649L24.1119 21.125L23.2621 21.7649L23.582 20.8051L22.8322 20.2752H23.792L24.1119 19.3155L24.4318 20.2752H25.5016L24.6517 20.8051L24.9717 21.7649H24.9617ZM15.264 26.4538L15.5839 25.494L14.7341 24.8542H15.8038L16.1238 23.8944L16.4437 24.8542H17.4034L16.6536 25.494L16.8636 26.4538L16.1138 25.8139L15.264 26.4538ZM10.5651 25.1741L10.885 24.2143L10.0352 23.6844H10.9949L11.3149 22.7247L11.6348 23.6844H12.7046L11.8547 24.2143L12.1747 25.1741L11.3249 24.6442L10.575 25.1741H10.5651ZM21.4425 25.1741L20.6927 24.5342L19.8429 25.1741L20.1628 24.2143L19.313 23.6844H20.3828L20.7027 22.7247L21.0226 23.6844H21.9824L21.1326 24.2143L21.4525 25.1741H21.4425ZM5.34628 15.7963H6.41604L6.62598 14.8365L6.94591 15.7963H8.01565L7.16586 16.3262L7.48578 17.2859L6.63599 16.7561L5.88616 17.2859L6.20608 16.3262L5.35627 15.7963H5.34628ZM7.04588 21.7649L7.36581 20.8051L6.516 20.2752H7.58576L7.90568 19.3155L8.22561 20.2752H9.18538L8.43555 20.8051L8.75548 21.7649L7.90568 21.125L7.05589 21.7649H7.04588Z" fill="#FFCC00"/>
</g>
<defs>
<clipPath id="clip0_294_241">
<rect width="32" height="32" fill="white"/>
</clipPath>
</defs>
</svg>
