<svg width="32" height="32" viewBox="0 0 32 32" fill="none" xmlns="http://www.w3.org/2000/svg">
<path d="M16.0038 1.34967C7.94564 1.36967 1.42717 7.90814 1.43716 15.9762C1.44716 24.0444 7.99563 30.5528 16.0637 30.5428C24.1218 30.5228 30.6403 23.9844 30.6303 15.9163C30.6303 12.0672 29.0907 8.37803 26.3813 5.64867C23.632 2.89931 19.9028 1.34967 16.0137 1.34967H16.0038ZM16.0038 0.00999216C24.8417 0.00999216 32 7.16831 32 16.0062C32 20.2452 30.3104 24.3143 27.3111 27.3136C21.0626 33.5621 10.9349 33.5621 4.6864 27.3136C-1.56213 21.065 -1.56213 10.9374 4.6864 4.68889C7.6857 1.68959 11.7547 0 15.9937 0L16.0038 0.00999216Z" fill="#213147"/>
<path d="M16.0038 2.67936C15.134 2.67936 14.2642 2.76934 13.4044 2.9393C6.18605 4.37896 1.49716 11.3973 2.92682 18.6156C3.09678 19.4754 3.34672 20.3052 3.68664 21.115C6.50598 27.9134 14.3041 31.1527 21.1026 28.3333C26.0814 26.2738 29.3306 21.405 29.3306 16.0162V15.9762C29.3306 8.62797 23.352 2.66936 16.0038 2.67936ZM5.33626 15.7963H6.406L6.61596 14.8365L6.93588 15.7963H8.00563L7.15583 16.3262L7.47576 17.2859L6.62595 16.7561L5.87613 17.2859L6.19606 16.3262L5.34625 15.7963H5.33626ZM8.74545 21.7649L7.89566 21.125L7.04585 21.7649L7.36578 20.8051L6.51598 20.2752H7.58573L7.90565 19.3155L8.22558 20.2752H9.18535L8.43552 20.8051L8.75546 21.7649H8.74545ZM8.32555 11.7472L8.64548 12.707L7.79568 12.0672L7.04585 12.707L7.36578 11.7472L6.51598 11.2174H7.47576L7.79568 10.2576L8.11561 11.2174H9.18535L8.33556 11.7472H8.32555ZM10.9849 7.79816L11.3049 6.83839L11.6248 7.79816H12.5846L11.7348 8.32803L12.0547 9.28781L11.3049 8.75794L10.4551 9.28781L10.775 8.32803L9.92518 7.79816H10.9949H10.9849ZM12.1647 25.1841L11.3149 24.6542L10.565 25.1841L10.8849 24.2243L10.0352 23.6944H10.9949L11.3149 22.7347L11.6348 23.6944H12.7045L11.8547 24.2243L12.1747 25.1841H12.1647ZM15.6838 6.51846L16.0038 5.55869L16.3237 6.51846H17.2835L16.5336 7.15831L16.8535 8.00811L16.0038 7.47824L15.1539 8.00811L15.4739 7.15831L14.7241 6.51846H15.6838ZM16.8535 26.4638L16.1037 25.8239L15.2539 26.4638L15.5738 25.504L14.7241 24.8642H15.7938L16.1137 23.9044L16.4336 24.8642H17.3934L16.6436 25.504L16.8535 26.4638ZM21.4425 25.1841L20.6927 24.5442L19.8429 25.1841L20.1628 24.2243L19.313 23.6944H20.3827L20.7027 22.7347L21.0226 23.6944H21.9823L21.1325 24.2243L21.4525 25.1841H21.4425ZM21.2225 8.32803L21.5424 9.28781L20.6927 8.75794L19.9428 9.28781L20.2628 8.32803L19.413 7.79816H20.3727L20.6927 6.83839L21.0126 7.79816H22.0823L21.2325 8.32803H21.2225ZM23.6819 11.1074L24.0019 10.1476L24.3218 11.1074H25.3916L24.5417 11.6373L24.8617 12.597L24.0119 12.0672L23.262 12.597L23.582 11.6373L22.7322 11.1074H23.692H23.6819ZM24.6417 20.8051L24.9616 21.7649L24.1119 21.125L23.262 21.7649L23.582 20.8051L22.8322 20.2752H23.7919L24.1119 19.3155L24.4318 20.2752H25.5015L24.6517 20.8051H24.6417ZM26.1314 17.2859L25.3815 16.6461L24.5318 17.2859L24.8517 16.3262L24.0019 15.7963H25.0716L25.3916 14.8365L25.6015 15.7963H26.6713L25.8214 16.3262L26.1414 17.2859H26.1314Z" fill="#213147"/>
</svg>
