<svg width="32" height="32" viewBox="0 0 32 32" fill="none" xmlns="http://www.w3.org/2000/svg">
<g clip-path="url(#clip0_2940_1959)">
<path d="M15.93 11.87L15.22 14.72C16.03 14.92 18.51 15.74 18.91 14.13C19.33 12.45 16.74 12.08 15.93 11.87Z" fill="#7240EC"/>
<path d="M14.86 16.15L14.08 19.29C15.05 19.53 18.03 20.49 18.47 18.72C18.93 16.87 15.83 16.4 14.86 16.15Z" fill="#7240EC"/>
<path d="M19.14 3.39C12.18 1.65 5.13 5.89 3.39 12.86C1.65 19.82 5.89 26.87 12.85 28.61C19.81 30.35 26.87 26.11 28.6 19.15C30.34 12.19 26.1 5.13 19.14 3.4V3.39ZM21.73 14.15C21.54 15.42 20.84 16.03 19.91 16.24C21.19 16.91 21.84 17.93 21.22 19.7C20.45 21.9 18.62 22.09 16.19 21.62L15.6 23.98L14.17 23.62L14.75 21.29C14.38 21.2 14 21.1 13.61 21L13.03 23.34L11.61 22.98L12.2 20.61C11.87 20.52 11.53 20.43 11.18 20.35L9.32 19.89L10.03 18.26C10.03 18.26 11.08 18.54 11.07 18.52C11.47 18.62 11.65 18.36 11.72 18.18L12.65 14.44C12.7 14.45 12.75 14.47 12.8 14.48C12.74 14.46 12.69 14.44 12.65 14.43L13.32 11.76C13.34 11.46 13.23 11.07 12.66 10.93C12.68 10.91 11.62 10.67 11.62 10.67L12 9.15L13.97 9.64C14.27 9.72 14.57 9.79 14.88 9.86L15.46 7.52L16.89 7.88L16.32 10.18C16.7 10.27 17.09 10.36 17.46 10.45L18.03 8.17L19.46 8.53L18.88 10.87C20.68 11.49 22 12.42 21.74 14.15H21.73Z" fill="#7240EC"/>
<path d="M16 0C7.16 0 0 7.16 0 16C0 24.84 7.16 32 16 32C24.84 32 32 24.84 32 16C32 7.16 24.84 0 16 0ZM16.01 30.36C8.08 30.36 1.65 23.93 1.65 16C1.65 8.07 8.07 1.64 16.01 1.64C23.95 1.64 30.37 8.07 30.37 16C30.37 23.93 23.94 30.36 16.01 30.36Z" fill="url(#paint0_linear_2940_1959)"/>
</g>
<defs>
<linearGradient id="paint0_linear_2940_1959" x1="16" y1="0" x2="16" y2="32" gradientUnits="userSpaceOnUse">
<stop stop-color="#936CEF"/>
<stop offset="1" stop-color="#733FEE"/>
</linearGradient>
<clipPath id="clip0_2940_1959">
<rect width="32" height="32" fill="white"/>
</clipPath>
</defs>
</svg>
