<svg width="32" height="32" viewBox="0 0 32 32" fill="none" xmlns="http://www.w3.org/2000/svg">
<g clip-path="url(#clip0_2940_1955)">
<path d="M15.93 11.86L15.22 14.71C16.03 14.91 18.51 15.73 18.91 14.12C19.33 12.44 16.74 12.07 15.93 11.86Z" fill="#213147"/>
<path d="M14.86 16.15L14.08 19.29C15.05 19.53 18.03 20.49 18.47 18.72C18.93 16.87 15.83 16.4 14.86 16.15Z" fill="#213147"/>
<path d="M19.14 3.39C12.18 1.65 5.13 5.89 3.39 12.86C1.65 19.82 5.89 26.87 12.85 28.61C19.81 30.35 26.87 26.11 28.6 19.15C30.34 12.19 26.1 5.13 19.14 3.4V3.39ZM21.73 14.14C21.54 15.41 20.84 16.02 19.91 16.23C21.19 16.9 21.84 17.92 21.22 19.69C20.45 21.89 18.62 22.08 16.19 21.61L15.6 23.97L14.17 23.61L14.75 21.28C14.38 21.19 14 21.09 13.61 20.99L13.03 23.33L11.61 22.97L12.2 20.6C11.87 20.51 11.53 20.42 11.18 20.34L9.32 19.88L10.03 18.25C10.03 18.25 11.08 18.53 11.07 18.51C11.47 18.61 11.65 18.35 11.72 18.17L12.65 14.43C12.7 14.44 12.75 14.46 12.8 14.47C12.74 14.45 12.69 14.43 12.65 14.42L13.32 11.75C13.34 11.45 13.23 11.06 12.66 10.92C12.68 10.9 11.62 10.66 11.62 10.66L12 9.14L13.97 9.63C14.27 9.71 14.57 9.78 14.88 9.85L15.46 7.51L16.89 7.87L16.32 10.17C16.7 10.26 17.09 10.35 17.46 10.44L18.03 8.16L19.46 8.52L18.88 10.86C20.68 11.48 22 12.41 21.74 14.14H21.73Z" fill="#213147"/>
<path d="M16 0C7.16 0 0 7.16 0 16C0 24.84 7.16 32 16 32C24.84 32 32 24.84 32 16C32 7.16 24.84 0 16 0ZM16.01 30.36C8.08 30.36 1.65 23.93 1.65 16C1.65 8.07 8.08 1.64 16.01 1.64C23.94 1.64 30.37 8.07 30.37 16C30.37 23.93 23.94 30.36 16.01 30.36Z" fill="#213147"/>
</g>
<defs>
<clipPath id="clip0_2940_1955">
<rect width="32" height="32" fill="white"/>
</clipPath>
</defs>
</svg>
