<svg width="32" height="33" viewBox="0 0 32 33" fill="none" xmlns="http://www.w3.org/2000/svg">
<path d="M16 0.640015C7.16 0.640015 0 7.80001 0 16.64C0 25.48 7.16 32.64 16 32.64C24.84 32.64 32 25.48 32 16.64C32 7.80001 24.84 0.640015 16 0.640015ZM16.67 3.91002C16.69 3.84002 16.72 3.78001 16.76 3.73001C16.94 3.50001 17.26 3.46002 17.49 3.63002L24.07 8.47002C24.13 8.52002 24.19 8.58002 24.22 8.65002C24.34 8.89002 24.25 9.18001 24.01 9.30001L14.26 14.69L16.66 3.91002H16.67ZM14.54 28.33C14.38 28.56 14.07 28.61 13.85 28.46L7.47 23.56C7.14 23.3 6.94 22.9 6.95 22.48V10C6.95 9.59002 7.14 9.19001 7.47 8.94001L13.88 4.02002C13.99 3.94002 14.13 3.92001 14.26 3.94001C14.53 3.99001 14.7 4.25002 14.65 4.52002L12.15 16.23L14.62 27.94C14.65 28.07 14.62 28.21 14.54 28.32V28.33ZM24.07 24.39L17.48 29.23C17.42 29.28 17.36 29.31 17.29 29.33C17.01 29.4 16.73 29.22 16.66 28.94L14.26 18.16L24.02 23.55C24.09 23.59 24.14 23.64 24.19 23.7C24.35 23.92 24.3 24.23 24.08 24.39H24.07ZM25.05 21.51C25.05 21.6 25.03 21.7 24.98 21.78C24.84 22.02 24.52 22.1 24.28 21.95L14.65 16.43L24.28 10.91C24.36 10.86 24.46 10.83 24.55 10.83C24.83 10.83 25.05 11.06 25.05 11.34V21.5V21.51Z" fill="#213147"/>
</svg>
