<svg width="32" height="32" viewBox="0 0 32 32" fill="none" xmlns="http://www.w3.org/2000/svg">
<path d="M16 32C24.8366 32 32 24.8366 32 16C32 7.16344 24.8366 0 16 0C7.16344 0 0 7.16344 0 16C0 24.8366 7.16344 32 16 32Z" fill="#0C2F2F"/>
<path fill-rule="evenodd" clip-rule="evenodd" d="M5.03 27.58H18.69V22.59H1.48C2.34 24.48 3.54 26.17 5.03 27.58Z" fill="url(#paint0_linear_2235_9)"/>
<path fill-rule="evenodd" clip-rule="evenodd" d="M1.48 22.59H21.32V9.99H1.23C0.48 11.84 0.05 13.87 0.05 16C0.05 18.35 0.57 20.58 1.48 22.59Z" fill="url(#paint1_radial_2235_9)"/>
<path fill-rule="evenodd" clip-rule="evenodd" d="M18.68 9.99V5H4.46C3.09 6.44 1.99 8.12 1.23 9.99H18.68Z" fill="url(#paint2_linear_2235_9)"/>
<path fill-rule="evenodd" clip-rule="evenodd" d="M18.74 8.38C21.49 8.62 23.66 9.45 23.9 11.92C24.08 13.73 23.31 14.82 22.07 15.44C24.1 15.92 25.37 17.11 25.12 19.76C24.81 23.06 22.31 23.94 18.73 24.14V27.57H16.6V24.19C16.05 24.19 15.48 24.19 14.9 24.17V27.57H12.77V24.13C12.27 24.13 9.98 24.12 8.55 24.12L8.57 21.5H11.26V10.49H8.71V8.38C8.71 8.38 12.31 8.38 12.77 8.38V5H14.9V8.31C15.47 8.3 16.04 8.29 16.6 8.29L16.63 5H18.76L18.73 8.38H18.74ZM15.38 21.65C17.12 21.67 20.93 21.73 20.93 19.35C20.93 16.91 17.27 17 15.48 17.04C15.42 17.04 15.36 17.04 15.31 17.04C15.12 17.04 14.97 17.2 14.97 17.39V21.29C14.97 21.48 15.12 21.64 15.32 21.64C15.34 21.64 15.37 21.64 15.39 21.64L15.38 21.65ZM15.32 14.94C16.77 14.96 19.94 15.02 19.94 12.85C19.94 10.64 16.89 10.71 15.4 10.75C15.37 10.75 15.34 10.75 15.3 10.75C15.11 10.75 14.96 10.91 14.96 11.1V14.58C14.96 14.77 15.11 14.93 15.31 14.93L15.32 14.94Z" fill="#B2FFF2"/>
<defs>
<linearGradient id="paint0_linear_2235_9" x1="0" y1="15.9679" x2="31.9814" y2="15.9679" gradientUnits="userSpaceOnUse">
<stop stop-color="#1C7069"/>
<stop offset="1" stop-color="#23867C"/>
</linearGradient>
<radialGradient id="paint1_radial_2235_9" cx="0" cy="0" r="1" gradientUnits="userSpaceOnUse" gradientTransform="translate(32.2558 15.3463) scale(30.9619 30.3147)">
<stop stop-color="#268F83"/>
<stop offset="0.27" stop-color="#24877C"/>
<stop offset="0.66" stop-color="#1E736B"/>
<stop offset="1" stop-color="#195D58"/>
</radialGradient>
<linearGradient id="paint2_linear_2235_9" x1="0" y1="15.9679" x2="-0.421776" y2="15.9679" gradientUnits="userSpaceOnUse">
<stop stop-color="#1C7069"/>
<stop offset="1" stop-color="#23867C"/>
</linearGradient>
</defs>
</svg>
