<svg width="32" height="32" viewBox="0 0 32 32" fill="none" xmlns="http://www.w3.org/2000/svg">
<path d="M15.31 14.9601C16.76 14.9801 19.93 15.0401 19.93 12.8701C19.93 10.6601 16.88 10.7301 15.39 10.7701C15.36 10.7701 15.33 10.7701 15.29 10.7701C15.1 10.7701 14.95 10.9301 14.95 11.1201V14.6001C14.95 14.7901 15.1 14.9501 15.3 14.9501L15.31 14.9601Z" fill="#213147"/>
<path d="M15.48 17.05C15.42 17.05 15.36 17.05 15.31 17.05C15.12 17.05 14.97 17.21 14.97 17.4V21.3C14.97 21.49 15.12 21.65 15.32 21.65C15.34 21.65 15.37 21.65 15.39 21.65C17.13 21.67 20.94 21.73 20.94 19.35C20.94 16.91 17.28 17 15.49 17.04L15.48 17.05Z" fill="#213147"/>
<path d="M14.91 27.1097H16.61V24.1997C16.06 24.1997 15.49 24.1997 14.91 24.1797V27.1097Z" fill="#213147"/>
<path d="M12.79 24.1501C12.29 24.1501 10 24.1401 8.57002 24.1401C8.57002 24.1401 8.57002 23.5201 8.57002 22.8901H1.58002C2.33002 24.4501 3.31002 25.8801 4.50002 27.1101H12.79V24.1501Z" fill="#213147"/>
<path d="M11.27 21.5199V10.5099H8.72V10.1899H1.11C0.4 11.9999 0 13.9599 0 16.0199C0 18.2999 0.49 20.4599 1.35 22.4199H8.57C8.57 21.9299 8.57 21.5199 8.57 21.5199H11.27Z" fill="#213147"/>
<path d="M8.72999 8.4C8.72999 8.4 12.33 8.4 12.79 8.4V5.49H3.96999C2.86999 6.74 1.95999 8.16 1.29999 9.71H8.72999V8.4Z" fill="#213147"/>
<path d="M16.62 8.3L16.64 5.48H14.92V8.32C15.49 8.31 16.06 8.3 16.62 8.3Z" fill="#213147"/>
<path d="M16 0.00999832C11.43 0.00999832 7.30999 1.93 4.38999 5.01H18.77L18.74 8.39C21.49 8.63 23.66 9.46 23.9 11.93C24.08 13.74 23.31 14.83 22.07 15.45C24.1 15.93 25.37 17.12 25.12 19.77C24.81 23.07 22.31 23.95 18.73 24.15V27.58H4.97999C7.84999 30.31 11.73 32 16 32C24.84 32 32 24.84 32 16C32 7.16 24.84 0 16 0V0.00999832Z" fill="#213147"/>
</svg>
