<svg width="32" height="32" viewBox="0 0 32 32" fill="none" xmlns="http://www.w3.org/2000/svg">
  <path d="M16 32C24.8366 32 32 24.8366 32 16C32 7.16344 24.8366 0 16 0C7.16344 0 0 7.16344 0 16C0 24.8366 7.16344 32 16 32Z" fill="#83DBFA"/>
  <path d="M21.23 24.33H7.99V10.38H11.02V21.63H21.23V24.33Z" fill="#121212"/>
  <path d="M21.23 13.08C22.72 13.08 23.93 11.87 23.93 10.38C23.93 8.89 22.72 7.68 21.23 7.68C19.74 7.68 18.53 8.89 18.53 10.38C18.53 11.87 19.74 13.08 21.23 13.08Z" fill="#121212"/>
</svg>
