<svg width="32" height="32" viewBox="0 0 32 32" fill="none" xmlns="http://www.w3.org/2000/svg">
<g clip-path="url(#clip0_297_158)">
<path d="M15.9999 32.0001C24.8399 32.0001 31.9999 24.8401 31.9999 16.0001C31.9999 7.16012 24.8399 0.00012207 15.9999 0.00012207C7.15994 0.00012207 -6.10352e-05 7.16012 -6.10352e-05 16.0001C-6.10352e-05 24.8401 7.15994 32.0001 15.9999 32.0001Z" fill="white"/>
<path d="M16.0199 2.43012L13.5299 3.86012L6.73993 7.78012L4.24994 9.21012V22.7801L6.73993 24.2101L13.5899 28.1301L16.0799 29.5601L18.5699 28.1301L25.2899 24.2101L27.7799 22.7801V9.21012L25.2899 7.78012L18.4999 3.86012L16.0099 2.43012H16.0199ZM9.23993 19.9301V12.0801L16.0299 8.16012L22.8199 12.0801V19.9201L16.0299 23.8401L9.23993 19.9201V19.9301Z" fill="#3659D1"/>
</g>
<defs>
<clipPath id="clip0_297_158">
<rect width="32" height="32" fill="white"/>
</clipPath>
</defs>
</svg>
