<svg width="32" height="32" viewBox="0 0 32 32" fill="none" xmlns="http://www.w3.org/2000/svg">
  <path d="M16 32C24.8366 32 32 24.8366 32 16C32 7.16344 24.8366 0 16 0C7.16344 0 0 7.16344 0 16C0 24.8366 7.16344 32 16 32Z" fill="white"/>
  <path d="M3.53 12.67L3.51 12.69C2.78 13.37 2.3 14.27 2.13 15.26C2.09 15.5 2.07 15.74 2.07 15.98V16.01C2.07 16.24 2.09 16.47 2.13 16.7C2.24 17.41 2.53 18.11 3 18.72C3.15 18.92 3.33 19.12 3.52 19.3L3.54 19.32C3.94 19.7 4.41 20.01 4.91 20.23C6.72 21.02 8.93 20.66 10.58 19.33C10.58 19.33 10.58 19.33 10.59 19.32C12.45 17.82 14.16 16.46 16 16.46C17.84 16.46 19.55 17.82 21.41 19.32C21.91 19.72 22.46 20.04 23.06 20.27C23.81 20.56 24.62 20.68 25.42 20.63C26.56 20.56 27.64 20.1 28.47 19.32L28.49 19.3C28.68 19.12 28.85 18.92 29.01 18.72C29.46 18.13 29.76 17.43 29.88 16.7C29.96 16.22 29.95 15.74 29.88 15.26C29.71 14.28 29.23 13.38 28.5 12.69L28.48 12.67C27.62 11.86 26.54 11.43 25.43 11.36C24.63 11.31 23.82 11.44 23.07 11.73C22.48 11.96 21.92 12.27 21.42 12.67C19.55 14.16 17.86 15.53 16.01 15.53C14.16 15.53 12.47 14.16 10.6 12.67H10.59C9.52 11.81 8.21 11.35 6.93 11.35C6.24 11.35 5.55 11.49 4.92 11.76C4.41 11.98 3.95 12.29 3.55 12.67H3.53Z" fill="url(#paint0_radial_1209_3028)"/>
  <defs>
    <radialGradient id="paint0_radial_1209_3028" cx="0" cy="0" r="1" gradientUnits="userSpaceOnUse" gradientTransform="translate(1.18041 9.53362) scale(31.8768 16.3038)">
      <stop stop-color="#6CE1C3"/>
      <stop offset="0.1" stop-color="#6CE1C3"/>
      <stop offset="0.47" stop-color="#5141CE"/>
      <stop offset="0.63" stop-color="#8033DB"/>
      <stop offset="0.8" stop-color="#C236E2"/>
      <stop offset="1" stop-color="#9E41F3"/>
    </radialGradient>
  </defs>
</svg>
