<svg width="32" height="32" viewBox="0 0 32 32" fill="none" xmlns="http://www.w3.org/2000/svg">
  <path d="M16 0C7.16 0 0 7.16 0 16C0 24.84 7.16 32 16 32C24.84 32 32 24.84 32 16C32 7.16 24.84 0 16 0ZM29.01 18.72C28.86 18.92 28.68 19.12 28.49 19.3L28.47 19.32C27.64 20.1 26.56 20.56 25.42 20.63C24.62 20.68 23.81 20.56 23.06 20.27C22.46 20.04 21.91 19.72 21.41 19.32C19.55 17.82 17.84 16.46 16 16.46C14.16 16.46 12.45 17.82 10.59 19.32C10.59 19.32 10.59 19.32 10.58 19.33C8.93 20.65 6.72 21.02 4.91 20.23C4.4 20.01 3.94 19.7 3.54 19.32L3.52 19.3C3.33 19.12 3.16 18.92 3 18.72C2.54 18.11 2.25 17.41 2.13 16.7C2.09 16.47 2.07 16.24 2.07 16.01V15.98C2.07 15.74 2.09 15.5 2.13 15.26C2.3 14.28 2.78 13.38 3.51 12.69L3.53 12.67C3.93 12.29 4.39 11.98 4.9 11.76C5.54 11.49 6.22 11.35 6.91 11.35C8.19 11.35 9.5 11.81 10.57 12.66H10.58C12.45 14.16 14.14 15.53 15.99 15.53C17.84 15.53 19.53 14.16 21.4 12.67C21.9 12.27 22.45 11.96 23.05 11.73C23.8 11.44 24.61 11.32 25.41 11.36C26.52 11.43 27.59 11.85 28.46 12.67L28.48 12.69C29.21 13.37 29.69 14.27 29.86 15.26C29.94 15.74 29.94 16.22 29.86 16.7C29.74 17.43 29.44 18.13 28.99 18.72H29.01Z" fill="#213147"/>
</svg>
