<svg xmlns="http://www.w3.org/2000/svg" fill="none" viewBox="0 0 36 12"><path fill="url(#a)" d="m1.888 1.702-.03.028A5.924 5.924 0 0 0 .08 5.046c-.052.308-.078.62-.079.93v.036c0 .3.025.598.072.894.148.923.522 1.82 1.122 2.612.198.261.42.511.668.747l.026.025a6.211 6.211 0 0 0 1.772 1.173c2.342 1.026 5.194.55 7.327-1.16a.496.496 0 0 1 .017-.013c2.408-1.941 4.618-3.7 6.996-3.7s4.588 1.759 6.996 3.7a7.842 7.842 0 0 0 2.13 1.224 7.24 7.24 0 0 0 3.05.47 6.28 6.28 0 0 0 3.936-1.694l.026-.025c.248-.236.47-.486.669-.747a5.84 5.84 0 0 0 1.12-2.612 5.754 5.754 0 0 0-.006-1.86 5.926 5.926 0 0 0-1.78-3.316l-.03-.028C32.996.65 31.61.106 30.177.014a7.323 7.323 0 0 0-3.053.474 7.93 7.93 0 0 0-2.127 1.214c-2.417 1.93-4.606 3.7-6.996 3.7-2.39 0-4.579-1.77-6.996-3.7l-.013-.01C9.606.592 7.917 0 6.261 0a6.51 6.51 0 0 0-2.603.531 6.168 6.168 0 0 0-1.77 1.171z"/><defs><radialGradient id="a" cx="0" cy="0" r="1" gradientTransform="matrix(41.2215 0 0 21.0874 -.869 3.328)" gradientUnits="userSpaceOnUse"><stop stop-color="#1CE5C3"/><stop offset=".103" stop-color="#1CE5C3"/><stop offset=".475" stop-color="#5440D7"/><stop offset=".631" stop-color="#8B2CE4"/><stop offset=".796" stop-color="#D421EB"/><stop offset="1" stop-color="#AC39FD"/></radialGradient></defs></svg>