<svg width="32" height="32" viewBox="0 0 32 32" fill="none" xmlns="http://www.w3.org/2000/svg">
<path d="M31.3681 20.5342C29.6771 26.3824 24.8243 30.7661 18.8508 31.8395V27.2752C19.9315 26.864 20.902 26.2119 21.6925 25.3592C22.1327 24.8878 22.5029 24.3561 22.8131 23.7843C23.3834 22.7009 23.6836 21.4871 23.6736 20.2533C23.6736 16.2207 20.7619 14.6056 18.0404 13.4019L16.6596 12.79C15.1787 12.1279 14.0581 11.5361 14.0581 10.5229C14.0581 9.12853 15.2788 8.37618 16.4195 8.37618C17.6402 8.37618 18.3305 8.82759 19.061 10.1016L19.6313 11.0846L23.2834 8.7373L22.8031 7.85455C21.9626 6.25956 20.5518 5.03574 18.8508 4.44389V0.250784C19.201 0.310972 19.5512 0.391222 19.9115 0.481504C19.9415 0.481504 19.9815 0.501567 20.0215 0.501567C20.0616 0.501567 20.1016 0.521629 20.1416 0.53166C20.1516 0.53166 20.1616 0.53166 20.1716 0.53166C20.2717 0.551723 20.3617 0.581819 20.4618 0.611913C28.9466 3.08966 33.8295 11.9975 31.358 20.5041L31.3681 20.5342Z" fill="#213147"/>
<path d="M19.2011 20.484C19.2011 22.3197 17.5401 23.4633 16.0092 23.4633C14.1682 23.4633 13.1176 21.9386 12.9174 20.5241L12.7473 19.3003L8.33478 20.5442L8.53491 21.5373C9.16527 24.6571 11.2865 26.894 14.1781 27.5762V32C13.3977 31.9097 12.6173 31.7592 11.8568 31.5486C11.7468 31.5285 11.6467 31.4884 11.5366 31.4583C4.70271 29.4621 0 23.1925 0 16.0502V0.631976C0 0.280879 0.280166 0 0.630368 0H14.1781V4.41379C12.5972 4.87524 11.2465 5.91849 10.406 7.34295C9.86567 8.28589 9.58551 9.35925 9.59552 10.4527V10.5429C9.63554 14.1442 12.2771 15.6489 14.7685 16.7824L16.0192 17.3241L16.1193 17.3743C18.1004 18.2771 19.211 18.879 19.211 20.484H19.2011Z" fill="#213147"/>
</svg>
