<svg width="32" height="32" viewBox="0 0 32 32" fill="none" xmlns="http://www.w3.org/2000/svg">
<g clip-path="url(#clip0_2253_3)">
<path fill-rule="evenodd" clip-rule="evenodd" d="M17.65 5.48L18.47 0.190002C17.66 0.0600024 16.83 0 16 0H15.99V10.8H16C16.45 10.8 16.91 10.86 17.34 10.97L18.74 5.71C18.38 5.62 18.02 5.54 17.65 5.48Z" fill="#213147"/>
<path fill-rule="evenodd" clip-rule="evenodd" d="M13.39 11.49L10.7 6.86C10.38 7.04 10.08 7.24 9.78 7.46L6.57 3.06C7.24 2.57 7.96 2.12 8.71 1.74L11.15 6.51C11.65 6.26 12.16 6.04 12.69 5.87L11.03 0.780003C11.82 0.520003 12.65 0.320002 13.47 0.190002L14.33 5.57C13.97 5.63 13.61 5.71 13.25 5.8L14.64 10.97C14.2 11.09 13.78 11.26 13.39 11.49Z" fill="#213147"/>
<path fill-rule="evenodd" clip-rule="evenodd" d="M6.59 11.22L1.74 8.75C1.36 9.5 1.04 10.28 0.779999 11.07L5.96 12.74C6.13 12.22 6.34 11.7 6.59 11.21V11.22Z" fill="#213147"/>
<path fill-rule="evenodd" clip-rule="evenodd" d="M25.13 10.7L20.5 13.39C20.73 13.78 20.9 14.2 21.02 14.64L26.19 13.25C26.29 13.6 26.36 13.96 26.42 14.33L31.8 13.47C31.67 12.64 31.47 11.82 31.21 11.03L26.12 12.69C25.95 12.16 25.73 11.65 25.48 11.15L30.25 8.7C29.87 7.96 29.43 7.24 28.93 6.57L24.53 9.78C24.75 10.08 24.94 10.38 25.13 10.7Z" fill="#213147"/>
<path fill-rule="evenodd" clip-rule="evenodd" d="M23.24 1.73C22.49 1.35 21.71 1.03 20.92 0.77L19.25 5.95C19.77 6.12 20.29 6.33 20.78 6.58L23.25 1.73H23.24Z" fill="#213147"/>
<path fill-rule="evenodd" clip-rule="evenodd" d="M21.31 6.77L18.59 11.49C18.98 11.72 19.35 11.99 19.67 12.32L27.29 4.67C26.7 4.08 26.06 3.53 25.38 3.04L22.24 7.38C21.94 7.16 21.63 6.96 21.31 6.78V6.77Z" fill="#213147"/>
<path fill-rule="evenodd" clip-rule="evenodd" d="M11.49 13.4L6.77 10.68C6.95 10.36 7.16 10.05 7.37 9.75L3.04 6.6C3.53 5.93 4.08 5.28 4.67 4.69L12.32 12.32C12 12.64 11.72 13.01 11.49 13.4Z" fill="#213147"/>
<path fill-rule="evenodd" clip-rule="evenodd" d="M5.71 13.25L10.97 14.65C10.85 15.08 10.8 15.54 10.8 15.99H0C0 15.16 0.06 14.32 0.19 13.51L5.48 14.34C5.54 13.97 5.61 13.61 5.71 13.25Z" fill="#213147"/>
<path fill-rule="evenodd" clip-rule="evenodd" d="M25.41 20.77L30.26 23.24C30.64 22.49 30.96 21.71 31.22 20.92L26.04 19.25C25.87 19.77 25.66 20.29 25.41 20.78V20.77Z" fill="#213147"/>
<path fill-rule="evenodd" clip-rule="evenodd" d="M18.6 20.5L21.29 25.13C21.61 24.95 21.91 24.75 22.21 24.53L25.42 28.93C24.75 29.42 24.03 29.87 23.28 30.25L20.84 25.48C20.34 25.73 19.83 25.95 19.3 26.12L20.96 31.21C20.17 31.47 19.34 31.67 18.52 31.8L17.66 26.42C18.02 26.36 18.38 26.28 18.74 26.19L17.35 21.02C17.79 20.9 18.21 20.73 18.6 20.5Z" fill="#213147"/>
<path fill-rule="evenodd" clip-rule="evenodd" d="M6.87 21.29L11.5 18.6C11.27 18.21 11.1 17.79 10.98 17.35L5.81 18.74C5.71 18.39 5.64 18.03 5.58 17.66L0.199997 18.52C0.329997 19.35 0.529997 20.17 0.789997 20.96L5.88 19.3C6.05 19.83 6.27 20.34 6.52 20.84L1.75 23.29C2.13 24.03 2.57 24.75 3.07 25.42L7.47 22.21C7.25 21.91 7.06 21.61 6.87 21.29Z" fill="#213147"/>
<path fill-rule="evenodd" clip-rule="evenodd" d="M8.76 30.27C9.51 30.65 10.29 30.97 11.08 31.23L12.75 26.05C12.23 25.88 11.71 25.67 11.22 25.42L8.75 30.27H8.76Z" fill="#213147"/>
<path fill-rule="evenodd" clip-rule="evenodd" d="M10.69 25.22L13.41 20.5C13.02 20.27 12.65 20 12.33 19.67L4.71 27.32C5.3 27.91 5.94 28.46 6.62 28.95L9.76 24.61C10.06 24.83 10.37 25.03 10.69 25.21V25.22Z" fill="#213147"/>
<path fill-rule="evenodd" clip-rule="evenodd" d="M20.51 18.59L25.23 21.31C25.05 21.63 24.84 21.94 24.63 22.24L28.96 25.39C28.47 26.06 27.92 26.71 27.33 27.3L19.68 19.67C20 19.35 20.28 18.98 20.51 18.59Z" fill="#213147"/>
<path fill-rule="evenodd" clip-rule="evenodd" d="M14.66 21.02L13.26 26.28C13.62 26.37 13.98 26.45 14.35 26.51L13.53 31.8C14.34 31.93 15.17 31.99 16 31.99H16.01V21.19H16C15.55 21.19 15.09 21.13 14.66 21.02Z" fill="#213147"/>
<path fill-rule="evenodd" clip-rule="evenodd" d="M21.02 17.34C21.14 16.91 21.19 16.45 21.19 16H31.99C31.99 16.83 31.93 17.67 31.8 18.48L26.51 17.65C26.45 18.02 26.38 18.38 26.28 18.74L21.02 17.34Z" fill="#213147"/>
</g>
<defs>
<clipPath id="clip0_2253_3">
<rect width="32" height="32" fill="white"/>
</clipPath>
</defs>
</svg>
