<svg width="32" height="32" viewBox="0 0 32 32" fill="none" xmlns="http://www.w3.org/2000/svg">
  <path d="M16 32C24.8366 32 32 24.8366 32 16C32 7.16344 24.8366 0 16 0C7.16344 0 0 7.16344 0 16C0 24.8366 7.16344 32 16 32Z" fill="#CB9999"/>
  <path fill-rule="evenodd" clip-rule="evenodd" d="M22.28 14.57C21.76 14.05 21.76 13.2 22.28 12.68C22.8 12.16 23.65 12.16 24.17 12.68C24.69 13.2 24.69 14.05 24.17 14.57C23.65 15.09 22.8 15.09 22.28 14.57ZM17.8 19.06C17.41 18.67 17.41 18.04 17.8 17.64C18.19 17.25 18.82 17.25 19.22 17.64C19.61 18.03 19.6 18.67 19.21 19.06C18.82 19.44 18.2 19.44 17.81 19.06H17.8ZM24.88 16.7C24.49 16.31 24.48 15.68 24.87 15.28C25.26 14.88 25.89 14.88 26.29 15.27C26.29 15.27 26.29 15.27 26.3 15.28C26.69 15.67 26.68 16.31 26.29 16.7C25.9 17.08 25.28 17.08 24.89 16.7H24.88ZM22.52 19.06C22.13 18.67 22.12 18.04 22.51 17.64C22.9 17.24 23.53 17.24 23.93 17.63C23.93 17.63 23.93 17.63 23.94 17.64C24.33 18.03 24.32 18.67 23.93 19.06C23.54 19.44 22.92 19.44 22.53 19.06H22.52ZM27.47 18.82C27.22 18.55 27.23 18.13 27.5 17.88C27.76 17.64 28.16 17.64 28.42 17.88C28.67 18.15 28.66 18.57 28.39 18.82C28.13 19.06 27.73 19.06 27.47 18.82ZM25.11 21.18C24.85 20.92 24.85 20.5 25.11 20.24C25.37 19.98 25.79 19.98 26.05 20.24C26.31 20.5 26.31 20.92 26.05 21.18C25.79 21.44 25.37 21.44 25.11 21.18ZM19.92 16.93C19.4 16.41 19.4 15.56 19.92 15.04C20.44 14.52 21.29 14.52 21.81 15.04C22.33 15.56 22.33 16.41 21.81 16.93C21.29 17.45 20.44 17.45 19.92 16.93ZM19.92 12.21C19.39 11.7 19.38 10.85 19.89 10.32C20.4 9.79 21.25 9.78 21.78 10.29C21.78 10.29 21.8 10.31 21.81 10.32C22.32 10.85 22.31 11.69 21.78 12.21C21.26 12.71 20.44 12.71 19.92 12.21ZM17.56 14.57C17.04 14.05 17.04 13.2 17.56 12.68C18.08 12.16 18.93 12.16 19.45 12.68C19.97 13.2 19.97 14.05 19.45 14.57C18.93 15.09 18.08 15.09 17.56 14.57ZM12.82 14.57C12.3 14.05 12.3 13.2 12.82 12.68C13.34 12.16 14.19 12.16 14.71 12.68C15.23 13.2 15.23 14.05 14.71 14.57C14.19 15.09 13.34 15.09 12.82 14.57ZM8.33996 19.06C7.94996 18.67 7.94001 18.04 8.33001 17.64C8.72001 17.25 9.34999 17.24 9.74999 17.63C9.74999 17.63 9.75 17.63 9.76 17.64C10.15 18.03 10.14 18.67 9.74999 19.06C9.35999 19.44 8.73997 19.44 8.34997 19.06H8.33996ZM15.42 16.7C15.03 16.31 15.02 15.68 15.41 15.28C15.8 14.89 16.43 14.88 16.83 15.27C16.83 15.27 16.83 15.27 16.84 15.28C17.23 15.67 17.22 16.31 16.83 16.7C16.44 17.08 15.82 17.08 15.43 16.7H15.42ZM13.06 19.06C12.67 18.67 12.66 18.04 13.05 17.64C13.44 17.25 14.07 17.24 14.47 17.63C14.47 17.63 14.47 17.63 14.48 17.64C14.87 18.03 14.86 18.67 14.47 19.06C14.08 19.44 13.46 19.44 13.07 19.06H13.06ZM3.85998 18.82C3.59998 18.56 3.59998 18.14 3.85998 17.88C4.11998 17.62 4.53998 17.62 4.79998 17.88C5.05998 18.14 5.05998 18.56 4.79998 18.82C4.53998 19.08 4.11998 19.08 3.85998 18.82ZM6.21996 21.18C5.95996 20.92 5.95996 20.5 6.21996 20.24C6.47996 19.98 6.89997 19.98 7.15997 20.24C7.41997 20.5 7.41997 20.92 7.15997 21.18C6.89997 21.44 6.47996 21.44 6.21996 21.18ZM15.66 21.18C15.4 20.92 15.4 20.5 15.66 20.24C15.92 19.98 16.34 19.98 16.6 20.24C16.86 20.5 16.86 20.92 16.6 21.18C16.34 21.44 15.92 21.44 15.66 21.18ZM5.97997 16.7C5.58997 16.31 5.57996 15.68 5.96996 15.28C6.35996 14.88 6.99001 14.88 7.39001 15.27C7.39001 15.27 7.39002 15.27 7.40002 15.28C7.79002 15.67 7.78001 16.31 7.39001 16.7C7.00001 17.08 6.37998 17.08 5.98998 16.7H5.97997ZM10.47 16.93C9.94996 16.41 9.94996 15.56 10.47 15.04C10.99 14.52 11.84 14.52 12.36 15.04C12.88 15.56 12.88 16.41 12.36 16.93C11.84 17.45 10.99 17.45 10.47 16.93ZM10.47 12.21C9.93996 11.7 9.93 10.85 10.44 10.32C10.95 9.79 11.8 9.78 12.33 10.29C12.33 10.29 12.35 10.31 12.36 10.32C12.87 10.85 12.86 11.69 12.33 12.21C11.81 12.71 10.99 12.71 10.47 12.21ZM8.10998 14.57C7.58998 14.05 7.58998 13.2 8.10998 12.68C8.62998 12.16 9.47999 12.16 9.99999 12.68C10.52 13.2 10.52 14.05 9.99999 14.57C9.47999 15.09 8.62998 15.09 8.10998 14.57Z" fill="#EDBCBB"/>
</svg>
