<svg width="32" height="32" viewBox="0 0 32 32" fill="none" xmlns="http://www.w3.org/2000/svg">
  <path d="M16 0C7.16 0 0 7.16 0 16C0 24.84 7.16 32 16 32C24.84 32 32 24.84 32 16C32 7.16 24.84 0 16 0ZM19.9 10.33C20.41 9.8 21.26 9.79 21.79 10.3C21.79 10.3 21.81 10.32 21.82 10.33C22.33 10.86 22.32 11.7 21.79 12.22C21.27 12.72 20.45 12.72 19.93 12.22C19.4 11.71 19.39 10.86 19.9 10.33ZM10.44 10.33C10.95 9.8 11.8 9.79 12.33 10.3C12.33 10.3 12.35 10.32 12.36 10.33C12.87 10.86 12.86 11.7 12.33 12.22C11.81 12.72 10.99 12.72 10.47 12.22C9.93997 11.71 9.93 10.86 10.44 10.33ZM4.79999 18.82C4.53999 19.08 4.11999 19.08 3.85999 18.82C3.59999 18.56 3.59999 18.14 3.85999 17.88C4.11999 17.62 4.53999 17.62 4.79999 17.88C5.05999 18.14 5.05999 18.56 4.79999 18.82ZM7.15997 21.18C6.89997 21.44 6.47997 21.44 6.21997 21.18C5.95997 20.92 5.95997 20.5 6.21997 20.24C6.47997 19.98 6.89997 19.98 7.15997 20.24C7.41997 20.5 7.41997 20.92 7.15997 21.18ZM7.39001 16.7C7.00001 17.08 6.37999 17.08 5.98999 16.7C5.59999 16.31 5.58998 15.68 5.97998 15.28C6.36998 14.88 7.00002 14.88 7.40002 15.27C7.40002 15.27 7.39997 15.27 7.40997 15.28C7.79997 15.67 7.79002 16.31 7.40002 16.7H7.39001ZM8.10999 12.69C8.62999 12.17 9.48 12.17 10 12.69C10.52 13.21 10.52 14.06 10 14.58C9.48 15.1 8.62999 15.1 8.10999 14.58C7.58999 14.06 7.58999 13.21 8.10999 12.69ZM9.75 19.06C9.36 19.44 8.73998 19.44 8.34998 19.06C7.95998 18.67 7.94997 18.04 8.33997 17.64C8.72997 17.24 9.36001 17.24 9.76001 17.63C9.76001 17.63 9.76002 17.63 9.77002 17.64C10.16 18.03 10.15 18.67 9.76001 19.06H9.75ZM12.35 16.93C11.83 17.45 10.98 17.45 10.46 16.93C9.94002 16.41 9.94002 15.56 10.46 15.04C10.98 14.52 11.83 14.52 12.35 15.04C12.87 15.56 12.87 16.41 12.35 16.93ZM14.46 19.06C14.07 19.44 13.45 19.44 13.06 19.06C12.67 18.67 12.66 18.04 13.05 17.64C13.44 17.25 14.07 17.24 14.47 17.63C14.47 17.63 14.47 17.63 14.48 17.64C14.87 18.03 14.86 18.67 14.47 19.06H14.46ZM14.71 14.57C14.19 15.09 13.34 15.09 12.82 14.57C12.3 14.05 12.3 13.2 12.82 12.68C13.34 12.16 14.19 12.16 14.71 12.68C15.23 13.2 15.23 14.05 14.71 14.57ZM16.6 21.18C16.34 21.44 15.92 21.44 15.66 21.18C15.4 20.92 15.4 20.5 15.66 20.24C15.92 19.98 16.34 19.98 16.6 20.24C16.86 20.5 16.86 20.92 16.6 21.18ZM16.82 16.7C16.43 17.08 15.81 17.08 15.42 16.7C15.03 16.31 15.02 15.68 15.41 15.28C15.8 14.89 16.43 14.88 16.83 15.27C16.83 15.27 16.83 15.27 16.84 15.28C17.23 15.67 17.22 16.31 16.83 16.7H16.82ZM17.57 12.69C18.09 12.17 18.94 12.17 19.46 12.69C19.98 13.21 19.98 14.06 19.46 14.58C18.94 15.1 18.09 15.1 17.57 14.58C17.05 14.06 17.05 13.21 17.57 12.69ZM19.2 19.06C18.81 19.44 18.19 19.44 17.8 19.06C17.41 18.67 17.41 18.04 17.8 17.64C18.19 17.25 18.82 17.25 19.22 17.64C19.61 18.03 19.6 18.67 19.21 19.06H19.2ZM21.81 16.93C21.29 17.45 20.44 17.45 19.92 16.93C19.4 16.41 19.4 15.56 19.92 15.04C20.44 14.52 21.29 14.52 21.81 15.04C22.33 15.56 22.33 16.41 21.81 16.93ZM23.92 19.06C23.53 19.44 22.91 19.44 22.52 19.06C22.13 18.67 22.12 18.04 22.51 17.64C22.9 17.25 23.53 17.24 23.93 17.63C23.93 17.63 23.93 17.63 23.94 17.64C24.33 18.03 24.32 18.67 23.93 19.06H23.92ZM24.17 14.57C23.65 15.09 22.8 15.09 22.28 14.57C21.76 14.05 21.76 13.2 22.28 12.68C22.8 12.16 23.65 12.16 24.17 12.68C24.69 13.2 24.69 14.05 24.17 14.57ZM26.06 21.18C25.8 21.44 25.38 21.44 25.12 21.18C24.86 20.92 24.86 20.5 25.12 20.24C25.38 19.98 25.8 19.98 26.06 20.24C26.32 20.5 26.32 20.92 26.06 21.18ZM26.28 16.7C25.89 17.08 25.27 17.08 24.88 16.7C24.49 16.31 24.48 15.68 24.87 15.28C25.26 14.88 25.89 14.88 26.29 15.27C26.29 15.27 26.29 15.27 26.3 15.28C26.69 15.67 26.68 16.31 26.29 16.7H26.28ZM27.47 18.82C27.22 18.55 27.23 18.13 27.5 17.88C27.76 17.64 28.16 17.64 28.42 17.88C28.67 18.15 28.66 18.57 28.39 18.82C28.13 19.06 27.73 19.06 27.47 18.82Z" fill="#213147"/>
</svg>
