<svg width="32" height="32" viewBox="0 0 32 32" fill="none" xmlns="http://www.w3.org/2000/svg">
<g clip-path="url(#clip0_298_295)">
<path d="M16 0C7.16 0 0 7.16 0 16C0 24.84 7.16 32 16 32C24.84 32 32 24.84 32 16C32 7.16 24.84 0 16 0ZM22.98 4.27L27.78 9.07L25.12 11.73C24.13 9.62 22.44 7.91 20.34 6.91L22.98 4.27ZM4.29 9.08L9.09 4.28L11.7 6.89C9.59 7.88 7.89 9.58 6.89 11.69L4.28 9.08H4.29ZM9.1 27.76L4.3 22.96L6.92 20.34C7.93 22.44 9.63 24.14 11.74 25.12L9.1 27.76ZM18.87 22.37L15.75 20.56C15.44 20.37 15.29 20.06 15.29 19.75V18.48L16.75 17.63V18.86C16.75 19.21 16.94 19.51 17.21 19.67L18.87 20.63C19.18 20.78 19.52 20.78 19.79 20.63L21.41 19.67C21.72 19.48 21.87 19.17 21.87 18.86V16.94C21.87 16.59 21.68 16.29 21.41 16.13L19.75 15.17C19.44 15.02 19.1 15.02 18.83 15.17L16.71 16.4L15.25 17.25L13.13 18.48C12.82 18.63 12.48 18.63 12.21 18.48L9.09 16.67C8.78 16.48 8.63 16.17 8.63 15.86V12.24C8.63 11.93 8.78 11.62 9.09 11.47L12.25 9.62C12.56 9.47 12.9 9.47 13.17 9.62L16.25 11.43C16.56 11.62 16.71 11.93 16.71 12.24V13.55L15.25 14.4V13.13C15.25 12.78 15.06 12.48 14.79 12.32L13.13 11.32C12.82 11.17 12.48 11.17 12.21 11.32L10.55 12.28C10.24 12.47 10.09 12.78 10.09 13.09V15.01C10.09 15.36 10.28 15.66 10.55 15.82L12.21 16.82C12.52 16.97 12.86 16.97 13.13 16.82L15.25 15.55L16.71 14.74L18.87 13.47C19.18 13.32 19.52 13.32 19.79 13.47L22.91 15.28C23.22 15.47 23.37 15.78 23.37 16.09V19.75C23.37 20.1 23.18 20.4 22.91 20.56L19.79 22.37C19.48 22.52 19.14 22.52 18.87 22.37ZM22.98 27.76L20.32 25.1C22.42 24.1 24.12 22.4 25.12 20.29L27.79 22.96L22.99 27.76H22.98Z" fill="#213147"/>
</g>
<defs>
<clipPath id="clip0_298_295">
<rect width="32" height="32" fill="white"/>
</clipPath>
</defs>
</svg>
