<svg width="32" height="32" viewBox="0 0 32 32" fill="none" xmlns="http://www.w3.org/2000/svg">
<g clip-path="url(#clip0_3091_1828)">
<g clip-path="url(#clip1_3091_1828)">
<rect width="32" height="32" fill="white"/>
<path d="M19.1248 24.8784C20.1076 24.8784 20.9013 24.0853 20.9013 23.1069C20.9013 22.1286 20.1076 21.3354 19.1248 21.3354C18.1497 21.3354 17.3559 22.1286 17.3559 23.1069C17.3559 24.0853 18.1497 24.8784 19.1248 24.8784Z" fill="#213147"/>
<path d="M12.7588 24.931C13.7415 24.931 14.5278 24.1379 14.5278 23.1596C14.5278 22.1812 13.7415 21.3881 12.7588 21.3881C11.7836 21.3881 10.9899 22.1812 10.9899 23.1596C10.9899 24.1379 11.7836 24.931 12.7588 24.931Z" fill="#213147"/>
<path d="M8.88003 6.4241H13.1003C13.8945 8.57252 15.9668 14.6597 16.1181 14.9989C16.1559 14.8293 18.2433 8.19562 18.8332 6.4618H23.2199V21.5949C22.6754 21.2933 22.1308 20.9918 21.5408 20.6525C21.1324 20.4453 20.7543 20.2191 20.3383 20.0495C20.3005 17.1096 20.2627 14.1885 20.1719 11.1355C19.582 12.8882 17.5475 19.0696 17.3811 19.2392H14.6659C14.6659 19.2392 12.0263 11.7386 11.8977 11.3994C11.8599 14.2828 11.8221 17.1661 11.7238 20.1438C10.1053 20.9729 9.14478 21.4441 8.84227 21.5571V6.4241H8.88003Z" fill="#213147"/>
<path d="M16.0038 2.54416C23.4082 2.54416 29.4588 8.57478 29.4588 16C29.4588 23.4252 23.4309 29.4558 16.0038 29.4558C8.5767 29.4558 2.5488 23.4252 2.5488 16C2.5488 8.57478 8.5767 2.54416 16.0038 2.54416ZM16.0038 0C7.16239 0 0 7.16139 0 16C0 24.8386 7.16239 32 16.0038 32C24.8376 32 32 24.8386 32 16C32 7.16139 24.8376 0 16.0038 0Z" fill="#213147"/>
</g>
</g>
<defs>
<clipPath id="clip0_3091_1828">
<rect width="32" height="32" fill="white"/>
</clipPath>
<clipPath id="clip1_3091_1828">
<rect width="32" height="32" fill="white"/>
</clipPath>
</defs>
</svg>
