<svg width="32" height="32" viewBox="0 0 32 32" fill="none" xmlns="http://www.w3.org/2000/svg">
  <path d="M13.51 17.89C13.51 17.89 13.51 17.89 13.52 17.89C13.55 17.88 13.58 17.87 13.61 17.87C13.63 17.87 13.64 17.87 13.66 17.88C13.67 17.88 13.68 17.88 13.69 17.88C13.74 17.9 13.79 17.93 13.81 17.99L14.2 18.81L14.47 17.34L10.62 17.17L12.01 18.57L13.52 17.88L13.51 17.89Z" fill="#213147"/>
  <path d="M14.66 11.9C14.74 11.93 14.79 12.01 14.79 12.1V12.38L14.86 12.53C14.89 12.61 14.86 12.69 14.81 12.75L14.95 16.93L14.97 17.19L15.19 18.62L15.08 22.16H16.92L16.83 18.65L17.05 17.13L17.14 12.74C17.06 12.68 17.03 12.57 17.07 12.48L17.16 12.28V12.07C17.16 11.98 17.22 11.9 17.3 11.87C17.31 11.87 17.32 11.87 17.34 11.87L18.48 9.18002H13.54L14.63 11.93C14.63 11.93 14.66 11.93 14.68 11.93L14.66 11.9Z" fill="#213147"/>
  <path d="M10.92 18.11L11.54 19.33L11.76 19.76L11.73 18.94L11.38 18.58L10.92 18.11Z" fill="#213147"/>
  <path d="M14.25 12.8L11.54 15.09L11.43 15.25L10.46 16.72L14.5 16.9L14.25 12.8Z" fill="#213147"/>
  <path d="M12.25 20.64L14.45 22.36L14.59 22.26L14.09 19.7L12.17 19.14L12.22 20.6C12.22 20.6 12.23 20.63 12.23 20.64H12.25Z" fill="#213147"/>
  <path d="M24.14 7.17001L18.98 9.09003L18.01 11.71L24.14 7.17001Z" fill="#213147"/>
  <path d="M21.07 18.13L20.27 18.94L20.24 19.74L20.64 18.95L21.07 18.13Z" fill="#213147"/>
  <path d="M17.53 22.36L19.75 20.64V20.63L19.82 19.14L17.89 19.71L17.39 22.27L17.47 22.32L17.53 22.36Z" fill="#213147"/>
  <path d="M22.12 16.8C22.12 16.8 22.12 16.81 22.12 16.82C22.12 16.82 22.12 16.82 22.13 16.83V16.85C22.13 16.86 22.13 16.87 22.13 16.88V16.9C22.13 16.9 22.13 16.91 22.13 16.92C22.13 16.94 22.13 16.95 22.13 16.97C22.13 16.98 22.13 17 22.13 17.01L20.38 20.41L22.4 20.47C22.4 20.47 22.5 20.38 22.56 20.4L26.11 20.47L24.78 16.38L21.13 15.31L22.11 16.79L22.12 16.8Z" fill="#213147"/>
  <path d="M14.61 19.03L14.52 19.53L14.62 20.02L14.61 19.03Z" fill="#213147"/>
  <path d="M17.38 20.03L17.47 19.53L17.38 19.02V20.03Z" fill="#213147"/>
  <path d="M21.33 17.22L21.38 17.17L17.53 17.34L17.64 17.93L17.8 18.8L18.19 17.99C18.22 17.93 18.27 17.9 18.32 17.88C18.37 17.86 18.43 17.86 18.49 17.88L20.01 18.57L21.34 17.22H21.33Z" fill="#213147"/>
  <path d="M21.53 16.72L20.45 15.09L17.74 12.8L17.51 16.9L21.53 16.72Z" fill="#213147"/>
  <path d="M16 0C7.16 0 0 7.16 0 16C0 24.84 7.16 32 16 32C24.84 32 32 24.84 32 16C32 7.16 24.84 0 16 0ZM25.28 25.37C25.25 25.47 25.16 25.53 25.07 25.53C25.05 25.53 25.03 25.53 25.01 25.53L20.41 24.26L19.59 24.93L17.71 26.23C17.71 26.23 17.63 26.27 17.58 26.27H14.4C14.4 26.27 14.31 26.26 14.27 26.23L12.42 24.94L11.58 24.25L6.98 25.52C6.98 25.52 6.94 25.52 6.92 25.52C6.82 25.52 6.73001 25.46 6.71001 25.36L5.36 20.77C5.36 20.77 5.37 20.73 5.37 20.7C5.37 20.68 5.35 20.66 5.36 20.64L6.77 16.26L5.89 15.23C5.89 15.23 5.83 15.12 5.84 15.06C5.84 15 5.88001 14.94 5.93001 14.91L6.12 14.77L5.66 14.35C5.66 14.35 5.59 14.24 5.59 14.18C5.59 14.11 5.62 14.05 5.67 14.01L5.95 13.79L5.50999 13.46C5.44999 13.42 5.42 13.35 5.42 13.28C5.42 13.21 5.44999 13.14 5.50999 13.1L5.84 12.85L5.16 9.60001C5.16 9.60001 5.16 9.52001 5.16 9.48001L6.21001 6.33002C6.21001 6.33002 6.22 6.33001 6.22 6.32001V6.30002C6.25 6.25002 6.29001 6.22001 6.35001 6.20001C6.39001 6.19001 6.44 6.20001 6.48 6.20001C6.48 6.20001 6.49 6.20001 6.5 6.20001L13.21 8.70001H18.73L25.43 6.20001C25.43 6.20001 25.51 6.20001 25.55 6.20001C25.55 6.20001 25.56 6.20001 25.57 6.20001C25.62 6.22001 25.67 6.25002 25.7 6.30002V6.32001C25.7 6.32001 25.7 6.32002 25.71 6.33002L26.77 9.48001C26.77 9.48001 26.79 9.56001 26.77 9.60001L26.09 12.85L26.42 13.1C26.48 13.14 26.51 13.21 26.51 13.28C26.51 13.35 26.48 13.41 26.42 13.46L25.99 13.79L26.28 14.01C26.33 14.05 26.36 14.11 26.37 14.18C26.37 14.25 26.35 14.31 26.3 14.35L25.84 14.77L26.03 14.91C26.08 14.95 26.11 15 26.12 15.06C26.13 15.12 26.11 15.18 26.07 15.23L25.19 16.26L26.61 20.64C26.61 20.64 26.62 20.72 26.61 20.76L25.26 25.35L25.28 25.37Z" fill="#213147"/>
  <path d="M17.96 22.6L20.09 23.63L19.8 21.16L17.96 22.6Z" fill="#213147"/>
  <path d="M17.99 24.45V24.48L17.98 24.89L19.85 24.01L17.81 23.02L17.99 24.45Z" fill="#213147"/>
  <path d="M20.72 23.88L24.92 25.03L26.13 20.94H22.68L20.72 23.88Z" fill="#213147"/>
  <path d="M17.74 25.47C17.7 25.47 17.66 25.46 17.63 25.44C17.57 25.4 17.53 25.32 17.53 25.25L17.55 24.58L17.48 24.52H14.52L14.46 24.57V25.24C14.48 25.32 14.44 25.39 14.37 25.43C14.33 25.45 14.3 25.46 14.26 25.46C14.23 25.46 14.2 25.46 14.16 25.44L13.46 25.11L14.47 25.82H17.51L18.52 25.12L17.83 25.45C17.83 25.45 17.77 25.47 17.73 25.47H17.74Z" fill="#213147"/>
  <path d="M20.22 20.97L20.51 23.38L22.1 20.94L20.22 20.97Z" fill="#213147"/>
  <path d="M14.01 24.48L14.02 24.46V24.45L14.18 23.02L12.15 24.01L14.02 24.89L14.01 24.48Z" fill="#213147"/>
  <path d="M9.59 20.49L11.6 20.43L9.86 17.03C9.86 17.03 9.86 17.01 9.86 16.99C9.86 16.97 9.86 16.96 9.86 16.94C9.86 16.94 9.86 16.92 9.86 16.91V16.89C9.86 16.88 9.86 16.87 9.86 16.86V16.84C9.86 16.84 9.86 16.84 9.87 16.83C9.87 16.83 9.87 16.82 9.87 16.81L10.85 15.33L7.53 16.3L7.21001 16.39L5.89999 20.48L9.44 20.41C9.51 20.39 9.56001 20.43 9.60001 20.48L9.59 20.49Z" fill="#213147"/>
  <path d="M5.88 20.94L7.08 25.03L11.28 23.88L9.32001 20.94H5.88Z" fill="#213147"/>
  <path d="M11.49 23.37L11.77 20.97L9.89999 20.94L11.49 23.37Z" fill="#213147"/>
  <path d="M14.03 22.6L12.2 21.17L11.91 23.63L13.13 23.03L14.03 22.6Z" fill="#213147"/>
  <path d="M13.02 9.10001L7.85001 7.17001L13.98 11.72L13.02 9.10001Z" fill="#213147"/>
</svg>
