<svg width="32" height="32" viewBox="0 0 32 32" fill="none" xmlns="http://www.w3.org/2000/svg">
  <path d="M16 32C24.8366 32 32 24.8366 32 16C32 7.16344 24.8366 0 16 0C7.16344 0 0 7.16344 0 16C0 24.8366 7.16344 32 16 32Z" fill="white"/>
  <path d="M20.92 24.96L17.76 23.42C17.76 23.42 17.73 23.42 17.71 23.42C17.7 23.42 17.69 23.45 17.69 23.46L17.94 25.51L17.91 26.38C17.91 26.38 17.91 26.41 17.93 26.42C17.93 26.42 17.95 26.42 17.96 26.42C17.96 26.42 17.97 26.42 17.98 26.42L20.92 25.03C20.92 25.03 20.95 25.01 20.95 24.99C20.95 24.97 20.94 24.96 20.92 24.95V24.96Z" fill="#D2C1B4"/>
  <path d="M14.28 23.42C14.28 23.42 14.25 23.41 14.23 23.42L11.08 24.96C11.08 24.96 11.05 24.98 11.05 25C11.05 25.02 11.06 25.03 11.08 25.04L14.02 26.43C14.02 26.43 14.03 26.43 14.04 26.43C14.04 26.43 14.06 26.43 14.07 26.43C14.08 26.43 14.09 26.41 14.09 26.39L14.07 25.53L14.3 23.47C14.3 23.47 14.3 23.44 14.28 23.43V23.42Z" fill="#D2C1B4"/>
  <path d="M13.29 18.31L11.43 19.16C11.43 19.16 11.4 19.19 11.4 19.2C11.4 19.22 11.41 19.24 11.43 19.24L14.06 20.01C14.06 20.01 14.06 20.01 14.07 20.01C14.08 20.01 14.1 20.01 14.11 19.99C14.12 19.98 14.12 19.96 14.11 19.94L13.34 18.32C13.34 18.32 13.3 18.29 13.28 18.3L13.29 18.31Z" fill="#273445"/>
  <path d="M20.56 19.16L18.69 18.31C18.69 18.31 18.64 18.31 18.63 18.33L17.86 19.95C17.86 19.95 17.86 19.99 17.86 20C17.86 20.01 17.88 20.02 17.9 20.02C17.9 20.02 17.9 20.02 17.91 20.02L20.55 19.25C20.55 19.25 20.58 19.23 20.58 19.21C20.58 19.19 20.58 19.17 20.55 19.17L20.56 19.16Z" fill="#273445"/>
  <path d="M11.55 21.17L8.63 21.25C8.63 21.25 8.6 21.26 8.59 21.28C8.59 21.3 8.59 21.31 8.59 21.33L11.06 25.03C11.06 25.03 11.08 25.05 11.1 25.05C11.1 25.05 11.1 25.05 11.11 25.05C11.13 25.05 11.14 25.03 11.15 25.01L11.6 21.22C11.6 21.22 11.6 21.19 11.59 21.18C11.59 21.18 11.57 21.17 11.55 21.16V21.17Z" fill="#BE672D"/>
  <path d="M14.58 17.23L9.33 17C9.33 17 9.29 17.01 9.29 17.03C9.29 17.05 9.29 17.07 9.29 17.08L11.42 19.24C11.42 19.24 11.45 19.26 11.47 19.24L13.29 18.41L14.04 19.99C14.04 19.99 14.06 20.02 14.08 20.02C14.1 20.02 14.12 20 14.12 19.98L14.61 17.28C14.61 17.28 14.61 17.25 14.61 17.24C14.61 17.23 14.59 17.22 14.58 17.22V17.23Z" fill="#BE672D"/>
  <path d="M23.37 21.25L20.45 21.17C20.45 21.17 20.42 21.17 20.41 21.19C20.41 21.19 20.4 21.21 20.4 21.23L20.85 25.02C20.85 25.02 20.87 25.06 20.89 25.06C20.89 25.06 20.89 25.06 20.9 25.06C20.92 25.06 20.93 25.06 20.94 25.04L23.41 21.34C23.41 21.34 23.42 21.31 23.41 21.29C23.41 21.28 23.39 21.27 23.37 21.26V21.25Z" fill="#BE672D"/>
  <path d="M20.59 19.23L22.71 17.07C22.71 17.07 22.73 17.04 22.71 17.02C22.71 17 22.69 16.99 22.67 16.99L17.43 17.22C17.43 17.22 17.4 17.22 17.4 17.24C17.4 17.25 17.39 17.26 17.4 17.28L17.89 19.98C17.89 19.98 17.91 20.02 17.93 20.02C17.95 20.02 17.96 20.01 17.97 19.99L18.73 18.41L20.55 19.24C20.55 19.24 20.59 19.24 20.6 19.24L20.59 19.23Z" fill="#BE672D"/>
  <path d="M27.75 21.27C27.75 21.27 27.73 21.25 27.71 21.25L23.37 21.17C23.37 21.17 23.34 21.17 23.33 21.19L20.93 24.87L20.51 21.34L22.71 17.06C22.71 17.06 22.71 17.03 22.71 17.01L21.23 14.78L17.92 11.83L26.75 5.27004C26.75 5.27004 26.77 5.23004 26.76 5.21004C26.75 5.19004 26.72 5.18004 26.7 5.19004L19.13 8.02004C19.13 8.02004 19.11 8.03004 19.1 8.05004L17.61 11.57L17.58 11.54C17.58 11.54 17.55 11.53 17.53 11.54C17.51 11.54 17.5 11.56 17.5 11.58V11.86L17.38 12.12C17.38 12.14 17.38 12.16 17.39 12.18C17.39 12.18 17.41 12.18 17.42 12.18C17.43 12.18 17.44 12.18 17.45 12.18L17.48 12.15L17.37 17.29L17.12 18.97L17.23 23.17C17.23 23.17 17.25 23.21 17.27 23.22C17.27 23.22 17.31 23.2 17.32 23.18L17.94 20C17.94 20 17.94 19.99 17.94 19.98L17.46 17.33L22.53 17.1L20.49 19.17C20.49 19.17 20.48 19.19 20.48 19.2L20.39 21.31L17.68 23.42C17.68 23.42 17.66 23.45 17.66 23.46C17.66 23.47 17.67 23.49 17.69 23.5L20.85 25.04L26.14 26.5C26.14 26.5 26.14 26.5 26.15 26.5C26.17 26.5 26.19 26.49 26.19 26.47L27.71 21.31C27.71 21.31 27.71 21.28 27.71 21.27H27.75Z" fill="#D57B37"/>
  <path d="M14.63 17.27L14.46 12.22C14.46 12.22 14.48 12.22 14.49 12.22C14.5 12.22 14.51 12.22 14.52 12.22C14.54 12.21 14.54 12.18 14.54 12.17L14.46 11.97V11.63C14.46 11.63 14.44 11.6 14.42 11.59C14.4 11.59 14.38 11.59 14.37 11.59L14.33 11.63L12.91 8.03004C12.91 8.03004 12.9 8.01004 12.88 8.00004L5.3 5.17004C5.3 5.17004 5.25 5.17004 5.24 5.19004C5.23 5.21004 5.24 5.24004 5.25 5.25004L14.02 11.88L10.77 14.76L9.3 16.99C9.3 16.99 9.29 17.02 9.3 17.04L11.5 21.32L11.09 24.84L8.69 21.16C8.69 21.16 8.67 21.14 8.65 21.14L4.32 21.22C4.32 21.22 4.29 21.22 4.28 21.24C4.27 21.26 4.27 21.27 4.28 21.28L5.79 26.44C5.79 26.44 5.81 26.47 5.83 26.47C5.83 26.47 5.83 26.47 5.84 26.47L11.13 25.01L14.28 23.47C14.28 23.47 14.3 23.45 14.31 23.43C14.32 23.41 14.31 23.4 14.29 23.39L11.58 21.28L11.51 19.16C11.51 19.16 11.51 19.14 11.5 19.13L9.46 17.06L14.54 17.29L14.06 19.93C14.06 19.93 14.06 19.94 14.06 19.95L14.68 23.13C14.68 23.13 14.7 23.17 14.73 23.17C14.73 23.17 14.77 23.15 14.77 23.13L14.91 18.93L14.65 17.25L14.63 17.27Z" fill="#D57B37"/>
  <path d="M20.88 24.96L18.01 26.32L18.04 25.53C18.04 25.53 18.04 25.5 18.02 25.49L17.79 25.28C17.79 25.28 17.77 25.27 17.76 25.27H14.24C14.24 25.27 14.22 25.27 14.21 25.28L14 25.49C14 25.49 13.99 25.51 13.99 25.52L14.01 26.31L11.14 24.95C11.14 24.95 11.09 24.95 11.08 24.97C11.07 24.99 11.08 25.02 11.08 25.03L12.11 25.87L14.19 27.32C14.19 27.32 14.21 27.32 14.22 27.32H17.79C17.79 27.32 17.81 27.32 17.82 27.32L19.91 25.87L20.94 25.03C20.94 25.03 20.96 24.99 20.94 24.97C20.93 24.95 20.9 24.94 20.88 24.95V24.96Z" fill="#BCAD9F"/>
  <path d="M17.78 23.46C17.78 23.46 17.78 23.43 17.76 23.43L17.31 23.12C17.31 23.12 17.29 23.12 17.28 23.12H14.7C14.7 23.12 14.68 23.12 14.67 23.12L14.22 23.43C14.22 23.43 14.2 23.45 14.2 23.46L13.97 25.52C13.97 25.52 13.97 25.56 14 25.57C14.03 25.58 14.04 25.57 14.05 25.57L14.25 25.38H17.73L17.95 25.57C17.95 25.57 17.97 25.58 17.98 25.58C17.98 25.58 17.99 25.58 18 25.58C18.02 25.58 18.03 25.55 18.02 25.53L17.77 23.47L17.78 23.46Z" fill="#161616"/>
  <path d="M5.31 5.19004C5.31 5.19004 5.28 5.18004 5.27 5.19004C5.26 5.19004 5.24 5.21004 5.24 5.22004L4.06 8.76004V8.78004L4.85 12.56L4.37 12.92C4.37 12.92 4.35 12.94 4.35 12.96C4.35 12.97 4.35 12.99 4.37 13L5.07 13.53L4.55 13.94C4.55 13.94 4.53 13.96 4.53 13.98C4.53 13.99 4.53 14.01 4.55 14.02L5.25 14.66L4.83 14.96C4.83 14.96 4.81 14.98 4.81 14.99C4.81 15 4.81 15.02 4.82 15.03L5.89 16.29C5.89 16.29 5.91 16.31 5.93 16.31C5.93 16.31 5.93 16.31 5.94 16.31L10.82 14.88C10.82 14.88 10.83 14.88 10.84 14.88L14.29 11.96C14.29 11.96 14.31 11.94 14.31 11.92C14.31 11.91 14.31 11.89 14.29 11.88L5.31 5.19004Z" fill="#6E401F"/>
  <path d="M27.16 12.55L27.95 8.77004V8.75004L26.76 5.21004C26.76 5.21004 26.74 5.18004 26.73 5.18004C26.71 5.18004 26.7 5.18004 26.69 5.18004L17.71 11.84C17.71 11.84 17.69 11.86 17.69 11.88C17.69 11.89 17.69 11.91 17.71 11.92L21.16 14.84C21.16 14.84 21.17 14.84 21.18 14.84L26.06 16.27C26.06 16.27 26.06 16.27 26.07 16.27C26.08 16.27 26.1 16.27 26.11 16.25L27.19 14.99C27.19 14.99 27.2 14.97 27.2 14.95C27.2 14.94 27.2 14.93 27.18 14.92L26.76 14.62L27.46 13.98C27.46 13.98 27.48 13.96 27.48 13.94C27.48 13.93 27.48 13.91 27.46 13.9L26.93 13.49L27.63 12.96C27.63 12.96 27.65 12.94 27.65 12.92C27.65 12.91 27.65 12.89 27.63 12.88L27.16 12.52V12.55Z" fill="#6E401F"/>
  <path d="M27.78 21.34L26.11 16.22V16.2L21.08 14.73L22.62 17.04L20.52 21.12L20.6 19.13L17.9 19.93H17.87L17.34 22.66L17.35 18.98L17.47 17.28L17.78 11.9L19.2 8.07004L19.22 8.01004H12.79L14.21 11.9L14.54 17.28L14.65 18.97V22.66L14.13 19.96V19.93L11.47 19.15L11.41 19.13L11.48 21.13L9.38 17.04L10.84 14.84L10.91 14.73L5.88 16.2L4.25 21.28L4.23 21.34H8.63L11.51 21.38L14.23 23.5L14.25 23.52L14.72 23.2H17.27L17.74 23.52L20.48 21.38L23.37 21.34H27.78Z" fill="#E68A3A"/>
</svg>
