<svg width="32" height="32" viewBox="0 0 32 32" fill="none" xmlns="http://www.w3.org/2000/svg">
<g clip-path="url(#clip0_423_208)">
<path d="M32 15.6544C31.808 6.9632 24.704 0 16 0C7.168 0 0 7.168 0 16C0 22.3744 3.7888 28.1472 9.6384 30.6816C10.4192 29.5168 11.008 28.224 11.4048 26.88C11.7248 26.0608 12.0704 25.2672 12.4416 24.4864C12.9024 24.6272 13.3888 24.704 13.888 24.704C15.232 24.704 16.512 24.1664 17.4464 23.2192L17.4976 23.168C16.9472 22.9632 16.3584 22.8608 15.7696 22.8608C14.6816 22.8608 13.6192 23.2192 12.7488 23.8848C13.1968 22.9632 13.6704 22.0672 14.1696 21.1968C14.7072 21.3888 15.2704 21.4784 15.8336 21.4784C17.088 21.4784 18.2912 21.0048 19.2128 20.16L19.264 20.1088C18.6496 19.8528 17.984 19.712 17.3184 19.712C16.3328 19.712 15.3728 20.0064 14.5536 20.544C15.0528 19.7248 15.552 18.9312 16.0896 18.176C16.4992 18.2912 16.9344 18.3424 17.3568 18.3424C18.7648 18.3424 20.1088 17.7536 21.056 16.704L21.0944 16.6528C20.6034 16.489 20.0888 16.4069 19.5712 16.4096C18.5472 16.4096 17.5488 16.7296 16.7168 17.3184C16.7552 17.2672 16.8064 17.2032 16.8448 17.1392C17.1648 16.7296 17.4976 16.3072 17.8304 15.9104C18.8505 15.5774 19.7604 14.9723 20.4619 14.1603C21.1634 13.3482 21.63 12.3601 21.8112 11.3024L21.824 11.2256H21.8112C19.648 11.7888 17.9968 13.5296 17.5488 15.7184C17.2288 16.1024 16.9088 16.4992 16.6016 16.896C16.8192 16.3328 16.9216 15.744 16.9216 15.1424C16.9216 14.2848 16.704 13.4528 16.2816 12.7104L16.2432 12.7616C15.6137 13.6192 15.273 14.6546 15.2704 15.7184C15.2704 16.4992 15.4496 17.28 15.808 17.984C15.296 18.7008 14.8096 19.4432 14.336 20.224C14.4 19.9168 14.4256 19.5968 14.4256 19.2896C14.4256 18.0096 13.9264 16.7808 13.0432 15.8592L13.0176 15.9232C12.7744 16.512 12.6592 17.152 12.6592 17.7792C12.6592 18.9824 13.0944 20.1344 13.8752 21.0432C13.4016 21.8624 12.9664 22.7072 12.5312 23.5776C12.5696 23.3088 12.5952 23.0272 12.5952 22.7584C12.5952 21.376 12.0448 20.0448 11.0592 19.0848L11.0336 19.1488C10.8544 19.6864 10.752 20.2624 10.752 20.8256C10.752 22.144 11.2512 23.4112 12.16 24.3712C11.8784 24.9728 11.6096 25.5744 11.3536 26.2016C11.2896 26.1376 11.2 26.0864 11.1104 26.0608C10.6496 25.9328 10.2144 25.728 9.8176 25.4848C9.4848 25.28 9.1264 25.1264 8.7552 24.9984C7.3088 24.5248 7.5264 23.8336 6.7712 22.4256C6.528 22.144 6.272 21.8624 6.0032 21.5936C5.7472 21.4272 5.5424 21.2096 5.4016 20.9408C5.2352 20.608 5.1328 20.2496 5.0944 19.8784C5.0816 19.456 4.8128 19.0976 4.416 18.9696C2.2912 18.24 3.2384 15.4752 3.3152 15.1168C3.2768 14.656 3.1744 14.1952 3.008 13.7472C2.9952 13.696 2.9824 13.632 2.9696 13.568C2.91149 13.2818 2.92055 12.9861 2.99606 12.704C3.07158 12.422 3.21149 12.1613 3.4048 11.9424C3.6608 11.6864 4.544 11.2768 4.736 11.0336C4.928 10.7904 5.056 10.5216 5.248 10.304C5.8368 9.7152 6.528 9.216 7.2832 8.8448C7.8976 8.512 8 7.6544 8.2432 7.3856C8.64 6.9248 9.2544 6.9248 9.7152 6.528C9.9456 6.3232 10.2784 6.2208 10.496 6.0032C11.5584 5.0304 12.9152 4.4032 14.3488 4.224C14.5792 4.2112 14.8224 4.1984 15.0656 4.1984C15.8336 4.1984 16.5888 4.3008 17.3184 4.4928C17.4592 4.5184 17.6 4.544 17.728 4.5824C19.9296 4.6592 22.5792 5.12 23.552 6.0544C24.0256 6.5152 24.384 7.0784 24.576 7.7184C24.7296 8.2048 24.9472 8.6784 25.216 9.1136L25.8048 10.0736C26.0736 10.496 26.2144 10.9952 26.2144 11.4944C26.2144 11.6992 26.1888 11.904 26.1504 12.1088C26.0864 12.288 26.0608 12.48 26.0608 12.672C26.0608 12.8384 26.0864 12.992 26.1248 13.1456C26.432 13.6192 26.8032 14.0416 27.2128 14.4256C27.3792 14.592 27.5584 14.7328 27.7504 14.848C28.1984 15.1168 28.6464 15.4112 29.056 15.7312V15.808C29.056 16.0512 28.9408 16.2688 28.7488 16.3968C28.3776 16.7296 27.648 17.2544 27.648 17.2544C27.6736 17.408 27.7248 17.5488 27.776 17.6768C27.8784 17.8688 28.1216 18.1632 28.0448 18.4064C27.968 18.6624 27.4432 18.88 27.584 19.1616C27.7248 19.456 28.1088 19.5328 27.9936 19.8016C27.8912 20.0576 27.3664 20.5056 27.4176 20.6976C27.4688 20.8896 27.904 22.6816 26.9056 22.9888C25.6768 23.232 24.4352 23.3728 23.1808 23.3984C22.7712 23.424 22.4 23.6544 22.208 24.0128C22.016 24.3712 21.9008 24.7552 21.8496 25.152C21.4912 26.5728 21.0048 27.968 20.416 29.312C19.8272 30.656 20.3776 29.3888 20.3264 29.5168C20.1984 29.7856 20.1088 30.0672 20.0832 30.3616C20.1728 30.5792 20.3008 30.7712 20.4544 30.9376C20.5824 31.0784 20.7616 31.168 20.9664 31.168C21.0304 31.168 21.1072 31.1552 21.1712 31.1424C27.648 28.8896 31.9872 22.7712 31.9872 15.9104V15.6288L32 15.6544Z" fill="#213147"/>
</g>
<defs>
<clipPath id="clip0_423_208">
<rect width="32" height="32" fill="white"/>
</clipPath>
</defs>
</svg>
