<svg width="32" height="32" viewBox="0 0 32 32" fill="none" xmlns="http://www.w3.org/2000/svg">
  <g clip-path="url(#clip0_298_362)">
    <path d="M16 0C7.16 0 0 7.16 0 16C0 24.84 7.16 32 16 32C24.84 32 32 24.84 32 16C32 7.16 24.84 0 16 0ZM25.54 16.16C25.54 16.44 25.39 16.69 25.15 16.83L20.62 19.44C20.38 19.58 20.08 19.58 19.84 19.44L18.14 18.46V16L20.23 17.21L23.4 15.38V11.71L20.23 9.88L17.11 11.68L17.05 11.71V21.05C17.05 21.33 16.9 21.58 16.66 21.72L12.13 24.33C11.89 24.47 11.59 24.47 11.35 24.33L6.81999 21.72C6.57999 21.58 6.42999 21.32 6.42999 21.05V15.82C6.42999 15.54 6.57999 15.29 6.81999 15.15L11.35 12.54C11.59 12.4 11.89 12.4 12.13 12.54L13.84 13.52V15.98L11.75 14.77L8.58 16.6V20.27L11.75 22.1L14.92 20.27V10.93C14.92 10.65 15.07 10.4 15.31 10.26L19.84 7.65C20.08 7.51 20.38 7.51 20.62 7.65L25.15 10.26C25.39 10.4 25.54 10.66 25.54 10.93V16.16Z" fill="#C4BFB8"/>
  </g>
  <defs>
    <clipPath id="clip0_298_362">
      <rect width="32" height="32" fill="white"/>
    </clipPath>
  </defs>
</svg>
