<svg width="32" height="32" viewBox="0 0 32 32" fill="none" xmlns="http://www.w3.org/2000/svg">
<path d="M16 1C24.27 1 31 7.73 31 16C31 24.27 24.27 31 16 31C7.73 31 1 24.27 1 16C1 7.73 7.73 1 16 1ZM16 0C7.16 0 0 7.16 0 16C0 24.84 7.16 32 16 32C24.84 32 32 24.84 32 16C32 7.16 24.84 0 16 0Z" fill="#213147"/>
<path d="M4.37 20.27C4.37 20.27 4.4 20.22 4.41 20.2C4.41 20.2 4.41 20.19 4.41 20.18C4.44 20.14 4.48 20.11 4.53 20.1C4.53 20.1 4.53 20.1 4.54 20.1H4.56C4.61 20.1 4.65 20.1 4.69 20.12C4.69 20.12 4.71 20.12 4.72 20.12L13.45 25.31H18.45L27.18 20.12H27.2C27.24 20.1 27.28 20.09 27.33 20.1C27.34 20.1 27.35 20.1 27.36 20.1C27.36 20.1 27.36 20.1 27.37 20.1C27.42 20.11 27.46 20.14 27.49 20.18V20.2C27.5 20.22 27.52 20.24 27.53 20.27L28.85 25.43C30.79 22.78 31.95 19.53 31.95 16C31.95 7.16 24.79 0 15.95 0C7.11 0 0 7.16 0 16C0 19.51 1.14 22.75 3.06 25.39L4.37 20.27ZM9.51 16.88H18.03V15.21H11.77L9.5 13.25V9.24L11.77 6.96H13.89V4.76H18.03V6.96H22.41V10.31H13.89V11.98H20.18L22.45 14.14V17.96L20.18 20.24H18.03V22.44L13.89 22.47V20.25H9.51V16.88Z" fill="#213147"/>
<path d="M10.4 30.67L12.68 29.11L4.75 20.83L3.54 25.56C5.32 27.87 7.69 29.63 10.41 30.67H10.4Z" fill="#213147"/>
<path d="M28.42 25.56L27.21 20.83L25.02 23.11L19.28 29.1L21.56 30.66C24.27 29.63 26.64 27.87 28.43 25.55L28.42 25.56Z" fill="#213147"/>
</svg>
