<svg width="32" height="32" viewBox="0 0 32 32" fill="none" xmlns="http://www.w3.org/2000/svg">
<path d="M16 0C24.84 0 32 7.16 32 16C32 24.84 24.84 32 16 32C7.16 32 0 24.84 0 16C0 7.16 7.16 0 16 0Z" fill="#D0E5FC"/>
<path d="M4.62 20.33L13.42 25.56L13.07 29.15L4.62 20.34V20.33Z" fill="#EB6732"/>
<path d="M27.34 20.33L18.54 25.56L18.89 29.15L27.34 20.34V20.33Z" fill="#EB6732"/>
<path d="M9.51 16.87H18.03V15.2H11.77L9.5 13.24V9.23L11.77 6.95H13.89V4.75H18.03V6.95H22.41V10.3H13.89V11.97H20.18L22.45 14.13V17.95L20.18 20.23H18.03V22.43L13.89 22.46V20.24H9.51V16.87Z" fill="#160162"/>
<path d="M13.47 31.74L13.07 29.15L10.44 30.95C11.41 31.31 12.42 31.57 13.47 31.74Z" fill="#EB6732"/>
<path d="M21.52 30.95L18.89 29.15L18.49 31.74C19.54 31.57 20.55 31.31 21.52 30.95Z" fill="#EB6732"/>
<path d="M15.98 31.95C16.84 31.95 17.67 31.86 18.49 31.73L18.89 29.14L18.54 25.55H13.41L13.06 29.14L13.46 31.73C14.28 31.86 15.11 31.95 15.97 31.95H15.98Z" fill="#EF9267"/>
<path d="M10.43 30.94L13.06 29.14L4.61 20.33L3.26 25.61C5.08 28.01 7.56 29.87 10.43 30.94Z" fill="#5E1E0A"/>
<path d="M28.69 25.61L27.34 20.33L18.89 29.14L21.52 30.94C24.39 29.87 26.87 28.01 28.69 25.61Z" fill="#5E1E0A"/>
</svg>
