<svg width="32" height="32" viewBox="0 0 32 32" fill="none" xmlns="http://www.w3.org/2000/svg">
  <path d="M16 32C24.8366 32 32 24.8366 32 16C32 7.16344 24.8366 0 16 0C7.16344 0 0 7.16344 0 16C0 24.8366 7.16344 32 16 32Z" fill="white"/>
  <path d="M23.47 27.62C23.26 27.58 23.05 27.55 22.86 27.5C22.29 27.35 21.77 27.1 21.33 26.7C21.2 26.58 21.07 26.46 20.95 26.34C19.34 24.73 17.73 23.13 16.13 21.52C16.1 21.49 16.06 21.45 16.03 21.4C16.06 21.37 16.08 21.34 16.1 21.32C17.89 19.53 19.69 17.73 21.48 15.94C21.51 15.91 21.53 15.89 21.56 15.86C21.56 15.86 21.56 15.86 21.57 15.86C23.21 17.51 24.85 19.15 26.49 20.79C26.61 20.91 26.73 21.04 26.85 21.17C27.24 21.61 27.49 22.13 27.65 22.7C27.7 22.9 27.73 23.1 27.77 23.3C27.77 23.55 27.77 23.81 27.77 24.08C27.74 24.25 27.72 24.4 27.69 24.55C27.49 25.4 27.06 26.12 26.38 26.69C25.93 27.07 25.42 27.33 24.85 27.48C24.65 27.53 24.45 27.56 24.25 27.6H23.48L23.47 27.62ZM8.54999 4.11C8.75999 4.15 8.97 4.18 9.16 4.23C9.73 4.38 10.24 4.64 10.69 5.02C11.37 5.59 11.79 6.31 12 7.16C12.1 7.59 12.11 8.03 12.07 8.47C12 9.11 11.78 9.7 11.42 10.23C10.8 11.13 9.95 11.69 8.88 11.89C7.82 12.08 6.82998 11.87 5.94998 11.26C5.05998 10.65 4.53 9.79 4.31 8.73C4.29 8.63 4.28001 8.53 4.26001 8.42C4.26001 8.16 4.26001 7.91 4.26001 7.63C4.29001 7.46 4.31 7.31 4.34 7.16C4.54 6.31 4.96999 5.59 5.64999 5.02C6.09999 4.64 6.60999 4.38 7.17999 4.23C7.37999 4.18 7.58 4.15 7.78 4.11H8.54999Z" fill="#70C0AE"/>
  <path d="M4.25 23.3C4.29 23.1 4.31999 22.91 4.37 22.73C4.52 22.15 4.78998 21.64 5.16998 21.18C5.63998 20.62 6.20999 20.24 6.89999 20C7.19999 19.89 7.51999 19.85 7.82999 19.81C8.21999 19.76 8.59998 19.81 8.97998 19.88C9.59998 20 10.17 20.27 10.66 20.68C11.25 21.17 11.67 21.77 11.9 22.5C11.99 22.79 12.02 23.1 12.07 23.4C12.14 23.84 12.07 24.28 11.97 24.71C11.84 25.26 11.57 25.76 11.21 26.2C10.73 26.79 10.12 27.2 9.39999 27.44C9.13999 27.53 8.85999 27.56 8.57999 27.62C8.31999 27.62 8.06999 27.62 7.79999 27.62C7.70999 27.6 7.63 27.59 7.56 27.58C6.82 27.47 6.16001 27.15 5.60001 26.66C4.97001 26.11 4.56 25.42 4.37 24.61C4.33 24.44 4.29999 24.27 4.26999 24.11V23.31L4.25 23.3ZM20.79 5.55C21.17 5.13 21.59 4.76 22.1 4.51C22.52 4.3 22.96 4.18 23.43 4.11C23.7 4.11 23.96 4.11 24.24 4.11C24.57 4.17 24.88 4.23 25.18 4.33C25.68 4.5 26.11 4.77 26.5 5.12C26.84 5.42 27.11 5.77 27.32 6.17C27.49 6.48 27.61 6.82 27.67 7.17C27.7 7.32 27.73 7.47 27.77 7.62C27.77 7.88 27.77 8.14 27.77 8.42C27.63 9.49 27.16 10.36 26.35 11.05C26.33 11.06 26.32 11.07 26.31 11.08C26.3 11.08 26.29 11.1 26.29 11.1C26.28 11.1 26.27 11.12 26.27 11.12C26.26 11.12 26.25 11.14 26.25 11.14C26.06 11.25 25.88 11.38 25.69 11.48C24.89 11.89 24.05 12.02 23.16 11.86C22.28 11.7 21.55 11.28 20.96 10.62C20.57 10.19 20.29 9.69 20.12 9.12C19.98 8.62 19.92 8.12 19.98 7.6C20.04 7.06 20.19 6.56 20.46 6.09C20.55 5.93 20.65 5.78 20.74 5.62C20.74 5.62 20.75 5.6 20.76 5.6C20.76 5.6 20.77 5.58 20.78 5.58C20.79 5.56 20.8 5.55 20.8 5.53L20.79 5.55Z" fill="#3F8EDE"/>
  <path d="M21.56 15.86C21.56 15.86 21.51 15.91 21.49 15.94C19.7 17.73 17.9 19.53 16.11 21.32C16.09 21.34 16.06 21.37 16.03 21.39C15.99 21.36 15.96 21.34 15.92 21.3C14.14 19.52 12.36 17.74 10.59 15.97C10.56 15.94 10.51 15.91 10.47 15.88C10.51 15.83 10.53 15.8 10.55 15.78C12.37 13.96 14.19 12.14 16.03 10.32C17.75 12.03 19.47 13.74 21.18 15.45C21.31 15.58 21.44 15.72 21.58 15.85L21.56 15.86Z" fill="#4171CA"/>
  <path d="M21.56 15.86C21.42 15.73 21.29 15.59 21.16 15.46C19.45 13.75 17.73 12.03 16.02 10.32C16.12 10.2 16.23 10.09 16.34 9.98C17.76 8.56 19.17 7.15 20.59 5.73C20.62 5.7 20.66 5.66 20.71 5.63C20.63 5.79 20.53 5.94 20.44 6.1C20.17 6.57 20.02 7.07 19.96 7.61C19.9 8.13 19.96 8.63 20.1 9.13C20.26 9.7 20.54 10.2 20.94 10.63C21.54 11.28 22.27 11.7 23.14 11.87C24.03 12.04 24.87 11.9 25.67 11.49C25.86 11.39 26.04 11.27 26.23 11.15C26.21 11.19 26.18 11.23 26.14 11.27C24.62 12.79 23.1 14.31 21.57 15.84H21.56V15.86ZM20.78 5.55C20.78 5.55 20.78 5.57 20.76 5.59C20.76 5.59 20.76 5.57 20.78 5.55ZM20.73 5.62C20.73 5.62 20.73 5.63 20.72 5.64C20.72 5.64 20.72 5.62 20.73 5.62ZM20.76 5.59C20.76 5.59 20.76 5.6 20.75 5.61C20.75 5.61 20.75 5.59 20.76 5.59ZM26.35 11.07C26.35 11.07 26.33 11.09 26.31 11.1C26.31 11.09 26.33 11.08 26.35 11.07ZM26.3 11.09C26.3 11.09 26.3 11.11 26.29 11.11C26.29 11.11 26.29 11.1 26.3 11.09ZM26.28 11.12C26.28 11.12 26.28 11.14 26.27 11.14C26.27 11.14 26.27 11.13 26.28 11.12ZM26.25 11.14C26.25 11.14 26.25 11.16 26.24 11.16C26.24 11.16 26.24 11.15 26.25 11.14Z" fill="#79C0E1"/>
</svg>
