<svg width="32" height="32" viewBox="0 0 32 32" fill="none" xmlns="http://www.w3.org/2000/svg">
  <path d="M16 0C7.16 0 0 7.16 0 16C0 24.84 7.16 32 16 32C24.84 32 32 24.84 32 16C32 7.16 24.84 0 16 0ZM20.05 7.15C20.05 7.15 20.04 7.18 20.04 7.19C20.04 7.17 20.05 7.16 20.05 7.15ZM6.05 8.91C6.08 8.77 6.09 8.64 6.12 8.51C6.29 7.79 6.65 7.18 7.23 6.69C7.61 6.37 8.05 6.15 8.53 6.02C8.7 5.98 8.87 5.95 9.04 5.92H9.69C9.87 5.95 10.04 5.98 10.21 6.02C10.69 6.15 11.12 6.37 11.51 6.69C12.08 7.17 12.45 7.78 12.62 8.51C12.71 8.87 12.71 9.24 12.68 9.62C12.62 10.17 12.43 10.66 12.13 11.11C11.61 11.87 10.88 12.35 9.98 12.51C9.09 12.67 8.25 12.49 7.5 11.98C6.75 11.46 6.29 10.73 6.11 9.84C6.09 9.76 6.09 9.67 6.07 9.58C6.07 9.36 6.07 9.14 6.07 8.91H6.05ZM12.58 23.37C12.47 23.84 12.24 24.26 11.94 24.64C11.53 25.14 11.01 25.49 10.4 25.69C10.18 25.76 9.94 25.79 9.7 25.84C9.48 25.84 9.27 25.84 9.04 25.84C8.96 25.82 8.9 25.82 8.83 25.81C8.2 25.71 7.65 25.45 7.17 25.03C6.64 24.56 6.29 23.98 6.13 23.29C6.1 23.15 6.07 23.01 6.05 22.86V22.18C6.08 22.01 6.11 21.85 6.15 21.69C6.27 21.2 6.5 20.76 6.83 20.38C7.23 19.91 7.71 19.58 8.29 19.38C8.55 19.29 8.81 19.25 9.08 19.22C9.41 19.18 9.73 19.22 10.05 19.28C10.58 19.39 11.05 19.61 11.47 19.96C11.97 20.37 12.32 20.89 12.52 21.5C12.6 21.74 12.62 22.01 12.66 22.27C12.72 22.65 12.66 23.02 12.57 23.38L12.58 23.37ZM25.96 22.85C25.93 22.99 25.92 23.12 25.89 23.25C25.72 23.97 25.36 24.58 24.78 25.07C24.4 25.39 23.96 25.61 23.48 25.74C23.31 25.78 23.14 25.81 22.97 25.84H22.32C22.14 25.81 21.97 25.78 21.8 25.74C21.32 25.61 20.88 25.4 20.5 25.07C20.39 24.97 20.28 24.87 20.18 24.77C18.82 23.41 17.46 22.05 16.09 20.68C16.06 20.65 15.94 20.53 15.91 20.5C14.4 18.99 12.9 17.49 11.39 15.98C11.36 15.95 11.32 15.93 11.29 15.91C11.32 15.87 11.34 15.84 11.36 15.83C12.9 14.29 16.18 11.01 16.28 10.91C17.48 9.71 18.68 8.51 19.88 7.31C19.91 7.28 20.73 6.48 21.16 6.27C21.52 6.09 21.89 5.99 22.29 5.94C22.52 5.94 22.74 5.94 22.97 5.94C23.25 5.99 23.51 6.04 23.77 6.13C24.19 6.27 24.56 6.51 24.89 6.8C25.17 7.06 25.41 7.35 25.58 7.69C25.72 7.96 25.82 8.24 25.88 8.54C25.9 8.67 25.96 9.19 25.95 9.61C25.83 10.51 25.43 11.25 24.75 11.84C24.75 11.84 24.6 12 24.57 12.03C23.28 13.32 21.99 14.61 20.7 15.9C20.7 15.9 20.7 15.9 20.7 15.91C22.09 17.31 23.48 18.69 24.87 20.08C24.97 20.18 25.08 20.29 25.17 20.4C25.5 20.78 25.72 21.21 25.84 21.7C25.88 21.87 25.91 22.04 25.94 22.21C25.94 22.42 25.94 22.64 25.94 22.87L25.96 22.85Z" fill="#213147"/>
</svg>
