<svg width="32" height="32" viewBox="0 0 32 32" fill="none" xmlns="http://www.w3.org/2000/svg">
  <path d="M16 0C7.16 0 0 7.16 0 16C0 24.84 7.16 32 16 32C24.84 32 32 24.84 32 16C32 7.16 24.84 0 16 0ZM12.99 24.62C12.99 24.84 12.81 25.02 12.59 25.02H7.37997C7.15997 25.02 6.97998 24.84 6.97998 24.62V19.41C6.97998 19.19 7.15997 19.01 7.37997 19.01H12.59C12.81 19.01 12.99 19.19 12.99 19.41V24.62ZM12.99 12.59C12.99 12.81 12.81 12.99 12.59 12.99H7.37997C7.15997 12.99 6.97998 12.81 6.97998 12.59V7.38C6.97998 7.16 7.15997 6.98 7.37997 6.98H12.59C12.81 6.98 12.99 7.16 12.99 7.38V12.59ZM18.61 19.01H13.4C13.18 19.01 13 18.83 13 18.61V13.4C13 13.18 13.18 13 13.4 13H18.61C18.83 13 19.01 13.18 19.01 13.4V18.61C19.01 18.83 18.83 19.01 18.61 19.01ZM25.02 24.62C25.02 24.84 24.84 25.02 24.62 25.02H19.41C19.19 25.02 19.01 24.84 19.01 24.62V19.41C19.01 19.19 19.19 19.01 19.41 19.01H24.62C24.84 19.01 25.02 19.19 25.02 19.41V24.62ZM25.02 12.59C25.02 12.81 24.84 12.99 24.62 12.99H19.41C19.19 12.99 19.01 12.81 19.01 12.59V7.38C19.01 7.16 19.19 6.98 19.41 6.98H24.62C24.84 6.98 25.02 7.16 25.02 7.38V12.59Z" fill="#213147"/>
</svg>
