<svg width="32" height="32" viewBox="0 0 32 32" fill="none" xmlns="http://www.w3.org/2000/svg">
  <path d="M16 32C24.8366 32 32 24.8366 32 16C32 7.16344 24.8366 0 16 0C7.16344 0 0 7.16344 0 16C0 24.8366 7.16344 32 16 32Z" fill="black"/>
  <path fill-rule="evenodd" clip-rule="evenodd" d="M12.59 6.98H7.37997C7.15997 6.98 6.97998 7.16 6.97998 7.38V12.59C6.97998 12.81 7.15997 12.99 7.37997 12.99H12.59C12.81 12.99 12.99 12.81 12.99 12.59V7.38C12.99 7.16 12.81 6.98 12.59 6.98ZM18.61 12.99H13.4C13.18 12.99 13 13.17 13 13.39V18.6C13 18.82 13.18 19 13.4 19H18.61C18.83 19 19.01 18.82 19.01 18.6V13.39C19.01 13.17 18.83 12.99 18.61 12.99ZM19.41 6.98H24.62C24.84 6.98 25.02 7.16 25.02 7.38V12.59C25.02 12.81 24.84 12.99 24.62 12.99H19.41C19.19 12.99 19.01 12.81 19.01 12.59V7.38C19.01 7.16 19.19 6.98 19.41 6.98ZM12.59 19.01H7.37997C7.15997 19.01 6.97998 19.19 6.97998 19.41V24.62C6.97998 24.84 7.15997 25.02 7.37997 25.02H12.59C12.81 25.02 12.99 24.84 12.99 24.62V19.41C12.99 19.19 12.81 19.01 12.59 19.01ZM19.41 19.01H24.62C24.84 19.01 25.02 19.19 25.02 19.41V24.62C25.02 24.84 24.84 25.02 24.62 25.02H19.41C19.19 25.02 19.01 24.84 19.01 24.62V19.41C19.01 19.19 19.19 19.01 19.41 19.01Z" fill="white"/>
</svg>
