<svg width="32" height="32" viewBox="0 0 32 32" fill="none" xmlns="http://www.w3.org/2000/svg">
<g clip-path="url(#clip0_298_376)">
<path d="M16 32C24.8366 32 32 24.8366 32 16C32 7.16344 24.8366 0 16 0C7.16344 0 0 7.16344 0 16C0 24.8366 7.16344 32 16 32Z" fill="white"/>
<path d="M22.17 5.2C19.62 5.2 17.54 7.29 17.47 9.84V15.02C17 15.02 16.53 15.09 15.99 15.09C15.45 15.09 14.98 15.09 14.51 15.16V9.85C14.51 7.29 12.36 5.21 9.75 5.28C7.27 5.28 5.26 7.37 5.19 9.85V22.23C5.26 24.79 7.34001 26.87 9.95001 26.8C12.5 26.73 14.51 24.71 14.51 22.23V17.05C14.98 17.05 15.45 16.98 15.99 16.98C16.53 16.98 17 16.98 17.47 16.91V22.16C17.54 24.72 19.62 26.8 22.23 26.73C24.78 26.66 26.79 24.64 26.79 22.16V9.85C26.79 7.29 24.71 5.21 22.16 5.21L22.17 5.2ZM9.89 7.09C11.43 7.09 12.64 8.3 12.64 9.85V15.3C11.3 15.5 9.96001 15.91 8.68001 16.44C8.14001 16.71 7.61 16.98 7.14 17.38V9.84C7.14 8.36 8.35 7.08 9.89 7.08V7.09ZM12.64 22.22C12.64 23.77 11.43 24.98 9.89 24.98C8.35 24.98 7.14 23.77 7.14 22.22V21.01C7.14 19.93 8.01001 18.86 9.49001 18.25C10.5 17.78 11.57 17.51 12.71 17.31L12.64 22.22ZM22.17 24.98C20.63 24.98 19.42 23.77 19.42 22.22V16.77C20.76 16.57 22.1 16.16 23.38 15.63C23.92 15.36 24.45 15.09 24.92 14.69V22.23C24.92 23.78 23.65 24.99 22.17 24.99V24.98ZM22.57 13.88C21.56 14.35 20.49 14.62 19.35 14.82V9.84C19.35 8.29 20.56 7.08 22.1 7.08C23.64 7.08 24.85 8.29 24.85 9.84V11.05C24.92 12.19 24.05 13.2 22.57 13.88Z" fill="url(#paint0_linear_298_376)"/>
</g>
<defs>
<linearGradient id="paint0_linear_298_376" x1="21.4" y1="10.62" x2="6.46001" y2="25.51" gradientUnits="userSpaceOnUse">
<stop stop-color="#6AE4A6"/>
<stop offset="1" stop-color="#4DA9E2"/>
</linearGradient>
<clipPath id="clip0_298_376">
<rect width="32" height="32" fill="white"/>
</clipPath>
</defs>
</svg>
