<svg width="32" height="32" viewBox="0 0 32 32" fill="none" xmlns="http://www.w3.org/2000/svg">
<g clip-path="url(#clip0_298_374)">
<path d="M7.14 21.01V22.22C7.14 23.77 8.35 24.98 9.89 24.98C11.43 24.98 12.64 23.77 12.64 22.22L12.71 17.31C11.57 17.51 10.5 17.78 9.49001 18.25C8.01001 18.86 7.14 19.93 7.14 21.01Z" fill="#213147"/>
<path d="M12.64 9.84C12.64 8.29 11.43 7.08 9.89 7.08C8.35 7.08 7.14 8.36 7.14 9.84V17.38C7.61 16.98 8.15001 16.71 8.68001 16.44C9.95001 15.9 11.3 15.5 12.64 15.3V9.84Z" fill="#213147"/>
<path d="M24.85 11.05V9.84C24.85 8.29 23.64 7.08 22.1 7.08C20.56 7.08 19.35 8.29 19.35 9.84V14.82C20.49 14.62 21.56 14.35 22.57 13.88C24.05 13.21 24.92 12.2 24.85 11.05Z" fill="#213147"/>
<path d="M19.42 22.22C19.42 23.77 20.63 24.98 22.17 24.98C23.71 24.98 24.92 23.77 24.92 22.22V14.68C24.45 15.08 23.91 15.35 23.38 15.62C22.11 16.16 20.76 16.56 19.42 16.76V22.22Z" fill="#213147"/>
<path d="M16 0C7.16 0 0 7.16 0 16C0 24.84 7.16 32 16 32C24.84 32 32 24.84 32 16C32 7.16 24.84 0 16 0ZM26.8 22.15C26.8 24.64 24.79 26.66 22.24 26.72C19.62 26.79 17.55 24.7 17.48 22.15V16.9C17.01 16.97 16.54 16.97 16 16.97C15.46 16.97 14.99 17.04 14.52 17.04V22.22C14.52 24.71 12.51 26.73 9.96001 26.79C7.34001 26.86 5.26001 24.77 5.20001 22.22V9.84C5.27001 7.35 7.28001 5.27 9.76001 5.27C12.38 5.2 14.52 7.29 14.52 9.84V15.16C14.99 15.09 15.46 15.09 16 15.09C16.54 15.09 17.01 15.02 17.48 15.02V9.84C17.55 7.28 19.63 5.2 22.18 5.2C24.73 5.2 26.81 7.29 26.81 9.84V22.15H26.8Z" fill="#213147"/>
</g>
<defs>
<clipPath id="clip0_298_374">
<rect width="32" height="32" fill="white"/>
</clipPath>
</defs>
</svg>
