<svg width="32" height="32" viewBox="0 0 32 32" fill="none" xmlns="http://www.w3.org/2000/svg">
  <path d="M12.81 10.74C12.11 11.75 11.65 13.02 11.45 14.41C11.44 14.5 11.43 14.59 11.42 14.68C11.37 15.11 11.33 15.55 11.33 16C11.33 16.45 11.37 16.89 11.42 17.32C11.43 17.41 11.44 17.5 11.45 17.59C11.65 18.98 12.11 20.25 12.81 21.26C13.69 22.54 14.82 23.25 16 23.25C17.18 23.25 18.31 22.54 19.19 21.26C20.15 19.87 20.67 18 20.67 16C20.67 14 20.14 12.13 19.19 10.74C18.31 9.46 17.18 8.75 16 8.75C14.82 8.75 13.69 9.46 12.81 10.74Z" fill="#213147"/>
  <path d="M26.87 14.68C26.84 14.44 26.81 14.19 26.76 13.96C26.74 13.85 26.71 13.74 26.69 13.63C26.64 13.41 26.59 13.2 26.53 12.98C26.5 12.86 26.46 12.74 26.42 12.62C26.36 12.44 26.3 12.26 26.23 12.09C26.17 11.93 26.11 11.78 26.04 11.62C26.01 11.55 25.97 11.48 25.94 11.41C24.6 8.58 22.06 6.66 19.14 6.66C18.46 6.66 17.8 6.78 17.17 6.97C17.7 7.1 18.21 7.3 18.7 7.61C19.49 8.1 20.19 8.78 20.78 9.65C21.95 11.36 22.6 13.62 22.6 16.01C22.6 18.4 21.95 20.65 20.78 22.37C20.19 23.24 19.49 23.92 18.7 24.41C18.21 24.71 17.7 24.92 17.17 25.05C17.8 25.25 18.46 25.36 19.14 25.36C22.05 25.36 24.59 23.44 25.94 20.61C25.97 20.54 26.01 20.47 26.04 20.4C26.11 20.25 26.17 20.09 26.23 19.93C26.3 19.75 26.36 19.58 26.42 19.4C26.46 19.28 26.5 19.16 26.53 19.04C26.59 18.83 26.64 18.61 26.69 18.39C26.71 18.28 26.74 18.17 26.76 18.06C26.8 17.82 26.84 17.58 26.87 17.34C26.88 17.24 26.9 17.15 26.91 17.05C26.94 16.71 26.96 16.37 26.96 16.02C26.96 15.67 26.94 15.33 26.91 14.99C26.91 14.89 26.88 14.8 26.87 14.7V14.68Z" fill="#213147"/>
  <path d="M12.2 23.92C10.97 22.47 10.12 20.7 9.7 18.77C9.68 18.68 9.66 18.58 9.64 18.48C9.61 18.31 9.58 18.13 9.55 17.95C9.52 17.76 9.5 17.57 9.48 17.38C9.47 17.25 9.45 17.13 9.44 17C9.41 16.67 9.4 16.33 9.4 16C9.4 15.67 9.42 15.33 9.44 15C9.44 14.87 9.47 14.75 9.48 14.62C9.5 14.43 9.52 14.24 9.55 14.05C9.58 13.87 9.61 13.7 9.64 13.52C9.66 13.42 9.68 13.33 9.7 13.23C10.12 11.3 10.96 9.53 12.2 8.08C13.09 7.03 14.13 6.21 15.3 5.63C15.77 5.4 16.25 5.22 16.75 5.08C16.5 5.06 16.26 5.04 16.01 5.04C13.08 5.04 10.33 6.18 8.27 8.25C6.2 10.32 5.06 13.07 5.06 16C5.06 18.93 6.2 21.68 8.27 23.75C10.34 25.82 13.09 26.96 16.01 26.96C16.26 26.96 16.5 26.94 16.75 26.92C16.26 26.78 15.77 26.6 15.3 26.37C14.14 25.79 13.1 24.97 12.2 23.92Z" fill="#213147"/>
  <path d="M16 0C7.16 0 0 7.16 0 16C0 24.84 7.16 32 16 32C24.84 32 32 24.84 32 16C32 7.16 24.84 0 16 0ZM28.79 17.54C28.75 17.84 28.71 18.14 28.65 18.44C28.63 18.54 28.61 18.65 28.58 18.75C28.51 19.06 28.44 19.36 28.35 19.66C28.32 19.75 28.3 19.83 28.27 19.92C28.17 20.23 28.06 20.52 27.94 20.82C27.91 20.88 27.9 20.95 27.87 21.01C27.86 21.04 27.84 21.07 27.82 21.11C27.74 21.29 27.66 21.46 27.57 21.63C26.94 22.92 26.13 24.09 25.11 25.11C23.93 26.29 22.55 27.22 21.01 27.87C19.42 28.54 17.73 28.88 15.99 28.88C14.25 28.88 12.56 28.54 10.97 27.87C9.44 27.22 8.06 26.29 6.87 25.11C5.69 23.93 4.76 22.55 4.11 21.01C3.44 19.42 3.1 17.73 3.1 15.99C3.1 14.25 3.44 12.56 4.11 10.97C4.76 9.44 5.69 8.06 6.87 6.87C8.05 5.69 9.43 4.76 10.97 4.11C12.56 3.44 14.25 3.1 15.99 3.1C17.73 3.1 19.42 3.44 21.01 4.11C22.54 4.76 23.92 5.69 25.11 6.87C26.13 7.89 26.95 9.06 27.57 10.35C27.66 10.52 27.74 10.69 27.82 10.87C27.83 10.9 27.85 10.93 27.87 10.97C27.9 11.03 27.91 11.1 27.94 11.16C28.06 11.45 28.17 11.75 28.27 12.06C28.3 12.15 28.32 12.23 28.35 12.32C28.44 12.62 28.52 12.92 28.58 13.23C28.6 13.33 28.63 13.44 28.65 13.54C28.71 13.84 28.75 14.14 28.79 14.44C28.8 14.55 28.82 14.65 28.83 14.76C28.87 15.16 28.89 15.57 28.89 15.98C28.89 16.39 28.87 16.8 28.83 17.2C28.82 17.31 28.8 17.41 28.79 17.52V17.54Z" fill="#213147"/>
</svg>
