<svg width="32" height="32" viewBox="0 0 32 32" fill="none" xmlns="http://www.w3.org/2000/svg">
  <path d="M16 32C24.8366 32 32 24.8366 32 16C32 7.16344 24.8366 0 16 0C7.16344 0 0 7.16344 0 16C0 24.8366 7.16344 32 16 32Z" fill="white"/>
  <path d="M11.32 23.87C9.73998 22.01 8.72998 19.27 8.66998 16.19V15.52C8.73998 12.44 9.75998 9.7 11.32 7.84C13.36 5.2 16.36 4.01 19.75 4.01C21.84 4.01 23.8 4.15 25.47 5.27C22.97 3.01 19.67 1.65 16.05 1.64H15.99C8.13999 1.64 1.76999 8.01 1.76999 15.86C1.76999 23.71 7.77 29.71 15.31 30.07C15.53 30.08 15.77 30.08 15.99 30.08C19.63 30.08 22.95 28.71 25.47 26.46C23.8 27.57 21.95 27.62 19.86 27.62C16.48 27.63 13.35 26.53 11.32 23.88V23.87Z" fill="url(#paint0_linear_1204_2522)"/>
  <path d="M11.32 7.86C12.62 6.32 14.31 5.39 16.15 5.39C20.29 5.39 23.65 10.08 23.65 15.88C23.65 21.68 20.3 26.37 16.15 26.37C14.31 26.37 12.63 25.44 11.32 23.9C13.36 26.54 16.4 28.23 19.77 28.23C21.85 28.23 23.8 27.6 25.47 26.49C28.38 23.87 30.21 20.08 30.21 15.87C30.21 11.66 28.38 7.87 25.47 5.27C23.8 4.16 21.86 3.53 19.77 3.53C16.38 3.53 13.35 5.21 11.32 7.86Z" fill="url(#paint1_linear_1204_2522)"/>
  <defs>
    <linearGradient id="paint0_linear_1204_2522" x1="15.6192" y1="-0.337553" x2="15.6192" y2="31.3474" gradientUnits="userSpaceOnUse">
      <stop offset="0.3" stop-color="#E93B3A"/>
      <stop offset="0.44" stop-color="#E53A38"/>
      <stop offset="0.59" stop-color="#D93534"/>
      <stop offset="0.76" stop-color="#C32D2C"/>
      <stop offset="0.93" stop-color="#A72323"/>
      <stop offset="1" stop-color="#981E1E"/>
    </linearGradient>
    <linearGradient id="paint1_linear_1204_2522" x1="21.598" y1="2.79003" x2="21.598" y2="27.254" gradientUnits="userSpaceOnUse">
      <stop stop-color="#8E1B11"/>
      <stop offset="0.7" stop-color="#EB5A53"/>
    </linearGradient>
  </defs>
</svg>
