<svg width="32" height="32" viewBox="0 0 32 32" fill="none" xmlns="http://www.w3.org/2000/svg">
<g clip-path="url(#clip0_2244_1945)">
<path d="M0 16C0 7.16 7.16 0 16 0C24.84 0 32 7.16 32 16C32 24.84 24.84 32 16 32C7.16 32 0 24.84 0 16Z" fill="white"/>
<path d="M16 0C7.16 0 0 7.16 0 16C0 24.84 7.16 32 16 32C24.84 32 32 24.84 32 16C32 7.16 24.84 0 16 0ZM16 24.15V30.83C9.66 30.83 4.51 25.69 4.51 19.34C4.51 12.99 9.65 7.85 16 7.85V1.17C22.34 1.17 27.49 6.31 27.49 12.66C27.49 19.01 22.35 24.15 16 24.15ZM21.51 15.95V16.05C19.08 17.26 17.26 19.08 16.05 21.51H15.95C14.74 19.08 12.92 17.26 10.49 16.05V15.95C12.92 14.74 14.74 12.92 15.95 10.49H16.05C17.26 12.92 19.08 14.74 21.51 15.95Z" fill="#E93431"/>
</g>
<defs>
<clipPath id="clip0_2244_1945">
<rect width="32" height="32" fill="white"/>
</clipPath>
</defs>
</svg>
