<svg width="32" height="32" viewBox="0 0 32 32" fill="none" xmlns="http://www.w3.org/2000/svg">
  <g clip-path="url(#clip0_298_720)">
    <path d="M21.36 13.4H19.92L19.46 15.55H20.84C21.18 15.55 21.47 15.46 21.72 15.27C21.98 15.09 22.14 14.82 22.22 14.48C22.24 14.34 22.26 14.22 22.26 14.12C22.26 13.89 22.19 13.71 22.06 13.59C21.92 13.46 21.69 13.4 21.36 13.4Z" fill="#C4BFB8"/>
    <path d="M12.66 13.34C12.21 13.34 11.83 13.47 11.51 13.74C11.2 14 10.97 14.41 10.84 14.95C10.7 15.49 10.55 16.14 10.41 16.92C10.38 17.08 10.36 17.25 10.36 17.42C10.36 18.16 10.74 18.52 11.51 18.52C11.96 18.52 12.34 18.39 12.65 18.12C12.97 17.86 13.2 17.45 13.33 16.91C13.51 16.16 13.65 15.5 13.75 14.94C13.78 14.77 13.8 14.6 13.8 14.42C13.8 13.69 13.42 13.33 12.66 13.33V13.34Z" fill="#C4BFB8"/>
    <path d="M16 0C7.16 0 0 7.16 0 16C0 24.84 7.16 32 16 32C24.84 32 32 24.84 32 16C32 7.16 24.84 0 16 0ZM15.98 14.91C15.86 15.62 15.72 16.32 15.55 16.99C15.27 18.09 14.79 18.91 14.1 19.45C13.41 19.99 12.49 20.25 11.34 20.25C10.39 20.25 9.61 20.03 9 19.58C8.4 19.12 8.10001 18.48 8.10001 17.63C8.10001 17.45 8.12 17.24 8.16 16.98C8.26 16.4 8.41001 15.71 8.60001 14.9C9.14001 12.7 10.55 11.6 12.82 11.6C13.44 11.6 13.99 11.7 14.48 11.91C14.97 12.11 15.35 12.41 15.63 12.82C15.91 13.22 16.05 13.7 16.05 14.26C16.05 14.43 16.03 14.64 15.99 14.9L15.98 14.91ZM24.45 14.5C24.25 15.42 23.85 16.1 23.24 16.54C22.64 16.98 21.81 17.2 20.77 17.2H19.15L18.6 19.83C18.58 19.92 18.54 19.99 18.47 20.05C18.4 20.11 18.32 20.13 18.24 20.13H16.61C16.52 20.13 16.45 20.1 16.41 20.05C16.37 19.99 16.36 19.91 16.37 19.83L18.03 12.02C18.05 11.93 18.09 11.86 18.16 11.8C18.23 11.74 18.31 11.72 18.39 11.72H21.58C22.47 11.72 23.18 11.9 23.72 12.27C24.26 12.64 24.54 13.17 24.54 13.87C24.54 14.07 24.52 14.28 24.47 14.49L24.45 14.5Z" fill="#C4BFB8"/>
  </g>
  <defs>
    <clipPath id="clip0_298_720">
      <rect width="32" height="32" fill="white"/>
    </clipPath>
  </defs>
</svg>
