<svg xmlns="http://www.w3.org/2000/svg" viewBox="0 0 132 132"><defs><linearGradient id="a" x1="15.8%" x2="106.3%" y1="84.9%" y2="-17.2%"><stop offset="0%" stop-color="#0877FF"/><stop offset="100%" stop-color="#3CCEF9"/></linearGradient></defs><path fill="url(#a)" fill-rule="nonzero" d="M65.86 0c-1.418 0-2.824.045-4.216.135a4.338 4.338 0 0 0-4.017 4.342V32.8a4.346 4.346 0 0 0 1.45 3.235 4.327 4.327 0 0 0 3.373 1.072 29.47 29.47 0 0 1 3.41-.2c11.742 0 22.327 7.089 26.82 17.96a29.136 29.136 0 0 1-6.292 31.703 28.986 28.986 0 0 1-31.637 6.306C43.903 88.373 36.83 77.766 36.83 66V19.223a6.949 6.949 0 0 0-3.9-6.25 6.92 6.92 0 0 0-7.314.784C9.447 26.24-.017 45.544 0 65.999c0 36.412 30.083 66.298 66.419 65.999 36.373-.155 65.735-29.829 65.58-66.279C131.845 29.27 102.233-.154 65.86.001Z"/></svg>