<svg width="32" height="32" viewBox="0 0 32 32" fill="none" xmlns="http://www.w3.org/2000/svg">
  <path d="M16 0C7.16 0 0 7.16 0 16C0 24.84 7.16 32 16 32C24.84 32 32 24.84 32 16C32 7.16 24.84 0 16 0ZM16.08 29.03C8.91002 29.09 2.97 23.19 2.97 16C2.97 11.96 4.84 8.15 8.03 5.69C8.44 5.37 9 5.31 9.47 5.54C9.94 5.77 10.24 6.25 10.24 6.77V16.01C10.24 18.33 11.64 20.43 13.78 21.32C15.92 22.21 18.39 21.72 20.03 20.07C21.67 18.43 22.16 15.96 21.27 13.81C20.38 11.66 18.29 10.26 15.97 10.26C15.74 10.26 15.52 10.27 15.3 10.3C15.06 10.33 14.82 10.25 14.63 10.09C14.45 9.93 14.34 9.7 14.34 9.45V3.86C14.34 3.41 14.68 3.04 15.13 3C15.4 2.98 15.68 2.97 15.96 2.97C23.14 2.94 28.99 8.75 29.02 15.95C29.05 23.15 23.25 29.01 16.07 29.04L16.08 29.03Z" fill="#213147"/>
</svg>
