<svg width="32" height="32" viewBox="0 0 32 32" fill="none" xmlns="http://www.w3.org/2000/svg">
  <path d="M16 32C24.8366 32 32 24.8366 32 16C32 7.16344 24.8366 0 16 0C7.16344 0 0 7.16344 0 16C0 24.8366 7.16344 32 16 32Z" fill="white"/>
  <path d="M15.97 2.97C15.69 2.97 15.41 2.97 15.14 3C14.69 3.03 14.35 3.41 14.35 3.86V9.45C14.35 9.69 14.45 9.93 14.64 10.09C14.82 10.25 15.06 10.33 15.31 10.3C15.53 10.27 15.76 10.26 15.98 10.26C18.3 10.26 20.39 11.66 21.28 13.81C22.17 15.96 21.68 18.42 20.04 20.07C18.4 21.71 15.94 22.2 13.79 21.32C11.65 20.43 10.25 18.34 10.25 16.01V6.77C10.25 6.25 9.95001 5.77 9.48001 5.54C9.01001 5.31 8.45001 5.37 8.04001 5.69C4.85001 8.15 2.98001 11.97 2.98001 16C2.98001 23.19 8.92 29.09 16.09 29.03C23.27 29 29.07 23.14 29.04 15.94C29.01 8.74 23.16 2.93 15.98 2.97H15.97Z" fill="url(#paint0_linear_1204_2514)"/>
  <defs>
    <linearGradient id="paint0_linear_1204_2514" x1="7.29001" y1="25.71" x2="31.05" y2="-0.690004" gradientUnits="userSpaceOnUse">
      <stop stop-color="#3475F5"/>
      <stop offset="1" stop-color="#6BCAF3"/>
    </linearGradient>
  </defs>
</svg>
