<svg width="32" height="32" viewBox="0 0 32 32" fill="none" xmlns="http://www.w3.org/2000/svg">
  <path d="M8.51999 12.81C7.73999 12.81 7.10001 13.44 7.10001 14.22V16.5C7.10001 17.27 7.73999 17.91 8.51999 17.91C9.29999 17.91 9.94 17.28 9.94 16.5V14.22C9.94 13.45 9.29999 12.81 8.51999 12.81Z" fill="#213147"/>
  <path d="M13.46 12.81C12.68 12.81 12.04 13.44 12.04 14.22V16.5C12.04 17.27 12.68 17.91 13.46 17.91C14.24 17.91 14.88 17.28 14.88 16.5V14.22C14.88 13.45 14.24 12.81 13.46 12.81Z" fill="#213147"/>
  <path d="M16 0C7.16 0 0 7.16 0 16C0 24.84 7.16 32 16 32C24.84 32 32 24.84 32 16C32 7.16 24.84 0 16 0ZM15.75 27H15C9.06 27 3.48001 21.89 3.60001 16.01C3.71001 10.32 8.41 5.75 14.19 5.75C19.97 5.75 24.78 10.44 24.78 16.23H27.64C28.58 16.23 29.31 17.09 29.11 18C28.01 22.94 20.99 27 15.75 27Z" fill="#213147"/>
</svg>
