<svg width="32" height="32" viewBox="0 0 32 32" fill="none" xmlns="http://www.w3.org/2000/svg">
  <path d="M16 32C24.8366 32 32 24.8366 32 16C32 7.16344 24.8366 0 16 0C7.16344 0 0 7.16344 0 16C0 24.8366 7.16344 32 16 32Z" fill="url(#paint0_linear_1204_2510)"/>
  <path d="M27.65 16.23H24.79C24.79 10.44 20.05 5.75 14.2 5.75C8.35002 5.75 3.71999 10.33 3.60999 16.01C3.48999 21.89 9.07002 27 15.01 27H15.76C21 27 28.02 22.94 29.12 18C29.32 17.09 28.6 16.23 27.65 16.23ZM9.94001 16.49C9.94001 17.26 9.3 17.9 8.52 17.9C7.74 17.9 7.10001 17.27 7.10001 16.49V14.21C7.10001 13.44 7.74 12.8 8.52 12.8C9.3 12.8 9.94001 13.43 9.94001 14.21V16.49ZM14.88 16.49C14.88 17.26 14.24 17.9 13.46 17.9C12.68 17.9 12.04 17.27 12.04 16.49V14.21C12.04 13.44 12.68 12.8 13.46 12.8C14.24 12.8 14.88 13.43 14.88 14.21V16.49Z" fill="url(#paint1_linear_1204_2510)"/>
  <defs>
    <linearGradient id="paint0_linear_1204_2510" x1="16" y1="0.01" x2="16" y2="32.01" gradientUnits="userSpaceOnUse">
      <stop stop-color="#524BAA"/>
      <stop offset="1" stop-color="#4E1FEE"/>
    </linearGradient>
    <linearGradient id="paint1_linear_1204_2510" x1="16.38" y1="5.76" x2="16.38" y2="27.01" gradientUnits="userSpaceOnUse">
      <stop stop-color="white"/>
      <stop offset="1" stop-color="white" stop-opacity="0.82"/>
    </linearGradient>
  </defs>
</svg>
