<svg width="32" height="32" viewBox="0 0 32 32" fill="none" xmlns="http://www.w3.org/2000/svg">
<g clip-path="url(#clip0_2792_2064)">
<path d="M32 16.086C32 16.2491 32 16.4122 31.9911 16.5709H24.2096V16.2182H16.7209C16.7209 16.1433 16.7209 16.0683 16.7209 15.9978C16.7209 15.9273 16.7209 15.8479 16.7209 15.7774H24.2096V15.4247H31.9867C31.9956 15.6451 32 15.8655 32 16.086ZM16.5878 14.4901L23.9168 13.5864L23.9612 13.9391L31.7028 12.9869C31.6273 12.6078 31.5386 12.2331 31.441 11.8628L23.8192 12.8018L23.8636 13.1544L16.4991 14.0625C16.5302 14.208 16.5612 14.3491 16.5878 14.4946V14.4901ZM16.2063 13.0707L23.2114 11.3206L23.2957 11.6644L30.7312 9.80851C30.5803 9.45144 30.4118 9.09437 30.2387 8.75052L23.0207 10.5535L23.105 10.8974L16.0421 12.6651C16.0998 12.8018 16.1531 12.9384 16.2063 13.0795V13.0707ZM15.5852 11.7438L22.1334 9.2707L22.2576 9.60132L29.1873 6.98278C28.961 6.65216 28.7259 6.33476 28.4775 6.02177L21.8539 8.52128L21.9781 8.85191L15.3501 11.3558C15.4299 11.4793 15.5098 11.6071 15.5852 11.7394V11.7438ZM14.7245 10.5138L20.5096 7.49855L20.6738 7.81595L27.0711 4.47885C26.7783 4.19231 26.4722 3.92341 26.1572 3.65891L20.1458 6.79322L20.31 7.11062L14.4273 10.1788C14.5293 10.289 14.6314 10.3992 14.729 10.5183L14.7245 10.5138ZM13.3315 9.18694L18.5709 5.85866L18.7617 6.15842L24.5424 2.48188C24.1786 2.24824 23.8059 2.03664 23.4244 1.83386L18.1495 5.18859L18.3402 5.48836L12.9544 8.91362C13.0875 9.00179 13.2161 9.09437 13.3404 9.19135L13.3315 9.18694ZM12.0937 8.41548L16.4814 4.81829L16.7076 5.09161L21.6498 1.03596C21.2283 0.877256 20.798 0.731781 20.3632 0.608348L15.98 4.20554L16.2063 4.47885L11.6589 8.20829C11.8054 8.27442 11.9518 8.34054 12.0982 8.41548H12.0937ZM10.4522 7.77628L13.9171 4.32456L14.1655 4.57584L18.5754 0.198374C18.0962 0.119025 17.6126 0.0617165 17.1202 0.0264499L13.3625 3.76471L13.611 4.01598L9.95092 7.65725C10.1195 7.69252 10.2881 7.73219 10.4522 7.77628ZM8.5357 7.48974L11.2996 4.13941L11.5747 4.36424L15.1726 0C14.6269 0.0264499 14.0857 0.0793498 13.5533 0.1587L10.6874 3.63246L10.9624 3.85728L7.96784 7.48533C8.05213 7.48533 8.13642 7.48092 8.22071 7.48092C8.32719 7.48092 8.43366 7.48092 8.5357 7.48533V7.48974ZM6.88091 7.58672L9.0104 4.2893L9.30764 4.48326L11.8808 0.49814C11.2907 0.652431 10.7184 0.837581 10.155 1.05359L8.34493 3.86169L8.64217 4.05566L6.28199 7.71015C6.47719 7.66166 6.67683 7.62639 6.88091 7.59113V7.58672ZM5.03979 8.09809L6.57036 5.22827L6.88091 5.39578L8.90836 1.59581C8.2562 1.91321 7.63067 2.27469 7.03175 2.67144L5.86497 4.85356L6.17995 5.02108L4.37876 8.39785C4.59171 8.28764 4.81353 8.19066 5.03535 8.09809H5.03979ZM3.71773 8.77256L4.36989 6.92106L4.70262 7.04009L5.967 3.44731C5.32372 3.95867 4.72037 4.51412 4.16581 5.11365L3.62013 6.66097L3.95286 6.78L3.10107 9.20017C3.30071 9.05028 3.50478 8.90922 3.7133 8.77697L3.71773 8.77256ZM2.094 10.0995L2.38237 8.75493L2.72841 8.82987L3.30958 6.12316C2.70179 6.89902 2.16054 7.72779 1.69915 8.60945L1.95647 8.66676L1.42853 10.893C1.63261 10.6152 1.85887 10.3551 2.09843 10.1039L2.094 10.0995ZM0.900596 11.6688V9.88786C0.470262 11.0252 0.164148 12.4403 0 13.8289C0.19964 13.0574 0.505754 12.3345 0.900596 11.6644V11.6688ZM0.0133093 18.2108C0.181894 19.3966 0.479135 20.5384 0.891723 21.6228V20.3091C0.51019 19.6611 0.212949 18.9558 0.0133093 18.2108ZM1.48177 21.1908L1.94316 23.3421L1.68585 23.3994C2.14723 24.281 2.68848 25.1098 3.29627 25.8857L2.7151 23.179L2.36906 23.2539L2.07625 21.8917C1.8633 21.6713 1.66366 21.4377 1.47733 21.1908H1.48177ZM3.08776 22.7866L3.94399 25.22L3.61126 25.339L4.15694 26.8863C4.71593 27.4859 5.31929 28.0413 5.95813 28.5527L4.69375 24.9599L4.36102 25.0789L3.70886 23.2186C3.49591 23.082 3.29183 22.9409 3.09219 22.791L3.08776 22.7866ZM4.36545 23.5933L6.17108 26.9833L5.85609 27.1508L7.02288 29.333C7.62179 29.7297 8.24733 30.0912 8.89949 30.4086L6.87204 26.6086L6.55705 26.7761L5.02204 23.8975C4.79579 23.8049 4.5784 23.7035 4.36102 23.5977L4.36545 23.5933ZM6.26868 24.2943L8.62887 27.9532L8.33162 28.1471L10.1417 30.9552C10.7007 31.1712 11.2774 31.3564 11.8675 31.5107L9.29433 27.5256L8.99709 27.7195L6.86316 24.4177C6.66353 24.3868 6.45945 24.3472 6.26425 24.2987L6.26868 24.2943ZM7.95453 24.5147L10.9491 28.1427L10.6741 28.3675L13.54 31.8413C14.0724 31.9207 14.6092 31.9735 15.1593 32L11.5613 27.6358L11.2863 27.8606L8.52239 24.5103C8.42479 24.5147 8.32275 24.5147 8.22071 24.5147C8.13198 24.5147 8.04326 24.5147 7.95453 24.5103V24.5147ZM9.94205 24.3427L13.6021 27.984L13.3537 28.2353L17.1113 31.9736C17.6038 31.9383 18.0873 31.8766 18.5665 31.8016L14.1655 27.4198L13.9171 27.671L10.4522 24.2237C10.2881 24.2678 10.1195 24.3075 9.95092 24.3427H9.94205ZM11.6456 23.8005L16.1886 27.53L15.9623 27.8033L20.3455 31.4005C20.7803 31.277 21.2106 31.1316 21.6321 30.9729L16.6854 26.9172L16.4592 27.1905L12.076 23.5933C11.934 23.6683 11.7876 23.7388 11.6368 23.8005H11.6456ZM12.9366 23.0908L18.318 26.5116L18.1273 26.8114L23.4022 30.1661C23.7837 29.9634 24.1564 29.7473 24.5202 29.5181L18.7395 25.8416L18.5487 26.1413L13.3182 22.8175C13.1895 22.9144 13.0653 23.007 12.9322 23.0952L12.9366 23.0908ZM14.4184 21.83L20.2923 24.8894L20.1281 25.2068L26.1395 28.3411C26.4545 28.081 26.7606 27.8077 27.0534 27.5211L20.656 24.184L20.4919 24.5014L14.7157 21.4906C14.6181 21.6052 14.5205 21.7198 14.414 21.83H14.4184ZM15.3501 20.6442L21.9692 23.1437L21.845 23.4743L28.4686 25.9738C28.717 25.6652 28.9522 25.3434 29.1784 25.0128L22.2487 22.3943L22.1245 22.7249L15.5852 20.2562C15.5098 20.3841 15.4344 20.5119 15.3501 20.6398V20.6442ZM16.0421 19.3437L23.0961 21.107L23.0118 21.4509L30.2299 23.2539C30.4073 22.91 30.5715 22.553 30.7267 22.1959L23.2913 20.34L23.207 20.6838L16.2107 18.9381C16.1619 19.0792 16.1043 19.2159 16.0466 19.3525L16.0421 19.3437ZM16.4991 17.9463L23.8503 18.85L23.8059 19.2026L31.4277 20.1416C31.5253 19.7713 31.614 19.3966 31.6895 19.0175L23.9479 18.0653L23.9035 18.418L16.5834 17.5143C16.5568 17.6597 16.5257 17.8052 16.4947 17.9463H16.4991Z" fill="#213147"/>
</g>
<defs>
<clipPath id="clip0_2792_2064">
<rect width="32" height="32" fill="white"/>
</clipPath>
</defs>
</svg>
