<svg width="32" height="32" viewBox="0 0 32 32" fill="none" xmlns="http://www.w3.org/2000/svg">
<g clip-path="url(#clip0_423_271)">
<path d="M14.56 0.0883209C10.4077 0.455681 6.48 2.50432 3.776 5.72032C0.208 9.968 -0.896 15.728 0.83968 21.0163C1.61851 23.3809 2.94135 25.5297 4.70184 27.29C6.46232 29.0503 8.61131 30.3728 10.976 31.1514C14.2803 32.2394 17.7203 32.2477 21.0163 31.1597C23.3808 30.3809 25.5296 29.0582 27.2899 27.2978C29.0501 25.5374 30.3727 23.3886 31.1514 21.024C32.2394 17.7197 32.2477 14.2797 31.1597 10.9843C28.8397 3.94432 21.968 -0.567679 14.56 0.0883209ZM16.8403 5.27232C17.6883 5.664 24.88 9.808 25.1443 10.064C25.312 10.2323 25.5283 10.5043 25.6243 10.6803C25.8003 11.0003 25.8003 11.024 25.8003 15.92C25.8003 20.816 25.8003 20.8403 25.6237 21.1603C25.5277 21.3357 25.312 21.6083 25.1437 21.776C24.848 22.064 17.2717 26.4083 16.72 26.608C16.352 26.7437 15.696 26.7437 15.312 26.608C14.768 26.416 7.17632 22.0717 6.85632 21.7683C6.67078 21.5872 6.50945 21.3828 6.37632 21.1603C6.19968 20.8403 6.19968 20.816 6.19968 15.92C6.19968 11.024 6.19968 11.0003 6.37568 10.6803C6.47168 10.5043 6.688 10.224 6.85568 10.064C7.12768 9.80032 14.0557 5.80032 15.0797 5.312C15.584 5.072 16.3686 5.056 16.8403 5.27232Z" fill="#213147"/>
<path d="M15.6403 6.68801C13.184 8.04033 7.99232 11.024 7.86432 11.1757C7.68 11.3677 7.68 11.3997 7.68 13.5277C7.68 14.7117 7.696 15.68 7.72032 15.68C7.744 15.68 7.89568 15.6 8.064 15.4957C8.224 15.392 8.52032 15.2397 8.72 15.152C9.06368 15.008 9.392 14.9997 15.8803 14.96C23.6563 14.912 22.896 14.992 23.8163 14.1357L24.32 13.664V12.512C24.32 11.44 24.3117 11.36 24.144 11.1757C23.92 10.9357 16.368 6.64833 16.08 6.59201C15.968 6.57601 15.776 6.61569 15.6403 6.68801ZM14.5357 10.4083C14.656 10.448 14.864 10.5837 14.9837 10.704C15.408 11.104 15.44 11.248 15.44 12.64V13.92H13.92V11.76H12.16V13.92H10.64V12.6957C10.64 11.152 10.7603 10.832 11.4803 10.4557C11.6723 10.352 11.9923 10.3277 13.0163 10.32C13.744 10.32 14.4077 10.361 14.5357 10.4083ZM20.544 10.4717C21.232 10.8237 21.36 11.1674 21.36 12.7194V13.9194H19.84V11.7594H18.08V13.9194H16.56V12.6394C16.56 11.2474 16.592 11.1034 17.0157 10.7034C17.3677 10.3674 17.552 10.327 18.944 10.327C20.0717 10.3194 20.288 10.3437 20.544 10.4717ZM24.1843 15.776C24.128 15.84 23.8163 16.016 23.504 16.1683L22.9197 16.4397L16.08 16.48L9.24032 16.5203L8.88 16.736C8.68032 16.848 8.32768 17.1443 8.096 17.3843L7.68 17.8323V19.152C7.68 20.4077 7.68768 20.48 7.86368 20.6643C7.95968 20.768 9.76768 21.8323 11.8797 23.0323C14.8 24.672 15.792 25.2 15.9923 25.2C16.2003 25.2 17.2083 24.6643 20.1843 22.976C22.336 21.76 24.1523 20.688 24.208 20.592C24.368 20.3603 24.3366 15.584 24.1843 15.776ZM12.16 18.6003V19.68H13.9123L13.936 18.6157L13.9603 17.5597L14.704 17.536L15.44 17.5123V18.816C15.44 20.0243 15.424 20.144 15.2557 20.416C14.848 21.088 14.4 21.2243 12.8237 21.184C11.5757 21.1597 11.376 21.088 10.928 20.5357L10.6803 20.224L10.656 18.8717L10.624 17.52H12.16V18.6003ZM18.064 18.6157L18.0877 19.68H19.84V17.52H21.36V18.736C21.36 20.112 21.2717 20.432 20.8083 20.8243C20.4403 21.1283 20.0883 21.2 18.8723 21.2C17.872 21.2 17.76 21.184 17.376 20.992C17.0803 20.8403 16.9043 20.688 16.7603 20.448C16.5683 20.1203 16.56 20.048 16.56 18.8083V17.5117L17.3043 17.536L18.0403 17.5603L18.064 18.6157Z" fill="#213147"/>
</g>
<defs>
<clipPath id="clip0_423_271">
<rect width="32" height="32" fill="white"/>
</clipPath>
</defs>
</svg>
