<svg width="32" height="32" viewBox="0 0 32 32" fill="none" xmlns="http://www.w3.org/2000/svg">
<path d="M16 0.29C24.68 0.29 31.71 7.32 31.71 16C31.71 24.68 24.68 31.71 16 31.71C7.32 31.71 0.289997 24.68 0.289997 16C0.289997 7.32 7.32 0.29 16 0.29Z" fill="black"/>
<path d="M16 32C7.18 32 0 24.82 0 16C0 7.18 7.18 0 16 0C24.82 0 32 7.18 32 16C32 24.82 24.82 32 16 32ZM16 0.58C7.5 0.58 0.579998 7.5 0.579998 16C0.579998 24.5 7.5 31.42 16 31.42C24.5 31.42 31.42 24.5 31.42 16C31.42 7.5 24.51 0.58 16 0.58Z" fill="black"/>
<path fill-rule="evenodd" clip-rule="evenodd" d="M13.44 2.83008C7.26004 4.02008 2.60004 9.45008 2.60004 15.9801C2.60004 22.5101 7.27004 27.9401 13.44 29.1301V27.8801C7.95004 26.7101 3.83004 21.8301 3.83004 15.9901C3.83004 10.1501 7.95004 5.27008 13.44 4.10008V2.83008ZM18.55 4.09008V2.83008C24.71 4.03008 29.37 9.46008 29.37 15.9701C29.37 22.4801 24.72 27.9101 18.55 29.1101V27.8501C24.03 26.6701 28.14 21.8001 28.14 15.9601C28.14 10.1201 24.03 5.25008 18.55 4.07008V4.09008Z" fill="white"/>
<path d="M17.89 15.5301C18.91 15.7201 19.7 16.1001 20.27 16.6601C20.83 17.2001 21.11 17.9001 21.11 18.7501V20.0801C21.11 21.1001 20.74 21.9201 20.01 22.5401C19.28 23.1501 18.31 23.4601 17.12 23.4601H16.71V25.5901H15.3V23.4601H14.87C14.08 23.4601 13.39 23.2901 12.79 22.9401C12.19 22.5801 11.72 22.0801 11.38 21.4401C11.05 20.7901 10.89 20.0401 10.89 19.1901H12.3C12.3 20.0501 12.54 20.7501 13.01 21.3001C13.49 21.8301 14.13 22.0901 14.92 22.0901H17.1C17.87 22.0901 18.49 21.9101 18.97 21.5501C19.44 21.1701 19.68 20.6901 19.68 20.0901V18.7601C19.68 18.2901 19.5 17.8801 19.15 17.5501C18.81 17.2201 18.34 17.0001 17.74 16.9001L14.2 16.2701C13.2 16.0901 12.43 15.7101 11.88 15.1401C11.33 14.5701 11.05 13.8501 11.05 12.9901V11.8601C11.05 10.8401 11.4 10.0401 12.11 9.44014C12.83 8.83014 13.78 8.52014 14.96 8.52014H15.31V6.39014H16.72V8.52014H17.17C18.28 8.52014 19.18 8.88014 19.86 9.60014C20.54 10.3101 20.88 11.2501 20.88 12.4201H19.47C19.47 11.6601 19.26 11.0401 18.84 10.5801C18.42 10.1201 17.86 9.89014 17.17 9.89014H14.95C14.2 9.89014 13.61 10.0701 13.16 10.4301C12.71 10.7801 12.49 11.2501 12.49 11.8501V12.9801C12.49 13.4701 12.65 13.8801 12.98 14.2101C13.32 14.5401 13.79 14.7701 14.37 14.8801L17.89 15.5301Z" fill="white"/>
<path d="M16 31.98C7.18001 31.98 0.0100098 24.81 0.0100098 15.99C0.0100098 7.17 7.18 0 16 0C24.82 0 31.99 7.17 31.99 15.99C31.99 24.81 24.82 31.98 16 31.98ZM16 1.73C8.14001 1.73 1.74001 8.13 1.74001 15.99C1.74001 23.85 8.14001 30.25 16 30.25C23.86 30.25 30.26 23.85 30.26 15.99C30.26 8.13 23.86 1.73 16 1.73Z" fill="#6ADFC2"/>
</svg>
