<svg width="32" height="32" viewBox="0 0 32 32" fill="none" xmlns="http://www.w3.org/2000/svg">
<g clip-path="url(#clip0_3140_3)">
<path d="M16 0.22998C7.16 0.22998 0 7.39998 0 16.23C0 25.06 7.16 32.23 16 32.23C24.84 32.23 32 25.07 32 16.23C32 7.38998 24.84 0.22998 16 0.22998ZM16 31.29C7.65 31.29 0.86 24.5 0.86 16.15C0.86 7.79998 7.65 1.00998 16 1.00998C24.35 1.00998 31.14 7.79998 31.14 16.15C31.14 24.5 24.35 31.29 16 31.29Z" fill="#213147"/>
<path d="M16 2.12988C8.27001 2.12988 1.98001 8.41988 1.98001 16.1499C1.98001 23.8799 8.27001 30.1699 16 30.1699C23.73 30.1699 30.02 23.8799 30.02 16.1499C30.02 8.41988 23.73 2.12988 16 2.12988ZM13.49 28.8199C7.42001 27.6799 2.84001 22.4699 2.84001 16.2199C2.84001 9.96988 7.43001 4.75988 13.49 3.61988V4.81988C8.09001 5.93988 4.05001 10.6199 4.05001 16.2199C4.05001 21.8199 8.09001 26.4999 13.49 27.6199V28.8199ZM16.71 23.3899V25.4299H15.32V23.3899H14.89C14.12 23.3899 13.44 23.2299 12.84 22.8899C12.25 22.5499 11.77 22.0499 11.45 21.4499C11.13 20.8199 10.97 20.1099 10.97 19.2899H12.36C12.36 20.1199 12.59 20.7899 13.05 21.3099C13.53 21.8099 14.15 22.0699 14.92 22.0699H17.06C17.82 22.0699 18.43 21.8999 18.9 21.5499C19.36 21.1899 19.59 20.7299 19.59 20.1499V18.8699C19.59 18.4099 19.41 18.0299 19.07 17.7099C18.73 17.3899 18.27 17.1799 17.68 17.0899L14.21 16.4899C13.23 16.3199 12.47 15.9599 11.93 15.4099C11.39 14.8599 11.12 14.1799 11.12 13.3499V12.2699C11.12 11.2999 11.47 10.5199 12.16 9.94988C12.87 9.35988 13.8 9.06988 14.96 9.06988H15.31V7.03988H16.7V9.07988H17.14C18.24 9.07988 19.11 9.42988 19.78 10.1199C20.45 10.7999 20.79 11.6999 20.79 12.8199H19.4C19.4 12.0899 19.19 11.4999 18.78 11.0599C18.37 10.6199 17.82 10.3999 17.14 10.3999H14.96C14.23 10.3999 13.64 10.5699 13.2 10.9199C12.76 11.2499 12.55 11.7099 12.55 12.2799V13.3599C12.55 13.8199 12.71 14.2199 13.03 14.5399C13.37 14.8599 13.82 15.0699 14.4 15.1799L17.87 15.8199C18.88 16.0099 19.65 16.3699 20.21 16.8999C20.77 17.4199 21.04 18.0899 21.04 18.8999V20.1799C21.04 21.1599 20.68 21.9399 19.96 22.5399C19.24 23.1299 18.29 23.4199 17.12 23.4199H16.72L16.71 23.3899ZM18.52 28.8099V27.6099C23.9 26.4799 27.94 21.8099 27.94 16.2199C27.94 10.6299 23.9 5.95988 18.52 4.82988V3.62988C24.58 4.77988 29.15 9.97988 29.15 16.2199C29.15 22.4599 24.58 27.6699 18.52 28.8099Z" fill="#213147"/>
</g>
<defs>
<clipPath id="clip0_3140_3">
<rect width="32" height="32" fill="white"/>
</clipPath>
</defs>
</svg>
