<svg width="32" height="32" viewBox="0 0 32 32" fill="none" xmlns="http://www.w3.org/2000/svg">
<g clip-path="url(#clip0_3140_5)">
<path d="M16 0.0898438C7.16 0.0898438 0 7.24984 0 16.0898C0 24.9298 7.16 32.0898 16 32.0898C24.84 32.0898 32 24.9298 32 16.0898C32 7.24984 24.84 0.0898438 16 0.0898438Z" fill="url(#paint0_radial_3140_5)"/>
<path fill-rule="evenodd" clip-rule="evenodd" d="M13.49 3.47998C7.41997 4.61998 2.83997 9.82998 2.83997 16.08C2.83997 22.33 7.42997 27.54 13.49 28.68V27.48C8.08997 26.36 4.04997 21.68 4.04997 16.08C4.04997 10.48 8.08997 5.79998 13.49 4.67998V3.47998ZM18.52 4.68998V3.48998C24.58 4.63998 29.15 9.83998 29.15 16.08C29.15 22.32 24.58 27.53 18.52 28.67V27.47C23.9 26.34 27.94 21.67 27.94 16.08C27.94 10.49 23.9 5.81998 18.52 4.68998Z" fill="white"/>
<path d="M17.87 15.6499C18.88 15.8399 19.65 16.1999 20.21 16.7299C20.77 17.2499 21.04 17.9199 21.04 18.7299V20.0099C21.04 20.9899 20.68 21.7699 19.96 22.3699C19.24 22.9599 18.29 23.2499 17.12 23.2499H16.72V25.2899H15.33V23.2499H14.9C14.13 23.2499 13.45 23.0899 12.85 22.7499C12.26 22.4099 11.78 21.9099 11.46 21.3099C11.14 20.6799 10.98 19.9699 10.98 19.1499H12.37C12.37 19.9799 12.6 20.6499 13.06 21.1699C13.54 21.6699 14.16 21.9299 14.93 21.9299H17.07C17.83 21.9299 18.44 21.7599 18.91 21.4099C19.37 21.0499 19.6 20.5899 19.6 20.0099V18.7299C19.6 18.2699 19.42 17.8899 19.08 17.5699C18.74 17.2499 18.28 17.0399 17.69 16.9499L14.22 16.3499C13.24 16.1799 12.48 15.8199 11.94 15.2699C11.4 14.7199 11.13 14.0399 11.13 13.2099V12.1299C11.13 11.1599 11.48 10.3799 12.17 9.8099C12.88 9.2199 13.81 8.9299 14.97 8.9299H15.32V6.8999H16.71V8.9399H17.15C18.25 8.9399 19.12 9.2899 19.79 9.9799C20.46 10.6599 20.8 11.5599 20.8 12.6799H19.41C19.41 11.9499 19.2 11.3599 18.79 10.9199C18.38 10.4799 17.83 10.2599 17.15 10.2599H14.97C14.24 10.2599 13.65 10.4299 13.21 10.7799C12.77 11.1099 12.56 11.5699 12.56 12.1399V13.2199C12.56 13.6799 12.72 14.0799 13.04 14.3999C13.38 14.7199 13.83 14.9299 14.41 15.0399L17.88 15.6799L17.87 15.6499Z" fill="white"/>
<path d="M16 32C7.18 32 0 24.83 0 16C0 7.17 7.18 0 16 0C24.82 0 32 7.18 32 16C32 24.82 24.82 32 16 32ZM16 1.99C8.27 1.99 1.98 8.28 1.98 16.01C1.98 23.74 8.27 30.03 16 30.03C23.73 30.03 30.02 23.74 30.02 16.01C30.02 8.28 23.73 1.99 16 1.99Z" fill="#6ADFC2"/>
</g>
<defs>
<radialGradient id="paint0_radial_3140_5" cx="0" cy="0" r="1" gradientUnits="userSpaceOnUse" gradientTransform="translate(10.9144 4.82214) rotate(90) scale(33.5486 23.6156)">
<stop offset="0.03" stop-color="#72EAF8"/>
<stop offset="0.81" stop-color="#2A4FF3"/>
</radialGradient>
<clipPath id="clip0_3140_5">
<rect width="32" height="32" fill="white"/>
</clipPath>
</defs>
</svg>
