<svg width="32" height="32" viewBox="0 0 32 32" fill="none" xmlns="http://www.w3.org/2000/svg">
<path d="M16 0.29C24.68 0.29 31.71 7.32 31.71 16C31.71 24.68 24.68 31.71 16 31.71C7.32 31.71 0.29 24.67 0.29 16C0.29 7.32 7.32 0.29 16 0.29Z" fill="white"/>
<path d="M16 32C7.18 32 0 24.82 0 16C0 7.18 7.18 0 16 0C24.82 0 32 7.18 32 16C32 24.82 24.82 32 16 32ZM16 0.58C7.5 0.58 0.58 7.49 0.58 16C0.58 24.51 7.5 31.42 16 31.42C24.5 31.42 31.42 24.5 31.42 16C31.42 7.5 24.5 0.58 16 0.58Z" fill="black"/>
<path fill-rule="evenodd" clip-rule="evenodd" d="M13.43 2.83C7.25 4.02 2.59 9.45 2.59 15.98C2.59 22.51 7.26 27.94 13.43 29.13V27.88C7.94 26.71 3.82 21.83 3.82 15.99C3.82 10.15 7.94 5.26 13.43 4.09V2.83ZM18.55 4.09V2.83C24.71 4.03 29.37 9.46 29.37 15.97C29.37 22.48 24.72 27.91 18.55 29.11V27.85C24.03 26.67 28.14 21.8 28.14 15.96C28.14 10.12 24.03 5.25 18.55 4.07V4.09Z" fill="black"/>
<path d="M17.89 15.53C18.91 15.72 19.7 16.1 20.27 16.66C20.83 17.2 21.11 17.9 21.11 18.75V20.09C21.11 21.11 20.74 21.93 20.01 22.55C19.28 23.16 18.31 23.47 17.12 23.47H16.71V25.6H15.3V23.47H14.87C14.08 23.47 13.39 23.3 12.79 22.95C12.19 22.59 11.72 22.09 11.38 21.45C11.05 20.8 10.89 20.05 10.89 19.2H12.3C12.3 20.06 12.54 20.76 13.01 21.31C13.49 21.84 14.13 22.1 14.92 22.1H17.1C17.87 22.1 18.49 21.92 18.97 21.56C19.44 21.18 19.68 20.7 19.68 20.1V18.76C19.68 18.29 19.5 17.88 19.15 17.55C18.81 17.22 18.34 17 17.74 16.9L14.2 16.27C13.2 16.09 12.43 15.71 11.88 15.14C11.33 14.57 11.05 13.85 11.05 12.99V11.86C11.05 10.84 11.4 10.04 12.11 9.44C12.83 8.83 13.78 8.52 14.96 8.52H15.31V6.39H16.72V8.52H17.17C18.28 8.52 19.18 8.88 19.86 9.6C20.54 10.31 20.88 11.25 20.88 12.42H19.47C19.47 11.66 19.26 11.04 18.84 10.58C18.42 10.12 17.86 9.89 17.17 9.89H14.95C14.2 9.89 13.61 10.07 13.16 10.43C12.71 10.78 12.49 11.25 12.49 11.85V12.98C12.49 13.47 12.65 13.88 12.98 14.21C13.32 14.54 13.79 14.77 14.37 14.88L17.89 15.53Z" fill="black"/>
<path d="M15.99 31.98C7.17 31.98 0 24.81 0 15.99C0 7.17 7.17 0 15.99 0C24.81 0 31.98 7.17 31.98 15.99C31.98 24.81 24.81 31.98 15.99 31.98ZM15.99 1.73C8.13 1.73 1.73 8.13 1.73 15.99C1.73 23.85 8.13 30.25 15.99 30.25C23.85 30.25 30.25 23.85 30.25 15.99C30.25 8.13 23.86 1.73 15.99 1.73Z" fill="#6ADFC2"/>
</svg>
