<svg width="32" height="32" viewBox="0 0 32 32" fill="none" xmlns="http://www.w3.org/2000/svg">
<g clip-path="url(#clip0_298_736)">
<path d="M16 32C24.84 32 32 24.84 32 16C32 7.16 24.84 0 16 0C7.16 0 0 7.16 0 16C0 24.84 7.16 32 16 32Z" fill="#306FEA"/>
<path d="M18.54 6.4H12.91C12.29 6.4 11.74 6.85 11.64 7.48L11.24 10.03V10.05H9.35001C8.85001 10.05 8.44 10.46 8.44 10.96C8.44 11.47 8.86001 11.87 9.35001 11.89H10.96L10.68 13.65L10.66 13.78H8.76999C8.26999 13.78 7.86002 14.19 7.86002 14.69C7.86002 15.18 8.27999 15.6 8.76999 15.6H10.38L9.51001 21.1L9.08002 23.91C8.97002 24.61 9.44999 25.26 10.15 25.37C10.22 25.38 10.28 25.39 10.35 25.39H14.58C15.2 25.39 15.73 24.94 15.85 24.31L16.66 19.27H18.64C22.21 19.27 25.12 16.32 25.06 12.73C25 9.2 22.06 6.42 18.54 6.42V6.4ZM12.82 11.88L18.52 11.9C19.04 11.9 19.46 12.32 19.46 12.84C19.46 13.36 19.04 13.78 18.52 13.78H12.51L12.81 11.87L12.82 11.88ZM18.56 17.4H16.18C15.56 17.4 15.03 17.85 14.91 18.48L14.1 23.54H11L12.23 15.61H18.52C20.04 15.61 21.28 14.37 21.28 12.85C21.28 11.34 20.03 10.09 18.52 10.09L13.12 10.07L13.4 8.26H18.65C21.22 8.26 23.3 10.38 23.24 12.95C23.16 15.44 21.07 17.41 18.55 17.41L18.56 17.4Z" fill="white"/>
</g>
<defs>
<clipPath id="clip0_298_736">
<rect width="32" height="32" fill="white"/>
</clipPath>
</defs>
</svg>
