<svg width="32" height="32" viewBox="0 0 32 32" fill="none" xmlns="http://www.w3.org/2000/svg">
  <path d="M16 32C24.8366 32 32 24.8366 32 16C32 7.16344 24.8366 0 16 0C7.16344 0 0 7.16344 0 16C0 24.8366 7.16344 32 16 32Z" fill="white"/>
  <path d="M29.04 17.65C30.07 15.34 24.96 8.88 20.07 6.19C16.99 4.11 13.78 4.39 13.13 5.31C11.7 7.32 17.86 9.02 21.97 11.01C21.09 11.39 20.25 12.08 19.76 12.97C18.23 11.3 14.86 9.85 10.91 11.01C8.25 11.79 6.04001 13.64 5.18001 16.43C4.97001 16.33 4.73 16.29 4.5 16.29C3.57 16.29 2.82001 17.04 2.82001 17.97C2.82001 18.9 3.57 19.65 4.5 19.65C4.67 19.65 5.21001 19.53 5.21001 19.53L13.78 19.59C10.35 25.03 7.64 25.82 7.64 26.76C7.64 27.7 10.23 27.45 11.21 27.1C15.87 25.42 20.87 20.18 21.73 18.67C25.34 19.12 28.37 19.17 29.04 17.67V17.65Z" fill="url(#paint0_linear_1307_1961)"/>
  <path fill-rule="evenodd" clip-rule="evenodd" d="M21.97 11C22.16 10.92 22.13 10.64 22.08 10.42C21.96 9.91001 19.88 7.86001 17.93 6.94001C15.27 5.69001 13.32 5.75001 13.03 6.33001C13.57 7.44001 16.08 8.48001 18.7 9.57001C19.82 10.03 20.96 10.51 21.97 11Z" fill="url(#paint1_linear_1307_1961)"/>
  <path fill-rule="evenodd" clip-rule="evenodd" d="M18.6 22.17C18.06 21.96 17.46 21.78 16.77 21.61C17.51 20.29 17.66 18.34 16.97 17.11C15.99 15.38 14.77 14.46 11.93 14.46C10.37 14.46 6.15 14.99 6.08 18.5C6.08 18.87 6.08 19.21 6.11 19.52L13.8 19.58C12.76 21.23 11.79 22.45 10.94 23.37C11.96 23.63 12.8 23.85 13.58 24.05C14.28 24.23 14.99 24.42 15.69 24.6C16.75 23.83 17.75 22.98 18.62 22.17H18.6Z" fill="url(#paint2_linear_1307_1961)"/>
  <path d="M5.08 19.15C5.39 21.82 6.91 22.87 10.02 23.18C13.12 23.49 14.9 23.28 17.27 23.5C19.25 23.68 21.02 24.69 21.67 24.34C22.26 24.03 21.93 22.89 21.14 22.17C20.12 21.23 18.7 20.57 16.21 20.34C16.71 18.98 16.57 17.07 15.8 16.04C14.68 14.54 12.63 13.86 10.02 14.16C7.3 14.47 4.69 15.81 5.08 19.16V19.15Z" fill="url(#paint3_linear_1307_1961)"/>
  <defs>
    <linearGradient id="paint0_linear_1307_1961" x1="9.48333" y1="15.2647" x2="32.0295" y2="20.7998" gradientUnits="userSpaceOnUse">
      <stop stop-color="#8996F7"/>
      <stop offset="1" stop-color="#A9A7F8"/>
    </linearGradient>
    <linearGradient id="paint1_linear_1307_1961" x1="25.1" y1="15.9" x2="11.96" y2="2.72" gradientUnits="userSpaceOnUse">
      <stop stop-color="#372399"/>
      <stop offset="1" stop-color="#5256CF" stop-opacity="0"/>
    </linearGradient>
    <linearGradient id="paint2_linear_1307_1961" x1="18.95" y1="22.65" x2="6.32" y2="15.39" gradientUnits="userSpaceOnUse">
      <stop stop-color="#371F88"/>
      <stop offset="1" stop-color="#6B6FF2" stop-opacity="0"/>
    </linearGradient>
    <linearGradient id="paint3_linear_1307_1961" x1="9.75" y1="16.99" x2="18.28" y2="27.83" gradientUnits="userSpaceOnUse">
      <stop stop-color="#8A96F7"/>
      <stop offset="0.98" stop-color="#5B48E7"/>
    </linearGradient>
  </defs>
</svg>
