<svg width="32" height="32" viewBox="0 0 32 32" fill="none" xmlns="http://www.w3.org/2000/svg">
  <path d="M16 0C7.16 0 0 7.16 0 16C0 24.84 7.16 32 16 32C24.84 32 32 24.84 32 16C32 7.16 24.84 0 16 0ZM21.73 18.65C21.44 19.16 20.68 20.09 19.62 21.16C20.22 21.44 20.71 21.78 21.13 22.16C21.92 22.89 22.25 24.02 21.66 24.33C21 24.68 19.24 23.67 17.26 23.49C17.2 23.49 17.14 23.49 17.08 23.48C16.65 23.83 16.21 24.18 15.75 24.52C15.72 24.54 15.69 24.57 15.66 24.59C14.24 25.62 12.7 26.54 11.2 27.08C10.23 27.43 7.63 27.69 7.63 26.74C7.63 26.07 8.99001 25.47 10.99 23.26C10.67 23.24 10.35 23.21 10 23.18C7.05 22.89 5.55 21.91 5.13 19.52C5 19.55 4.62 19.62 4.48 19.62C3.55 19.62 2.8 18.87 2.8 17.94C2.8 17.01 3.55 16.26 4.48 16.26C4.71 16.26 4.95 16.31 5.16 16.4C6.02 13.61 8.23 11.77 10.89 10.98C14.84 9.82 18.21 11.26 19.74 12.94C20.23 12.06 21.06 11.37 21.95 10.98C21.45 10.74 20.91 10.5 20.37 10.26C20.37 10.26 20.36 10.26 20.35 10.26C19.8 10.02 19.24 9.79 18.68 9.56C18.59 9.52 18.51 9.49 18.42 9.45C18.2 9.36 17.99 9.27 17.77 9.18C17.68 9.14 17.59 9.1 17.5 9.07C17.29 8.98 17.08 8.89 16.88 8.8C16.77 8.75 16.67 8.71 16.56 8.66C16.38 8.58 16.21 8.5 16.03 8.42C15.92 8.37 15.81 8.32 15.71 8.27C15.55 8.19 15.4 8.12 15.25 8.04C15.15 7.99 15.05 7.94 14.95 7.89C14.8 7.81 14.67 7.73 14.53 7.66C14.45 7.61 14.36 7.56 14.28 7.51C14.14 7.42 14.01 7.33 13.89 7.25C13.84 7.21 13.77 7.17 13.72 7.13C13.56 7 13.41 6.88 13.29 6.75C13.27 6.73 13.26 6.71 13.25 6.69C13.16 6.58 13.08 6.47 13.02 6.36C13.02 6.35 13 6.34 13 6.33C12.84 6 12.85 5.66 13.09 5.31C13.74 4.39 16.95 4.11 20.03 6.19C24.92 8.88 30.03 15.34 29 17.65C28.33 19.16 25.29 19.1 21.69 18.65H21.73Z" fill="#213147"/>
</svg>
