<svg width="32" height="32" viewBox="0 0 32 32" fill="none" xmlns="http://www.w3.org/2000/svg">
<g clip-path="url(#clip0_298_429)">
<path d="M16 0C7.16 0 0 7.16 0 16C0 24.84 7.16 32 16 32C24.84 32 32 24.84 32 16C32 7.16 24.84 0 16 0ZM12.17 19.95C12.17 19.95 12.14 19.96 12.12 19.97C12.09 19.99 12.06 20 12.03 20.01C11.99 20.03 11.94 20.04 11.9 20.05C11.87 20.05 11.85 20.06 11.82 20.06C11.77 20.06 11.72 20.07 11.67 20.06C11.64 20.06 11.62 20.06 11.59 20.06C11.54 20.06 11.5 20.05 11.45 20.03C11.42 20.03 11.39 20.01 11.36 20C11.34 20 11.32 20 11.3 19.98C11.12 19.89 10.97 19.75 10.87 19.55L8.62 14.98C8.51 14.77 8.50001 14.52 8.57001 14.29L9.13 12.59C9.17 12.48 9.19001 12.41 9.23001 12.35C9.26001 12.3 9.29001 12.26 9.35001 12.23L18.11 6.81C18.19 6.76 18.28 6.73 18.37 6.71C18.37 6.71 18.37 6.71 18.38 6.71C18.45 6.69 18.52 6.69 18.59 6.69C18.61 6.69 18.64 6.69 18.66 6.69C18.72 6.69 18.78 6.71 18.84 6.73C18.87 6.73 18.91 6.75 18.94 6.76C18.99 6.78 19.03 6.8 19.07 6.83C19.11 6.85 19.15 6.88 19.18 6.91C19.19 6.92 19.21 6.93 19.23 6.94C19.45 7.16 19.58 7.48 19.48 7.84L18.97 9.71C18.94 9.8 18.9 9.89 18.85 9.97L12.46 19.65C12.39 19.76 12.29 19.84 12.19 19.91L12.17 19.95ZM23.28 17.75L22.72 19.45C22.68 19.56 22.66 19.63 22.62 19.69C22.59 19.74 22.56 19.78 22.5 19.81L13.74 25.23C13.66 25.28 13.57 25.31 13.48 25.33C13.41 25.35 13.34 25.35 13.27 25.35C13.25 25.35 13.22 25.35 13.2 25.35C13.14 25.35 13.08 25.33 13.02 25.31C12.99 25.31 12.95 25.29 12.92 25.28C12.87 25.26 12.83 25.24 12.79 25.21C12.75 25.19 12.71 25.16 12.68 25.13C12.67 25.12 12.65 25.11 12.63 25.1C12.41 24.88 12.28 24.56 12.38 24.2L12.89 22.33C12.92 22.24 12.96 22.15 13.01 22.07L19.4 12.39C19.47 12.28 19.57 12.2 19.67 12.13C19.67 12.13 19.7 12.1 19.72 12.09C19.75 12.07 19.78 12.06 19.81 12.05C19.85 12.03 19.9 12.02 19.94 12.01C19.97 12.01 19.99 12 20.02 12C20.07 12 20.12 11.99 20.17 12C20.2 12 20.22 12 20.25 12C20.3 12 20.34 12.01 20.39 12.03C20.42 12.03 20.45 12.05 20.48 12.06C20.5 12.06 20.52 12.06 20.54 12.08C20.72 12.17 20.87 12.31 20.97 12.51L23.22 17.08C23.33 17.29 23.34 17.54 23.27 17.77L23.28 17.75Z" fill="#213147"/>
</g>
<defs>
<clipPath id="clip0_298_429">
<rect width="32" height="32" fill="white"/>
</clipPath>
</defs>
</svg>
