<svg width="32" height="32" viewBox="0 0 32 32" fill="none" xmlns="http://www.w3.org/2000/svg">
  <path d="M16 32C24.8366 32 32 24.8366 32 16C32 7.16344 24.8366 0 16 0C7.16344 0 0 7.16344 0 16C0 24.8366 7.16344 32 16 32Z" fill="url(#paint0_linear_1307_1960)"/>
  <path d="M7.11 11.11H8.44C15.31 11.11 20.88 16.68 20.88 23.55V24.88H23.55C24.29 24.88 24.88 24.28 24.88 23.55C24.88 14.47 17.52 7.11 8.44 7.11C7.7 7.11 7.11 7.71 7.11 8.44V11.11Z" fill="url(#paint1_radial_1307_1960)"/>
  <path d="M7.11 10.67H8.44C15.56 10.67 21.33 16.44 21.33 23.56V24.89H17.33V23.56C17.33 18.65 13.35 14.67 8.44 14.67H7.11V10.67Z" fill="url(#paint2_radial_1307_1960)"/>
  <path d="M7.11 16.44C7.11 17.18 7.71 17.77 8.44 17.77C11.63 17.77 14.22 20.36 14.22 23.55C14.22 24.29 14.82 24.88 15.55 24.88H17.77V23.55C17.77 18.4 13.59 14.22 8.44 14.22H7.11V16.44Z" fill="url(#paint3_radial_1307_1960)"/>
  <defs>
    <linearGradient id="paint0_linear_1307_1960" x1="16" y1="0" x2="16" y2="32" gradientUnits="userSpaceOnUse">
      <stop stop-color="#455EA4"/>
      <stop offset="1" stop-color="#2E4070"/>
    </linearGradient>
    <radialGradient id="paint1_radial_1307_1960" cx="0" cy="0" r="1" gradientUnits="userSpaceOnUse" gradientTransform="translate(11.7956 22.8916) rotate(-90) scale(16.6509 16.6509)">
      <stop offset="0.77" stop-color="#EA5128"/>
      <stop offset="1" stop-color="#8056C1"/>
    </radialGradient>
    <radialGradient id="paint2_radial_1307_1960" cx="0" cy="0" r="1" gradientUnits="userSpaceOnUse" gradientTransform="translate(5.2192 24.3156) rotate(-90) scale(13.0491 13.0491)">
      <stop offset="0.72" stop-color="#FDF652"/>
      <stop offset="1" stop-color="#F09D39"/>
    </radialGradient>
    <radialGradient id="paint3_radial_1307_1960" cx="0" cy="0" r="1" gradientUnits="userSpaceOnUse" gradientTransform="translate(8.34 23.69) rotate(-90) scale(9.45 9.45)">
      <stop offset="0.6" stop-color="#4CA6F7"/>
      <stop offset="1" stop-color="#63D658"/>
    </radialGradient>
  </defs>
</svg>
