<svg width="32" height="32" viewBox="0 0 32 32" fill="none" xmlns="http://www.w3.org/2000/svg">
<g clip-path="url(#clip0_298_750)">
<path d="M16 32C24.8366 32 32 24.8366 32 16C32 7.16344 24.8366 0 16 0C7.16344 0 0 7.16344 0 16C0 24.8366 7.16344 32 16 32Z" fill="#183055"/>
<path d="M9.53 9.83999L11.09 8.93999L11.3 9.3L17.06 5.98L16.64 5.74L16.22 5.49L16.01 5.37L6.63 10.79V11.03L9.32001 9.47L9.53 9.83V9.83999Z" fill="white"/>
<path d="M9.53 13.25L14.04 10.64L14.25 11.01L20.01 7.69002L19.59 7.44002L18.96 7.08002L6.64001 14.2V14.44L9.33002 12.88L9.54001 13.25H9.53Z" fill="white"/>
<path d="M9.53 14.95L15.52 11.49L15.73 11.85L21.49 8.51997L21.07 8.27997L20.65 8.02997L20.44 7.90997L6.64001 15.88V16.13L9.33002 14.57L9.54001 14.94L9.53 14.95Z" fill="white"/>
<path d="M9.53 16.65L17.03 12.32L17.24 12.68L22.95 9.38002L22.53 9.13002L21.9 8.77002L6.63 17.59V17.83L9.32001 16.27L9.53 16.64V16.65Z" fill="white"/>
<path d="M9.53 18.35L18.51 13.17L18.72 13.54L24.43 10.24L24.01 10L23.59 9.75001L23.38 9.63L6.63 19.3V19.54L9.32001 17.99L9.53 18.35Z" fill="white"/>
<path d="M25.06 10.61L24.85 10.49L6.63 21.02V21.26L9.32001 19.71L9.53 20.07L18.51 14.89L18.72 15.25L25.38 11.41V10.8L25.06 10.62V10.61Z" fill="white"/>
<path d="M7.78 22.28L9.29001 21.41L9.5 21.77L18.46 16.6L18.67 16.97L25.37 13.1V11.88L7.57001 22.16L7.78 22.28Z" fill="white"/>
<path d="M18.46 18.31L18.67 18.68L25.37 14.81V13.59L9.04001 23.02L9.25 23.14L10.78 22.25L10.99 22.62" fill="white"/>
<path d="M10.73 23.99L12.26 23.1L12.47 23.47L18.45 20.01L18.66 20.38L25.36 16.51V15.29L10.5 23.87L10.71 23.99H10.73Z" fill="white"/>
<path d="M12.21 24.84L13.74 23.95L13.95 24.31L18.46 21.71L18.67 22.07L25.37 18.2V16.99L11.99 24.72L12.2 24.84H12.21Z" fill="white"/>
<path d="M13.47 25.57L13.68 25.69L15.22 24.8L15.43 25.17L18.46 23.41L18.67 23.78L25.37 19.91V18.69L13.47 25.56V25.57Z" fill="white"/>
<path d="M15.16 26.54L16.69 25.65L16.9 26.02L18.46 25.11L18.67 25.48L25.37 21.61V20.39L14.94 26.41L15.15 26.53L15.16 26.54Z" fill="white"/>
<path d="M18.53 6.82997L17.69 6.34997L17.48 6.21997L6.63 12.49V12.73L9.32001 11.18L9.53 11.54L12.57 9.78997L12.78 10.16L18.53 6.83997V6.82997Z" fill="white"/>
</g>
<defs>
<clipPath id="clip0_298_750">
<rect width="32" height="32" fill="white"/>
</clipPath>
</defs>
</svg>
