<svg width="32" height="32" viewBox="0 0 32 32" fill="none" xmlns="http://www.w3.org/2000/svg">
<g clip-path="url(#clip0_297_171)">
<path d="M32 16C32 24.84 24.84 32 16 32C7.16 32 0 24.84 0 16C0 7.16 7.16 0 16 0C24.84 0 32 7.16 32 16Z" fill="white"/>
<path d="M27.78 21.95L16.97 2.56C16.78 2.21 16.42 2 16.03 2C15.64 2 15.27 2.22 15.09 2.56L4.28001 21.95C4.00001 22.46 4.17002 23.1 4.66002 23.4L15.48 29.87C15.83 30.07 16.26 30.07 16.6 29.87L27.41 23.41C27.9 23.1 28.06 22.46 27.77 21.95H27.78ZM19.6 14.13L19.34 13.91L19.32 13.89C19.24 13.82 19.15 13.76 19.06 13.7L19.04 13.68C18.95 13.62 18.86 13.56 18.76 13.5C18.74 13.5 18.74 13.48 18.73 13.48C18.64 13.42 18.55 13.38 18.45 13.33C18.43 13.33 18.43 13.31 18.42 13.31C18.33 13.26 18.23 13.22 18.13 13.18C18.11 13.18 18.11 13.16 18.1 13.16C18.01 13.13 17.92 13.09 17.84 13.06C17.6 12.97 17.35 12.9 17.1 12.85C16.91 13.21 16.65 13.54 16.35 13.82C16.8 13.85 17.23 13.96 17.65 14.13C17.88 14.23 18.11 14.35 18.33 14.49C18.34 14.49 18.35 14.49 18.36 14.51C18.42 14.54 18.47 14.58 18.52 14.63C18.55 14.65 18.57 14.66 18.59 14.69C18.64 14.72 18.69 14.77 18.74 14.81C18.77 14.84 18.8 14.86 18.83 14.88C18.88 14.93 18.92 14.95 18.96 15L19.26 15.3C19.26 15.3 19.33 15.38 19.36 15.42C19.39 15.45 19.42 15.49 19.45 15.52L19.54 15.65C19.54 15.65 19.59 15.73 19.61 15.77L19.7 15.9C19.7 15.9 19.75 15.98 19.77 16.02C19.8 16.07 19.82 16.11 19.84 16.15C19.87 16.2 19.89 16.24 19.91 16.28C19.93 16.33 19.96 16.37 19.97 16.41C19.99 16.47 20.02 16.52 20.04 16.57C20.16 16.87 20.25 17.19 20.29 17.51L20.42 18.03C20.48 18.25 21.01 20.14 22.25 20.77C23.67 21.51 25.54 22.42 26.28 22.77L16.57 28.58V24.6C16.57 23.97 17.82 23.23 18.4 22.98L18.43 22.96C18.55 22.9 18.67 22.84 18.79 22.77L18.84 22.74C19.09 22.59 19.33 22.42 19.55 22.22C19.57 22.2 19.6 22.19 19.61 22.16C19.64 22.14 19.66 22.11 19.68 22.1C19.75 22.04 19.81 21.97 19.89 21.91L19.92 21.88C20 21.81 20.07 21.73 20.13 21.64C20.15 21.61 20.18 21.59 20.19 21.57C20.25 21.5 20.3 21.44 20.35 21.36C20.37 21.34 20.38 21.31 20.4 21.3L20.58 21.04C20.58 21.04 20.6 21.02 20.6 21.01C20.67 20.89 20.75 20.76 20.82 20.64C20.55 20.3 20.32 19.94 20.13 19.55C20.05 19.77 19.96 19.98 19.85 20.18C19.8 20.27 19.75 20.36 19.7 20.44C19.68 20.46 19.68 20.47 19.67 20.47C19.62 20.54 19.57 20.61 19.52 20.68C19.5 20.7 19.49 20.73 19.47 20.74C19.42 20.81 19.37 20.87 19.31 20.93C19.29 20.95 19.29 20.96 19.28 20.96C18.92 21.36 18.49 21.69 18.01 21.93L17.92 21.98C17.67 22.08 15.5 23.07 15.5 24.56V28.54L5.77003 22.75C6.40003 22.37 8.23003 21.27 9.74003 20.8C10.33 20.61 11.58 21.4 12.29 21.98L12.34 22.03C12.43 22.12 12.53 22.21 12.63 22.28L12.66 22.31C12.88 22.5 13.13 22.66 13.38 22.8L13.56 22.89C13.56 22.89 13.58 22.89 13.59 22.91C13.75 23 13.92 23.08 14.09 23.15C14.11 23.16 14.14 23.17 14.16 23.18C14.18 23.18 14.19 23.2 14.22 23.2C14.47 23.29 14.72 23.36 14.97 23.42C15.17 23.05 15.43 22.73 15.74 22.45C15.33 22.42 14.92 22.33 14.53 22.19C14.51 22.17 14.48 22.17 14.47 22.16C14.42 22.15 14.38 22.13 14.34 22.1C14.32 22.08 14.29 22.08 14.28 22.07C14.23 22.05 14.19 22.02 14.16 22.01C13.87 21.87 13.6 21.7 13.35 21.49L12.97 21.13C12.61 20.82 12.23 20.54 11.82 20.3C10.86 19.75 10.05 19.58 9.43004 19.77C8.15004 20.18 6.69003 20.96 5.80003 21.48L15.52 4.02V11.67C15.52 11.93 15.12 12.64 13.78 13.25L13.69 13.3C13.56 13.36 13.44 13.43 13.31 13.51L13.28 13.53C13.03 13.68 12.78 13.86 12.56 14.05C12.42 14.17 12.28 14.3 12.16 14.43L12.14 14.45C12.01 14.58 11.89 14.72 11.78 14.86L11.76 14.88C11.7 14.95 11.66 15.03 11.6 15.1C11.6 15.12 11.58 15.12 11.58 15.13C11.53 15.2 11.49 15.26 11.45 15.34C11.45 15.36 11.43 15.36 11.43 15.37L11.3 15.59C11.3 15.59 11.28 15.62 11.27 15.65C11.22 15.72 11.2 15.8 11.17 15.86C11.17 15.87 11.17 15.88 11.15 15.89C11.12 15.96 11.09 16.02 11.06 16.1C11.05 16.12 11.04 16.15 11.03 16.17L10.94 16.39C10.94 16.39 10.92 16.44 10.91 16.46C10.9 16.52 10.88 16.57 10.85 16.62C10.84 16.65 10.83 16.68 10.82 16.71C10.8 16.78 10.77 16.86 10.76 16.92C10.75 16.95 10.74 16.99 10.73 17.02C10.71 17.07 10.71 17.12 10.7 17.17C10.68 17.22 10.68 17.26 10.67 17.3C10.65 17.36 10.65 17.42 10.64 17.48C10.64 17.53 10.62 17.55 10.62 17.6C10.62 17.66 10.6 17.7 10.6 17.76C10.6 17.81 10.6 17.87 10.58 17.92V18.14C10.58 18.41 10.6 18.67 10.64 18.94C11.06 19.05 11.47 19.2 11.85 19.4C11.73 19.01 11.67 18.61 11.66 18.21V18.14C11.66 18.04 11.66 17.94 11.68 17.85V17.78C11.68 17.7 11.69 17.61 11.71 17.53V17.5C11.73 17.41 11.74 17.32 11.76 17.22C11.76 17.19 11.78 17.17 11.78 17.15C11.8 17.08 11.83 17 11.84 16.93C11.84 16.91 11.86 16.9 11.86 16.88L11.95 16.62C11.95 16.62 11.97 16.57 11.98 16.56C12.01 16.49 12.04 16.41 12.07 16.35C12.09 16.33 12.09 16.32 12.1 16.29C12.14 16.21 12.18 16.13 12.23 16.05C12.24 16.04 12.25 16.02 12.26 16C12.31 15.93 12.33 15.87 12.38 15.79C12.39 15.78 12.4 15.76 12.41 15.74C12.46 15.66 12.51 15.59 12.57 15.52C12.57 15.52 12.57 15.52 12.58 15.52C12.64 15.45 12.68 15.39 12.74 15.31C12.75 15.3 12.76 15.28 12.77 15.26C13.04 14.97 13.34 14.71 13.67 14.49L14.13 14.27C14.38 14.17 16.54 13.15 16.54 11.66V4.04L26.35 21.65C25.48 21.22 23.93 20.46 22.74 19.84C22.05 19.48 21.59 18.23 21.46 17.77L21.33 17.24C21.32 16.95 21.26 16.67 21.17 16.4C20.86 15.52 20.33 14.74 19.63 14.13" fill="#51377C"/>
</g>
<defs>
<clipPath id="clip0_297_171">
<rect width="32" height="32" fill="white"/>
</clipPath>
</defs>
</svg>
