<svg width="32" height="33" viewBox="0 0 32 33" fill="none" xmlns="http://www.w3.org/2000/svg">
<path d="M16 32.43C24.84 32.43 32 25.27 32 16.43C32 7.58999 24.84 0.429993 16 0.429993C7.16 0.429993 0 7.58999 0 16.43C0 25.27 7.16 32.43 16 32.43Z" fill="url(#paint0_radial_348_108)"/>
<path d="M16 32.43C24.84 32.43 32 25.27 32 16.43C32 7.58999 24.84 0.429993 16 0.429993C7.16 0.429993 0 7.58999 0 16.43C0 25.27 7.16 32.43 16 32.43Z" fill="url(#paint1_radial_348_108)"/>
<path opacity="0.2" d="M16.8 14.24H28.85C29.2 14.24 29.49 13.95 29.49 13.6V7.84999C26.68 3.43999 21.77 0.489993 16.16 0.429993V13.6C16.16 13.95 16.45 14.24 16.8 14.24Z" fill="url(#paint2_linear_348_108)"/>
<path opacity="0.1" d="M28.8 6.85999L6.42999 29.23C7.10999 29.74 7.81999 30.2 8.57999 30.6L30.17 9.00999C29.77 8.24999 29.31 7.53999 28.8 6.85999Z" fill="#CC4521"/>
<path opacity="0.2" d="M21.44 5.43998V16.21C21.44 16.56 21.73 16.85 22.08 16.85H31.98C31.98 16.71 32 16.57 32 16.42C32 11.83 30.06 7.70998 26.97 4.78998H22.08C21.73 4.78998 21.44 5.07998 21.44 5.42998V5.43998Z" fill="#F09B7D"/>
<path opacity="0.1" d="M7.09 6.18996H11.3C11.65 6.18996 11.94 5.89996 11.94 5.54996V0.959961C9.93 1.48996 8.07 2.38996 6.45 3.59996V5.53996C6.45 5.88996 6.74 6.17996 7.09 6.17996V6.18996Z" fill="#CC4521"/>
<path opacity="0.2" d="M20.43 10.77H25.98C26.33 10.77 26.62 10.48 26.62 10.13V4.46995C24.7 2.75995 22.37 1.51995 19.79 0.889954V10.13C19.79 10.48 20.08 10.77 20.43 10.77Z" fill="#F6CB94"/>
<path opacity="0.1" d="M29.57 7.97998L7.55 30C7.89 30.21 8.23 30.42 8.59 30.6L30.17 9.01998C29.98 8.65998 29.78 8.31998 29.57 7.97998Z" fill="#CC4521"/>
<path opacity="0.2" d="M26.72 23.84H22.51C22.16 23.84 21.87 24.13 21.87 24.48V31.3C23.95 30.48 25.82 29.25 27.36 27.69V24.48C27.36 24.13 27.07 23.84 26.72 23.84Z" fill="#CC4521"/>
<path opacity="0.1" d="M12.96 10.83C13.31 10.83 13.6 11.12 13.6 11.47V20.06C13.6 20.41 13.31 20.7 12.96 20.7H8.21001C7.86001 20.7 7.57001 20.41 7.57001 20.06V11.47C7.57001 11.12 7.86001 10.83 8.21001 10.83H12.96Z" fill="url(#paint3_linear_348_108)"/>
<path opacity="0.1" d="M3.03999 13.39C3.03999 13.04 3.32999 12.75 3.67999 12.75H11.47C11.82 12.75 12.11 13.04 12.11 13.39V21.55C12.11 21.9 11.82 22.19 11.47 22.19H3.67999C3.32999 22.19 3.03999 21.9 3.03999 21.55V13.39Z" fill="url(#paint4_linear_348_108)"/>
<path opacity="0.2" d="M19.31 22.13V27.68C19.31 28.03 19.6 28.32 19.95 28.32H26.68C28.72 26.49 30.28 24.15 31.17 21.49H19.95C19.6 21.49 19.31 21.78 19.31 22.13Z" fill="#D45029"/>
<path opacity="0.2" d="M17.17 4.79999C17.52 4.79999 17.81 4.50999 17.81 4.15999V1.06999C17.81 0.819993 17.66 0.609993 17.45 0.499993C16.97 0.459993 16.48 0.429993 15.99 0.429993C11.75 0.429993 7.9 2.09999 5.03 4.79999H17.17Z" fill="#F7D59B"/>
<path opacity="0.1" d="M2.64 25.22L24.79 3.06996C24.43 2.83996 24.07 2.60996 23.7 2.39996L1.98 24.13C2.19 24.51 2.41 24.87 2.65 25.23L2.64 25.22Z" fill="#CC4521"/>
<path opacity="0.2" d="M1.30001 22.74L22.31 1.71999C21.89 1.53999 21.46 1.38999 21.03 1.23999L0.820007 21.45C0.960007 21.89 1.12001 22.31 1.30001 22.73V22.74Z" fill="#F7D6A9"/>
<path opacity="0.2" d="M0.759999 21.3L20.87 1.19001C20.42 1.04001 19.95 0.920007 19.48 0.820007L0.389999 19.91C0.489999 20.38 0.609999 20.85 0.759999 21.3Z" fill="#F7D6A9"/>
<path opacity="0.1" d="M27.83 5.67999L5.25 28.26C5.63 28.6 6.02 28.92 6.42 29.23L28.8 6.84999C28.5 6.43999 28.17 6.04999 27.83 5.67999Z" fill="#CC4521"/>
<path opacity="0.1" d="M26.77 4.62L4.19 27.19C4.53 27.56 4.89 27.92 5.26 28.26L27.84 5.69C27.5 5.32 27.14 4.96 26.77 4.62Z" fill="#E1663D"/>
<path opacity="0.2" d="M4.19 27.2L26.77 4.62C26.46 4.34 26.15 4.07 25.82 3.81L3.38 26.24C3.64 26.57 3.91 26.89 4.19 27.19V27.2Z" fill="#E1663D"/>
<path opacity="0.1" d="M30.17 9.00998C29.99 8.65998 29.79 8.32998 29.58 7.99998C29.55 7.95998 29.53 7.90998 29.5 7.86998C29.28 7.51998 29.04 7.17998 28.79 6.84998L6.42 29.22C6.75 29.47 7.09 29.7 7.44 29.93C7.48 29.96 7.53 29.98 7.57 30.01C7.9 30.22 8.23 30.42 8.58 30.6L30.17 9.00998Z" fill="#CC4521"/>
<path opacity="0.08" d="M13.51 0.640012L0.210004 13.94C0.110004 14.58 0.0500043 15.23 0.0200043 15.89L15.46 0.450012C14.8 0.470012 14.15 0.540012 13.51 0.640012Z" fill="#F7D6A9"/>
<path opacity="0.05" d="M10.66 1.35996L0.929999 11.09C0.649999 11.87 0.429999 12.67 0.279999 13.5L13.08 0.709961C12.25 0.859961 11.45 1.08996 10.67 1.35996H10.66Z" fill="#F7D6A9"/>
<path opacity="0.1" d="M0.350001 19.73L19.3 0.769968C18.8 0.669968 18.29 0.589968 17.78 0.529968L0.110001 18.21C0.170001 18.72 0.250001 19.23 0.350001 19.73Z" fill="#F7D6A9"/>
<path opacity="0.09" d="M16 0.429983C15.93 0.429983 15.87 0.429983 15.8 0.439983L0.01 16.22C0.01 16.29 0 16.35 0 16.42C0 16.93 0.03 17.43 0.08 17.92L17.49 0.499983C17 0.449983 16.5 0.419983 16 0.419983V0.429983Z" fill="#F7D6A9"/>
<path opacity="0.1" d="M12.43 24.16C12.43 23.81 12.14 23.52 11.79 23.52H1.67C3.77 27.75 7.67 30.91 12.38 32C12.4 31.93 12.42 31.86 12.42 31.79V24.16H12.43Z" fill="#CC4521"/>
<path opacity="0.1" d="M21.87 19.89C21.87 19.54 21.58 19.25 21.23 19.25H8.96001C8.61001 19.25 8.32001 19.54 8.32001 19.89V30.46C10.6 31.71 13.22 32.42 16 32.42C18.07 32.42 20.05 32.01 21.87 31.29V19.88V19.89Z" fill="#F7D59B"/>
<path opacity="0.2" d="M9.49 24.11V9.22997C9.49 8.87997 9.2 8.58997 8.85 8.58997H2.06C0.75 10.9 0 13.58 0 16.43C0 19.48 0.87 22.32 2.35 24.75H8.85C9.2 24.75 9.49 24.46 9.49 24.11Z" fill="url(#paint5_linear_348_108)"/>
<path d="M15.98 19.88L9.89 16.28L15.98 6.17999L22.06 16.28L15.98 19.88Z" fill="white"/>
<path d="M15.98 26.01L9.89 17.44L15.98 21.04L22.07 17.44L15.98 26.01Z" fill="white"/>
<defs>
<radialGradient id="paint0_radial_348_108" cx="0" cy="0" r="1" gradientUnits="userSpaceOnUse" gradientTransform="translate(28.7432 -6.21425) rotate(54.17) scale(24.854)">
<stop stop-color="#F8D79C"/>
<stop offset="1" stop-color="#DB6443"/>
</radialGradient>
<radialGradient id="paint1_radial_348_108" cx="0" cy="0" r="1" gradientUnits="userSpaceOnUse" gradientTransform="translate(28.7432 -6.21425) rotate(54.17) scale(24.854)">
<stop stop-color="#F8D79C"/>
<stop offset="1" stop-color="#DB6443"/>
</radialGradient>
<linearGradient id="paint2_linear_348_108" x1="22.83" y1="14.24" x2="22.83" y2="0.429993" gradientUnits="userSpaceOnUse">
<stop stop-color="#CC4521" stop-opacity="0"/>
<stop offset="1" stop-color="#CC4521"/>
</linearGradient>
<linearGradient id="paint3_linear_348_108" x1="10.59" y1="10.82" x2="10.59" y2="19.94" gradientUnits="userSpaceOnUse">
<stop stop-color="#CC4521"/>
<stop offset="1" stop-color="#CC4521" stop-opacity="0"/>
</linearGradient>
<linearGradient id="paint4_linear_348_108" x1="3.03999" y1="17.46" x2="11.42" y2="17.46" gradientUnits="userSpaceOnUse">
<stop stop-color="#CC4521"/>
<stop offset="1" stop-color="#CC4521" stop-opacity="0"/>
</linearGradient>
<linearGradient id="paint5_linear_348_108" x1="4.75" y1="24.75" x2="4.75" y2="8.58997" gradientUnits="userSpaceOnUse">
<stop stop-color="#F9E099" stop-opacity="0"/>
<stop offset="1" stop-color="#F9E099"/>
</linearGradient>
</defs>
</svg>
