<svg width="32" height="32" viewBox="0 0 32 32" fill="none" xmlns="http://www.w3.org/2000/svg">
<path d="M16 0C24.84 0 32 7.16 32 16C32 24.84 24.84 32 16 32C7.16 32 0 24.84 0 16C0 7.16 7.16 0 16 0Z" fill="white"/>
<path d="M21.46 18.1901C20.76 17.7901 19.98 17.6701 19.2 17.6401C18.55 17.6201 17.57 17.2001 17.57 16.0001C17.57 15.5701 17.75 15.1501 18.05 14.8501C18.35 14.5401 18.77 14.3701 19.2 14.3601C19.98 14.3301 20.77 14.2201 21.46 13.8101C22.09 13.4501 22.61 12.9301 22.97 12.3001C23.33 11.6701 23.52 10.9601 23.52 10.2401C23.52 9.52012 23.33 8.80012 22.97 8.18012C22.61 7.55012 22.09 7.03012 21.46 6.67012C20.83 6.31012 20.12 6.12012 19.4 6.12012C18.68 6.12012 17.96 6.31012 17.34 6.67012C16.71 7.03012 16.19 7.55012 15.83 8.18012C15.47 8.81012 15.28 9.52012 15.28 10.2401C15.28 11.0401 15.56 11.7801 15.93 12.4601C16.23 13.0301 16.39 14.1001 15.34 14.7001C14.96 14.9101 14.52 14.9601 14.1 14.8501C13.68 14.7401 13.33 14.4601 13.11 14.0901C12.7 13.4301 12.2 12.8101 11.51 12.4201C10.88 12.0601 10.17 11.8701 9.45002 11.8701C8.73002 11.8701 8.01001 12.0601 7.39001 12.4201C6.76001 12.7801 6.24002 13.3001 5.88002 13.9301C5.52002 14.5601 5.33002 15.2701 5.33002 15.9901C5.33002 16.7101 5.52002 17.4301 5.88002 18.0501C6.24002 18.6801 6.76001 19.2001 7.39001 19.5601C8.02001 19.9201 8.73002 20.1101 9.45002 20.1101C10.17 20.1101 10.89 19.9201 11.51 19.5601C12.2 19.1601 12.7 18.5501 13.11 17.8901C13.45 17.3401 14.29 16.6701 15.35 17.2801C15.72 17.5001 15.99 17.8601 16.1 18.2801C16.21 18.7001 16.15 19.1401 15.94 19.5201C15.58 20.2001 15.29 20.9401 15.29 21.7401C15.29 22.4601 15.48 23.1801 15.84 23.8001C16.2 24.4301 16.72 24.9501 17.35 25.3101C17.98 25.6701 18.69 25.8601 19.41 25.8601C20.13 25.8601 20.85 25.6701 21.47 25.3101C22.1 24.9501 22.62 24.4301 22.98 23.8001C23.34 23.1701 23.53 22.4601 23.53 21.7401C23.53 21.0201 23.34 20.3001 22.98 19.6801C22.62 19.0501 22.1 18.5301 21.47 18.1701L21.46 18.1901Z" fill="#2C68F5"/>
</svg>
