<svg width="32" height="32" viewBox="0 0 32 32" fill="none" xmlns="http://www.w3.org/2000/svg">
<path d="M16 0C7.16 0 0 7.16 0 16C0 24.84 7.16 32 16 32C24.84 32 32 24.84 32 16C32 7.16 24.84 0 16 0ZM22.96 23.82C22.6 24.45 22.08 24.97 21.45 25.33C20.82 25.69 20.11 25.88 19.39 25.88C18.67 25.88 17.95 25.69 17.33 25.33C16.7 24.97 16.18 24.45 15.82 23.82C15.46 23.19 15.27 22.48 15.27 21.76C15.27 20.96 15.55 20.22 15.92 19.54C16.14 19.16 16.19 18.72 16.08 18.3C15.97 17.88 15.7 17.52 15.33 17.3C14.27 16.69 13.43 17.37 13.09 17.91C12.68 18.57 12.18 19.18 11.49 19.58C10.86 19.94 10.15 20.13 9.43 20.13C8.71 20.13 7.99 19.94 7.37 19.58C6.74 19.22 6.22 18.7 5.86 18.07C5.5 17.44 5.31 16.73 5.31 16.01C5.31 15.29 5.5 14.57 5.86 13.95C6.22 13.32 6.74 12.8 7.37 12.44C8 12.08 8.71 11.89 9.43 11.89C10.15 11.89 10.87 12.08 11.49 12.44C12.18 12.84 12.68 13.45 13.09 14.11C13.31 14.48 13.66 14.76 14.08 14.87C14.5 14.98 14.94 14.93 15.32 14.72C16.37 14.12 16.21 13.05 15.91 12.48C15.55 11.8 15.26 11.06 15.26 10.26C15.26 9.54 15.45 8.82 15.81 8.2C16.17 7.57 16.69 7.05 17.32 6.69C17.95 6.33 18.66 6.14 19.38 6.14C20.1 6.14 20.82 6.33 21.44 6.69C22.07 7.05 22.59 7.57 22.95 8.2C23.31 8.83 23.5 9.54 23.5 10.26C23.5 10.98 23.31 11.7 22.95 12.32C22.59 12.94 22.07 13.47 21.44 13.83C20.74 14.23 19.96 14.35 19.18 14.38C18.75 14.38 18.34 14.56 18.03 14.87C17.72 15.18 17.55 15.59 17.55 16.02C17.55 17.22 18.52 17.64 19.18 17.66C19.96 17.69 20.75 17.8 21.44 18.21C22.07 18.56 22.59 19.08 22.95 19.71C23.31 20.34 23.5 21.05 23.5 21.77C23.5 22.49 23.31 23.21 22.95 23.83L22.96 23.82Z" fill="currentColor"/>
</svg>
