<svg width="32" height="32" viewBox="0 0 32 32" fill="none" xmlns="http://www.w3.org/2000/svg">
<path d="M16 32C24.8366 32 32 24.8366 32 16C32 7.16344 24.8366 0 16 0C7.16344 0 0 7.16344 0 16C0 24.8366 7.16344 32 16 32Z" fill="url(#paint0_radial_2353_15)"/>
<path d="M19.29 5.04009L15.89 6.96009C14.66 7.66009 14.55 9.38009 15.68 10.2301L19.15 12.8201C19.86 13.3501 19.79 14.4301 19.02 14.8601L15.89 16.6301C14.66 17.3301 14.55 19.0601 15.69 19.9001L18.99 22.3601C19.33 22.6101 19.53 23.0201 19.53 23.4401V23.5401C19.53 23.8501 19.87 24.0501 20.14 23.8901L23.56 21.9401C24.79 21.2401 24.89 19.5101 23.75 18.6701L20.28 16.1201C19.57 15.6001 19.63 14.5101 20.4 14.0701L23.57 12.2601C24.8 11.5601 24.9 9.83009 23.76 8.99009L20.45 6.55009C20.1 6.30009 19.9 5.89009 19.9 5.46009V5.38009C19.9 5.07009 19.57 4.87009 19.3 5.03009L19.29 5.04009Z" fill="#C8ECED"/>
<path d="M11.84 8.10009L8.43999 10.0201C7.20999 10.7201 7.09999 12.4401 8.22999 13.2901L11.7 15.8801C12.41 16.4101 12.34 17.4901 11.57 17.9201L8.43999 19.6901C7.20999 20.3901 7.09999 22.1201 8.23999 22.9601L11.54 25.4201C11.88 25.6701 12.08 26.0801 12.08 26.5001V26.6001C12.08 26.9101 12.42 27.1101 12.69 26.9501L16.11 25.0001C17.34 24.3001 17.44 22.5701 16.3 21.7301L12.83 19.1801C12.12 18.6601 12.18 17.5701 12.95 17.1301L16.12 15.3201C17.35 14.6201 17.45 12.8901 16.31 12.0501L13 9.61009C12.65 9.36009 12.45 8.95009 12.45 8.52009V8.44009C12.45 8.13009 12.12 7.93009 11.85 8.09009L11.84 8.10009Z" fill="#C8ECED"/>
<defs>
<radialGradient id="paint0_radial_2353_15" cx="0" cy="0" r="1" gradientUnits="userSpaceOnUse" gradientTransform="translate(16 16) scale(16)">
<stop stop-color="#00767C"/>
<stop offset="1" stop-color="#005C5B"/>
</radialGradient>
</defs>
</svg>
