<svg width="32" height="32" viewBox="0 0 32 32" fill="none" xmlns="http://www.w3.org/2000/svg">
<g clip-path="url(#clip0_1864_1964)">
<path d="M16 0C7.16 0 0 7.16 0 16C0 24.84 7.16 32 16 32C24.84 32 32 24.84 32 16C32 7.16 24.84 0 16 0ZM16.11 25.01L12.69 26.96C12.42 27.11 12.08 26.92 12.08 26.61V26.51C12.08 26.08 11.88 25.68 11.54 25.43L8.24 22.97C7.11 22.13 7.21 20.4 8.44 19.7L11.57 17.93C12.34 17.5 12.41 16.42 11.7 15.89L8.23 13.3C7.1 12.46 7.21 10.73 8.44 10.03L11.84 8.11C12.11 7.96 12.44 8.15 12.44 8.46V8.54C12.44 8.97 12.64 9.37 12.99 9.63L16.3 12.07C17.44 12.91 17.34 14.64 16.11 15.34L12.94 17.15C12.17 17.59 12.11 18.67 12.82 19.19L16.29 21.74C17.43 22.58 17.33 24.31 16.1 25.01H16.11ZM20.29 16.13L23.76 18.68C24.9 19.52 24.8 21.25 23.57 21.95L20.15 23.9C19.88 24.05 19.54 23.86 19.54 23.55V23.45C19.54 23.02 19.34 22.62 19 22.37L15.7 19.91C14.57 19.07 14.67 17.34 15.9 16.64L19.03 14.87C19.8 14.44 19.87 13.36 19.16 12.83L15.69 10.24C14.56 9.4 14.67 7.67 15.9 6.97L19.3 5.05C19.57 4.9 19.9 5.09 19.9 5.4V5.48C19.9 5.91 20.1 6.31 20.45 6.57L23.76 9.01C24.9 9.85 24.8 11.58 23.57 12.28L20.4 14.09C19.63 14.53 19.57 15.61 20.28 16.14L20.29 16.13Z" fill="currentColor"/>
</g>
<defs>
<clipPath id="clip0_1864_1964">
<rect width="32" height="32" fill="white"/>
</clipPath>
</defs>
</svg>
