<svg width="32" height="32" viewBox="0 0 32 32" fill="none" xmlns="http://www.w3.org/2000/svg">
<g clip-path="url(#clip0_3133_10)">
<path d="M16.06 0.42C24.7 0.42 31.7 7.42 31.7 16.06C31.7 24.7 24.7 31.7 16.06 31.7C7.42 31.7 0.419998 24.7 0.419998 16.06C0.419998 7.42 7.42 0.42 16.06 0.42Z" fill="#728FE2"/>
<path d="M16.06 32.12C7.21 32.12 0 24.92 0 16.06C0 7.2 7.2 0 16.06 0C24.92 0 32.12 7.2 32.12 16.06C32.12 24.92 24.92 32.12 16.06 32.12ZM16.06 0.84C7.67 0.84 0.84 7.67 0.84 16.06C0.84 24.45 7.67 31.28 16.06 31.28C24.45 31.28 31.28 24.45 31.28 16.06C31.28 7.67 24.45 0.84 16.06 0.84Z" fill="white"/>
<path d="M21.18 16.89V21.11L19.13 23.16H16.92V25.44H15.16V23.16H12.72L10.71 21.15V19.58H12.68V20.51L13.57 21.42H15.16V16.62H12.76L10.75 14.59V10.68L12.76 8.67H15.16V6.39H16.92V8.67H19.01L21.02 10.68V12.27H19.08V11.32L18.17 10.41H16.93V14.88H19.19L21.2 16.89H21.18ZM15.16 14.88V10.41H13.63L12.72 11.32V13.97L13.63 14.88H15.16ZM19.22 17.51L18.31 16.62H16.92V21.42H18.31L19.22 20.49V17.51Z" fill="white"/>
<path d="M13.49 3.96C7.89 5.13 3.69 10.1 3.69 16.04C3.69 21.98 7.89 26.95 13.49 28.12V29C7.42 27.81 2.83 22.46 2.83 16.04C2.83 9.62 7.41 4.27 13.49 3.08V3.96ZM18.61 3.09C24.67 4.29 29.24 9.63 29.24 16.04C29.24 22.45 24.67 27.8 18.61 28.99V28.11C24.19 26.93 28.38 21.97 28.38 16.03C28.38 10.09 24.19 5.14 18.61 3.95V3.08V3.09Z" fill="white"/>
</g>
<defs>
<clipPath id="clip0_3133_10">
<rect width="32" height="32" fill="white"/>
</clipPath>
</defs>
</svg>
