<svg width="32" height="32" viewBox="0 0 32 32" fill="none" xmlns="http://www.w3.org/2000/svg">
<g clip-path="url(#clip0_3133_8)">
<path d="M19.2327 17.4836L18.3018 16.5731H16.8798V21.4836H18.3018L19.2327 20.5322V17.4836Z" fill="#213147"/>
<path d="M12.5831 11.1611V13.8619L13.5141 14.7928H15.0793V10.2302H13.5141L12.5831 11.1611Z" fill="#213147"/>
<path d="M16 0C7.16112 0 0 7.16113 0 16C0 24.8389 7.16112 32 16 32C24.8389 32 32 24.8389 32 16C32 7.16113 24.8389 0 16 0ZM13.3708 29.2378C7.16113 28.0205 2.46547 22.5473 2.46547 15.9795C2.46547 9.41177 7.1509 3.93862 13.3708 2.72123V3.61126C7.64194 4.80819 3.34527 9.89258 3.34527 15.9693C3.34527 22.046 7.64194 27.1304 13.3708 28.3274V29.2378ZM15.0793 25.5959V23.2634H12.5831L10.5269 21.2072V19.601H12.5422V20.5524L13.4527 21.4834H15.0793V16.5729H12.624L10.5678 14.4962V10.4962L12.624 8.4399H15.0793V6.10742H16.8798V8.4399H19.0179L21.0742 10.4962V12.1228H19.0895V11.1509L18.1586 10.22H16.89V14.7928H19.202L21.2583 16.8491V21.1662L19.1611 23.2634H16.9003V25.5959H15.0793ZM18.6087 29.2378V28.3376C24.3171 27.1304 28.6036 22.0563 28.6036 15.9795C28.6036 9.90281 24.3171 4.83888 18.6087 3.62148V2.72123C24.8082 3.94885 29.4834 9.41177 29.4834 15.9693C29.4834 22.5269 24.8082 28 18.6087 29.2174V29.2378Z" fill="#213147"/>
</g>
<defs>
<clipPath id="clip0_3133_8">
<rect width="32" height="32" fill="white"/>
</clipPath>
</defs>
</svg>
