<svg width="32" height="32" viewBox="0 0 32 32" fill="none" xmlns="http://www.w3.org/2000/svg">
  <path d="M16 32C24.8366 32 32 24.8366 32 16C32 7.16344 24.8366 0 16 0C7.16344 0 0 7.16344 0 16C0 24.8366 7.16344 32 16 32Z" fill="url(#paint0_linear_1310_1992)"/>
  <path d="M24.96 15.99H22.77C22.12 15.99 21.59 16.52 21.59 17.17V20.34C21.59 20.99 21.06 21.52 20.41 21.52H11.71C11.06 21.52 10.53 22.05 10.53 22.7V24.89C10.53 25.54 11.06 26.07 11.71 26.07H20.91C21.56 26.07 22.08 25.54 22.08 24.89V23.14C22.08 22.49 22.61 22.02 23.26 22.02H24.95C25.6 22.02 26.13 21.49 26.13 20.84V17.16C26.13 16.51 25.6 15.99 24.95 15.99H24.96ZM10.53 11.65C10.53 11 11.06 10.47 11.71 10.47H20.4C21.05 10.47 21.58 9.94 21.58 9.29V7.1C21.58 6.45 21.05 5.92 20.4 5.92H11.21C10.56 5.92 10.03 6.45 10.03 7.1V8.78C10.03 9.43 9.49999 9.96 8.84999 9.96H7.17C6.52 9.96 5.98999 10.49 5.98999 11.14V14.83C5.98999 15.48 6.52 15.99 7.17 15.99H9.36C10.01 15.99 10.54 15.46 10.54 14.81V11.65H10.53ZM15.03 13.7H17.13C17.81 13.7 18.37 14.26 18.37 14.94V17.04C18.37 17.72 17.81 18.28 17.13 18.28H15.03C14.35 18.28 13.79 17.72 13.79 17.04V14.94C13.79 14.26 14.35 13.7 15.03 13.7Z" fill="#121312"/>
  <defs>
    <linearGradient id="paint0_linear_1310_1992" x1="4.69" y1="27.31" x2="27.31" y2="4.69" gradientUnits="userSpaceOnUse">
      <stop stop-color="#76FA8D"/>
      <stop offset="0.13" stop-color="#76F890"/>
      <stop offset="0.29" stop-color="#75F39E"/>
      <stop offset="0.49" stop-color="#76EDB5"/>
      <stop offset="0.69" stop-color="#7AE3D8"/>
      <stop offset="0.87" stop-color="#81D9FA"/>
    </linearGradient>
  </defs>
</svg>
