<svg width="32" height="32" viewBox="0 0 32 32" fill="none" xmlns="http://www.w3.org/2000/svg">
  <path d="M16 32C24.8366 32 32 24.8366 32 16C32 7.16344 24.8366 0 16 0C7.16344 0 0 7.16344 0 16C0 24.8366 7.16344 32 16 32Z" fill="white"/>
  <path d="M14.84 6.02C14.23 6.02 13.65 6.26 13.22 6.69L6.49 13.44C6.24 13.7 6.10999 14.03 6.10999 14.37C6.10999 14.71 6.24 15.04 6.49 15.3L10.9 19.72V11.89C10.9 11.31 11.37 10.83 11.95 10.83H21.22L26.01 6.02H14.83H14.84Z" fill="#4523E5"/>
  <path d="M10.9 21.18H20.17C20.75 21.18 21.23 20.71 21.23 20.12V12.29L25.64 16.71C25.89 16.97 26.02 17.3 26.02 17.64C26.02 17.98 25.89 18.31 25.64 18.57L18.91 25.32C18.48 25.75 17.9 25.99 17.29 25.99H6.10999L10.9 21.18Z" fill="#4523E5"/>
</svg>
