<svg width="32" height="32" viewBox="0 0 32 32" fill="none" xmlns="http://www.w3.org/2000/svg">
  <path d="M16 0C7.16 0 0 7.16 0 16C0 24.84 7.16 32 16 32C24.84 32 32 24.84 32 16C32 7.16 24.84 0 16 0ZM6.49 13.44L13.22 6.69C13.65 6.26 14.23 6.02 14.84 6.02H26.02L21.23 10.83H11.96C11.38 10.83 10.91 11.3 10.91 11.89V19.72L6.5 15.3C6.25 15.04 6.12 14.71 6.12 14.37C6.12 14.03 6.25 13.7 6.5 13.44H6.49ZM25.64 18.56L18.91 25.31C18.48 25.74 17.9 25.98 17.29 25.98H6.10999L10.9 21.17H20.17C20.75 21.17 21.23 20.7 21.23 20.11V12.28L25.64 16.7C25.9 16.96 26.02 17.29 26.02 17.63C26.02 17.97 25.89 18.3 25.64 18.56Z" fill="#213147"/>
</svg>
