<svg width="32" height="32" viewBox="0 0 32 32" fill="none" xmlns="http://www.w3.org/2000/svg">
  <path d="M16 0C7.16 0 0 7.16 0 16C0 24.84 7.16 32 16 32C24.84 32 32 24.84 32 16C32 7.16 24.84 0 16 0ZM9.34999 16H7.15999C6.50999 16 5.98 15.5 5.98 14.84V11.15C5.98 10.5 6.50999 9.97 7.15999 9.97H8.84C9.49 9.97 10.02 9.44 10.02 8.79V7.11C10.02 6.46 10.55 5.93 11.2 5.93H20.39C21.04 5.93 21.57 6.46 21.57 7.11V9.3C21.57 9.95 21.04 10.48 20.39 10.48H11.7C11.05 10.48 10.52 11.01 10.52 11.66V14.82C10.52 15.47 9.99 16 9.34 16H9.34999ZM18.37 14.94V17.04C18.37 17.72 17.81 18.28 17.13 18.28H15.03C14.35 18.28 13.79 17.72 13.79 17.04V14.94C13.79 14.26 14.35 13.7 15.03 13.7H17.13C17.81 13.7 18.37 14.26 18.37 14.94ZM26.14 20.85C26.14 21.5 25.61 22.03 24.96 22.03H23.27C22.62 22.03 22.09 22.49 22.09 23.15V24.9C22.09 25.55 21.57 26.08 20.92 26.08H11.72C11.07 26.08 10.54 25.55 10.54 24.9V22.71C10.54 22.06 11.07 21.53 11.72 21.53H20.42C21.07 21.53 21.6 21 21.6 20.35V17.18C21.6 16.53 22.13 16 22.78 16H24.97C25.62 16 26.15 16.51 26.15 17.17V20.85H26.14Z" fill="#213147"/>
</svg>
