<svg width="247" height="307" viewBox="0 0 247 307" fill="none" xmlns="http://www.w3.org/2000/svg">
  <path d="M110.535 0C103.879 -6.17484e-07 97.4969 2.65024 92.7911 7.36767L18.8715 81.4695C16.0717 84.2762 14.6719 87.9548 14.6719 91.6333C14.6719 95.3119 16.0718 98.9905 18.8715 101.797L67.3134 150.358V64.388C67.3134 57.9722 72.461 52.7712 78.8611 52.7712C105.9 52.7712 171.718 52.7712 180.695 52.7712L233.337 0.000747875L110.535 0Z" fill="#4A21EF"/>
  <path d="M67.3153 166.43H169.109C175.509 166.43 180.697 161.229 180.697 154.814V68.8437L229.139 117.404C231.939 120.211 233.339 123.89 233.339 127.568C233.339 131.247 231.939 134.925 229.139 137.732L155.219 211.834C150.513 216.551 144.131 219.202 137.476 219.202L14.6739 219.201L67.3153 166.43Z" fill="#4A21EF"/>
  <path d="M21.5984 307C15.3525 307 8.46722 304.88 0.942622 300.639V291.468C8.0246 296.251 14.9344 298.642 21.6722 298.642C24.7705 298.642 27.2295 298.075 29.0492 296.941C30.9181 295.758 31.8525 294.13 31.8525 292.059C31.8525 290.186 30.9918 288.706 29.2705 287.622C27.5492 286.487 24.8935 285.477 21.3033 284.589C14.8607 282.913 10.4836 281.483 8.17214 280.299C3.05738 277.686 0.5 273.766 0.5 268.539C0.5 264.052 2.39344 260.502 6.18033 257.888C9.96722 255.275 14.6394 253.968 20.1967 253.968C26.9836 253.968 33.1066 255.941 38.5656 259.885V269.057C32.3197 264.52 26.1968 262.252 20.1967 262.252C17.0492 262.252 14.4426 262.844 12.3771 264.027C10.3115 265.211 9.2787 266.863 9.2787 268.983C9.2787 270.265 9.86887 271.374 11.0492 272.311C12.2295 273.199 13.5082 273.889 14.8853 274.382C16.3115 274.826 18.4263 275.393 21.2295 276.083C24.1804 276.823 26.6148 277.538 28.5328 278.228C30.5 278.919 32.4918 279.88 34.5082 281.113C36.5246 282.296 38.0246 283.8 39.0082 285.625C40.041 287.449 40.5574 289.619 40.5574 292.133C40.5574 296.818 38.7623 300.466 35.1722 303.08C31.6312 305.693 27.1066 307 21.5984 307Z" fill="#070C27"/>
  <path d="M58.3189 307C56.5975 307 54.9254 306.803 53.3025 306.408C51.7287 306.014 50.2041 305.397 48.7287 304.559C47.2533 303.672 46.0484 302.414 45.1139 300.787C44.1795 299.111 43.7123 297.163 43.7123 294.944C43.6631 290.95 45.0402 287.917 47.8434 285.846C50.6467 283.726 54.6549 282.666 59.868 282.666H71.7451V280.299C71.7451 278.13 70.8599 276.502 69.0894 275.418C67.3189 274.283 65.032 273.716 62.2287 273.716C56.868 273.716 53.7451 275.492 52.8598 279.042L44.7451 279.19C44.8434 275.294 46.5401 272.213 49.8352 269.944C53.1795 267.676 57.2615 266.542 62.0812 266.542C66.95 266.542 71.1058 267.725 74.5484 270.092C78.0402 272.459 79.7861 275.516 79.7861 279.264V306.408H71.7451V300.491C70.6139 302.069 68.8926 303.548 66.5812 304.929C64.3189 306.31 61.5648 307 58.3189 307ZM58.9828 299.973C62.2287 299.973 65.1549 298.864 67.7615 296.645C70.4172 294.426 71.7451 291.813 71.7451 288.805H61.3435C58.1467 288.805 55.7615 289.421 54.1877 290.654C52.6631 291.837 51.9992 293.341 52.1959 295.166C52.3434 296.842 53.0812 298.075 54.409 298.864C55.7369 299.604 57.2615 299.973 58.9828 299.973Z" fill="#070C27"/>
  <path d="M86.2756 306.408L86.128 274.53V265.876C86.128 261.192 88.0461 257.666 91.8821 255.3C95.7182 252.933 100.784 252.538 107.079 254.116L107.005 260.625C102.923 259.54 99.8248 259.54 97.71 260.625C95.6444 261.66 94.6116 263.436 94.6116 265.95V267.208H106.71V274.53H94.6116L94.6854 306.408H86.2756Z" fill="#070C27"/>
  <path d="M129.014 307C123.408 307 118.662 305.028 114.777 301.083C110.891 297.089 108.949 292.306 108.949 286.734C108.949 281.113 110.916 276.354 114.85 272.459C118.785 268.514 123.506 266.542 129.014 266.542C133.883 266.542 138.162 268.145 141.85 271.35C145.588 274.505 147.875 278.475 148.711 283.258C149.203 285.575 149.227 287.794 148.785 289.914H117.359C117.85 292.824 119.178 295.141 121.342 296.867C123.506 298.543 126.063 299.382 129.014 299.382C133.539 299.382 137.154 297.779 139.859 294.574H147.469C147.469 294.574 146.589 299.756 139.859 304.189C136.416 306.063 132.801 307 129.014 307ZM117.359 283.332H140.449C139.957 280.718 138.654 278.524 136.539 276.749C134.473 274.974 131.941 274.086 128.941 274.086C125.941 274.086 123.383 274.998 121.268 276.823C119.154 278.598 117.85 280.768 117.359 283.332Z" fill="#070C27"/>
  <path d="M210.389 307C208.668 307 206.996 306.803 205.373 306.408C203.799 306.014 202.275 305.397 200.799 304.559C199.324 303.672 198.119 302.414 197.184 300.787C196.25 299.111 195.783 297.163 195.783 294.944C195.734 290.95 197.111 287.917 199.914 285.846C202.717 283.726 206.725 282.666 211.939 282.666H223.816V280.299C223.816 278.13 222.93 276.502 221.16 275.418C219.389 274.283 217.102 273.716 214.299 273.716C208.939 273.716 205.816 275.492 204.93 279.042L196.816 279.19C196.914 275.294 198.611 272.213 201.906 269.944C205.25 267.676 209.332 266.542 214.152 266.542C219.021 266.542 223.176 267.725 226.619 270.092C230.111 272.459 231.857 275.516 231.857 279.264V306.408H223.816V300.491C222.684 302.069 220.963 303.548 218.652 304.929C216.389 306.31 213.635 307 210.389 307ZM211.053 299.973C214.299 299.973 217.225 298.864 219.832 296.645C222.488 294.426 223.816 291.813 223.816 288.805H213.414C210.217 288.805 207.832 289.421 206.258 290.654C204.734 291.837 204.07 293.341 204.266 295.166C204.414 296.842 205.152 298.075 206.479 298.864C207.807 299.604 209.332 299.973 211.053 299.973Z" fill="#070C27"/>
  <path d="M238.016 306.408V255.3H246.5V306.408H238.016Z" fill="#070C27"/>
  <path fill-rule="evenodd" clip-rule="evenodd" d="M153.715 255.3H176.141C181.109 255.3 185.24 257.001 188.535 260.403C191.83 263.756 193.477 267.824 193.477 272.607C193.477 277.439 191.83 281.507 188.535 284.811C185.289 288.065 181.158 289.717 176.141 289.766L162.494 289.84V306.408H153.715V255.3ZM175.551 281.852L162.494 281.926V263.288L175.551 263.214C178.453 263.214 180.74 264.077 182.412 265.802C184.133 267.528 184.994 269.698 184.994 272.311C184.994 274.974 184.133 277.242 182.412 279.116C180.691 280.94 178.404 281.852 175.551 281.852Z" fill="#070C27"/>
</svg>
