<svg width="32" height="32" viewBox="0 0 32 32" fill="none" xmlns="http://www.w3.org/2000/svg">
<g clip-path="url(#clip0_297_96)">
<path d="M16 0C7.16 0 0 7.16 0 16C0 24.84 7.16 32 16 32C24.84 32 32 24.84 32 16C32 7.16 24.84 0 16 0ZM19.61 22.7C19.61 22.76 19.6 22.81 19.6 22.87V22.9C19.6 22.9 19.6 23 19.58 23.04C19.58 23.05 19.58 23.07 19.58 23.08C19.58 23.13 19.57 23.19 19.56 23.24V23.28C19.56 23.28 19.54 23.37 19.53 23.41V23.45C19.53 23.45 19.5 23.55 19.49 23.59C19.49 23.6 19.49 23.61 19.49 23.63C19.48 23.67 19.47 23.71 19.46 23.75V23.78C19.46 23.78 19.42 23.87 19.41 23.91V23.95C19.41 23.95 19.37 24.03 19.35 24.07V24.09C19.35 24.09 19.31 24.17 19.29 24.22V24.25H19.15C18.91 24.25 18.67 24.21 18.45 24.11C18.36 24.07 18.28 24.02 18.2 23.95C18.06 23.83 17.96 23.66 17.93 23.48C17.92 23.43 17.91 23.39 17.91 23.34C17.91 23.28 17.91 23.21 17.91 23.15C17.93 23.01 17.97 22.87 18.02 22.73C18.05 22.65 18.09 22.58 18.13 22.51L19.28 20.53L19.3 20.58C19.33 20.66 19.35 20.74 19.37 20.81V20.85C19.4 20.92 19.42 20.98 19.44 21.05C19.44 21.07 19.44 21.08 19.45 21.1C19.47 21.17 19.49 21.24 19.5 21.31C19.5 21.33 19.5 21.34 19.5 21.36C19.51 21.42 19.52 21.48 19.54 21.55V21.59C19.56 21.66 19.57 21.73 19.58 21.79C19.58 21.81 19.58 21.82 19.58 21.84C19.58 21.9 19.59 21.96 19.6 22.02V22.05C19.6 22.11 19.6 22.18 19.6 22.24V22.71L19.61 22.7ZM19.86 11.14C19.86 11.23 19.84 11.31 19.82 11.4C19.79 11.57 19.74 11.74 19.68 11.9C19.65 11.98 19.62 12.06 19.58 12.14C19.57 12.17 19.56 12.19 19.55 12.22L18.8 13.5C18.71 13.42 18.61 13.35 18.52 13.28C15.78 11.17 17.66 8.15 17.66 8.15C14.58 8.85 13.66 12.4 15.26 15.02C15.96 15.98 16.21 17.2 15.92 18.36C15.88 18.52 15.82 18.67 15.74 18.81L15.68 18.91C15.6 19.05 15.5 19.18 15.38 19.29C14.94 19.7 14.34 19.9 13.74 19.82C11.59 19.67 11.89 16.37 11.89 16.37C11.89 16.37 9.83 19.85 11.23 22.72C11.45 23.17 11.72 23.59 12.05 23.97C12 23.99 11.95 24.01 11.9 24.03L11.85 24.05L11.74 24.09L11.68 24.11C11.68 24.11 11.58 24.14 11.54 24.15H11.52C11.46 24.16 11.41 24.17 11.36 24.18H11.31L11.19 24.21H11.14C11.08 24.23 11.03 24.23 10.97 24.23H5.77C5.68 24.23 5.58001 24.21 5.49001 24.19C5.33001 24.16 5.18 24.09 5.05 24.01C5.02 23.99 4.99 23.97 4.97 23.95C4.95 23.93 4.93 23.91 4.91 23.89C4.85 23.83 4.79999 23.76 4.75999 23.68C4.75999 23.66 4.74 23.64 4.73 23.62C4.71 23.58 4.7 23.53 4.69 23.49C4.69 23.44 4.67 23.4 4.67 23.35V23.27C4.67 23.22 4.67001 23.17 4.68001 23.11C4.72001 22.9 4.78999 22.69 4.89999 22.51L14.97 4.78C15 4.72 15.04 4.66 15.08 4.61C15.15 4.51 15.23 4.42 15.31 4.34C15.39 4.27 15.47 4.21 15.56 4.16C15.81 4.03 16.11 4.03 16.36 4.16C16.4 4.18 16.45 4.21 16.49 4.24C16.58 4.31 16.66 4.38 16.73 4.47C16.81 4.57 16.89 4.67 16.95 4.78L17.72 6.16L19.53 9.35C19.53 9.35 19.55 9.4 19.56 9.43C19.6 9.52 19.64 9.61 19.67 9.7C19.7 9.79 19.73 9.89 19.75 9.98C19.77 10.04 19.78 10.1 19.79 10.17C19.81 10.26 19.82 10.34 19.83 10.43C19.86 10.68 19.86 10.92 19.83 11.17L19.86 11.14ZM27.31 23.46C27.29 23.55 27.26 23.64 27.21 23.72C27.16 23.8 27.1 23.87 27.03 23.93C26.97 23.98 26.91 24.02 26.85 24.06L26.78 24.1C26.56 24.2 26.32 24.24 26.08 24.24H20.49L20.52 24.21L20.64 24.1L20.72 24.03L20.84 23.92L20.92 23.85C20.92 23.85 21 23.77 21.04 23.73L21.1 23.67C21.15 23.62 21.2 23.56 21.25 23.5L21.28 23.47C21.34 23.4 21.4 23.33 21.46 23.26L21.51 23.2C21.55 23.15 21.59 23.1 21.63 23.04C21.65 23.01 21.67 22.98 21.69 22.96C21.72 22.91 21.76 22.86 21.79 22.82C21.81 22.79 21.83 22.76 21.85 22.72C21.88 22.67 21.92 22.61 21.94 22.57C21.96 22.53 21.98 22.5 22 22.46C22.03 22.41 22.05 22.36 22.08 22.31C22.1 22.27 22.12 22.24 22.13 22.2C22.16 22.15 22.18 22.09 22.21 22.04C22.23 22 22.24 21.97 22.25 21.93C22.27 21.87 22.3 21.81 22.32 21.75C22.33 21.72 22.34 21.69 22.35 21.66C22.38 21.57 22.41 21.47 22.44 21.37C22.81 19.72 22.48 17.99 21.54 16.59L21.64 16.43C21.73 16.27 21.85 16.12 21.98 15.99C22.07 15.91 22.17 15.84 22.27 15.79C22.33 15.76 22.4 15.74 22.47 15.72C22.54 15.71 22.61 15.7 22.67 15.71C22.72 15.71 22.76 15.71 22.81 15.73C22.92 15.75 23.02 15.8 23.11 15.86C23.14 15.88 23.16 15.89 23.19 15.91C23.23 15.94 23.27 15.97 23.31 16.01C23.39 16.09 23.47 16.18 23.53 16.27C23.57 16.32 23.6 16.37 23.64 16.43L27.09 22.49C27.15 22.58 27.19 22.68 27.23 22.79C27.24 22.82 27.25 22.85 27.26 22.89C27.28 22.95 27.29 23.01 27.3 23.07C27.3 23.13 27.31 23.2 27.3 23.26C27.3 23.33 27.3 23.4 27.28 23.47L27.31 23.46Z" fill="#213147"/>
</g>
<defs>
<clipPath id="clip0_297_96">
<rect width="32" height="32" fill="white"/>
</clipPath>
</defs>
</svg>
