<svg width="32" height="32" viewBox="0 0 32 32" fill="none" xmlns="http://www.w3.org/2000/svg">
<path d="M4.4096 11.8963C3.25248 10.8186 2.44096 9.42463 2.44096 7.77343V7.59743C2.53696 4.77503 4.89856 2.50303 7.77344 2.42047H26.0736C26.5504 2.44415 26.9325 2.77247 26.9325 3.25247V18.455C27.3498 18.5254 27.5526 18.5843 27.9578 18.7245C28.2803 18.8416 28.7213 19.088 28.7213 19.088V3.25247C28.71 2.55602 28.4243 1.89217 27.9262 1.40525C27.4281 0.918319 26.758 0.647677 26.0614 0.652153H7.76192C3.81248 0.710393 0.639999 3.88415 0.639999 7.77343C0.639999 10.0339 1.6896 11.9661 3.40736 13.3248C3.52704 13.4189 3.63392 13.536 3.94432 13.536C4.48128 13.536 4.86272 13.1142 4.83904 12.6573C4.82688 12.2707 4.65984 12.1312 4.4096 11.8963Z" fill="#213147"/>
<path d="M25.5974 19.4502H11.2467C10.2803 19.4624 9.50528 20.2234 9.50528 21.1718V23.1987C9.52896 24.1357 10.3405 24.9318 11.3062 24.9318H12.3686V23.1987H11.3062V21.2192H11.8912C13.7043 21.2192 15.04 22.8704 15.04 24.6394C15.04 26.2086 13.5853 28.2118 11.1514 28.0474C8.99264 27.9066 7.82336 26.0211 7.82336 24.6394V7.46815C7.82336 6.69567 7.17888 6.06271 6.39168 6.06271H4.96V7.82015H6.0224V24.6509C5.96224 28.071 8.50304 29.7926 11.1514 29.7926L25.609 29.8394C28.5203 29.8394 30.8826 27.5206 30.8826 24.6509C30.8826 21.7811 28.5082 19.4502 25.5974 19.4502ZM29.081 24.7558C29.0214 26.5952 27.4822 28.071 25.5974 28.071L15.5411 28.0358C16.3411 27.1226 16.8294 25.9392 16.8294 24.6509C16.8294 22.6246 15.6006 21.2307 15.6006 21.2307H25.6096C27.5296 21.2307 29.0925 22.7654 29.0925 24.6509L29.081 24.7558ZM21.7299 8.13631H10.9101V6.37951H21.7299C22.2189 6.37951 22.6246 6.76607 22.6246 7.25823C22.6246 7.73823 22.231 8.13631 21.7299 8.13631Z" fill="#213147"/>
<path d="M21.7299 16.4051H10.9101V14.6483H21.7299C22.2189 14.6483 22.6246 15.0349 22.6246 15.5264C22.6246 16.0064 22.231 16.4051 21.7299 16.4051ZM23.6384 12.2707H10.9101V10.5139H23.6269C24.1158 10.5139 24.5216 10.9005 24.5216 11.392C24.5331 11.872 24.1274 12.2707 23.6384 12.2707Z" fill="#213147"/>
</svg>
