<svg width="32" height="32" viewBox="0 0 32 32" fill="none" xmlns="http://www.w3.org/2000/svg">
<g clip-path="url(#clip0_298_275)">
<path d="M32 16C32 7.16 24.84 0 16 0C7.16 0 0 7.16 0 16C0 24.84 7.16 32 16 32C24.84 32 32 24.84 32 16Z" fill="white"/>
<path d="M16.48 26.28V24.53L20.81 21.9799V16.77L22.38 15.95L22.43 22.8799L16.48 26.28Z" fill="#2C2C2E"/>
<path d="M17.73 13.48L19.51 12.47L23.89 15.23L23.92 23.57L22.43 22.88L22.38 15.95L17.73 13.48ZM16.4 3.92002L23.86 8.20002V9.98002L16.4 5.78002V3.92002ZM8.99002 16.99L8.96002 8.28002L16.4 3.90002V5.76002L10.35 9.21002V16.01L9.00002 16.99H8.99002Z" fill="#2C2C2E"/>
<path d="M13.38 19.43L8.99999 16.99L10.35 15.98L17.87 20.31L13.38 22.86L11.89 23.71L16.48 26.31L22.43 22.88L23.92 23.57L16.43 28.03L8.98999 23.78L14.91 20.27L13.37 19.42L13.38 19.43ZM10.35 9.21003L16.4 5.78003L23.86 9.98003L19.5 12.48L17.72 13.49L22.34 15.96L20.8 16.78L14.85 13.41L20.77 9.90003L19.36 9.08003L16.41 7.38003L12 9.93003L10.33 9.21003H10.35Z" fill="#2C2C2E"/>
<path d="M11.89 23.71L13.38 22.86L16.46 24.56V26.31L11.89 23.71ZM9.02002 23.79V21.93L13.38 19.43L14.95 20.28L9.03002 23.79H9.02002ZM14.86 13.4L14.89 11.62L19.38 9.09998L20.79 9.91998L14.87 13.4H14.86ZM10.35 16L10.38 9.19998L12.03 9.93997L12.06 15.28L17.88 18.52V20.35L10.36 15.99L10.35 16Z" fill="#2C2C2E"/>
<path fill-rule="evenodd" clip-rule="evenodd" d="M22.42 15.8799C22.42 15.8799 22.46 15.9199 22.46 15.9499L22.51 22.8799C22.51 22.8799 22.49 22.9399 22.47 22.9499L16.52 26.3499C16.52 26.3499 16.43 26.3499 16.41 26.3199C16.41 26.3099 16.4 26.2899 16.4 26.2799V24.5299C16.4 24.5299 16.41 24.4799 16.44 24.4599L20.73 21.9299V16.7699C20.73 16.7699 20.75 16.7099 20.77 16.6999L22.34 15.8799C22.34 15.8799 22.39 15.8699 22.42 15.8799ZM20.89 16.8199V21.9799C20.89 21.9799 20.88 22.0299 20.85 22.0499L16.56 24.5799V26.1499L22.35 22.8399L22.3 16.0899L20.89 16.8299V16.8199Z" fill="white"/>
<path fill-rule="evenodd" clip-rule="evenodd" d="M19.47 12.4C19.47 12.4 19.53 12.39 19.55 12.4L23.93 15.16C23.93 15.16 23.97 15.2 23.97 15.23L24 23.57C24 23.57 23.96 23.65 23.92 23.65C23.91 23.65 23.9 23.65 23.89 23.65L22.4 22.96C22.4 22.96 22.35 22.92 22.35 22.89L22.3 16.01L17.69 13.56C17.69 13.56 17.64 13.49 17.66 13.45C17.66 13.44 17.68 13.43 17.69 13.42L19.47 12.41V12.4ZM17.9 13.48L22.42 15.88C22.42 15.88 22.46 15.92 22.46 15.95L22.51 22.83L23.84 23.45L23.81 15.28L19.51 12.57L17.9 13.48ZM16.36 3.85003C16.36 3.85003 16.41 3.84003 16.44 3.85003L23.9 8.13003C23.9 8.13003 23.94 8.17003 23.94 8.20003V9.98003C23.94 9.98003 23.9 10.06 23.86 10.06C23.85 10.06 23.83 10.06 23.82 10.05L16.36 5.85003C16.36 5.85003 16.32 5.81003 16.32 5.78003V3.92003C16.32 3.92003 16.34 3.87003 16.36 3.85003ZM16.48 4.06003V5.73003L23.78 9.84003V8.24003L16.48 4.06003Z" fill="white"/>
<path fill-rule="evenodd" clip-rule="evenodd" d="M16.44 3.83C16.44 3.83 16.48 3.87 16.48 3.9V5.76C16.48 5.76 16.46 5.82 16.44 5.83L10.43 9.26V16.01C10.43 16.01 10.42 16.06 10.4 16.07L9.05001 17.05C9.05001 17.05 8.96001 17.07 8.94001 17.03C8.94001 17.02 8.92001 17 8.92001 16.98L8.89001 8.27C8.89001 8.27 8.90001 8.22 8.93001 8.2L16.37 3.82C16.37 3.82 16.43 3.81 16.45 3.82L16.44 3.83ZM9.05001 8.32L9.08001 16.83L10.28 15.96V9.2C10.28 9.2 10.3 9.14 10.32 9.13L16.33 5.7V4.03L9.05001 8.32Z" fill="white"/>
<path fill-rule="evenodd" clip-rule="evenodd" d="M10.3 15.91C10.3 15.91 10.36 15.89 10.39 15.91L17.91 20.24C17.91 20.24 17.96 20.31 17.94 20.35C17.94 20.36 17.92 20.37 17.91 20.38L13.42 22.93L12.05 23.71L16.48 26.22L22.39 22.82C22.39 22.82 22.44 22.81 22.46 22.82L23.95 23.51C23.95 23.51 24.01 23.58 23.99 23.62C23.99 23.63 23.97 23.65 23.96 23.65L16.47 28.11C16.47 28.11 16.41 28.13 16.39 28.11L8.95003 23.86C8.95003 23.86 8.90003 23.79 8.92003 23.75C8.92003 23.74 8.94003 23.73 8.95003 23.72L14.75 20.29L13.33 19.51L8.95003 17.07C8.91003 17.05 8.90003 17 8.92003 16.96C8.92003 16.95 8.93003 16.94 8.94003 16.93L10.29 15.92L10.3 15.91ZM10.35 16.07L9.14003 16.97L13.41 19.35L14.95 20.2C14.99 20.22 15 20.27 14.98 20.31C14.98 20.32 14.96 20.33 14.95 20.34L9.15003 23.78L16.43 27.94L23.75 23.58L22.44 22.97L16.53 26.38C16.53 26.38 16.48 26.39 16.45 26.38L11.86 23.78C11.86 23.78 11.81 23.71 11.83 23.67C11.83 23.66 11.85 23.65 11.86 23.64L13.35 22.79L17.72 20.31L10.37 16.08L10.35 16.07ZM16.36 5.71001C16.36 5.71001 16.41 5.70001 16.44 5.71001L23.9 9.91001C23.9 9.91001 23.95 9.98001 23.93 10.02C23.93 10.03 23.91 10.04 23.9 10.05L19.54 12.55L17.89 13.49L22.38 15.89C22.38 15.89 22.43 15.96 22.41 16C22.41 16.01 22.39 16.03 22.38 16.03L20.84 16.85C20.84 16.85 20.79 16.86 20.76 16.85L14.81 13.48C14.81 13.48 14.76 13.41 14.78 13.37C14.78 13.36 14.8 13.35 14.81 13.34L20.62 9.90001L19.33 9.15001L16.42 7.47001L12.05 10C12.05 10 12 10.01 11.98 10L10.31 9.28001C10.31 9.28001 10.25 9.22001 10.27 9.18001C10.27 9.16001 10.29 9.15001 10.3 9.14001L16.35 5.71001H16.36ZM16.4 5.87001L10.52 9.19001L12.01 9.83001L16.38 7.30001C16.38 7.30001 16.44 7.29001 16.46 7.30001L19.41 9.00001L20.82 9.82001C20.82 9.82001 20.87 9.89001 20.85 9.93001C20.85 9.94001 20.83 9.95001 20.82 9.96001L15.02 13.4L20.81 16.68L22.18 15.95L17.69 13.55C17.69 13.55 17.64 13.48 17.66 13.44C17.66 13.43 17.68 13.42 17.69 13.41L19.47 12.4L23.7 9.97001L16.4 5.87001Z" fill="white"/>
<path fill-rule="evenodd" clip-rule="evenodd" d="M13.34 22.79C13.34 22.79 13.39 22.78 13.42 22.79L16.5 24.49C16.5 24.49 16.54 24.53 16.54 24.56V26.31C16.54 26.31 16.5 26.39 16.46 26.39C16.45 26.39 16.43 26.39 16.42 26.38L11.85 23.78C11.85 23.78 11.8 23.71 11.82 23.67C11.82 23.66 11.84 23.65 11.85 23.64L13.34 22.79ZM13.38 22.95L12.05 23.71L16.38 26.18V24.61L13.38 22.95ZM13.34 19.36C13.34 19.36 13.39 19.35 13.42 19.36L14.99 20.21C14.99 20.21 15.04 20.28 15.02 20.32C15.02 20.33 15 20.34 14.99 20.35L9.07001 23.86C9.07001 23.86 8.98001 23.86 8.96001 23.83C8.96001 23.82 8.95001 23.8 8.95001 23.79V21.93C8.95001 21.93 8.97001 21.87 8.99001 21.86L13.35 19.36H13.34ZM13.38 19.52L9.10001 21.97V23.64L14.78 20.28L13.38 19.52ZM19.34 9.02996C19.34 9.02996 19.4 9.01996 19.42 9.02996L20.83 9.84996C20.83 9.84996 20.88 9.91996 20.86 9.95996C20.86 9.96996 20.84 9.97996 20.83 9.98996L14.91 13.47C14.91 13.47 14.82 13.48 14.8 13.44C14.8 13.43 14.79 13.41 14.79 13.4L14.82 11.62C14.82 11.62 14.84 11.57 14.86 11.55L19.35 9.02996H19.34ZM14.97 11.67L14.95 13.26L20.63 9.91996L19.38 9.18996L14.97 11.67ZM10.33 9.13996C10.33 9.13996 10.38 9.11996 10.41 9.13996L12.06 9.87996C12.06 9.87996 12.11 9.91996 12.11 9.94996L12.14 15.24L17.92 18.46C17.92 18.46 17.96 18.5 17.96 18.53V20.36C17.96 20.36 17.92 20.44 17.88 20.44C17.87 20.44 17.85 20.44 17.84 20.43L10.32 16.07C10.32 16.07 10.28 16.03 10.28 16L10.31 9.19996C10.31 9.19996 10.32 9.14996 10.35 9.12996L10.33 9.13996ZM10.45 9.32996L10.42 15.96L17.78 20.22V18.57L12.01 15.35C12.01 15.35 11.97 15.31 11.97 15.28L11.94 9.98996L10.45 9.31996V9.32996Z" fill="white"/>
</g>
<defs>
<clipPath id="clip0_298_275">
<rect width="32" height="32" fill="white"/>
</clipPath>
</defs>
</svg>
