<svg width="32" height="32" viewBox="0 0 32 32" fill="none" xmlns="http://www.w3.org/2000/svg">
  <path d="M16 0C7.16 0 0 7.16 0 16C0 24.84 7.16 32 16 32C24.84 32 32 24.84 32 16C32 7.16 24.84 0 16 0ZM23.47 25.15H8.52C6.39 25.15 4.67 23.42 4.67 21.29V10.84C4.67 8.71 6.39 6.98 8.52 6.98H23.47C25.6 6.98 27.32 8.71 27.32 10.84V21.29C27.32 23.42 25.6 25.15 23.47 25.15Z" fill="#213147"/>
  <path d="M10.33 11.52C10.33 10.89 9.82 10.38 9.2 10.38C8.57 10.38 8.07 10.89 8.07 11.52C8.07 12.15 8.58 12.65 9.2 12.66C9.83 12.66 10.33 12.15 10.33 11.52Z" fill="url(#paint0_linear_1204_2498)"/>
  <path d="M10.33 11.52C10.33 10.89 9.82 10.38 9.2 10.38C8.57 10.38 8.07 10.89 8.07 11.52C8.07 12.15 8.58 12.65 9.2 12.66C9.83 12.66 10.33 12.15 10.33 11.52Z" fill="url(#paint1_linear_1204_2498)"/>
  <path d="M10.33 11.52C10.33 10.89 9.82 10.38 9.2 10.38C8.57 10.38 8.07 10.89 8.07 11.52C8.07 12.15 8.58 12.65 9.2 12.66C9.83 12.66 10.33 12.15 10.33 11.52Z" fill="#213147"/>
  <path d="M10.33 20.6C10.33 19.97 9.82 19.46 9.2 19.46C8.57 19.46 8.07 19.97 8.07 20.6C8.07 21.23 8.58 21.73 9.2 21.74C9.83 21.74 10.33 21.23 10.33 20.6Z" fill="#213147"/>
  <path d="M23.93 16.06C23.93 15.43 23.42 14.92 22.8 14.92C22.17 14.92 21.67 15.43 21.67 16.06C21.67 16.69 22.18 17.19 22.8 17.2C23.43 17.2 23.93 16.69 23.93 16.06Z" fill="#213147"/>
  <path d="M23.93 16.06C23.93 15.43 23.42 14.92 22.8 14.92C22.17 14.92 21.67 15.43 21.67 16.06C21.67 16.69 22.18 17.19 22.8 17.2C23.43 17.2 23.93 16.69 23.93 16.06Z" fill="#213147"/>
  <path d="M22.79 10.38H13.73C13.1 10.38 12.6 10.89 12.6 11.52C12.6 12.15 13.11 12.65 13.73 12.66H22.79C23.42 12.66 23.92 12.15 23.92 11.52C23.92 10.89 23.41 10.38 22.79 10.38Z" fill="#213147"/>
  <path d="M22.79 19.46H13.73C13.1 19.46 12.6 19.97 12.6 20.6C12.6 21.23 13.11 21.73 13.73 21.74H22.79C23.42 21.74 23.92 21.23 23.92 20.6C23.92 19.97 23.41 19.46 22.79 19.46Z" fill="#213147"/>
  <path d="M18.26 14.93H9.2C8.57 14.93 8.07 15.44 8.07 16.07C8.07 16.7 8.58 17.2 9.2 17.21H18.26C18.89 17.21 19.39 16.7 19.39 16.07C19.39 15.44 18.88 14.93 18.26 14.93Z" fill="#213147"/>
  <defs>
    <linearGradient id="paint0_linear_1204_2498" x1="4.38938" y1="31.2982" x2="26.09" y2="2.20225" gradientUnits="userSpaceOnUse">
      <stop stop-color="#4A61F4"/>
      <stop offset="1" stop-color="#7A6AF1"/>
    </linearGradient>
    <linearGradient id="paint1_linear_1204_2498" x1="1.9823" y1="16.7018" x2="29.0252" y2="15.2734" gradientUnits="userSpaceOnUse">
      <stop stop-color="#3E56F3"/>
      <stop offset="1" stop-color="#6E7FF1"/>
    </linearGradient>
  </defs>
</svg>
