<svg width="33" height="33" viewBox="0 0 33 33" fill="none" xmlns="http://www.w3.org/2000/svg">
<path d="M30.76 10.5199C29.95 8.59991 28.8 6.86991 27.33 5.38991C25.86 3.90991 24.15 2.73991 22.24 1.92991C20.27 1.08991 18.17 0.659912 16.01 0.659912C13.85 0.659912 11.76 1.08991 9.78001 1.92991C7.87001 2.73991 6.16 3.90991 4.69 5.38991C3.22 6.86991 2.07001 8.59991 1.26001 10.5199C0.43001 12.5099 0 14.6299 0 16.8099C0 18.9899 0.42001 21.0999 1.26001 23.0999C2.07001 25.0199 3.22 26.7499 4.69 28.2299C6.16 29.7099 7.87001 30.8799 9.78001 31.6899C11.75 32.5299 13.85 32.9599 16.01 32.9599C18.17 32.9599 20.26 32.5299 22.24 31.6899C24.15 30.8799 25.86 29.7099 27.33 28.2299C28.8 26.7499 29.95 25.0199 30.76 23.0999C31.59 21.1099 32.02 18.9899 32.02 16.8099C32.02 14.6299 31.6 12.5199 30.76 10.5199ZM9.13 7.75991L12.08 10.7399L15.67 4.82991V10.7199C13.65 10.8999 12.05 12.5899 12 14.6699L8.89001 15.9699L10.51 13.3099L7.07001 9.83991L9.13 7.75991ZM15.67 28.5899L12.89 24.6399L9.99001 27.5699L7.93001 25.4899L11.18 22.2099L8.91 18.9799L15.67 23.1099V28.5799V28.5899ZM15.67 20.9699L8.84001 16.7899L12.06 15.4399C12.36 17.2499 13.84 18.6499 15.67 18.8199V20.9699ZM14.23 15.6999H15.2C15.2 16.2399 15.73 16.3199 16.05 16.3199C16.59 16.3199 16.88 16.0599 16.88 15.8599C16.88 15.7199 16.88 15.5499 15.88 15.2399C15.03 14.9799 14.2 14.6399 14.2 13.6899C14.2 12.9999 14.83 12.2599 15.99 12.2599C17.08 12.2599 17.81 12.8999 17.81 13.8599H16.84C16.84 13.3199 16.3 13.2399 15.99 13.2399C15.45 13.2399 15.16 13.4999 15.16 13.6999C15.16 13.8399 15.16 14.0099 16.16 14.3199C17.01 14.5799 17.84 14.9199 17.84 15.8699C17.84 16.5599 17.21 17.2999 16.05 17.2999C14.96 17.2999 14.23 16.6599 14.23 15.6999ZM20.01 15.4399L23.23 16.7899L16.4 20.9699V18.8199C18.23 18.6499 19.72 17.2499 20.01 15.4399ZM22.08 27.5699L19.18 24.6399L16.4 28.5899V23.1199L23.16 18.9899L20.89 22.2199L24.14 25.4999L22.08 27.5799V27.5699ZM21.55 13.3099L23.17 15.9699L20.06 14.6699C20.01 12.5899 18.42 10.8999 16.39 10.7199V4.82991L19.98 10.7399L22.93 7.75991L24.99 9.83991L21.55 13.3099Z" fill="#213147"/>
</svg>
