<svg width="33" height="33" viewBox="0 0 33 33" fill="none" xmlns="http://www.w3.org/2000/svg">
<path d="M16.01 32.68C13.85 32.68 11.76 32.26 9.78 31.42C7.87 30.61 6.16 29.46 4.69 27.99C3.22 26.52 2.06999 24.81 1.25999 22.9C0.429995 20.93 0 18.83 0 16.67C0 14.51 0.419995 12.42 1.25999 10.44C2.06999 8.52997 3.22 6.81997 4.69 5.34997C6.16 3.87997 7.87 2.72997 9.78 1.91997C11.75 1.08997 13.85 0.659973 16.01 0.659973C18.17 0.659973 20.26 1.07997 22.24 1.91997C24.15 2.72997 25.86 3.87997 27.33 5.34997C28.8 6.81997 29.95 8.52997 30.76 10.44C31.59 12.41 32.02 14.51 32.02 16.67C32.02 18.83 31.6 20.92 30.76 22.9C29.95 24.81 28.8 26.52 27.33 27.99C25.86 29.46 24.15 30.61 22.24 31.42C20.27 32.26 18.17 32.68 16.01 32.68Z" fill="white"/>
<path d="M16.01 31.83C24.3771 31.83 31.16 25.0471 31.16 16.68C31.16 8.31285 24.3771 1.52997 16.01 1.52997C7.64288 1.52997 0.860001 8.31285 0.860001 16.68C0.860001 25.0471 7.64288 31.83 16.01 31.83Z" fill="black"/>
<path d="M16.38 10.65C18.4 10.83 20 12.51 20.05 14.57L23.16 15.86L21.54 13.22L24.98 9.78001L22.92 7.72001L19.97 10.67L16.38 4.82001V10.65Z" fill="white"/>
<path d="M20 15.34C19.7 17.13 18.22 18.52 16.39 18.69V20.82L23.22 16.68L20 15.34Z" fill="white"/>
<path d="M12.04 15.34L8.81999 16.68L15.65 20.82V18.69C13.82 18.53 12.33 17.13 12.04 15.34Z" fill="white"/>
<path d="M23.14 18.85L16.38 22.94V28.37L19.16 24.45L22.07 27.35L24.12 25.3L20.87 22.04L23.14 18.85Z" fill="white"/>
<path d="M15.66 22.94L8.89999 18.85L11.17 22.04L7.92 25.3L9.97 27.35L12.87 24.45L15.66 28.37V22.94Z" fill="white"/>
<path d="M8.88 15.86L11.99 14.57C12.04 12.51 13.63 10.83 15.66 10.65V4.81L12.07 10.66L9.12 7.71L7.06 9.77L10.5 13.21L8.88 15.85V15.86Z" fill="white"/>
<path d="M16.16 14.21C15.16 13.9 15.16 13.73 15.16 13.6C15.16 13.41 15.45 13.15 15.99 13.15C16.31 13.15 16.84 13.23 16.84 13.76H17.81C17.81 12.81 17.08 12.18 15.99 12.18C14.82 12.18 14.2 12.91 14.2 13.6C14.2 14.54 15.03 14.88 15.88 15.14C16.88 15.45 16.88 15.62 16.88 15.75C16.88 15.94 16.59 16.2 16.05 16.2C15.73 16.2 15.2 16.12 15.2 15.59H14.23C14.23 16.54 14.96 17.17 16.05 17.17C17.22 17.17 17.84 16.44 17.84 15.75C17.84 14.81 17.01 14.47 16.16 14.21Z" fill="white"/>
</svg>
