<svg width="32" height="32" viewBox="0 0 32 32" fill="none" xmlns="http://www.w3.org/2000/svg">
<path d="M17.5061 22.5989C15.2619 23.1321 12.8007 22.5238 11.0504 20.7726C8.78769 18.5101 8.34604 15.1528 9.98068 12.4934C10.6557 11.3954 11.2969 10.739 11.8509 10.1873C14.1343 7.9128 18.3284 3.77265 18.3284 3.77265C14.4124 2.99741 10.1944 4.12595 7.16068 7.16043C2.32766 11.993 2.32766 19.8294 7.16068 24.6619C8.65901 26.1601 10.4452 27.1927 12.3427 27.7629L17.5072 22.5989H17.5061Z" fill="#213147"/>
<path d="M14.3174 9.22342C16.5616 8.69022 19.0229 9.29865 20.7731 11.0498C23.0358 13.3123 23.4774 16.6696 21.8429 19.3289C21.1679 20.427 20.5267 21.0834 19.9726 21.6352C17.6891 23.9097 13.4952 28.0497 13.4952 28.0497C17.4111 28.8249 21.6292 27.6964 24.6628 24.6619C29.4959 19.8294 29.4959 11.993 24.6628 7.16045C23.1645 5.66228 21.3783 4.62969 19.4809 4.05943L14.3163 9.22342H14.3174Z" fill="#213147"/>
</svg>
