<svg width="32" height="32" viewBox="0 0 32 32" fill="none" xmlns="http://www.w3.org/2000/svg">
<g clip-path="url(#clip0_2563_5)">
<path d="M32 15.9997C32 7.16332 24.8366 0 16 0C7.16344 0 0 7.16332 0 15.9997V16.0003C0 24.8367 7.16344 32 16 32C24.8366 32 32 24.8367 32 16.0003V15.9997Z" fill="white"/>
<path d="M17.5812 22.6975C15.3245 23.2336 12.8496 22.6219 11.0896 20.861C8.81429 18.5861 8.37019 15.2102 10.0139 12.536C10.6927 11.4319 11.3374 10.7719 11.8945 10.2171C14.1906 7.93003 18.408 3.76695 18.408 3.76695C14.4703 2.98741 10.2288 4.1222 7.17824 7.17349C2.31836 12.0328 2.31836 19.9126 7.17824 24.7719C8.68489 26.2784 10.481 27.3168 12.389 27.8901L17.5823 22.6975H17.5812Z" fill="black"/>
<path d="M14.3747 9.2479C16.6314 8.71175 19.1063 9.32355 20.8663 11.0844C23.1415 13.3594 23.5856 16.7353 21.942 19.4093C21.2633 20.5135 20.6185 21.1736 20.0613 21.7284C17.7652 24.0155 13.5479 28.1784 13.5479 28.1784C17.4856 28.958 21.7271 27.8232 24.7776 24.7719C29.6375 19.9126 29.6375 12.0328 24.7776 7.1735C23.2709 5.66704 21.4748 4.62873 19.5669 4.05532L14.3736 9.2479H14.3747Z" fill="black"/>
</g>
<defs>
<clipPath id="clip0_2563_5">
<rect width="32" height="32" fill="white"/>
</clipPath>
</defs>
</svg>
