<svg width="32" height="32" viewBox="0 0 32 32" fill="none" xmlns="http://www.w3.org/2000/svg">
<g clip-path="url(#clip0_2262_31)">
<path d="M19.27 19.88C13.22 21.69 8.22 24.34 5.09 27.44L4.95 27.58C5.78 28.37 6.7 29.07 7.68 29.67L7.89 29.41C8.75 28.37 9.66 27.36 10.62 26.41C13.18 23.86 16.11 21.65 19.27 19.88Z" fill="currentColor"/>
<path d="M19.27 19.88C13.22 21.69 8.22 24.34 5.09 27.44L4.95 27.58C5.78 28.37 6.7 29.07 7.68 29.67L7.89 29.41C8.75 28.37 9.66 27.36 10.62 26.41C13.18 23.86 16.11 21.65 19.27 19.88Z" fill="currentColor"/>
<path d="M0.01 17.19C0.25 20.43 1.45 23.39 3.34 25.8L3.43 25.71C5.37 23.8 7.89 22.06 10.94 20.55C13.61 19.22 16.67 18.08 19.97 17.18H0.01V17.19Z" fill="currentColor"/>
<path d="M0.01 17.19C0.25 20.43 1.45 23.39 3.34 25.8L3.43 25.71C5.37 23.8 7.89 22.06 10.94 20.55C13.61 19.22 16.67 18.08 19.97 17.18H0.01V17.19Z" fill="currentColor"/>
<path d="M12.32 3.9C17.73 9.29 24.54 12.85 32.01 14.2C31.11 6.22 24.31 0 16.04 0C13.86 0 11.78 0.440001 9.88 1.22C10.65 2.15 11.47 3.05 12.32 3.9Z" fill="currentColor"/>
<path d="M12.32 3.9C17.73 9.29 24.54 12.85 32.01 14.2C31.11 6.22 24.31 0 16.04 0C13.86 0 11.78 0.440001 9.88 1.22C10.65 2.15 11.47 3.05 12.32 3.9Z" fill="currentColor"/>
<path d="M5.09 4.56C8.22 7.66 13.22 10.31 19.27 12.12C16.11 10.34 13.18 8.14 10.62 5.59C9.67 4.64 8.75 3.63 7.89 2.59L7.68 2.33C6.69 2.93 5.78 3.63 4.95 4.42L5.09 4.56Z" fill="currentColor"/>
<path d="M5.09 4.56C8.22 7.66 13.22 10.31 19.27 12.12C16.11 10.34 13.18 8.14 10.62 5.59C9.67 4.64 8.75 3.63 7.89 2.59L7.68 2.33C6.69 2.93 5.78 3.63 4.95 4.42L5.09 4.56Z" fill="currentColor"/>
<path d="M12.32 28.1C11.47 28.95 10.64 29.85 9.88 30.78C11.78 31.56 13.86 32 16.04 32C24.31 32 31.11 25.79 32.01 17.8C24.54 19.15 17.73 22.71 12.32 28.1Z" fill="currentColor"/>
<path d="M12.32 28.1C11.47 28.95 10.64 29.85 9.88 30.78C11.78 31.56 13.86 32 16.04 32C24.31 32 31.11 25.79 32.01 17.8C24.54 19.15 17.73 22.71 12.32 28.1Z" fill="currentColor"/>
<path d="M10.93 11.44C7.89 9.93 5.36 8.19 3.42 6.28L3.33 6.19C1.44 8.6 0.24 11.57 0 14.8H19.96C16.66 13.9 13.6 12.76 10.93 11.43V11.44Z" fill="currentColor"/>
<path d="M10.93 11.44C7.89 9.93 5.36 8.19 3.42 6.28L3.33 6.19C1.44 8.6 0.24 11.57 0 14.8H19.96C16.66 13.9 13.6 12.76 10.93 11.43V11.44Z" fill="currentColor"/>
</g>
<defs>
<clipPath id="clip0_2262_31">
<rect width="32" height="32" fill="white"/>
</clipPath>
</defs>
</svg>
