<svg width="32" height="32" viewBox="0 0 32 32" fill="none" xmlns="http://www.w3.org/2000/svg">
<g clip-path="url(#clip0_2262_33)">
<path d="M19.26 19.88C13.21 21.69 8.21 24.34 5.08 27.44L4.94 27.58C5.77 28.37 6.69 29.07 7.67 29.67L7.88 29.41C8.74 28.37 9.65 27.36 10.61 26.41C13.17 23.86 16.1 21.65 19.26 19.88Z" fill="#131315"/>
<path d="M19.26 19.88C13.21 21.69 8.21 24.34 5.08 27.44L4.94 27.58C5.77 28.37 6.69 29.07 7.67 29.67L7.88 29.41C8.74 28.37 9.65 27.36 10.61 26.41C13.17 23.86 16.1 21.65 19.26 19.88Z" fill="#131315"/>
<path d="M0 17.19C0.24 20.43 1.44 23.39 3.33 25.8L3.42 25.71C5.36 23.8 7.88 22.06 10.93 20.55C13.6 19.22 16.66 18.08 19.96 17.18H0V17.19Z" fill="#131315"/>
<path d="M0 17.19C0.24 20.43 1.44 23.39 3.33 25.8L3.42 25.71C5.36 23.8 7.88 22.06 10.93 20.55C13.6 19.22 16.66 18.08 19.96 17.18H0V17.19Z" fill="#131315"/>
<path d="M12.31 3.9C17.72 9.29 24.53 12.85 32 14.2C31.1 6.22 24.3 0 16.03 0C13.85 0 11.77 0.44 9.87 1.22C10.64 2.15 11.46 3.05 12.31 3.9Z" fill="#131315"/>
<path d="M12.31 3.9C17.72 9.29 24.53 12.85 32 14.2C31.1 6.22 24.3 0 16.03 0C13.85 0 11.77 0.44 9.87 1.22C10.64 2.15 11.46 3.05 12.31 3.9Z" fill="#131315"/>
<path d="M5.08 4.56C8.21 7.66 13.21 10.31 19.26 12.12C16.1 10.34 13.17 8.14 10.61 5.59C9.66 4.64 8.74 3.63 7.88 2.59L7.67 2.33C6.68 2.93 5.77 3.63 4.94 4.42L5.08 4.56Z" fill="#131315"/>
<path d="M5.08 4.56C8.21 7.66 13.21 10.31 19.26 12.12C16.1 10.34 13.17 8.14 10.61 5.59C9.66 4.64 8.74 3.63 7.88 2.59L7.67 2.33C6.68 2.93 5.77 3.63 4.94 4.42L5.08 4.56Z" fill="#131315"/>
<path d="M12.31 28.1C11.46 28.95 10.63 29.85 9.87 30.78C11.77 31.56 13.85 32 16.03 32C24.3 32 31.1 25.79 32 17.8C24.53 19.15 17.72 22.71 12.31 28.1Z" fill="#131315"/>
<path d="M12.31 28.1C11.46 28.95 10.63 29.85 9.87 30.78C11.77 31.56 13.85 32 16.03 32C24.3 32 31.1 25.79 32 17.8C24.53 19.15 17.72 22.71 12.31 28.1Z" fill="#131315"/>
<path d="M10.92 11.44C7.88 9.93 5.35 8.19 3.41 6.28L3.32 6.19C1.44 8.6 0.24 11.57 0 14.81H19.96C16.66 13.91 13.6 12.77 10.93 11.44H10.92Z" fill="#131315"/>
<path d="M10.92 11.44C7.88 9.93 5.35 8.19 3.41 6.28L3.32 6.19C1.44 8.6 0.24 11.57 0 14.81H19.96C16.66 13.91 13.6 12.77 10.93 11.44H10.92Z" fill="#131315"/>
</g>
<defs>
<clipPath id="clip0_2262_33">
<rect width="32" height="32" fill="white"/>
</clipPath>
</defs>
</svg>
