<svg width="32" height="32" viewBox="0 0 32 32" fill="none" xmlns="http://www.w3.org/2000/svg">
  <path d="M16 0C7.16 0 0 7.16 0 16C0 24.84 7.16 32 16 32C24.84 32 32 24.84 32 16C32 7.16 24.84 0 16 0ZM12.28 24.18C9.74 24.18 8 22.94 8 20.36C8 17.78 10.09 16.54 13.14 16.54C15.39 16.54 16.45 16.97 18.7 16.97C19.26 16.97 19.81 16.93 20.36 16.83C19.91 21.01 16.42 24.18 12.28 24.18ZM18.86 15.45C16.61 15.45 15.55 15.02 13.3 15.02C12.74 15.02 12.19 15.06 11.64 15.16C12.09 10.98 15.58 7.81 19.72 7.81C22.26 7.81 24 9.05 24 11.63C24 14.21 21.91 15.45 18.86 15.45Z" fill="#213147"/>
</svg>
