<svg width="32" height="32" viewBox="0 0 32 32" fill="none" xmlns="http://www.w3.org/2000/svg">
  <path d="M16 32C24.8366 32 32 24.8366 32 16C32 7.16344 24.8366 0 16 0C7.16344 0 0 7.16344 0 16C0 24.8366 7.16344 32 16 32Z" fill="#5F6CE5"/>
  <path d="M13.3 15.03C12.74 15.03 12.19 15.07 11.64 15.17C12.09 10.99 15.58 7.82001 19.72 7.82001C22.26 7.82001 24 9.06001 24 11.64C24 14.22 21.91 15.46 18.86 15.46C16.61 15.46 15.55 15.03 13.3 15.03ZM13.14 16.55C10.09 16.55 8 17.79 8 20.37C8 22.95 9.74 24.19 12.28 24.19C16.43 24.19 19.91 21.02 20.36 16.84C19.81 16.94 19.25 16.99 18.7 16.98C16.45 16.98 15.39 16.55 13.14 16.55Z" fill="white"/>
</svg>
