<svg width="32" height="33" viewBox="0 0 32 33" fill="none" xmlns="http://www.w3.org/2000/svg">
<path d="M22.62 22.45C22.52 22.35 22.37 22.29 22.15 22.29H21.08V23.52H22.15C22.36 23.52 22.51 23.46 22.62 23.37C22.73 23.27 22.79 23.13 22.79 22.95V22.87C22.79 22.69 22.73 22.55 22.63 22.45H22.62Z" fill="#213147"/>
<path d="M31.95 16.36C31.95 7.54 24.8 0.380005 15.97 0.380005C7.14 0.380005 0 7.53 0 16.36C0 25.19 7.15 32.33 15.98 32.33C24.81 32.33 31.96 25.18 31.96 16.36H31.95ZM11.62 26.68H7.92V21.14H11.57V22.3H9.16V23.31H11.35V24.47H9.16V25.53H11.61V26.69L11.62 26.68ZM17.79 24.69C17.79 25.11 17.7 25.48 17.52 25.8C17.35 26.12 17.09 26.36 16.76 26.53C16.43 26.7 16.04 26.78 15.59 26.78C15.14 26.78 14.75 26.7 14.41 26.53C14.08 26.36 13.83 26.11 13.65 25.8C13.48 25.48 13.39 25.11 13.39 24.69V21.13H14.64V24.72C14.64 25.02 14.72 25.24 14.88 25.4C15.04 25.56 15.27 25.64 15.59 25.64C15.91 25.64 16.14 25.55 16.29 25.4C16.45 25.24 16.53 25.02 16.53 24.72V21.13H17.78V24.69H17.79ZM24.02 22.76C24.02 23.1 23.94 23.38 23.77 23.61C23.64 23.78 23.49 23.91 23.31 24.01C23.45 24.05 23.58 24.12 23.67 24.24C23.81 24.39 23.87 24.59 23.87 24.83V26.69H22.62V24.98C22.62 24.88 22.59 24.82 22.55 24.77C22.52 24.74 22.47 24.7 22.34 24.7H21.07V26.7H19.82V21.16H22.24C22.59 21.16 22.9 21.22 23.16 21.35C23.43 21.47 23.64 21.65 23.79 21.89C23.94 22.12 24.01 22.4 24.01 22.71V22.8L24.02 22.76ZM20.34 18.61L15.98 14.16L11.62 18.61L7.26 14.16L15.99 5.25L24.72 14.16L20.36 18.61H20.34Z" fill="#213147"/>
</svg>
