<svg width="32" height="33" viewBox="0 0 32 33" fill="none" xmlns="http://www.w3.org/2000/svg">
<path d="M31.96 16.09C31.96 24.91 24.81 32.07 15.98 32.07C7.15 32.07 0 24.92 0 16.09C0 7.25999 7.16 0.109985 15.98 0.109985C24.8 0.109985 31.96 7.25999 31.96 16.09Z" fill="url(#paint0_linear_165_88)"/>
<path d="M15.99 32.04C7.18 32.04 0.0299988 24.91 0.0299988 16.12C0.0299988 16.12 7.17 12.84 15.99 12.84C24.81 12.84 31.95 16.12 31.95 16.12C31.95 24.91 24.81 32.04 15.99 32.04Z" fill="url(#paint1_linear_165_88)"/>
<path d="M24.71 13.89L15.98 4.97998L7.25 13.89L11.61 18.34L15.97 13.89L20.33 18.34L24.69 13.89H24.71Z" fill="white"/>
<path d="M15.6 26.39C15.17 26.39 14.79 26.31 14.48 26.16C14.17 26 13.94 25.77 13.77 25.48C13.61 25.18 13.53 24.83 13.53 24.43V21H14.53V24.46C14.53 24.78 14.62 25.04 14.8 25.22C14.99 25.41 15.25 25.5 15.6 25.5C15.95 25.5 16.21 25.41 16.39 25.22C16.58 25.03 16.67 24.78 16.67 24.46V21H17.67V24.43C17.67 24.83 17.59 25.18 17.42 25.48C17.26 25.77 17.02 26 16.71 26.16C16.4 26.32 16.03 26.39 15.6 26.39ZM19.96 26.29V20.99H22.26C22.59 20.99 22.88 21.05 23.13 21.16C23.38 21.28 23.57 21.44 23.7 21.65C23.84 21.86 23.9 22.11 23.9 22.4V22.49C23.9 22.81 23.82 23.06 23.67 23.26C23.52 23.46 23.33 23.6 23.11 23.69V23.83C23.31 23.84 23.47 23.91 23.58 24.04C23.69 24.17 23.75 24.34 23.75 24.55V26.28H22.75V24.69C22.75 24.57 22.72 24.47 22.65 24.39C22.59 24.31 22.49 24.28 22.34 24.28H20.95V26.28H19.95L19.96 26.29ZM20.96 23.38H22.16C22.4 23.38 22.58 23.32 22.71 23.19C22.85 23.06 22.91 22.89 22.91 22.68V22.6C22.91 22.39 22.84 22.22 22.71 22.09C22.58 21.96 22.39 21.89 22.15 21.89H20.95V23.37L20.96 23.38Z" fill="#202332"/>
<path fill-rule="evenodd" clip-rule="evenodd" d="M7.93 26.41V20.86H11.58V22.02H9.17V23.03H11.36V24.19H9.17V25.25H11.62V26.41H7.92H7.93ZM14.43 26.27C14.1 26.1 13.85 25.85 13.67 25.54C13.5 25.22 13.41 24.85 13.41 24.43V20.87H14.66V24.46C14.66 24.76 14.74 24.98 14.9 25.14C15.06 25.3 15.29 25.38 15.61 25.38C15.93 25.38 16.16 25.29 16.31 25.14C16.47 24.98 16.55 24.76 16.55 24.46V20.87H17.8V24.43C17.8 24.85 17.71 25.22 17.53 25.54C17.36 25.86 17.1 26.1 16.77 26.27C16.44 26.44 16.05 26.52 15.6 26.52C15.15 26.52 14.76 26.44 14.42 26.27H14.43ZM17.43 25.48C17.6 25.18 17.68 24.83 17.68 24.43V21H16.68V24.46C16.68 24.78 16.59 25.04 16.4 25.22C16.22 25.41 15.95 25.5 15.61 25.5C15.27 25.5 14.99 25.41 14.81 25.22C14.63 25.03 14.54 24.78 14.54 24.46V21H13.54V24.43C13.54 24.83 13.62 25.18 13.78 25.48C13.95 25.77 14.18 26 14.49 26.16C14.8 26.32 15.18 26.39 15.61 26.39C16.04 26.39 16.41 26.31 16.72 26.16C17.03 26 17.27 25.77 17.43 25.48ZM19.83 26.41V20.86H22.25C22.6 20.86 22.91 20.92 23.17 21.05C23.44 21.18 23.65 21.35 23.8 21.59C23.95 21.82 24.02 22.1 24.02 22.41V22.5C24.02 22.84 23.94 23.12 23.77 23.35C23.64 23.52 23.49 23.65 23.31 23.75C23.45 23.79 23.58 23.86 23.67 23.98C23.81 24.13 23.87 24.33 23.87 24.57V26.43H22.62V24.72C22.62 24.62 22.59 24.56 22.55 24.51C22.52 24.48 22.47 24.44 22.34 24.44H21.07V26.44H19.82L19.83 26.41ZM20.96 24.29H22.35C22.5 24.29 22.6 24.33 22.66 24.4C22.73 24.48 22.76 24.57 22.76 24.7V26.29H23.76V24.56C23.76 24.35 23.7 24.18 23.59 24.05C23.48 23.92 23.32 23.85 23.12 23.84V23.7C23.34 23.61 23.53 23.47 23.68 23.27C23.83 23.07 23.91 22.82 23.91 22.5V22.41C23.91 22.12 23.84 21.87 23.71 21.66C23.57 21.45 23.38 21.28 23.14 21.17C22.89 21.05 22.6 21 22.27 21H19.97V26.3H20.97V24.3L20.96 24.29ZM22.63 22.18C22.53 22.08 22.38 22.02 22.16 22.02H21.09V23.25H22.16C22.37 23.25 22.52 23.19 22.63 23.1C22.74 23 22.8 22.86 22.8 22.68V22.6C22.8 22.42 22.74 22.28 22.64 22.18H22.63ZM22.71 23.19C22.58 23.32 22.39 23.38 22.16 23.38H20.96V21.9H22.16C22.4 21.9 22.59 21.97 22.72 22.1C22.85 22.23 22.92 22.4 22.92 22.61V22.69C22.92 22.9 22.85 23.07 22.72 23.2L22.71 23.19Z" fill="#202332"/>
<path d="M20.48 3.75998C20.5 3.62998 20.68 3.62998 20.7 3.75998L20.83 4.82998C21 6.20998 22.11 7.29998 23.51 7.45998L24.6 7.58998C24.73 7.60998 24.73 7.78998 24.6 7.80998L23.51 7.93998C22.1 8.09998 20.99 9.18998 20.83 10.57L20.7 11.64C20.68 11.77 20.5 11.77 20.48 11.64L20.35 10.57C20.18 9.18998 19.07 8.09998 17.67 7.93998L16.58 7.80998C16.45 7.78998 16.45 7.60998 16.58 7.58998L17.67 7.45998C19.08 7.29998 20.19 6.20998 20.35 4.82998L20.48 3.75998Z" fill="url(#paint2_linear_165_88)"/>
<defs>
<linearGradient id="paint0_linear_165_88" x1="2.85" y1="14.14" x2="29.89" y2="18.16" gradientUnits="userSpaceOnUse">
<stop stop-color="#F7F0E7"/>
<stop offset="1" stop-color="#6B90F6"/>
</linearGradient>
<linearGradient id="paint1_linear_165_88" x1="12.94" y1="12.42" x2="20.92" y2="27.35" gradientUnits="userSpaceOnUse">
<stop offset="0.07" stop-color="#AEC2F7"/>
<stop offset="1" stop-color="#7F9EF4"/>
</linearGradient>
<linearGradient id="paint2_linear_165_88" x1="19.91" y1="8.29998" x2="23.12" y2="5.45998" gradientUnits="userSpaceOnUse">
<stop stop-color="#F5CFAE"/>
<stop offset="1" stop-color="#F7F0E7"/>
</linearGradient>
</defs>
</svg>
