<svg width="32" height="32" viewBox="0 0 32 32" fill="none" xmlns="http://www.w3.org/2000/svg">
<path d="M16 0C7.16 0 0 7.16 0 16C0 24.84 7.16 32 16 32C24.84 32 32 24.84 32 16C32 7.16 24.84 0 16 0ZM28.8 14.37C28.53 14.06 28.19 13.8 27.77 13.62L26.15 12.93C22.97 11.57 20.43 9.04 19.07 5.85L18.38 4.23C18.2 3.81 17.94 3.46 17.63 3.2C23.42 4.01 28 8.59 28.81 14.38L28.8 14.37ZM14.38 3.2C14.07 3.47 13.81 3.81 13.63 4.23L12.94 5.85C11.58 9.03 9.04002 11.57 5.86002 12.93L4.23999 13.62C3.81999 13.8 3.46999 14.06 3.20999 14.37C4.01999 8.58 8.60001 4 14.39 3.19L14.38 3.2ZM3.20001 17.62C3.47001 17.93 3.81001 18.19 4.23001 18.37L5.85001 19.06C9.03001 20.42 11.57 22.95 12.93 26.14L13.62 27.76C13.8 28.18 14.06 28.53 14.37 28.8C8.58 27.99 4 23.41 3.19 17.62H3.20001ZM17.23 21.71C16.77 22.79 15.23 22.79 14.77 21.71L14.44 20.94C13.79 19.42 12.58 18.21 11.06 17.56L10.29 17.23C9.21001 16.77 9.21001 15.23 10.29 14.77L11.06 14.44C12.58 13.79 13.79 12.58 14.44 11.06L14.77 10.29C15.23 9.21 16.77 9.21 17.23 10.29L17.56 11.06C18.21 12.58 19.42 13.79 20.94 14.44L21.71 14.77C22.79 15.23 22.79 16.77 21.71 17.23L20.94 17.56C19.42 18.21 18.21 19.42 17.56 20.94L17.23 21.71ZM17.62 28.8C17.95 28.52 18.2 28.16 18.37 27.76L19.06 26.14C20.42 22.96 22.95 20.42 26.14 19.06L27.76 18.37C28.18 18.19 28.53 17.93 28.79 17.62C27.98 23.41 23.4 27.99 17.61 28.8H17.62Z" fill="#213147"/>
</svg>
