<svg width="32" height="33" viewBox="0 0 32 33" fill="none" xmlns="http://www.w3.org/2000/svg">
  <path d="M16 0.919983C7.16 0.919983 0 8.08998 0 16.92C0 25.75 7.16 32.92 16 32.92C24.84 32.92 32 25.76 32 16.92C32 8.07998 24.84 0.919983 16 0.919983ZM13.03 17.7C11.66 17.92 10.37 16.99 10.14 15.62C9.92 14.25 10.85 12.96 12.22 12.73C13.59 12.51 14.88 13.44 15.11 14.81C15.33 16.18 14.4 17.47 13.03 17.7ZM19.6 17.7C18.23 17.92 16.94 16.99 16.71 15.62C16.49 14.25 17.42 12.96 18.79 12.73C20.16 12.51 21.45 13.44 21.68 14.81C21.9 16.18 20.97 17.47 19.6 17.7ZM25.12 17.44C25.12 12.22 21.03 7.98999 15.91 7.98999C10.79 7.98999 6.7 12.22 6.7 17.44H3.54C3.54 10.48 9.08 4.82999 15.91 4.82999C22.74 4.82999 28.28 10.48 28.28 17.44H25.12Z" fill="#213147"/>
</svg>
