<svg width="32" height="32" viewBox="0 0 32 32" fill="none" xmlns="http://www.w3.org/2000/svg">
<g clip-path="url(#clip0_298_885)">
<path d="M16 0C7.16 0 0 7.16 0 16C0 24.84 7.16 32 16 32C24.84 32 32 24.84 32 16C32 7.16 24.84 0 16 0ZM25.49 18.45C25.43 19.86 24.9 21.2 23.98 22.27C23.07 23.38 22.01 24.36 20.83 25.19C19.41 26.21 17.9 27.09 16.32 27.83C16.15 27.91 15.96 27.91 15.79 27.83C14.21 27.09 12.7 26.21 11.28 25.19C10.1 24.37 9.03999 23.39 8.12999 22.27C7.20999 21.2 6.68 19.86 6.62 18.45V8.79C6.62 8.5 6.81 8.25 7.09 8.16L15.87 5.53C15.99 5.49 16.12 5.49 16.25 5.53L25.03 8.16C25.31 8.24 25.5 8.5 25.5 8.79V18.45H25.49Z" fill="#213147"/>
<path d="M21.45 20.32L17.29 10.27C17.14 9.82 16.72 9.51 16.25 9.5H15.88C15.4 9.5 14.98 9.82 14.84 10.27L13.03 14.64H11.67C11.26 14.64 10.92 14.97 10.92 15.39C10.92 15.81 11.25 16.15 11.67 16.15H12.41L10.68 20.32C10.65 20.41 10.63 20.51 10.63 20.6C10.63 20.81 10.7 21.01 10.83 21.16C10.97 21.31 11.18 21.38 11.38 21.37C11.53 21.37 11.68 21.32 11.81 21.23C11.94 21.13 12.04 21 12.11 20.85L14.01 16.14H15.33C15.74 16.14 16.08 15.81 16.08 15.39V15.37C16.08 14.96 15.75 14.62 15.33 14.62H14.63L16.08 11.01L20.03 20.84C20.09 20.99 20.2 21.12 20.33 21.22C20.45 21.31 20.6 21.36 20.76 21.36C20.97 21.37 21.17 21.29 21.31 21.15C21.45 21 21.52 20.8 21.51 20.59C21.51 20.49 21.51 20.4 21.47 20.3L21.45 20.32Z" fill="#213147"/>
</g>
<defs>
<clipPath id="clip0_298_885">
<rect width="32" height="32" fill="white"/>
</clipPath>
</defs>
</svg>
