<svg width="32" height="32" viewBox="0 0 32 32" fill="none" xmlns="http://www.w3.org/2000/svg">
  <path d="M16 32C24.8366 32 32 24.8366 32 16C32 7.16344 24.8366 0 16 0C7.16344 0 0 7.16344 0 16C0 24.8366 7.16344 32 16 32Z" fill="#FFB800"/>
  <path d="M13.03 16.78C14.4 16.56 15.33 15.26 15.11 13.89C14.89 12.52 13.59 11.59 12.22 11.81C10.85 12.03 9.92 13.33 10.14 14.7C10.36 16.07 11.66 17 13.03 16.78ZM19.6 16.78C20.97 16.56 21.9 15.26 21.68 13.89C21.46 12.52 20.16 11.59 18.79 11.81C17.42 12.03 16.49 13.33 16.71 14.7C16.93 16.07 18.23 17 19.6 16.78Z" fill="white"/>
  <path d="M15.91 3.90997C9.07999 3.90997 3.53999 9.55997 3.53999 16.52H6.69999C6.69999 11.3 10.79 7.06997 15.91 7.06997C21.03 7.06997 25.12 11.3 25.12 16.52H28.28C28.28 9.55997 22.74 3.90997 15.91 3.90997Z" fill="white"/>
</svg>
