<svg width="33" height="33" viewBox="0 0 33 33" fill="none" xmlns="http://www.w3.org/2000/svg">
  <path d="M10.99 14.64C7.95002 14.64 5.49002 17.1 5.49002 20.14C5.49002 23.18 7.95002 25.64 10.99 25.64C14.03 25.64 16.49 23.18 16.49 20.14C16.49 17.1 14.03 14.64 10.99 14.64ZM9.97002 20.41C9.50002 20.49 9.05002 20.17 8.98002 19.69C8.90002 19.22 9.22002 18.77 9.70002 18.7C10.17 18.62 10.62 18.94 10.69 19.42C10.77 19.89 10.45 20.34 9.97002 20.41ZM12.23 20.41C11.76 20.49 11.31 20.17 11.24 19.69C11.16 19.22 11.48 18.77 11.96 18.7C12.43 18.62 12.88 18.94 12.95 19.42C13.03 19.89 12.71 20.34 12.23 20.41ZM14.12 20.31C14.12 18.52 12.71 17.06 10.95 17.06C9.19002 17.06 7.78002 18.51 7.78002 20.31H6.69002C6.69002 17.92 8.59002 15.98 10.94 15.98C13.29 15.98 15.19 17.92 15.19 20.31H14.1H14.12Z" fill="#213147"/>
  <path d="M16.78 2.71997C24.5 2.71997 30.78 8.99997 30.78 16.72C30.78 24.44 24.5 30.72 16.78 30.72C9.06003 30.72 2.78003 24.44 2.78003 16.72C2.78003 8.99997 9.06003 2.71997 16.78 2.71997ZM16.78 0.719971C7.94003 0.719971 0.780029 7.87997 0.780029 16.72C0.780029 25.56 7.94003 32.72 16.78 32.72C25.62 32.72 32.78 25.56 32.78 16.72C32.78 7.87997 25.62 0.719971 16.78 0.719971Z" fill="#213147"/>
  <path d="M16.72 4.48999C13.68 4.48999 11.22 6.94999 11.22 9.98999C11.22 13.03 13.68 15.49 16.72 15.49C19.76 15.49 22.22 13.03 22.22 9.98999C22.22 6.94999 19.76 4.48999 16.72 4.48999ZM16.72 7.70999C17.64 7.70999 18.39 7.95999 18.39 8.26999C18.39 8.57999 17.64 8.82999 16.72 8.82999C15.8 8.82999 15.05 8.57999 15.05 8.26999C15.05 7.95999 15.8 7.70999 16.72 7.70999ZM16.01 8.92999C16.25 8.96999 16.48 8.98999 16.72 8.98999C16.95 8.98999 17.18 8.96999 17.41 8.93999H17.43C18.32 9.02999 18.97 9.30999 18.97 9.63999C18.97 10.05 17.96 10.38 16.72 10.38C15.48 10.38 14.47 10.05 14.47 9.63999C14.47 9.30999 15.11 9.02999 16.01 8.92999ZM16.72 12.26C15.17 12.26 13.91 11.84 13.91 11.33C13.91 10.95 14.6 10.62 15.58 10.48C15.95 10.55 16.33 10.59 16.71 10.59C17.08 10.59 17.45 10.56 17.82 10.49H17.85C18.83 10.63 19.52 10.96 19.52 11.33C19.52 11.84 18.26 12.26 16.71 12.26H16.72Z" fill="#213147"/>
  <path d="M22.87 14.58C19.83 14.58 17.37 17.04 17.37 20.08C17.37 23.12 19.83 25.58 22.87 25.58C25.91 25.58 28.37 23.12 28.37 20.08C28.37 17.04 25.91 14.58 22.87 14.58ZM22.87 25.01C20.15 25.01 17.94 22.8 17.94 20.08C17.94 17.36 20.15 15.15 22.87 15.15C25.59 15.15 27.8 17.36 27.8 20.08C27.8 22.8 25.59 25.01 22.87 25.01Z" fill="#213147"/>
  <path d="M22.87 15.53C20.36 15.53 18.32 17.57 18.32 20.08C18.32 22.59 20.36 24.63 22.87 24.63C25.38 24.63 27.42 22.59 27.42 20.08C27.42 17.57 25.38 15.53 22.87 15.53ZM21.07 19.17L22.86 16.43L24.65 19.18L22.86 20.2L21.07 19.18V19.17ZM25.41 21.31C25.35 21.87 25.09 22.4 24.68 22.8C24.2 23.27 23.56 23.53 22.88 23.53C22.2 23.53 21.56 23.27 21.08 22.8C20.67 22.4 20.41 21.87 20.35 21.31C20.29 20.75 20.42 20.17 20.74 19.7L20.8 19.61L22.87 20.79L24.94 19.61L25 19.7C25.31 20.18 25.45 20.75 25.39 21.31H25.41Z" fill="#213147"/>
</svg>
