<svg width="33" height="33" viewBox="0 0 33 33" fill="none" xmlns="http://www.w3.org/2000/svg">
  <path d="M22.87 14.43C25.91 14.43 28.37 16.89 28.37 19.93C28.37 22.97 25.91 25.43 22.87 25.43C19.83 25.43 17.37 22.97 17.37 19.93C17.37 16.89 19.83 14.43 22.87 14.43Z" fill="#48A0F7"/>
  <path opacity="0.6" d="M25.13 19.54L25.19 19.63C25.88 20.7 25.73 22.09 24.82 22.98C24.28 23.51 23.58 23.77 22.88 23.77L25.13 19.53V19.54Z" fill="white"/>
  <path opacity="0.2" d="M22.87 20.83L25.12 19.54L22.87 23.78V20.83Z" fill="white"/>
  <path d="M20.62 19.54L20.56 19.63C19.87 20.7 20.02 22.09 20.93 22.98C21.47 23.51 22.17 23.77 22.87 23.77L20.62 19.53V19.54Z" fill="white"/>
  <path opacity="0.6" d="M22.87 20.83L20.62 19.54L22.87 23.78V20.83Z" fill="white"/>
  <path opacity="0.2" d="M22.87 17.95V20.17L24.81 19.06L22.87 17.95Z" fill="white"/>
  <path opacity="0.6" d="M22.87 17.95L20.93 19.06L22.87 20.17V17.95Z" fill="white"/>
  <path d="M22.87 16.08L20.93 19.06L22.87 17.95V16.08Z" fill="white"/>
  <path opacity="0.6" d="M22.87 17.95L24.81 19.06L22.87 16.08V17.95Z" fill="white"/>
  <path d="M10.99 25.43C14.0276 25.43 16.49 22.9676 16.49 19.93C16.49 16.8924 14.0276 14.43 10.99 14.43C7.95245 14.43 5.49002 16.8924 5.49002 19.93C5.49002 22.9676 7.95245 25.43 10.99 25.43Z" fill="#9391F7"/>
  <path d="M9.97 20.2C10.44 20.12 10.76 19.68 10.69 19.21C10.61 18.74 10.17 18.42 9.7 18.49C9.23 18.57 8.91 19.01 8.98 19.48C9.06 19.95 9.5 20.27 9.97 20.2ZM12.23 20.2C12.7 20.12 13.02 19.68 12.95 19.21C12.87 18.74 12.43 18.42 11.96 18.49C11.49 18.57 11.17 19.01 11.24 19.48C11.32 19.95 11.76 20.27 12.23 20.2Z" fill="white"/>
  <path d="M10.96 15.77C8.61002 15.77 6.71002 17.71 6.71002 20.1H7.80002C7.80002 18.31 9.21002 16.85 10.97 16.85C12.73 16.85 14.14 18.3 14.14 20.1H15.23C15.23 17.71 13.33 15.77 10.98 15.77H10.96Z" fill="white"/>
  <path d="M16.78 2.52002C24.5 2.52002 30.78 8.80002 30.78 16.52C30.78 24.24 24.5 30.52 16.78 30.52C9.06003 30.52 2.78003 24.24 2.78003 16.52C2.78003 8.80002 9.06003 2.52002 16.78 2.52002ZM16.78 0.52002C7.94003 0.52002 0.780029 7.68002 0.780029 16.52C0.780029 25.36 7.94003 32.52 16.78 32.52C25.62 32.52 32.78 25.36 32.78 16.52C32.78 7.68002 25.62 0.52002 16.78 0.52002Z" fill="#9391F0"/>
  <path d="M16.72 15.28C19.7576 15.28 22.22 12.8176 22.22 9.78003C22.22 6.74246 19.7576 4.28003 16.72 4.28003C13.6825 4.28003 11.22 6.74246 11.22 9.78003C11.22 12.8176 13.6825 15.28 16.72 15.28Z" fill="black"/>
  <path fill-rule="evenodd" clip-rule="evenodd" d="M17.86 10.28C18.84 10.42 19.53 10.75 19.53 11.13C19.53 11.64 18.27 12.06 16.72 12.06C15.17 12.06 13.91 11.64 13.91 11.13C13.91 10.75 14.6 10.42 15.58 10.28C15.95 10.35 16.33 10.39 16.71 10.39C17.08 10.39 17.45 10.36 17.82 10.29H17.85L17.86 10.28ZM17.43 8.71997C18.32 8.81997 18.97 9.09997 18.97 9.42997C18.97 9.83997 17.96 10.17 16.72 10.17C15.48 10.17 14.47 9.83997 14.47 9.42997C14.47 9.09997 15.11 8.81997 16.01 8.71997C16.25 8.75997 16.48 8.77997 16.72 8.77997C16.95 8.77997 17.18 8.75997 17.41 8.72997H17.43V8.71997Z" fill="white"/>
  <path d="M16.7201 8.60999C17.6401 8.60999 18.39 8.35999 18.39 8.04999C18.39 7.73999 17.6401 7.48999 16.7201 7.48999C15.8001 7.48999 15.05 7.73999 15.05 8.04999C15.05 8.35999 15.8001 8.60999 16.7201 8.60999Z" fill="white"/>
</svg>
