<svg width="32" height="32" viewBox="0 0 32 32" fill="none" xmlns="http://www.w3.org/2000/svg">
<g clip-path="url(#clip0_2485_47)">
<path d="M16 29.7198C23.5774 29.7198 29.72 23.5771 29.72 15.9998C29.72 8.42244 23.5774 2.27979 16 2.27979C8.42268 2.27979 2.28003 8.42244 2.28003 15.9998C2.28003 23.5771 8.42268 29.7198 16 29.7198Z" fill="#EA3323"/>
<path d="M16 29.7198C23.5774 29.7198 29.72 23.5771 29.72 15.9998C29.72 8.42244 23.5774 2.27979 16 2.27979C8.42268 2.27979 2.28003 8.42244 2.28003 15.9998C2.28003 23.5771 8.42268 29.7198 16 29.7198Z" fill="#EA3323"/>
<path d="M16 32C24.8366 32 32 24.8366 32 16C32 7.16344 24.8366 0 16 0C7.16344 0 0 7.16344 0 16C0 24.8366 7.16344 32 16 32Z" fill="#1A1A1A"/>
<path d="M20.9 16.0699L27.86 9.1099C26.68 7.0699 25 5.3699 22.97 4.1699L16.01 11.1299L9.03 4.1499C7 5.3499 5.31 7.0399 4.13 9.0799L11.07 16.0199L4.17 22.9199C5.37 24.9499 7.06001 26.6399 9.10001 27.8199L15.96 20.9599L22.84 27.8399C24.88 26.6599 26.58 24.9799 27.78 22.9499L20.9 16.0699Z" fill="#EA3323"/>
<path d="M20.59 6.5598L16.02 11.1398L11.43 6.5498C9.28998 7.5898 7.55998 9.3298 6.53998 11.4798L11.09 16.0298L6.57998 20.5398C7.61998 22.6798 9.35998 24.4098 11.51 25.4298L15.97 20.9698L20.45 25.4498C22.6 24.4398 24.35 22.7098 25.4 20.5798L20.91 16.0898L25.47 11.5298C24.46 9.3698 22.73 7.6298 20.6 6.5798L20.59 6.5598Z" fill="url(#paint0_radial_2485_47)"/>
<path d="M24.66 14.9598C20.54 14.1798 16.78 12.1498 13.79 9.0798C13.32 8.5998 12.86 8.0798 12.43 7.5498C12.01 7.7298 11.6 7.9398 11.22 8.1898L11.34 8.3398C11.82 8.93981 12.32 9.5198 12.85 10.0598C14.27 11.5198 15.9 12.7798 17.65 13.7998C14.29 12.7598 11.52 11.2498 9.78003 9.4698L9.71003 9.3998C9.39003 9.7198 9.09003 10.0598 8.82003 10.4198L8.86003 10.4598C9.94003 11.5498 11.34 12.5498 13.03 13.4098C14.51 14.1698 16.21 14.8198 18.04 15.3398H7.28003V16.7098H18.04C16.21 17.2198 14.51 17.8798 13.03 18.6398C11.34 19.5098 9.94003 20.4998 8.86003 21.5898L8.82003 21.6298C9.09003 21.9898 9.39003 22.3298 9.71003 22.6498L9.78003 22.5798C11.52 20.8098 14.29 19.2898 17.65 18.2498C15.9 19.2598 14.27 20.5298 12.85 21.9798C12.32 22.5198 11.81 23.0998 11.34 23.6998L11.22 23.8498C11.61 24.0898 12.01 24.3098 12.43 24.4898C12.86 23.9598 13.31 23.4398 13.79 22.9598C16.78 19.8898 20.54 17.8598 24.66 17.0798C24.7 16.7398 24.72 16.3898 24.72 16.0398C24.72 15.6898 24.7 15.3398 24.66 14.9998V14.9598Z" fill="white"/>
</g>
<defs>
<radialGradient id="paint0_radial_2485_47" cx="0" cy="0" r="1" gradientUnits="userSpaceOnUse" gradientTransform="translate(15.9915 15.9831) scale(15.9915 16.0169)">
<stop stop-color="#281A19"/>
<stop offset="1" stop-color="#821E16"/>
</radialGradient>
<clipPath id="clip0_2485_47">
<rect width="32" height="32" fill="white"/>
</clipPath>
</defs>
</svg>
