<svg width="32" height="32" viewBox="0 0 32 32" fill="none" xmlns="http://www.w3.org/2000/svg">
<g clip-path="url(#clip0_2485_43)">
<path d="M16 0C7.16 0 0 7.16 0 16C0 24.84 7.16 32 16 32C24.84 32 32 24.84 32 16C32 7.16 24.84 0 16 0ZM22.98 4.17C25 5.37 26.69 7.07 27.87 9.11L25.46 11.52C24.44 9.37 22.71 7.62 20.57 6.58L22.98 4.17ZM9.03 4.15L11.45 6.57C9.31 7.61 7.57 9.35 6.55 11.5L4.13 9.08C5.31 7.05 7 5.35 9.03 4.15ZM9.1 27.82C7.07 26.64 5.37 24.95 4.17 22.92L6.57 20.52C7.6 22.66 9.34 24.4 11.49 25.43L9.1 27.82ZM13.79 22.92C13.32 23.41 12.86 23.92 12.43 24.45C12.01 24.27 11.6 24.06 11.22 23.81L11.34 23.66C11.81 23.06 12.32 22.49 12.85 21.94C14.27 20.48 15.9 19.22 17.65 18.21C14.3 19.25 11.52 20.76 9.78 22.54L9.71 22.61C9.39 22.29 9.09 21.95 8.82 21.59L8.86 21.55C9.94 20.46 11.34 19.46 13.03 18.6C14.51 17.84 16.21 17.19 18.04 16.67H7.28V15.3H18.04C16.21 14.79 14.51 14.13 13.03 13.37C11.34 12.51 9.94 11.51 8.86 10.42L8.82 10.38C9.09 10.02 9.39 9.68 9.71 9.36L9.78 9.43C11.52 11.21 14.29 12.72 17.65 13.76C15.9 12.74 14.27 11.48 12.85 10.02C12.32 9.48 11.81 8.9 11.34 8.3L11.22 8.15C11.61 7.91 12.01 7.69 12.43 7.51C12.86 8.04 13.31 8.56 13.79 9.04C16.78 12.11 20.54 14.14 24.66 14.92C24.7 15.26 24.72 15.61 24.72 15.96C24.72 16.31 24.7 16.66 24.66 17C20.54 17.78 16.78 19.81 13.79 22.88V22.92ZM22.84 27.84L20.45 25.45C22.6 24.43 24.35 22.71 25.39 20.57L27.77 22.95C26.57 24.97 24.87 26.66 22.83 27.84H22.84Z" fill="#213147"/>
</g>
<defs>
<clipPath id="clip0_2485_43">
<rect width="32" height="32" fill="white"/>
</clipPath>
</defs>
</svg>
