<svg width="32" height="32" viewBox="0 0 32 32" fill="none" xmlns="http://www.w3.org/2000/svg">
  <path d="M22.7 22.21C22.54 22.03 22.28 21.94 21.91 21.94H21.54V25.16H21.91C22.27 25.16 22.54 25.07 22.7 24.89C22.86 24.7 22.95 24.43 22.95 24.08V23.02C22.95 22.67 22.87 22.4 22.7 22.21Z" fill="#213147"/>
  <path d="M16 0C7.16 0 0 7.16 0 16C0 24.84 7.16 32 16 32C24.84 32 32 24.84 32 16C32 7.16 24.84 0 16 0ZM12.19 24.33C12.19 24.76 12.1 25.13 11.92 25.45C11.75 25.77 11.49 26.01 11.15 26.19C10.82 26.36 10.43 26.44 9.96999 26.44C9.50999 26.44 9.11999 26.36 8.78999 26.19C8.45999 26.02 8.2 25.77 8.02 25.45C7.85 25.13 7.75999 24.76 7.75999 24.33V20.76H9.03V24.36C9.03 24.65 9.11 24.87 9.27 25.03C9.43 25.19 9.67 25.27 9.98 25.27C10.29 25.27 10.52 25.19 10.68 25.03C10.84 24.87 10.92 24.65 10.92 24.36V20.76H12.19V24.33ZM17.8 25.6C17.63 25.86 17.37 26.07 17.05 26.22C16.73 26.36 16.36 26.44 15.93 26.44C15.5 26.44 15.12 26.36 14.79 26.21C14.46 26.05 14.19 25.83 14 25.53C13.81 25.24 13.71 24.88 13.71 24.47V24.13H14.96V24.47C14.96 24.75 15.04 24.95 15.21 25.09C15.38 25.23 15.62 25.3 15.93 25.3C16.24 25.3 16.47 25.24 16.61 25.13C16.75 25.02 16.82 24.88 16.82 24.71C16.82 24.6 16.79 24.51 16.73 24.44C16.66 24.36 16.56 24.3 16.42 24.25C16.26 24.19 16.08 24.14 15.86 24.09L15.69 24.05C15.32 23.97 14.99 23.86 14.72 23.74C14.44 23.6 14.22 23.42 14.07 23.2C13.92 22.97 13.84 22.68 13.84 22.34C13.84 22 13.92 21.69 14.09 21.44C14.26 21.19 14.5 20.99 14.8 20.86C15.1 20.73 15.45 20.66 15.85 20.66C16.25 20.66 16.6 20.73 16.91 20.87C17.23 21.01 17.48 21.22 17.66 21.49C17.85 21.76 17.94 22.11 17.94 22.52V22.88H16.69V22.52C16.69 22.35 16.66 22.21 16.59 22.11C16.53 22 16.44 21.93 16.32 21.89C16.19 21.83 16.03 21.81 15.84 21.81C15.57 21.81 15.37 21.86 15.25 21.96C15.14 22.05 15.09 22.16 15.09 22.32C15.09 22.42 15.11 22.51 15.16 22.58C15.22 22.65 15.3 22.71 15.42 22.76C15.55 22.82 15.72 22.87 15.92 22.91L16.09 22.95C16.48 23.03 16.82 23.14 17.1 23.27C17.4 23.41 17.64 23.59 17.81 23.81C17.98 24.04 18.07 24.33 18.07 24.69C18.07 25.05 17.98 25.35 17.8 25.62V25.6ZM24.22 24.05C24.22 24.8 24.02 25.37 23.62 25.76C23.23 26.14 22.65 26.34 21.91 26.34H19.59V25.2H20.29V21.92H19.59V20.78H21.91C22.66 20.78 23.23 20.98 23.63 21.36C24.03 21.74 24.23 22.32 24.23 23.06V24.06L24.22 24.05ZM20.37 18.26L16 13.8L11.63 18.26L7.25999 13.8L16 4.88L24.74 13.8L20.37 18.26Z" fill="#213147"/>
</svg>
