<svg width="32" height="32" viewBox="0 0 32 32" fill="none" xmlns="http://www.w3.org/2000/svg">
  <path d="M32 16C32 24.84 24.84 32 16 32C7.16 32 0 24.84 0 16C0 7.16 7.16 0 16 0C24.84 0 32 7.16 32 16Z" fill="url(#paint0_linear_1032_2195)"/>
  <path d="M16 31.98C7.17 31.98 0.0199966 24.84 0.0199966 16.04C0.0199966 16.04 7.18 12.76 16 12.76C24.82 12.76 31.98 16.04 31.98 16.04C31.98 24.85 24.82 31.98 16 31.98Z" fill="url(#paint1_linear_1032_2195)"/>
  <path d="M24.74 13.8L16 4.88L7.25999 13.8L11.63 18.26L16 13.8L20.37 18.26L24.74 13.8Z" fill="white"/>
  <path d="M23.62 21.35C23.23 20.96 22.65 20.77 21.9 20.77H19.58V21.91H20.28V25.19H19.58V26.33H21.9C22.65 26.33 23.22 26.14 23.61 25.75C24.01 25.36 24.21 24.79 24.21 24.04V23.04C24.21 22.29 24.01 21.72 23.61 21.34L23.62 21.35ZM22.71 22.21C22.87 22.39 22.96 22.66 22.96 23.02V24.08C22.96 24.43 22.88 24.7 22.71 24.89C22.55 25.07 22.29 25.16 21.92 25.16H21.55V21.94H21.92C22.28 21.94 22.55 22.03 22.71 22.21Z" fill="#202332"/>
  <path d="M10.93 24.37C10.93 24.66 10.85 24.88 10.69 25.04C10.53 25.2 10.3 25.28 9.99 25.28C9.68 25.28 9.44 25.2 9.28 25.04C9.12 24.88 9.03999 24.66 9.03999 24.37V20.77H7.77V24.34C7.77 24.76 7.86 25.14 8.03 25.46C8.21 25.77 8.47 26.02 8.8 26.19C9.13 26.36 9.53 26.44 9.98 26.44C10.43 26.44 10.83 26.36 11.16 26.19C11.5 26.02 11.75 25.77 11.93 25.45C12.11 25.13 12.2 24.76 12.2 24.33V20.76H10.93V24.37Z" fill="#202332"/>
  <path d="M17.1 23.25C16.82 23.12 16.47 23.01 16.09 22.93L15.92 22.89C15.72 22.85 15.55 22.8 15.42 22.74C15.3 22.69 15.22 22.63 15.16 22.56C15.11 22.49 15.09 22.41 15.09 22.3C15.09 22.14 15.14 22.03 15.25 21.94C15.37 21.84 15.57 21.79 15.84 21.79C16.02 21.79 16.18 21.82 16.32 21.87C16.44 21.92 16.53 21.99 16.59 22.09C16.66 22.19 16.69 22.33 16.69 22.5V22.86H17.94V22.5C17.94 22.09 17.85 21.74 17.66 21.47C17.48 21.19 17.23 20.98 16.91 20.85C16.6 20.71 16.24 20.64 15.85 20.64C15.46 20.64 15.1 20.71 14.8 20.84C14.5 20.97 14.26 21.17 14.09 21.42C13.92 21.67 13.84 21.97 13.84 22.32C13.84 22.67 13.92 22.96 14.07 23.18C14.22 23.4 14.44 23.58 14.72 23.72C14.99 23.84 15.32 23.95 15.69 24.03L15.86 24.07C16.08 24.12 16.27 24.17 16.42 24.23C16.56 24.28 16.66 24.34 16.73 24.42C16.79 24.49 16.82 24.57 16.82 24.69C16.82 24.86 16.75 25 16.61 25.11C16.47 25.23 16.24 25.28 15.93 25.28C15.62 25.28 15.38 25.21 15.21 25.07C15.04 24.93 14.96 24.73 14.96 24.45V24.11H13.71V24.45C13.71 24.86 13.81 25.21 14 25.51C14.19 25.8 14.46 26.03 14.79 26.19C15.12 26.34 15.5 26.42 15.93 26.42C16.36 26.42 16.73 26.35 17.05 26.2C17.37 26.05 17.63 25.84 17.8 25.58C17.98 25.31 18.07 25 18.07 24.65C18.07 24.3 17.98 24 17.81 23.77C17.64 23.55 17.4 23.36 17.1 23.23V23.25Z" fill="#202332"/>
  <path d="M20.74 3.93C20.76 3.79 20.96 3.79 20.98 3.93L21.12 5.08C21.3 6.57 22.5 7.74 24.01 7.92L25.19 8.06C25.33 8.08 25.33 8.28 25.19 8.29L24.01 8.43C22.49 8.61 21.3 9.78 21.12 11.27L20.98 12.42C20.96 12.56 20.76 12.56 20.74 12.42L20.6 11.27C20.42 9.78 19.22 8.61 17.71 8.43L16.53 8.29C16.39 8.27 16.39 8.07 16.53 8.06L17.71 7.92C19.23 7.74 20.42 6.57 20.6 5.08L20.74 3.93Z" fill="url(#paint2_linear_1032_2195)"/>
  <defs>
    <linearGradient id="paint0_linear_1032_2195" x1="5.14" y1="25.66" x2="23.02" y2="9.76" gradientUnits="userSpaceOnUse">
      <stop offset="0.07" stop-color="#CBECE3"/>
      <stop offset="1" stop-color="#62C4A6"/>
    </linearGradient>
    <linearGradient id="paint1_linear_1032_2195" x1="12.9462" y1="-0.715921" x2="28.8468" y2="17.1536" gradientUnits="userSpaceOnUse">
      <stop offset="0.07" stop-color="#CBECE3"/>
      <stop offset="1" stop-color="#62C4A6"/>
    </linearGradient>
    <linearGradient id="paint2_linear_1032_2195" x1="20.12" y1="8.82995" x2="23.58" y2="5.76995" gradientUnits="userSpaceOnUse">
      <stop stop-color="#F5CFAE"/>
      <stop offset="1" stop-color="#F7F0E7"/>
    </linearGradient>
  </defs>
</svg>
