<svg width="32" height="32" viewBox="0 0 32 32" fill="none" xmlns="http://www.w3.org/2000/svg">
<g clip-path="url(#clip0_2491_156)">
<path d="M16 23.9699L19.14 18.5299H12.86L16 23.9699Z" fill="#213147"/>
<path d="M16 7.90994L12.86 13.3499H19.14L16 7.90994Z" fill="#213147"/>
<path d="M16 -0.0600586C7.18 -0.0600586 0 7.11994 0 15.9399C0 24.7599 7.18 31.9399 16 31.9399C24.82 31.9399 32 24.7599 32 15.9399C32 7.11994 24.82 -0.0600586 16 -0.0600586ZM16 4.98994L20.82 13.3499H23.63V14.6599H8.36V13.3499H11.17L15.99 4.98994H16ZM13.44 29.0699C7.26 27.8799 2.6 22.4499 2.6 15.9199C2.6 9.38994 7.27 3.95994 13.44 2.76994V4.01994C7.95 5.18994 3.83 10.0699 3.83 15.9099C3.83 21.7499 7.95 26.6299 13.44 27.7999V29.0699ZM16 26.8899L11.18 18.5299H8.37V17.2199H23.64V18.5299H20.83L16.01 26.8899H16ZM18.56 29.0599V27.7999C24.04 26.6199 28.15 21.7499 28.15 15.9099C28.15 10.0699 24.04 5.19994 18.56 4.01994V2.75994C24.72 3.95994 29.38 9.38994 29.38 15.8999C29.38 22.4099 24.73 27.8399 18.56 29.0399V29.0599Z" fill="#213147"/>
</g>
<defs>
<clipPath id="clip0_2491_156">
<rect width="32" height="32" fill="white"/>
</clipPath>
</defs>
</svg>
