<svg width="32" height="32" viewBox="0 0 32 32" fill="none" xmlns="http://www.w3.org/2000/svg">
<g clip-path="url(#clip0_2491_158)">
<path d="M16 0.57C24.52 0.57 31.43 7.48 31.43 16C31.43 24.52 24.52 31.43 16 31.43C7.48 31.43 0.57 24.52 0.57 16C0.57 7.48 7.48 0.57 16 0.57Z" fill="white"/>
<path d="M16 0.29C7.32 0.29 0.29 7.32 0.29 16C0.29 24.68 7.32 31.71 16 31.71C24.68 31.71 31.71 24.68 31.71 16C31.71 7.32 24.68 0.29 16 0.29Z" fill="url(#paint0_radial_2491_158)" fill-opacity="0.7"/>
<path d="M16 32C7.18 32 0 24.82 0 16C0 7.18 7.18 0 16 0C24.82 0 32 7.18 32 16C32 24.82 24.82 32 16 32ZM16 0.58C7.5 0.58 0.58 7.5 0.58 16C0.58 24.5 7.5 31.42 16 31.42C24.5 31.42 31.42 24.5 31.42 16C31.42 7.5 24.51 0.58 16 0.58Z" fill="url(#paint1_linear_2491_158)"/>
<path fill-rule="evenodd" clip-rule="evenodd" d="M13.44 2.83C7.26 4.02 2.6 9.46 2.6 15.98C2.6 22.5 7.27 27.94 13.44 29.13V27.88C7.95 26.71 3.83 21.83 3.83 15.99C3.83 10.15 7.95 5.26 13.44 4.09V2.83ZM18.56 4.09V2.83C24.72 4.03 29.38 9.46 29.38 15.97C29.38 22.48 24.73 27.91 18.56 29.11V27.85C24.04 26.67 28.15 21.8 28.15 15.96C28.15 10.12 24.04 5.25 18.56 4.07V4.09Z" fill="black"/>
<path d="M20.87 13.46L16.05 5.1L11.23 13.46H8.42V14.77H23.69V13.46H20.87ZM16.05 8.02L19.19 13.46H12.91L16.05 8.02Z" fill="black"/>
<path d="M11.23 18.64L16.05 27L20.87 18.64H23.68V17.33H8.41V18.64H11.23ZM16.05 24.08L12.91 18.64H19.19L16.05 24.08Z" fill="black"/>
</g>
<defs>
<radialGradient id="paint0_radial_2491_158" cx="0" cy="0" r="1" gradientUnits="userSpaceOnUse" gradientTransform="translate(21.7498 4.73074) rotate(90) scale(33.4971 23.5777)">
<stop offset="0.03" stop-color="#F9F9F9"/>
<stop offset="1" stop-color="#E2E2E2"/>
</radialGradient>
<linearGradient id="paint1_linear_2491_158" x1="4.69" y1="4.69" x2="27.31" y2="27.31" gradientUnits="userSpaceOnUse">
<stop stop-color="#F3F3F3"/>
<stop offset="1" stop-color="#BDBDBD"/>
</linearGradient>
<clipPath id="clip0_2491_158">
<rect width="32" height="32" fill="white"/>
</clipPath>
</defs>
</svg>
