<svg width="32" height="32" viewBox="0 0 32 32" fill="none" xmlns="http://www.w3.org/2000/svg">
<path d="M16 0.57C24.52 0.57 31.43 7.48 31.43 16C31.43 24.52 24.52 31.43 16 31.43C7.48 31.43 0.57 24.52 0.57 16C0.57 7.48 7.48 0.57 16 0.57Z" fill="white"/>
<path d="M16 0.29C7.32 0.29 0.29 7.32 0.29 16C0.29 24.68 7.32 31.71 16 31.71C24.68 31.71 31.71 24.68 31.71 16C31.71 7.32 24.68 0.29 16 0.29Z" fill="url(#paint0_radial_2491_152)" fill-opacity="0.7"/>
<path d="M16 32C7.18 32 0 24.82 0 16C0 7.18 7.18 0 16 0C24.82 0 32 7.18 32 16C32 24.82 24.82 32 16 32ZM16 0.58C7.5 0.58 0.58 7.5 0.58 16C0.58 24.5 7.5 31.42 16 31.42C24.5 31.42 31.42 24.5 31.42 16C31.42 7.5 24.51 0.58 16 0.58Z" fill="url(#paint1_linear_2491_152)"/>
<path fill-rule="evenodd" clip-rule="evenodd" d="M13.44 2.83C7.26 4.02 2.6 9.46 2.6 15.98C2.6 22.5 7.27 27.94 13.44 29.13V27.88C7.95 26.71 3.83 21.83 3.83 15.99C3.83 10.15 7.95 5.26 13.44 4.09V2.83ZM18.56 4.09V2.83C24.72 4.03 29.38 9.46 29.38 15.97C29.38 22.48 24.73 27.91 18.56 29.11V27.85C24.04 26.67 28.15 21.8 28.15 15.96C28.15 10.12 24.04 5.25 18.56 4.07V4.09Z" fill="black"/>
<path d="M17.9 15.53C18.92 15.72 19.71 16.1 20.28 16.66C20.84 17.2 21.12 17.9 21.12 18.75V20.08C21.12 21.1 20.75 21.92 20.02 22.54C19.29 23.15 18.32 23.46 17.13 23.46H16.72V25.59H15.31V23.46H14.88C14.09 23.46 13.4 23.29 12.8 22.94C12.2 22.58 11.73 22.08 11.39 21.44C11.06 20.79 10.9 20.04 10.9 19.19H12.31C12.31 20.05 12.55 20.75 13.02 21.3C13.5 21.83 14.14 22.09 14.93 22.09H17.11C17.88 22.09 18.5 21.91 18.98 21.55C19.45 21.17 19.69 20.69 19.69 20.09V18.76C19.69 18.29 19.51 17.88 19.16 17.55C18.82 17.22 18.35 17 17.75 16.9L14.21 16.27C13.21 16.09 12.44 15.71 11.89 15.14C11.34 14.57 11.06 13.85 11.06 12.99V11.86C11.06 10.84 11.41 10.04 12.12 9.44C12.84 8.83 13.79 8.52 14.97 8.52H15.32V6.39H16.73V8.52H17.18C18.29 8.52 19.19 8.88 19.87 9.6C20.55 10.31 20.89 11.25 20.89 12.42H19.48C19.48 11.66 19.27 11.04 18.85 10.58C18.43 10.12 17.87 9.89 17.18 9.89H14.96C14.21 9.89 13.62 10.07 13.17 10.43C12.72 10.78 12.5 11.25 12.5 11.85V12.98C12.5 13.47 12.66 13.88 12.99 14.21C13.33 14.54 13.8 14.77 14.38 14.88L17.9 15.53Z" fill="black"/>
<defs>
<radialGradient id="paint0_radial_2491_152" cx="0" cy="0" r="1" gradientUnits="userSpaceOnUse" gradientTransform="translate(21.7022 4.82241) rotate(90) scale(33.4971 23.5777)">
<stop offset="0.03" stop-color="#F9F9F9"/>
<stop offset="1" stop-color="#E2E2E2"/>
</radialGradient>
<linearGradient id="paint1_linear_2491_152" x1="4.69" y1="4.69" x2="27.31" y2="27.31" gradientUnits="userSpaceOnUse">
<stop stop-color="#F3F3F3"/>
<stop offset="1" stop-color="#BDBDBD"/>
</linearGradient>
</defs>
</svg>
