<svg width="32" height="32" viewBox="0 0 32 32" fill="none" xmlns="http://www.w3.org/2000/svg">
<g clip-path="url(#clip0_298_602)">
<path d="M16 32C24.84 32 32 24.84 32 16C32 7.16 24.84 0 16 0C7.16 0 0 7.16 0 16C0 24.84 7.16 32 16 32Z" fill="white"/>
<path fill-rule="evenodd" clip-rule="evenodd" d="M27.27 19.34L22.79 25.59C22.08 26.58 20.72 27.06 18.94 26.91C16.64 26.72 13.6 25.51 10.69 23.42C7.77 21.33 5.65 18.83 4.72 16.72C4.01 15.08 4.02001 13.64 4.74001 12.65L9.21001 6.4C9.93001 5.41 11.29 4.93 13.06 5.08C15.36 5.27 18.41 6.48 21.32 8.58C24.24 10.67 26.36 13.17 27.28 15.28C28 16.92 27.97 18.36 27.27 19.35V19.34ZM10.41 7.26C10.87 6.62 11.8 6.45 12.95 6.55C15.05 6.72 17.8 7.86 20.47 9.77C23.13 11.68 25.1 13.93 25.94 15.86C26.39 16.92 26.54 17.85 26.08 18.49L21.6 24.74C21.15 25.38 20.22 25.55 19.07 25.45C16.97 25.28 14.21 24.14 11.54 22.23C8.87999 20.32 6.91 18.07 6.08 16.14C5.62 15.08 5.48 14.15 5.94 13.51L10.41 7.26Z" fill="white"/>
<path fill-rule="evenodd" clip-rule="evenodd" d="M9.82 6.98C11.28 4.94 16.24 5.99 20.9 9.32C25.55 12.65 28.14 17.02 26.68 19.06L22.21 25.31C20.75 27.35 15.78 26.3 11.12 22.97C6.47 19.64 3.88 15.27 5.34 13.23L9.82 6.98Z" fill="white"/>
<path fill-rule="evenodd" clip-rule="evenodd" d="M9.49 6.61C10.14 5.7 11.4 5.3 13.03 5.43C15.28 5.61 18.25 6.82 21.11 8.86C23.96 10.91 26.06 13.35 26.95 15.41C27.6 16.91 27.62 18.23 26.97 19.14L22.5 25.39C21.85 26.3 20.58 26.7 18.96 26.57C16.71 26.37 13.73 25.18 10.88 23.13C8.02 21.09 5.93 18.65 5.03 16.59C4.38 15.09 4.35999 13.77 5.00999 12.86L9.49 6.61ZM26.35 18.69C26.87 17.96 26.76 16.9 26.25 15.71C25.39 13.75 23.39 11.44 20.65 9.48C17.93 7.53 15.09 6.37 12.96 6.19C11.66 6.08 10.63 6.32 10.11 7.05L10.09 7.09C9.59999 7.82 9.71 8.85 10.22 10.02C11.08 11.99 13.08 14.31 15.81 16.26C18.53 18.21 21.37 19.37 23.5 19.55C24.78 19.65 25.79 19.42 26.32 18.74L26.35 18.69ZM19.39 11.25C20.76 12.23 21.77 13.39 22.19 14.37C22.44 14.92 22.5 15.41 22.26 15.75C22.02 16.09 21.53 16.18 20.94 16.13C19.87 16.04 18.46 15.46 17.09 14.48C15.72 13.5 14.71 12.35 14.29 11.37C14.05 10.82 13.99 10.33 14.23 9.99C14.47 9.65 14.96 9.56 15.56 9.6C16.62 9.7 18.04 10.27 19.4 11.25H19.39Z" fill="#0E0F22"/>
<path d="M27.16 15.93C27.1 15.75 27.03 15.58 26.96 15.41C26.07 13.35 23.98 10.91 21.12 8.86C18.26 6.82 15.28 5.62 13.04 5.43C11.41 5.3 10.15 5.7 9.50001 6.61L5.02001 12.86C4.37001 13.77 4.39 15.09 5.04 16.59C5.63 17.95 6.75 19.48 8.26 20.95C8.39 20.94 8.53001 20.92 8.66001 20.89C9.47001 20.71 10.24 20 11.01 19.28C12 18.36 12.99 17.45 14.03 17.7C14.76 17.86 15.34 18.64 15.94 19.43C16.19 19.77 16.45 20.11 16.72 20.4C17.59 21.4 18.54 21.84 19.51 21.64C20.61 21.42 21.45 20.45 22.24 19.36C20.32 18.92 18.03 17.86 15.82 16.27C13.1 14.32 11.09 12.01 10.23 10.03C9.72 8.86 9.61001 7.83 10.1 7.1L10.12 7.06C10.64 6.33 11.67 6.09 12.97 6.2C15.11 6.37 17.94 7.53 20.66 9.49C23.39 11.44 25.4 13.75 26.26 15.71C26.3 15.71 26.35 15.71 26.39 15.71C26.7 15.74 26.95 15.82 27.16 15.93Z" fill="url(#paint0_linear_298_602)"/>
<path d="M22.19 14.37C21.77 13.38 20.76 12.22 19.39 11.25C18.03 10.27 16.61 9.7 15.55 9.6C14.94 9.56 14.45 9.65 14.22 9.99C13.98 10.33 14.05 10.81 14.29 11.37C14.71 12.36 15.72 13.51 17.09 14.48C18.46 15.46 19.87 16.04 20.94 16.13C21.54 16.18 22.02 16.09 22.26 15.75C22.51 15.41 22.44 14.93 22.19 14.37Z" fill="url(#paint1_linear_298_602)"/>
<path fill-rule="evenodd" clip-rule="evenodd" d="M22.42 20.41C23.27 20.55 24.05 20.58 24.7 20.48C24.79 20.47 24.85 20.38 24.84 20.3C24.82 20.21 24.74 20.15 24.66 20.16C24.03 20.27 23.29 20.24 22.48 20.09C22.39 20.08 22.31 20.14 22.3 20.23C22.29 20.32 22.34 20.4 22.43 20.41H22.42ZM21.14 20.13C21.36 20.18 21.56 20.24 21.78 20.28C21.87 20.3 21.95 20.25 21.96 20.16C21.98 20.07 21.93 19.99 21.84 19.96C21.63 19.92 21.43 19.86 21.22 19.81C21.13 19.78 21.04 19.83 21.01 19.92C20.99 20.01 21.04 20.09 21.13 20.13H21.14ZM9.02 9.85C9.63 12.33 12.01 14.66 13.94 16.31C14.01 16.38 14.11 16.36 14.17 16.3C14.22 16.22 14.22 16.13 14.15 16.07C12.28 14.45 9.94001 12.2 9.35001 9.78C9.33001 9.69 9.23 9.64 9.14 9.66C9.05 9.68 9 9.77 9.02 9.86V9.85ZM8.88 8.85C8.88 8.96 8.88999 9.08 8.89999 9.19C8.90999 9.28 9 9.34 9.08 9.33C9.17 9.32 9.23 9.24 9.22 9.16C9.21 9.05 9.2 8.94 9.2 8.85C9.2 8.76 9.12 8.69 9.03 8.69C8.94 8.7 8.88 8.78 8.88 8.86V8.85Z" fill="white"/>
</g>
<defs>
<linearGradient id="paint0_linear_298_602" x1="13.1545" y1="-0.188779" x2="21.1455" y2="28.7622" gradientUnits="userSpaceOnUse">
<stop stop-color="#56ACE0"/>
<stop offset="0.52" stop-color="#B56FAE"/>
<stop offset="1" stop-color="#E65F9D"/>
</linearGradient>
<linearGradient id="paint1_linear_298_602" x1="9.77373" y1="-23.5967" x2="28.1885" y2="49.1685" gradientUnits="userSpaceOnUse">
<stop stop-color="#56ACE0"/>
<stop offset="0.52" stop-color="#B56FAE"/>
<stop offset="1" stop-color="#E65F9D"/>
</linearGradient>
<clipPath id="clip0_298_602">
<rect width="32" height="32" fill="white"/>
</clipPath>
</defs>
</svg>
