<svg width="32" height="32" viewBox="0 0 32 32" fill="none" xmlns="http://www.w3.org/2000/svg">
<g clip-path="url(#clip0_3022_5)">
<path d="M16.12 31.98C24.99 31.98 32.12 24.85 32.12 15.98C32.12 7.10998 24.99 -0.0200195 16.12 -0.0200195C7.25 -0.0200195 0.119995 7.10998 0.119995 15.98C0.119995 24.85 7.25 31.98 16.12 31.98Z" fill="#EA9460"/>
<path d="M20.52 18.5201C20.52 16.1901 19.12 15.3901 16.32 15.0501C14.32 14.7801 13.92 14.2501 13.92 13.3201C13.92 12.3901 14.59 11.7901 15.92 11.7901C17.12 11.7901 17.79 12.1901 18.12 13.1901C18.19 13.3901 18.39 13.5201 18.59 13.5201H19.66C19.93 13.5201 20.13 13.3201 20.13 13.0501V12.9801C19.86 11.5101 18.66 10.3801 17.13 10.2501V8.65012C17.13 8.38012 16.93 8.18012 16.6 8.12012H15.6C15.33 8.12012 15.13 8.32012 15.07 8.65012V10.1801C13.07 10.4501 11.8 11.7801 11.8 13.4501C11.8 15.6501 13.13 16.5201 15.93 16.8501C17.8 17.1801 18.4 17.5801 18.4 18.6501C18.4 19.7201 17.47 20.4501 16.2 20.4501C14.47 20.4501 13.87 19.7201 13.67 18.7201C13.6 18.4501 13.4 18.3201 13.2 18.3201H12.07C11.8 18.3201 11.6 18.5201 11.6 18.7901V18.8601C11.87 20.5301 12.93 21.7301 15.13 22.0601V23.6601C15.13 23.9301 15.33 24.1301 15.66 24.1901H16.66C16.93 24.1901 17.13 23.9901 17.19 23.6601V22.0601C19.19 21.7301 20.52 20.3301 20.52 18.5301V18.5201Z" fill="white"/>
<path fill-rule="evenodd" clip-rule="evenodd" d="M6.79001 12.7101C4.86001 17.8401 7.52001 23.6401 12.72 25.5101C12.92 25.6401 13.12 25.9101 13.12 26.1101V27.0401C13.12 27.1701 13.12 27.2401 13.05 27.3101C12.98 27.5801 12.72 27.7101 12.45 27.5801C8.72001 26.3801 5.85001 23.5101 4.65001 19.7801C2.65001 13.4501 6.12001 6.71014 12.45 4.71014C12.52 4.64014 12.65 4.64014 12.72 4.64014C12.99 4.71014 13.12 4.91014 13.12 5.17014V6.10014C13.12 6.43014 12.99 6.63014 12.72 6.77014C9.99001 7.77014 7.79001 9.90014 6.79001 12.7001V12.7101ZM19.19 4.98014C19.26 4.71014 19.52 4.58014 19.79 4.71014C23.46 5.91014 26.39 8.78014 27.59 12.5801C29.59 18.9101 26.12 25.6501 19.79 27.6501C19.72 27.7201 19.59 27.7201 19.52 27.7201C19.25 27.6501 19.12 27.4501 19.12 27.1901V26.2601C19.12 25.9301 19.25 25.7301 19.52 25.5901C22.25 24.5901 24.45 22.4601 25.45 19.6601C27.38 14.5301 24.72 8.73014 19.52 6.86014C19.32 6.73014 19.12 6.46014 19.12 6.19014V5.26014C19.12 5.13014 19.12 5.06014 19.19 4.99014V4.98014Z" fill="white"/>
</g>
<defs>
<clipPath id="clip0_3022_5">
<rect width="32" height="32" fill="white"/>
</clipPath>
</defs>
</svg>
