<svg width="32" height="32" viewBox="0 0 32 32" fill="none" xmlns="http://www.w3.org/2000/svg">
<g clip-path="url(#clip0_3022_3)">
<g clip-path="url(#clip1_3022_3)">
<path d="M16 0C7.13 0 0 7.13 0 16C0 24.87 7.13 32 16 32C24.87 32 32 24.87 32 16C32 7.13 24.87 0 16 0ZM13 27.07C13 27.2 13 27.27 12.93 27.34C12.86 27.61 12.6 27.74 12.33 27.61C8.6 26.41 5.73 23.54 4.53 19.81C2.53 13.48 6 6.74 12.33 4.74C12.4 4.67 12.53 4.67 12.6 4.67C12.87 4.74 13 4.94 13 5.2V6.13C13 6.46 12.87 6.66 12.6 6.8C9.87 7.8 7.67 9.93 6.67 12.73C4.74 17.86 7.4 23.66 12.6 25.53C12.8 25.66 13 25.93 13 26.13V27.06V27.07ZM17.07 23.67C17 24 16.8 24.2 16.54 24.2H15.54C15.21 24.13 15.01 23.93 15.01 23.67V22.07C12.81 21.74 11.74 20.54 11.48 18.87V18.8C11.48 18.53 11.68 18.33 11.95 18.33H13.08C13.28 18.33 13.48 18.46 13.55 18.73C13.75 19.73 14.35 20.46 16.08 20.46C17.35 20.46 18.28 19.73 18.28 18.66C18.28 17.59 17.68 17.19 15.81 16.86C13.01 16.53 11.68 15.66 11.68 13.46C11.68 11.79 12.95 10.46 14.95 10.19V8.66C15.02 8.33 15.22 8.13 15.48 8.13H16.48C16.81 8.2 17.01 8.4 17.01 8.66V10.26C18.54 10.39 19.74 11.53 20.01 12.99V13.06C20.01 13.33 19.81 13.53 19.54 13.53H18.47C18.27 13.53 18.07 13.4 18 13.2C17.67 12.2 17 11.8 15.8 11.8C14.47 11.8 13.8 12.4 13.8 13.33C13.8 14.26 14.2 14.8 16.2 15.06C19 15.39 20.4 16.19 20.4 18.53C20.4 20.33 19.07 21.73 17.07 22.06V23.66V23.67ZM19.67 27.67C19.6 27.74 19.47 27.74 19.4 27.74C19.13 27.67 19 27.47 19 27.21V26.28C19 25.95 19.13 25.75 19.4 25.61C22.13 24.61 24.33 22.48 25.33 19.68C27.26 14.55 24.6 8.75 19.4 6.88C19.2 6.75 19 6.48 19 6.21V5.28C19 5.15 19 5.08 19.07 5.01C19.14 4.74 19.4 4.61 19.67 4.74C23.34 5.94 26.27 8.81 27.47 12.61C29.47 18.94 26 25.68 19.67 27.68V27.67Z" fill="#213147"/>
</g>
</g>
<defs>
<clipPath id="clip0_3022_3">
<rect width="32" height="32" fill="white"/>
</clipPath>
<clipPath id="clip1_3022_3">
<rect width="32" height="32" fill="white"/>
</clipPath>
</defs>
</svg>
