<svg width="32" height="32" viewBox="0 0 32 32" fill="none" xmlns="http://www.w3.org/2000/svg">
<g clip-path="url(#clip0_3022_25)">
<path d="M16 32C24.8366 32 32 24.8366 32 16C32 7.16344 24.8366 0 16 0C7.16344 0 0 7.16344 0 16C0 24.8366 7.16344 32 16 32Z" fill="#EA9460"/>
<path fill-rule="evenodd" clip-rule="evenodd" d="M17.92 17.38C17.81 17.38 17.24 17.42 15.98 17.42C14.97 17.42 14.26 17.39 14.01 17.38C10.12 17.21 7.22 16.54 7.22 15.73C7.22 14.92 10.12 14.24 14.01 14.07V16.71C14.26 16.73 14.99 16.77 16 16.77C17.21 16.77 17.81 16.72 17.93 16.71V14.07C21.81 14.24 24.7 14.92 24.7 15.73C24.7 16.54 21.8 17.21 17.93 17.39M17.92 13.79V11.42H23.33V7.81H8.59V11.42H14V13.78C9.6 13.98 6.29 14.85 6.29 15.9C6.29 16.95 9.6 17.82 14 18.02V25.6H17.91V18.02C22.3 17.82 25.6 16.95 25.6 15.9C25.6 14.85 22.3 13.99 17.91 13.78" fill="white"/>
</g>
<defs>
<clipPath id="clip0_3022_25">
<rect width="32" height="32" fill="white"/>
</clipPath>
</defs>
</svg>
