<svg width="32" height="32" viewBox="0 0 32 32" fill="none" xmlns="http://www.w3.org/2000/svg">
  <path d="M16 32C24.8366 32 32 24.8366 32 16C32 7.16344 24.8366 0 16 0C7.16344 0 0 7.16344 0 16C0 24.8366 7.16344 32 16 32Z" fill="#C5904A"/>
  <path d="M26.8 9.77L25.41 9.69C25.21 9.68 25.04 9.52 25.02 9.31L24.9 8.02C24.9 8.02 24.85 7.94 24.81 7.94C24.76 7.94 24.73 7.97 24.72 8.02L24.6 9.31C24.58 9.52 24.42 9.68 24.21 9.69L22.82 9.78C22.77 9.78 22.74 9.84 22.75 9.89C22.75 9.93 22.79 9.96 22.82 9.96L24.21 10.04C24.41 10.05 24.58 10.21 24.6 10.42L24.72 11.71C24.72 11.76 24.78 11.79 24.83 11.79C24.87 11.79 24.9 11.75 24.91 11.71L25.03 10.42C25.05 10.22 25.21 10.06 25.42 10.04L26.81 9.95C26.86 9.95 26.89 9.89 26.88 9.84C26.88 9.8 26.84 9.77 26.81 9.77H26.8Z" fill="#0B2422"/>
  <path fill-rule="evenodd" clip-rule="evenodd" d="M23.87 14.6L24.1 14.76C24.3 14.9 24.46 15.09 24.56 15.32C24.61 15.45 24.62 15.58 24.61 15.72C24.58 16.03 24.49 16.34 24.34 16.61C24.29 16.7 24.23 16.79 24.16 16.88L24.13 16.92L24.17 17.18C24.18 17.28 24.19 17.39 24.19 17.49C24.19 18.32 23.81 19.11 23.17 19.65L23.13 19.68H23.08C22.67 19.84 22.26 19.95 21.83 20.04C21.4 20.13 20.96 20.17 20.51 20.15H20.45C19.58 19.87 18.68 19.69 17.77 19.6C17.71 19.6 17.65 19.6 17.59 19.59C17.41 19.58 17.23 19.56 17.05 19.53C16.8 19.49 16.56 19.43 16.33 19.34C15.92 19.2 15.49 19.12 15.06 19.12H15.05C14.8 19.52 14.72 20 14.84 20.46C14.95 21.02 15.15 21.57 15.42 22.08C15.73 22.61 16.02 23.16 16.26 23.73C16.39 24.03 16.49 24.35 16.55 24.67C16.61 25.02 16.59 25.39 16.47 25.73L16.33 26.13L15.98 25.87C15.93 25.83 15.87 25.8 15.81 25.77C15.78 25.97 15.74 26.16 15.69 26.35C15.59 26.68 15.45 27 15.27 27.3C15.03 25.41 13.71 24.87 12.42 24.34C11.84 24.1 11.27 23.87 10.81 23.52C9.30998 22.38 9.17997 21.06 10.11 18.73C10.39 18.01 10.6 17.27 10.73 16.51C10.76 16.32 10.8 16.12 10.84 15.93L10.87 15.81C10.87 15.89 10.87 15.96 10.87 16.04C10.87 16.22 10.8799 16.41 10.9 16.59C10.91 16.84 10.96 17.08 11.05 17.31C11.09 17.41 11.14 17.5 11.22 17.58C11.24 17.6 11.26 17.62 11.29 17.65L11.35 17.71C11.35 17.71 11.43 17.79 11.47 17.83C11.66 17.97 11.86 18.08 12.08 18.16C12.54 18.32 13.03 18.43 13.52 18.47C13.99 18.53 14.47 18.55 14.95 18.55H15.02C15.52 18.55 16.02 18.64 16.49 18.8C16.91 18.94 17.35 19.02 17.8 19.03C18.74 19.12 19.66 19.31 20.56 19.59C20.94 19.59 21.33 19.57 21.7 19.49C21.97 19.44 22.23 19.37 22.49 19.29C23.07 19.04 23.46 18.37 22.67 18.46C22.48 18.47 22.3 18.5 22.11 18.54C21.96 18.57 21.82 18.62 21.67 18.67C21.53 18.73 21.38 18.77 21.23 18.81C20.91 18.89 20.57 18.88 20.25 18.79C19.97 18.68 19.68 18.61 19.38 18.58C19.52 18.5 19.68 18.45 19.84 18.44C19.96 18.43 20.06 18.44 20.16 18.44C20.21 18.44 20.26 18.44 20.3 18.44C20.57 18.47 20.85 18.46 21.12 18.4C21.26 18.36 21.39 18.29 21.54 18.21C21.66 18.15 21.79 18.08 21.93 18.02C22.23 17.89 22.56 17.82 22.89 17.82H23.09C23.32 17.5 23.51 17.15 23.44 16.85C23.35 16.73 23.23 16.64 23.09 16.59C23.02 16.57 22.95 16.55 22.88 16.53C22.53 16.44 21.9 16.27 21.65 16.05C21.4599 15.86 21.57 15.48 22.34 15.32C22.69 15.26 23.0499 15.25 23.4 15.29C23.52 15.31 23.64 15.29 23.76 15.26L23.72 15.22L23.5 15.06L23.28 14.89L22.41 14.22C22.27 14.11 22.13 14.01 21.98 13.91L21.91 13.87L21.77 13.81C21.39 13.65 21.04 13.42 20.73 13.14C19.88 12.43 18.92 10.7 18.67 10.14C18.47 9.71 18.12 9.36 17.68 9.17C18.11 9.15 18.54 9.32 18.82 9.65C18.89 9.71 19.03 9.91 19.19 10.15C19.52 10.63 19.97 11.28 20.25 11.31C20.4 11.31 20.55 11.28 20.69 11.24C20.55 11.11 20.43 10.96 20.31 10.81C20.17 10.62 20.05 10.42 19.93 10.21C19.89 10.14 19.85 10.08 19.81 10.01C19.68 9.77 19.53 9.54 19.35 9.33C19.31 9.29 19.27 9.25 19.22 9.21C19.17 9.17 19.12 9.14 19.07 9.12C18.94 9.06 18.81 9 18.68 8.95C18.53 8.89 18.38 8.83 18.24 8.76L17.83 8.56L17.02 8.16C16.48 7.9 15.93 7.68 15.37 7.49C14.81 7.31 14.2299 7.18 13.65 7.11C13.5099 7.09 13.37 7.08 13.23 7.08C13.12 7.08 13.0099 7.1 12.9 7.15C12.8499 7.17 12.79 7.2 12.73 7.23C12.66 7.27 12.58 7.31 12.49 7.35L12.09 7.54C11.57 7.8 11.06 8.11 10.59 8.46C10.21 8.71 9.86996 9.02 9.59996 9.38C10.01 9.36 10.42 9.42 10.81 9.55C10.29 9.55 9.76 9.62 9.26 9.77C9.01 9.84 8.77996 9.93 8.53996 10.04C8.30997 10.14 8.07998 10.25 7.86998 10.39C7.65998 10.51 7.45996 10.66 7.28996 10.83C7.21996 10.9 7.15999 10.99 7.12999 11.08C7.07999 11.19 7.02998 11.31 6.98998 11.43C6.81998 11.92 6.68995 12.42 6.58995 12.93C6.37995 13.94 6.29997 14.97 6.35997 16C6.39997 16.83 6.61999 17.65 6.99999 18.39C7.35999 17.92 7.70996 17.44 8.03996 16.96C8.46996 16.33 8.86999 15.69 9.24999 15.02C9.43999 14.68 9.60995 14.32 9.77995 13.96C9.93995 13.63 10.09 13.29 10.27 12.96C10.45 12.61 10.66 12.27 10.9 11.96C11.0199 11.8 11.17 11.65 11.33 11.52C11.49 11.39 11.68 11.31 11.89 11.3C11.24 11.88 10.73 13.45 10.23 15.21C9.81997 16.64 8.43999 19.89 7.56999 19.97C7.22999 19.99 7.10999 19.83 6.87999 19.5L6.68999 19.24C6.35999 18.77 6.09998 18.26 5.92998 17.71C5.77998 17.17 5.68995 16.62 5.64995 16.06C5.61995 15.51 5.63999 14.96 5.68999 14.41C5.74999 13.87 5.83996 13.33 5.96996 12.8C6.08996 12.27 6.24999 11.74 6.43999 11.23C6.48999 11.1 6.53997 10.97 6.60997 10.84C6.64997 10.77 6.68997 10.7 6.72997 10.63C6.77997 10.56 6.83 10.5 6.89 10.44C7.1 10.24 7.33996 10.07 7.59996 9.93C8.02996 9.71 8.48996 9.55 8.96996 9.46C9.09996 9.16 9.29001 8.89 9.52001 8.65C9.74001 8.42 9.97998 8.21 10.24 8.02C10.72 7.64 11.24 7.3 11.79 7.03C11.92 6.96 12.0999 6.88 12.2099 6.83C12.2699 6.81 12.33 6.77 12.39 6.74C12.46 6.7 12.53 6.67 12.62 6.63C12.79 6.55 12.98 6.51 13.18 6.51C13.34 6.51 13.5 6.52 13.67 6.55C14.29 6.62 14.91 6.75 15.51 6.95C16.1 7.15 16.67 7.38 17.23 7.65L18.4599 8.25C18.5499 8.3 18.67 8.34 18.79 8.39L18.86 8.42C19.01 8.48 19.15 8.54 19.3 8.61C19.38 8.65 19.46 8.7 19.54 8.75C19.61 8.81 19.68 8.87 19.74 8.94C19.96 9.18 20.16 9.45 20.32 9.73L20.34 9.76C20.64 10.28 20.92 10.77 21.35 11.05L21.7 11.28V11.32L21.6 11.49L21.28 11.57C21.22 11.59 21.17 11.63 21.14 11.69C21.12 11.72 21.12 11.75 21.11 11.78C21.11 11.84 21.11 11.91 21.11 11.97C21.11 12.07 21.1 12.17 21.07 12.26C21.05 12.31 21.04 12.36 21.02 12.39C21.02 12.41 21 12.44 20.99 12.46C20.97 12.5 20.97 12.55 20.99 12.59C21.22 12.83 21.48 13.02 21.77 13.17C21.84 13.21 21.92 13.25 22 13.28L22.12 13.33C22.18 13.36 22.24 13.39 22.29 13.43C22.44 13.53 22.57 13.62 22.7 13.72L22.75 13.76L23.62 14.43L23.83 14.59L23.87 14.6ZM16.31 12.76C16.24 12.76 16.16 12.76 16.09 12.76C15.59 12.73 15.35 12.39 15.43 12.04C15.51 11.69 15.46 11.57 15.36 11.57C15.21 11.62 15.08 11.73 14.99 11.86H14.97C14.97 11.86 14.95 11.86 14.94 11.86C14.94 11.86 14.93 11.84 14.93 11.83C15.03 11.1 15.46 11.07 15.65 11.07C16.2299 11.11 16.8 11.21 17.36 11.36C17.38 11.36 17.3899 11.36 17.4 11.38C17.43 11.41 17.43 11.46 17.4 11.5C17.4 11.5 17.4 11.5 17.39 11.51C17.22 11.66 17.15 11.89 17.19 12.11C17.23 12.45 16.82 12.72 16.32 12.78L16.31 12.76Z" fill="#0B2422"/>
</svg>
