<svg width="32" height="32" viewBox="0 0 32 32" fill="none" xmlns="http://www.w3.org/2000/svg">
  <path d="M16 0C7.16 0 0 7.16 0 16C0 24.84 7.16 32 16 32C24.84 32 32 24.84 32 16C32 7.16 24.84 0 16 0ZM24.34 16.61C24.29 16.7 24.23 16.79 24.16 16.88L24.13 16.92L24.17 17.18C24.18 17.28 24.19 17.39 24.19 17.49C24.19 18.32 23.81 19.11 23.17 19.65L23.13 19.68H23.08C22.67 19.84 22.26 19.95 21.83 20.04C21.4 20.13 20.96 20.17 20.51 20.15H20.45C19.58 19.87 18.68 19.69 17.77 19.6C17.71 19.6 17.65 19.6 17.59 19.59C17.41 19.58 17.23 19.56 17.05 19.53C16.8 19.49 16.56 19.43 16.33 19.34C15.92 19.2 15.49 19.12 15.06 19.12H15.05C14.8 19.52 14.72 20 14.84 20.46C14.95 21.02 15.15 21.57 15.42 22.08C15.73 22.61 16.02 23.16 16.26 23.73C16.39 24.03 16.49 24.35 16.55 24.67C16.61 25.02 16.59 25.39 16.47 25.73L16.33 26.13L15.98 25.87C15.93 25.83 15.87 25.8 15.81 25.77C15.78 25.97 15.74 26.16 15.69 26.35C15.59 26.68 15.45 27 15.27 27.3C15.03 25.41 13.71 24.87 12.42 24.34C11.84 24.1 11.27 23.87 10.81 23.52C9.31 22.38 9.17999 21.06 10.11 18.73C10.39 18.01 10.6 17.27 10.73 16.51C10.76 16.32 10.8 16.12 10.84 15.93L10.87 15.81C10.87 15.89 10.87 15.96 10.87 16.04C10.87 16.22 10.88 16.41 10.9 16.59C10.91 16.84 10.96 17.08 11.05 17.31C11.09 17.41 11.14 17.5 11.22 17.58C11.24 17.6 11.26 17.62 11.29 17.65L11.35 17.71C11.35 17.71 11.43 17.79 11.47 17.83C11.66 17.97 11.86 18.08 12.08 18.16C12.54 18.32 13.03 18.43 13.52 18.47C13.99 18.53 14.47 18.55 14.95 18.55H15.02C15.52 18.55 16.02 18.64 16.49 18.8C16.91 18.94 17.35 19.02 17.8 19.03C18.74 19.12 19.66 19.31 20.56 19.59C20.94 19.59 21.33 19.57 21.7 19.49C21.97 19.44 22.23 19.37 22.49 19.29C23.07 19.04 23.46 18.37 22.67 18.46C22.48 18.47 22.3 18.5 22.11 18.54C21.96 18.57 21.82 18.62 21.67 18.67C21.53 18.73 21.38 18.77 21.23 18.81C20.91 18.89 20.57 18.88 20.25 18.79C19.97 18.68 19.68 18.61 19.38 18.58C19.52 18.5 19.68 18.45 19.84 18.44C19.96 18.43 20.06 18.44 20.16 18.44C20.21 18.44 20.26 18.44 20.3 18.44C20.57 18.47 20.85 18.46 21.12 18.4C21.26 18.36 21.39 18.29 21.54 18.21C21.66 18.15 21.79 18.08 21.93 18.02C22.23 17.89 22.56 17.82 22.89 17.82H23.09C23.32 17.5 23.51 17.15 23.44 16.85C23.35 16.73 23.23 16.64 23.09 16.59C23.02 16.57 22.95 16.55 22.88 16.53C22.53 16.44 21.9 16.27 21.65 16.05C21.46 15.86 21.57 15.48 22.34 15.32C22.69 15.26 23.05 15.25 23.4 15.29C23.52 15.31 23.64 15.3 23.76 15.26L23.72 15.22L23.5 15.06L23.28 14.89L22.41 14.22C22.27 14.11 22.13 14.01 21.98 13.91L21.91 13.87L21.77 13.81C21.39 13.65 21.04 13.42 20.73 13.14C19.88 12.43 18.92 10.7 18.67 10.14C18.47 9.71 18.12 9.36 17.68 9.17C18.11 9.15 18.54 9.32 18.82 9.65C18.89 9.71 19.03 9.91 19.19 10.15C19.52 10.63 19.97 11.28 20.25 11.31C20.4 11.31 20.55 11.28 20.69 11.24C20.55 11.11 20.43 10.96 20.31 10.81C20.17 10.62 20.05 10.42 19.93 10.21C19.89 10.14 19.85 10.08 19.81 10.01C19.68 9.77 19.53 9.54 19.35 9.33C19.31 9.29 19.26 9.25 19.22 9.21C19.17 9.17 19.12 9.14 19.07 9.12C18.94 9.06 18.81 9 18.68 8.95C18.53 8.89 18.38 8.83 18.24 8.76L17.83 8.56L17.02 8.16C16.48 7.9 15.93 7.68 15.37 7.49C14.81 7.31 14.23 7.18 13.65 7.11C13.51 7.09 13.37 7.08 13.23 7.08C13.12 7.08 13.01 7.1 12.9 7.15C12.85 7.17 12.79 7.2 12.73 7.23C12.66 7.27 12.58 7.31 12.49 7.35L12.09 7.54C11.57 7.8 11.06 8.11 10.59 8.46C10.21 8.71 9.86998 9.02 9.59998 9.38C10.01 9.36 10.42 9.42 10.81 9.55C10.29 9.55 9.76001 9.62 9.26001 9.77C9.01001 9.84 8.77998 9.93 8.53998 10.04C8.30998 10.14 8.08 10.25 7.87 10.39C7.66 10.51 7.45998 10.66 7.28998 10.83C7.21998 10.9 7.16001 10.99 7.13 11.08C7.08 11.19 7.02999 11.31 6.98999 11.43C6.81999 11.92 6.68997 12.42 6.58997 12.93C6.37997 13.94 6.29999 14.97 6.35999 16C6.39999 16.83 6.62 17.65 7 18.39C7.36 17.92 7.70998 17.44 8.03998 16.96C8.46998 16.33 8.87 15.69 9.25 15.02C9.44 14.68 9.60997 14.32 9.77997 13.96C9.93997 13.63 10.09 13.29 10.27 12.96C10.45 12.61 10.66 12.27 10.9 11.96C11.02 11.8 11.17 11.65 11.33 11.52C11.49 11.39 11.68 11.31 11.89 11.3C11.24 11.88 10.73 13.45 10.23 15.21C9.81998 16.64 8.44001 19.89 7.57001 19.97C7.23001 19.99 7.11 19.83 6.88 19.5L6.69 19.24C6.36 18.77 6.09999 18.26 5.92999 17.71C5.77999 17.17 5.68996 16.62 5.64996 16.06C5.61996 15.51 5.64 14.96 5.69 14.41C5.75 13.87 5.83997 13.33 5.96997 12.8C6.08997 12.27 6.25 11.74 6.44 11.23C6.49 11.1 6.53999 10.97 6.60999 10.84C6.64999 10.77 6.68998 10.7 6.72998 10.63C6.77998 10.56 6.83001 10.5 6.89001 10.44C7.10001 10.24 7.33998 10.07 7.59998 9.93C8.02998 9.71 8.48997 9.55 8.96997 9.46C9.09997 9.16 9.29002 8.89 9.52002 8.65C9.74002 8.42 9.97999 8.21 10.24 8.02C10.72 7.64 11.24 7.3 11.79 7.03C11.92 6.96 12.1 6.88 12.21 6.83C12.27 6.81 12.33 6.77 12.39 6.74C12.46 6.7 12.53 6.67 12.62 6.63C12.79 6.55 12.98 6.51 13.18 6.51C13.34 6.51 13.5 6.52 13.67 6.55C14.29 6.62 14.91 6.75 15.51 6.95C16.1 7.15 16.67 7.38 17.23 7.65L18.05 8.05L18.46 8.25C18.55 8.3 18.67 8.34 18.79 8.39L18.86 8.42C19.01 8.48 19.15 8.54 19.3 8.61C19.38 8.65 19.46 8.7 19.54 8.75C19.61 8.81 19.68 8.87 19.74 8.94C19.96 9.18 20.16 9.45 20.32 9.73L20.34 9.76C20.64 10.28 20.92 10.77 21.35 11.05L21.7 11.28V11.32L21.6 11.49L21.28 11.57C21.22 11.59 21.17 11.63 21.14 11.69C21.12 11.72 21.12 11.75 21.11 11.78C21.11 11.84 21.11 11.91 21.11 11.97C21.11 12.07 21.1 12.17 21.07 12.26C21.05 12.31 21.04 12.36 21.02 12.39C21.02 12.41 21 12.44 20.99 12.46C20.97 12.5 20.97 12.55 20.99 12.59C21.22 12.83 21.48 13.02 21.77 13.17C21.84 13.21 21.92 13.25 22 13.28L22.12 13.33C22.18 13.36 22.24 13.39 22.29 13.43C22.44 13.53 22.57 13.62 22.7 13.72L22.75 13.76L23.62 14.43L23.83 14.59L24.06 14.75C24.26 14.89 24.42 15.08 24.52 15.31C24.57 15.44 24.58 15.57 24.57 15.71C24.54 16.02 24.45 16.33 24.3 16.6L24.34 16.61ZM15.36 11.57C15.21 11.62 15.08 11.73 14.99 11.86H14.97C14.97 11.86 14.95 11.86 14.94 11.86C14.94 11.86 14.93 11.84 14.93 11.83C15.03 11.1 15.46 11.07 15.65 11.07C16.23 11.11 16.8 11.21 17.36 11.36C17.38 11.36 17.39 11.36 17.4 11.38C17.43 11.41 17.43 11.46 17.4 11.5C17.4 11.5 17.4 11.5 17.39 11.51C17.22 11.66 17.15 11.89 17.19 12.11C17.23 12.45 16.82 12.72 16.32 12.78C16.25 12.78 16.17 12.78 16.1 12.78C15.6 12.75 15.36 12.41 15.44 12.06C15.52 11.71 15.47 11.59 15.37 11.59L15.36 11.57ZM26.8 9.96L25.41 10.05C25.21 10.06 25.04 10.22 25.02 10.43L24.9 11.72C24.9 11.72 24.86 11.79 24.82 11.8C24.77 11.8 24.72 11.77 24.71 11.72L24.59 10.43C24.57 10.23 24.4 10.07 24.2 10.05L22.81 9.97C22.81 9.97 22.74 9.93 22.74 9.9C22.74 9.85 22.76 9.8 22.81 9.79L24.2 9.7C24.41 9.69 24.57 9.53 24.59 9.32L24.71 8.03C24.71 8.03 24.76 7.95 24.8 7.95C24.84 7.95 24.88 7.98 24.89 8.03L25.01 9.32C25.03 9.52 25.19 9.68 25.4 9.7L26.79 9.78C26.79 9.78 26.86 9.82 26.86 9.85C26.86 9.9 26.84 9.95 26.79 9.96H26.8Z" fill="#213147"/>
</svg>
