<svg width="32" height="32" viewBox="0 0 32 32" fill="none" xmlns="http://www.w3.org/2000/svg">
  <path d="M16 32C7.18 32 0 24.82 0 16C0 7.18 7.18 0 16 0C24.82 0 32 7.18 32 16C32 24.82 24.82 32 16 32ZM16 1.68C8.11 1.68 1.68 8.11 1.68 16C1.68 23.89 8.1 30.32 16 30.32C23.9 30.32 30.32 23.9 30.32 16C30.32 8.1 23.89 1.68 16 1.68Z" fill="#070503"/>
  <path fill-rule="evenodd" clip-rule="evenodd" d="M20.55 10.16C22.43 10.33 23.92 10.91 24.09 12.65C24.21 13.93 23.68 14.69 22.84 15.13C24.23 15.47 25.1 16.3 24.93 18.17C24.72 20.49 23 21.12 20.55 21.26V22.36H19.09V21.3C18.71 21.3 18.32 21.3 17.92 21.29V22.37H16.46V21.27C16.12 21.27 14.55 21.27 14.19 21.27V19.99H15.42V11.49H14.2V10.19C14.2 10.19 16.14 10.19 16.46 10.19V9.07H17.92V10.14C18.31 10.14 18.7 10.13 19.08 10.13V9.08H20.54V10.2L20.55 10.16ZM18.24 19.51C19.43 19.53 22.05 19.56 22.05 17.89C22.05 16.17 19.54 16.23 18.31 16.26C18.17 16.26 18.05 16.26 17.96 16.26V19.5C18.04 19.5 18.14 19.5 18.24 19.5V19.51ZM18.2 14.79C19.2 14.81 21.37 14.84 21.37 13.32C21.37 11.76 19.28 11.82 18.26 11.84C18.14 11.84 18.04 11.84 17.96 11.84V14.78C18.03 14.78 18.11 14.78 18.2 14.78V14.79Z" fill="#070503"/>
  <path d="M10.74 12.15H8.39V14.52H10.74V12.15Z" fill="#070503"/>
  <path d="M13.09 14.52H10.74V16.89H13.09V14.52Z" fill="#070503"/>
  <path d="M6.04 14.52H8.39V16.89H6.04V14.52Z" fill="#070503"/>
  <path d="M10.74 16.89H8.39V19.26H10.74V16.89Z" fill="#070503"/>
</svg>
