<svg width="32" height="32" viewBox="0 0 32 32" fill="none" xmlns="http://www.w3.org/2000/svg">
<g clip-path="url(#clip0_2520_219)">
<path d="M16 32C24.84 32 32 24.84 32 16C32 7.16 24.84 0 16 0C7.16 0 0 7.16 0 16C0 24.84 7.16 32 16 32Z" fill="#191918"/>
<path d="M15.97 26.67L12.88 19.78L9.78 17.95L15.97 26.67Z" fill="#377DE4"/>
<path d="M22.16 17.95L15.97 26.67L19.06 19.78L22.16 17.95Z" fill="url(#paint0_linear_2520_219)"/>
<path d="M15.97 14.28L9.78 17.94L12.88 19.77L15.97 17.94L19.06 19.77L22.16 17.94L15.97 14.28Z" fill="url(#paint1_linear_2520_219)"/>
<path d="M15.97 15.6V5.33L12.88 17.43L15.97 15.6Z" fill="#3D899F"/>
<path d="M15.97 15.6V5.33L19.06 17.43L15.97 15.6Z" fill="#55A9AA"/>
<path d="M9.78 15.6L15.97 5.33L12.88 17.43L9.78 15.6Z" fill="#55A9AA"/>
<path d="M22.16 15.6L15.97 5.33L19.06 17.43L22.16 15.6Z" fill="#3D899F"/>
<path d="M15.97 26.67L12.88 19.78L15.97 17.95V26.67Z" fill="url(#paint2_linear_2520_219)"/>
<path d="M15.97 26.67L19.06 19.78L15.97 17.95V26.67Z" fill="#377DE4"/>
<path d="M15.97 11.94L9.78 15.6L12.88 17.43L15.97 15.6L19.06 17.43L22.16 15.6L15.97 11.94Z" fill="url(#paint3_linear_2520_219)"/>
</g>
<defs>
<linearGradient id="paint0_linear_2520_219" x1="0" y1="16" x2="32" y2="16" gradientUnits="userSpaceOnUse">
<stop stop-color="#2C67D7"/>
<stop offset="0.98" stop-color="#2C67D7"/>
</linearGradient>
<linearGradient id="paint1_linear_2520_219" x1="16" y1="47.796" x2="16" y2="15.796" gradientUnits="userSpaceOnUse">
<stop offset="0.25" stop-color="#49A2DF"/>
<stop offset="1" stop-color="#4395DF"/>
</linearGradient>
<linearGradient id="paint2_linear_2520_219" x1="0" y1="-11660.7" x2="32" y2="-11660.7" gradientUnits="userSpaceOnUse">
<stop stop-color="#2C67D7"/>
<stop offset="0.98" stop-color="#2C67D7"/>
</linearGradient>
<linearGradient id="paint3_linear_2520_219" x1="15.97" y1="17.4299" x2="15.97" y2="11.9399" gradientUnits="userSpaceOnUse">
<stop stop-color="#49A2DF" stop-opacity="0.8"/>
<stop offset="0.6" stop-color="#76E0B1" stop-opacity="0.6"/>
</linearGradient>
<clipPath id="clip0_2520_219">
<rect width="32" height="32" fill="white"/>
</clipPath>
</defs>
</svg>
