<svg width="32" height="32" viewBox="0 0 32 32" fill="none" xmlns="http://www.w3.org/2000/svg">
  <path d="M20.07 14.54C20.07 15.21 20.59 15.75 21.24 15.8C21.24 15.8 21.3 15.8 21.33 15.8C21.44 15.8 21.55 15.79 21.65 15.76C22.19 15.62 22.59 15.13 22.59 14.54C22.59 13.85 22.03 13.28 21.33 13.28C20.63 13.28 20.07 13.84 20.07 14.54Z" fill="#213147"/>
  <path d="M16 0C7.16 0 0 7.16 0 16C0 24.84 7.16 32 16 32C24.84 32 32 24.84 32 16C32 7.16 24.84 0 16 0ZM13.64 13H12.48V22.37C12.48 22.74 12.18 23.04 11.81 23.04H8.97C8.6 23.04 8.30002 22.74 8.30002 22.37V13H5.76001C5.39001 13 5.09003 12.7 5.09003 12.33V9.62C5.09003 9.25 5.39001 8.95 5.76001 8.95H13.65C14.76 8.95 15.67 9.86 15.66 10.97C15.66 12.08 14.75 12.99 13.64 12.99V13ZM21.65 20.12C21.54 20.12 21.44 20.12 21.33 20.12H21.2C20.97 20.12 20.74 20.1 20.53 20.07C20.37 20.05 20.22 20.02 20.07 19.98V22.34C20.07 22.71 19.77 23.01 19.4 23.01H16.41C16.04 23.01 15.74 22.71 15.74 22.34V14.54C15.74 11.46 18.24 8.95 21.33 8.95C24.42 8.95 26.92 11.45 26.92 14.54C26.92 17.52 24.59 19.95 21.66 20.12H21.65Z" fill="#213147"/>
</svg>
