<svg width="32" height="32" viewBox="0 0 32 32" fill="none" xmlns="http://www.w3.org/2000/svg">
  <path d="M16 32C24.8366 32 32 24.8366 32 16C32 7.16344 24.8366 0 16 0C7.16344 0 0 7.16344 0 16C0 24.8366 7.16344 32 16 32Z" fill="#437EF5"/>
  <path d="M12.25 13.8C12.25 13.8 12.25 13.75 12.25 13.73V13.8Z" fill="#56ABF7"/>
  <path d="M20.06 14.55H15.74V22.35C15.74 22.72 16.04 23.02 16.41 23.02H19.4C19.77 23.02 20.07 22.72 20.07 22.35V14.55H20.06ZM13.65 8.96H5.76001C5.39001 8.96 5.09003 9.26 5.09003 9.63V12.34C5.09003 12.71 5.39001 13.01 5.76001 13.01H8.30002V22.38C8.30002 22.75 8.6 23.05 8.97 23.05H11.81C12.18 23.05 12.48 22.75 12.48 22.38V13.01H13.64C14.75 13.01 15.66 12.1 15.66 10.99C15.67 9.88 14.77 8.97 13.65 8.97V8.96Z" fill="white"/>
  <path d="M21.32 8.96C18.24 8.96 15.73 11.46 15.73 14.55C15.73 17.2 17.58 19.42 20.06 20V14.55C20.06 13.86 20.62 13.29 21.32 13.29C22.02 13.29 22.58 13.85 22.58 14.55C22.58 15.13 22.18 15.62 21.64 15.77C21.54 15.8 21.43 15.81 21.32 15.81V20.14C21.43 20.14 21.54 20.14 21.64 20.14C24.57 19.97 26.9 17.54 26.9 14.56C26.9 11.48 24.4 8.97 21.31 8.97L21.32 8.96Z" fill="white"/>
  <path d="M21.32 20.14V15.81C21.32 15.81 21.26 15.81 21.23 15.81V20.14H21.32Z" fill="white"/>
  <path d="M20.06 14.55V20C20.21 20.04 20.36 20.06 20.52 20.09C20.74 20.12 20.97 20.14 21.19 20.14H21.23V15.81C20.57 15.77 20.06 15.22 20.06 14.55Z" fill="url(#paint0_linear_1307_1959)"/>
  <defs>
    <linearGradient id="paint0_linear_1307_1959" x1="21.32" y1="17.34" x2="20.06" y2="17.34" gradientUnits="userSpaceOnUse">
      <stop stop-color="white"/>
      <stop offset="0.97" stop-color="white" stop-opacity="0.32"/>
      <stop offset="1" stop-color="white" stop-opacity="0.3"/>
    </linearGradient>
  </defs>
</svg>
