<svg width="32" height="32" viewBox="0 0 32 32" fill="none" xmlns="http://www.w3.org/2000/svg">
<g clip-path="url(#clip0_298_571)">
<path d="M7.88 19.11C7.88 19.16 7.91 19.2 7.98 19.24C8.09 19.3 8.1 19.36 8.01 19.49C7.92 19.62 7.93001 19.74 8.03001 19.82C8.19001 19.95 8.43001 19.88 8.55001 19.66C8.68001 19.43 8.61 19.15 8.4 19C8.2 18.87 7.88 18.93 7.88 19.1V19.11Z" fill="#213147"/>
<path d="M13.26 13.79C13.26 13.94 13.52 14.11 13.76 14.11C13.93 14.11 14.09 14.04 14.2 13.92C14.3 13.78 14.26 13.62 14.08 13.51C13.75 13.31 13.25 13.48 13.25 13.79H13.26Z" fill="#213147"/>
<path d="M16 0C7.16001 0 0 7.16 0 16C0 24.84 7.16001 32 16 32C24.84 32 32 24.84 32 16C32 7.16 24.84 0 16 0ZM20.75 9.1C21.17 9.26 21.25 9.28 21.3 9.26C21.33 9.25 21.35 9.15 21.37 8.85C21.37 8.49 21.45 8.14 21.58 7.81C21.61 7.74 21.64 7.67 21.68 7.61C21.68 7.67 21.66 7.73 21.63 7.79C21.53 8.14 21.52 8.5 21.59 8.85C21.67 9.39 21.71 9.47 22.29 10.06C22.56 10.33 22.87 10.68 22.98 10.83L23.19 11.1L22.98 10.91C22.68 10.63 22.36 10.38 22.02 10.15C21.93 10.11 21.92 10.11 21.87 10.15C21.82 10.2 21.81 10.27 21.8 10.62C21.79 11.16 21.72 11.5 21.54 11.85C21.44 12.04 21.43 12 21.52 11.79C21.58 11.63 21.59 11.56 21.59 11.04C21.59 9.99 21.47 9.74 20.74 9.31C20.56 9.2 20.25 9.04 20.07 8.96C19.96 8.91 19.85 8.86 19.74 8.8C20.09 8.87 20.43 8.97 20.76 9.1H20.75ZM12.25 7.27C12.63 7.25 13.01 7.28 13.38 7.37C14.24 7.58 15.03 8.1 15.87 9.03L16.09 9.28L16.41 9.23C17.71 9.01 19.05 9.18 20.26 9.71C20.57 9.85 20.86 10.02 21.13 10.22C21.17 10.33 21.2 10.44 21.21 10.56C21.29 11.12 21.25 11.55 21.08 11.88C20.99 12.06 20.98 12.11 21.04 12.26C21.1 12.39 21.23 12.47 21.37 12.47C21.65 12.47 21.96 12.01 22.1 11.37L22.16 11.12L22.27 11.25C22.88 11.94 23.36 12.89 23.44 13.56L23.46 13.73L23.36 13.57C23.21 13.33 23.01 13.12 22.78 12.96C22.37 12.69 21.94 12.6 20.79 12.54C19.75 12.49 19.17 12.4 18.58 12.21C17.59 11.89 17.09 11.46 15.92 9.91C15.57 9.42 15.18 8.96 14.75 8.54C14.02 7.85 13.3 7.48 12.39 7.34C12.14 7.3 12.13 7.3 12.25 7.28V7.27ZM19.07 16.29C19.04 16.12 19 15.95 18.95 15.78L18.89 15.6L19 15.73C19.17 15.94 19.3 16.17 19.39 16.43C19.47 16.66 19.48 16.73 19.48 17.1C19.48 17.47 19.47 17.54 19.4 17.75C19.3 18.05 19.12 18.33 18.9 18.55C18.46 18.99 17.9 19.24 17.09 19.34C16.95 19.36 16.54 19.39 16.18 19.41C15.27 19.46 14.67 19.55 14.13 19.74C14.08 19.76 14.03 19.77 13.98 19.78C13.96 19.76 14.32 19.54 14.63 19.39C15.06 19.18 15.48 19.07 16.43 18.91C16.9 18.83 17.38 18.74 17.51 18.7C18.67 18.34 19.27 17.42 19.08 16.28L19.07 16.29ZM13.42 14.9C13.08 14.9 12.96 14.86 12.83 14.69C12.75 14.58 12.72 14.24 12.77 14.05C12.86 13.72 13.11 13.46 13.43 13.33C13.68 13.28 13.94 13.3 14.17 13.4C14.52 13.58 14.77 13.98 14.71 14.26C14.64 14.61 14.07 14.89 13.42 14.9ZM12.15 7.81L12.27 7.83C12.54 7.89 12.8 7.99 13.04 8.12C13.52 8.41 13.73 8.8 13.95 9.8C14.01 10.09 14.09 10.42 14.13 10.53C14.26 10.84 14.42 11.13 14.61 11.4C14.74 11.6 14.66 11.69 14.36 11.66C13.91 11.62 13.29 11.19 12.9 10.65C12.39 9.95 12.07 8.87 12.14 8.06L12.16 7.81H12.15ZM8.24 22.35C8.24 22.22 8.08001 21.9 7.80001 21.47C7.55001 21.12 7.36 20.74 7.23 20.33C7.1 19.95 7.04 19.55 7.07 19.14C7.07 18.8 7.15001 18.47 7.31001 18.18C7.45001 17.91 7.53 17.79 8.07 17.11C8.99 15.96 9.32001 15.29 9.44001 14.34C9.55001 13.49 9.69 13.08 10.02 12.72C10.22 12.5 10.26 12.42 10.26 12.26C10.26 12.18 9.95 11.6 9.02 9.94C8.04 8.18667 7.56334 7.32333 7.59 7.35C7.59 7.35 8.29 8.41 9.1 9.67C10.16 11.32 10.62 12.01 10.74 12.11C10.9 12.26 11.1 12.35 11.32 12.36C11.56 12.34 11.79 12.28 12.01 12.17C12.31 12 12.38 11.78 12.2 11.53C11.99 11.23 10.6 10.06 7.79 6.65C7.56 6.37 7.37 6.13 7.38 6.13C7.41 6.13 12.32 10.63 12.89 11.28L13.05 11.46V11.74C13.03 12.08 12.88 12.4 12.62 12.62C12.3 12.92 11.91 13.08 11.29 13.16C10.91 13.21 10.78 13.27 10.62 13.44C10.47 13.6 10.42 13.8 10.38 14.31C10.32 15.1 10.23 15.43 9.85 16.21C9.49 16.96 9.42 17.25 9.48 17.65C9.56 18.14 9.83 18.5 10.49 18.94C10.99 19.28 11.21 19.5 11.34 19.76C11.42 19.92 11.43 19.98 11.42 20.26C11.42 20.69 11.35 20.86 11.05 21.18C10.57 21.69 9.73001 22.1 8.69001 22.34C8.25001 22.44 8.24 22.44 8.24 22.34V22.35ZM19.8 25.15C19.53 25.29 19.23 25.37 18.93 25.36C18.35 25.36 17.86 25.06 17.46 24.46C17.31 24.2 17.18 23.94 17.06 23.67C16.63 22.7 16.42 22.4 15.93 22.08C15.51 21.8 14.98 21.75 14.53 21.95C14.07 22.16 13.88 22.7 14.09 23.16C14.12 23.23 14.17 23.3 14.22 23.37C14.4 23.56 14.64 23.69 14.91 23.73C15.31 23.78 15.68 23.5 15.73 23.1C15.73 23.07 15.73 23.03 15.73 23C15.73 22.71 15.62 22.54 15.33 22.41C14.94 22.24 14.53 22.44 14.53 22.8C14.53 22.95 14.62 23.08 14.75 23.12C14.85 23.17 14.85 23.17 14.77 23.15C14.42 23.08 14.33 22.65 14.62 22.37C14.96 22.03 15.67 22.18 15.91 22.65C16.01 22.91 16.02 23.2 15.93 23.47C15.73 23.99 15.15 24.27 14.56 24.12C14.16 24.02 14 23.91 13.51 23.41C12.67 22.54 12.34 22.38 11.13 22.19L10.9 22.15L11.16 21.93C12.05 21.18 13.15 20.65 14.16 20.49C14.68 20.42 15.2 20.44 15.72 20.55C16.36 20.71 16.94 21.08 17.24 21.52C17.53 21.95 17.66 22.32 17.79 23.16C17.84 23.49 17.9 23.82 17.91 23.89C18.01 24.32 18.2 24.67 18.43 24.84C18.81 25.11 19.45 25.13 20.09 24.88C20.16 24.85 20.23 24.83 20.3 24.82C20.32 24.84 20 25.06 19.78 25.17L19.8 25.15ZM23.89 21.24C23.66 22.22 23.03 23.06 22.15 23.55C22.07 23.6 21.98 23.64 21.9 23.68C21.92 23.59 21.96 23.5 22 23.42C22.29 22.84 22.33 22.16 22.1 21.55C21.96 21.14 21.69 20.65 21.13 19.81C20.48 18.84 20.32 18.58 20.16 18.24C19.84 17.56 19.77 16.9 19.94 16.28C19.96 16.21 19.99 16.16 20.01 16.16C20.07 16.18 20.13 16.21 20.18 16.25C20.33 16.35 20.62 16.51 21.4 16.94C22.38 17.47 22.93 17.88 23.31 18.35C23.65 18.77 23.86 19.27 23.95 19.8C24 20.28 23.98 20.76 23.89 21.23V21.24ZM24.61 17.92C24.53 18.22 24.28 18.77 24.22 18.79C24.2 18.79 24.18 18.73 24.18 18.63C24.14 18.1 23.89 17.61 23.48 17.27C22.99 16.85 22.34 16.52 20.75 15.88C18.36 14.92 17.52 14.08 17.52 12.67C17.52 12.54 17.52 12.42 17.54 12.29C17.61 12.34 17.68 12.39 17.75 12.44C18.23 12.83 18.78 12.99 20.28 13.21C21.16 13.34 21.66 13.44 22.12 13.6C23.58 14.08 24.48 15.07 24.7 16.4C24.76 16.9 24.73 17.41 24.63 17.9L24.61 17.92Z" fill="#213147"/>
</g>
<defs>
<clipPath id="clip0_298_571">
<rect width="32" height="32" fill="white"/>
</clipPath>
</defs>
</svg>
