<svg width="32" height="32" viewBox="0 0 32 32" fill="none" xmlns="http://www.w3.org/2000/svg">
<g clip-path="url(#clip0_298_901)">
<path d="M16 0C24.84 0 32 7.16 32 16C32 24.84 24.84 32 16 32C7.16 32 0 24.84 0 16C0 7.17 7.17 0 16 0Z" fill="#2151F4"/>
<path fill-rule="evenodd" clip-rule="evenodd" d="M15.15 4.88V10.77C13.17 11.07 12.02 12.36 12.02 13.91C12.02 15.89 13.32 16.72 15.16 17.04L16.28 17.24C17.32 17.42 17.82 17.56 17.82 18.32C17.82 19.08 17.26 19.63 16.07 19.63C14.88 19.63 14.17 19.11 14.17 18.06H11.81C11.81 19.83 13.13 21.1 15.17 21.37V23.41H17.01V21.35C18.94 21.04 20.18 19.84 20.18 18.12C20.18 16.03 18.73 15.3 16.94 15.02L15.87 14.85C14.92 14.7 14.39 14.48 14.39 13.71C14.39 13.1 14.84 12.51 15.99 12.51C17.14 12.51 17.68 13.09 17.68 13.87H20.04C20.01 12.39 18.96 11.11 17.01 10.79V4.9C22.71 5.42 27.17 10.21 27.17 16.04C27.17 22.22 22.16 27.23 15.98 27.23C9.80001 27.23 4.79001 22.22 4.79001 16.04C4.79001 10.15 9.35 5.32 15.13 4.88H15.15Z" fill="white"/>
</g>
<defs>
<clipPath id="clip0_298_901">
<rect width="32" height="32" fill="white"/>
</clipPath>
</defs>
</svg>
