<svg width="32" height="32" viewBox="0 0 32 32" fill="none" xmlns="http://www.w3.org/2000/svg">
<g clip-path="url(#clip0_298_785)">
<path d="M16.08 32.1001C24.9165 32.1001 32.08 24.9367 32.08 16.1001C32.08 7.26354 24.9165 0.100098 16.08 0.100098C7.24343 0.100098 0.0799561 7.26354 0.0799561 16.1001C0.0799561 24.9367 7.24343 32.1001 16.08 32.1001Z" fill="#3E73C2"/>
<path d="M16.08 27.8501C9.58999 27.8501 4.32996 22.5901 4.32996 16.1001C4.32996 9.6101 9.58999 4.3501 16.08 4.3501C22.57 4.3501 27.83 9.6101 27.83 16.1001C27.83 22.5901 22.57 27.8501 16.08 27.8501ZM15.38 11.7401C14.05 11.8101 12.99 12.8801 12.93 14.2101C12.93 15.4201 13.67 16.2101 15.24 16.5401L16.34 16.8001C17.41 17.0501 17.8499 17.4101 17.8499 18.0201C17.8499 18.6301 17.08 19.2301 16.08 19.2301C15.36 19.3001 14.66 18.9401 14.28 18.3201C14.17 18.0801 13.93 17.9301 13.67 17.9301H13.08C12.89 17.9701 12.76 18.1501 12.8 18.3401C13.1 19.5501 14.1699 20.4001 15.4099 20.4201V21.2601C15.4099 21.6501 15.73 21.9601 16.11 21.9601C16.49 21.9601 16.81 21.6401 16.81 21.2601V20.4101C18.23 20.3901 19.38 19.2501 19.4 17.8301C19.4 16.5601 18.67 15.8301 16.94 15.4601L15.94 15.2401C14.94 14.9901 14.4699 14.6601 14.4699 14.1001C14.4699 13.5401 15.07 12.9201 16.07 12.9201C16.71 12.8501 17.3399 13.1701 17.6599 13.7301C17.7899 14.0101 18.07 14.1901 18.38 14.1901H18.8499C19.0699 14.1401 19.2099 13.9101 19.1599 13.6901C18.8799 12.5801 17.92 11.7701 16.78 11.6901V11.0001C16.78 10.6101 16.46 10.3001 16.08 10.3001C15.7 10.3001 15.38 10.6201 15.38 11.0001V11.7401ZM7.26999 16.1001C7.26999 19.8801 9.68999 23.2301 13.27 24.4301H13.4099C13.6599 24.4301 13.86 24.2301 13.86 23.9801V23.7701C13.86 23.3901 13.63 23.0501 13.28 22.9001C9.51 21.3801 7.68999 17.0901 9.20999 13.3201C9.95999 11.4701 11.43 10.0001 13.28 9.2501C13.63 9.1101 13.86 8.7701 13.86 8.3901V8.1601C13.86 7.9301 13.68 7.7401 13.44 7.7401C13.39 7.7401 13.34 7.7401 13.3 7.7601C9.69996 8.9501 7.26999 12.3101 7.26999 16.1001ZM24.89 16.1001C24.89 12.3301 22.47 8.9801 18.89 7.7801H18.74C18.48 7.7801 18.27 7.9901 18.27 8.2501V8.4001C18.27 8.7901 18.52 9.1501 18.88 9.3001C22.65 10.8301 24.46 15.1201 22.93 18.8901C22.18 20.7301 20.72 22.2001 18.88 22.9401C18.52 23.1001 18.29 23.4401 18.28 23.8301V24.0001C18.28 24.2601 18.5 24.4701 18.76 24.4601C18.81 24.4601 18.86 24.4601 18.9 24.4401C22.48 23.2401 24.89 19.8801 24.89 16.1001Z" fill="white"/>
</g>
<defs>
<clipPath id="clip0_298_785">
<rect width="32" height="32" fill="white"/>
</clipPath>
</defs>
</svg>
