<svg width="32" height="33" viewBox="0 0 32 33" fill="none" xmlns="http://www.w3.org/2000/svg">
  <path d="M16 0.449951C7.16 0.449951 0 7.61995 0 16.45C0 25.28 7.16 32.4499 16 32.4499C24.84 32.4499 32 25.29 32 16.45C32 7.60995 24.84 0.449951 16 0.449951ZM13.44 29.57C7.29 28.3699 2.64 22.9599 2.64 16.4599C2.64 9.95995 7.28 4.53995 13.44 3.34995V4.62995C7.99 5.80995 3.9 10.6699 3.9 16.4599C3.9 22.25 7.99 27.11 13.44 28.29V29.57ZM16.8 23.6899V25.99H15.25V23.6899H14.38C13.45 23.6899 12.64 23.3599 11.99 22.6899C11.33 22.0299 11 21.2299 11 20.2999V19.5099H12.55V20.4399C12.55 20.9499 12.73 21.37 13.09 21.74C13.45 22.1 13.87 22.2799 14.38 22.2799H17.74C18.25 22.2799 18.67 22.1 19.04 21.74C19.4 21.38 19.58 20.9499 19.58 20.4399V18.7799C19.58 18.5999 19.54 18.4399 19.46 18.2999C19.38 18.16 19.25 18.03 19.06 17.91C18.85 17.78 18.65 17.67 18.48 17.59C18.31 17.51 18.05 17.42 17.7 17.32C17.33 17.2199 17.06 17.15 16.87 17.11C16.68 17.07 16.38 16.9999 15.95 16.9199C15.46 16.8099 15.02 16.72 14.64 16.65C13.74 16.47 13.09 16.3399 12.62 16.0499C11.67 15.4499 11.07 14.3099 11.07 13.2599V12.3699C11.07 11.4699 11.4 10.69 12.04 10.04C12.68 9.39995 13.47 9.06995 14.37 9.06995H15.25V6.91995H16.79V9.06995H17.54C18.44 9.06995 19.22 9.39995 19.87 10.0499C20.51 10.6999 20.84 11.4799 20.84 12.3699V12.9599H19.29V12.2299C19.29 11.74 19.12 11.34 18.78 11C18.44 10.66 18.03 10.49 17.55 10.49H14.38C13.89 10.49 13.49 10.66 13.14 11C12.79 11.34 12.63 11.75 12.63 12.2299V13.3499C12.63 13.5599 12.71 14.4 13.33 14.79C13.79 15.08 14.73 15.24 15.97 15.49C16.37 15.57 16.79 15.66 17.21 15.75C18.02 15.93 19.28 16.2899 19.54 16.4399C20.65 17.0699 21.15 17.82 21.15 18.88V20.31C21.15 21.24 20.81 22.05 20.15 22.7C19.48 23.36 18.68 23.6899 17.76 23.6899H16.82H16.8ZM18.56 29.57V28.29C24.01 27.11 28.1 22.25 28.1 16.4599C28.1 10.6699 24.01 5.80995 18.56 4.62995V3.34995C24.71 4.54995 29.36 9.95995 29.36 16.4599C29.36 22.9599 24.72 28.3799 18.56 29.57Z" fill="black"/>
</svg>
