<svg width="32" height="32" viewBox="0 0 32 32" fill="none" xmlns="http://www.w3.org/2000/svg">
<g clip-path="url(#clip0_2940_1952)">
<path d="M16 32C24.8366 32 32 24.8366 32 16C32 7.16344 24.8366 0 16 0C7.16344 0 0 7.16344 0 16C0 24.8366 7.16344 32 16 32Z" fill="#33401A"/>
<path d="M22.18 15.07C22.33 14.75 22.48 14.41 22.6 14.07C24.38 9.02 21.59 6.51 16.86 9.12C13.72 10.85 10.61 14.53 9.42 17.92C7.6 23.1 10.5 25.5 15.25 22.82C16.85 21.92 18.3 20.61 19.48 19.21L16.89 18.1V16.92H27.88C27.45 22.5 23 27.19 17.42 27.81C7.57 28.91 0.71 18.35 5.84 9.83C10.97 1.31 23.36 2.51 27.03 11.5C27.5 12.64 27.75 13.84 27.89 15.07H22.18Z" fill="#CCE27C"/>
</g>
<defs>
<clipPath id="clip0_2940_1952">
<rect width="32" height="32" fill="white"/>
</clipPath>
</defs>
</svg>
