<svg width="32" height="32" viewBox="0 0 32 32" fill="none" xmlns="http://www.w3.org/2000/svg">
<g clip-path="url(#clip0_2940_1948)">
<path d="M16 0C7.16 0 0 7.16 0 16C0 24.84 7.16 32 16 32C24.84 32 32 24.84 32 16C32 7.16 24.84 0 16 0ZM17.42 27.81C7.57 28.9 0.71 18.34 5.84 9.82C10.85 1.49 23.36 2.5 27.03 11.49C27.5 12.63 27.75 13.83 27.89 15.06H22.19C22.34 14.74 22.49 14.4 22.61 14.06C24.39 9.01 21.6 6.5 16.87 9.11C13.73 10.84 10.62 14.52 9.43 17.91C7.61 23.09 10.51 25.49 15.26 22.81C16.86 21.91 18.31 20.6 19.49 19.2L16.9 18.09V16.91H27.89C27.46 22.49 23.01 27.18 17.43 27.8L17.42 27.81Z" fill="#213147"/>
</g>
<defs>
<clipPath id="clip0_2940_1948">
<rect width="32" height="32" fill="white"/>
</clipPath>
</defs>
</svg>
