<svg width="32" height="32" viewBox="0 0 32 32" fill="none" xmlns="http://www.w3.org/2000/svg">
<g clip-path="url(#clip0_3127_1835)">
<path d="M25.2792 6.15466C33.1893 13.6072 29.4505 26.9205 18.863 29.1685C8.98558 31.2657 0.363622 22.1334 3.03685 12.3888C5.70319 2.67033 17.893 -0.80471 25.2792 6.15466ZM13.0374 6.47204H9.01284V21.0109C9.31532 20.8705 9.58246 20.6492 9.87147 20.4782C10.4477 20.1372 11.0553 19.8408 11.6825 19.6042C11.7037 19.5958 11.7358 19.5437 11.7358 19.53V10.3759L14.8157 18.7838C14.8978 18.8763 15.3494 18.7709 15.4896 18.7655C15.8996 18.75 16.368 18.7518 16.7786 18.7655C16.9046 18.7697 17.1143 18.8296 17.2284 18.8242C17.3239 18.8197 17.3952 18.5796 17.4296 18.4916C18.4734 15.8226 19.2865 13.0413 20.3092 10.3618C20.3224 10.3271 20.3413 10.2414 20.3829 10.2411V19.4997C21.0702 19.7955 21.7519 20.0974 22.3976 20.477C22.627 20.6118 22.8531 20.8237 23.1058 20.8905V6.51696L23.0609 6.47204H19.0514L16.1044 15.1773L13.0374 6.47204ZM14.4587 20.9809C14.0514 20.8651 13.6594 20.7612 13.2299 20.7585C13.1476 20.701 13.2644 20.3441 13.1572 20.2629H12.454V20.7714C11.8059 20.8193 11.1203 21.1606 10.9664 21.8421C10.7226 22.9212 11.374 23.5368 12.4033 23.6188L12.454 23.658V24.6901C11.9574 24.7177 11.4827 24.5728 11.0176 24.421V25.4081C11.4848 25.5947 11.9568 25.6378 12.454 25.6773V26.1112C12.4728 26.1408 12.4953 26.1498 12.5288 26.1561C12.6247 26.1737 12.9939 26.1699 13.0988 26.1576C13.1422 26.1525 13.1757 26.154 13.2021 26.1112V25.6474C13.5261 25.5923 13.8601 25.5243 14.1398 25.3435C14.9735 24.8039 14.9406 23.4901 14.0412 23.0287C13.772 22.8906 13.4716 22.867 13.2021 22.7607V21.7286C13.6354 21.7055 14.0448 21.8726 14.4587 21.9678V20.9809ZM19.665 20.2629H18.9469V20.7714C18.0493 20.8235 17.2961 21.4373 17.3946 22.3981C17.4815 23.2445 18.1948 23.5517 18.9469 23.6434V24.6904C18.4539 24.7171 17.9852 24.5826 17.5273 24.4222C17.4431 24.4743 17.5096 24.5596 17.512 24.6443C17.5189 24.8973 17.5003 25.1518 17.5147 25.4042C17.9714 25.6126 18.4554 25.6279 18.9469 25.6776V26.1115L18.9918 26.1564H19.665V25.6926C19.7432 25.5959 19.8606 25.6303 19.9657 25.6046C20.8669 25.3839 21.3709 24.7892 21.1777 23.8212C21.0511 23.1856 20.3008 22.8496 19.7153 22.8002L19.6647 22.761V21.7289C20.1113 21.6891 20.5225 21.8861 20.9513 21.9681V20.9809C20.7225 20.9306 20.5021 20.848 20.2697 20.8097C20.1622 20.792 19.6644 20.7881 19.6644 20.6968L19.665 20.2629Z" fill="#345941"/>
<path d="M13.0374 6.47204L16.1044 15.1773L19.0514 6.47204H23.0609L23.1058 6.51696V20.8905C22.8531 20.8237 22.627 20.6118 22.3976 20.477C21.7519 20.0974 21.0702 19.7955 20.3829 19.4997V10.2411C20.3413 10.2414 20.3224 10.3271 20.3092 10.3618C19.2865 13.0413 18.4734 15.8226 17.4296 18.4916C17.3952 18.5796 17.3239 18.8197 17.2284 18.8242C17.1143 18.8296 16.9046 18.7697 16.7786 18.7655C16.368 18.7518 15.8996 18.75 15.4896 18.7655C15.3494 18.7709 14.8978 18.8763 14.8157 18.7838L11.7358 10.3759V19.53C11.7358 19.5437 11.7037 19.5958 11.6825 19.6042C11.0553 19.8408 10.4477 20.1372 9.87147 20.4782C9.58246 20.6492 9.31532 20.8705 9.01284 21.0109V6.47204H13.0374Z" fill="#C7CCC8"/>
<path d="M14.4587 20.9809V21.9678C14.0448 21.8726 13.6354 21.7055 13.2021 21.7286V22.7607C13.4716 22.867 13.772 22.8906 14.0412 23.0287C14.9406 23.4901 14.9735 24.8039 14.1398 25.3435C13.8601 25.5243 13.5261 25.5923 13.2021 25.6474V26.1112C13.1757 26.154 13.1422 26.1525 13.0988 26.1576C12.9939 26.1699 12.6247 26.1737 12.5288 26.1561C12.4953 26.1498 12.4728 26.1408 12.454 26.1112V25.6773C11.9568 25.6378 11.4848 25.5947 11.0176 25.4081V24.421C11.4827 24.5728 11.9574 24.7177 12.454 24.6901V23.658L12.4033 23.6188C11.374 23.5368 10.7226 22.9212 10.9664 21.8421C11.1203 21.1606 11.8059 20.8193 12.454 20.7714V20.2629H13.1572C13.2644 20.3441 13.1476 20.701 13.2299 20.7585C13.6594 20.7612 14.0514 20.8651 14.4587 20.9809ZM12.454 22.6562V21.7738C12.4102 21.7079 12.25 21.7759 12.185 21.804C11.9763 21.8945 11.8921 22.0235 11.9137 22.2547C11.9376 22.5101 12.2371 22.6077 12.454 22.6562ZM13.2021 23.7631V24.6605C13.8945 24.6027 13.8858 23.8539 13.2021 23.7631Z" fill="#C7CCC8"/>
<path d="M19.665 20.2629L19.6644 20.6968C19.6644 20.7881 20.1622 20.792 20.2697 20.8097C20.5021 20.848 20.7225 20.9306 20.9513 20.9809V21.9681C20.5225 21.8861 20.1113 21.6891 19.6647 21.7289V22.761L19.7153 22.8002C20.3008 22.8496 21.0511 23.1856 21.1777 23.8212C21.3709 24.7892 20.8669 25.3839 19.9657 25.6046C19.8606 25.6303 19.7432 25.5959 19.665 25.6926V26.1564H18.9918L18.9469 26.1115V25.6776C18.4554 25.6279 17.9714 25.6126 17.5147 25.4042C17.5003 25.1518 17.5189 24.8973 17.512 24.6443C17.5096 24.5596 17.4431 24.4743 17.5273 24.4222C17.9852 24.5826 18.4539 24.7171 18.9469 24.6904V23.6434C18.1948 23.5517 17.4815 23.2445 17.3946 22.3981C17.2961 21.4373 18.0493 20.8235 18.9469 20.7714V20.2629H19.665ZM18.9472 21.7588C18.205 21.7457 18.2218 22.6029 18.9472 22.6562V21.7588ZM19.665 23.808V24.6159C19.665 24.7264 19.9741 24.5874 20.0226 24.5548C20.2356 24.4117 20.2811 24.1048 20.0822 23.9296C20.0259 23.8802 19.6932 23.7074 19.665 23.808Z" fill="#C7CCC8"/>
<path d="M12.454 22.6562C12.2371 22.6077 11.9376 22.5101 11.9137 22.2547C11.8921 22.0235 11.9763 21.8945 12.185 21.804C12.25 21.7759 12.4102 21.7079 12.454 21.7738V22.6562Z" fill="#345941"/>
<path d="M13.2021 24.6605C13.8945 24.6027 13.8858 23.8539 13.2021 23.7631V24.6605Z" fill="#345941"/>
<path d="M18.9472 22.6562V21.7588C18.205 21.7457 18.2218 22.6029 18.9472 22.6562Z" fill="#345941"/>
<path d="M19.665 23.808C19.6932 23.7074 20.0259 23.8802 20.0822 23.9296C20.2811 24.1048 20.2356 24.4117 20.0226 24.5548C19.9741 24.5874 19.665 24.7264 19.665 24.6159V23.808Z" fill="#345941"/>
<path d="M26.6762 27.9258C22.7577 31.4227 17.4433 32.7692 12.293 31.5722C4.87172 29.8475 -0.42772 22.8399 0.0272022 15.2087C0.03439 15.0886 0.0029437 14.8961 0.0266033 14.7943C0.0322935 14.77 0.0832065 14.785 0.0885973 14.7302C0.111658 14.5014 0.0888968 14.2451 0.119744 13.9852C0.7304 8.82837 3.99482 4.20565 8.55752 1.80911C10.335 0.875523 12.6932 0.145542 14.7027 0.031464C18.6026 -0.189806 22.2887 0.749169 25.4573 3.06427C33.6579 9.05652 34.2455 21.1707 26.6762 27.9258ZM25.1779 6.11085C17.4847 -0.975479 5.03255 2.95558 2.81753 13.122C0.571372 23.4313 10.6003 32.2602 20.5514 28.6977C30.0137 25.3104 32.6127 12.9591 25.1779 6.11085Z" fill="#C7CCC8"/>
</g>
<defs>
<clipPath id="clip0_3127_1835">
<rect width="32" height="32" fill="white"/>
</clipPath>
</defs>
</svg>
