<svg width="32" height="32" viewBox="0 0 32 32" fill="none" xmlns="http://www.w3.org/2000/svg">
<g clip-path="url(#clip0_3127_1833)">
<path d="M13.0376 6.47195L16.1049 15.1772L19.0519 6.47195H23.0614L23.1064 6.51686V20.891C22.8536 20.8239 22.6272 20.6123 22.3981 20.4775C21.7524 20.0979 21.0707 19.796 20.3834 19.5002V10.2416C20.3418 10.2419 20.3229 10.3276 20.3097 10.3623C19.2873 13.0418 18.4739 15.8234 17.4302 18.4921C17.3957 18.5801 17.3247 18.8202 17.2289 18.8247C17.1148 18.8301 16.9052 18.7702 16.7791 18.766C16.3685 18.7523 15.9001 18.7505 15.4901 18.766C15.3496 18.7714 14.898 18.8768 14.8162 18.7843L11.7363 10.3764V19.5305C11.7363 19.5442 11.7039 19.5963 11.683 19.6047C11.0559 19.8413 10.4482 20.1377 9.87197 20.4787C9.58297 20.6497 9.31582 20.871 9.01334 21.0114V6.47195H13.0376Z" fill="#213147"/>
<path d="M14.4589 20.9808V21.968C14.0447 21.8725 13.6356 21.7057 13.2023 21.7288V22.7609C13.4718 22.8669 13.7722 22.8908 14.0414 23.0289C14.9408 23.4903 14.9741 24.8041 14.14 25.3437C13.8603 25.5245 13.5263 25.5925 13.2023 25.6476V26.1114C13.1759 26.1542 13.1427 26.1527 13.099 26.1578C12.9941 26.1701 12.6249 26.1737 12.529 26.1563C12.4955 26.1503 12.473 26.141 12.4542 26.1114V25.6775C11.957 25.638 11.4853 25.5946 11.0178 25.4083V24.4212C11.4826 24.573 11.9573 24.7179 12.4542 24.6903V23.6582L12.4035 23.619C11.3742 23.537 10.7228 22.9211 10.9666 21.8423C11.1205 21.1608 11.8058 20.8195 12.4542 20.7716V20.2631H13.1574C13.2646 20.3443 13.1481 20.7012 13.2301 20.7587C13.6596 20.7614 14.0516 20.865 14.4589 20.9808ZM12.4542 22.6561V21.7737C12.4104 21.7078 12.2502 21.7758 12.1852 21.8039C11.9765 21.8944 11.8923 22.0234 11.9139 22.2546C11.9378 22.51 12.2373 22.6076 12.4542 22.6561ZM13.2023 23.763V24.6604C13.8947 24.6026 13.886 23.8538 13.2023 23.763Z" fill="#213147"/>
<path d="M19.6652 20.2628V20.6967C19.6652 20.788 20.1627 20.7919 20.2705 20.8096C20.5029 20.8479 20.7233 20.9302 20.9521 20.9808V21.968C20.5233 21.886 20.1121 21.689 19.6655 21.7288V22.7609L19.7161 22.8001C20.3016 22.8492 21.0519 23.1855 21.1785 23.8211C21.3717 24.7891 20.8677 25.3838 19.9665 25.6045C19.8614 25.6302 19.7437 25.5958 19.6658 25.6925V26.1563H18.9926L18.9477 26.1114V25.6775C18.4562 25.6278 17.9722 25.6125 17.5155 25.4041C17.5011 25.1517 17.5197 24.8969 17.5128 24.6442C17.5104 24.5595 17.4439 24.4742 17.5281 24.4221C17.986 24.5825 18.4547 24.717 18.9477 24.6903V23.6433C18.1953 23.5516 17.4823 23.2444 17.3954 22.398C17.2969 21.4375 18.0504 20.8236 18.9477 20.7712V20.2628H19.6652ZM18.9474 21.7587C18.2052 21.7456 18.222 22.6028 18.9474 22.6561V21.7587ZM19.6652 23.8079V24.6158C19.6652 24.7263 19.9743 24.5873 20.0228 24.5547C20.2358 24.4116 20.2813 24.1047 20.0824 23.9295C20.0261 23.8801 19.6934 23.7073 19.6652 23.8079Z" fill="#213147"/>
<path d="M26.6762 27.9258C22.7577 31.4227 17.4433 32.7692 12.293 31.5722C4.87172 29.8475 -0.42772 22.8399 0.0272022 15.2087C0.03439 15.0886 0.0029437 14.8961 0.0266033 14.7943C0.0322935 14.77 0.0832065 14.785 0.0885973 14.7302C0.111658 14.5014 0.0888968 14.2451 0.119744 13.9852C0.7304 8.82837 3.99482 4.20565 8.55752 1.80911C10.335 0.875523 12.6932 0.145542 14.7027 0.031464C18.6026 -0.189806 22.2887 0.749169 25.4573 3.06427C33.6579 9.05652 34.2455 21.1707 26.6762 27.9258ZM25.1779 6.11085C17.4847 -0.975479 5.03255 2.95558 2.81753 13.122C0.571372 23.4313 10.6003 32.2602 20.5514 28.6977C30.0137 25.3104 32.6127 12.9591 25.1779 6.11085Z" fill="#213147"/>
</g>
<defs>
<clipPath id="clip0_3127_1833">
<rect width="32" height="32" fill="white"/>
</clipPath>
</defs>
</svg>
