<svg width="32" height="32" viewBox="0 0 32 32" fill="none" xmlns="http://www.w3.org/2000/svg">
  <path d="M11.79 10.02C11.79 9.05 12.21 8.14 12.78 7.44C11.27 7.9 10.06 9.41 10.06 11.29C10.06 16.89 20.66 16.15 20.66 21.61C20.66 22.58 20.29 23.61 19.8 24.07C21.2 23.68 22.36 22.12 22.36 20.35C22.36 14.45 11.79 15.54 11.79 10.01V10.02Z" fill="#213147"/>
  <path d="M16 0C7.16 0 0 7.16 0 16C0 24.84 7.16 32 16 32C24.84 32 32 24.84 32 16C32 7.16 24.84 0 16 0ZM16.03 26.84C10.76 26.84 7.79 23.75 7.6 20.2H9.88C10.04 22.85 12.76 24.73 15.46 24.73C17.62 24.73 18.48 23.56 18.48 22.17C18.48 17.69 7.82 18.64 7.82 11.37C7.82 7.56 11.3 4.87 15.93 4.87C20.56 4.87 23.9 7.38 24.13 10.98H21.88C21.69 8.75 19.07 7.01 16.84 7.01C14.84 7.01 13.98 8.35 13.98 9.49C13.98 13.58 24.64 13.19 24.64 20.24C24.64 23.96 21.3 26.84 16.04 26.84H16.03Z" fill="#213147"/>
</svg>
