<svg width="32" height="32" viewBox="0 0 32 32" fill="none" xmlns="http://www.w3.org/2000/svg">
  <path d="M16 32C24.8366 32 32 24.8366 32 16C32 7.16344 24.8366 0 16 0C7.16344 0 0 7.16344 0 16C0 24.8366 7.16344 32 16 32Z" fill="url(#paint0_radial_1643_35)"/>
  <path d="M9.88 20.21H7.6C7.79 23.77 10.76 26.85 16.03 26.85C21.3 26.85 24.63 23.97 24.63 20.25C24.63 13.19 13.97 13.58 13.97 9.5C13.97 8.36 14.83 7.02 16.83 7.02C19.06 7.02 21.68 8.76 21.87 10.99H24.12C23.89 7.39 20.38 4.88 15.92 4.88C11.46 4.88 7.81 7.58 7.81 11.38C7.81 18.65 18.47 17.7 18.47 22.18C18.47 23.57 17.61 24.74 15.45 24.74C12.75 24.74 10.03 22.86 9.87 20.21H9.88ZM11.79 10.03C11.79 15.56 22.36 14.47 22.36 20.37C22.36 22.14 21.2 23.69 19.8 24.09C20.29 23.63 20.66 22.6 20.66 21.63C20.66 16.17 10.06 16.91 10.06 11.31C10.06 9.43 11.27 7.92 12.78 7.46C12.2 8.16 11.79 9.07 11.79 10.04V10.03Z" fill="white"/>
  <defs>
    <radialGradient id="paint0_radial_1643_35" cx="0" cy="0" r="1" gradientUnits="userSpaceOnUse" gradientTransform="translate(19.0428 34.5914) rotate(-90) scale(54.2066)">
      <stop stop-color="#F7D356"/>
      <stop offset="1" stop-color="#EC7672"/>
    </radialGradient>
  </defs>
</svg>
