<svg width="32" height="32" viewBox="0 0 32 32" fill="none" xmlns="http://www.w3.org/2000/svg">
<g clip-path="url(#clip0_298_873)">
<path d="M16.27 32.0701C25.1066 32.0701 32.27 24.9066 32.27 16.0701C32.27 7.23351 25.1066 0.0700684 16.27 0.0700684C7.43346 0.0700684 0.27002 7.23351 0.27002 16.0701C0.27002 24.9066 7.43346 32.0701 16.27 32.0701Z" fill="#509E7D"/>
<path fill-rule="evenodd" clip-rule="evenodd" d="M18.19 17.4601C18.08 17.4601 17.51 17.5001 16.25 17.5001C15.24 17.5001 14.53 17.4701 14.28 17.4601C10.39 17.2901 7.49003 16.6201 7.49003 15.8101C7.49003 15.0001 10.39 14.3201 14.28 14.1501V16.7901C14.53 16.8101 15.26 16.8501 16.27 16.8501C17.48 16.8501 18.08 16.8001 18.2 16.7901V14.1501C22.08 14.3201 24.97 15.0001 24.97 15.8101C24.97 16.6201 22.07 17.2901 18.2 17.4701M18.19 13.8701V11.5001H23.6V7.89008H8.86003V11.5001H14.27V13.8601C9.87003 14.0601 6.56003 14.9301 6.56003 15.9801C6.56003 17.0301 9.87003 17.9001 14.27 18.1001V25.6801H18.18V18.1001C22.57 17.9001 25.87 17.0301 25.87 15.9801C25.87 14.9301 22.57 14.0701 18.18 13.8601" fill="white"/>
</g>
<defs>
<clipPath id="clip0_298_873">
<rect width="32" height="32" fill="white"/>
</clipPath>
</defs>
</svg>
