<svg width="32" height="32" viewBox="0 0 32 32" fill="none" xmlns="http://www.w3.org/2000/svg">
<g clip-path="url(#clip0_2388_5)">
<path fill-rule="evenodd" clip-rule="evenodd" d="M31.9991 15.9942C31.9991 24.8211 24.8362 31.9767 16.0003 31.9767C7.16433 31.9767 0.00140381 24.8211 0.00140381 15.9942C0.00140381 7.16732 7.16433 0.0117188 16.0003 0.0117188C24.8362 0.0117188 31.9991 7.16732 31.9991 15.9942ZM7.81903 7.63965H24.1814V11.272H17.8183V14.9044H14.1822V11.272H7.81903V7.63965ZM14.1822 22.1691H10.5461V14.9043L14.1822 14.9044L14.1822 22.1691ZM17.8188 22.1691V25.8014H14.1827L14.1822 22.1691H17.8188ZM17.8188 22.1691H21.4544V14.9043L17.8183 14.9044L17.8188 22.1691Z" fill="#00B988"/>
</g>
<defs>
<clipPath id="clip0_2388_5">
<rect width="32" height="32" fill="white"/>
</clipPath>
</defs>
</svg>
