<svg width="32" height="32" viewBox="0 0 32 32" fill="none" xmlns="http://www.w3.org/2000/svg">
<path d="M16 0C7.18 0 0 7.18 0 16C0 24.82 7.18 32 16 32C24.82 32 32 24.82 32 16C32 7.18 24.82 0 16 0ZM15.99 2.84C22.4 2.84 27.74 7.42 28.91 13.49H27.68C26.53 8.09 21.74 4.05 16 4.05C10.26 4.05 5.47 8.1 4.32 13.49H3.09C4.26 7.42 9.6 2.84 16.01 2.84H15.99ZM16.22 23.34H15.49V25.43H14.11V23.27C13.65 23.19 13.22 23.05 12.84 22.83C12.25 22.47 11.78 21.98 11.45 21.35C11.13 20.71 10.97 19.97 10.97 19.14H12.36C12.36 19.99 12.59 20.68 13.05 21.21C13.53 21.73 14.15 21.99 14.92 21.99H17.06C17.82 21.99 18.43 21.81 18.89 21.46C19.35 21.09 19.58 20.61 19.58 20.03V18.72C19.58 18.26 19.41 17.86 19.06 17.53C18.73 17.2 18.26 16.99 17.67 16.89L14.2 16.28C13.22 16.1 12.46 15.73 11.92 15.17C11.38 14.61 11.11 13.91 11.11 13.06V11.95C11.11 10.95 11.46 10.16 12.15 9.57C12.67 9.12 13.32 8.85 14.1 8.73V6.58H15.48V8.67H16.61V6.58H17.99V8.76C18.69 8.9 19.29 9.22 19.77 9.74C20.44 10.44 20.77 11.36 20.77 12.51H19.38C19.38 11.76 19.17 11.16 18.76 10.71C18.35 10.26 17.8 10.03 17.12 10.03H14.94C14.21 10.03 13.62 10.21 13.18 10.56C12.74 10.9 12.52 11.37 12.52 11.95V13.06C12.52 13.54 12.68 13.94 13 14.27C13.33 14.6 13.79 14.82 14.37 14.93L17.82 15.57C18.82 15.76 19.6 16.13 20.16 16.68C20.71 17.21 20.99 17.9 20.99 18.73V20.04C20.99 21.04 20.63 21.84 19.91 22.46C19.39 22.9 18.74 23.17 17.97 23.29V25.45H16.59V23.36H16.18L16.22 23.34ZM15.99 29.15C9.59 29.15 4.26 24.58 3.08 18.52H4.31C5.47 23.9 10.26 27.94 15.99 27.94C21.72 27.94 26.51 23.9 27.67 18.52H28.9C27.72 24.58 22.39 29.15 15.99 29.15Z" fill="currentColor"/>
</svg>
