<svg width="32" height="32" viewBox="0 0 32 32" fill="none" xmlns="http://www.w3.org/2000/svg">
<path d="M16 0.57C24.52 0.57 31.43 7.48 31.43 16C31.43 24.52 24.52 31.43 16 31.43C7.48 31.43 0.57 24.52 0.57 16C0.57 7.48 7.48 0.57 16 0.57Z" fill="white"/>
<path d="M16 0.29C7.32 0.29 0.29 7.32 0.29 16C0.29 24.68 7.32 31.71 16 31.71C24.68 31.71 31.71 24.68 31.71 16C31.71 7.32 24.68 0.29 16 0.29Z" fill="url(#paint0_radial_2440_38)" fill-opacity="0.7"/>
<path d="M16 32C7.18 32 0 24.82 0 16C0 7.18 7.18 0 16 0C24.82 0 32 7.18 32 16C32 24.82 24.82 32 16 32ZM16 0.58C7.5 0.58 0.58 7.5 0.58 16C0.58 24.5 7.5 31.42 16 31.42C24.5 31.42 31.42 24.5 31.42 16C31.42 7.5 24.51 0.58 16 0.58Z" fill="url(#paint1_linear_2440_38)"/>
<path fill-rule="evenodd" clip-rule="evenodd" d="M28.91 13.49C27.74 7.42 22.4 2.84 15.99 2.84C9.58 2.84 4.24 7.42 3.07 13.49H4.3C5.45 8.09 10.24 4.05 15.98 4.05C21.72 4.05 26.51 8.1 27.66 13.49H28.91ZM27.67 18.51H28.9C27.72 24.57 22.39 29.14 15.99 29.14C9.59 29.14 4.26 24.57 3.08 18.51H4.31C5.47 23.89 10.26 27.93 15.99 27.93C21.72 27.93 26.51 23.89 27.67 18.51Z" fill="black"/>
<path d="M20.2 16.66C19.65 16.11 18.87 15.74 17.86 15.55L14.41 14.91C13.83 14.8 13.37 14.58 13.04 14.25C12.72 13.92 12.56 13.52 12.56 13.04V11.93C12.56 11.34 12.78 10.88 13.22 10.54C13.66 10.18 14.24 10.01 14.98 10.01H17.16C17.84 10.01 18.39 10.24 18.8 10.69C19.21 11.14 19.42 11.74 19.42 12.49H20.81C20.81 11.34 20.48 10.42 19.81 9.72C19.33 9.21 18.73 8.89 18.03 8.74V6.56H16.65V8.65H15.52V6.56H14.14V8.71C13.37 8.83 12.72 9.1 12.19 9.55C11.5 10.14 11.15 10.93 11.15 11.93V13.04C11.15 13.89 11.42 14.59 11.96 15.15C12.5 15.71 13.26 16.08 14.24 16.26L17.71 16.87C18.3 16.97 18.77 17.18 19.1 17.51C19.45 17.84 19.62 18.23 19.62 18.7V20.01C19.62 20.6 19.39 21.08 18.93 21.44C18.47 21.8 17.86 21.97 17.1 21.97H14.96C14.19 21.97 13.56 21.71 13.09 21.19C12.63 20.66 12.4 19.97 12.4 19.12H11.01C11.01 19.95 11.17 20.69 11.49 21.33C11.82 21.96 12.29 22.45 12.88 22.81C13.26 23.03 13.69 23.17 14.15 23.25V25.41H15.53V23.32H16.66V25.41H18.04V23.25C18.8 23.13 19.45 22.86 19.98 22.42C20.7 21.81 21.06 21 21.06 20V18.69C21.06 17.86 20.78 17.17 20.23 16.64L20.2 16.66Z" fill="black"/>
<defs>
<radialGradient id="paint0_radial_2440_38" cx="0" cy="0" r="1" gradientUnits="userSpaceOnUse" gradientTransform="translate(21.2842 4.35391) rotate(90) scale(33.4971 23.5777)">
<stop offset="0.03" stop-color="#F9F9F9"/>
<stop offset="1" stop-color="#E2E2E2"/>
</radialGradient>
<linearGradient id="paint1_linear_2440_38" x1="4.69" y1="4.69" x2="27.31" y2="27.31" gradientUnits="userSpaceOnUse">
<stop stop-color="#F3F3F3"/>
<stop offset="1" stop-color="#BDBDBD"/>
</linearGradient>
</defs>
</svg>
