<svg width="32" height="32" viewBox="0 0 32 32" fill="none" xmlns="http://www.w3.org/2000/svg">
  <path d="M16 0C7.16 0 0 7.16 0 16C0 24.84 7.16 32 16 32C24.84 32 32 24.84 32 16C32 7.16 24.84 0 16 0ZM14.57 20.84L12.13 23.43C11.8 23.78 11.24 23.8 10.89 23.47C10.85 23.44 10.82 23.4 10.79 23.36L7.80002 19.35L4.62 15.08C4.37 14.74 4.38999 14.27 4.67999 13.96L7.12 11.37C7.45 11.02 8.01002 11 8.36002 11.33C8.40002 11.36 8.42999 11.4 8.45999 11.44L11.46 15.46L14.15 19.07L14.63 19.72C14.88 20.07 14.86 20.54 14.57 20.85V20.84ZM22.77 20.82L20.33 23.41C20 23.76 19.44 23.78 19.09 23.45C19.05 23.41 19.02 23.38 18.99 23.34L16.81 20.42L15.99 19.32L12.82 15.07C12.57 14.73 12.59 14.26 12.88 13.95L15.32 11.36C15.65 11.01 16.21 10.99 16.56 11.32C16.6 11.36 16.63 11.39 16.66 11.43L22.83 19.7C23.08 20.04 23.06 20.51 22.77 20.82ZM27.3 16L24.86 18.59C24.53 18.94 23.97 18.96 23.62 18.63C23.58 18.6 23.55 18.56 23.52 18.52L20.97 15.1C20.72 14.76 20.74 14.29 21.03 13.98L23.47 11.39C23.8 11.04 24.36 11.02 24.71 11.35C24.75 11.38 24.78 11.42 24.81 11.46L27.36 14.88C27.61 15.22 27.59 15.69 27.3 16Z" fill="#213147"/>
</svg>
