<svg width="32" height="32" viewBox="0 0 32 32" fill="none" xmlns="http://www.w3.org/2000/svg">
  <path d="M16 32C24.8366 32 32 24.8366 32 16C32 7.16344 24.8366 0 16 0C7.16344 0 0 7.16344 0 16C0 24.8366 7.16344 32 16 32Z" fill="url(#paint0_linear_1307_1947)"/>
  <path d="M27.3 16L24.86 18.59C24.53 18.94 23.97 18.96 23.62 18.63C23.58 18.6 23.55 18.56 23.52 18.52L20.97 15.1C20.72 14.76 20.74 14.29 21.03 13.98L23.47 11.39C23.8 11.04 24.36 11.02 24.71 11.35C24.75 11.38 24.78 11.42 24.81 11.46L27.36 14.88C27.61 15.22 27.59 15.69 27.3 16Z" fill="white"/>
  <path d="M22.77 20.82L20.33 23.41C20 23.76 19.44 23.78 19.09 23.45C19.05 23.42 19.02 23.38 18.99 23.34L12.82 15.07C12.57 14.73 12.59 14.26 12.88 13.95L15.32 11.36C15.65 11.01 16.21 10.99 16.56 11.32C16.6 11.35 16.63 11.39 16.66 11.43L22.83 19.7C23.08 20.04 23.06 20.51 22.77 20.82Z" fill="#CCDBFD"/>
  <path d="M22.76 20.82L20.32 23.41C19.99 23.76 19.43 23.78 19.08 23.45C19.04 23.42 19.01 23.38 18.98 23.34L15.99 19.33L19.65 15.45L22.83 19.71C23.08 20.05 23.06 20.52 22.77 20.83L22.76 20.82Z" fill="white"/>
  <path d="M8.46 11.44L14.63 19.71C14.88 20.05 14.86 20.52 14.57 20.83L12.13 23.42C11.8 23.77 11.24 23.79 10.89 23.46C10.85 23.43 10.82 23.39 10.79 23.35L4.62 15.08C4.37 14.74 4.39 14.27 4.68 13.96L7.12 11.37C7.45 11.02 8.01 11 8.36 11.33C8.4 11.36 8.43 11.4 8.46 11.44Z" fill="#97B2FA"/>
  <path d="M11.46 15.46L14.64 19.72C14.89 20.06 14.87 20.53 14.58 20.84L12.14 23.43C11.81 23.78 11.25 23.8 10.9 23.47C10.86 23.44 10.83 23.4 10.8 23.36L7.81 19.35L11.47 15.47L11.46 15.46Z" fill="#CBD7FD"/>
  <defs>
    <linearGradient id="paint0_linear_1307_1947" x1="4.69" y1="27.31" x2="27.31" y2="4.69" gradientUnits="userSpaceOnUse">
      <stop stop-color="#274FF4"/>
      <stop offset="1" stop-color="#408AF6"/>
    </linearGradient>
  </defs>
</svg>
