<svg width="32" height="32" viewBox="0 0 32 32" fill="none" xmlns="http://www.w3.org/2000/svg">
  <path fill-rule="evenodd" clip-rule="evenodd" d="M0 16C0 7.17 7.16 0 16 0C24.84 0 32 7.16 32 16C32 24.84 24.84 32 16 32C7.16 32 0 24.84 0 16Z" fill="url(#paint0_radial_1310_1990)"/>
  <path d="M10.58 12.19C13.58 9.25999 18.43 9.25999 21.43 12.19L21.79 12.54C21.94 12.69 21.94 12.92 21.79 13.07L20.56 14.28C20.49 14.35 20.36 14.35 20.29 14.28L19.79 13.79C17.7 11.74 14.31 11.74 12.22 13.79L11.69 14.31C11.62 14.38 11.49 14.38 11.42 14.31L10.19 13.1C10.04 12.95 10.04 12.72 10.19 12.57L10.59 12.18L10.58 12.19ZM23.98 14.69L25.08 15.76C25.23 15.91 25.23 16.14 25.08 16.29L20.13 21.14C19.98 21.29 19.74 21.29 19.59 21.14L16.08 17.7C16.04 17.66 15.98 17.66 15.94 17.7L12.43 21.14C12.28 21.29 12.04 21.29 11.89 21.14L6.94001 16.29C6.79001 16.14 6.79001 15.91 6.94001 15.76L8.04001 14.69C8.19001 14.54 8.43001 14.54 8.58001 14.69L12.09 18.13C12.09 18.13 12.19 18.17 12.23 18.13L15.74 14.69C15.89 14.54 16.13 14.54 16.28 14.69L19.79 18.13C19.83 18.17 19.89 18.17 19.93 18.13L23.44 14.69C23.59 14.54 23.83 14.54 23.98 14.69Z" fill="white"/>
  <defs>
    <radialGradient id="paint0_radial_1310_1990" cx="0" cy="0" r="1" gradientUnits="userSpaceOnUse" gradientTransform="translate(0.75 15.03) scale(30.72)">
      <stop stop-color="#6C9AEE"/>
      <stop offset="1" stop-color="#2F6DF5"/>
    </radialGradient>
  </defs>
</svg>
