<svg width="32" height="32" viewBox="0 0 32 32" fill="none" xmlns="http://www.w3.org/2000/svg">
  <path fill-rule="evenodd" clip-rule="evenodd" d="M16 0C7.16 0 0 7.16 0 16C0 24.84 7.16 32 16 32C24.84 32 32 24.84 32 16C32 7.16 24.84 0 16 0ZM10.18 12.57L10.58 12.18C13.58 9.25 18.43 9.25 21.43 12.18L21.79 12.53C21.94 12.68 21.94 12.91 21.79 13.06L20.56 14.27C20.49 14.34 20.36 14.34 20.29 14.27L19.79 13.78C17.7 11.73 14.31 11.73 12.22 13.78L11.69 14.3C11.62 14.37 11.49 14.37 11.42 14.3L10.19 13.09C10.04 12.94 10.04 12.71 10.19 12.56L10.18 12.57ZM25.07 16.29L20.12 21.14C19.97 21.29 19.73 21.29 19.58 21.14L16.07 17.7C16.07 17.7 15.97 17.66 15.93 17.7L12.42 21.14C12.27 21.29 12.03 21.29 11.88 21.14L6.93 16.29C6.78 16.14 6.78 15.91 6.93 15.76L8.03 14.69C8.18 14.54 8.42 14.54 8.57 14.69L12.08 18.13C12.08 18.13 12.18 18.17 12.22 18.13L15.73 14.69C15.88 14.54 16.12 14.54 16.27 14.69L19.78 18.13C19.78 18.13 19.88 18.17 19.92 18.13L23.43 14.69C23.58 14.54 23.82 14.54 23.97 14.69L25.07 15.76C25.22 15.91 25.22 16.14 25.07 16.29Z" fill="#213147"/>
</svg>
