<svg width="32" height="32" viewBox="0 0 32 32" fill="none" xmlns="http://www.w3.org/2000/svg">
<g clip-path="url(#clip0_298_911)">
<path d="M26.09 6.72L25.21 7.6C29.56 12.35 29.56 19.63 25.21 24.39L26.09 25.27C30.93 20.02 30.93 11.95 26.09 6.7V6.72Z" fill="#595563"/>
<path d="M7.62 6.79C12.37 2.44 19.65 2.44 24.41 6.79L25.29 5.91C20.04 1.07 11.97 1.07 6.72 5.91L7.62 6.79Z" fill="#595563"/>
<path d="M6.78999 24.39C2.44999 19.64 2.44999 12.36 6.78999 7.61L5.91 6.73C1.07 11.98 1.07 20.05 5.91 25.3L6.78999 24.39Z" fill="#595563"/>
<path d="M24.39 25.2C19.64 29.55 12.36 29.55 7.59999 25.2L6.72 26.08C11.97 30.92 20.04 30.92 25.29 26.08L24.39 25.2Z" fill="#595563"/>
<path d="M21.55 13.07C21.37 11.24 19.79 10.62 17.79 10.43V7.91H16.24V10.39H15V7.91H13.47V10.45H10.33V12.1C10.33 12.1 11.47 12.08 11.45 12.1C11.88 12.05 12.27 12.35 12.33 12.78V19.74C12.33 19.89 12.25 20.02 12.14 20.12C12.03 20.22 11.89 20.27 11.74 20.25C11.76 20.27 10.62 20.25 10.62 20.25L10.33 22.1H13.44V24.68H14.99V22.13H16.23V24.66H17.78V22.11C20.39 21.95 22.21 21.31 22.44 18.86C22.62 16.89 21.7 16.01 20.22 15.66C21.12 15.22 21.68 14.4 21.55 13.06V13.07ZM19.38 18.57C19.38 20.49 16.09 20.27 15.04 20.27V16.86C16.09 16.86 19.38 16.56 19.38 18.57ZM18.66 13.77C18.66 15.53 15.91 15.31 15.04 15.31V12.21C15.91 12.21 18.66 11.93 18.66 13.77Z" fill="#E29552"/>
<path d="M16 32C7.16 32 0 24.83 0 16C0 7.17 7.17 0 16 0C24.83 0 31.99 7.16 32 16C32 24.84 24.84 32 16 32ZM16 1.25C7.86 1.25 1.26 7.86 1.27 16.01C1.27 24.15 7.88 30.75 16.03 30.74C24.17 30.74 30.76 24.14 30.76 16C30.76 7.86 24.16 1.25 16.02 1.25C16.02 1.25 16.01 1.25 16 1.25Z" fill="#272136"/>
</g>
<defs>
<clipPath id="clip0_298_911">
<rect width="32" height="32" fill="white"/>
</clipPath>
</defs>
</svg>
