<svg width="32" height="32" viewBox="0 0 32 32" fill="none" xmlns="http://www.w3.org/2000/svg">
<g clip-path="url(#clip0_298_798)">
<path d="M15.09 4.92L9.21 8.53L11.89 10.14L15.09 4.92Z" fill="#213147"/>
<path d="M11.56 10.67L8.92 9.08V14.98L11.56 10.67Z" fill="#213147"/>
<path d="M8.92 18.71V22.93L11.05 21.64L8.92 18.71Z" fill="#213147"/>
<path d="M22.77 8.47L16.84 4.85L20.07 10.1L22.77 8.47Z" fill="#213147"/>
<path d="M15.99 19.63L22.86 15.85L15.99 4.64L9.11 15.85L15.99 19.63Z" fill="#213147"/>
<path d="M23.06 14.98V9.02L20.39 10.63L23.06 14.98Z" fill="#213147"/>
<path d="M9.21 23.49L14.96 27.02L11.42 22.15C10.83 22.51 9.2 23.49 9.2 23.49H9.21Z" fill="#213147"/>
<path d="M16.14 22.3C16.04 22.36 15.92 22.36 15.83 22.3L9.72 18.76L15.98 27.38L22.19 18.79L16.14 22.3Z" fill="#213147"/>
<path d="M20.93 21.6L23.06 22.88V18.65L20.93 21.6Z" fill="#213147"/>
<path d="M16 0C7.16 0 0 7.17 0 16C0 24.83 7.16 32 16 32C24.84 32 32 24.84 32 16C32 7.16 24.84 0 16 0ZM16 31.14C7.65 31.14 0.86 24.35 0.86 16.01C0.86 7.67 7.65 0.880001 16 0.880001C24.35 0.880001 31.13 7.67 31.13 16.01C31.13 24.35 24.34 31.14 16 31.14Z" fill="#213147"/>
<path d="M16 1.62C8.07 1.62 1.61 8.07 1.61 16C1.61 23.93 8.06 30.38 16 30.38C23.94 30.38 30.38 23.93 30.38 16C30.38 8.07 23.93 1.62 16 1.62ZM8.3 8.63C8.3 8.63 8.3 8.59 8.3 8.58C8.28 8.45 8.34 8.33 8.44 8.26L15.85 3.71C15.95 3.65 16.07 3.65 16.17 3.71L23.52 8.2C23.61 8.26 23.67 8.36 23.67 8.47C23.67 8.47 23.67 8.47 23.67 8.48C23.67 8.49 23.67 8.48 23.67 8.49V15.92C23.67 16.05 23.59 16.16 23.47 16.21L16.12 20.25C16.03 20.3 15.91 20.3 15.82 20.25L8.58 16.27C8.41 16.27 8.28 16.13 8.28 15.96V8.63H8.3ZM23.68 23.39C23.7 23.51 23.64 23.63 23.54 23.7L16.13 28.27C16.03 28.33 15.9 28.33 15.8 28.27L8.45 23.76C8.35 23.7 8.29 23.58 8.3 23.47C8.3 23.47 8.3 23.45 8.3 23.44V17.8C8.3 17.8 8.3 17.79 8.3 17.78C8.29 17.61 8.42 17.46 8.59 17.45C8.65 17.45 8.71 17.46 8.77 17.49L15.99 21.68L23.15 17.53C23.15 17.53 23.17 17.52 23.19 17.51C23.24 17.47 23.31 17.45 23.38 17.45C23.55 17.45 23.69 17.59 23.69 17.76V23.35C23.69 23.35 23.69 23.38 23.69 23.39H23.68Z" fill="#213147"/>
<path d="M17.06 26.96L22.77 23.43L20.57 22.1L17.06 26.96Z" fill="#213147"/>
</g>
<defs>
<clipPath id="clip0_298_798">
<rect width="32" height="32" fill="white"/>
</clipPath>
</defs>
</svg>
