<svg width="32" height="32" viewBox="0 0 32 32" fill="none" xmlns="http://www.w3.org/2000/svg">
<path d="M6.55001 14.88C6.56001 14.82 6.58002 14.77 6.59002 14.71L5.42002 14.13C5.38002 14.61 5.36001 15.09 5.39001 15.57L6.39001 16.03C6.42001 15.65 6.47001 15.26 6.55001 14.88Z" fill="#213147"/>
<path d="M5.56001 16.84C5.60001 17.05 5.64001 17.27 5.70001 17.48C5.72001 17.56 5.73 17.6 5.75 17.72V17.74C5.78 17.89 5.84 18.04 5.91 18.17C6 18.37 6.19 18.73 6.41 19.13C6.5 19.29 6.60001 19.44 6.70001 19.59C6.50001 18.82 6.39001 18.02 6.37001 17.2L5.57001 16.83L5.56001 16.84Z" fill="#213147"/>
<path d="M6.58 10.33C6.12 11.17 5.79001 12.07 5.59001 12.99L6.89 13.64C8.54 8.60001 13.73 5.47001 19.06 6.53001C19.38 6.59001 19.69 6.68001 19.99 6.77001C19.9 6.70001 19.81 6.63001 19.72 6.57001C15.05 3.98001 9.17001 5.67001 6.59001 10.34L6.58 10.33Z" fill="#213147"/>
<path d="M16 0C7.16 0 0 7.16 0 16C0 24.84 7.16 32 16 32C24.84 32 32 24.84 32 16C32 7.16 24.84 0 16 0ZM16.98 27.59C13.95 27.59 11.23 26.32 9.29001 24.29C8.43001 23.71 7.56001 22.74 6.70001 21.48C6.29001 20.88 5.91001 20.25 5.56001 19.62C5.33001 19.2 5.13001 18.82 5.03001 18.61C4.92001 18.4 4.85 18.18 4.8 17.95V17.92C4.78 17.83 4.77001 17.8 4.76001 17.74C3.25001 12.06 6.63001 6.24 12.31 4.73C14.98 4.02 17.81 4.38 20.22 5.72L20.26 5.75C21.31 6.48 22.42 7.45 23.59 8.63C26.61 11.03 28.22 14.99 27.42 19.03C26.43 24 22.06 27.59 16.99 27.59H16.98Z" fill="#213147"/>
<path d="M12.21 19.6V20.25C12.21 21.08 12.86 21.73 13.68 21.73C14.5 21.73 15.15 21.08 15.15 20.25L15.19 17.62C14.58 17.73 14.01 17.87 13.47 18.12C12.68 18.44 12.21 19.02 12.21 19.6Z" fill="#213147"/>
<path d="M21.68 14.28V13.63C21.68 12.8 21.03 12.16 20.21 12.16C19.39 12.16 18.74 12.81 18.74 13.63V16.29C19.35 16.18 19.92 16.04 20.46 15.79C21.25 15.43 21.72 14.89 21.68 14.28Z" fill="#213147"/>
<path d="M15.16 16.54V13.63C15.16 12.8 14.51 12.16 13.69 12.16C12.87 12.16 12.22 12.84 12.22 13.63V17.66C12.47 17.44 12.76 17.3 13.05 17.16C13.73 16.87 14.45 16.66 15.17 16.55L15.16 16.54Z" fill="#213147"/>
<path d="M18.78 17.34V20.25C18.78 21.08 19.43 21.73 20.25 21.73C21.07 21.73 21.72 21.08 21.72 20.25V16.22C21.47 16.44 21.18 16.58 20.89 16.72C20.21 17.01 19.49 17.22 18.77 17.33L18.78 17.34Z" fill="#213147"/>
<path d="M23.81 10.13C20.04 6.35999 13.92 6.35999 10.15 10.13C9.7 10.58 9.30001 11.07 8.95001 11.59C5.99001 16.02 7.18 22.02 11.61 24.98C13.2 26.04 15.07 26.61 16.98 26.61C20.89 26.61 24.41 24.26 25.9 20.65C27.39 17.04 26.57 12.89 23.81 10.13ZM22.72 20.21C22.72 21.54 21.64 22.62 20.28 22.66C18.88 22.7 17.77 21.58 17.73 20.21V17.4C17.48 17.44 17.23 17.44 16.94 17.44C16.65 17.44 16.4 17.48 16.15 17.48V20.25C16.15 21.58 15.07 22.66 13.71 22.7C12.31 22.74 11.2 21.62 11.16 20.25V13.63C11.2 12.3 12.27 11.18 13.6 11.18C15 11.14 16.15 12.26 16.15 13.63V16.47C16.4 16.43 16.65 16.43 16.94 16.43C17.23 16.43 17.48 16.39 17.73 16.39V13.62C17.77 12.25 18.88 11.14 20.24 11.14C21.6 11.14 22.71 12.26 22.71 13.62V20.2L22.72 20.21Z" fill="#213147"/>
</svg>
