<svg width="32" height="32" viewBox="0 0 32 32" fill="none" xmlns="http://www.w3.org/2000/svg">
  <g clip-path="url(#clip0_1864_1964)">
    <path d="M16.01 4.74V2.43L7.9 16.03L9.77 15.2L16.01 4.74Z" fill="currentColor"/>
    <path d="M9.32 15.94H9.33L9.57 15.53L8.05 16.21L16.01 20.81V19.8L9.32 15.94Z" fill="currentColor"/>
    <path d="M16 0C7.16 0 0 7.16 0 16C0 24.84 7.16 32 16 32C24.84 32 32 24.84 32 16C32 7.16 24.84 0 16 0ZM16.02 1.77L24.46 16.24L16.04 21.09L7.56 16.19L16.02 1.77ZM16.01 26.86L11.57 20.51L8.68 18.78L16 29.25V29.86L7.39 17.56L11.01 19.73L9.32 17.31L16.01 21.32V26.87V26.86ZM16.02 29.23L23.36 18.86L20.45 20.57L16.01 26.86V21.31L22.7 17.38L21 19.79L24.63 17.66L16.02 29.88V29.23Z" fill="currentColor"/>
    <path d="M22.44 15.61L22.65 15.96L16.04 19.79V20.79L23.91 16.26L22.44 15.61Z" fill="currentColor"/>
    <path d="M16.02 2.44L16.01 4.72L22.23 15.24L24.46 16.24L24.06 16.06L16.02 2.44Z" fill="currentColor"/>
  </g>
  <defs>
    <clipPath id="clip0_1864_1964">
      <rect width="32" height="32" fill="white"/>
    </clipPath>
  </defs>
</svg>
