<svg width="32" height="32" viewBox="0 0 32 32" fill="none" xmlns="http://www.w3.org/2000/svg">
  <path d="M16 32C24.8366 32 32 24.8366 32 16C32 7.16344 24.8366 0 16 0C7.16344 0 0 7.16344 0 16C0 24.8366 7.16344 32 16 32Z" fill="#275959"/>
  <path d="M16.02 1.77L7.56 16.18L16.01 12.56V1.77H16.02Z" fill="#5F8A8A"/>
  <path d="M16.02 1.77L24.46 16.24L16.01 12.43V1.77H16.02Z" fill="#538081"/>
  <path d="M16.01 2.43L7.9 16.04L16.01 12.43V2.43Z" fill="#8DADAD"/>
  <path d="M16.04 21.09L7.56 16.19L16.04 12.41V21.09Z" fill="#356768"/>
  <path d="M16.01 2.43L24.06 16.06L16.01 12.43V2.43Z" fill="#7A9F9F"/>
  <path d="M16.04 21.09L24.46 16.24L16.04 12.47V21.09Z" fill="#356768"/>
  <path d="M16.01 20.8L8.05 16.2L16.01 12.65V20.79V20.8Z" fill="#427374"/>
  <path d="M16.02 22.71V23.45L22.42 19.68L16.02 28.77V29.87L24.62 17.65L16.02 22.71Z" fill="#538081"/>
  <path d="M16 28.76L9.6 19.61L16 23.44V22.71L7.39 17.55L16 29.86V28.76Z" fill="#5F8A8A"/>
  <path d="M16.02 23.17L8.68 18.77L16.02 29.26V23.17Z" fill="#8DADAD"/>
  <path d="M16.01 20.79L23.91 16.24L16.01 12.7V20.79Z" fill="#5A8787"/>
  <path d="M16.02 23.17L23.36 18.85L16.02 29.22V23.13V23.17Z" fill="#7A9F9F"/>
  <path d="M16.01 4.72L9.32 15.94L16.01 12.96V4.72Z" fill="white"/>
  <path d="M16.01 19.81L9.32 15.95L16.01 12.97V19.81Z" fill="#799E9E"/>
  <path d="M16.01 21.31L9.32 17.3L16.01 26.86V21.31Z" fill="white"/>
  <path d="M16.01 4.72L22.65 15.96L16.01 12.96V4.72Z" fill="#C6DBDC"/>
  <path d="M16.01 19.81L22.65 15.96L16.01 12.96V19.81Z" fill="#ACC3C4"/>
  <path d="M16.01 21.31L22.7 17.38L16.01 26.87V21.31Z" fill="#C6DBDC"/>
</svg>
