<svg width="32" height="32" viewBox="0 0 32 32" fill="none" xmlns="http://www.w3.org/2000/svg">
<g clip-path="url(#clip0_2323_1940)">
<path d="M32 16C32 7.16344 24.8365 0 16 0C7.16344 0 0 7.16344 0 16C0 24.8365 7.16344 32 16 32C24.8365 32 32 24.8365 32 16Z" fill="#F5F5F5"/>
<path d="M18.4487 18.9112C13.9127 20.272 10.1602 22.2568 7.81139 24.5824L7.70768 24.6856C8.33227 25.276 9.01715 25.804 9.75751 26.2528L9.91667 26.0584C10.5581 25.276 11.2454 24.52 11.9616 23.8072C13.8836 21.8944 16.0831 20.2384 18.4511 18.9088L18.4487 18.9112Z" fill="#141416"/>
<path d="M3.99869 16.8952C4.17956 19.3216 5.08149 21.5464 6.49707 23.356L6.56217 23.2912C8.01635 21.8584 9.90941 20.5552 12.1931 19.42C14.1947 18.424 16.4929 17.5696 18.9696 16.8952H3.99869Z" fill="#141416"/>
<path d="M13.2302 6.9232C17.2889 10.9624 22.3965 13.6336 27.9985 14.6464C27.3233 8.6584 22.2205 4 16.0204 4C14.3829 4 12.8227 4.3264 11.3974 4.9144C11.9762 5.6104 12.5936 6.2872 13.2302 6.9232Z" fill="#141416"/>
<path d="M7.81139 7.41759C10.1602 9.74559 13.9127 11.728 18.4487 13.0912C16.0807 11.7592 13.8812 10.1056 11.9592 8.19279C11.2454 7.48239 10.5581 6.72639 9.91425 5.94159L9.75509 5.74719C9.01475 6.19599 8.32987 6.72399 7.70768 7.31439L7.81139 7.41759Z" fill="#141416"/>
<path d="M13.2302 25.0768C12.5912 25.7128 11.9738 26.3896 11.3974 27.0856C12.8203 27.6736 14.3829 28 16.0204 28C22.2205 28 27.3233 23.3416 28.0009 17.3512C22.3989 18.364 17.2913 21.0352 13.2326 25.0744L13.2302 25.0768Z" fill="#141416"/>
<path d="M12.1931 12.58C9.90941 11.4448 8.01635 10.1416 6.56217 8.70879L6.49707 8.64399C5.08149 10.4536 4.17956 12.6784 3.99869 15.1048H18.9672C16.4905 14.4304 14.1947 13.576 12.1907 12.5776L12.1931 12.58Z" fill="#141416"/>
</g>
<defs>
<clipPath id="clip0_2323_1940">
<rect width="32" height="32" fill="white"/>
</clipPath>
</defs>
</svg>
