<svg width="32" height="32" viewBox="0 0 32 32" fill="none" xmlns="http://www.w3.org/2000/svg">
<g clip-path="url(#clip0_2323_1938)">
<path fill-rule="evenodd" clip-rule="evenodd" d="M31 16C31 8.26801 24.732 2 17 2C9.26801 2 3 8.26801 3 16C3 23.732 9.26801 30 17 30C24.732 30 31 23.732 31 16ZM17 0C25.8365 0 33 7.16344 33 16C33 24.8365 25.8365 32 17 32C8.16344 32 1 24.8365 1 16C1 7.16344 8.16344 0 17 0Z" fill="#141416"/>
<path d="M19.4487 18.9111C14.9127 20.2719 11.1602 22.2567 8.81138 24.5823L8.70767 24.6855C9.33226 25.2759 10.0171 25.8039 10.7575 26.2527L10.9167 26.0583C11.5581 25.2759 12.2454 24.5199 12.9616 23.8071C14.8836 21.8943 17.0831 20.2383 19.4511 18.9087L19.4487 18.9111Z" fill="#141416"/>
<path d="M4.99869 16.895C5.17955 19.3214 6.08149 21.5462 7.49706 23.3558L7.56217 23.291C9.01634 21.8582 10.9094 20.555 13.1931 19.4198C15.1947 18.4238 17.4929 17.5694 19.9696 16.895H4.99869Z" fill="#141416"/>
<path d="M14.2302 6.9232C18.2889 10.9624 23.3965 13.6336 28.9985 14.6464C28.3233 8.6584 23.2205 4 17.0204 4C15.3829 4 13.8227 4.3264 12.3974 4.9144C12.9762 5.6104 13.5936 6.2872 14.2302 6.9232Z" fill="#141416"/>
<path d="M8.81138 7.41747C11.1602 9.74547 14.9127 11.7279 19.4487 13.0911C17.0807 11.7591 14.8812 10.1055 12.9592 8.19267C12.2454 7.48227 11.5581 6.72627 10.9142 5.94147L10.7551 5.74707C10.0147 6.19587 9.32986 6.72387 8.70767 7.31427L8.81138 7.41747Z" fill="#141416"/>
<path d="M14.2302 25.0767C13.5912 25.7127 12.9738 26.3895 12.3974 27.0855C13.8203 27.6735 15.3829 27.9999 17.0204 27.9999C23.2205 27.9999 28.3233 23.3415 29.0009 17.3511C23.3989 18.3639 18.2913 21.0351 14.2326 25.0743L14.2302 25.0767Z" fill="#141416"/>
<path d="M13.1931 12.58C10.9094 11.4448 9.01634 10.1416 7.56217 8.70884L7.49706 8.64404C6.08149 10.4536 5.17955 12.6784 4.99869 15.1049H19.9672C17.4905 14.4305 15.1947 13.5761 13.1907 12.5776L13.1931 12.58Z" fill="#141416"/>
</g>
<defs>
<clipPath id="clip0_2323_1938">
<rect width="32" height="32" fill="white"/>
</clipPath>
</defs>
</svg>
