<svg width="32" height="32" viewBox="0 0 32 32" fill="none" xmlns="http://www.w3.org/2000/svg">
<g clip-path="url(#clip0_2323_1938)">
<path fill-rule="evenodd" clip-rule="evenodd" d="M30 16C30 8.26801 23.732 2 16 2C8.26801 2 2 8.26801 2 16C2 23.732 8.26801 30 16 30C23.732 30 30 23.732 30 16ZM16 0C24.8365 0 32 7.16344 32 16C32 24.8365 24.8365 32 16 32C7.16344 32 0 24.8365 0 16C0 7.16344 7.16344 0 16 0Z" fill="#141416"/>
<path d="M18.4487 18.9111C13.9127 20.2719 10.1602 22.2567 7.81138 24.5823L7.70767 24.6855C8.33226 25.2759 9.01714 25.8039 9.7575 26.2527L9.91666 26.0583C10.5581 25.2759 11.2454 24.5199 11.9616 23.8071C13.8836 21.8943 16.0831 20.2383 18.4511 18.9087L18.4487 18.9111Z" fill="#141416"/>
<path d="M3.99869 16.895C4.17955 19.3214 5.08149 21.5462 6.49706 23.3558L6.56217 23.291C8.01634 21.8582 9.90941 20.555 12.1931 19.4198C14.1947 18.4238 16.4929 17.5694 18.9696 16.895H3.99869Z" fill="#141416"/>
<path d="M13.2302 6.9232C17.2889 10.9624 22.3965 13.6336 27.9985 14.6464C27.3233 8.6584 22.2205 4 16.0204 4C14.3829 4 12.8227 4.3264 11.3974 4.9144C11.9762 5.6104 12.5936 6.2872 13.2302 6.9232Z" fill="#141416"/>
<path d="M7.81138 7.41747C10.1602 9.74547 13.9127 11.7279 18.4487 13.0911C16.0807 11.7591 13.8812 10.1055 11.9592 8.19267C11.2454 7.48227 10.5581 6.72627 9.91425 5.94147L9.75509 5.74707C9.01474 6.19587 8.32986 6.72387 7.70767 7.31427L7.81138 7.41747Z" fill="#141416"/>
<path d="M13.2302 25.0767C12.5912 25.7127 11.9738 26.3895 11.3974 27.0855C12.8203 27.6735 14.3829 27.9999 16.0204 27.9999C22.2205 27.9999 27.3233 23.3415 28.0009 17.3511C22.3989 18.3639 17.2913 21.0351 13.2326 25.0743L13.2302 25.0767Z" fill="#141416"/>
<path d="M12.1931 12.58C9.90941 11.4448 8.01634 10.1416 6.56217 8.70884L6.49706 8.64404C5.08149 10.4536 4.17955 12.6784 3.99869 15.1049H18.9672C16.4905 14.4305 14.1947 13.5761 12.1907 12.5776L12.1931 12.58Z" fill="#141416"/>
</g>
<defs>
<clipPath id="clip0_2323_1938">
<rect width="32" height="32" fill="white"/>
</clipPath>
</defs>
</svg>
