<svg width="32" height="32" viewBox="0 0 32 32" fill="none" xmlns="http://www.w3.org/2000/svg">
<path d="M16 0C7.16 0 0 7.16 0 16C0 24.84 7.16 32 16 32C24.84 32 32 24.84 32 16C32 7.16 24.84 0 16 0ZM26.85 23.66C26.85 25.43 25.42 26.86 23.65 26.86H8.35001C6.58001 26.86 5.14999 25.43 5.14999 23.66V8.36C5.14999 6.59 6.58001 5.16 8.35001 5.16H23.65C25.42 5.16 26.85 6.59 26.85 8.36V23.66Z" fill="#213147"/>
<path d="M11.61 8.1C10.6 7.09 8.96998 7.09 7.95998 8.1C6.94998 9.11 6.94998 10.74 7.95998 11.75L11.75 15.54C12.06 15.85 12.06 16.35 11.75 16.66L7.95998 20.45C6.94998 21.46 6.94998 23.09 7.95998 24.1C8.96998 25.11 10.6 25.11 11.61 24.1C11.61 24.1 14.14 21.57 15.96 19.75L20.31 24.1C21.32 25.11 22.95 25.11 23.96 24.1C24.97 23.09 24.97 21.46 23.96 20.45L11.61 8.1Z" fill="#213147"/>
<path d="M20.4 11.71C21.39 12.7 23 12.7 23.99 11.71C24.98 10.72 24.98 9.11 23.99 8.12L23.93 8.06001C22.94 7.07001 21.33 7.07001 20.34 8.06001C19.35 9.05001 19.35 10.66 20.34 11.65L20.4 11.71Z" fill="#213147"/>
</svg>
