<svg width="32" height="32" viewBox="0 0 32 32" fill="none" xmlns="http://www.w3.org/2000/svg">
<g clip-path="url(#clip0_2781_1940)">
<path fill-rule="evenodd" clip-rule="evenodd" d="M6.97361 3H25.4036C25.8436 3 26.2436 3.23 26.4736 3.61L31.8436 12.83C32.1336 13.31 32.0336 13.92 31.6336 14.3L16.8536 28.73C16.3736 29.21 15.5936 29.21 15.1236 28.73L0.363609 14.31C-0.0363914 13.91 -0.116391 13.3 0.173609 12.81L5.92361 3.57C6.15361 3.23 6.55361 3 6.97361 3Z" fill="#CDB268"/>
<path fill-rule="evenodd" clip-rule="evenodd" d="M23.0236 7.11V9.7H17.7636V11.49C21.4536 11.68 24.2136 12.46 24.2336 13.41V15.37C24.2136 16.32 21.4536 17.1 17.7636 17.29V21.69H14.2836V17.31C10.5936 17.12 7.83361 16.34 7.81361 15.39V13.41C7.83361 12.46 10.5936 11.68 14.2836 11.49V9.7H9.03361V7.11H23.0236Z" fill="white"/>
<path fill-rule="evenodd" clip-rule="evenodd" d="M16.0336 15.97C19.9736 15.97 23.2536 15.3 24.0636 14.41C23.3736 13.65 20.9236 13.06 17.7836 12.91V14.79C17.2336 14.83 16.6436 14.83 16.0336 14.83C15.4236 14.83 14.8536 14.81 14.2836 14.77V12.9C11.1436 13.07 8.68361 13.66 8.00361 14.4C8.80361 15.29 12.0936 15.96 16.0336 15.96V15.97Z" fill="#CDB268"/>
</g>
<defs>
<clipPath id="clip0_2781_1940">
<rect width="32" height="32" fill="white"/>
</clipPath>
</defs>
</svg>
