<svg width="32" height="32" viewBox="0 0 32 32" fill="none" xmlns="http://www.w3.org/2000/svg">
  <path d="M16 0C7.16 0 0 7.16 0 16C0 24.84 7.16 32 16 32C24.84 32 32 24.84 32 16C32 7.16 24.84 0 16 0ZM2.78998 22.4L3.31998 21.77L3.72998 21.27C3.72998 21.27 6.16998 23.15 11.98 22.84C15.5 22.76 18.9 21.52 21.64 19.31L22.98 20.11C21.78 21.26 18.34 23.97 12.07 24.31C11.58 24.35 11.11 24.35 10.67 24.35C5.21998 24.35 2.89999 22.5 2.79999 22.41L2.78998 22.4ZM22.6 14.11C22.6 13.47 23.12 12.95 23.76 12.94C24.41 12.94 24.94 13.45 24.94 14.1C24.94 14.75 24.43 15.28 23.78 15.28C23.13 15.28 22.6 14.76 22.6 14.11ZM10.47 27.57C9.92 27.57 9.35999 27.56 8.76999 27.53L8.84 26.07C12.34 26.24 17.34 25.92 21.27 23.41C22.38 22.73 23.36 21.84 24.16 20.81L25.44 21.54C24.33 23.13 20.34 27.57 10.47 27.57ZM23.67 27.06C21.73 28.39 19.47 29.2 17.12 29.41L16.99 27.95C19.08 27.77 21.09 27.05 22.83 25.86C24.55 24.68 25.94 23.07 26.85 21.19C28.69 17.38 28.36 12.87 25.98 9.36C24.8 7.63 23.2 6.23 21.32 5.31C17.48 3.42 12.94 3.67 9.34 5.97C7.58 7.09 6.14 8.66 5.16 10.51L5.12 10.59C4.83999 11.15 4.66 11.76 4.56 12.38C4.24 14.05 4.66 15.77 5.72 17.1C7.14 18.6 9.10999 19.44 11.18 19.43C13.85 19.6 16.5 18.98 18.82 17.65L20.22 18.48C17.52 20.25 14.32 21.1 11.09 20.9C8.61 20.9 6.24999 19.87 4.57999 18.05C3.25999 16.4 2.71998 14.26 3.09998 12.18C3.20998 11.41 3.43998 10.66 3.78998 9.96L3.84 9.86C4.93 7.78 6.53999 6.03 8.51999 4.76C12.56 2.17 17.66 1.89 21.97 4C24.08 5.04 25.88 6.6 27.21 8.54C29.89 12.47 30.26 17.53 28.19 21.81C27.17 23.92 25.61 25.73 23.68 27.06H23.67Z" fill="#213147"/>
</svg>
