<svg width="32" height="32" viewBox="0 0 32 32" fill="none" xmlns="http://www.w3.org/2000/svg">
  <path d="M16 32C24.8366 32 32 24.8366 32 16C32 7.16344 24.8366 0 16 0C7.16344 0 0 7.16344 0 16C0 24.8366 7.16344 32 16 32Z" fill="white"/>
  <path d="M18.81 17.65C16.49 18.98 13.84 19.6 11.17 19.43C9.10997 19.43 7.12998 18.6 5.70998 17.1C4.65998 15.77 4.22998 14.04 4.54998 12.38C4.63998 11.76 4.82998 11.16 5.10998 10.59L5.14999 10.51C6.11999 8.66 7.55998 7.1 9.32998 5.97C12.93 3.67 17.48 3.42 21.31 5.31C23.19 6.23 24.79 7.63 25.97 9.36C28.35 12.86 28.68 17.37 26.84 21.19C25.93 23.07 24.54 24.68 22.82 25.86C21.09 27.05 19.08 27.77 16.98 27.95L17.11 29.41C19.46 29.2 21.72 28.4 23.66 27.06C25.6 25.73 27.15 23.93 28.17 21.81C30.24 17.53 29.87 12.47 27.19 8.54C25.87 6.6 24.06 5.03 21.95 4C17.64 1.89 12.54 2.17 8.49999 4.76C6.51999 6.02 4.90997 7.78 3.81997 9.86L3.76998 9.96C3.42998 10.66 3.19998 11.41 3.07998 12.18C2.69998 14.26 3.23999 16.4 4.55999 18.05C6.23999 19.87 8.59997 20.91 11.07 20.9C14.29 21.1 17.49 20.25 20.2 18.48L18.8 17.65H18.81Z" fill="black"/>
  <path d="M21.64 19.31C18.9 21.52 15.5 22.76 11.98 22.84C6.16998 23.16 3.74998 21.29 3.72998 21.27L3.25998 21.84L3.72998 21.28L2.78 22.4C2.88 22.48 5.19999 24.34 10.65 24.34C11.1 24.34 11.57 24.34 12.05 24.3C18.32 23.95 21.76 21.25 22.96 20.1L21.62 19.3L21.64 19.31Z" fill="black"/>
  <path d="M24.16 20.82C23.36 21.86 22.38 22.74 21.27 23.42C17.34 25.93 12.34 26.25 8.84 26.08L8.76999 27.54C9.35999 27.57 9.92 27.58 10.47 27.58C20.34 27.58 24.32 23.14 25.44 21.55L24.16 20.8M23.78 15.28C24.43 15.28 24.94 14.74 24.94 14.1C24.94 13.45 24.4 12.94 23.76 12.94C23.12 12.94 22.6 13.47 22.6 14.11C22.6 14.76 23.13 15.28 23.78 15.28Z" fill="black"/>
</svg>
