<svg width="32" height="32" viewBox="0 0 32 32" fill="none" xmlns="http://www.w3.org/2000/svg">
<g clip-path="url(#clip0_3065_5)">
<rect width="32" height="32" fill="white"/>
<path d="M16 0C7.16 0 0 7.16 0 16C0 24.84 7.16 32 16 32C24.84 32 32 24.84 32 16C32 7.16 24.84 0 16 0ZM16.37 8.79C16.37 8.6 16.52 8.45 16.71 8.45H21.07C21.26 8.45 21.41 8.6 21.41 8.79V13.15C21.41 13.34 21.26 13.49 21.07 13.49H16.71C16.52 13.49 16.37 13.34 16.37 13.15V8.79ZM11.34 23.2C11.34 23.39 11.19 23.54 11 23.54H6.64C6.45 23.54 6.3 23.39 6.3 23.2V18.84C6.3 18.65 6.45 18.5 6.64 18.5H11C11.19 18.5 11.34 18.65 11.34 18.84V23.2ZM11.34 13.15C11.34 13.34 11.19 13.49 11 13.49H6.64C6.45 13.49 6.3 13.34 6.3 13.15V8.79C6.3 8.6 6.45 8.45 6.64 8.45H11C11.19 8.45 11.34 8.6 11.34 8.79V13.15ZM16.36 18.13C16.36 18.31 16.21 18.46 16.03 18.46H11.69C11.51 18.46 11.36 18.31 11.36 18.13V13.82C11.36 13.64 11.51 13.49 11.69 13.49H16.03C16.21 13.49 16.36 13.64 16.36 13.82V18.13ZM21.07 23.53H16.71C16.52 23.54 16.37 23.39 16.37 23.21V18.85C16.36 18.66 16.51 18.51 16.69 18.51H21.05C21.24 18.5 21.39 18.65 21.39 18.83V23.19C21.4 23.38 21.25 23.53 21.07 23.53ZM23.97 23.26C23.97 23.41 23.85 23.54 23.69 23.54H22.26V18.51H23.69C23.84 18.51 23.97 18.63 23.97 18.79V23.26ZM23.97 13.21C23.97 13.36 23.85 13.49 23.69 13.49H22.26V8.46H23.69C23.84 8.46 23.97 8.58 23.97 8.74V13.21ZM25.68 23.26C25.68 23.41 25.56 23.54 25.4 23.54H24.83V18.51H25.4C25.55 18.51 25.68 18.63 25.68 18.79V23.26ZM25.68 13.22C25.68 13.37 25.56 13.5 25.4 13.5H24.83V8.47H25.4C25.55 8.47 25.68 8.59 25.68 8.75V13.22Z" fill="#213147"/>
</g>
<defs>
<clipPath id="clip0_3065_5">
<rect width="32" height="32" fill="white"/>
</clipPath>
</defs>
</svg>
