<svg width="32" height="32" viewBox="0 0 32 32" fill="none" xmlns="http://www.w3.org/2000/svg">
<g clip-path="url(#clip0_3065_3)">
<rect width="32" height="32" fill="white"/>
<path d="M16 32C24.8366 32 32 24.8366 32 16C32 7.16344 24.8366 0 16 0C7.16344 0 0 7.16344 0 16C0 24.8366 7.16344 32 16 32Z" fill="black"/>
<path d="M22.26 18.51H23.69C23.84 18.51 23.97 18.63 23.97 18.79V23.26C23.97 23.41 23.85 23.54 23.69 23.54H22.26V18.51Z" fill="white"/>
<path d="M24.83 18.51H25.4C25.55 18.51 25.68 18.63 25.68 18.79V23.26C25.68 23.41 25.56 23.54 25.4 23.54H24.83V18.51Z" fill="white"/>
<path d="M22.26 8.45996H23.69C23.84 8.45996 23.97 8.57996 23.97 8.73996V13.21C23.97 13.36 23.85 13.49 23.69 13.49H22.26V8.45996Z" fill="white"/>
<path d="M24.83 8.45996H25.4C25.55 8.45996 25.68 8.57996 25.68 8.73996V13.21C25.68 13.36 25.56 13.49 25.4 13.49H24.83V8.45996Z" fill="white"/>
<path d="M16.03 13.5H11.69C11.51 13.5 11.36 13.65 11.36 13.83V18.14C11.36 18.32 11.51 18.47 11.69 18.47H16.03C16.21 18.47 16.36 18.32 16.36 18.14V13.83C16.36 13.65 16.21 13.5 16.03 13.5Z" fill="white"/>
<path d="M11.01 8.45996H6.65C6.46 8.45996 6.31 8.60996 6.31 8.79996V13.16C6.31 13.35 6.46 13.5 6.65 13.5H11.01C11.2 13.5 11.35 13.35 11.35 13.16V8.79996C11.35 8.60996 11.2 8.45996 11.01 8.45996Z" fill="white"/>
<path d="M21.06 8.45996H16.7C16.51 8.45996 16.36 8.60996 16.36 8.79996V13.16C16.36 13.35 16.51 13.5 16.7 13.5H21.06C21.25 13.5 21.4 13.35 21.4 13.16V8.79996C21.4 8.60996 21.25 8.45996 21.06 8.45996Z" fill="white"/>
<path d="M11.01 18.51H6.65C6.46 18.51 6.31 18.66 6.31 18.85V23.21C6.31 23.4 6.46 23.55 6.65 23.55H11.01C11.2 23.55 11.35 23.4 11.35 23.21V18.85C11.35 18.66 11.2 18.51 11.01 18.51Z" fill="white"/>
<path d="M21.06 18.51H16.7C16.51 18.52 16.37 18.67 16.37 18.86V23.22C16.38 23.41 16.53 23.55 16.72 23.55H21.08C21.27 23.54 21.41 23.39 21.41 23.2V18.84C21.4 18.65 21.25 18.51 21.06 18.51Z" fill="white"/>
</g>
<defs>
<clipPath id="clip0_3065_3">
<rect width="32" height="32" fill="white"/>
</clipPath>
</defs>
</svg>
