<svg width="32" height="32" viewBox="0 0 32 32" fill="none" xmlns="http://www.w3.org/2000/svg">
<g clip-path="url(#clip0_3036_5)">
<path d="M16 32C24.8366 32 32 24.8366 32 16C32 7.16344 24.8366 0 16 0C7.16344 0 0 7.16344 0 16C0 24.8366 7.16344 32 16 32Z" fill="#202E29"/>
<path d="M28.84 16.0701C28.84 16.2001 28.84 16.3301 28.84 16.4601H22.6V16.1701H16.59C16.59 16.1101 16.59 16.0501 16.59 15.9901C16.59 15.9301 16.59 15.8701 16.59 15.8101H22.6V15.5301H28.84C28.84 15.7101 28.85 15.8901 28.85 16.0601L28.84 16.0701ZM16.47 14.7801L22.35 14.0501L22.39 14.3301L28.6 13.5601C28.54 13.2501 28.47 12.9501 28.39 12.6501L22.28 13.4101L22.32 13.6901L16.41 14.4201C16.44 14.5401 16.46 14.6501 16.48 14.7701L16.47 14.7801ZM16.17 13.6301L21.79 12.2201L21.86 12.5001L27.83 11.0001C27.71 10.7101 27.58 10.4201 27.43 10.1401L21.64 11.6001L21.71 11.8801L16.04 13.3101C16.09 13.4201 16.13 13.5301 16.17 13.6401V13.6301ZM15.67 12.5601L20.92 10.5601L21.02 10.8301L26.58 8.72008C26.4 8.45008 26.21 8.20008 26.01 7.95008L20.7 9.97008L20.8 10.2401L15.48 12.2601C15.55 12.3601 15.61 12.4601 15.67 12.5701V12.5601ZM14.98 11.5701L19.62 9.14008L19.75 9.39008L24.88 6.70008C24.64 6.47008 24.4 6.25008 24.15 6.04008L19.33 8.57008L19.46 8.82008L14.74 11.3001C14.82 11.3901 14.9 11.4801 14.98 11.5701ZM13.86 10.5001L18.06 7.81008L18.21 8.05008L22.85 5.08008C22.56 4.89008 22.26 4.72008 21.95 4.56008L17.72 7.27008L17.87 7.51008L13.55 10.2801C13.66 10.3501 13.76 10.4301 13.86 10.5001ZM12.86 9.87008L16.38 6.96008L16.56 7.18008L20.53 3.90008C20.19 3.77008 19.85 3.65008 19.5 3.55008L15.98 6.45008L16.16 6.67008L12.51 9.68008C12.63 9.73008 12.75 9.79008 12.86 9.85008V9.87008ZM11.55 9.36008L14.33 6.57008L14.53 6.77008L18.06 3.23008C17.68 3.17008 17.29 3.12008 16.89 3.09008L13.88 6.11008L14.08 6.31008L11.14 9.25008C11.28 9.28008 11.41 9.31008 11.54 9.35008L11.55 9.36008ZM10.01 9.13008L12.23 6.42008L12.45 6.60008L15.34 3.08008C14.9 3.10008 14.47 3.14008 14.04 3.21008L11.74 6.02008L11.96 6.20008L9.56001 9.13008C9.63001 9.13008 9.70001 9.13008 9.76001 9.13008C9.85001 9.13008 9.93001 9.13008 10.01 9.13008ZM8.68001 9.21008L10.39 6.55008L10.63 6.71008L12.7 3.49008C12.23 3.61008 11.77 3.76008 11.32 3.94008L9.87001 6.21008L10.11 6.37008L8.22001 9.32008C8.38001 9.28008 8.54001 9.25008 8.70001 9.22008L8.68001 9.21008ZM7.21001 9.62008L8.44001 7.30008L8.69001 7.43008L10.32 4.36008C9.80001 4.62008 9.30001 4.91008 8.82001 5.23008L7.88001 6.99008L8.13001 7.12008L6.68001 9.85008C6.85001 9.76008 7.03001 9.68008 7.21001 9.61008V9.62008ZM6.15001 10.1601L6.67001 8.67008L6.94001 8.77008L7.96001 5.87008C7.44001 6.28008 6.96001 6.73008 6.51001 7.22008L6.07001 8.47008L6.34001 8.57008L5.66001 10.5201C5.82001 10.4001 5.98001 10.2801 6.15001 10.1801V10.1601ZM4.84001 11.2301L5.07001 10.1401L5.35001 10.2001L5.81001 8.01008C5.32001 8.64008 4.89001 9.31008 4.52001 10.0201L4.73001 10.0601L4.31001 11.8601C4.48001 11.6401 4.66001 11.4201 4.85001 11.2201L4.84001 11.2301ZM3.89001 12.5001V11.0601C3.54001 11.9801 3.30001 13.1201 3.17001 14.2401C3.33001 13.6201 3.58001 13.0301 3.89001 12.4901V12.5001ZM3.17001 17.7901C3.31001 18.7501 3.54001 19.6701 3.87001 20.5501V19.4901C3.57001 18.9701 3.33001 18.4001 3.17001 17.7901ZM4.35001 20.1901L4.72001 21.9301L4.51001 21.9701C4.88001 22.6801 5.31001 23.3501 5.80001 23.9801L5.34001 21.7901L5.06001 21.8501L4.83001 20.7501C4.66001 20.5701 4.50001 20.3801 4.35001 20.1801V20.1901ZM5.64001 21.4801L6.33001 23.4501L6.06001 23.5501L6.50001 24.8001C6.95001 25.2801 7.43001 25.7301 7.95001 26.1501L6.93001 23.2501L6.66001 23.3501L6.14001 21.8501C5.97001 21.7401 5.81001 21.6301 5.65001 21.5101L5.64001 21.4801ZM6.67001 22.1301L8.12001 24.8701L7.87001 25.0001L8.81001 26.7601C9.29001 27.0801 9.79001 27.3701 10.31 27.6301L8.68001 24.5601L8.43001 24.6901L7.20001 22.3701C7.02001 22.3001 6.84001 22.2101 6.67001 22.1301ZM8.19001 22.7001L10.08 25.6501L9.84001 25.8101L11.29 28.0801C11.74 28.2501 12.2 28.4001 12.67 28.5301L10.6 25.3101L10.36 25.4701L8.65001 22.8101C8.49001 22.7801 8.33001 22.7501 8.17001 22.7101L8.19001 22.7001ZM9.55001 22.8801L11.95 25.8101L11.73 25.9901L14.03 28.8001C14.46 28.8601 14.89 28.9101 15.33 28.9301L12.44 25.4101L12.22 25.5901L10 22.8801C9.92001 22.8801 9.84001 22.8801 9.76001 22.8801C9.69001 22.8801 9.62001 22.8801 9.55001 22.8801ZM11.14 22.7401L14.08 25.6801L13.88 25.8801L16.89 28.9001C17.28 28.8701 17.67 28.8201 18.06 28.7601L14.53 25.2201L14.33 25.4201L11.55 22.6401C11.42 22.6801 11.28 22.7101 11.15 22.7401H11.14ZM12.51 22.3001L16.16 25.3101L15.98 25.5301L19.5 28.4301C19.85 28.3301 20.2 28.2101 20.53 28.0801L16.56 24.8001L16.38 25.0201L12.86 22.1201C12.74 22.1801 12.63 22.2401 12.51 22.2901V22.3001ZM13.54 21.7201L17.86 24.4801L17.71 24.7201L21.94 27.4301C22.25 27.2701 22.55 27.0901 22.84 26.9101L18.2 23.9401L18.05 24.1801L13.85 21.4901C13.75 21.5701 13.65 21.6401 13.54 21.7101V21.7201ZM14.73 20.7101L19.44 23.1801L19.31 23.4301L24.13 25.9601C24.38 25.7501 24.63 25.5301 24.86 25.3001L19.73 22.6101L19.6 22.8601L14.96 20.4301C14.88 20.5201 14.8 20.6201 14.72 20.7001L14.73 20.7101ZM15.48 19.7501L20.79 21.7701L20.69 22.0401L26 24.0601C26.2 23.8101 26.39 23.5501 26.57 23.2901L21.01 21.1801L20.91 21.4501L15.66 19.4501C15.6 19.5501 15.54 19.6601 15.47 19.7601L15.48 19.7501ZM16.03 18.7001L21.69 20.1201L21.62 20.4001L27.41 21.8601C27.55 21.5801 27.69 21.2901 27.81 21.0001L21.84 19.5001L21.77 19.7801L16.16 18.3701C16.12 18.4801 16.07 18.5901 16.03 18.7001ZM16.4 17.5701L22.3 18.3001L22.26 18.5801L28.37 19.3401C28.45 19.0401 28.52 18.7401 28.58 18.4301L22.37 17.6601L22.33 17.9401L16.46 17.2101C16.44 17.3301 16.42 17.4401 16.39 17.5601L16.4 17.5701Z" fill="white"/>
</g>
<defs>
<clipPath id="clip0_3036_5">
<rect width="32" height="32" fill="white"/>
</clipPath>
</defs>
</svg>
