<svg width="32" height="32" viewBox="0 0 32 32" fill="none" xmlns="http://www.w3.org/2000/svg">
<g clip-path="url(#clip0_3036_3)">
<path d="M16 0C7.16 0 0 7.17 0 16C0 24.83 7.16 32 16 32C24.84 32 32 24.84 32 16C32 7.16 24.84 0 16 0ZM28.6 13.57L22.39 14.34L22.35 14.06L16.47 14.79C16.45 14.68 16.43 14.56 16.4 14.44L22.31 13.71L22.27 13.43L28.38 12.67C28.46 12.97 28.53 13.27 28.59 13.58L28.6 13.57ZM27.42 10.15C27.56 10.43 27.69 10.72 27.82 11.01L21.85 12.51L21.78 12.23L16.16 13.64C16.12 13.53 16.08 13.42 16.03 13.31L21.7 11.88L21.63 11.6L27.42 10.14V10.15ZM26.58 8.73L21.02 10.84L20.92 10.57L15.66 12.57C15.6 12.47 15.54 12.36 15.47 12.26L20.79 10.24L20.69 9.97L26 7.95C26.2 8.2 26.39 8.46 26.57 8.72L26.58 8.73ZM24.88 6.7L19.75 9.39L19.62 9.14L14.98 11.57C14.9 11.48 14.82 11.39 14.74 11.3L19.46 8.82L19.33 8.57L24.15 6.04C24.4 6.25 24.65 6.47 24.88 6.7ZM22.85 5.09L18.21 8.06L18.06 7.82L13.86 10.51C13.76 10.43 13.66 10.36 13.55 10.29L17.87 7.52L17.72 7.28L21.95 4.57C22.26 4.73 22.55 4.91 22.85 5.09ZM20.53 3.92L16.56 7.2L16.38 6.98L12.86 9.89C12.74 9.83 12.63 9.77 12.51 9.72L16.16 6.71L15.98 6.49L19.5 3.59C19.85 3.69 20.2 3.81 20.53 3.94V3.92ZM16.9 3.1C17.29 3.13 17.68 3.18 18.07 3.24L14.54 6.78L14.34 6.58L11.56 9.37C11.43 9.33 11.29 9.3 11.16 9.27L14.1 6.33L13.9 6.13L16.91 3.11L16.9 3.1ZM15.34 3.08L12.45 6.6L12.23 6.42L10.01 9.13C9.93 9.13 9.84 9.13 9.76 9.13C9.69 9.13 9.62 9.13 9.56 9.13L11.96 6.2L11.74 6.02L14.04 3.21C14.47 3.15 14.9 3.1 15.34 3.08ZM12.7 3.49L10.63 6.71L10.39 6.55L8.68 9.21C8.52 9.23 8.36 9.27 8.2 9.3L10.09 6.35L9.85 6.19L11.3 3.92C11.75 3.75 12.21 3.6 12.68 3.47L12.7 3.49ZM10.31 4.37L8.68 7.44L8.43 7.31L7.2 9.63C7.02 9.7 6.84 9.79 6.67 9.87L8.12 7.14L7.87 7.01L8.81 5.25C9.29 4.93 9.79 4.64 10.31 4.38V4.37ZM6.51 7.22C6.96 6.74 7.44 6.29 7.96 5.87L6.94 8.77L6.67 8.67L6.15 10.16C5.98 10.27 5.82 10.38 5.66 10.5L6.34 8.55L6.07 8.45L6.51 7.2V7.22ZM3.88 20.55C3.55 19.67 3.31 18.75 3.18 17.79C3.34 18.39 3.58 18.96 3.88 19.49V20.55ZM3.89 12.51C3.57 13.05 3.33 13.63 3.17 14.26C3.3 13.14 3.55 12 3.89 11.08V12.52V12.51ZM4.52 10.03C4.89 9.32 5.32 8.65 5.81 8.02L5.35 10.21L5.07 10.15L4.84 11.24C4.65 11.44 4.47 11.65 4.3 11.88L4.72 10.08L4.51 10.04L4.52 10.03ZM4.51 21.98L4.72 21.94L4.35 20.2C4.5 20.4 4.66 20.58 4.83 20.76L5.06 21.86L5.34 21.8L5.8 23.99C5.31 23.36 4.88 22.69 4.51 21.98ZM6.5 24.8L6.06 23.55L6.33 23.45L5.64 21.48C5.8 21.61 5.97 21.72 6.13 21.83L6.65 23.33L6.92 23.23L7.94 26.13C7.42 25.72 6.94 25.27 6.49 24.78L6.5 24.8ZM8.8 26.77L7.86 25.01L8.11 24.88L6.66 22.15C6.83 22.24 7.01 22.32 7.19 22.39L8.42 24.71L8.67 24.58L10.3 27.65C9.78 27.39 9.28 27.1 8.8 26.78V26.77ZM11.3 28.08L9.85 25.81L10.09 25.65L8.2 22.7C8.36 22.74 8.52 22.77 8.68 22.79L10.39 25.46L10.63 25.3L12.7 28.52C12.23 28.4 11.77 28.25 11.32 28.07L11.3 28.08ZM14.03 28.8L11.73 25.99L11.95 25.81L9.55 22.88H9.76C9.84 22.88 9.92 22.88 10 22.88L12.22 25.59L12.44 25.41L15.33 28.93C14.89 28.91 14.46 28.87 14.03 28.8ZM16.89 28.9L13.88 25.88L14.08 25.68L11.14 22.74C11.28 22.71 11.41 22.68 11.54 22.64L14.32 25.42L14.52 25.22L18.05 28.76C17.67 28.82 17.28 28.87 16.88 28.9H16.89ZM19.49 28.44L15.97 25.54L16.15 25.32L12.5 22.31C12.62 22.26 12.74 22.2 12.85 22.14L16.37 25.04L16.55 24.82L20.52 28.09C20.18 28.22 19.84 28.34 19.49 28.44ZM21.94 27.45L17.71 24.74L17.86 24.5L13.54 21.74C13.65 21.67 13.75 21.6 13.85 21.52L18.05 24.21L18.2 23.97L22.84 26.94C22.55 27.13 22.25 27.3 21.94 27.46V27.45ZM24.14 25.97L19.32 23.44L19.45 23.19L14.74 20.72C14.82 20.63 14.9 20.54 14.98 20.45L19.62 22.88L19.75 22.63L24.88 25.32C24.64 25.55 24.4 25.77 24.15 25.98L24.14 25.97ZM26 24.06L20.69 22.04L20.79 21.77L15.48 19.75C15.55 19.65 15.61 19.55 15.67 19.44L20.92 21.43L21.02 21.16L26.58 23.27C26.4 23.54 26.21 23.79 26.01 24.04L26 24.06ZM27.41 21.86L21.62 20.4L21.69 20.12L16.03 18.7C16.07 18.59 16.12 18.48 16.16 18.37L21.77 19.78L21.84 19.5L27.81 21C27.69 21.29 27.56 21.58 27.41 21.86ZM28.38 19.35L22.27 18.59L22.31 18.31L16.41 17.58C16.44 17.46 16.46 17.35 16.48 17.23L22.35 17.96L22.39 17.68L28.6 18.45C28.54 18.76 28.47 19.06 28.39 19.36L28.38 19.35ZM28.82 16.47H22.59V16.18H16.58C16.58 16.12 16.58 16.06 16.58 16C16.58 15.94 16.58 15.88 16.58 15.82H22.59V15.54H28.83C28.83 15.72 28.84 15.9 28.84 16.07C28.84 16.2 28.84 16.33 28.84 16.46H28.83L28.82 16.47Z" fill="#213147"/>
</g>
<defs>
<clipPath id="clip0_3036_3">
<rect width="32" height="32" fill="white"/>
</clipPath>
</defs>
</svg>
