<svg width="32" height="32" viewBox="0 0 32 32" fill="none" xmlns="http://www.w3.org/2000/svg">
<path d="M16 0C7.16 0 0 7.16 0 16C0 24.84 7.16 32 16 32C24.84 32 32 24.84 32 16C32 7.16 24.84 0 16 0ZM19.75 24.49C18.49 26.16 15.72 26.81 14.06 26.05C13.14 25.63 12.32 25.11 11.78 24.31C10.96 23.09 10.45 21.74 11.05 20.23C11.21 19.84 11.35 19.45 11.52 19.02C10.9 19.14 10.28 19.27 9.66 19.39C9.55 18.96 9.45 18.59 9.38 18.22C9.39 18.11 9.46 18.01 9.56 17.96C10.93 17.67 12.31 17.4 13.68 17.11C13.92 17.06 13.99 17.13 14.02 17.35C14.12 18.13 14.21 18.91 14.32 19.69C14.4 20.27 14.49 20.85 14.59 21.43C14.63 21.67 14.59 21.78 14.33 21.81C13.96 21.84 13.6 21.89 13.22 21.93L12.87 19.64C12.36 20.56 12.01 21.38 12.36 22.34C12.64 23.11 13.03 23.81 13.71 24.27C14.8 25.01 15.98 25.21 17.24 24.68C17.94 24.4 18.53 23.91 18.93 23.27C19.47 22.43 19.63 21.39 19.36 20.42C19.11 19.51 18.63 18.79 17.8 18.31C17.54 18.16 17.34 17.93 17.38 17.56C17.42 17.17 17.39 16.76 17.39 16.25C17.83 16.54 18.2 16.75 18.52 17.02C18.97 17.41 19.4 17.82 19.81 18.25C20.43 18.9 20.7 19.71 20.83 20.58C21.05 22.05 20.64 23.31 19.75 24.5V24.49ZM15.3 15.9C15.3 13.89 15.3 11.88 15.3 9.87C15.3 9.52 15.38 9.38 15.75 9.42C16.05 9.45 16.36 9.42 16.72 9.42V22.51C16.3 22.51 15.9 22.51 15.51 22.51C15.22 22.51 15.31 22.27 15.31 22.12C15.31 20.04 15.31 17.97 15.31 15.89L15.3 15.9ZM22.53 13.43C21.32 13.89 20.11 14.34 18.9 14.78C18.39 14.97 18.39 14.92 18.25 14.4C17.98 13.37 17.67 12.35 17.37 11.32C17.29 11.04 17.21 10.76 17.13 10.44C17.52 10.3 17.92 10.18 18.33 10.09C18.41 10.08 18.59 10.34 18.64 10.5C18.76 10.85 18.81 11.22 18.91 11.59C18.96 11.77 19.04 11.94 19.13 12.17C19.53 11.44 19.56 10.73 19.44 10C19.27 8.88 18.57 7.91 17.55 7.41C17 7.14 16.39 7 15.77 7.01C14.46 7.03 13.42 7.67 12.72 8.79C11.94 10.08 12.07 11.72 13.05 12.86C13.44 13.27 13.87 13.64 14.34 13.97C14.57 14.14 14.68 14.31 14.67 14.59C14.66 15.02 14.67 15.44 14.67 15.97C14.29 15.71 13.97 15.51 13.67 15.27C13.12 14.83 12.58 14.39 12.07 13.91C11.35 13.23 11.02 12.34 10.87 11.4C10.61 9.7 11.13 8.21 12.35 7.03C13.66 5.76 15.26 5.37 17.05 5.75C18.38 6.04 19.39 6.8 20.11 7.9C20.86 9.05 21.06 10.35 20.77 11.7C20.71 11.99 20.64 12.27 20.56 12.62C21.17 12.41 21.74 12.22 22.36 12.01C22.49 12.38 22.63 12.72 22.72 13.08C22.72 13.22 22.64 13.34 22.52 13.41L22.53 13.43Z" fill="#213147"/>
</svg>
