<svg width="32" height="32" viewBox="0 0 32 32" fill="none" xmlns="http://www.w3.org/2000/svg">
  <path d="M16 32C24.8366 32 32 24.8366 32 16C32 7.16344 24.8366 0 16 0C7.16344 0 0 7.16344 0 16C0 24.8366 7.16344 32 16 32Z" fill="#3861E5"/>
  <path d="M6.93999 8C6.38999 8 6.17999 8.68 6.63999 8.96L18.15 15.9C18.44 16.08 18.82 16.01 19.02 15.74L24.08 9.1C24.42 8.64 24.08 8 23.48 8H6.93999ZM25.04 24C25.59 24 25.81 23.32 25.35 23.04L13.83 16.1C13.54 15.92 13.17 16 12.97 16.27L7.9 22.91C7.56 23.37 7.91 24 8.51 24H25.04Z" fill="white"/>
</svg>
