<svg width="32" height="32" viewBox="0 0 32 32" fill="none" xmlns="http://www.w3.org/2000/svg">
  <circle cx="16" cy="16" r="15" stroke="currentColor" stroke-width="2" />
  <g clip-path="url(#circleClip)">
    <g style="transform: scale(0.8125); transform-origin: 50% 50%;"><path fill="currentColor" fill-rule="evenodd" d="M16.5.43c-8.84 0-16 7.16-16 16s7.16 16 16 16 16-7.16 16-16-7.16-16-16-16m9.3 10.53v2.47l-2.1 1.24V12.2l-2.09-1.24 2.09-1.24zm-9.31-5.47 5.7 3.35-2.09 1.24-3.61-2.13-3.59 2.13-2.09-1.24 5.69-3.35zm2.11 5.47-2.1 1.24-2.09-1.24 2.09-1.24zm-11.4 0 2.09-1.24 2.1 1.24-2.1 1.24v2.47L7.2 13.43zm5.7 14.29-5.7-3.34v-6.72l2.09 1.24v4.23l3.61 2.12v2.48zm0-4.24-2.09-1.23V17.3l2.09 1.24zm5.7 5.12-2.1 1.24-2.09-1.24v-2.47l2.09 1.24 2.1-1.24zm0-4.22-2.09 1.23-2.09-1.23v-4.24l-3.61-2.12v-2.48l2.1-1.24 3.58 2.13 3.61-2.13 2.1 1.24v2.48l-3.59 2.12v4.24zm1.5-3.37 2.09-1.24v2.48l-2.09 1.23zm5.7 3.37-5.7 3.34v-2.48l3.59-2.11v-4.23l2.11-1.24z" clip-rule="evenodd"/></g>
  </g>
  <defs>
    <clipPath id="circleClip">
      <circle cx="16" cy="16" r="13" />
    </clipPath>
  </defs>
</svg>