<svg width="32" height="32" fill="none" viewBox="0 0 32 32" xmlns="http://www.w3.org/2000/svg"><circle cx="16" cy="16" r="15" stroke="currentColor" stroke-width="2"/><g clip-path="url(#abusd__circleClip)"><g style="transform:scale(.8125);transform-origin:50% 50%"><path fill="currentColor" d="M16 0C7.16 0 0 7.16 0 16s7.16 16 16 16 16-7.16 16-16S24.84 0 16 0m0 3.25 3.18 3.18-7.98 7.98-3.18-3.18zM3.25 16l3.18-3.18L9.61 16l-3.18 3.18zm4.79 4.78L20.79 8.03l3.18 3.18-12.75 12.75zM16 28.75l-3.18-3.19 12.75-12.74L28.75 16z"/></g></g><defs><clipPath id="abusd__circleClip"><circle cx="16" cy="16" r="13"/></clipPath></defs></svg>