<svg width="32" height="32" fill="none" viewBox="0 0 32 32" xmlns="http://www.w3.org/2000/svg"><circle cx="16" cy="16" r="15" stroke="currentColor" stroke-width="2"/><g clip-path="url(#acbbtc__circleClip)"><g fill="currentColor" style="transform:scale(.8125);transform-origin:50% 50%"><path d="m15.94 13.52-.43 1.71c.48.12 1.97.61 2.21-.36.25-1.01-1.3-1.23-1.79-1.35zm-.64 2.57-.47 1.88c.58.14 2.37.72 2.63-.34.28-1.11-1.58-1.39-2.16-1.54"/><path d="M17.87 8.43a7.794 7.794 0 0 0-9.45 5.68 7.794 7.794 0 0 0 5.68 9.45 7.794 7.794 0 0 0 9.45-5.68 7.794 7.794 0 0 0-5.68-9.45m1.55 6.46c-.11.76-.53 1.13-1.09 1.26.77.4 1.16 1.01.79 2.08-.46 1.32-1.56 1.43-3.02 1.16l-.35 1.42-.86-.21.35-1.4c-.22-.06-.45-.11-.68-.18l-.35 1.41-.85-.21.35-1.42c-.2-.05-.4-.11-.61-.16l-1.11-.28.42-.98s.63.17.62.16c.24.06.35-.1.39-.2l.56-2.24s.06.02.09.02c-.03-.01-.07-.02-.09-.03l.4-1.6c.01-.18-.05-.41-.4-.5.01 0-.62-.15-.62-.15l.23-.91 1.18.29c.18.05.36.09.55.13l.35-1.41.86.21-.34 1.38c.23.05.46.11.69.16l.34-1.37.86.21-.35 1.41c1.08.37 1.87.93 1.72 1.97z"/><path d="M16 0C7.16 0 0 7.16 0 16s7.16 16 16 16 16-7.16 16-16S24.84 0 16 0m7.69 16c0 .32-.03.63-.06.94h3.58C26.73 22.71 21.9 27.25 16 27.25 9.79 27.25 4.75 22.21 4.75 16S9.79 4.75 16 4.75s10.73 4.54 11.21 10.31h-3.58c.04.31.06.62.06.94"/></g></g><defs><clipPath id="acbbtc__circleClip"><circle cx="16" cy="16" r="13"/></clipPath></defs></svg>