<svg width="32" height="32" fill="none" viewBox="0 0 32 32" xmlns="http://www.w3.org/2000/svg"><circle cx="16" cy="16" r="15" stroke="currentColor" stroke-width="2"/><g clip-path="url(#aebtc__circleClip)"><g fill="currentColor" style="transform:scale(.8125);transform-origin:50% 50%"><path d="M16 0C7.16 0 0 7.16 0 16s7.16 16 16 16 16-7.16 16-16S24.84 0 16 0m0 31.03C7.71 31.03.96 24.28.96 15.99S7.71.95 16 .95 31.04 7.7 31.04 15.99 24.29 31.03 16 31.03"/><path d="M18.66 13.76c0-1.83-2.75-1.56-3.62-1.56v3.1c.87 0 3.62.21 3.62-1.54m-3.62 3.09v3.41c1.05 0 4.34.22 4.34-1.7s-3.29-1.7-4.34-1.71"/><path d="M16 1.51c-7.98 0-14.48 6.5-14.48 14.48S8.02 30.47 16 30.47s14.48-6.5 14.48-14.48S23.98 1.51 16 1.51m6.43 17.36c-.23 2.45-2.05 3.09-4.66 3.25v2.55h-1.55v-2.53h-1.24v2.54h-1.55V22.1h-3.11l.29-1.85s1.14.02 1.12 0c.07 0 .14 0 .21-.03s.13-.06.19-.11c.05-.05.1-.1.13-.17.03-.06.05-.14.06-.21v-6.96a.84.84 0 0 0-.3-.52.8.8 0 0 0-.58-.16c.02-.02-1.12 0-1.12 0v-1.65h3.14V7.9h1.53v2.48h1.24V7.9h1.55v2.52c2 .19 3.58.8 3.76 2.64.13 1.34-.43 2.16-1.33 2.6 1.48.35 2.4 1.23 2.22 3.2z"/></g></g><defs><clipPath id="aebtc__circleClip"><circle cx="16" cy="16" r="13"/></clipPath></defs></svg>