<svg xmlns="http://www.w3.org/2000/svg" width="32" height="32" fill="none" viewBox="0 0 32 32"><circle cx="16" cy="16" r="15" stroke="currentColor" stroke-width="2"/><g clip-path="url(#gfi58__circleClip)"><g fill="currentColor" style="transform:scale(.8125);transform-origin:50% 50%"><path d="M9.96 15.86h-.02v.01l.01.01 5.49 2.91s.07.03.11.05V12.9s-.08.03-.11.05l-5.49 2.91zm-.09-6.14v5.18l4.94-2.59zm6.56 9.12s.08-.03.11-.05l5.49-2.91h.02v-.01l-.01-.01-5.49-2.91s-.07-.03-.11-.05v5.94zM9.96 8.79l5.5 2.91c.29.15.8.15 1.09 0l5.5-2.91h.02v-.01l-.01-.01-5.5-2.91c-.29-.15-.8-.15-1.09 0l-5.5 2.91h-.02v.01zm12.13 6.11V9.72l-4.94 2.59z"/><path d="m15.03 19.51-5.15-2.73v6.42l5.15 2.71c.3.16.62.32.93.33h.02c.31 0 .61-.16.91-.3l5.2-2.76v-6.4l-5.17 2.73c-.54.28-1.36.28-1.9 0z"/><path d="M16 0C7.16 0 0 7.16 0 16s7.16 16 16 16 16-7.16 16-16S24.84 0 16 0M9.09 25.84l-.35-.21-.06-.04c-.09-.05-.17-.11-.26-.17-.83-.56-1.14-1.18-1.14-2.45v-.04h.86c0 .56.06.93.19 1.18.11.21.26.38.55.58h.02c.06.05.13.1.22.15l.1.06.31.19-.44.74zm13.87-2.59c0 .29-.19.57-.54.76l-5.5 2.9c-.54.28-1.36.28-1.9 0l-5.5-2.9c-.35-.19-.52-.47-.53-.76V8.68c.02-.27.19-.51.53-.69l5.5-2.9c.54-.28 1.36-.28 1.9 0l5.5 2.9c.32.17.5.43.53.69v14.57zm.9-14.19c0-.56-.06-.93-.19-1.18-.11-.21-.26-.38-.55-.58h-.02c-.07-.06-.15-.11-.22-.15l-.1-.06-.31-.19.44-.74.35.21.06.04c.1.06.18.12.26.17.83.56 1.14 1.18 1.14 2.45v.04h-.86z"/></g></g><defs><clipPath id="gfi58__circleClip"><circle cx="16" cy="16" r="13"/></clipPath></defs></svg>