<svg width="32" height="32" fill="none" viewBox="0 0 32 32" xmlns="http://www.w3.org/2000/svg"><circle cx="16" cy="16" r="15" stroke="currentColor" stroke-width="2"/><g clip-path="url(#albtc__circleClip)"><g fill="currentColor" style="transform:scale(.8125);transform-origin:50% 50%"><path d="M15.31 14.96c1.45.02 4.62.08 4.62-2.09 0-2.21-3.05-2.14-4.54-2.1h-.1c-.19 0-.34.16-.34.35v3.48c0 .19.15.35.35.35zm.17 2.09h-.17c-.19 0-.34.16-.34.35v3.9c0 .19.15.35.35.35h.07c1.74.02 5.55.08 5.55-2.3 0-2.44-3.66-2.35-5.45-2.31zm-.57 10.06h1.7V24.2c-.55 0-1.12 0-1.7-.02zm-2.12-2.96c-.5 0-2.79-.01-4.22-.01v-1.25H1.58c.75 1.56 1.73 2.99 2.92 4.22h8.29zm-1.52-2.63V10.51H8.72v-.32H1.11C.4 12 0 13.96 0 16.02c0 2.28.49 4.44 1.35 6.4h7.22v-.9zM8.73 8.4h4.06V5.49H3.97C2.87 6.74 1.96 8.16 1.3 9.71h7.43zm7.89-.1.02-2.82h-1.72v2.84a98 98 0 0 1 1.7-.02"/><path d="M16 .01c-4.57 0-8.69 1.92-11.61 5h14.38l-.03 3.38c2.75.24 4.92 1.07 5.16 3.54.18 1.81-.59 2.9-1.83 3.52 2.03.48 3.3 1.67 3.05 4.32-.31 3.3-2.81 4.18-6.39 4.38v3.43H4.98C7.85 30.31 11.73 32 16 32c8.84 0 16-7.16 16-16S24.84 0 16 0z"/></g></g><defs><clipPath id="albtc__circleClip"><circle cx="16" cy="16" r="13"/></clipPath></defs></svg>