<svg width="32" height="32" viewBox="0 0 32 32" fill="none" xmlns="http://www.w3.org/2000/svg">
  <circle cx="16" cy="16" r="15" stroke="currentColor" stroke-width="2" />
  <g clip-path="url(#circleClip)">
    <g style="transform: scale(0.8125); transform-origin: 50% 50%;"><g clip-path="url(#clip0_297_20)"><path fill="currentColor" d="M16 0C7.164 0 0 7.164 0 16s7.164 16 16 16 16-7.164 16-16S24.836 0 16 0m-5.08 27.607-1.96-1.96 4.587-4.587-4.587-4.588 1.96-1.96 6.537 6.537-6.537 6.538zm7.379-7.368L11.76 13.7l1.95-1.95 6.538 6.538zm4.741-4.732-1.96 1.96-6.537-6.537 6.537-6.537 1.96 1.96-4.587 4.587 4.587 4.588z"/></g><defs><clipPath id="clip0_297_20"><path fill="#fff" d="M0 0h32v32H0z"/></clipPath></defs></g>
  </g>
  <defs>
    <clipPath id="circleClip">
      <circle cx="16" cy="16" r="13" />
    </clipPath>
  </defs>
</svg>