<svg width="32" height="32" viewBox="0 0 32 32" fill="none" xmlns="http://www.w3.org/2000/svg">
  <circle cx="16" cy="16" r="15" stroke="currentColor" stroke-width="2" />
  <g clip-path="url(#circleClip)">
    <g style="transform: scale(0.8125); transform-origin: 50% 50%;"><path fill="currentColor" d="M16.28.78c-8.84 0-16 7.16-16 16s7.16 16 16 16 16-7.16 16-16-7.16-16-16-16m9.3 24.21-6.72 3.92-2.49 1.43-2.49-1.43-6.85-3.92-2.49-1.43V9.99l2.49-1.43 6.79-3.92 2.49-1.43 2.49 1.43 6.79 3.92 2.49 1.43v13.57l-2.49 1.43z"/><path fill="currentColor" d="M9.52 12.85v7.85l6.78 3.92 6.79-3.92v-7.85L16.3 8.93z"/></g>
  </g>
  <defs>
    <clipPath id="circleClip">
      <circle cx="16" cy="16" r="13" />
    </clipPath>
  </defs>
</svg>