<svg xmlns="http://www.w3.org/2000/svg" width="32" height="32" fill="none" viewBox="0 0 32 32"><circle cx="16" cy="16" r="15" stroke="currentColor" stroke-width="2"/><g clip-path="url(#alink__circleClip)"><g fill="currentColor" style="transform:scale(.8125);transform-origin:50% 50%"><path d="M16 0C7.16 0 0 7.16 0 16s7.16 16 16 16 16-7.16 16-16S24.84 0 16 0m9.3 24.21-6.72 3.92-2.49 1.43-2.49-1.43-6.85-3.92-2.49-1.43V9.21l2.49-1.43 6.79-3.92 2.49-1.43 2.49 1.43 6.79 3.92 2.49 1.43v13.57l-2.49 1.43z"/><path d="M9.24 12.07v7.85l6.78 3.92 6.79-3.92v-7.85l-6.79-3.92z"/></g></g><defs><clipPath id="alink__circleClip"><circle cx="16" cy="16" r="13"/></clipPath></defs></svg>