<svg width="32" height="32" fill="none" viewBox="0 0 32 32" xmlns="http://www.w3.org/2000/svg"><path fill="currentColor" fill-rule="evenodd" d="M16 0C7.16 0 0 7.16 0 16s7.16 16 16 16 16-7.16 16-16S24.84 0 16 0m10.2 24.8c-1.43.34-2.8.18-4.02-.7-.89-.64-1.43-1.54-1.82-2.54-.01-.04-.03-.07-.04-.11v-.02c-.17-.42-.32-.85-.46-1.28-.06.03-.09.09-.13.14-1.22 1.24-2.53 2.38-4.04 3.26-1.24.72-2.61 1.19-4.03 1.37-1.73.21-3.43.14-5.03-.64-2.06-1-3.21-2.64-3.38-4.94-.13-1.78.34-3.43 1.17-4.98 1.29-2.42 3.12-4.36 5.45-5.8 1.47-.91 3.08-1.41 4.8-1.55 1.35-.11 2.61.13 3.74.9.96.64 1.62 1.54 2.1 2.57.16.33.29.67.46 1.05.54-.85 1.92-3.04 2.33-3.69.06-.09.11-.16.23-.16h4.36c.01 0 .03.01.07.03-.25.4-3.62 5.71-3.95 6.21l-.22.35-.14.22a3.57 3.57 0 0 0-2.9-2.63l.06-.1-.06.1c-1.09-.17-2.2.17-3 .93-.24-.82-.51-1.63-.94-2.38-.31-.52-.69-.98-1.24-1.27-.72-.37-1.46-.3-2.19-.07-1.04.33-1.83 1.02-2.52 1.82-1.53 1.77-2.68 3.76-3.34 6.02-.35 1.22-.48 2.46-.23 3.72.29 1.42 1.26 2.27 2.62 2.27.48 0 .95-.09 1.39-.27 1.17-.45 2.14-1.21 3.05-2.05 1.08-1 2-2.12 2.84-3.31.52.83 1.36 1.4 2.32 1.6 1.24.25 2.52-.18 3.37-1.13.24.59.49 1.52.73 2.25.06.18.12.36.19.54.26.66.54 1.3 1.07 1.79.03.03.07.06.11.09.69.57 1.51.72 2.37.75.47.02.93-.05 1.46-.09-.73.86-1.55 1.47-2.59 1.72zm-2.54-10.31s-.05.07-.08.1zm-1.67.89a1.81 1.81 0 1 1-3.62 0 1.81 1.81 0 0 1 3.62 0" clip-rule="evenodd"/></svg>