<svg width="32" height="32" fill="none" viewBox="0 0 32 32" xmlns="http://www.w3.org/2000/svg"><circle cx="16" cy="16" r="15" stroke="currentColor" stroke-width="2"/><g clip-path="url(#amusd__circleClip)"><g fill="currentColor" style="transform:scale(.8125);transform-origin:50% 50%"><path d="M16 1c8.27 0 15 6.73 15 15s-6.73 15-15 15S1 24.27 1 16 7.73 1 16 1m0-1C7.16 0 0 7.16 0 16s7.16 16 16 16 16-7.16 16-16S24.84 0 16 0"/><path d="M4.37 20.27s.03-.05.04-.07v-.02a.2.2 0 0 1 .12-.08h.03c.05 0 .09 0 .13.02h.03l8.73 5.19h5l8.73-5.19h.02c.04-.02.08-.03.13-.02h.04a.2.2 0 0 1 .12.08v.02c.01.02.03.04.04.07l1.32 5.16c1.94-2.65 3.1-5.9 3.1-9.43 0-8.84-7.16-16-16-16S0 7.16 0 16c0 3.51 1.14 6.75 3.06 9.39zm5.14-3.39h8.52v-1.67h-6.26L9.5 13.25V9.24l2.27-2.28h2.12v-2.2h4.14v2.2h4.38v3.35h-8.52v1.67h6.29l2.27 2.16v3.82l-2.27 2.28h-2.15v2.2l-4.14.03v-2.22H9.51z"/><path d="m10.4 30.67 2.28-1.56-7.93-8.28-1.21 4.73c1.78 2.31 4.15 4.07 6.87 5.11zm18.02-5.11-1.21-4.73-2.19 2.28-5.74 5.99 2.28 1.56c2.71-1.03 5.08-2.79 6.87-5.11z"/></g></g><defs><clipPath id="amusd__circleClip"><circle cx="16" cy="16" r="13"/></clipPath></defs></svg>