<svg width="32" height="32" viewBox="0 0 32 32" fill="none" xmlns="http://www.w3.org/2000/svg">
  <circle cx="16" cy="16" r="15" stroke="currentColor" stroke-width="2" />
  <g clip-path="url(#circleClip)">
    <g style="transform: scale(0.8125); transform-origin: 50% 50%;"><path fill="currentColor" d="M7.65 21.18v1.21c0 1.55 1.21 2.76 2.75 2.76s2.75-1.21 2.75-2.76l.07-4.91c-1.14.2-2.21.47-3.22.94-1.48.61-2.35 1.68-2.35 2.76M13.15 15.46v-5.45c0-1.55-1.21-2.76-2.75-2.76s-2.75 1.28-2.75 2.76v7.54c.47-.4 1.01-.67 1.54-.94 1.27-.54 2.62-.94 3.96-1.14zM25.36 11.22v-1.21c0-1.55-1.21-2.76-2.75-2.76s-2.75 1.21-2.75 2.76v4.98c1.14-.2 2.21-.47 3.22-.94 1.48-.67 2.35-1.68 2.28-2.83M19.93 16.94v5.45c0 1.55 1.21 2.76 2.75 2.76s2.75-1.21 2.75-2.76v-7.54c-.47.4-1.01.67-1.54.94-1.27.54-2.62.94-3.96 1.14z"/><path fill="currentColor" d="M16.51.17c-8.84 0-16 7.16-16 16s7.16 16 16 16 16-7.16 16-16-7.16-16-16-16m10.8 22.15c0 2.49-2.01 4.51-4.56 4.57-2.62.07-4.69-2.02-4.76-4.57v-5.25c-.47.07-.94.07-1.48.07s-1.01.07-1.48.07v5.18c0 2.49-2.01 4.51-4.56 4.57-2.62.07-4.7-2.02-4.76-4.57V10.01c.07-2.49 2.08-4.57 4.56-4.57 2.62-.07 4.76 2.02 4.76 4.57v5.32c.47-.07.94-.07 1.48-.07s1.01-.07 1.48-.07v-5.18c.07-2.56 2.15-4.64 4.7-4.64s4.63 2.09 4.63 4.64v12.31z"/></g>
  </g>
  <defs>
    <clipPath id="circleClip">
      <circle cx="16" cy="16" r="13" />
    </clipPath>
  </defs>
</svg>