<svg width="32" height="32" fill="none" viewBox="0 0 32 32" xmlns="http://www.w3.org/2000/svg"><circle cx="16" cy="16" r="15" stroke="currentColor" stroke-width="2"/><g clip-path="url(#areth__circleClip)"><g style="transform:scale(.8125);transform-origin:50% 50%"><path fill="currentColor" d="M32 16.34c0-.56-.03-1.12-.09-1.67-.01-.13-.04-.26-.06-.39-.05-.42-.11-.83-.2-1.24l-.09-.36c-.1-.41-.2-.83-.33-1.23-.03-.09-.06-.17-.09-.26-.15-.43-.3-.85-.48-1.26-.02-.05-.05-.1-.08-.16-.13-.28-.26-.57-.4-.84v-.01c-.08-.15-.16-.29-.24-.44-.01-.02-.03-.04-.04-.07-.09-.17-.2-.33-.3-.49-.03-.05-.05-.09-.08-.14a11 11 0 0 0-.53-.78c-.03-.04-.06-.08-.09-.13a.6.6 0 0 0-.07-.09c-.3-.4-.62-.79-.96-1.16l-.03-.03c-.05-.06-.1-.12-.16-.17q-.3-.33-.63-.63l-.09-.09c-.05-.05-.11-.1-.16-.14-.31-.28-.62-.55-.95-.8l-.12-.09c-.11-.09-.22-.17-.34-.25-.19-.14-.37-.27-.57-.4-.08-.06-.17-.1-.26-.16-.02-.01-.04-.03-.07-.04l-.15-.09c-.02-.01-.03-.02-.05-.03-.13-.08-.27-.17-.4-.24-.21-.12-.42-.23-.64-.34-.18-.09-.36-.18-.54-.26-.12-.06-.24-.12-.37-.18-.16-.07-.33-.13-.49-.19-.25-.1-.51-.2-.77-.28h-.02c-.05-.02-.1-.04-.16-.06-.15-.05-.3-.08-.45-.13-.25-.07-.51-.14-.77-.2-.05-.01-.11-.03-.16-.04-.22-.05-.45-.09-.67-.13-.27-.05-.55-.09-.83-.13l-.48-.06h-.14C17 .43 16.61.4 16.2.4h-.16c-.54 0-1.07.03-1.6.08-.26.03-.5.07-.76.11s-.53.07-.79.12c-.3.06-.59.14-.88.22-.06.02-.12.03-.18.05-.14.04-.28.07-.41.11-.24.07-.48.16-.72.25-.14.05-.29.1-.43.16-.09.03-.18.06-.26.1-.31.13-.61.27-.91.42-.11.05-.21.1-.32.15-.04.02-.07.03-.11.05-.31.16-.61.34-.91.52-.11.07-.23.14-.34.21 0 0-.01 0-.02.01q-.465.3-.9.63a16.1 16.1 0 0 0-4.39 4.98c-.12.21-.23.42-.33.64-.09.18-.18.36-.26.54-.09.2-.19.41-.27.62-.14.35-.27.7-.39 1.06-.06.18-.11.35-.16.53-.09.32-.17.63-.25.96-.03.12-.06.23-.08.34-.09.44-.15.88-.2 1.33-.01.12-.03.25-.04.37-.1.41-.13.89-.13 1.38s.03.96.07 1.44v.06c.01.13.03.26.04.39.04.34.09.67.15 1l.09.49c.08.37.18.74.28 1.1.04.13.07.27.11.4l.06.15c.02.07.05.14.08.22.04.13.09.25.14.38a16.1 16.1 0 0 0 3.16 5.15c.34.37.7.73 1.07 1.07s.76.66 1.16.96c.33.25.67.49 1.02.71.04.03.09.05.13.08a15 15 0 0 0 1.97 1.05c.12.05.24.11.37.16.4.16.8.31 1.21.44l.32.09c.37.11.75.21 1.14.29l.26.06a16 16 0 0 0 1.7.24c.48.04.96.07 1.46.07.53 0 1.05-.03 1.56-.08.39-.04.78-.1 1.17-.17.11-.02.21-.03.32-.05.97-.19 1.91-.47 2.82-.83 1.78-.7 3.41-1.72 4.81-2.98.23-.21.46-.41.68-.63.49-.5.94-1.03 1.36-1.59l.08-.11c.57-.76 1.08-1.58 1.51-2.44l.15-.3c.27-.56.5-1.14.7-1.74v-.01c.53-1.59.83-3.29.83-5.07zM15.98 6.09l6.08 10.1-6.08 3.6-6.09-3.6zm0 19.83-6.09-8.57 6.09 3.6 6.09-3.6z"/></g></g><defs><clipPath id="areth__circleClip"><circle cx="16" cy="16" r="13"/></clipPath></defs></svg>