<svg width="32" height="32" fill="none" viewBox="0 0 32 32" xmlns="http://www.w3.org/2000/svg"><circle cx="16" cy="16" r="15" stroke="currentColor" stroke-width="2"/><g clip-path="url(#as__circleClip)"><g style="transform:scale(.8125);transform-origin:50% 50%"><g fill="currentColor" clip-path="url(#as__sonic__clip0_2262_31)"><path d="M19.27 19.88c-6.05 1.81-11.05 4.46-14.18 7.56l-.14.14c.83.79 1.75 1.49 2.73 2.09l.21-.26a41 41 0 0 1 2.73-3c2.56-2.55 5.49-4.76 8.65-6.53"/><path d="M19.27 19.88c-6.05 1.81-11.05 4.46-14.18 7.56l-.14.14c.83.79 1.75 1.49 2.73 2.09l.21-.26a41 41 0 0 1 2.73-3c2.56-2.55 5.49-4.76 8.65-6.53M.01 17.19c.24 3.24 1.44 6.2 3.33 8.61l.09-.09c1.94-1.91 4.46-3.65 7.51-5.16 2.67-1.33 5.73-2.47 9.03-3.37H.01z"/><path d="M.01 17.19c.24 3.24 1.44 6.2 3.33 8.61l.09-.09c1.94-1.91 4.46-3.65 7.51-5.16 2.67-1.33 5.73-2.47 9.03-3.37H.01zM12.32 3.9c5.41 5.39 12.22 8.95 19.69 10.3C31.11 6.22 24.31 0 16.04 0c-2.18 0-4.26.44-6.16 1.22.77.93 1.59 1.83 2.44 2.68"/><path d="M12.32 3.9c5.41 5.39 12.22 8.95 19.69 10.3C31.11 6.22 24.31 0 16.04 0c-2.18 0-4.26.44-6.16 1.22.77.93 1.59 1.83 2.44 2.68m-7.23.66c3.13 3.1 8.13 5.75 14.18 7.56a40.3 40.3 0 0 1-8.65-6.53 43 43 0 0 1-2.73-3l-.21-.26c-.99.6-1.9 1.3-2.73 2.09z"/><path d="M5.09 4.56c3.13 3.1 8.13 5.75 14.18 7.56a40.3 40.3 0 0 1-8.65-6.53 43 43 0 0 1-2.73-3l-.21-.26c-.99.6-1.9 1.3-2.73 2.09zm7.23 23.54c-.85.85-1.68 1.75-2.44 2.68 1.9.78 3.98 1.22 6.16 1.22 8.27 0 15.07-6.21 15.97-14.2-7.47 1.35-14.28 4.91-19.69 10.3"/><path d="M12.32 28.1c-.85.85-1.68 1.75-2.44 2.68 1.9.78 3.98 1.22 6.16 1.22 8.27 0 15.07-6.21 15.97-14.2-7.47 1.35-14.28 4.91-19.69 10.3m-1.39-16.66C7.89 9.93 5.36 8.19 3.42 6.28l-.09-.09A15.8 15.8 0 0 0 0 14.8h19.96c-3.3-.9-6.36-2.04-9.03-3.37z"/><path d="M10.93 11.44C7.89 9.93 5.36 8.19 3.42 6.28l-.09-.09A15.8 15.8 0 0 0 0 14.8h19.96c-3.3-.9-6.36-2.04-9.03-3.37z"/></g><defs><clipPath id="as__sonic__clip0_2262_31"><path fill="#fff" d="M0 0h32v32H0z"/></clipPath></defs></g></g><defs><clipPath id="as__circleClip"><circle cx="16" cy="16" r="13"/></clipPath></defs></svg>