<svg xmlns="http://www.w3.org/2000/svg" width="32" height="32" fill="none" viewBox="0 0 32 32"><circle cx="16" cy="16" r="15" stroke="currentColor" stroke-width="2"/><g clip-path="url(#c2a91__circleClip)"><g style="transform:scale(.8125);transform-origin:50% 50%"><g clip-path="url(#c2a91__u9woc__clip0_298_273)"><path fill="currentColor" d="M16 0C7.16 0 0 7.16 0 16s7.16 16 16 16 16-7.16 16-16S24.84 0 16 0m.48 4.06 7.3 4.18v1.6l-7.3-4.11zm7.22 5.92-4.23 2.43-1.78 1.01-.03.03c-.02.04 0 .09.03.11l4.49 2.4-1.37.73-5.79-3.28 5.8-3.41.03-.03v-.02c.02-.04 0-.09-.03-.11l-1.41-.82-2.95-1.7s-.06-.01-.08 0l-4.37 2.53-1.12-.48-.36-.16 5.87-3.32 7.3 4.1zm-2.85 12.07s.04-.04.04-.07v-5.16l1.41-.74.05 6.75-5.79 3.31v-1.57l4.29-2.53zm-3.07-1.88-7.36-4.24.03-6.59.38.16 1.11.5.03 5.29s.02.06.04.07l5.77 3.22zm-2.83-6.91.02-1.59 4.41-2.48 1.23.72zm-5.9-4.94 7.28-4.29V5.7l-6.01 3.43c-.01 0-.03.02-.03.04v.01s-.01.01-.01.02v6.73l-1.2.89-.03-8.51zm.05 13.65 4.28-2.45 1.38.76-5.65 3.35v-1.66zm7.33 5.97-7.26-4.15 5.82-3.44.03-.03c.02-.04 0-.09-.03-.11l-1.56-.85-4.27-2.38 1.21-.88 7.3 4.23-4.32 2.45-1.49.85-.03.03c-.02.04 0 .09.03.11l.03.02 4.53 2.58s.03.01.04.01l.01-.01h.06l5.91-3.41.94.44.37.17-7.32 4.36zm-.05-1.79-4.33-2.45 1.33-.76 3 1.65zm6.13-3.32-.05-6.88s-.01-.05-.04-.07l-4.52-2.4 1.61-.91 4.3 2.71.03 8.17z"/></g><defs><clipPath id="c2a91__u9woc__clip0_298_273"><path fill="#fff" d="M0 0h32v32H0z"/></clipPath></defs></g></g><defs><clipPath id="c2a91__circleClip"><circle cx="16" cy="16" r="13"/></clipPath></defs></svg>