<svg width="32" height="32" viewBox="0 0 32 32" fill="none" xmlns="http://www.w3.org/2000/svg">
  <circle cx="16" cy="16" r="15" stroke="currentColor" stroke-width="2" />
  <g clip-path="url(#circleClip)">
    <g style="transform: scale(0.8125); transform-origin: 50% 50%;"><path fill="currentColor" d="M12.25 22.13h4.39c2.71 0 4.73-1.31 5.66-3.26H12.25zM16.63 10.2h-4.39v3.32H22.3c-.93-1.98-2.95-3.32-5.67-3.32M12.25 15.28v1.84h10.57c.04-.3.06-.6.06-.91v-.04c0-.3-.02-.6-.06-.89H12.24z"/><path fill="currentColor" d="M16.61.17c-8.84 0-16 7.16-16 16s7.16 16 16 16 16-7.16 16-16-7.16-16-16-16m9.49 15.11h-1.5c.03.28.04.56.04.85v.04c0 .32-.02.63-.06.95h1.51v1.75h-1.94c-1.07 2.86-3.86 4.83-7.53 4.83h-6.1v-4.83H8.4v-1.75h2.12v-1.84H8.4v-1.75h2.12V8.64h6.1c3.71 0 6.52 1.99 7.56 4.89h1.9v1.75z"/></g>
  </g>
  <defs>
    <clipPath id="circleClip">
      <circle cx="16" cy="16" r="13" />
    </clipPath>
  </defs>
</svg>