<svg xmlns="http://www.w3.org/2000/svg" width="32" height="32" fill="none" viewBox="0 0 32 32"><circle cx="16" cy="16" r="15" stroke="currentColor" stroke-width="2"/><g clip-path="url(#rj1luf__circleClip)"><g style="transform:scale(.8125);transform-origin:50% 50%"><path fill="currentColor" d="M30.76 10.52c-.81-1.92-1.96-3.65-3.43-5.13A15.905 15.905 0 0 0 9.78 1.93c-1.91.81-3.62 1.98-5.09 3.46a16.2 16.2 0 0 0-3.43 5.13C.43 12.51 0 14.63 0 16.81s.42 4.29 1.26 6.29c.81 1.92 1.96 3.65 3.43 5.13a15.905 15.905 0 0 0 17.55 3.46c1.91-.81 3.62-1.98 5.09-3.46s2.62-3.21 3.43-5.13c.83-1.99 1.26-4.11 1.26-6.29s-.42-4.29-1.26-6.29M9.13 7.76l2.95 2.98 3.59-5.91v5.89c-2.02.18-3.62 1.87-3.67 3.95l-3.11 1.3 1.62-2.66-3.44-3.47zm6.54 20.83-2.78-3.95-2.9 2.93-2.06-2.08 3.25-3.28-2.27-3.23 6.76 4.13zm0-7.62-6.83-4.18 3.22-1.35c.3 1.81 1.78 3.21 3.61 3.38zm-1.44-5.27h.97c0 .54.53.62.85.62.54 0 .83-.26.83-.46 0-.14 0-.31-1-.62-.85-.26-1.68-.6-1.68-1.55 0-.69.63-1.43 1.79-1.43 1.09 0 1.82.64 1.82 1.6h-.97c0-.54-.54-.62-.85-.62-.54 0-.83.26-.83.46 0 .14 0 .31 1 .62.85.26 1.68.6 1.68 1.55 0 .69-.63 1.43-1.79 1.43-1.09 0-1.82-.64-1.82-1.6m5.78-.26 3.22 1.35-6.83 4.18v-2.15a4.045 4.045 0 0 0 3.61-3.38m2.07 12.13-2.9-2.93-2.78 3.95v-5.47l6.76-4.13-2.27 3.23 3.25 3.28-2.06 2.08zm-.53-14.26 1.62 2.66-3.11-1.3c-.05-2.08-1.64-3.77-3.67-3.95V4.83l3.59 5.91 2.95-2.98 2.06 2.08z"/></g></g><defs><clipPath id="rj1luf__circleClip"><circle cx="16" cy="16" r="13"/></clipPath></defs></svg>