<svg xmlns="http://www.w3.org/2000/svg" width="32" height="32" fill="none" viewBox="0 0 32 32"><circle cx="16" cy="16" r="15" stroke="currentColor" stroke-width="2"/><g clip-path="url(#voi35__circleClip)"><g style="transform:scale(.8125);transform-origin:50% 50%"><path fill="currentColor" d="M16 0C7.16 0 0 7.16 0 16s7.16 16 16 16 16-7.16 16-16S24.84 0 16 0m12.8 14.37c-.27-.31-.61-.57-1.03-.75l-1.62-.69a13.43 13.43 0 0 1-7.08-7.08l-.69-1.62a2.75 2.75 0 0 0-.75-1.03c5.79.81 10.37 5.39 11.18 11.18zM14.38 3.2c-.31.27-.57.61-.75 1.03l-.69 1.62c-1.36 3.18-3.9 5.72-7.08 7.08l-1.62.69c-.42.18-.77.44-1.03.75C4.02 8.58 8.6 4 14.39 3.19zM3.2 17.62c.27.31.61.57 1.03.75l1.62.69c3.18 1.36 5.72 3.89 7.08 7.08l.69 1.62c.18.42.44.77.75 1.04A13.15 13.15 0 0 1 3.19 17.62zm14.03 4.09c-.46 1.08-2 1.08-2.46 0l-.33-.77a6.42 6.42 0 0 0-3.38-3.38l-.77-.33c-1.08-.46-1.08-2 0-2.46l.77-.33a6.42 6.42 0 0 0 3.38-3.38l.33-.77c.46-1.08 2-1.08 2.46 0l.33.77a6.42 6.42 0 0 0 3.38 3.38l.77.33c1.08.46 1.08 2 0 2.46l-.77.33a6.42 6.42 0 0 0-3.38 3.38zm.39 7.09c.33-.28.58-.64.75-1.04l.69-1.62c1.36-3.18 3.89-5.72 7.08-7.08l1.62-.69c.42-.18.77-.44 1.03-.75A13.15 13.15 0 0 1 17.61 28.8z"/></g></g><defs><clipPath id="voi35__circleClip"><circle cx="16" cy="16" r="13"/></clipPath></defs></svg>