<svg width="32" height="32" fill="none" viewBox="0 0 32 32" xmlns="http://www.w3.org/2000/svg"><circle cx="16" cy="16" r="15" stroke="currentColor" stroke-width="2"/><g clip-path="url(#asts__circleClip)"><g style="transform:scale(.8125);transform-origin:50% 50%"><g clip-path="url(#asts__beetsstakedsonic__clip0_2485_43)"><path fill="currentColor" d="M16 0C7.16 0 0 7.16 0 16s7.16 16 16 16 16-7.16 16-16S24.84 0 16 0m6.98 4.17c2.02 1.2 3.71 2.9 4.89 4.94l-2.41 2.41a10.5 10.5 0 0 0-4.89-4.94zM9.03 4.15l2.42 2.42a10.5 10.5 0 0 0-4.9 4.93L4.13 9.08a13.8 13.8 0 0 1 4.9-4.93m.07 23.67a13.8 13.8 0 0 1-4.93-4.9l2.4-2.4c1.03 2.14 2.77 3.88 4.92 4.91zm4.69-4.9c-.47.49-.93 1-1.36 1.53-.42-.18-.83-.39-1.21-.64l.12-.15a22.2 22.2 0 0 1 6.31-5.45c-3.35 1.04-6.13 2.55-7.87 4.33l-.07.07a10 10 0 0 1-.89-1.02l.04-.04c1.08-1.09 2.48-2.09 4.17-2.95 1.48-.76 3.18-1.41 5.01-1.93H7.28V15.3h10.76c-1.83-.51-3.53-1.17-5.01-1.93-1.69-.86-3.09-1.86-4.17-2.95l-.04-.04c.27-.36.57-.7.89-1.02l.07.07c1.74 1.78 4.51 3.29 7.87 4.33a22.6 22.6 0 0 1-4.8-3.74c-.53-.54-1.04-1.12-1.51-1.72l-.12-.15c.39-.24.79-.46 1.21-.64.43.53.88 1.05 1.36 1.53 2.99 3.07 6.75 5.1 10.87 5.88a9 9 0 0 1 0 2.08c-4.12.78-7.88 2.81-10.87 5.88zm9.05 4.92-2.39-2.39c2.15-1.02 3.9-2.74 4.94-4.88l2.38 2.38a13.8 13.8 0 0 1-4.94 4.89z"/></g><defs><clipPath id="asts__beetsstakedsonic__clip0_2485_43"><path fill="#fff" d="M0 0h32v32H0z"/></clipPath></defs></g></g><defs><clipPath id="asts__circleClip"><circle cx="16" cy="16" r="13"/></clipPath></defs></svg>