<svg xmlns="http://www.w3.org/2000/svg" width="32" height="32" fill="none" viewBox="0 0 32 32"><circle cx="16" cy="16" r="15" stroke="currentColor" stroke-width="2"/><g clip-path="url(#vkrol__circleClip)"><g style="transform:scale(.8125);transform-origin:50% 50%"><g fill="currentColor" clip-path="url(#vkrol__1yaun__clip0_298_571)"><path d="M7.88 19.11c0 .05.03.09.1.13.11.06.12.12.03.25s-.08.25.02.33c.16.13.4.06.52-.16.13-.23.06-.51-.15-.66-.2-.13-.52-.07-.52.1zm5.38-5.32c0 .15.26.32.5.32.17 0 .33-.07.44-.19.1-.14.06-.3-.12-.41-.33-.2-.83-.03-.83.28z"/><path d="M16 0C7.16 0 0 7.16 0 16s7.16 16 16 16 16-7.16 16-16S24.84 0 16 0m4.75 9.1c.42.16.5.18.55.16.03-.01.05-.11.07-.41 0-.36.08-.71.21-1.04.03-.07.06-.14.1-.2 0 .06-.02.12-.05.18-.1.35-.11.71-.04 1.06.08.54.12.62.7 1.21.27.27.58.62.69.77l.21.27-.21-.19c-.3-.28-.62-.53-.96-.76-.09-.04-.1-.04-.15 0-.05.05-.06.12-.07.47-.01.54-.08.88-.26 1.23-.1.19-.11.15-.02-.06.06-.16.07-.23.07-.75 0-1.05-.12-1.3-.85-1.73-.18-.11-.49-.27-.67-.35-.11-.05-.22-.1-.33-.16q.525.105 1.02.3zm-8.5-1.83c.38-.02.76.01 1.13.1.86.21 1.65.73 2.49 1.66l.22.25.32-.05c1.3-.22 2.64-.05 3.85.48q.465.21.87.51c.04.11.07.22.08.34.08.56.04.99-.13 1.32-.09.18-.1.23-.04.38.06.13.19.21.33.21.28 0 .59-.46.73-1.1l.06-.25.11.13c.61.69 1.09 1.64 1.17 2.31l.02.17-.1-.16a2.1 2.1 0 0 0-.58-.61c-.41-.27-.84-.36-1.99-.42-1.04-.05-1.62-.14-2.21-.33-.99-.32-1.49-.75-2.66-2.3-.35-.49-.74-.95-1.17-1.37-.73-.69-1.45-1.06-2.36-1.2-.25-.04-.26-.04-.14-.06zm6.82 9.02q-.045-.255-.12-.51l-.06-.18.11.13c.17.21.3.44.39.7.08.23.09.3.09.67s-.01.44-.08.65c-.1.3-.28.58-.5.8-.44.44-1 .69-1.81.79-.14.02-.55.05-.91.07-.91.05-1.51.14-2.05.33-.05.02-.1.03-.15.04-.02-.02.34-.24.65-.39.43-.21.85-.32 1.8-.48.47-.08.95-.17 1.08-.21 1.16-.36 1.76-1.28 1.57-2.42zm-5.65-1.39c-.34 0-.46-.04-.59-.21-.08-.11-.11-.45-.06-.64.09-.33.34-.59.66-.72.25-.05.51-.03.74.07.35.18.6.58.54.86-.07.35-.64.63-1.29.64m-1.27-7.09.12.02c.27.06.53.16.77.29.48.29.69.68.91 1.68.06.29.14.62.18.73q.195.465.48.87c.13.2.05.29-.25.26-.45-.04-1.07-.47-1.46-1.01-.51-.7-.83-1.78-.76-2.59l.02-.25zM8.24 22.35c0-.13-.16-.45-.44-.88q-.375-.525-.57-1.14c-.13-.38-.19-.78-.16-1.19 0-.34.08-.67.24-.96.14-.27.22-.39.76-1.07.92-1.15 1.25-1.82 1.37-2.77.11-.85.25-1.26.58-1.62.2-.22.24-.3.24-.46 0-.08-.31-.66-1.24-2.32Q7.55 7.31 7.59 7.35s.7 1.06 1.51 2.32c1.06 1.65 1.52 2.34 1.64 2.44.16.15.36.24.58.25.24-.02.47-.08.69-.19.3-.17.37-.39.19-.64-.21-.3-1.6-1.47-4.41-4.88-.23-.28-.42-.52-.41-.52.03 0 4.94 4.5 5.51 5.15l.16.18v.28c-.02.34-.17.66-.43.88-.32.3-.71.46-1.33.54-.38.05-.51.11-.67.28-.15.16-.2.36-.24.87-.06.79-.15 1.12-.53 1.9-.36.75-.43 1.04-.37 1.44.08.49.35.85 1.01 1.29.5.34.72.56.85.82.08.16.09.22.08.5 0 .43-.07.6-.37.92-.48.51-1.32.92-2.36 1.16-.44.1-.45.1-.45 0zm11.56 2.8c-.27.14-.57.22-.87.21q-.87 0-1.47-.9a8 8 0 0 1-.4-.79c-.43-.97-.64-1.27-1.13-1.59a1.46 1.46 0 0 0-1.4-.13c-.46.21-.65.75-.44 1.21.03.07.08.14.13.21.18.19.42.32.69.36.4.05.77-.23.82-.63V23c0-.29-.11-.46-.4-.59-.39-.17-.8.03-.8.39 0 .15.09.28.22.32.1.05.1.05.02.03-.35-.07-.44-.5-.15-.78.34-.34 1.05-.19 1.29.28.1.26.11.55.02.82-.2.52-.78.8-1.37.65-.4-.1-.56-.21-1.05-.71-.84-.87-1.17-1.03-2.38-1.22l-.23-.04.26-.22c.89-.75 1.99-1.28 3-1.44a4.6 4.6 0 0 1 1.56.06c.64.16 1.22.53 1.52.97.29.43.42.8.55 1.64.05.33.11.66.12.73.1.43.29.78.52.95.38.27 1.02.29 1.66.04a.8.8 0 0 1 .21-.06c.02.02-.3.24-.52.35zm4.09-3.91c-.23.98-.86 1.82-1.74 2.31-.08.05-.17.09-.25.13.02-.09.06-.18.1-.26.29-.58.33-1.26.1-1.87-.14-.41-.41-.9-.97-1.74-.65-.97-.81-1.23-.97-1.57-.32-.68-.39-1.34-.22-1.96.02-.07.05-.12.07-.12.06.02.12.05.17.09.15.1.44.26 1.22.69.98.53 1.53.94 1.91 1.41.34.42.55.92.64 1.45.05.48.03.96-.06 1.43zm.72-3.32c-.08.3-.33.85-.39.87-.02 0-.04-.06-.04-.16-.04-.53-.29-1.02-.7-1.36-.49-.42-1.14-.75-2.73-1.39-2.39-.96-3.23-1.8-3.23-3.21 0-.13 0-.25.02-.38l.21.15c.48.39 1.03.55 2.53.77.88.13 1.38.23 1.84.39 1.46.48 2.36 1.47 2.58 2.8.06.5.03 1.01-.07 1.5z"/></g><defs><clipPath id="vkrol__1yaun__clip0_298_571"><path fill="#fff" d="M0 0h32v32H0z"/></clipPath></defs></g></g><defs><clipPath id="vkrol__circleClip"><circle cx="16" cy="16" r="13"/></clipPath></defs></svg>