<svg width="32" height="32" fill="none" viewBox="0 0 32 32" xmlns="http://www.w3.org/2000/svg"><g clip-path="url(#agorausd__clip0_2016_14)"><path fill="currentColor" d="M16 0C7.16 0 0 7.16 0 16s7.16 16 16 16 16-7.16 16-16S24.84 0 16 0m-2.99 5.66c.1-.26.35-.43.63-.43h1.92v7.26c0 .3-.36.45-.57.24l-3.4-3.34 1.43-3.73zm2.55 17.87H7.38c-.47 0-.8-.47-.63-.92l2.75-7.17 5.69 5.39c.24.23.37.54.37.87zm0-8.41v4.08c0 .27-.32.41-.52.22l-5.28-5 1.55-4.04 3.85 3.78c.25.25.4.59.4.95zm.88-9.89h1.92c.28 0 .53.17.63.43l1.43 3.73-3.4 3.34c-.21.21-.57.06-.57-.24V5.23zm0 9.89c0-.36.14-.7.4-.95l3.85-3.78 1.55 4.04-5.28 5c-.2.19-.52.05-.52-.22v-4.09m8.18 8.41h-8.18V21.7c0-.33.13-.64.37-.87l5.69-5.39 2.75 7.17a.68.68 0 0 1-.63.92"/></g><defs><clipPath id="agorausd__clip0_2016_14"><path fill="#fff" d="M0 0h32v32H0z"/></clipPath></defs></svg>