<svg width="32" height="32" viewBox="0 0 32 32" fill="none" xmlns="http://www.w3.org/2000/svg">
  <circle cx="16" cy="16" r="15" stroke="currentColor" stroke-width="2" />
  <g clip-path="url(#circleClip)">
    <g style="transform: scale(0.8125); transform-origin: 50% 50%;"><g fill="currentColor" clip-path="url(#a)"><path d="M17.53 21.18h.91c1.41 0 2.42-.55 2.42-1.99s-1.05-2-2.35-2h-.97v-2.42h-3.05v2.42h3.05v3.99zM11.15 12.76c0 1.45 1.05 2 2.35 2h.97v-3.98h-.91c-1.41 0-2.42.55-2.42 1.98z"/><path d="M16 0C7.16 0 0 7.16 0 16s7.16 16 16 16 16-7.16 16-16S24.84 0 16 0m2.82 23.61h-1.29v3.84h-3.05v-3.83H8.55v-2.45h5.93v-3.99h-1.36c-3 0-5.04-1.69-5.04-4.38 0-3.08 2.33-4.48 5.11-4.48h1.29V4.48h3.05v3.83h5.93v2.45h-5.93v3.99h1.36c3 0 5.04 1.69 5.04 4.38 0 3.08-2.32 4.48-5.11 4.48"/></g><defs><clipPath id="a"><path fill="#fff" d="M0 0h32v32H0z"/></clipPath></defs></g>
  </g>
  <defs>
    <clipPath id="circleClip">
      <circle cx="16" cy="16" r="13" />
    </clipPath>
  </defs>
</svg>