<svg width="32" height="32" fill="none" viewBox="0 0 32 32" xmlns="http://www.w3.org/2000/svg"><circle cx="16" cy="16" r="15" stroke="currentColor" stroke-width="2"/><g clip-path="url(#ausdtb__circleClip)"><g style="transform:scale(.8125);transform-origin:50% 50%"><path fill="currentColor" d="M16 0C7.18 0 0 7.18 0 16s7.18 16 16 16 16-7.18 16-16S24.82 0 16 0m-.01 2.84c6.41 0 11.75 4.58 12.92 10.65h-1.23C26.53 8.09 21.74 4.05 16 4.05S5.47 8.1 4.32 13.49H3.09C4.26 7.42 9.6 2.84 16.01 2.84zm.23 20.5h-.73v2.09h-1.38v-2.16c-.46-.08-.89-.22-1.27-.44a3.74 3.74 0 0 1-1.39-1.48c-.32-.64-.48-1.38-.48-2.21h1.39q0 1.275.69 2.07c.48.52 1.1.78 1.87.78h2.14c.76 0 1.37-.18 1.83-.53.46-.37.69-.85.69-1.43v-1.31c0-.46-.17-.86-.52-1.19-.33-.33-.8-.54-1.39-.64l-3.47-.61q-1.47-.27-2.28-1.11c-.54-.56-.81-1.26-.81-2.11v-1.11c0-1 .35-1.79 1.04-2.38.52-.45 1.17-.72 1.95-.84V6.58h1.38v2.09h1.13V6.58h1.38v2.18c.7.14 1.3.46 1.78.98.67.7 1 1.62 1 2.77h-1.39c0-.75-.21-1.35-.62-1.8s-.96-.68-1.64-.68h-2.18c-.73 0-1.32.18-1.76.53-.44.34-.66.81-.66 1.39v1.11c0 .48.16.88.48 1.21.33.33.79.55 1.37.66l3.45.64q1.5.285 2.34 1.11c.55.53.83 1.22.83 2.05v1.31c0 1-.36 1.8-1.08 2.42-.52.44-1.17.71-1.94.83v2.16h-1.38v-2.09h-.41zm-.23 5.81c-6.4 0-11.73-4.57-12.91-10.63h1.23c1.16 5.38 5.95 9.42 11.68 9.42s10.52-4.04 11.68-9.42h1.23c-1.18 6.06-6.51 10.63-12.91 10.63"/></g></g><defs><clipPath id="ausdtb__circleClip"><circle cx="16" cy="16" r="13"/></clipPath></defs></svg>