<svg xmlns="http://www.w3.org/2000/svg" width="32" height="32" fill="none" viewBox="0 0 32 32"><circle cx="16" cy="16" r="15" stroke="currentColor" stroke-width="2"/><g clip-path="url(#hbi8o__circleClip)"><g style="transform:scale(.8125);transform-origin:50% 50%"><path fill="currentColor" fill-rule="evenodd" d="M16 0C7.16 0 0 7.16 0 16s7.16 16 16 16 16-7.16 16-16S24.84 0 16 0m9.3 10.53V13l-2.1 1.24v-2.47l-2.09-1.24 2.09-1.24zm-9.31-5.47 5.7 3.35-2.09 1.24-3.61-2.13-3.59 2.13-2.09-1.24L16 5.06zm2.11 5.47L16 11.77l-2.09-1.24L16 9.29zm-11.4 0 2.09-1.24 2.1 1.24-2.1 1.24v2.47L6.7 13zm5.7 14.29-5.7-3.34v-6.72L8.79 16v4.23l3.61 2.12v2.48zm0-4.24-2.09-1.23v-2.48l2.09 1.24zm5.7 5.12L16 26.94l-2.09-1.24v-2.47L16 24.47l2.1-1.24zm0-4.22-2.09 1.23-2.09-1.23v-4.24l-3.61-2.12v-2.48l2.1-1.24 3.58 2.13 3.61-2.13 2.1 1.24v2.48l-3.59 2.12v4.24zm1.5-3.37 2.09-1.24v2.48l-2.09 1.23zm5.7 3.37-5.7 3.34v-2.48l3.59-2.11V16l2.11-1.24z" clip-rule="evenodd"/></g></g><defs><clipPath id="hbi8o__circleClip"><circle cx="16" cy="16" r="13"/></clipPath></defs></svg>