<svg width="32" height="32" viewBox="0 0 32 32" fill="none" xmlns="http://www.w3.org/2000/svg">
  <circle cx="16" cy="16" r="15" stroke="currentColor" stroke-width="2" />
  <g clip-path="url(#circleClip)">
    <g style="transform: scale(0.8125); transform-origin: 50% 50%;"><path fill="currentColor" d="M15.09 5.53 9.21 9.14l2.68 1.61zM11.56 11.28 8.92 9.69v5.9zM8.92 19.32v4.22l2.13-1.29zM22.77 9.08l-5.93-3.62 3.23 5.25zM15.99 20.24l6.87-3.78-6.87-11.21-6.88 11.21zM23.06 15.59V9.63l-2.67 1.61zM9.21 24.1l5.75 3.53-3.54-4.87c-.59.36-2.22 1.34-2.22 1.34z"/><path fill="currentColor" d="M16.14 22.91a.29.29 0 0 1-.31 0l-6.11-3.54 6.26 8.62 6.21-8.59zM20.93 22.21l2.13 1.28v-4.23z"/><path fill="currentColor" d="M16 .61c-8.84 0-16 7.17-16 16s7.16 16 16 16 16-7.16 16-16-7.16-16-16-16m0 31.14C7.65 31.75.86 24.96.86 16.62S7.65 1.49 16 1.49s15.13 6.79 15.13 15.13S24.34 31.75 16 31.75"/><path fill="currentColor" d="M16 2.23c-7.93 0-14.39 6.45-14.39 14.38S8.06 30.99 16 30.99s14.38-6.45 14.38-14.38S23.93 2.23 16 2.23M8.3 9.24v-.05c-.02-.13.04-.25.14-.32l7.41-4.55c.1-.06.22-.06.32 0l7.35 4.49c.09.06.15.16.15.27v7.45c0 .13-.08.24-.2.29l-7.35 4.04c-.09.05-.21.05-.3 0l-7.24-3.98c-.17 0-.3-.14-.3-.31V9.24zM23.68 24c.02.12-.04.24-.14.31l-7.41 4.57c-.1.06-.23.06-.33 0l-7.35-4.51a.32.32 0 0 1-.15-.29v-5.69c-.01-.17.12-.32.29-.33.06 0 .12.01.18.04l7.22 4.19 7.16-4.15.04-.02c.05-.04.12-.06.19-.06.17 0 .31.14.31.31V24z"/><path fill="currentColor" d="m17.06 27.57 5.71-3.53-2.2-1.33z"/></g>
  </g>
  <defs>
    <clipPath id="circleClip">
      <circle cx="16" cy="16" r="13" />
    </clipPath>
  </defs>
</svg>