<svg width="32" height="32" viewBox="0 0 32 32" fill="none" xmlns="http://www.w3.org/2000/svg">
  <circle cx="16" cy="16" r="15" stroke="currentColor" stroke-width="2" />
  <g clip-path="url(#circleClip)">
    <g style="transform: scale(0.8125); transform-origin: 50% 50%;"><path fill="currentColor" d="M7.34 15.66c.01-.06.03-.11.04-.17l-1.17-.58c-.04.48-.06.96-.03 1.44l1 .46c.03-.38.08-.77.16-1.15M6.35 17.62c.04.21.08.43.14.64.02.08.03.12.05.24v.02c.03.15.09.3.16.43.09.2.28.56.5.96.09.16.19.31.29.46-.2-.77-.31-1.57-.33-2.39l-.8-.37zM7.37 11.11c-.46.84-.79 1.74-.99 2.66l1.3.65c1.65-5.04 6.84-8.17 12.17-7.11.32.06.63.15.93.24-.09-.07-.18-.14-.27-.2-4.67-2.59-10.55-.9-13.13 3.77z"/><path fill="currentColor" d="M16.79.78c-8.84 0-16 7.16-16 16s7.16 16 16 16 16-7.16 16-16-7.16-16-16-16m.98 27.59c-3.03 0-5.75-1.27-7.69-3.3-.86-.58-1.73-1.55-2.59-2.81-.41-.6-.79-1.23-1.14-1.86-.23-.42-.43-.8-.53-1.01-.11-.21-.18-.43-.23-.66v-.03c-.02-.09-.03-.12-.04-.18-1.51-5.68 1.87-11.5 7.55-13.01 2.67-.71 5.5-.35 7.91.99l.04.03c1.05.73 2.16 1.7 3.33 2.88 3.02 2.4 4.63 6.36 3.83 10.4-.99 4.97-5.36 8.56-10.43 8.56z"/><path fill="currentColor" d="M13 20.38v.65c0 .83.65 1.48 1.47 1.48s1.47-.65 1.47-1.48l.04-2.63c-.61.11-1.18.25-1.72.5-.79.32-1.26.9-1.26 1.48M22.47 15.06v-.65c0-.83-.65-1.47-1.47-1.47s-1.47.65-1.47 1.47v2.66c.61-.11 1.18-.25 1.72-.5.79-.36 1.26-.9 1.22-1.51M15.95 17.32v-2.91c0-.83-.65-1.47-1.47-1.47s-1.47.68-1.47 1.47v4.03c.25-.22.54-.36.83-.5.68-.29 1.4-.5 2.12-.61zM19.57 18.12v2.91c0 .83.65 1.48 1.47 1.48s1.47-.65 1.47-1.48V17c-.25.22-.54.36-.83.5-.68.29-1.4.5-2.12.61z"/><path fill="currentColor" d="M24.6 10.91c-3.77-3.77-9.89-3.77-13.66 0-.45.45-.85.94-1.2 1.46C6.78 16.8 7.97 22.8 12.4 25.76a9.7 9.7 0 0 0 5.37 1.63c3.91 0 7.43-2.35 8.92-5.96a9.66 9.66 0 0 0-2.09-10.52m-1.09 10.08c0 1.33-1.08 2.41-2.44 2.45-1.4.04-2.51-1.08-2.55-2.45v-2.81c-.25.04-.5.04-.79.04s-.54.04-.79.04v2.77c0 1.33-1.08 2.41-2.44 2.45-1.4.04-2.51-1.08-2.55-2.45v-6.62c.04-1.33 1.11-2.45 2.44-2.45 1.4-.04 2.55 1.08 2.55 2.45v2.84c.25-.04.5-.04.79-.04s.54-.04.79-.04V14.4c.04-1.37 1.15-2.48 2.51-2.48s2.47 1.12 2.47 2.48v6.58z"/></g>
  </g>
  <defs>
    <clipPath id="circleClip">
      <circle cx="16" cy="16" r="13" />
    </clipPath>
  </defs>
</svg>