<svg xmlns="http://www.w3.org/2000/svg" width="32" height="32" fill="none" viewBox="0 0 32 32"><circle cx="16" cy="16" r="15" stroke="currentColor" stroke-width="2"/><g clip-path="url(#a9yquh__circleClip)"><g fill="currentColor" style="transform:scale(.8125);transform-origin:50% 50%"><path d="M16 0C7.16 0 0 7.16 0 16s7.16 16 16 16 16-7.16 16-16S24.84 0 16 0m10.85 23.66c0 1.77-1.43 3.2-3.2 3.2H8.35c-1.77 0-3.2-1.43-3.2-3.2V8.36c0-1.77 1.43-3.2 3.2-3.2h15.3c1.77 0 3.2 1.43 3.2 3.2z"/><path d="M11.61 8.1a2.577 2.577 0 0 0-3.65 0 2.577 2.577 0 0 0 0 3.65l3.79 3.79c.31.31.31.81 0 1.12l-3.79 3.79a2.577 2.577 0 0 0 0 3.65 2.577 2.577 0 0 0 3.65 0l4.35-4.35 4.35 4.35a2.577 2.577 0 0 0 3.65 0 2.577 2.577 0 0 0 0-3.65zm8.79 3.61c.99.99 2.6.99 3.59 0s.99-2.6 0-3.59l-.06-.06c-.99-.99-2.6-.99-3.59 0s-.99 2.6 0 3.59z"/></g></g><defs><clipPath id="a9yquh__circleClip"><circle cx="16" cy="16" r="13"/></clipPath></defs></svg>