<svg width="32" height="32" viewBox="0 0 32 32" fill="none" xmlns="http://www.w3.org/2000/svg">
  <circle cx="16" cy="16" r="15" stroke="currentColor" stroke-width="2" />
  <g clip-path="url(#circleClip)">
    <g style="transform: scale(0.8125); transform-origin: 50% 50%;"><path fill="currentColor" d="M16.5.69c-8.84 0-16 7.16-16 16s7.16 16 16 16 16-7.16 16-16-7.16-16-16-16m10.85 23.66c0 1.77-1.43 3.2-3.2 3.2H8.85c-1.77 0-3.2-1.43-3.2-3.2V9.05c0-1.77 1.43-3.2 3.2-3.2h15.3c1.77 0 3.2 1.43 3.2 3.2z"/><path fill="currentColor" d="m24.46 21.14-3.83-3.83a.74.74 0 0 1 0-1.05l3.72-3.72s.04-.05.06-.08c.02-.02.05-.03.07-.06.92-.92.97-2.35.2-3.34-.02-.02-.03-.05-.05-.07l-.06-.06c-.03-.03-.05-.07-.09-.11l-.06-.06-.13-.1a.6.6 0 0 0-.13-.1c-.12-.1-.25-.18-.39-.25h-.02c-.95-.48-2.13-.33-2.93.46 0 0 0 .01-.01.02 0 0-.01 0-.02.01l-4.36 4.36-4.34-4.36a2.577 2.577 0 0 0-3.65 0 2.577 2.577 0 0 0 0 3.65l3.79 3.79c.31.31.31.81 0 1.12l-3.79 3.79a2.577 2.577 0 0 0 0 3.65 2.577 2.577 0 0 0 3.65 0l4.35-4.35 4.35 4.35a2.577 2.577 0 0 0 3.65 0c.63-.63.87-1.5.71-2.32a2.5 2.5 0 0 0-.71-1.33z"/></g>
  </g>
  <defs>
    <clipPath id="circleClip">
      <circle cx="16" cy="16" r="13" />
    </clipPath>
  </defs>
</svg>