<svg xmlns="http://www.w3.org/2000/svg" width="32" height="32" fill="none" viewBox="0 0 36 36"><path fill="currentColor" d="M18 0c9.942 0 18 8.06 18 18 0 9.942-8.058 18-18 18-9.94 0-18-8.059-18-18C0 8.06 8.06 0 18 0"/><path fill="#fff" fill-rule="evenodd" d="M28 13.182v1.104a.6.6 0 0 1-.084.305.6.6 0 0 1-.229.223l-3.663 2.055 3.273 1.83c.214.12.391.293.515.502.123.207.188.444.188.684v2.945c0 .24-.064.477-.188.685a1.4 1.4 0 0 1-.515.501l-8.607 4.8a1.44 1.44 0 0 1-1.406 0l-2.817-1.581a.31.31 0 0 1-.156-.263.3.3 0 0 1 .156-.263l9.297-5.204a.15.15 0 0 0 0-.263l-3.452-1.939a.64.64 0 0 0-.625 0l-9.443 5.29a.48.48 0 0 1-.468 0l-1.07-.595a1.4 1.4 0 0 1-.517-.502A1.34 1.34 0 0 1 8 22.81v-1.204a.45.45 0 0 1 .234-.396l13.54-7.566a.15.15 0 0 0 .077-.131.15.15 0 0 0-.078-.131l-3.457-1.946a.64.64 0 0 0-.625 0L8.47 16.594a.32.32 0 0 1-.427-.111A.3.3 0 0 1 8 16.33v-3.164c0-.24.065-.476.188-.684s.301-.382.515-.502l8.606-4.799a1.44 1.44 0 0 1 1.402 0l8.586 4.816c.214.12.391.293.514.5.124.208.189.444.189.684Z" clip-rule="evenodd"/></svg>