<svg width="32" height="32" fill="none" viewBox="0 0 32 32" xmlns="http://www.w3.org/2000/svg"><path fill="currentColor" d="m19.22 14.21-2.23 2.23c-.27.27-.25.48.02.75l.8.8c.27.27.48.28.75.02l2.23-2.23c.65-.65.78-1.25.23-1.8-.53-.53-1.15-.42-1.8.23M13.79 11.53l-.85.85c-.27.27-.25.48.02.75l.8.8c.27.27.48.28.75.02l.85-.85c.43-.43.5-1.03-.02-1.55-.5-.5-1.11-.45-1.55-.02"/><path fill="currentColor" d="M16 0C7.16 0 0 7.16 0 16s7.16 16 16 16 16-7.16 16-16S24.84 0 16 0m.5 26.05c-.38.39-1 .4-1.39.02l-6.93-6.93a.99.99 0 0 1 0-1.39.98.98 0 0 1 1.39 0l6.93 6.93c.37.38.37.98 0 1.36zm7.34-7.32-4.97 4.97c-.27.27-.48.25-.75-.02L7.25 12.81c-.27-.27-.28-.48-.02-.75l3.54-3.54c2.34-2.34 5.02-2.16 7.11-.07.27.27.6.73.8 1.03l.06.09c.05.07.09.13.14.18.13.13.27.17.55.08 1.75-.48 3.27.05 4.74 1.51 2.04 2.04 2.26 4.79-.33 7.38z"/></svg>