<svg width="32" height="32" fill="none" viewBox="0 0 32 32" xmlns="http://www.w3.org/2000/svg"><path fill="currentColor" fill-rule="evenodd" d="M18.64 8.88c-.31 0-.98-.26-1.59-.46-.62-.21-1.03-.21-1.03-.21s-.41 0-1.03.21-1.28.46-1.59.46-2.59-.44-2.59-.44-2.71 3.28-2.71 3.98.34.89.68 1.25l2.03 2.16c.19.2.59.51.36 1.07-.24.56-.58 1.27-.2 1.99.39.72 1.05 1.2 1.47 1.12s1.42-.6 1.78-.84c.37-.24 1.53-1.2 1.53-1.56s-1.2-1.02-1.42-1.17-1.23-.73-1.25-.95c-.02-.23-.01-.29.29-.85s.83-1.31.75-1.81c-.09-.5-.96-.76-1.57-.99-.62-.23-1.81-.67-1.96-.74s-.11-.13.34-.18c.45-.04 1.73-.21 2.3-.05.58.16 1.56.41 1.64.54s.15.13.07.58-.5 2.59-.54 2.97-.12.63.29.73c.41.09 1.1.26 1.34.26s.93-.16 1.34-.26c.41-.09.33-.35.29-.73s-.46-2.53-.54-2.97c-.08-.45-.01-.45.07-.58s1.06-.37 1.64-.54c.58-.16 1.85 0 2.3.05.45.04.49.11.34.18s-1.34.51-1.96.74-1.48.49-1.57.99.45 1.25.75 1.81.31.63.29.85c-.02.23-1.03.81-1.25.95-.22.15-1.42.81-1.42 1.17s1.16 1.32 1.53 1.56 1.36.76 1.78.84 1.08-.4 1.47-1.12.04-1.43-.2-1.99.16-.87.36-1.07l2.03-2.16c.34-.36.68-.55.68-1.25s-2.71-3.98-2.71-3.98-2.28.44-2.59.44z" clip-rule="evenodd"/><path fill="currentColor" fill-rule="evenodd" d="M17.79 20.24c-.72-.37-1.63-.69-1.77-.69s-1.04.32-1.77.69c-.72.37-1.25.64-1.42.75s-.07.3.09.41c.15.11 2.2 1.7 2.4 1.87.2.18.49.47.69.47s.49-.29.69-.47 2.25-1.77 2.4-1.87c.15-.11.25-.31.09-.41-.17-.11-.69-.37-1.42-.75z" clip-rule="evenodd"/><path fill="currentColor" fill-rule="evenodd" d="M16 0C7.16 0 0 7.16 0 16s7.16 16 16 16 16-7.16 16-16S24.84 0 16 0m7.93 21.37c-.49 1.93-.82 2.67-2.21 3.65s-3.9 2.67-4.31 2.93-.92.69-1.39.69-.98-.44-1.39-.69c-.41-.26-2.93-1.95-4.31-2.93-1.39-.98-1.72-1.72-2.21-3.65-.25-.98-2.36-9-2.36-9l.72-2.06-.56-1.39s.72-.77 1.59-1.65c.87-.87 2.72-.36 2.72-.36l2.11-2.39h7.39l2.11 2.39s.26-.07.63-.12c.62-.07 1.54-.07 2.09.48.87.87 1.59 1.65 1.59 1.65l-.56 1.39.72 2.06s-2.11 8.02-2.36 9z" clip-rule="evenodd"/></svg>