<svg width="32" height="32" fill="none" viewBox="0 0 32 32" xmlns="http://www.w3.org/2000/svg"><g clip-path="url(#celodollar__clip0_2381_28)"><path fill="currentColor" fill-rule="evenodd" d="M14.514.038c-2.75.287-5.245 1.175-7.44 2.647-1.65 1.107-3.287 2.754-4.392 4.417-3.582 5.392-3.575 12.494.017 17.822a15 15 0 0 0 1.898 2.311c2.456 2.51 5.513 4.073 9.032 4.62 1.166.18 3.37.195 4.495.029 2.953-.436 5.499-1.521 7.742-3.3a18 18 0 0 0 2.63-2.633c2.217-2.816 3.386-6.16 3.496-9.997.018-.642.006-.955-.038-.955-.036 0-.066-.111-.066-.248 0-.35-.173-1.562-.313-2.193a16.2 16.2 0 0 0-2.317-5.456c-1.115-1.678-2.731-3.299-4.424-4.435-1.997-1.342-4.43-2.252-6.867-2.571-.72-.094-2.777-.13-3.453-.058m3.766 6.826v.475l-.515.11c-.77.165-1.377.478-1.835.946-.518.53-.669.915-.674 1.72-.01 1.547.818 2.338 2.914 2.784l.172.037v1.376c0 .757-.021 1.376-.047 1.376-.347-.001-2.325-.733-2.807-1.04a.7.7 0 0 0-.171-.087c-.019 0-.034.38-.034.846v.846l.393.18c.548.252 1.548.553 2.121.639l.483.072v.986h1.248v-.972l.564-.135c1.429-.343 2.297-1.153 2.505-2.34.125-.713-.167-1.727-.613-2.13-.562-.506-.92-.665-2.253-.998l-.265-.067V8.801h.203c.241 0 1.19.248 1.662.435.185.073.345.124.355.113.053-.053.04-1.499-.013-1.553-.093-.093-1.236-.369-1.718-.414l-.427-.04v-.985l-.624.017-.624.016zm-.733 2.122c-1.137.539-.992 1.834.25 2.243.233.076.45.139.484.139.038 0 .061-.488.061-1.284V8.801h-.203c-.111 0-.378.083-.592.185m-4.98 1.65c-.892.4-1.71.974-2.314 1.622-2.298 2.464-2.656 6.07-.886 8.927.66 1.066 1.94 2.194 3.077 2.71 3.144 1.431 6.901.373 8.8-2.477.338-.507.843-1.49.843-1.64 0-.064-.21-.082-.951-.082h-.953l-.175.336c-.606 1.164-1.947 2.186-3.351 2.552-1.119.292-2.537.14-3.566-.385-.669-.34-.896-.504-1.417-1.019a5.37 5.37 0 0 1-1.46-2.462c-.202-.699-.202-2.136 0-2.866.38-1.37 1.275-2.557 2.446-3.24l.36-.211.005-.955c.004-.706-.014-.954-.07-.952a2 2 0 0 0-.387.142m6.913 3.722.017 1.299.216-.021c.267-.027.86-.323 1.045-.521.169-.183.33-.559.33-.77 0-.296-.198-.668-.456-.855-.213-.155-.926-.432-1.112-.432-.033 0-.05.543-.04 1.3M.014 16c0 .534.01.752.022.486a13 13 0 0 0 0-.97c-.012-.268-.022-.05-.022.484" clip-rule="evenodd"/></g><defs><clipPath id="celodollar__clip0_2381_28"><path fill="#fff" d="M0 0h32v32H0z"/></clipPath></defs></svg>