<svg width="32" height="32" fill="none" viewBox="0 0 32 32" xmlns="http://www.w3.org/2000/svg"><path fill="currentColor" d="m17.74 9.94-.56-2.21-2.19-.54.61 2.14zM14.26 10.99l.56 2.21 2.82-2.82-2.15-.62zM12.17 12.44l1.41-1.41-1.95-.48zM12.49 12.76l1.89.54-.49-1.94zM11.81 12.8l-.61-2.13-3.87 3.87 2.2.54zM16.31 18.17l-.5-1.94-1.39 1.4zM16.34 21.89l2.26-2.26-.62-2.14-3.85 3.85zM18.96 19.27l1.41-1.41-1.95-.48zM10.72 17.93l2.21.55.81-.81-.62-2.14zM21.98 16.25l-.61-2.14-2.84 2.84 2.21.54zM7.22 14.97l.54 1.89 1.4-1.41zM14.1 17.31l1.4-1.41-1.94-.48zM15.17 9.44l-.61-2.14-2.81 2.82 2.2.54zM21.04 17.82l.57 2.21 2.84-2.84-2.15-.62zM16.65 22.22l.56 2.21 3.86-3.86-2.16-.62zM20.67 18.19l-1.39 1.39 1.89.55z"/><path fill="currentColor" d="M16 0C7.16 0 0 7.16 0 16s7.16 16 16 16 16-7.16 16-16S24.84 0 16 0m9.07 17.16s-.03.07-.05.09L17.27 25s-.1.07-.16.07h-.08l-2.64-.76a.23.23 0 0 1-.15-.15l-.73-2.53-2.53-.73a.23.23 0 0 1-.15-.15l-.72-2.52-2.52-.72a.23.23 0 0 1-.15-.15l-.75-2.63c-.02-.07 0-.15.04-.21 0-.01.02-.03.02-.03l7.75-7.75s.02-.02.04-.02c.01 0 .02-.02.04-.02 0 0 .1-.03.15-.02l2.69.66c.08.02.14.08.16.16l.7 2.72s0 .1-.01.14c-.01.03-.03.07-.05.09l-4.54 4.54 2.31.57c.08.02.14.08.16.16l.6 2.35 4.54-4.54s.12-.07.18-.06h.06l2.69.66c.08.02.14.08.16.16l.7 2.72s0 .1-.01.14z"/><path fill="currentColor" d="m21.8 14 .61 2.13 2.14.62-.57-2.21zM8.07 17.18h.01l1.89.54-.5-1.94zM10.61 18.37l.61 2.13 2.14.62-.56-2.21zM12.13 13.12l-2.29 2.29.57 2.2 3.87-3.87zM14.88 23.98l1.89.55-.49-1.94zM14.05 17.99l-.82.82.57 2.2 2.41-2.4zM14.02 21.78l.54 1.88 1.41-1.4z"/></svg>