<svg xmlns="http://www.w3.org/2000/svg" width="32" height="32" fill="none"><path fill="currentColor" d="M16.22.51C7.61.51.63 7.49.63 16.1s6.98 15.59 15.59 15.59 15.59-6.98 15.59-15.59S24.83.51 16.22.51m7.56 20.74c-.25.48-.58.91-.97 1.28-.51.49-1.09.91-1.71 1.24-.65.34-1.34.6-2.05.78-.7.17-1.42.26-2.14.27-1.22 0-2.35-.26-3.35-.77-1-.5-1.89-1.19-2.63-2.03-.72-.82-1.3-1.76-1.7-2.77l-.07-.18H5.12a.18.18 0 0 1-.18-.18v-1.6c0-.1.08-.18.18-.18h3.54l-.03-.31c-.03-.29-.04-.58-.04-.86 0-.17 0-.35.02-.57l.02-.3H5.12a.18.18 0 0 1-.18-.18v-1.6c0-.1.08-.18.18-.18h3.94l.07-.19s.01-.03.02-.05c0 0 0-.03.02-.05a8.34 8.34 0 0 1 4.32-4.71c1.04-.5 2.25-.75 3.58-.75 1.57 0 2.95.35 4.1 1.04 1.01.61 1.8 1.39 2.36 2.32.05.08.03.19-.05.24l-1.87 1.29s-.07.03-.1.03h-.04a.18.18 0 0 1-.12-.09 4.5 4.5 0 0 0-1.81-1.74c-.4-.21-.83-.37-1.27-.46-.42-.09-.85-.14-1.29-.14-.91 0-1.72.19-2.4.56-.66.35-1.24.85-1.69 1.44q-.3.405-.54.84l-.22.42h5.18c.1 0 .18.08.18.18v1.6c0 .1-.08.18-.18.18h-5.7l-.03.25c-.02.25-.04.49-.04.72 0 .27.02.55.05.82l.03.25h5.69c.1 0 .18.08.18.18v1.6c0 .1-.08.18-.18.18h-5.12l.24.42c.18.32.39.62.62.91a5.6 5.6 0 0 0 1.74 1.4c.69.36 1.47.54 2.25.53.44 0 .88-.06 1.32-.16.46-.11.9-.28 1.31-.5.43-.24.82-.54 1.15-.89.25-.26.47-.55.64-.87.02-.04.06-.08.11-.09h.05c.03 0 .06 0 .09.02L23.73 21c.09.05.12.16.07.24z"/></svg>