<svg width="32" height="32" fill="none" viewBox="0 0 32 32" xmlns="http://www.w3.org/2000/svg"><g fill="currentColor" clip-path="url(#firebitcoin__clip0_2473_3)"><path d="M15.97 18.52a3.89 3.89 0 0 0 3.89-3.9c0-.52-.1-1.01-.28-1.46-1.2.59-3.67 1.58-3.67 1.58v-4.02a3.88 3.88 0 0 0-3.83 3.9c0 2.16 1.74 3.9 3.89 3.9"/><path d="M16 0C7.16 0 0 7.17 0 16s7.16 16 16 16 16-7.16 16-16S24.84 0 16 0m-.03 2.2c.16 0 6.53 6.88 6.53 12.42 0 3.61-2.92 6.54-6.53 6.54s-6.53-2.93-6.53-6.54c0-5.54 6.37-12.42 6.53-12.42M6.84 24.03l10.43-2.1c.11.56.3 1.09.55 1.6l-9.85 3.79c-.52-1.04-.9-2.15-1.13-3.29m18.15 3.35-10.53-.65c.09-.56.1-1.13.04-1.69l10.58-1.14c.12 1.16.09 2.33-.09 3.48"/></g><defs><clipPath id="firebitcoin__clip0_2473_3"><path fill="#fff" d="M0 0h32v32H0z"/></clipPath></defs></svg>