<svg width="32" height="32" fill="none" viewBox="0 0 32 32" xmlns="http://www.w3.org/2000/svg"><path fill="currentColor" fill-rule="evenodd" d="M8.45 12.06q-.405-1.635.21-3.21h-.17q-1.575.66-1.11 2.31c.21.49.56.79 1.07.9M19.14 19.8c-.49.5-.97 1-1.45 1.51-.02 1.29-.03 2.57-.02 3.86h.5c0-1.22 0-2.43.02-3.65.43-.47.87-.92 1.32-1.36-.12-.13-.24-.25-.38-.36zM21.18 10.15c.04.13.12.23.23.31.41.23.76.16 1.03-.23l.13-1.13c.06-.08.13-.13.23-.15.34 0 .67-.03 1.01-.08q.18-.09.27-.27c.18-.44.06-.76-.36-.99-.35-.05-.7-.08-1.05-.08a.36.36 0 0 1-.15-.23c0-.34-.03-.67-.08-1.01-.18-.28-.44-.4-.78-.38-.22.09-.38.24-.48.46-.04.37-.08.73-.13 1.09-.03.03-.07.05-.1.06l-.84.04c-.26.03-.45.17-.57.4-.13.42 0 .74.4.94l.92.04c.1.01.18.06.23.15 0 .35.03.7.08 1.05z" clip-rule="evenodd"/><path fill="currentColor" fill-rule="evenodd" d="m22.16 12.86-13.68-.04c-.49-.1-.91-.31-1.26-.65 0 3.82 0 7.64.02 11.45.12.79.56 1.28 1.32 1.49q1.995.09 3.99.06c0-.63 0-1.26-.02-1.89l-1.32-1.32c-.81.04-1.37-.32-1.66-1.07-.18-.92.16-1.56 1.03-1.91 1.25-.16 1.9.39 1.95 1.66.6.59 1.19 1.19 1.76 1.8.04.07.06.14.08.21.02.84.03 1.68.02 2.52h.38c0-1.16 0-2.32.02-3.48.03-.07.06-.13.1-.19.22-.11.4-.07.52.15.02 1.17.03 2.35.02 3.52h.5c0-1.9 0-3.8-.02-5.71-.24-.24-.48-.48-.73-.71-.09.13-.2.23-.34.31.2.19.39.39.57.61.03.34.03.67 0 1.01-.18.21-.38.22-.59.04-.05-.25-.08-.5-.08-.76l-.61-.61c-.84.02-1.39-.36-1.66-1.15q-.18-1.665 1.47-1.89c1.03.13 1.55.71 1.55 1.76l.96.96c.05.09.1.19.13.29.02 1.94.03 3.89.02 5.83h.38q-.03-2.055.06-4.11c.04-.1.1-.2.17-.29l1.64-1.64c0-1.04.53-1.62 1.55-1.72.78.03 1.27.43 1.47 1.17.08 1.21-.49 1.83-1.7 1.87l-1.32 1.32c-.02 1.13-.03 2.27-.02 3.4 1.08 0 2.15 0 3.23-.02.21-.01.42-.04.63-.08 1.18-.38 1.86-1.19 2.03-2.41.03-2.43.03-4.87 0-7.3-.02-.21-.06-.42-.13-.63-.43-1.13-1.25-1.75-2.45-1.87zM13.63 10.83l-.04-2.6c-.03-.06-.08-.08-.15-.08q-.84 1.17-1.74 2.31c-.13.24-.06.4.19.48l1.09.04q.09.045.15.15c.02.35.03.7.02 1.05.36 0 .73 0 1.09-.02q.255-.345.48-.69c.06-.19 0-.33-.19-.4l-.76-.04a.6.6 0 0 1-.15-.19z" clip-rule="evenodd"/><path fill="currentColor" fill-rule="evenodd" d="M12.47 11.58c-.29 0-.59 0-.88-.02a.96.96 0 0 1-.48-.36c-.21-.4-.19-.79.04-1.17q.9-1.185 1.83-2.37c.11-.09.24-.15.38-.17.39-.05.68.1.86.44q.09 1.215.06 2.43c.25-.01.49.04.71.15.53.52.56 1.06.08 1.64.71.04 1.43.03 2.14-.02.3-.98.27-1.94-.1-2.89-.87-1.84-2.34-2.72-4.38-2.64-.84.13-1.59.46-2.27.99-1.36 1.25-1.8 2.77-1.3 4.55 1.1.04 2.21.06 3.31.04zM12.22 21.36c-.08.1-.17.2-.27.29-.03.03-.03.06 0 .08l1.26 1.26c.02.73.03 1.45.02 2.18h.5c0-.78 0-1.57-.02-2.35-.46-.52-.96-1.01-1.49-1.47zM23.8 9.57c-.2.04-.41.06-.63.04.06 1.13-.48 1.68-1.59 1.66-.14.32-.32.62-.55.88.52.01 1.04.04 1.55.08q1.365.225 2.16 1.32.045-1.11 0-2.22c-.08-.68-.35-1.26-.82-1.74a.2.2 0 0 0-.13-.02z" clip-rule="evenodd"/><path fill="currentColor" fill-rule="evenodd" d="M16 0C7.16 0 0 7.16 0 16s7.16 16 16 16 16-7.16 16-16S24.84 0 16 0m9.42 22.7c-.16 1.35-.85 2.31-2.08 2.87-.25.09-.5.17-.76.23H8.48c-1.11-.28-1.75-.99-1.91-2.14q-.045-6.69 0-13.38c.26-1.38 1.09-2.1 2.5-2.16q1.605-2.265 4.41-2.22c.82-.86 1.81-1.38 2.98-1.57h1.3q.645.12 1.26.36c.18.21.17.41-.04.59-.11.03-.23.03-.34 0-1.58-.55-3.02-.3-4.32.76 2.04.6 3.28 1.93 3.71 4.01.1.72.07 1.43-.1 2.14.74 0 1.48 0 2.22-.02.33-.34.6-.72.8-1.15-.38-.38-.55-.84-.5-1.38-.98.07-1.52-.38-1.64-1.34.12-.96.66-1.42 1.64-1.38.02-.16-.01-.3-.1-.42l-.76-.76c-.02-.38.16-.51.52-.4.2.16.39.34.57.52.6-.67 1.28-.76 2.03-.27.37.36.53.8.46 1.32 1.27.02 1.79.65 1.57 1.89-.07.15-.14.29-.23.42.45.5.74 1.09.86 1.76.07 3.92.08 7.83.04 11.75z" clip-rule="evenodd"/><path fill="currentColor" fill-rule="evenodd" d="M10.54 19.74c-.51.49-.5.97.04 1.43.59.23 1 .06 1.24-.52q.09-1.065-.99-1.05l-.29.15zM21.22 19.17c.07-.75-.27-1.11-1.03-1.09-.12.05-.23.12-.34.21-.41.47-.38.91.08 1.32.57.28 1 .13 1.28-.44zM13.25 17.41c-.21.46-.12.84.27 1.15.55.23.97.09 1.24-.44.12-.7-.19-1.08-.9-1.13-.25.06-.46.2-.61.42" clip-rule="evenodd"/></svg>