<svg width="32" height="32" fill="none" viewBox="0 0 32 32" xmlns="http://www.w3.org/2000/svg"><g clip-path="url(#ink__clip0_2792_2095)"><path fill="currentColor" d="M16 0C7.16 0 0 7.16 0 16s7.16 16 16 16 16-7.16 16-16S24.84 0 16 0m7.61 13.99-13.92.02c-2.73.24-2.9 3.78.16 4.01 2.2.16 4.82-.25 6.96 0 1.31.16 2.01 1.74 1.47 2.9-1.07 2.32-4.67-.12-5.74 2.27-.57 1.28.28 2.46 1.56 2.74 1.48.32 4.08-.51 4.35 1.82.25 2.13-1.88 2.38-3.48 2.28-7.71-.5-13.39-7.62-12.86-15.19.47-6.71 6.36-12.59 13.18-12.86 1.59-.06 3.48.28 3.16 2.36-.4 2.63-4.01.88-5.57 2.4-1.3 1.27-.17 3.12 1.53 3.25 2.99.24 6.26-.2 9.28.02 2.01.65 2 3.46-.08 3.97z"/></g><defs><clipPath id="ink__clip0_2792_2095"><path fill="#fff" d="M0 0h32v32H0z"/></clipPath></defs></svg>