<svg width="32" height="32" fill="none" viewBox="0 0 32 32" xmlns="http://www.w3.org/2000/svg"><path fill="currentColor" d="M16 0C7.16 0 0 7.16 0 16s7.16 16 16 16 16-7.16 16-16S24.84 0 16 0m13.01 18.72c-.15.2-.33.4-.52.58l-.02.02c-.83.78-1.91 1.24-3.05 1.31-.8.05-1.61-.07-2.36-.36-.6-.23-1.15-.55-1.65-.95-1.86-1.5-3.57-2.86-5.41-2.86s-3.55 1.36-5.41 2.86l-.01.01c-1.65 1.32-3.86 1.69-5.67.9a4.7 4.7 0 0 1-1.37-.91l-.02-.02c-.19-.18-.36-.38-.52-.58-.46-.61-.75-1.31-.87-2.02a4 4 0 0 1-.06-.69v-.03q0-.36.06-.72c.17-.98.65-1.88 1.38-2.57l.02-.02c.4-.38.86-.69 1.37-.91a5.2 5.2 0 0 1 2.01-.41c1.28 0 2.59.46 3.66 1.31h.01c1.87 1.5 3.56 2.87 5.41 2.87s3.54-1.37 5.41-2.86c.5-.4 1.05-.71 1.65-.94.75-.29 1.56-.41 2.36-.37 1.11.07 2.18.49 3.05 1.31l.02.02c.73.68 1.21 1.58 1.38 2.57q.12.72 0 1.44c-.12.73-.42 1.43-.87 2.02z"/></svg>