<svg xmlns="http://www.w3.org/2000/svg" width="32" height="32" fill="none"><path fill="currentColor" d="m14.33 25.33 2.25-2.7H1.45c.44.95.96 1.86 1.57 2.7z"/><path fill="currentColor" d="m1.54 22.13 9.78-11.74 7.72 9.27 2.39-2.88 7.12 8.54h.42a15.92 15.92 0 0 0 3.02-9.33C32 7.16 24.84 0 16 0S0 7.16 0 16c0 2.17.44 4.24 1.22 6.13zm19.9-15.74c2.21 0 4 1.79 4 4s-1.79 4-4 4-4-1.79-4-4 1.79-4 4-4M11.33 4a2 2 0 0 1 2 2c0 1.11-.89 2-2 2s-2-.89-2-2 .89-2 2-2M6.73 29.02A15.9 15.9 0 0 0 16 32c3.46 0 6.65-1.11 9.27-2.98zM28.61 25.83H3.39c.78 1 1.67 1.91 2.67 2.7h19.88c.99-.79 1.89-1.7 2.67-2.7"/></svg>