<svg width="32" height="32" fill="none" viewBox="0 0 32 32" xmlns="http://www.w3.org/2000/svg"><g fill="currentColor" fill-rule="evenodd" clip-path="url(#mantle__clip0_2253_3)" clip-rule="evenodd"><path d="m17.65 5.48.82-5.29C17.66.06 16.83 0 16 0h-.01v10.8H16c.45 0 .91.06 1.34.17l1.4-5.26c-.36-.09-.72-.17-1.09-.23M13.39 11.49 10.7 6.86c-.32.18-.62.38-.92.6l-3.21-4.4c.67-.49 1.39-.94 2.14-1.32l2.44 4.77c.5-.25 1.01-.47 1.54-.64L11.03.78c.79-.26 1.62-.46 2.44-.59l.86 5.38c-.36.06-.72.14-1.08.23l1.39 5.17c-.44.12-.86.29-1.25.52M6.59 11.22 1.74 8.75c-.38.75-.7 1.53-.96 2.32l5.18 1.67c.17-.52.38-1.04.63-1.53zM25.13 10.7l-4.63 2.69c.23.39.4.81.52 1.25l5.17-1.39c.1.35.17.71.23 1.08l5.38-.86c-.13-.83-.33-1.65-.59-2.44l-5.09 1.66c-.17-.53-.39-1.04-.64-1.54l4.77-2.45c-.38-.74-.82-1.46-1.32-2.13l-4.4 3.21c.22.3.41.6.6.92M23.24 1.73c-.75-.38-1.53-.7-2.32-.96l-1.67 5.18c.52.17 1.04.38 1.53.63l2.47-4.85zM21.31 6.77l-2.72 4.72c.39.23.76.5 1.08.83l7.62-7.65c-.59-.59-1.23-1.14-1.91-1.63l-3.14 4.34q-.45-.33-.93-.6zM11.49 13.4l-4.72-2.72c.18-.32.39-.63.6-.93L3.04 6.6c.49-.67 1.04-1.32 1.63-1.91l7.65 7.63c-.32.32-.6.69-.83 1.08M5.71 13.25l5.26 1.4c-.12.43-.17.89-.17 1.34H0c0-.83.06-1.67.19-2.48l5.29.83c.06-.37.13-.73.23-1.09M25.41 20.77l4.85 2.47c.38-.75.7-1.53.96-2.32l-5.18-1.67c-.17.52-.38 1.04-.63 1.53zM18.6 20.5l2.69 4.63c.32-.18.62-.38.92-.6l3.21 4.4c-.67.49-1.39.94-2.14 1.32l-2.44-4.77c-.5.25-1.01.47-1.54.64l1.66 5.09c-.79.26-1.62.46-2.44.59l-.86-5.38c.36-.06.72-.14 1.08-.23l-1.39-5.17c.44-.12.86-.29 1.25-.52M6.87 21.29l4.63-2.69c-.23-.39-.4-.81-.52-1.25l-5.17 1.39c-.1-.35-.17-.71-.23-1.08l-5.38.86c.13.83.33 1.65.59 2.44l5.09-1.66c.17.53.39 1.04.64 1.54l-4.77 2.45c.38.74.82 1.46 1.32 2.13l4.4-3.21c-.22-.3-.41-.6-.6-.92M8.76 30.27c.75.38 1.53.7 2.32.96l1.67-5.18c-.52-.17-1.04-.38-1.53-.63l-2.47 4.85zM10.69 25.22l2.72-4.72c-.39-.23-.76-.5-1.08-.83l-7.62 7.65c.59.59 1.23 1.14 1.91 1.63l3.14-4.34q.45.33.93.6zM20.51 18.59l4.72 2.72c-.18.32-.39.63-.6.93l4.33 3.15c-.49.67-1.04 1.32-1.63 1.91l-7.65-7.63c.32-.32.6-.69.83-1.08M14.66 21.02l-1.4 5.26c.36.09.72.17 1.09.23l-.82 5.29c.81.13 1.64.19 2.47.19h.01v-10.8H16c-.45 0-.91-.06-1.34-.17M21.02 17.34c.12-.43.17-.89.17-1.34h10.8c0 .83-.06 1.67-.19 2.48l-5.29-.83c-.06.37-.13.73-.23 1.09z"/></g><defs><clipPath id="mantle__clip0_2253_3"><path fill="#fff" d="M0 0h32v32H0z"/></clipPath></defs></svg>