<svg width="32" height="32" fill="none" viewBox="0 0 32 32" xmlns="http://www.w3.org/2000/svg"><g clip-path="url(#megaeth__clip0_3091_1828)"><g clip-path="url(#megaeth__clip1_3091_1828)"><path fill="#fff" d="M0 0h32v32H0z"/><path fill="currentColor" d="M19.125 24.878c.983 0 1.776-.793 1.776-1.771a1.773 1.773 0 0 0-3.545 0c0 .978.794 1.771 1.769 1.771M12.759 24.931c.982 0 1.769-.793 1.769-1.771 0-.979-.787-1.772-1.77-1.772a1.771 1.771 0 0 0 0 3.543"/><path fill="currentColor" d="M8.88 6.424h4.22c.795 2.149 2.867 8.236 3.018 8.575.038-.17 2.125-6.803 2.715-8.537h4.387v15.133c-.545-.302-1.09-.603-1.68-.942-.408-.208-.786-.434-1.202-.604-.038-2.94-.075-5.86-.166-8.913-.59 1.752-2.625 7.934-2.79 8.103h-2.716s-2.64-7.5-2.768-7.84c-.038 2.884-.076 5.767-.174 8.745q-2.429 1.244-2.882 1.413V6.424z"/><path fill="currentColor" d="M16.004 2.544c7.404 0 13.455 6.03 13.455 13.456S23.43 29.456 16.004 29.456 2.549 23.426 2.549 16 8.577 2.544 16.004 2.544m0-2.544C7.162 0 0 7.161 0 16s7.162 16 16.004 16C24.838 32 32 24.839 32 16S24.838 0 16.004 0"/></g></g><defs><clipPath id="megaeth__clip0_3091_1828"><path fill="#fff" d="M0 0h32v32H0z"/></clipPath><clipPath id="megaeth__clip1_3091_1828"><path fill="#fff" d="M0 0h32v32H0z"/></clipPath></defs></svg>