<svg width="32" height="32" fill="none" viewBox="0 0 32 32" xmlns="http://www.w3.org/2000/svg"><path fill="currentColor" d="M13.51 17.89h.01c.03-.01.06-.02.09-.02.02 0 .03 0 .05.01h.03c.05.02.1.05.12.11l.39.82.27-1.47-3.85-.17 1.39 1.4 1.51-.69zM14.66 11.9c.08.03.13.11.13.2v.28l.07.15c.03.08 0 .16-.05.22l.14 4.18.02.26.22 1.43-.11 3.54h1.84l-.09-3.51.22-1.52.09-4.39a.22.22 0 0 1-.07-.26l.09-.2v-.21c0-.09.06-.17.14-.2h.04l1.14-2.69h-4.94l1.09 2.75h.05zM10.92 18.11l.62 1.22.22.43-.03-.82-.35-.36z"/><path fill="currentColor" d="m14.25 12.8-2.71 2.29-.11.16-.97 1.47 4.04.18zM12.25 20.64l2.2 1.72.14-.1-.5-2.56-1.92-.56.05 1.46s.01.03.01.04zM24.14 7.17l-5.16 1.92-.97 2.62zM21.07 18.13l-.8.81-.03.8.4-.79zM17.53 22.36l2.22-1.72v-.01l.07-1.49-1.93.57-.5 2.56.08.05z"/><path fill="currentColor" d="M22.12 16.8v.02l.01.01v.18000000000000002l-1.75 3.4 2.02.06s.1-.09.16-.07l3.55.07-1.33-4.09-3.65-1.07.98 1.48zM14.61 19.03l-.09.5.1.49zM17.38 20.03l.09-.5-.09-.51z"/><path fill="currentColor" d="m21.33 17.22.05-.05-3.85.17.11.59.16.87.39-.81a.23.23 0 0 1 .13-.11c.05-.02.11-.02.17 0l1.52.69 1.33-1.35zM21.53 16.72l-1.08-1.63-2.71-2.29-.23 4.1z"/><path fill="currentColor" d="M16 0C7.16 0 0 7.16 0 16s7.16 16 16 16 16-7.16 16-16S24.84 0 16 0m9.28 25.37c-.03.1-.12.16-.21.16h-.06l-4.6-1.27-.82.67-1.88 1.3s-.08.04-.13.04H14.4s-.09-.01-.13-.04l-1.85-1.29-.84-.69-4.6 1.27h-.06c-.1 0-.19-.06-.21-.16l-1.35-4.59s.01-.04.01-.07c0-.02-.02-.04-.01-.06l1.41-4.38-.88-1.03s-.06-.11-.05-.17c0-.06.04-.12.09-.15l.19-.14-.46-.42s-.07-.11-.07-.17c0-.07.03-.13.08-.17l.28-.22-.44-.33a.21.21 0 0 1-.09-.18c0-.07.03-.14.09-.18l.33-.25-.68-3.25v-.12l1.05-3.15s.01 0 .01-.01V6.3a.22.22 0 0 1 .13-.1c.04-.01.09 0 .13 0h.02l6.71 2.5h5.52l6.7-2.5h.14c.05.02.1.05.13.1v.02l.01.01 1.06 3.15s.02.08 0 .12l-.68 3.25.33.25c.06.04.09.11.09.18q0 .105-.09.18l-.43.33.29.22c.05.04.08.1.09.17 0 .07-.02.13-.07.17l-.46.42.19.14q.075.06.09.15c.01.06-.01.12-.05.17l-.88 1.03 1.42 4.38s.01.08 0 .12l-1.35 4.59z"/><path fill="currentColor" d="m17.96 22.6 2.13 1.03-.29-2.47zM17.99 24.45v.03l-.01.41 1.87-.88-2.04-.99zM20.72 23.88l4.2 1.15 1.21-4.09h-3.45z"/><path fill="currentColor" d="M17.74 25.47c-.04 0-.08-.01-.11-.03a.24.24 0 0 1-.1-.19l.02-.67-.07-.06h-2.96l-.06.05v.67c.02.08-.02.15-.09.19-.04.02-.07.03-.11.03-.03 0-.06 0-.1-.02l-.7-.33 1.01.71h3.04l1.01-.7-.69.33s-.06.02-.1.02zM20.22 20.97l.29 2.41 1.59-2.44z"/><path fill="currentColor" d="m14.01 24.48.01-.02v-.01l.16-1.43-2.03.99 1.87.88zM9.59 20.49l2.01-.06-1.74-3.4v-.18999999999999997l.01-.01v-.02l.98-1.48-3.32.97-.32.09-1.31 4.09 3.54-.07c.07-.02.12.02.16.07zM5.88 20.94l1.2 4.09 4.2-1.15-1.96-2.94zM11.49 23.37l.28-2.4-1.87-.03zM14.03 22.6l-1.83-1.43-.29 2.46 1.22-.6zM13.02 9.1 7.85 7.17l6.13 4.55z"/></svg>