<svg xmlns="http://www.w3.org/2000/svg" width="32" height="32" fill="none" viewBox="0 0 32 32"><g clip-path="url(#a)"><path fill="currentColor" d="M16 0C7.16 0 0 7.16 0 16s7.16 16 16 16 16-7.16 16-16S24.84 0 16 0m10.55 15.74c-.31.27-.88.69-.88.69s.03.19.11.35c.08.15.28.38.22.59s-.49.38-.36.61c.12.23.42.3.34.51-.09.21-.51.57-.47.72s.38 1.59-.4 1.84c-.59.19-2.22.29-2.99.34-.33.02-.63.2-.79.49-.12.22-.24.52-.29.92-.15 1.02-1.15 3.35-1.15 3.35l-.1.22c-.06.15-.19.26-.35.31-2.33.64-4.79.55-7.07-.26-.01 0-.02 0-.03-.01a.53.53 0 0 1-.28-.7c.21-.47.38-.94.5-1.32.06-.16.12-.33.19-.48.2-.46.6-1.4.87-1.97 2.88.64 4.63-.97 5.09-1.46.01-.01.02-.03.03-.04a.116.116 0 0 0-.08-.15c-1.46-.49-3.35-.12-4.64.86.41-.83.87-1.69 1.38-2.54 2.99.41 4.58-1.37 4.98-1.9 0-.01.02-.03.02-.04a.135.135 0 0 0-.09-.15c-1.39-.34-3.06.1-4.25 1.03.35-.53.71-1.05 1.08-1.55a6.2 6.2 0 0 0 3.64-5.03v-.05c-.02-.06-.09-.09-.15-.07-.71.25-3.4 1.42-3.93 4.98-.2.27-.5.69-.88 1.26.52-2.15-.32-3.65-.63-4.11 0-.01-.02-.03-.04-.04-.06-.03-.13-.02-.17.04-.35.59-1.48 2.83.03 5.38-.41.69-.86 1.5-1.32 2.42.16-2.5-1.18-3.89-1.61-4.27a.1.1 0 0 0-.04-.02c-.06-.02-.13.02-.15.08-.2.64-.75 3.04 1.34 5.18q-.39.84-.78 1.77c-.02 0-.04-.01-.05-.02a5 5 0 0 1-1.05-.46c-.27-.16-.56-.29-.85-.39-1.16-.38-.99-.94-1.6-2.06-.04-.07-.52-.57-.62-.66-.02-.02-.33-.2-.49-.53-.14-.3-.22-.58-.25-.85-.04-.36-.19-.6-.55-.73-1.71-.59-.94-2.81-.88-3.1.05-.25-.17-.8-.25-1.1 0-.04-.02-.08-.03-.14-.12-.59.15-1.1.36-1.3.21-.21.91-.54 1.06-.73s.26-.41.41-.59c.2-.25.81-.73 1.63-1.17.5-.27.58-.96.77-1.17.32-.37.81-.37 1.18-.69.18-.17.45-.25.62-.42.85-.87 1.98-1.22 3.1-1.43.76-.14 1.6.08 2.39.21.11.02.22.05.33.08 1.77.06 3.91.43 4.68 1.18.38.37.67.83.83 1.33.13.39.3.77.52 1.12l.47.77c.3.49.4 1.07.27 1.63-.07.32-.11.65-.02.84.15.29.6.76.87 1.03.13.13.28.25.44.34.36.23 1.06.67 1.06.71 0 .05.06.27-.25.54z"/></g><defs><clipPath id="a"><path fill="#fff" d="M0 0h32v32H0z"/></clipPath></defs></svg>