<svg xmlns="http://www.w3.org/2000/svg" width="32" height="32" fill="none" viewBox="0 0 32 32"><g clip-path="url(#ibgzn__clip0_423_208)"><path fill="currentColor" d="M32 15.654C31.808 6.964 24.704 0 16 0 7.168 0 0 7.168 0 16a16.01 16.01 0 0 0 9.638 14.682 13.9 13.9 0 0 0 1.767-3.802c.32-.82.665-1.613 1.037-2.394.46.141.947.218 1.446.218a5 5 0 0 0 3.558-1.485l.052-.051a4.974 4.974 0 0 0-4.749.717q.672-1.383 1.42-2.688a5 5 0 0 0 1.665.281 5 5 0 0 0 3.379-1.318l.051-.051a5.1 5.1 0 0 0-1.946-.397c-.985 0-1.945.294-2.764.832.499-.82.998-1.613 1.536-2.368.41.115.844.166 1.267.166a4.97 4.97 0 0 0 3.699-1.638l.038-.051a4.7 4.7 0 0 0-1.523-.243c-1.024 0-2.022.32-2.854.908.038-.05.09-.115.128-.179.32-.41.653-.832.985-1.229a5.9 5.9 0 0 0 3.981-4.608l.013-.076h-.013a5.85 5.85 0 0 0-4.262 4.492c-.32.384-.64.781-.947 1.178.217-.563.32-1.152.32-1.754 0-.857-.218-1.69-.64-2.432l-.039.052a5 5 0 0 0-.435 5.222c-.512.717-.998 1.46-1.472 2.24a4.962 4.962 0 0 0-1.293-4.365l-.025.064a4.9 4.9 0 0 0-.359 1.856c0 1.203.435 2.355 1.216 3.264-.473.82-.909 1.664-1.344 2.535.039-.27.064-.55.064-.82a5.13 5.13 0 0 0-1.536-3.673l-.025.064a5.15 5.15 0 0 0 1.126 5.222 40 40 0 0 0-.806 1.83.6.6 0 0 0-.244-.14 5.1 5.1 0 0 1-1.292-.576 5.3 5.3 0 0 0-1.063-.487c-1.446-.473-1.229-1.164-1.984-2.572-.243-.282-.499-.564-.768-.832a1.73 1.73 0 0 1-.601-.653 3.1 3.1 0 0 1-.308-1.063.98.98 0 0 0-.678-.908c-2.125-.73-1.178-3.495-1.1-3.853a5.2 5.2 0 0 0-.308-1.37c-.013-.051-.026-.115-.038-.179a1.89 1.89 0 0 1 .435-1.626c.256-.256 1.139-.665 1.331-.908.192-.244.32-.512.512-.73a7.7 7.7 0 0 1 2.035-1.46c.615-.332.717-1.19.96-1.458.397-.461 1.011-.461 1.472-.858.23-.205.563-.307.781-.525a7 7 0 0 1 3.853-1.779 8.844 8.844 0 0 1 2.97.269c.14.025.281.051.409.09 2.202.076 4.851.537 5.824 1.471.474.461.832 1.024 1.024 1.664.154.487.371.96.64 1.396l.589.96c.269.422.41.921.41 1.42 0 .205-.026.41-.065.615-.064.179-.09.371-.09.563 0 .166.026.32.065.474a7 7 0 0 0 1.088 1.28q.249.25.537.422c.448.269.896.563 1.306.883v.077a.7.7 0 0 1-.307.589c-.371.333-1.101.857-1.101.857.026.154.077.295.128.423.102.192.346.486.269.73-.077.255-.602.473-.461.755.14.294.525.37.41.64-.103.256-.628.704-.576.896.05.192.486 1.984-.512 2.29-1.23.244-2.47.385-3.725.41-.41.026-.781.256-.973.615a3.3 3.3 0 0 0-.358 1.139 26.6 26.6 0 0 1-1.434 4.16c-.589 1.344-.038.077-.09.205-.128.269-.217.55-.243.845.09.217.218.41.371.576.128.14.308.23.512.23.064 0 .141-.013.205-.026A16.13 16.13 0 0 0 31.987 15.91v-.281z"/></g><defs><clipPath id="ibgzn__clip0_423_208"><path fill="#fff" d="M0 0h32v32H0z"/></clipPath></defs></svg>