<svg xmlns="http://www.w3.org/2000/svg" xml:space="preserve" viewBox="0 0 960 960"><path fill="currentColor" d="M785.469 961c-8.665-1.65-16.973-2.881-25.036-5.029-23.183-6.173-44.307-16.503-62.412-32.48a346 346 0 0 1-15.625-14.636c-65.65-65.588-131.26-131.219-196.876-196.84-1.413-1.414-2.797-2.857-4.076-4.756 1.086-1.387 2.074-2.283 3.016-3.225q109.896-109.887 219.78-219.786c1.057-1.058 2.038-2.194 3.184-3.29.13.004.385.041.567.33 67.081 67.22 133.992 134.141 200.86 201.105a348 348 0 0 1 14.637 15.625c15.978 18.106 26.307 39.232 32.483 62.415 2.148 8.063 3.38 16.37 5.029 24.567 0 10.354 0 20.708-.3 31.807-1.278 6.938-1.844 13.23-3.3 19.309-8.348 34.877-25.757 64.199-53.352 87.47-18.452 15.562-39.298 26.222-62.483 32.386-8.064 2.144-16.37 3.378-24.565 5.028zM176.531 1c8.664 1.65 16.968 2.885 25.032 5.028 23.184 6.16 44.028 16.822 62.48 32.38 27.594 23.27 45.057 52.576 53.368 87.46 4.184 17.563 4.532 35.381 2.694 53.334-2.69 26.282-11.833 50.181-26.633 71.828-25.152 36.785-60.03 59.62-103.652 67.626-43.086 7.907-83.488-.767-119.701-25.712-36.362-25.047-58.105-60.005-66.96-103.099-.828-4.034-1.053-8.193-1.859-12.57-.3-10.63-.3-20.983 0-32.082 1.278-6.938 1.844-13.23 3.3-19.308 8.352-34.876 25.758-64.199 53.352-87.473C76.405 22.848 97.256 12.2 120.436 6.028 128.499 3.882 136.805 2.65 145 1zM1 784.469c1.641-8.122 3.051-15.834 4.967-23.417 5.973-23.64 16.996-44.651 32.728-63.338 19.072-22.655 42.64-38.552 70.497-48.23 12.353-4.292 25.148-6.17 38.143-7.734 15.901-1.913 31.555-.386 46.815 2.681 25.368 5.099 48.379 16.109 68.516 32.737 24.028 19.84 41.106 44.58 50.535 74.115 3.77 11.808 4.808 24.518 6.766 36.868 2.875 18.13.08 36.006-4.146 53.507-5.468 22.65-16.2 42.9-31.012 60.969-19.765 24.11-44.602 40.965-74.06 50.634-10.713 3.516-22.168 4.776-33.517 7.402-10.586.337-20.94.337-32-.002-3.801-.768-6.901-1.162-9.99-1.632-30.383-4.621-57.028-17.544-79.965-37.64-25.616-22.441-42.322-50.592-50.228-83.8C3.43 830.79 2.336 823.866 1 817zm674.975-724.61c15.372-17.168 32.545-32.086 53.349-42.397 17.123-8.486 35.298-13.45 54.45-16.128 10.914-.334 21.601-.334 32.984 0 13.474 2.385 26.07 4.821 38.45 9.04 20.453 6.971 38.107 18.144 54.005 32.401 13.7 12.286 24.812 26.721 33.437 42.922 6.817 12.803 11.788 26.376 14.429 40.734 1.144 6.22 2.604 12.381 3.921 18.569 0 10.688 0 21.375-.332 32.751-5.735 43.547-24.827 79.06-57.828 107.358-.8.424-1.295.761-1.785 1.034.007-.065.138-.051-.115.053-.452.401-.65.699-.848.946 0-.05.1-.05-.152.054-.452.401-.65.699-.848.946 0-.05.1-.05-.152.054-.452.401-.65.699-.827.96.02-.036.093.006-.267.009-7.83 4.602-15.022 9.75-22.82 13.705-32.7 16.584-67.09 22.065-103.38 15.323-35.751-6.642-65.568-23.734-89.862-50.457-16.069-17.676-27.481-38.131-34.11-61.196-5.843-20.322-8.019-40.892-5.769-62.003 2.338-21.928 8.508-42.533 19.568-61.629 3.715-6.414 7.573-12.745 11.365-19.114 0 0 .042.073.259-.01a4.7 4.7 0 0 0 .81-.976s.001.1.204-.003c.4-.402.599-.7.797-.997 0 0 .013.13.209-.037.416-.749.637-1.33.858-1.912"/><path fill="currentColor" d="M707.295 480.955c-1.017 1.099-1.998 2.235-3.055 3.293a2533633 2533633 0 0 1-219.78 219.786c-.942.942-1.93 1.838-3.18 2.944-1.627-1.048-3.02-2.236-4.31-3.527-72.583-72.565-145.152-145.143-217.761-217.681-1.402-1.4-3.255-2.348-5.05-3.614 1.677-2.09 2.391-3.177 3.291-4.077 74.34-74.345 148.695-148.675 223.6-222.991 70.393 69.856 140.236 139.695 210.072 209.542 5.416 5.417 10.783 10.882 16.173 16.325"/><path fill="currentColor" d="M707.424 480.958c-5.52-5.446-10.886-10.911-16.302-16.328a710258 710258 0 0 0-209.789-209.747c4.17-4.72 8.581-9.246 13.05-13.716A954513 954513 0 0 1 667.75 67.806c1.406-1.406 2.924-2.7 4.738-4.029-3.443 6.386-7.3 12.717-11.016 19.131-11.06 19.096-17.23 39.7-19.568 61.629-2.25 21.111-.074 41.68 5.768 62.003 6.63 23.065 18.042 43.52 34.111 61.196 24.294 26.723 54.11 43.815 89.862 50.457 36.29 6.742 70.68 1.261 103.38-15.323 7.798-3.955 14.99-9.103 22.82-13.705-.93 1.65-2.06 3.46-3.53 4.932-62.041 62.118-124.112 124.205-186.343 186.6-.164.302-.42.265-.55.261zM675.69 60.036c.064.404-.157.986-.638 1.741-.056-.405.148-.984.638-1.74zm-2.114 2.758c.134.312-.064.61-.516 1.011-.107-.272.04-.649.516-1.011m1-1c.134.312-.064.61-.516 1.011-.107-.272.04-.649.516-1.011M902.84 285.109c-.178.368-.659.821-1.466 1.187.17-.426.667-.763 1.466-1.187m-1.9 1.087c.107.272-.039.649-.516 1.01-.134-.311.064-.609.516-1.01m-1 1c.107.272-.039.649-.516 1.01-.134-.311.064-.609.516-1.01m-1 1c.107.272-.039.649-.516 1.01-.134-.311.064-.609.516-1.01"/></svg>