<svg width="32" height="32" fill="none" viewBox="0 0 32 32" xmlns="http://www.w3.org/2000/svg"><path fill="currentColor" d="M16 0C7.16 0 0 7.16 0 16s7.16 16 16 16 16-7.16 16-16S24.84 0 16 0m4.05 7.15s-.01.03-.01.04c0-.02.01-.03.01-.04m-14 1.76c.03-.14.04-.27.07-.4.17-.72.53-1.33 1.11-1.82.38-.32.82-.54 1.3-.67.17-.04.34-.07.51-.1h.65c.18.03.35.06.52.1.48.13.91.35 1.3.67a3.3 3.3 0 0 1 1.11 1.82c.09.36.09.73.06 1.11-.06.55-.25 1.04-.55 1.49-.52.76-1.25 1.24-2.15 1.4a3.26 3.26 0 0 1-2.48-.53c-.75-.52-1.21-1.25-1.39-2.14-.02-.08-.02-.17-.04-.26v-.67zm6.53 14.46c-.11.47-.34.89-.64 1.27-.41.5-.93.85-1.54 1.05-.22.07-.46.1-.7.15h-.66c-.08-.02-.14-.02-.21-.03a3.24 3.24 0 0 1-1.66-.78c-.53-.47-.88-1.05-1.04-1.74a6 6 0 0 1-.08-.43v-.68c.03-.17.06-.33.1-.49.12-.49.35-.93.68-1.31.4-.47.88-.8 1.46-1 .26-.09.52-.13.79-.16.33-.04.65 0 .97.06.53.11 1 .33 1.42.68.5.41.85.93 1.05 1.54.08.24.1.51.14.77.06.38 0 .75-.09 1.11zm13.38-.52c-.03.14-.04.27-.07.4-.17.72-.53 1.33-1.11 1.82-.38.32-.82.54-1.3.67-.17.04-.34.07-.51.1h-.65c-.18-.03-.35-.06-.52-.1a3.2 3.2 0 0 1-1.3-.67c-.11-.1-.22-.2-.32-.3l-4.09-4.09-.18-.18-4.52-4.52c-.03-.03-.07-.05-.1-.07.03-.04.05-.07.07-.08l4.92-4.92 3.6-3.6c.03-.03.85-.83 1.28-1.04.36-.18.73-.28 1.13-.33h.68c.28.05.54.1.8.19.42.14.79.38 1.12.67a3.186 3.186 0 0 1 .99 1.74c.02.13.08.65.07 1.07-.12.9-.52 1.64-1.2 2.23 0 0-.15.16-.18.19L20.7 15.9v.01c1.39 1.4 2.78 2.78 4.17 4.17.1.1.21.21.3.32.33.38.55.81.67 1.3.04.17.07.34.1.51v.66z"/></svg>