<svg xmlns="http://www.w3.org/2000/svg" width="32" height="32" fill="none" viewBox="0 0 32 32"><g fill="currentColor" clip-path="url(#xnbpa__clip0_423_271)"><path d="M14.56.088C10.408.456 6.48 2.504 3.776 5.72.208 9.968-.896 15.728.84 21.016a15.91 15.91 0 0 0 10.136 10.135c3.304 1.088 6.744 1.097 10.04.009a15.91 15.91 0 0 0 10.135-10.136c1.088-3.304 1.097-6.744.009-10.04C28.84 3.944 21.968-.568 14.56.088m2.28 5.184c.848.392 8.04 4.536 8.304 4.792.168.168.384.44.48.616.176.32.176.344.176 5.24s0 4.92-.176 5.24a3.3 3.3 0 0 1-.48.616c-.296.288-7.872 4.632-8.424 4.832-.368.136-1.024.136-1.408 0-.544-.192-8.136-4.536-8.456-4.84a3 3 0 0 1-.48-.608c-.176-.32-.176-.344-.176-5.24s0-4.92.176-5.24c.096-.176.312-.456.48-.616.272-.264 7.2-4.264 8.224-4.752.504-.24 1.289-.256 1.76-.04"/><path d="M15.64 6.688c-2.456 1.352-7.648 4.336-7.776 4.488-.184.192-.184.224-.184 2.352 0 1.184.016 2.152.04 2.152s.176-.08.344-.184c.16-.104.456-.256.656-.344.344-.144.672-.152 7.16-.192 7.776-.048 7.016.032 7.936-.824l.504-.472v-1.152c0-1.072-.008-1.152-.176-1.336-.224-.24-7.776-4.528-8.064-4.584a.84.84 0 0 0-.44.096m-1.104 3.72c.12.04.328.176.448.296.424.4.456.544.456 1.936v1.28h-1.52v-2.16h-1.76v2.16h-1.52v-1.224c0-1.544.12-1.864.84-2.24.192-.104.512-.128 1.536-.136.728 0 1.392.041 1.52.088m6.008.064c.688.352.816.695.816 2.247v1.2h-1.52v-2.16h-1.76v2.16h-1.52v-1.28c0-1.392.032-1.536.456-1.936.352-.336.536-.376 1.928-.376 1.128-.008 1.344.017 1.6.145m3.64 5.304c-.056.064-.368.24-.68.392l-.584.272-6.84.04-6.84.04-.36.216c-.2.112-.552.408-.784.648l-.416.448v1.32c0 1.256.008 1.328.184 1.512.096.104 1.904 1.168 4.016 2.368 2.92 1.64 3.912 2.168 4.112 2.168.208 0 1.216-.536 4.192-2.224 2.152-1.216 3.968-2.288 4.024-2.384.16-.232.129-5.008-.024-4.816M12.16 18.6v1.08h1.752l.024-1.064.024-1.056.744-.024.736-.024v1.304c0 1.208-.016 1.328-.184 1.6-.408.672-.856.808-2.432.768-1.248-.024-1.448-.096-1.896-.648l-.248-.312-.024-1.352-.032-1.352h1.536zm5.904.016.024 1.064h1.752v-2.16h1.52v1.216c0 1.376-.088 1.696-.552 2.088-.368.304-.72.376-1.936.376-1 0-1.112-.016-1.496-.208-.296-.152-.472-.304-.616-.544-.192-.328-.2-.4-.2-1.64v-1.296l.744.024.736.024z"/></g><defs><clipPath id="xnbpa__clip0_423_271"><path fill="#fff" d="M0 0h32v32H0z"/></clipPath></defs></svg>