<svg width="32" height="32" fill="none" viewBox="0 0 32 32" xmlns="http://www.w3.org/2000/svg"><path fill="currentColor" d="M16 1.72c-7.86 0-14.26 6.4-14.26 14.26S8.14 30.24 16 30.24s14.26-6.4 14.26-14.26S23.86 1.72 16 1.72m-2.56 27.41C7.26 27.94 2.6 22.51 2.6 15.98S7.27 4.02 13.44 2.83v1.25c-5.49 1.17-9.61 6.05-9.61 11.89s4.12 10.72 9.61 11.89zm3.27-5.67v2.13H15.3v-2.13h-.43c-.79 0-1.48-.17-2.08-.52q-.9-.54-1.41-1.5c-.33-.65-.49-1.4-.49-2.25h1.41c0 .86.24 1.56.71 2.11.48.53 1.12.79 1.91.79h2.18c.77 0 1.39-.18 1.87-.54.47-.38.71-.86.71-1.46v-1.33c0-.47-.18-.88-.53-1.21-.34-.33-.81-.55-1.41-.65l-3.54-.63c-1-.18-1.77-.56-2.32-1.13s-.83-1.29-.83-2.15v-1.13c0-1.02.35-1.82 1.06-2.42.72-.61 1.67-.92 2.85-.92h.35V6.39h1.41v2.13h.45c1.11 0 2.01.36 2.69 1.08q1.02 1.065 1.02 2.82h-1.41c0-.76-.21-1.38-.63-1.84s-.98-.69-1.67-.69h-2.22c-.75 0-1.34.18-1.79.54-.45.35-.67.82-.67 1.42v1.13c0 .49.16.9.49 1.23.34.33.81.56 1.39.67l3.52.65c1.02.19 1.81.57 2.38 1.13.56.54.84 1.24.84 2.09v1.33c0 1.02-.37 1.84-1.1 2.46-.73.61-1.7.92-2.89.92zm1.84 5.66v-1.26c5.48-1.18 9.59-6.05 9.59-11.89S24.03 5.26 18.55 4.08V2.82c6.16 1.2 10.82 6.63 10.82 13.14S24.72 27.9 18.55 29.1z"/><path fill="currentColor" d="M16 0C7.16 0 0 7.16 0 16s7.16 16 16 16 16-7.16 16-16S24.84 0 16 0m0 31.01C7.71 31.01.97 24.27.97 15.98S7.71.95 16 .95s15.03 6.74 15.03 15.03S24.29 31.01 16 31.01"/></svg>