<svg xmlns="http://www.w3.org/2000/svg" width="32" height="32" fill="none" viewBox="0 0 32 32"><g fill="currentColor" clip-path="url(#clip0_298_734)"><path d="M18.66 8.26h-5.25l-.28 1.81 5.4.02c1.51 0 2.76 1.25 2.76 2.76 0 1.52-1.24 2.76-2.76 2.76h-6.29l-1.23 7.93h3.1l.81-5.06c.11-.62.64-1.08 1.27-1.08h2.38c2.51 0 4.61-1.96 4.69-4.46.06-2.57-2.02-4.69-4.59-4.69z"/><path d="M19.47 12.85c0-.52-.42-.94-.94-.94l-5.7-.02-.3 1.91h6.01c.52 0 .94-.42.94-.94z"/><path d="M16 0C7.16 0 0 7.16 0 16s7.16 16 16 16 16-7.16 16-16S24.84 0 16 0m2.64 19.25h-1.98l-.81 5.04c-.11.62-.64 1.08-1.27 1.08h-4.23c-.07 0-.13 0-.2-.02-.7-.11-1.18-.76-1.07-1.46l.43-2.81.87-5.5H8.77c-.49 0-.91-.42-.91-.91s.41-.91.91-.91h1.89l.02-.13.28-1.76H9.35a.944.944 0 0 1-.91-.93c0-.51.41-.91.91-.91h1.89v-.02l.4-2.55c.09-.62.64-1.08 1.27-1.08h5.63c3.51 0 6.46 2.78 6.52 6.31.06 3.59-2.85 6.54-6.42 6.54z"/></g><defs><clipPath id="clip0_298_734"><path fill="#fff" d="M0 0h32v32H0z"/></clipPath></defs></svg>