<svg width="32" height="32" fill="none" viewBox="0 0 32 32" xmlns="http://www.w3.org/2000/svg"><path fill="currentColor" d="M16 0C7.16 0 0 7.16 0 16s7.16 16 16 16 16-7.16 16-16S24.84 0 16 0m5.73 18.65c-.29.51-1.05 1.44-2.11 2.51.6.28 1.09.62 1.51 1 .79.73 1.12 1.86.53 2.17-.66.35-2.42-.66-4.4-.84-.06 0-.12 0-.18-.01-.43.35-.87.7-1.33 1.04-.03.02-.06.05-.09.07-1.42 1.03-2.96 1.95-4.46 2.49-.97.35-3.57.61-3.57-.34 0-.67 1.36-1.27 3.36-3.48-.32-.02-.64-.05-.99-.08-2.95-.29-4.45-1.27-4.87-3.66-.13.03-.51.1-.65.1-.93 0-1.68-.75-1.68-1.68s.75-1.68 1.68-1.68c.23 0 .47.05.68.14.86-2.79 3.07-4.63 5.73-5.42 3.95-1.16 7.32.28 8.85 1.96.49-.88 1.32-1.57 2.21-1.96-.5-.24-1.04-.48-1.58-.72h-.02c-.55-.24-1.11-.47-1.67-.7-.09-.04-.17-.07-.26-.11-.22-.09-.43-.18-.65-.27-.09-.04-.18-.08-.27-.11-.21-.09-.42-.18-.62-.27-.11-.05-.21-.09-.32-.14-.18-.08-.35-.16-.53-.24-.11-.05-.22-.1-.32-.15-.16-.08-.31-.15-.46-.23l-.3-.15c-.15-.08-.28-.16-.42-.23-.08-.05-.17-.1-.25-.15-.14-.09-.27-.18-.39-.26-.05-.04-.12-.08-.17-.12-.16-.13-.31-.25-.43-.38-.02-.02-.03-.04-.04-.06-.09-.11-.17-.22-.23-.33 0-.01-.02-.02-.02-.03-.16-.33-.15-.67.09-1.02.65-.92 3.86-1.2 6.94.88 4.89 2.69 10 9.15 8.97 11.46-.67 1.51-3.71 1.45-7.31 1z"/></svg>