<svg xmlns="http://www.w3.org/2000/svg" fill="none" viewBox="0 0 120 120"><g clip-path="url(#z8stn__a)"><mask id="z8stn__b" width="120" height="120" x="0" y="0" maskUnits="userSpaceOnUse" style="mask-type:alpha"><circle cx="60" cy="60" r="60" fill="currentColor"/></mask><g mask="url(#z8stn__b)"><path fill="url(#z8stn__c)" d="M0 0h120v120H0z"/></g><path fill="url(#z8stn__d)" d="M26.667 41.667h5c25.773 0 46.666 20.893 46.666 46.666v5h10a5 5 0 0 0 5-5c0-34.057-27.609-61.666-61.666-61.666a5 5 0 0 0-5 5z"/><path fill="url(#z8stn__e)" d="M80 88.333h13.333a5 5 0 0 1-5 5H80z"/><path fill="url(#z8stn__f)" d="M31.667 26.667V40h-5v-8.333a5 5 0 0 1 5-5"/><path fill="url(#z8stn__g)" d="M26.667 40h5C58.36 40 80 61.64 80 88.333v5H65v-5C65 69.923 50.076 55 31.667 55h-5z"/><path fill="url(#z8stn__h)" d="M66.667 88.333H80v5H66.667z"/><path fill="url(#z8stn__i)" d="M26.667 53.333V40h5v13.333z"/><path fill="url(#z8stn__j)" d="M26.667 61.667a5 5 0 0 0 5 5c11.966 0 21.666 9.7 21.666 21.666a5 5 0 0 0 5 5h8.334v-5c0-19.33-15.67-35-35-35h-5z"/><path fill="url(#z8stn__k)" d="M53.333 88.333h13.334v5h-8.334a5 5 0 0 1-5-5"/><path fill="url(#z8stn__l)" d="M31.667 66.667a5 5 0 0 1-5-5v-8.334h5z"/></g><defs><radialGradient id="z8stn__d" cx="0" cy="0" r="1" gradientTransform="rotate(-90 60 28.333)scale(61.6667)" gradientUnits="userSpaceOnUse"><stop offset=".77" stop-color="currentColor"/><stop offset="1" stop-color="currentColor"/></radialGradient><radialGradient id="z8stn__g" cx="0" cy="0" r="1" gradientTransform="rotate(-90 60 28.333)scale(48.3333)" gradientUnits="userSpaceOnUse"><stop offset=".724" stop-color="currentColor"/><stop offset="1" stop-color="currentColor"/></radialGradient><radialGradient id="z8stn__j" cx="0" cy="0" r="1" gradientTransform="rotate(-90 60 28.333)scale(35)" gradientUnits="userSpaceOnUse"><stop offset=".595" stop-color="#0AF"/><stop offset="1" stop-color="currentColor"/></radialGradient><radialGradient id="z8stn__k" cx="0" cy="0" r="1" gradientTransform="matrix(14.1667 0 0 37.7778 52.5 90.833)" gradientUnits="userSpaceOnUse"><stop stop-color="#0AF"/><stop offset="1" stop-color="currentColor"/></radialGradient><radialGradient id="z8stn__l" cx="0" cy="0" r="1" gradientTransform="matrix(0 -14.1667 268.642 0 29.167 67.5)" gradientUnits="userSpaceOnUse"><stop stop-color="#0AF"/><stop offset="1" stop-color="currentColor"/></radialGradient><linearGradient id="z8stn__c" x1="60" x2="60" y1="0" y2="120" gradientUnits="userSpaceOnUse"><stop stop-color="currentColor"/><stop offset="1" stop-color="currentColor"/></linearGradient><linearGradient id="z8stn__e" x1="79.167" x2="93.333" y1="90.833" y2="90.833" gradientUnits="userSpaceOnUse"><stop stop-color="currentColor"/><stop offset="1" stop-color="currentColor"/></linearGradient><linearGradient id="z8stn__f" x1="29.167" x2="29.167" y1="26.667" y2="40.833" gradientUnits="userSpaceOnUse"><stop stop-color="currentColor"/><stop offset="1" stop-color="currentColor"/></linearGradient><linearGradient id="z8stn__h" x1="66.667" x2="80" y1="90.833" y2="90.833" gradientUnits="userSpaceOnUse"><stop stop-color="currentColor"/><stop offset="1" stop-color="currentColor"/></linearGradient><linearGradient id="z8stn__i" x1="29.167" x2="29.167" y1="53.333" y2="40" gradientUnits="userSpaceOnUse"><stop stop-color="currentColor"/><stop offset="1" stop-color="currentColor"/></linearGradient><clipPath id="z8stn__a"><path fill="#fff" d="M0 0h120v120H0z"/></clipPath></defs></svg>