<svg width="32" height="32" fill="none" viewBox="0 0 32 32" xmlns="http://www.w3.org/2000/svg"><path fill="currentColor" d="M16 0C7.16 0 0 7.16 0 16s7.16 16 16 16 16-7.16 16-16S24.84 0 16 0m6.96 23.82c-.36.63-.88 1.15-1.51 1.51s-1.34.55-2.06.55-1.44-.19-2.06-.55c-.63-.36-1.15-.88-1.51-1.51s-.55-1.34-.55-2.06c0-.8.28-1.54.65-2.22.22-.38.27-.82.16-1.24a1.65 1.65 0 0 0-.75-1c-1.06-.61-1.9.07-2.24.61-.41.66-.91 1.27-1.6 1.67a4.126 4.126 0 0 1-4.12 0c-.63-.36-1.15-.88-1.51-1.51s-.55-1.34-.55-2.06.19-1.44.55-2.06c.36-.63.88-1.15 1.51-1.51s1.34-.55 2.06-.55 1.44.19 2.06.55c.69.4 1.19 1.01 1.6 1.67.22.37.57.65.99.76s.86.06 1.24-.15c1.05-.6.89-1.67.59-2.24-.36-.68-.65-1.42-.65-2.22 0-.72.19-1.44.55-2.06.36-.63.88-1.15 1.51-1.51s1.34-.55 2.06-.55 1.44.19 2.06.55c.63.36 1.15.88 1.51 1.51s.55 1.34.55 2.06-.19 1.44-.55 2.06-.88 1.15-1.51 1.51c-.7.4-1.48.52-2.26.55-.43 0-.84.18-1.15.49s-.48.72-.48 1.15c0 1.2.97 1.62 1.63 1.64.78.03 1.57.14 2.26.55.63.35 1.15.87 1.51 1.5s.55 1.34.55 2.06-.19 1.44-.55 2.06z"/></svg>