<svg width="32" height="32" fill="none" viewBox="0 0 32 32" xmlns="http://www.w3.org/2000/svg"><g clip-path="url(#kelpdaorestakedeth__clip0_1864_1964)"><path fill="currentColor" d="M16 0C7.16 0 0 7.16 0 16s7.16 16 16 16 16-7.16 16-16S24.84 0 16 0m.11 25.01-3.42 1.95a.41.41 0 0 1-.61-.35v-.1c0-.43-.2-.83-.54-1.08l-3.3-2.46a1.957 1.957 0 0 1 .2-3.27l3.13-1.77c.77-.43.84-1.51.13-2.04L8.23 13.3c-1.13-.84-1.02-2.57.21-3.27l3.4-1.92c.27-.15.6.04.6.35v.08c0 .43.2.83.55 1.09l3.31 2.44c1.14.84 1.04 2.57-.19 3.27l-3.17 1.81c-.77.44-.83 1.52-.12 2.04l3.47 2.55c1.14.84 1.04 2.57-.19 3.27zm4.18-8.88 3.47 2.55c1.14.84 1.04 2.57-.19 3.27l-3.42 1.95a.41.41 0 0 1-.61-.35v-.1c0-.43-.2-.83-.54-1.08l-3.3-2.46a1.957 1.957 0 0 1 .2-3.27l3.13-1.77c.77-.43.84-1.51.13-2.04l-3.47-2.59c-1.13-.84-1.02-2.57.21-3.27l3.4-1.92c.27-.15.6.04.6.35v.08c0 .43.2.83.55 1.09l3.31 2.44c1.14.84 1.04 2.57-.19 3.27l-3.17 1.81c-.77.44-.83 1.52-.12 2.05z"/></g><defs><clipPath id="kelpdaorestakedeth__clip0_1864_1964"><path fill="#fff" d="M0 0h32v32H0z"/></clipPath></defs></svg>