<svg width="32" height="32" fill="none" viewBox="0 0 32 32" xmlns="http://www.w3.org/2000/svg"><g fill="currentColor" clip-path="url(#rusd__clip0_3133_8)"><path d="m19.233 17.484-.931-.91H16.88v4.91h1.422l.93-.952zM12.583 11.161v2.7l.931.932h1.565V10.23h-1.565z"/><path d="M16 0C7.161 0 0 7.161 0 16s7.161 16 16 16 16-7.161 16-16S24.839 0 16 0m-2.63 29.238C7.162 28.02 2.466 22.548 2.466 15.98S7.151 3.938 13.371 2.72v.89C7.64 4.808 3.345 9.893 3.345 15.97S7.642 27.13 13.371 28.327zm1.71-3.642v-2.333h-2.497l-2.056-2.056v-1.606h2.015v.951l.91.931h1.627v-4.91h-2.455l-2.056-2.077v-4l2.056-2.056h2.455V6.107h1.8V8.44h2.139l2.056 2.056v1.627H19.09v-.972l-.93-.931H16.89v4.573h2.312l2.056 2.056v4.317l-2.097 2.097h-2.26v2.333zm3.529 3.642v-.9c5.708-1.208 9.995-6.282 9.995-12.359 0-6.076-4.287-11.14-9.995-12.358v-.9c6.2 1.228 10.874 6.69 10.874 13.248S24.808 28 18.61 29.217z"/></g><defs><clipPath id="rusd__clip0_3133_8"><path fill="#fff" d="M0 0h32v32H0z"/></clipPath></defs></svg>