<svg width="32" height="32" fill="none" viewBox="0 0 32 32" xmlns="http://www.w3.org/2000/svg"><path fill="currentColor" d="M16 0C7.16 0 0 7.16 0 16s7.16 16 16 16 16-7.16 16-16S24.84 0 16 0M9.35 16H7.16c-.65 0-1.18-.5-1.18-1.16v-3.69c0-.65.53-1.18 1.18-1.18h1.68c.65 0 1.18-.53 1.18-1.18V7.11c0-.65.53-1.18 1.18-1.18h9.19c.65 0 1.18.53 1.18 1.18V9.3c0 .65-.53 1.18-1.18 1.18H11.7c-.65 0-1.18.53-1.18 1.18v3.16c0 .65-.53 1.18-1.18 1.18zm9.02-1.06v2.1c0 .68-.56 1.24-1.24 1.24h-2.1c-.68 0-1.24-.56-1.24-1.24v-2.1c0-.68.56-1.24 1.24-1.24h2.1c.68 0 1.24.56 1.24 1.24m7.77 5.91c0 .65-.53 1.18-1.18 1.18h-1.69c-.65 0-1.18.46-1.18 1.12v1.75c0 .65-.52 1.18-1.17 1.18h-9.2c-.65 0-1.18-.53-1.18-1.18v-2.19c0-.65.53-1.18 1.18-1.18h8.7c.65 0 1.18-.53 1.18-1.18v-3.17c0-.65.53-1.18 1.18-1.18h2.19c.65 0 1.18.51 1.18 1.17v3.68z"/></svg>