<svg xmlns="http://www.w3.org/2000/svg" width="247" height="307" fill="none" viewBox="0 0 247 307"><path fill="currentColor" d="M110.535 0a25.06 25.06 0 0 0-17.744 7.368l-73.92 74.101a14.35 14.35 0 0 0-4.2 10.164c0 3.679 1.4 7.358 4.2 10.164l48.442 48.561v-85.97c0-6.416 5.148-11.617 11.548-11.617h101.834L233.337.001zM67.315 166.43H169.11c6.4 0 11.588-5.201 11.588-11.616v-85.97l48.442 48.56c2.8 2.807 4.2 6.486 4.2 10.164s-1.4 7.357-4.2 10.164l-73.92 74.102a25.06 25.06 0 0 1-17.743 7.368l-122.802-.001zM21.598 307q-9.368 0-20.655-6.361v-9.171q10.622 7.174 20.73 7.174 4.647 0 7.376-1.701 2.804-1.775 2.803-4.882 0-2.81-2.582-4.437-2.58-1.702-7.967-3.033-9.664-2.514-13.13-4.29Q.5 276.379.5 268.539q0-6.73 5.68-10.651 5.681-3.92 14.017-3.92 10.18 0 18.369 5.917v9.172q-9.37-6.805-18.37-6.805-4.72 0-7.819 1.775-3.098 1.776-3.098 4.956 0 1.923 1.77 3.328a14.5 14.5 0 0 0 3.836 2.071q2.139.666 6.345 1.701 4.426 1.11 7.303 2.145 2.95 1.036 5.975 2.885 3.026 1.774 4.5 4.512 1.55 2.737 1.55 6.508 0 7.027-5.386 10.947-5.31 3.92-13.574 3.92M58.319 307q-2.583 0-5.017-.592a18.2 18.2 0 0 1-4.573-1.849q-2.213-1.331-3.615-3.772-1.401-2.514-1.402-5.843-.073-5.991 4.131-9.098 4.206-3.18 12.025-3.18h11.877v-2.367q0-3.254-2.656-4.881-2.655-1.702-6.86-1.702-8.041 0-9.37 5.326l-8.114.148q.147-5.843 5.09-9.246 5.016-3.402 12.246-3.402 7.304 0 12.467 3.55 5.238 3.55 5.238 9.172v27.144h-8.04v-5.917q-1.697 2.367-5.165 4.438Q63.188 307 58.32 307m.664-7.027q4.869 0 8.779-3.328 3.983-3.328 3.983-7.84H61.343q-4.795 0-7.155 1.849-2.288 1.774-1.992 4.512.22 2.514 2.213 3.698 1.992 1.11 4.574 1.109M86.276 306.408l-.148-31.878v-8.654q0-7.026 5.754-10.576t15.197-1.184l-.074 6.509q-6.123-1.627-9.295 0-3.098 1.553-3.098 5.325v1.258h12.098v7.322H94.612l.073 31.878zM129.014 307q-8.41 0-14.237-5.917-5.829-5.991-5.828-14.349 0-8.432 5.901-14.275 5.902-5.917 14.164-5.917 7.304 0 12.836 4.808 5.607 4.733 6.861 11.908.738 3.476.074 6.656h-31.426q.737 4.365 3.983 6.953 3.246 2.514 7.672 2.515 6.787 0 10.845-4.808h7.61s-.88 5.182-7.61 9.615Q134.694 307 129.014 307m-11.655-23.668h23.09q-.738-3.92-3.91-6.583-3.099-2.663-7.598-2.663-4.5 0-7.673 2.737-3.172 2.663-3.909 6.509M210.389 307q-2.582 0-5.016-.592a18.2 18.2 0 0 1-4.574-1.849q-2.213-1.331-3.615-3.772-1.401-2.514-1.401-5.843-.073-5.991 4.131-9.098 4.204-3.18 12.025-3.18h11.877v-2.367q0-3.254-2.656-4.881-2.656-1.702-6.861-1.702-8.04 0-9.369 5.326l-8.114.148q.147-5.843 5.09-9.246 5.016-3.402 12.246-3.402 7.303 0 12.467 3.55 5.238 3.55 5.238 9.172v27.144h-8.041v-5.917q-1.698 2.367-5.164 4.438-3.394 2.071-8.263 2.071m.664-7.027q4.869 0 8.779-3.328 3.984-3.328 3.984-7.84h-10.402q-4.795 0-7.156 1.849-2.286 1.774-1.992 4.512.222 2.514 2.213 3.698 1.992 1.11 4.574 1.109M238.016 306.408V255.3h8.484v51.108z"/><path fill="currentColor" fill-rule="evenodd" d="M153.715 255.3h22.426q7.452 0 12.394 5.103 4.942 5.03 4.942 12.204 0 7.248-4.942 12.204-4.869 4.881-12.394 4.955l-13.647.074v16.568h-8.779zm21.836 26.552-13.057.074v-18.638l13.057-.074q4.353 0 6.861 2.588 2.582 2.59 2.582 6.509 0 3.994-2.582 6.805-2.582 2.736-6.861 2.736" clip-rule="evenodd"/></svg>