<svg width="32" height="32" fill="none" viewBox="0 0 32 32" xmlns="http://www.w3.org/2000/svg"><path fill="currentColor" d="M16 0C7.16 0 0 7.16 0 16s7.16 16 16 16 16-7.16 16-16S24.84 0 16 0m7.47 25.15H8.52c-2.13 0-3.85-1.73-3.85-3.86V10.84c0-2.13 1.72-3.86 3.85-3.86h14.95c2.13 0 3.85 1.73 3.85 3.86v10.45c0 2.13-1.72 3.86-3.85 3.86"/><path fill="url(#sequencewallet__paint0_linear_1204_2498)" d="M10.33 11.52c0-.63-.51-1.14-1.13-1.14-.63 0-1.13.51-1.13 1.14s.51 1.13 1.13 1.14c.63 0 1.13-.51 1.13-1.14"/><path fill="url(#sequencewallet__paint1_linear_1204_2498)" d="M10.33 11.52c0-.63-.51-1.14-1.13-1.14-.63 0-1.13.51-1.13 1.14s.51 1.13 1.13 1.14c.63 0 1.13-.51 1.13-1.14"/><path fill="currentColor" d="M10.33 11.52c0-.63-.51-1.14-1.13-1.14-.63 0-1.13.51-1.13 1.14s.51 1.13 1.13 1.14c.63 0 1.13-.51 1.13-1.14M10.33 20.6c0-.63-.51-1.14-1.13-1.14-.63 0-1.13.51-1.13 1.14s.51 1.13 1.13 1.14c.63 0 1.13-.51 1.13-1.14M23.93 16.06c0-.63-.51-1.14-1.13-1.14-.63 0-1.13.51-1.13 1.14s.51 1.13 1.13 1.14c.63 0 1.13-.51 1.13-1.14"/><path fill="currentColor" d="M23.93 16.06c0-.63-.51-1.14-1.13-1.14-.63 0-1.13.51-1.13 1.14s.51 1.13 1.13 1.14c.63 0 1.13-.51 1.13-1.14M22.79 10.38h-9.06c-.63 0-1.13.51-1.13 1.14s.51 1.13 1.13 1.14h9.06c.63 0 1.13-.51 1.13-1.14s-.51-1.14-1.13-1.14M22.79 19.46h-9.06c-.63 0-1.13.51-1.13 1.14s.51 1.13 1.13 1.14h9.06c.63 0 1.13-.51 1.13-1.14s-.51-1.14-1.13-1.14M18.26 14.93H9.2c-.63 0-1.13.51-1.13 1.14s.51 1.13 1.13 1.14h9.06c.63 0 1.13-.51 1.13-1.14s-.51-1.14-1.13-1.14"/><defs><linearGradient id="sequencewallet__paint0_linear_1204_2498" x1="4.389" x2="26.09" y1="31.298" y2="2.202" gradientUnits="userSpaceOnUse"><stop stop-color="currentColor"/><stop offset="1" stop-color="currentColor"/></linearGradient><linearGradient id="sequencewallet__paint1_linear_1204_2498" x1="1.982" x2="29.025" y1="16.702" y2="15.273" gradientUnits="userSpaceOnUse"><stop stop-color="currentColor"/><stop offset="1" stop-color="currentColor"/></linearGradient></defs></svg>