<svg xmlns="http://www.w3.org/2000/svg" fill="none" viewBox="0 0 31 25"><g clip-path="url(#sfafn__a)"><path fill="#111" d="M0 5.208V19.3c0 2.876 2.325 5.208 5.194 5.208h20.163c2.868 0 5.194-2.332 5.194-5.208V5.208C30.55 2.332 28.224 0 25.357 0H5.194C2.325 0 0 2.332 0 5.208"/><path fill="url(#sfafn__b)" d="M0 5.208V19.3c0 2.876 2.325 5.208 5.194 5.208h20.163c2.868 0 5.194-2.332 5.194-5.208V5.208C30.55 2.332 28.224 0 25.357 0H5.194C2.325 0 0 2.332 0 5.208"/><path fill="url(#sfafn__c)" d="M7.638 6.127A1.53 1.53 0 0 0 6.11 4.595a1.53 1.53 0 0 0-1.527 1.532A1.53 1.53 0 0 0 6.11 7.659a1.53 1.53 0 0 0 1.528-1.532"/><path fill="url(#sfafn__d)" d="M7.638 6.127A1.53 1.53 0 0 0 6.11 4.595a1.53 1.53 0 0 0-1.527 1.532A1.53 1.53 0 0 0 6.11 7.659a1.53 1.53 0 0 0 1.528-1.532"/><path fill="url(#sfafn__e)" d="M7.638 6.127A1.53 1.53 0 0 0 6.11 4.595a1.53 1.53 0 0 0-1.527 1.532A1.53 1.53 0 0 0 6.11 7.659a1.53 1.53 0 0 0 1.528-1.532"/><path fill="url(#sfafn__f)" d="M7.638 18.371a1.53 1.53 0 0 0-1.528-1.532 1.53 1.53 0 0 0-1.527 1.532 1.53 1.53 0 0 0 1.527 1.532 1.53 1.53 0 0 0 1.528-1.532"/><path fill="url(#sfafn__g)" d="M25.968 12.254a1.53 1.53 0 0 0-1.528-1.532 1.53 1.53 0 0 0-1.527 1.532 1.53 1.53 0 0 0 1.527 1.532 1.53 1.53 0 0 0 1.528-1.532"/><path fill="url(#sfafn__h)" d="M25.968 12.254a1.53 1.53 0 0 0-1.528-1.532 1.53 1.53 0 0 0-1.527 1.532 1.53 1.53 0 0 0 1.527 1.532 1.53 1.53 0 0 0 1.528-1.532"/><path fill="url(#sfafn__i)" d="M24.44 4.595H12.22a1.53 1.53 0 0 0-1.527 1.532 1.53 1.53 0 0 0 1.527 1.532h12.22a1.53 1.53 0 0 0 1.528-1.532 1.53 1.53 0 0 0-1.528-1.532"/><path fill="url(#sfafn__j)" d="M24.44 16.84H12.22a1.53 1.53 0 0 0-1.527 1.531 1.53 1.53 0 0 0 1.527 1.532h12.22a1.53 1.53 0 0 0 1.528-1.532 1.53 1.53 0 0 0-1.528-1.532Z"/><path fill="url(#sfafn__k)" d="M18.33 10.722H6.11a1.53 1.53 0 0 0-1.527 1.532 1.53 1.53 0 0 0 1.527 1.532h12.22a1.53 1.53 0 0 0 1.528-1.532 1.53 1.53 0 0 0-1.528-1.532"/></g><defs><linearGradient id="sfafn__b" x1="15.275" x2="15.275" y1="0" y2="24.533" gradientUnits="userSpaceOnUse"><stop stop-color="currentColor"/><stop offset="1" stop-color="currentColor"/></linearGradient><linearGradient id="sfafn__c" x1="5.053" x2="7.136" y1="7.638" y2="4.86" gradientUnits="userSpaceOnUse"><stop stop-color="currentColor"/><stop offset="1" stop-color="currentColor"/></linearGradient><linearGradient id="sfafn__d" x1="4.851" x2="7.417" y1="7.66" y2="7.529" gradientUnits="userSpaceOnUse"><stop stop-color="currentColor"/><stop offset="1" stop-color="currentColor"/></linearGradient><linearGradient id="sfafn__e" x1="4.851" x2="7.417" y1="7.66" y2="7.529" gradientUnits="userSpaceOnUse"><stop stop-color="currentColor"/><stop offset="1" stop-color="currentColor"/></linearGradient><linearGradient id="sfafn__f" x1="5.015" x2="7.059" y1="19.403" y2="17.243" gradientUnits="userSpaceOnUse"><stop stop-color="currentColor"/><stop offset="1" stop-color="currentColor"/></linearGradient><linearGradient id="sfafn__g" x1="23.53" x2="25.42" y1="13.269" y2="11.264" gradientUnits="userSpaceOnUse"><stop stop-color="currentColor"/><stop offset="1" stop-color="currentColor"/></linearGradient><linearGradient id="sfafn__h" x1="23.158" x2="25.811" y1="13.764" y2="13.638" gradientUnits="userSpaceOnUse"><stop stop-color="currentColor"/><stop offset="1" stop-color="currentColor"/></linearGradient><linearGradient id="sfafn__i" x1="11.919" x2="24.494" y1="7.638" y2="4.629" gradientUnits="userSpaceOnUse"><stop stop-color="currentColor"/><stop offset="1" stop-color="currentColor"/></linearGradient><linearGradient id="sfafn__j" x1="12.035" x2="24.109" y1="19.904" y2="16.818" gradientUnits="userSpaceOnUse"><stop stop-color="currentColor"/><stop offset="1" stop-color="currentColor"/></linearGradient><linearGradient id="sfafn__k" x1="6.635" x2="18.168" y1="13.809" y2="10.723" gradientUnits="userSpaceOnUse"><stop stop-color="currentColor"/><stop offset="1" stop-color="currentColor"/></linearGradient><clipPath id="sfafn__a"><path fill="#fff" d="M0 0h30.55v24.508H0z"/></clipPath></defs></svg>