<svg xmlns="http://www.w3.org/2000/svg" width="33" height="33" fill="none"><path fill="currentColor" d="M13.6 17.27h-.87l-2.87 4.02h3.74c1.11 0 2.01-.91 2.01-2.02s-.9-2-2.01-2.01zM11.93 15.7l2.87-4.02h-3.67c-1.11 0-2.01.91-2.01 2.02s.9 2 2.01 2.01h.79z"/><path fill="currentColor" d="M16.09.22c-8.84 0-16 7.16-16 16s7.16 16 16 16 16-7.16 16-16-7.16-16-16-16M13.6 22.87H8.35c-.44 0-.78-.36-.78-.8 0-.16.06-.3.15-.42l-.02-.02 3.14-4.39c-1.83-.16-3.28-1.68-3.28-3.56 0-1.98 1.61-3.59 3.59-3.59h5.25c.44 0 .78.36.78.8 0 .25-.13.46-.31.6l-3.01 4.22c1.87.13 3.35 1.66 3.35 3.56s-1.61 3.59-3.59 3.59zm9.78-.39h-4.91v-3.39h.91v2.2h1.04v-1.86h.88v1.86h1.17v-2.2h.91v3.39m0-5.12h-3.99v1.45h-.91v-4.1h.91v1.47h3.99zm0-6.09h-2.05v1.74h2.05v1.18h-4.91v-1.18h1.95v-1.74h-1.95v-1.18h4.91z"/></svg>