<svg width="32" height="32" fill="none" viewBox="0 0 32 32" xmlns="http://www.w3.org/2000/svg"><path fill="currentColor" fill-rule="evenodd" d="m31.951 17.257-1.994-.155a14 14 0 0 0 0-2.204l1.994-.155a16 16 0 0 1 0 2.514m-.39-4.994-1.945.466q-.26-1.08-.677-2.087l1.847-.767q.478 1.154.775 2.388M29.644 7.64 27.94 8.686a14 14 0 0 0-1.293-1.778l1.52-1.3a16 16 0 0 1 1.477 2.031m-3.253-3.806-1.3 1.52a14 14 0 0 0-1.777-1.293l1.047-1.704q1.076.661 2.03 1.477m-4.266-2.619-.767 1.848a14 14 0 0 0-2.087-.678l.466-1.945c.822.196 1.62.457 2.388.775M17.257.05l-.155 1.994a14 14 0 0 0-2.204 0L14.743.049a16 16 0 0 1 2.514 0m-4.994.39.466 1.945q-1.08.26-2.087.678l-.767-1.848A16 16 0 0 1 12.263.44M7.64 2.356 8.686 4.06a14 14 0 0 0-1.778 1.293l-1.3-1.52A16 16 0 0 1 7.64 2.356M3.833 5.609l1.52 1.3A14 14 0 0 0 4.06 8.685L2.356 7.639q.661-1.076 1.477-2.03M1.214 9.875l1.848.767a14 14 0 0 0-.678 2.087l-1.945-.466c.196-.822.457-1.62.775-2.388M.05 14.743a16 16 0 0 0 0 2.514l1.994-.155a14 14 0 0 1 0-2.204zm.39 4.994 1.945-.466q.26 1.08.678 2.087l-1.848.767a16 16 0 0 1-.775-2.388m1.917 4.624 1.704-1.047q.579.941 1.293 1.778l-1.52 1.3a16 16 0 0 1-1.477-2.031m3.253 3.806 1.3-1.52q.835.714 1.777 1.293l-1.047 1.704a16 16 0 0 1-2.03-1.477m4.266 2.619.767-1.848q1.007.42 2.087.678l-.466 1.945a16 16 0 0 1-2.388-.775m4.868 1.165.155-1.994a14 14 0 0 0 2.204 0l.155 1.994a16 16 0 0 1-2.514 0m4.994-.39-.466-1.945q1.08-.26 2.087-.677l.767 1.847a16 16 0 0 1-2.388.775m4.624-1.917-1.047-1.704q.941-.579 1.778-1.293l1.3 1.52a16 16 0 0 1-2.031 1.477m3.806-3.253-1.52-1.3a14 14 0 0 0 1.293-1.777l1.704 1.047q-.661 1.076-1.477 2.03m2.619-4.266-1.848-.767q.42-1.007.678-2.087l1.945.466a16 16 0 0 1-.775 2.388" clip-rule="evenodd"/><g clip-path="url(#stataceur__circleClip)"><g style="transform:scale(.8125);transform-origin:50% 50%"><path fill="currentColor" fill-rule="evenodd" d="M20.205 6.149c-1.61.477-3.025 1.652-3.669 3.047l-.352.764h-1.566l-.174.612-.174.613.811.064.811.064.017.742.016.741h-1.304l-.138.524c-.075.288-.168.607-.205.709-.057.152.114.185.942.185h1.01l.323.702c.416.906 1.236 1.834 2.08 2.355 1.59.98 3.919 1.09 5.761.274l.606-.268v-.962c0-.53-.042-.94-.094-.913-1.775.922-1.808.932-3.048.936-1.13.003-1.252-.023-2.058-.448-.63-.331-.97-.614-1.282-1.063l-.426-.613h4.771l.192-.668c.106-.367.193-.715.193-.773s-1.27-.106-2.824-.106h-2.823l.038-.612.038-.613 3.02-.034 3.02-.035.183-.674.182-.675-2.983-.034c-1.64-.02-2.983-.064-2.983-.1 0-.035.148-.295.328-.576.377-.587 1.24-1.219 1.98-1.45.85-.267 2.39-.182 3.34.185l.828.32.204-.667c.308-1.005.294-1.038-.578-1.354-.994-.36-3.115-.465-4.014-.2m-8.911 4.285c-1.13.596-2.716 2.217-3.307 3.38-.963 1.893-1.222 3.81-.774 5.734.388 1.669.997 2.783 2.197 4.02C11.088 25.294 12.721 26 15.05 26c1.568 0 2.364-.198 3.755-.933 1.194-.63 2.726-2.21 3.354-3.459.255-.506.464-.956.464-.999s-.494-.078-1.098-.078h-1.098l-.243.465c-.704 1.346-2.564 2.61-4.244 2.886-3.904.64-7.455-3.018-6.834-7.04.268-1.73 1.495-3.645 2.801-4.37l.452-.25V11.09c0-.622-.043-1.128-.094-1.125-.052.004-.488.214-.97.468" clip-rule="evenodd"/></g></g><defs><clipPath id="stataceur__circleClip"><circle cx="16" cy="16" r="13"/></clipPath></defs></svg>