<svg xmlns="http://www.w3.org/2000/svg" width="32" height="32" fill="none" viewBox="0 0 32 32"><path fill="currentColor" fill-rule="evenodd" d="m31.951 17.257-1.994-.155a14 14 0 0 0 0-2.204l1.994-.155a16 16 0 0 1 0 2.514m-.39-4.994-1.945.466q-.26-1.08-.677-2.087l1.847-.767q.478 1.154.775 2.388M29.644 7.64 27.94 8.686a14 14 0 0 0-1.293-1.778l1.52-1.3a16 16 0 0 1 1.477 2.031m-3.253-3.806-1.3 1.52a14 14 0 0 0-1.777-1.293l1.047-1.704q1.076.661 2.03 1.477m-4.266-2.619-.767 1.848a14 14 0 0 0-2.087-.678l.466-1.945c.822.196 1.62.457 2.388.775M17.257.05l-.155 1.994a14 14 0 0 0-2.204 0L14.743.049a16 16 0 0 1 2.514 0m-4.994.39.466 1.945q-1.08.26-2.087.678l-.767-1.848A16 16 0 0 1 12.263.44M7.64 2.356 8.686 4.06a14 14 0 0 0-1.778 1.293l-1.3-1.52A16 16 0 0 1 7.64 2.356M3.833 5.609l1.52 1.3A14 14 0 0 0 4.06 8.685L2.356 7.639q.661-1.076 1.477-2.03M1.214 9.875l1.848.767a14 14 0 0 0-.678 2.087l-1.945-.466c.196-.822.457-1.62.775-2.388M.05 14.743a16 16 0 0 0 0 2.514l1.994-.155a14 14 0 0 1 0-2.204zm.39 4.994 1.945-.466q.26 1.08.678 2.087l-1.848.767a16 16 0 0 1-.775-2.388m1.917 4.624 1.704-1.047q.579.941 1.293 1.778l-1.52 1.3a16 16 0 0 1-1.477-2.031m3.253 3.806 1.3-1.52q.835.714 1.777 1.293l-1.047 1.704a16 16 0 0 1-2.03-1.477m4.266 2.619.767-1.848q1.007.42 2.087.678l-.466 1.945a16 16 0 0 1-2.388-.775m4.868 1.165.155-1.994a14 14 0 0 0 2.204 0l.155 1.994a16 16 0 0 1-2.514 0m4.994-.39-.466-1.945q1.08-.26 2.087-.677l.767 1.847a16 16 0 0 1-2.388.775m4.624-1.917-1.047-1.704q.941-.579 1.778-1.293l1.3 1.52a16 16 0 0 1-2.031 1.477m3.806-3.253-1.52-1.3a14 14 0 0 0 1.293-1.777l1.704 1.047q-.661 1.076-1.477 2.03m2.619-4.266-1.848-.767q.42-1.007.678-2.087l1.945.466a16 16 0 0 1-.775 2.388" clip-rule="evenodd"/><g clip-path="url(#n45jc__circleClip)"><g style="transform:scale(.8125);transform-origin:50% 50%"><g fill="currentColor" clip-path="url(#n45jc__u24cp__clip0_298_798)"><path d="M15.09 4.92 9.21 8.53l2.68 1.61zm-3.53 5.75L8.92 9.08v5.9zm-2.64 8.04v4.22l2.13-1.29zM22.77 8.47l-5.93-3.62 3.23 5.25zm-6.78 11.16 6.87-3.78-6.87-11.21-6.88 11.21zm7.07-4.65V9.02l-2.67 1.61zM9.21 23.49l5.75 3.53-3.54-4.87c-.59.36-2.22 1.34-2.22 1.34z"/><path d="M16.14 22.3a.29.29 0 0 1-.31 0l-6.11-3.54 6.26 8.62 6.21-8.59zm4.79-.7 2.13 1.28v-4.23z"/><path d="M16 0C7.16 0 0 7.17 0 16s7.16 16 16 16 16-7.16 16-16S24.84 0 16 0m0 31.14C7.65 31.14.86 24.35.86 16.01S7.65.88 16 .88s15.13 6.79 15.13 15.13S24.34 31.14 16 31.14"/><path d="M16 1.62C8.07 1.62 1.61 8.07 1.61 16S8.06 30.38 16 30.38 30.38 23.93 30.38 16 23.93 1.62 16 1.62M8.3 8.63v-.05c-.02-.13.04-.25.14-.32l7.41-4.55c.1-.06.22-.06.32 0l7.35 4.49c.09.06.15.16.15.27v7.45c0 .13-.08.24-.2.29l-7.35 4.04c-.09.05-.21.05-.3 0l-7.24-3.98c-.17 0-.3-.14-.3-.31V8.63zm15.38 14.76c.02.12-.04.24-.14.31l-7.41 4.57c-.1.06-.23.06-.33 0l-7.35-4.51a.32.32 0 0 1-.15-.29v-5.69c-.01-.17.12-.32.29-.33.06 0 .12.01.18.04l7.22 4.19 7.16-4.15.04-.02c.05-.04.12-.06.19-.06.17 0 .31.14.31.31v5.63z"/><path d="m17.06 26.96 5.71-3.53-2.2-1.33z"/></g><defs><clipPath id="n45jc__u24cp__clip0_298_798"><path fill="#fff" d="M0 0h32v32H0z"/></clipPath></defs></g></g><defs><clipPath id="n45jc__circleClip"><circle cx="16" cy="16" r="13"/></clipPath></defs></svg>