<svg width="32" height="32" fill="none" viewBox="0 0 32 32" xmlns="http://www.w3.org/2000/svg"><path fill="currentColor" fill-rule="evenodd" d="m31.951 17.257-1.994-.155a14 14 0 0 0 0-2.204l1.994-.155a16 16 0 0 1 0 2.514m-.39-4.994-1.945.466q-.26-1.08-.677-2.087l1.847-.767q.478 1.154.775 2.388M29.644 7.64 27.94 8.686a14 14 0 0 0-1.293-1.778l1.52-1.3a16 16 0 0 1 1.477 2.031m-3.253-3.806-1.3 1.52a14 14 0 0 0-1.777-1.293l1.047-1.704q1.076.661 2.03 1.477m-4.266-2.619-.767 1.848a14 14 0 0 0-2.087-.678l.466-1.945c.822.196 1.62.457 2.388.775M17.257.05l-.155 1.994a14 14 0 0 0-2.204 0L14.743.049a16 16 0 0 1 2.514 0m-4.994.39.466 1.945q-1.08.26-2.087.678l-.767-1.848A16 16 0 0 1 12.263.44M7.64 2.356 8.686 4.06a14 14 0 0 0-1.778 1.293l-1.3-1.52A16 16 0 0 1 7.64 2.356M3.833 5.609l1.52 1.3A14 14 0 0 0 4.06 8.685L2.356 7.639q.661-1.076 1.477-2.03M1.214 9.875l1.848.767a14 14 0 0 0-.678 2.087l-1.945-.466c.196-.822.457-1.62.775-2.388M.05 14.743a16 16 0 0 0 0 2.514l1.994-.155a14 14 0 0 1 0-2.204zm.39 4.994 1.945-.466q.26 1.08.678 2.087l-1.848.767a16 16 0 0 1-.775-2.388m1.917 4.624 1.704-1.047q.579.941 1.293 1.778l-1.52 1.3a16 16 0 0 1-1.477-2.031m3.253 3.806 1.3-1.52q.835.714 1.777 1.293l-1.047 1.704a16 16 0 0 1-2.03-1.477m4.266 2.619.767-1.848q1.007.42 2.087.678l-.466 1.945a16 16 0 0 1-2.388-.775m4.868 1.165.155-1.994a14 14 0 0 0 2.204 0l.155 1.994a16 16 0 0 1-2.514 0m4.994-.39-.466-1.945q1.08-.26 2.087-.677l.767 1.847a16 16 0 0 1-2.388.775m4.624-1.917-1.047-1.704q.941-.579 1.778-1.293l1.3 1.52a16 16 0 0 1-2.031 1.477m3.806-3.253-1.52-1.3a14 14 0 0 0 1.293-1.777l1.704 1.047q-.661 1.076-1.477 2.03m2.619-4.266-1.848-.767q.42-1.007.678-2.087l1.945.466a16 16 0 0 1-.775 2.388" clip-rule="evenodd"/><g clip-path="url(#statalbtc__circleClip)"><g fill="currentColor" style="transform:scale(.8125);transform-origin:50% 50%"><path d="M15.31 14.96c1.45.02 4.62.08 4.62-2.09 0-2.21-3.05-2.14-4.54-2.1h-.1c-.19 0-.34.16-.34.35v3.48c0 .19.15.35.35.35zm.17 2.09h-.17c-.19 0-.34.16-.34.35v3.9c0 .19.15.35.35.35h.07c1.74.02 5.55.08 5.55-2.3 0-2.44-3.66-2.35-5.45-2.31zm-.57 10.06h1.7V24.2c-.55 0-1.12 0-1.7-.02zm-2.12-2.96c-.5 0-2.79-.01-4.22-.01v-1.25H1.58c.75 1.56 1.73 2.99 2.92 4.22h8.29zm-1.52-2.63V10.51H8.72v-.32H1.11C.4 12 0 13.96 0 16.02c0 2.28.49 4.44 1.35 6.4h7.22v-.9zM8.73 8.4h4.06V5.49H3.97C2.87 6.74 1.96 8.16 1.3 9.71h7.43zm7.89-.1.02-2.82h-1.72v2.84a98 98 0 0 1 1.7-.02"/><path d="M16 .01c-4.57 0-8.69 1.92-11.61 5h14.38l-.03 3.38c2.75.24 4.92 1.07 5.16 3.54.18 1.81-.59 2.9-1.83 3.52 2.03.48 3.3 1.67 3.05 4.32-.31 3.3-2.81 4.18-6.39 4.38v3.43H4.98C7.85 30.31 11.73 32 16 32c8.84 0 16-7.16 16-16S24.84 0 16 0z"/></g></g><defs><clipPath id="statalbtc__circleClip"><circle cx="16" cy="16" r="13"/></clipPath></defs></svg>