<svg xmlns="http://www.w3.org/2000/svg" width="32" height="32" fill="none" viewBox="0 0 32 32"><path fill="currentColor" fill-rule="evenodd" d="m31.951 17.257-1.994-.155a14 14 0 0 0 0-2.204l1.994-.155a16 16 0 0 1 0 2.514m-.39-4.994-1.945.466q-.26-1.08-.677-2.087l1.847-.767q.478 1.154.775 2.388M29.644 7.64 27.94 8.686a14 14 0 0 0-1.293-1.778l1.52-1.3a16 16 0 0 1 1.477 2.031m-3.253-3.806-1.3 1.52a14 14 0 0 0-1.777-1.293l1.047-1.704q1.076.661 2.03 1.477m-4.266-2.619-.767 1.848a14 14 0 0 0-2.087-.678l.466-1.945c.822.196 1.62.457 2.388.775M17.257.05l-.155 1.994a14 14 0 0 0-2.204 0L14.743.049a16 16 0 0 1 2.514 0m-4.994.39.466 1.945q-1.08.26-2.087.678l-.767-1.848A16 16 0 0 1 12.263.44M7.64 2.356 8.686 4.06a14 14 0 0 0-1.778 1.293l-1.3-1.52A16 16 0 0 1 7.64 2.356M3.833 5.609l1.52 1.3A14 14 0 0 0 4.06 8.685L2.356 7.639q.661-1.076 1.477-2.03M1.214 9.875l1.848.767a14 14 0 0 0-.678 2.087l-1.945-.466c.196-.822.457-1.62.775-2.388M.05 14.743a16 16 0 0 0 0 2.514l1.994-.155a14 14 0 0 1 0-2.204zm.39 4.994 1.945-.466q.26 1.08.678 2.087l-1.848.767a16 16 0 0 1-.775-2.388m1.917 4.624 1.704-1.047q.579.941 1.293 1.778l-1.52 1.3a16 16 0 0 1-1.477-2.031m3.253 3.806 1.3-1.52q.835.714 1.777 1.293l-1.047 1.704a16 16 0 0 1-2.03-1.477m4.266 2.619.767-1.848q1.007.42 2.087.678l-.466 1.945a16 16 0 0 1-2.388-.775m4.868 1.165.155-1.994a14 14 0 0 0 2.204 0l.155 1.994a16 16 0 0 1-2.514 0m4.994-.39-.466-1.945q1.08-.26 2.087-.677l.767 1.847a16 16 0 0 1-2.388.775m4.624-1.917-1.047-1.704q.941-.579 1.778-1.293l1.3 1.52a16 16 0 0 1-2.031 1.477m3.806-3.253-1.52-1.3a14 14 0 0 0 1.293-1.777l1.704 1.047q-.661 1.076-1.477 2.03m2.619-4.266-1.848-.767q.42-1.007.678-2.087l1.945.466a16 16 0 0 1-.775 2.388" clip-rule="evenodd"/><g clip-path="url(#2bw4dh__circleClip)"><g style="transform:scale(.8125);transform-origin:50% 50%"><g fill="currentColor" clip-path="url(#2bw4dh__pkdufk__clip0_97_2732)"><path d="M16 0C7.16 0 0 7.16 0 16s7.16 16 16 16 16-7.16 16-16S24.84 0 16 0m7.34 24.53c-1.75 1.34-4.26 2.09-7.37 2.09h-.02c-3.11 0-5.62-.75-7.37-2.09-1.77-1.36-2.71-3.29-2.71-5.47s.94-3.62 2-4.64c.83-.8 1.75-1.32 2.39-1.61-.18-.54-.34-1.08-.49-1.63-.22-.8-.43-1.75-.43-2.44 0-.82.18-1.64.66-2.28.51-.67 1.27-1.03 2.19-1.03.72 0 1.33.27 1.81.73.46.44.76 1.02.97 1.63.37 1.07.51 2.41.55 3.75h.88c.04-1.34.18-2.68.55-3.75.21-.61.51-1.19.97-1.63.48-.46 1.09-.73 1.81-.73.92 0 1.68.36 2.19 1.03.48.64.66 1.46.66 2.28 0 .69-.21 1.63-.43 2.44-.15.55-.31 1.09-.49 1.63.64.3 1.56.81 2.39 1.61 1.06 1.02 2 2.54 2 4.64s-.94 4.11-2.71 5.47"/><path d="M25.16 19.27c0-.11.02-.21.02-.32 0-3.61-3.19-5.18-4.26-5.61a.404.404 0 0 1-.23-.49c.3-.87 1.02-3.1 1.02-4.22 0-1.4-.62-2.42-1.97-2.42-1.94 0-2.42 2.77-2.46 5.75 0 .2-.16.36-.36.36h-1.91c-.2 0-.36-.16-.36-.36-.03-2.98-.52-5.75-2.46-5.75-1.35 0-1.97 1.01-1.97 2.42 0 1.12.72 3.35 1.02 4.22.06.2-.04.41-.23.49-1.08.43-4.26 2-4.26 5.61v.02c0 3.82 3.24 6.68 9.22 6.68s9.22-2.86 9.22-6.67c0 .09-.02.2-.03.3zm-12.71.32c-.6 0-1.08-.54-1.08-1.58s.48-1.58 1.08-1.58 1.08.54 1.08 1.58-.48 1.58-1.08 1.58m8.12-1.58c0 1.04-.49 1.58-1.08 1.58s-1.08-.54-1.08-1.58.48-1.58 1.08-1.58 1.08.54 1.08 1.58"/></g><defs><clipPath id="2bw4dh__pkdufk__clip0_97_2732"><path fill="#fff" d="M0 0h32v32H0z"/></clipPath></defs></g></g><defs><clipPath id="2bw4dh__circleClip"><circle cx="16" cy="16" r="13"/></clipPath></defs></svg>