<svg xmlns="http://www.w3.org/2000/svg" width="32" height="32" fill="none" viewBox="0 0 32 32"><path fill="currentColor" fill-rule="evenodd" d="m31.951 17.257-1.994-.155a14 14 0 0 0 0-2.204l1.994-.155a16 16 0 0 1 0 2.514m-.39-4.994-1.945.466q-.26-1.08-.677-2.087l1.847-.767q.478 1.154.775 2.388M29.644 7.64 27.94 8.686a14 14 0 0 0-1.293-1.778l1.52-1.3a16 16 0 0 1 1.477 2.031m-3.253-3.806-1.3 1.52a14 14 0 0 0-1.777-1.293l1.047-1.704q1.076.661 2.03 1.477m-4.266-2.619-.767 1.848a14 14 0 0 0-2.087-.678l.466-1.945c.822.196 1.62.457 2.388.775M17.257.05l-.155 1.994a14 14 0 0 0-2.204 0L14.743.049a16 16 0 0 1 2.514 0m-4.994.39.466 1.945q-1.08.26-2.087.678l-.767-1.848A16 16 0 0 1 12.263.44M7.64 2.356 8.686 4.06a14 14 0 0 0-1.778 1.293l-1.3-1.52A16 16 0 0 1 7.64 2.356M3.833 5.609l1.52 1.3A14 14 0 0 0 4.06 8.685L2.356 7.639q.661-1.076 1.477-2.03M1.214 9.875l1.848.767a14 14 0 0 0-.678 2.087l-1.945-.466c.196-.822.457-1.62.775-2.388M.05 14.743a16 16 0 0 0 0 2.514l1.994-.155a14 14 0 0 1 0-2.204zm.39 4.994 1.945-.466q.26 1.08.678 2.087l-1.848.767a16 16 0 0 1-.775-2.388m1.917 4.624 1.704-1.047q.579.941 1.293 1.778l-1.52 1.3a16 16 0 0 1-1.477-2.031m3.253 3.806 1.3-1.52q.835.714 1.777 1.293l-1.047 1.704a16 16 0 0 1-2.03-1.477m4.266 2.619.767-1.848q1.007.42 2.087.678l-.466 1.945a16 16 0 0 1-2.388-.775m4.868 1.165.155-1.994a14 14 0 0 0 2.204 0l.155 1.994a16 16 0 0 1-2.514 0m4.994-.39-.466-1.945q1.08-.26 2.087-.677l.767 1.847a16 16 0 0 1-2.388.775m4.624-1.917-1.047-1.704q.941-.579 1.778-1.293l1.3 1.52a16 16 0 0 1-2.031 1.477m3.806-3.253-1.52-1.3a14 14 0 0 0 1.293-1.777l1.704 1.047q-.661 1.076-1.477 2.03m2.619-4.266-1.848-.767q.42-1.007.678-2.087l1.945.466a16 16 0 0 1-.775 2.388" clip-rule="evenodd"/><g clip-path="url(#p96po__circleClip)"><g style="transform:scale(.8125);transform-origin:50% 50%"><g fill="currentColor" clip-path="url(#p96po__mcu8w__clip0_298_628)"><path d="m17.03 16.9-.27-.05v2.98q.75-.135 1.17-.54c.28-.29.42-.65.42-1.09 0-.41-.13-.7-.4-.9s-.57-.34-.91-.4zm-3.06-3.4c0 .37.1.66.3.85.21.18.49.3.83.35l.48.08v-2.82c-.45.06-.83.23-1.15.5-.31.26-.46.6-.46 1.04"/><path d="M16 0C7.16 0 0 7.16 0 16s7.16 16 16 16 16-7.16 16-16S24.84 0 16 0m.01 29.87C8.35 29.87 2.14 23.66 2.14 16S8.35 2.13 16.01 2.13 29.88 8.34 29.88 16s-6.21 13.87-13.87 13.87"/><path d="M16.01 3.73C9.24 3.73 3.74 9.22 3.74 16s5.49 12.27 12.27 12.27S28.28 22.78 28.28 16 22.79 3.73 16.01 3.73m4 15.69c-.17.38-.42.73-.74 1.02-.31.29-.68.53-1.12.72-.43.18-.89.3-1.39.35v1.65h-1.17v-1.63a5 5 0 0 1-1.5-.35c-.47-.2-.87-.46-1.22-.78a4 4 0 0 1-.82-1.1c-.2-.42-.31-.87-.32-1.36h1.97c.02.52.2.96.54 1.31.35.34.8.54 1.34.59v-3.17l-.75-.11c-.86-.12-1.55-.44-2.06-.98-.5-.53-.75-1.21-.75-2.03 0-.43.1-.83.29-1.2.19-.38.45-.72.78-1.01q.495-.45 1.14-.72c.43-.18.89-.29 1.36-.34V8.79h1.17v1.52c.48.06.92.19 1.33.38.41.18.76.42 1.06.7.3.29.53.62.7.99q.27.555.3 1.2h-1.97c-.02-.38-.17-.71-.43-.99-.26-.29-.59-.49-.99-.59v2.93l.54.08c.41.06.79.18 1.15.34s.68.37.94.62c.28.26.49.57.64.93q.24.525.24 1.2c0 .48-.09.92-.27 1.31z"/></g><defs><clipPath id="p96po__mcu8w__clip0_298_628"><path fill="#fff" d="M0 0h32v32H0z"/></clipPath></defs></g></g><defs><clipPath id="p96po__circleClip"><circle cx="16" cy="16" r="13"/></clipPath></defs></svg>