<svg xmlns="http://www.w3.org/2000/svg" fill="none" viewBox="0 0 32 32"><path fill="currentColor" fill-rule="evenodd" d="m31.951 17.257-1.994-.155a14 14 0 0 0 0-2.204l1.994-.155a16 16 0 0 1 0 2.514m-.39-4.994-1.945.466q-.26-1.08-.677-2.087l1.847-.767q.478 1.154.775 2.388M29.644 7.64 27.94 8.686a14 14 0 0 0-1.293-1.778l1.52-1.3a16 16 0 0 1 1.477 2.031m-3.253-3.806-1.3 1.52a14 14 0 0 0-1.777-1.293l1.047-1.704q1.076.661 2.03 1.477m-4.266-2.619-.767 1.848a14 14 0 0 0-2.087-.678l.466-1.945c.822.196 1.62.457 2.388.775M17.257.05l-.155 1.994a14 14 0 0 0-2.204 0L14.743.049a16 16 0 0 1 2.514 0m-4.994.39.466 1.945q-1.08.26-2.087.678l-.767-1.848A16 16 0 0 1 12.263.44M7.64 2.356 8.686 4.06a14 14 0 0 0-1.778 1.293l-1.3-1.52A16 16 0 0 1 7.64 2.356M3.833 5.609l1.52 1.3A14 14 0 0 0 4.06 8.685L2.356 7.639q.661-1.076 1.477-2.03M1.214 9.875l1.848.767a14 14 0 0 0-.678 2.087l-1.945-.466c.196-.822.457-1.62.775-2.388M.05 14.743a16 16 0 0 0 0 2.514l1.994-.155a14 14 0 0 1 0-2.204zm.39 4.994 1.945-.466q.26 1.08.678 2.087l-1.848.767a16 16 0 0 1-.775-2.388m1.917 4.624 1.704-1.047q.579.941 1.293 1.778l-1.52 1.3a16 16 0 0 1-1.477-2.031m3.253 3.806 1.3-1.52q.835.714 1.777 1.293l-1.047 1.704a16 16 0 0 1-2.03-1.477m4.266 2.619.767-1.848q1.007.42 2.087.678l-.466 1.945a16 16 0 0 1-2.388-.775m4.868 1.165.155-1.994a14 14 0 0 0 2.204 0l.155 1.994a16 16 0 0 1-2.514 0m4.994-.39-.466-1.945q1.08-.26 2.087-.677l.767 1.847a16 16 0 0 1-2.388.775m4.624-1.917-1.047-1.704q.941-.579 1.778-1.293l1.3 1.52a16 16 0 0 1-2.031 1.477m3.806-3.253-1.52-1.3a14 14 0 0 0 1.293-1.777l1.704 1.047q-.661 1.076-1.477 2.03m2.619-4.266-1.848-.767q.42-1.007.678-2.087l1.945.466a16 16 0 0 1-.775 2.388" clip-rule="evenodd"/><g clip-path="url(#statasnx__circleClip)"><g style="transform:scale(.8125);transform-origin:50% 50%"><g clip-path="url(#statasnx__synthetixnetworktoken__clip0_298_405)"><path fill="currentColor" d="M16 0C7.16 0 0 7.16 0 16s7.16 16 16 16 16-7.16 16-16S24.84 0 16 0M5.8 8.78s.01-.06.04-.08c.02-.02.06-.04.09-.04h4.52c1.14 0 2.12.47 2.95 1.4l1.1 1.34-2.14 2.61-1.62-1.99a.64.64 0 0 0-.53-.24H5.94s-.07-.01-.09-.04c-.02-.02-.04-.05-.04-.08V8.78zm20.4 14.17s-.01.06-.03.08-.05.04-.09.04h-4.5c-1.15 0-2.13-.47-2.95-1.4l-2.62-3.2-2.62 3.2c-.83.93-1.81 1.4-2.96 1.4h-4.5s-.06-.01-.09-.04a.16.16 0 0 1-.03-.09v-2.88s0-.06.03-.08c.02-.03.05-.04.09-.04h4.27c.2 0 .4-.09.53-.24l3.09-3.77 4.8-5.87c.83-.92 1.81-1.38 2.96-1.38h4.5s.06 0 .09.03c.02.02.03.06.03.09v2.88s-.01.06-.03.08-.05.04-.09.04h-4.27c-.2 0-.4.09-.53.24l-3.15 3.83 3.16 3.86c.13.15.32.23.51.23h4.27s.06.01.09.04q.03.045.03.09v2.88z"/></g><defs><clipPath id="statasnx__synthetixnetworktoken__clip0_298_405"><path fill="#fff" d="M0 0h32v32H0z"/></clipPath></defs></g></g><defs><clipPath id="statasnx__circleClip"><circle cx="16" cy="16" r="13"/></clipPath></defs></svg>