<svg xmlns="http://www.w3.org/2000/svg" width="32" height="32" fill="none" viewBox="0 0 32 32"><path fill="currentColor" fill-rule="evenodd" d="m31.951 17.257-1.994-.155a14 14 0 0 0 0-2.204l1.994-.155a16 16 0 0 1 0 2.514m-.39-4.994-1.945.466q-.26-1.08-.677-2.087l1.847-.767q.478 1.154.775 2.388M29.644 7.64 27.94 8.686a14 14 0 0 0-1.293-1.778l1.52-1.3a16 16 0 0 1 1.477 2.031m-3.253-3.806-1.3 1.52a14 14 0 0 0-1.777-1.293l1.047-1.704q1.076.661 2.03 1.477m-4.266-2.619-.767 1.848a14 14 0 0 0-2.087-.678l.466-1.945c.822.196 1.62.457 2.388.775M17.257.05l-.155 1.994a14 14 0 0 0-2.204 0L14.743.049a16 16 0 0 1 2.514 0m-4.994.39.466 1.945q-1.08.26-2.087.678l-.767-1.848A16 16 0 0 1 12.263.44M7.64 2.356 8.686 4.06a14 14 0 0 0-1.778 1.293l-1.3-1.52A16 16 0 0 1 7.64 2.356M3.833 5.609l1.52 1.3A14 14 0 0 0 4.06 8.685L2.356 7.639q.661-1.076 1.477-2.03M1.214 9.875l1.848.767a14 14 0 0 0-.678 2.087l-1.945-.466c.196-.822.457-1.62.775-2.388M.05 14.743a16 16 0 0 0 0 2.514l1.994-.155a14 14 0 0 1 0-2.204zm.39 4.994 1.945-.466q.26 1.08.678 2.087l-1.848.767a16 16 0 0 1-.775-2.388m1.917 4.624 1.704-1.047q.579.941 1.293 1.778l-1.52 1.3a16 16 0 0 1-1.477-2.031m3.253 3.806 1.3-1.52q.835.714 1.777 1.293l-1.047 1.704a16 16 0 0 1-2.03-1.477m4.266 2.619.767-1.848q1.007.42 2.087.678l-.466 1.945a16 16 0 0 1-2.388-.775m4.868 1.165.155-1.994a14 14 0 0 0 2.204 0l.155 1.994a16 16 0 0 1-2.514 0m4.994-.39-.466-1.945q1.08-.26 2.087-.677l.767 1.847a16 16 0 0 1-2.388.775m4.624-1.917-1.047-1.704q.941-.579 1.778-1.293l1.3 1.52a16 16 0 0 1-2.031 1.477m3.806-3.253-1.52-1.3a14 14 0 0 0 1.293-1.777l1.704 1.047q-.661 1.076-1.477 2.03m2.619-4.266-1.848-.767q.42-1.007.678-2.087l1.945.466a16 16 0 0 1-.775 2.388" clip-rule="evenodd"/><g clip-path="url(#6lv7u__circleClip)"><g style="transform:scale(.8125);transform-origin:50% 50%"><path fill="currentColor" d="M16 0C7.16 0 0 7.16 0 16s7.16 16 16 16 16-7.16 16-16S24.84 0 16 0m8.52 23.76V24c-.02 0-.04 0-.07.01h-6.42s-.01-.03-.02-.04v-.69c.05-.02.11-.03.16-.03.26-.04.53-.09.78-.15.1-.03.21-.06.3-.11.05-.02.1-.05.15-.07.24-.12.37-.38.33-.65-.01-.13-.03-.26-.07-.38a5 5 0 0 0-.19-.57c-1.33-3.72-2.65-7.44-3.95-11.16 0-.05-.03-.09-.06-.12-.01 0-.03.02-.04.02-.01.02-.02.04-.02.06-.64 1.83-1.32 3.65-1.99 5.46-.5 1.34-1 2.69-1.46 4.05-.19.54-.37 1.09-.54 1.64-.07.21-.12.42-.15.64-.02.15-.03.3-.01.44.02.19.12.37.28.48.1.07.22.13.34.17.19.07.39.12.58.15.22.04.44.07.66.11h.05v.05l.01.64v.04h-.15l-5.66.02c-.01-.24-.02-.49 0-.73.08-.02.16-.04.25-.05.24-.04.49-.1.72-.17.07-.02.13-.04.19-.07.31-.12.59-.32.8-.58.15-.18.27-.38.38-.59a10 10 0 0 0 .41-.88c.24-.61.49-1.21.73-1.82l2.48-6.28c.78-1.99 1.55-3.99 2.31-5.99l.05-.12c.28-.08.55-.16.84-.24.02.04.03.08.04.11.32.89.64 1.79.96 2.68 1.09 3.05 2.18 6.09 3.3 9.13l.93 2.49c.12.34.27.67.43.99.07.14.15.27.24.4.26.4.66.7 1.13.82.25.07.51.12.76.15l.18.03c.02.08.02.16.01.24v.25z"/></g></g><defs><clipPath id="6lv7u__circleClip"><circle cx="16" cy="16" r="13"/></clipPath></defs></svg>