<svg xmlns="http://www.w3.org/2000/svg" width="32" height="32" fill="none" viewBox="0 0 32 32"><path fill="currentColor" fill-rule="evenodd" d="m31.951 17.257-1.994-.155a14 14 0 0 0 0-2.204l1.994-.155a16 16 0 0 1 0 2.514m-.39-4.994-1.945.466q-.26-1.08-.677-2.087l1.847-.767q.478 1.154.775 2.388M29.644 7.64 27.94 8.686a14 14 0 0 0-1.293-1.778l1.52-1.3a16 16 0 0 1 1.477 2.031m-3.253-3.806-1.3 1.52a14 14 0 0 0-1.777-1.293l1.047-1.704q1.076.661 2.03 1.477m-4.266-2.619-.767 1.848a14 14 0 0 0-2.087-.678l.466-1.945c.822.196 1.62.457 2.388.775M17.257.05l-.155 1.994a14 14 0 0 0-2.204 0L14.743.049a16 16 0 0 1 2.514 0m-4.994.39.466 1.945q-1.08.26-2.087.678l-.767-1.848A16 16 0 0 1 12.263.44M7.64 2.356 8.686 4.06a14 14 0 0 0-1.778 1.293l-1.3-1.52A16 16 0 0 1 7.64 2.356M3.833 5.609l1.52 1.3A14 14 0 0 0 4.06 8.685L2.356 7.639q.661-1.076 1.477-2.03M1.214 9.875l1.848.767a14 14 0 0 0-.678 2.087l-1.945-.466c.196-.822.457-1.62.775-2.388M.05 14.743a16 16 0 0 0 0 2.514l1.994-.155a14 14 0 0 1 0-2.204zm.39 4.994 1.945-.466q.26 1.08.678 2.087l-1.848.767a16 16 0 0 1-.775-2.388m1.917 4.624 1.704-1.047q.579.941 1.293 1.778l-1.52 1.3a16 16 0 0 1-1.477-2.031m3.253 3.806 1.3-1.52q.835.714 1.777 1.293l-1.047 1.704a16 16 0 0 1-2.03-1.477m4.266 2.619.767-1.848q1.007.42 2.087.678l-.466 1.945a16 16 0 0 1-2.388-.775m4.868 1.165.155-1.994a14 14 0 0 0 2.204 0l.155 1.994a16 16 0 0 1-2.514 0m4.994-.39-.466-1.945q1.08-.26 2.087-.677l.767 1.847a16 16 0 0 1-2.388.775m4.624-1.917-1.047-1.704q.941-.579 1.778-1.293l1.3 1.52a16 16 0 0 1-2.031 1.477m3.806-3.253-1.52-1.3a14 14 0 0 0 1.293-1.777l1.704 1.047q-.661 1.076-1.477 2.03m2.619-4.266-1.848-.767q.42-1.007.678-2.087l1.945.466a16 16 0 0 1-.775 2.388" clip-rule="evenodd"/><g clip-path="url(#ujok4__circleClip)"><g fill="currentColor" style="transform:scale(.8125);transform-origin:50% 50%"><path d="M22.62 22.45c-.1-.1-.25-.16-.47-.16h-1.07v1.23h1.07c.21 0 .36-.06.47-.15.11-.1.17-.24.17-.42v-.08c0-.18-.06-.32-.16-.42z"/><path d="M31.95 16.36C31.95 7.54 24.8.38 15.97.38S0 7.53 0 16.36s7.15 15.97 15.98 15.97 15.98-7.15 15.98-15.97zM11.62 26.68h-3.7v-5.54h3.65v1.16H9.16v1.01h2.19v1.16H9.16v1.06h2.45v1.16zm6.17-1.99q0 .63-.27 1.11c-.17.32-.43.56-.76.73s-.72.25-1.17.25-.84-.08-1.18-.25c-.33-.17-.58-.42-.76-.73-.17-.32-.26-.69-.26-1.11v-3.56h1.25v3.59c0 .3.08.52.24.68s.39.24.71.24.55-.09.7-.24c.16-.16.24-.38.24-.68v-3.59h1.25v3.56zm6.23-1.93c0 .34-.08.62-.25.85-.13.17-.28.3-.46.4.14.04.27.11.36.23.14.15.2.35.2.59v1.86h-1.25v-1.71c0-.1-.03-.16-.07-.21-.03-.03-.08-.07-.21-.07h-1.27v2h-1.25v-5.54h2.42c.35 0 .66.06.92.19q.405.18.63.54c.15.23.22.51.22.82v.09zm-3.68-4.15-4.36-4.45-4.36 4.45-4.36-4.45 8.73-8.91 8.73 8.91-4.36 4.45z"/></g></g><defs><clipPath id="ujok4__circleClip"><circle cx="16" cy="16" r="13"/></clipPath></defs></svg>