<svg xmlns="http://www.w3.org/2000/svg" width="32" height="32" fill="none" viewBox="0 0 32 32"><path fill="currentColor" fill-rule="evenodd" d="m31.951 17.257-1.994-.155a14 14 0 0 0 0-2.204l1.994-.155a16 16 0 0 1 0 2.514m-.39-4.994-1.945.466q-.26-1.08-.677-2.087l1.847-.767q.478 1.154.775 2.388M29.644 7.64 27.94 8.686a14 14 0 0 0-1.293-1.778l1.52-1.3a16 16 0 0 1 1.477 2.031m-3.253-3.806-1.3 1.52a14 14 0 0 0-1.777-1.293l1.047-1.704q1.076.661 2.03 1.477m-4.266-2.619-.767 1.848a14 14 0 0 0-2.087-.678l.466-1.945c.822.196 1.62.457 2.388.775M17.257.05l-.155 1.994a14 14 0 0 0-2.204 0L14.743.049a16 16 0 0 1 2.514 0m-4.994.39.466 1.945q-1.08.26-2.087.678l-.767-1.848A16 16 0 0 1 12.263.44M7.64 2.356 8.686 4.06a14 14 0 0 0-1.778 1.293l-1.3-1.52A16 16 0 0 1 7.64 2.356M3.833 5.609l1.52 1.3A14 14 0 0 0 4.06 8.685L2.356 7.639q.661-1.076 1.477-2.03M1.214 9.875l1.848.767a14 14 0 0 0-.678 2.087l-1.945-.466c.196-.822.457-1.62.775-2.388M.05 14.743a16 16 0 0 0 0 2.514l1.994-.155a14 14 0 0 1 0-2.204zm.39 4.994 1.945-.466q.26 1.08.678 2.087l-1.848.767a16 16 0 0 1-.775-2.388m1.917 4.624 1.704-1.047q.579.941 1.293 1.778l-1.52 1.3a16 16 0 0 1-1.477-2.031m3.253 3.806 1.3-1.52q.835.714 1.777 1.293l-1.047 1.704a16 16 0 0 1-2.03-1.477m4.266 2.619.767-1.848q1.007.42 2.087.678l-.466 1.945a16 16 0 0 1-2.388-.775m4.868 1.165.155-1.994a14 14 0 0 0 2.204 0l.155 1.994a16 16 0 0 1-2.514 0m4.994-.39-.466-1.945q1.08-.26 2.087-.677l.767 1.847a16 16 0 0 1-2.388.775m4.624-1.917-1.047-1.704q.941-.579 1.778-1.293l1.3 1.52a16 16 0 0 1-2.031 1.477m3.806-3.253-1.52-1.3a14 14 0 0 0 1.293-1.777l1.704 1.047q-.661 1.076-1.477 2.03m2.619-4.266-1.848-.767q.42-1.007.678-2.087l1.945.466a16 16 0 0 1-.775 2.388" clip-rule="evenodd"/><g clip-path="url(#83be3__circleClip)"><g style="transform:scale(.8125);transform-origin:50% 50%"><g fill="currentColor" clip-path="url(#83be3__clip0_298_720)"><path d="M21.36 13.4h-1.44l-.46 2.15h1.38c.34 0 .63-.09.88-.28.26-.18.42-.45.5-.79.02-.14.04-.26.04-.36 0-.23-.07-.41-.2-.53-.14-.13-.37-.19-.7-.19m-8.7-.06c-.45 0-.83.13-1.15.4-.31.26-.54.67-.67 1.21-.14.54-.29 1.19-.43 1.97-.03.16-.05.33-.05.5 0 .74.38 1.1 1.15 1.1.45 0 .83-.13 1.14-.4.32-.26.55-.67.68-1.21.18-.75.32-1.41.42-1.97.03-.17.05-.34.05-.52 0-.73-.38-1.09-1.14-1.09z"/><path d="M16 0C7.16 0 0 7.16 0 16s7.16 16 16 16 16-7.16 16-16S24.84 0 16 0m-.02 14.91c-.12.71-.26 1.41-.43 2.08-.28 1.1-.76 1.92-1.45 2.46s-1.61.8-2.76.8c-.95 0-1.73-.22-2.34-.67-.6-.46-.9-1.1-.9-1.95 0-.18.02-.39.06-.65.1-.58.25-1.27.44-2.08.54-2.2 1.95-3.3 4.22-3.3.62 0 1.17.1 1.66.31.49.2.87.5 1.15.91q.42.6.42 1.44c0 .17-.02.38-.06.64zm8.47-.41c-.2.92-.6 1.6-1.21 2.04-.6.44-1.43.66-2.47.66h-1.62l-.55 2.63c-.02.09-.06.16-.13.22a.34.34 0 0 1-.23.08h-1.63c-.09 0-.16-.03-.2-.08a.33.33 0 0 1-.04-.22l1.66-7.81c.02-.09.06-.16.13-.22a.34.34 0 0 1 .23-.08h3.19c.89 0 1.6.18 2.14.55s.82.9.82 1.6c0 .2-.02.41-.07.62z"/></g><defs><clipPath id="83be3__clip0_298_720"><path fill="#fff" d="M0 0h32v32H0z"/></clipPath></defs></g></g><defs><clipPath id="83be3__circleClip"><circle cx="16" cy="16" r="13"/></clipPath></defs></svg>