<svg xmlns="http://www.w3.org/2000/svg" width="32" height="32" fill="none" viewBox="0 0 32 32"><path fill="currentColor" fill-rule="evenodd" d="m31.951 17.257-1.994-.155a14 14 0 0 0 0-2.204l1.994-.155a16 16 0 0 1 0 2.514m-.39-4.994-1.945.466q-.26-1.08-.677-2.087l1.847-.767q.478 1.154.775 2.388M29.644 7.64 27.94 8.686a14 14 0 0 0-1.293-1.778l1.52-1.3a16 16 0 0 1 1.477 2.031m-3.253-3.806-1.3 1.52a14 14 0 0 0-1.777-1.293l1.047-1.704q1.076.661 2.03 1.477m-4.266-2.619-.767 1.848a14 14 0 0 0-2.087-.678l.466-1.945c.822.196 1.62.457 2.388.775M17.257.05l-.155 1.994a14 14 0 0 0-2.204 0L14.743.049a16 16 0 0 1 2.514 0m-4.994.39.466 1.945q-1.08.26-2.087.678l-.767-1.848A16 16 0 0 1 12.263.44M7.64 2.356 8.686 4.06a14 14 0 0 0-1.778 1.293l-1.3-1.52A16 16 0 0 1 7.64 2.356M3.833 5.609l1.52 1.3A14 14 0 0 0 4.06 8.685L2.356 7.639q.661-1.076 1.477-2.03M1.214 9.875l1.848.767a14 14 0 0 0-.678 2.087l-1.945-.466c.196-.822.457-1.62.775-2.388M.05 14.743a16 16 0 0 0 0 2.514l1.994-.155a14 14 0 0 1 0-2.204zm.39 4.994 1.945-.466q.26 1.08.678 2.087l-1.848.767a16 16 0 0 1-.775-2.388m1.917 4.624 1.704-1.047q.579.941 1.293 1.778l-1.52 1.3a16 16 0 0 1-1.477-2.031m3.253 3.806 1.3-1.52q.835.714 1.777 1.293l-1.047 1.704a16 16 0 0 1-2.03-1.477m4.266 2.619.767-1.848q1.007.42 2.087.678l-.466 1.945a16 16 0 0 1-2.388-.775m4.868 1.165.155-1.994a14 14 0 0 0 2.204 0l.155 1.994a16 16 0 0 1-2.514 0m4.994-.39-.466-1.945q1.08-.26 2.087-.677l.767 1.847a16 16 0 0 1-2.388.775m4.624-1.917-1.047-1.704q.941-.579 1.778-1.293l1.3 1.52a16 16 0 0 1-2.031 1.477m3.806-3.253-1.52-1.3a14 14 0 0 0 1.293-1.777l1.704 1.047q-.661 1.076-1.477 2.03m2.619-4.266-1.848-.767q.42-1.007.678-2.087l1.945.466a16 16 0 0 1-.775 2.388" clip-rule="evenodd"/><g clip-path="url(#adbht__circleClip)"><g style="transform:scale(.8125);transform-origin:50% 50%"><path fill="#000" d="M16 .45c-8.84 0-16 7.17-16 16s7.16 16 16 16 16-7.16 16-16-7.16-16-16-16m-2.56 29.12c-6.15-1.2-10.8-6.61-10.8-13.11S7.28 4.54 13.44 3.35v1.28C7.99 5.81 3.9 10.67 3.9 16.46s4.09 10.65 9.54 11.83zm3.36-5.88v2.3h-1.55v-2.3h-.87c-.93 0-1.74-.33-2.39-1-.66-.66-.99-1.46-.99-2.39v-.79h1.55v.93c0 .51.18.93.54 1.3.36.36.78.54 1.29.54h3.36c.51 0 .93-.18 1.3-.54.36-.36.54-.79.54-1.3v-1.66a.95.95 0 0 0-.12-.48 1.15 1.15 0 0 0-.4-.39c-.21-.13-.41-.24-.58-.32q-.255-.12-.78-.27c-.37-.1-.64-.17-.83-.21s-.49-.11-.92-.19c-.49-.11-.93-.2-1.31-.27-.9-.18-1.55-.31-2.02-.6-.95-.6-1.55-1.74-1.55-2.79v-.89c0-.9.33-1.68.97-2.33.64-.64 1.43-.97 2.33-.97h.88V6.92h1.54v2.15h.75c.9 0 1.68.33 2.33.98.64.65.97 1.43.97 2.32v.59h-1.55v-.73c0-.49-.17-.89-.51-1.23q-.51-.51-1.23-.51h-3.17c-.49 0-.89.17-1.24.51s-.51.75-.51 1.23v1.12c0 .21.08 1.05.7 1.44.46.29 1.4.45 2.64.7.4.08.82.17 1.24.26.81.18 2.07.54 2.33.69 1.11.63 1.61 1.38 1.61 2.44v1.43c0 .93-.34 1.74-1 2.39-.67.66-1.47.99-2.39.99zm1.76 5.88v-1.28c5.45-1.18 9.54-6.04 9.54-11.83S24.01 5.81 18.56 4.63V3.35c6.15 1.2 10.8 6.61 10.8 13.11s-4.64 11.92-10.8 13.11"/></g></g><defs><clipPath id="adbht__circleClip"><circle cx="16" cy="16" r="13"/></clipPath></defs></svg>