<svg xmlns="http://www.w3.org/2000/svg" width="32" height="32" fill="none" viewBox="0 0 32 32"><path fill="currentColor" fill-rule="evenodd" d="m31.951 17.257-1.994-.155a14 14 0 0 0 0-2.204l1.994-.155a16 16 0 0 1 0 2.514m-.39-4.994-1.945.466q-.26-1.08-.677-2.087l1.847-.767q.478 1.154.775 2.388M29.644 7.64 27.94 8.686a14 14 0 0 0-1.293-1.778l1.52-1.3a16 16 0 0 1 1.477 2.031m-3.253-3.806-1.3 1.52a14 14 0 0 0-1.777-1.293l1.047-1.704q1.076.661 2.03 1.477m-4.266-2.619-.767 1.848a14 14 0 0 0-2.087-.678l.466-1.945c.822.196 1.62.457 2.388.775M17.257.05l-.155 1.994a14 14 0 0 0-2.204 0L14.743.049a16 16 0 0 1 2.514 0m-4.994.39.466 1.945q-1.08.26-2.087.678l-.767-1.848A16 16 0 0 1 12.263.44M7.64 2.356 8.686 4.06a14 14 0 0 0-1.778 1.293l-1.3-1.52A16 16 0 0 1 7.64 2.356M3.833 5.609l1.52 1.3A14 14 0 0 0 4.06 8.685L2.356 7.639q.661-1.076 1.477-2.03M1.214 9.875l1.848.767a14 14 0 0 0-.678 2.087l-1.945-.466c.196-.822.457-1.62.775-2.388M.05 14.743a16 16 0 0 0 0 2.514l1.994-.155a14 14 0 0 1 0-2.204zm.39 4.994 1.945-.466q.26 1.08.678 2.087l-1.848.767a16 16 0 0 1-.775-2.388m1.917 4.624 1.704-1.047q.579.941 1.293 1.778l-1.52 1.3a16 16 0 0 1-1.477-2.031m3.253 3.806 1.3-1.52q.835.714 1.777 1.293l-1.047 1.704a16 16 0 0 1-2.03-1.477m4.266 2.619.767-1.848q1.007.42 2.087.678l-.466 1.945a16 16 0 0 1-2.388-.775m4.868 1.165.155-1.994a14 14 0 0 0 2.204 0l.155 1.994a16 16 0 0 1-2.514 0m4.994-.39-.466-1.945q1.08-.26 2.087-.677l.767 1.847a16 16 0 0 1-2.388.775m4.624-1.917-1.047-1.704q.941-.579 1.778-1.293l1.3 1.52a16 16 0 0 1-2.031 1.477m3.806-3.253-1.52-1.3a14 14 0 0 0 1.293-1.777l1.704 1.047q-.661 1.076-1.477 2.03m2.619-4.266-1.848-.767q.42-1.007.678-2.087l1.945.466a16 16 0 0 1-.775 2.388" clip-rule="evenodd"/><g clip-path="url(#2n7wuf__circleClip)"><g fill="currentColor" style="transform:scale(.8125);transform-origin:50% 50%"><path d="M9.96 15.86h-.02v.01l.01.01 5.49 2.91s.07.03.11.05V12.9s-.08.03-.11.05l-5.49 2.91zm-.09-6.14v5.18l4.94-2.59zm6.56 9.12s.08-.03.11-.05l5.49-2.91h.02v-.01l-.01-.01-5.49-2.91s-.07-.03-.11-.05v5.94zM9.96 8.79l5.5 2.91c.29.15.8.15 1.09 0l5.5-2.91h.02v-.01l-.01-.01-5.5-2.91c-.29-.15-.8-.15-1.09 0l-5.5 2.91h-.02v.01zm12.13 6.11V9.72l-4.94 2.59z"/><path d="m15.03 19.51-5.15-2.73v6.42l5.15 2.71c.3.16.62.32.93.33h.02c.31 0 .61-.16.91-.3l5.2-2.76v-6.4l-5.17 2.73c-.54.28-1.36.28-1.9 0z"/><path d="M16 0C7.16 0 0 7.16 0 16s7.16 16 16 16 16-7.16 16-16S24.84 0 16 0M9.09 25.84l-.35-.21-.06-.04c-.09-.05-.17-.11-.26-.17-.83-.56-1.14-1.18-1.14-2.45v-.04h.86c0 .56.06.93.19 1.18.11.21.26.38.55.58h.02c.06.05.13.1.22.15l.1.06.31.19-.44.74zm13.87-2.59c0 .29-.19.57-.54.76l-5.5 2.9c-.54.28-1.36.28-1.9 0l-5.5-2.9c-.35-.19-.52-.47-.53-.76V8.68c.02-.27.19-.51.53-.69l5.5-2.9c.54-.28 1.36-.28 1.9 0l5.5 2.9c.32.17.5.43.53.69v14.57zm.9-14.19c0-.56-.06-.93-.19-1.18-.11-.21-.26-.38-.55-.58h-.02c-.07-.06-.15-.11-.22-.15l-.1-.06-.31-.19.44-.74.35.21.06.04c.1.06.18.12.26.17.83.56 1.14 1.18 1.14 2.45v.04h-.86z"/></g></g><defs><clipPath id="2n7wuf__circleClip"><circle cx="16" cy="16" r="13"/></clipPath></defs></svg>