<svg width="32" height="32" fill="none" viewBox="0 0 32 32" xmlns="http://www.w3.org/2000/svg"><path fill="currentColor" fill-rule="evenodd" d="m31.951 17.257-1.994-.155a14 14 0 0 0 0-2.204l1.994-.155a16 16 0 0 1 0 2.514m-.39-4.994-1.945.466q-.26-1.08-.677-2.087l1.847-.767q.478 1.154.775 2.388M29.644 7.64 27.94 8.686a14 14 0 0 0-1.293-1.778l1.52-1.3a16 16 0 0 1 1.477 2.031m-3.253-3.806-1.3 1.52a14 14 0 0 0-1.777-1.293l1.047-1.704q1.076.661 2.03 1.477m-4.266-2.619-.767 1.848a14 14 0 0 0-2.087-.678l.466-1.945c.822.196 1.62.457 2.388.775M17.257.05l-.155 1.994a14 14 0 0 0-2.204 0L14.743.049a16 16 0 0 1 2.514 0m-4.994.39.466 1.945q-1.08.26-2.087.678l-.767-1.848A16 16 0 0 1 12.263.44M7.64 2.356 8.686 4.06a14 14 0 0 0-1.778 1.293l-1.3-1.52A16 16 0 0 1 7.64 2.356M3.833 5.609l1.52 1.3A14 14 0 0 0 4.06 8.685L2.356 7.639q.661-1.076 1.477-2.03M1.214 9.875l1.848.767a14 14 0 0 0-.678 2.087l-1.945-.466c.196-.822.457-1.62.775-2.388M.05 14.743a16 16 0 0 0 0 2.514l1.994-.155a14 14 0 0 1 0-2.204zm.39 4.994 1.945-.466q.26 1.08.678 2.087l-1.848.767a16 16 0 0 1-.775-2.388m1.917 4.624 1.704-1.047q.579.941 1.293 1.778l-1.52 1.3a16 16 0 0 1-1.477-2.031m3.253 3.806 1.3-1.52q.835.714 1.777 1.293l-1.047 1.704a16 16 0 0 1-2.03-1.477m4.266 2.619.767-1.848q1.007.42 2.087.678l-.466 1.945a16 16 0 0 1-2.388-.775m4.868 1.165.155-1.994a14 14 0 0 0 2.204 0l.155 1.994a16 16 0 0 1-2.514 0m4.994-.39-.466-1.945q1.08-.26 2.087-.677l.767 1.847a16 16 0 0 1-2.388.775m4.624-1.917-1.047-1.704q.941-.579 1.778-1.293l1.3 1.52a16 16 0 0 1-2.031 1.477m3.806-3.253-1.52-1.3a14 14 0 0 0 1.293-1.777l1.704 1.047q-.661 1.076-1.477 2.03m2.619-4.266-1.848-.767q.42-1.007.678-2.087l1.945.466a16 16 0 0 1-.775 2.388" clip-rule="evenodd"/><g clip-path="url(#statastg__circleClip)"><g style="transform:scale(.8125);transform-origin:50% 50%"><path fill="currentColor" d="M16 0C7.16 0 0 7.16 0 16s7.16 16 16 16 16-7.16 16-16S24.84 0 16 0m12.8 14.37c-.27-.31-.61-.57-1.03-.75l-1.62-.69a13.43 13.43 0 0 1-7.08-7.08l-.69-1.62a2.75 2.75 0 0 0-.75-1.03c5.79.81 10.37 5.39 11.18 11.18zM14.38 3.2c-.31.27-.57.61-.75 1.03l-.69 1.62c-1.36 3.18-3.9 5.72-7.08 7.08l-1.62.69c-.42.18-.77.44-1.03.75C4.02 8.58 8.6 4 14.39 3.19zM3.2 17.62c.27.31.61.57 1.03.75l1.62.69c3.18 1.36 5.72 3.89 7.08 7.08l.69 1.62c.18.42.44.77.75 1.04A13.15 13.15 0 0 1 3.19 17.62zm14.03 4.09c-.46 1.08-2 1.08-2.46 0l-.33-.77a6.42 6.42 0 0 0-3.38-3.38l-.77-.33c-1.08-.46-1.08-2 0-2.46l.77-.33a6.42 6.42 0 0 0 3.38-3.38l.33-.77c.46-1.08 2-1.08 2.46 0l.33.77a6.42 6.42 0 0 0 3.38 3.38l.77.33c1.08.46 1.08 2 0 2.46l-.77.33a6.42 6.42 0 0 0-3.38 3.38zm.39 7.09c.33-.28.58-.64.75-1.04l.69-1.62c1.36-3.18 3.89-5.72 7.08-7.08l1.62-.69c.42-.18.77-.44 1.03-.75A13.15 13.15 0 0 1 17.61 28.8z"/></g></g><defs><clipPath id="statastg__circleClip"><circle cx="16" cy="16" r="13"/></clipPath></defs></svg>