<svg xmlns="http://www.w3.org/2000/svg" width="32" height="32" fill="none" viewBox="0 0 32 32"><path fill="currentColor" fill-rule="evenodd" d="m31.951 17.257-1.994-.155a14 14 0 0 0 0-2.204l1.994-.155a16 16 0 0 1 0 2.514m-.39-4.994-1.945.466q-.26-1.08-.677-2.087l1.847-.767q.478 1.154.775 2.388M29.644 7.64 27.94 8.686a14 14 0 0 0-1.293-1.778l1.52-1.3a16 16 0 0 1 1.477 2.031m-3.253-3.806-1.3 1.52a14 14 0 0 0-1.777-1.293l1.047-1.704q1.076.661 2.03 1.477m-4.266-2.619-.767 1.848a14 14 0 0 0-2.087-.678l.466-1.945c.822.196 1.62.457 2.388.775M17.257.05l-.155 1.994a14 14 0 0 0-2.204 0L14.743.049a16 16 0 0 1 2.514 0m-4.994.39.466 1.945q-1.08.26-2.087.678l-.767-1.848A16 16 0 0 1 12.263.44M7.64 2.356 8.686 4.06a14 14 0 0 0-1.778 1.293l-1.3-1.52A16 16 0 0 1 7.64 2.356M3.833 5.609l1.52 1.3A14 14 0 0 0 4.06 8.685L2.356 7.639q.661-1.076 1.477-2.03M1.214 9.875l1.848.767a14 14 0 0 0-.678 2.087l-1.945-.466c.196-.822.457-1.62.775-2.388M.05 14.743a16 16 0 0 0 0 2.514l1.994-.155a14 14 0 0 1 0-2.204zm.39 4.994 1.945-.466q.26 1.08.678 2.087l-1.848.767a16 16 0 0 1-.775-2.388m1.917 4.624 1.704-1.047q.579.941 1.293 1.778l-1.52 1.3a16 16 0 0 1-1.477-2.031m3.253 3.806 1.3-1.52q.835.714 1.777 1.293l-1.047 1.704a16 16 0 0 1-2.03-1.477m4.266 2.619.767-1.848q1.007.42 2.087.678l-.466 1.945a16 16 0 0 1-2.388-.775m4.868 1.165.155-1.994a14 14 0 0 0 2.204 0l.155 1.994a16 16 0 0 1-2.514 0m4.994-.39-.466-1.945q1.08-.26 2.087-.677l.767 1.847a16 16 0 0 1-2.388.775m4.624-1.917-1.047-1.704q.941-.579 1.778-1.293l1.3 1.52a16 16 0 0 1-2.031 1.477m3.806-3.253-1.52-1.3a14 14 0 0 0 1.293-1.777l1.704 1.047q-.661 1.076-1.477 2.03m2.619-4.266-1.848-.767q.42-1.007.678-2.087l1.945.466a16 16 0 0 1-.775 2.388" clip-rule="evenodd"/><g clip-path="url(#nlqcz__circleClip)"><g style="transform:scale(.8125);transform-origin:50% 50%"><g clip-path="url(#nlqcz__cf44g__clip0_298_928)"><path fill="currentColor" d="M16 0C7.16 0 0 7.16 0 16s7.16 16 16 16 16-7.16 16-16S24.84 0 16 0m-2.5 24.5c0 .83-.67 1.5-1.5 1.5h-1.87c-1.42 0-2.62-1.01-2.75-2.42-.2-2.31-.17-4.64.08-6.95.09-.92.91-1.6 1.83-1.51h.04c.33.04.72.08 1.16.14.39.05.74.13 1.06.23 1.35.41 1.95 1.81 1.95 3.22zm10.86-.93c-.12 1.41-1.33 2.42-2.75 2.42h-1.87c-.83 0-1.5-.67-1.5-1.5V18.7c0-1.41.6-2.81 1.95-3.22.32-.1.67-.18 1.06-.23s.77-.1 1.16-.14h.04c.92-.09 1.74.59 1.83 1.51.25 2.31.28 4.64.08 6.95m-2.38-12.3c-1.99.15-3.99.22-5.98.23-2.36 0-4.46-.11-5.98-.23-1.44-.11-2.52-1.32-2.52-2.76s1.09-2.67 2.54-2.78c1.98-.15 3.97-.23 5.96-.23 2.27 0 4.4.12 5.96.23 1.45.11 2.54 1.33 2.54 2.78s-1.08 2.66-2.52 2.76"/></g><defs><clipPath id="nlqcz__cf44g__clip0_298_928"><path fill="#fff" d="M0 0h32v32H0z"/></clipPath></defs></g></g><defs><clipPath id="nlqcz__circleClip"><circle cx="16" cy="16" r="13"/></clipPath></defs></svg>