<svg width="32" height="32" fill="none" viewBox="0 0 32 32" xmlns="http://www.w3.org/2000/svg"><path fill="currentColor" fill-rule="evenodd" d="m31.951 17.257-1.994-.155a14 14 0 0 0 0-2.204l1.994-.155a16 16 0 0 1 0 2.514m-.39-4.994-1.945.466q-.26-1.08-.677-2.087l1.847-.767q.478 1.154.775 2.388M29.644 7.64 27.94 8.686a14 14 0 0 0-1.293-1.778l1.52-1.3a16 16 0 0 1 1.477 2.031m-3.253-3.806-1.3 1.52a14 14 0 0 0-1.777-1.293l1.047-1.704q1.076.661 2.03 1.477m-4.266-2.619-.767 1.848a14 14 0 0 0-2.087-.678l.466-1.945c.822.196 1.62.457 2.388.775M17.257.05l-.155 1.994a14 14 0 0 0-2.204 0L14.743.049a16 16 0 0 1 2.514 0m-4.994.39.466 1.945q-1.08.26-2.087.678l-.767-1.848A16 16 0 0 1 12.263.44M7.64 2.356 8.686 4.06a14 14 0 0 0-1.778 1.293l-1.3-1.52A16 16 0 0 1 7.64 2.356M3.833 5.609l1.52 1.3A14 14 0 0 0 4.06 8.685L2.356 7.639q.661-1.076 1.477-2.03M1.214 9.875l1.848.767a14 14 0 0 0-.678 2.087l-1.945-.466c.196-.822.457-1.62.775-2.388M.05 14.743a16 16 0 0 0 0 2.514l1.994-.155a14 14 0 0 1 0-2.204zm.39 4.994 1.945-.466q.26 1.08.678 2.087l-1.848.767a16 16 0 0 1-.775-2.388m1.917 4.624 1.704-1.047q.579.941 1.293 1.778l-1.52 1.3a16 16 0 0 1-1.477-2.031m3.253 3.806 1.3-1.52q.835.714 1.777 1.293l-1.047 1.704a16 16 0 0 1-2.03-1.477m4.266 2.619.767-1.848q1.007.42 2.087.678l-.466 1.945a16 16 0 0 1-2.388-.775m4.868 1.165.155-1.994a14 14 0 0 0 2.204 0l.155 1.994a16 16 0 0 1-2.514 0m4.994-.39-.466-1.945q1.08-.26 2.087-.677l.767 1.847a16 16 0 0 1-2.388.775m4.624-1.917-1.047-1.704q.941-.579 1.778-1.293l1.3 1.52a16 16 0 0 1-2.031 1.477m3.806-3.253-1.52-1.3a14 14 0 0 0 1.293-1.777l1.704 1.047q-.661 1.076-1.477 2.03m2.619-4.266-1.848-.767q.42-1.007.678-2.087l1.945.466a16 16 0 0 1-.775 2.388" clip-rule="evenodd"/><g clip-path="url(#stataeusde__circleClip)"><g style="transform:scale(.8125);transform-origin:50% 50%"><g clip-path="url(#stataeusde__etherealeusde__clip0_2491_137)"><path fill="currentColor" d="M16.01 0C7.17 0 0 7.16 0 16s7.16 16 16 16 16-7.16 16-16S24.84 0 16 0zm-1.14 23.46c-.79 0-1.48-.17-2.08-.52q-.9-.54-1.41-1.5c-.33-.65-.49-1.4-.49-2.25h1.41c0 .86.24 1.56.71 2.11.48.53 1.12.79 1.91.79h2.18c.77 0 1.39-.18 1.87-.54.47-.38.71-.86.71-1.46v-1.33c0-.47-.18-.88-.53-1.21-.34-.33-.81-.55-1.41-.65l-3.54-.63c-1-.18-1.77-.56-2.32-1.13s-.83-1.29-.83-2.15v-1.13c0-1.02.35-1.82 1.06-2.42.72-.61 1.67-.92 2.85-.92h.35V6.39h1.41v2.13h.45c1.11 0 2.01.36 2.69 1.08q1.02 1.065 1.02 2.82h-1.41c0-.76-.21-1.38-.63-1.84s-.98-.69-1.67-.69h-2.22c-.75 0-1.34.18-1.79.54-.45.35-.67.82-.67 1.42v1.13c0 .49.16.9.49 1.23.34.33.81.56 1.39.67l3.52.65c1.02.19 1.81.57 2.38 1.13.56.54.84 1.24.84 2.09v1.33c0 1.02-.37 1.84-1.1 2.46-.73.61-1.7.92-2.89.92h-.41v2.13H15.3v-2.13zM13.44 2.83v1.25c-5.49 1.17-9.61 6.05-9.61 11.89s4.12 10.72 9.61 11.89v1.25C7.26 27.92 2.6 22.49 2.6 15.96S7.27 4 13.44 2.81zm5.12 26.29v-1.26c5.48-1.18 9.59-6.05 9.59-11.89S24.04 5.26 18.56 4.08V2.82c6.16 1.2 10.82 6.63 10.82 13.14S24.73 27.9 18.56 29.1z"/></g><defs><clipPath id="stataeusde__etherealeusde__clip0_2491_137"><path fill="#fff" d="M0 0h32v32H0z"/></clipPath></defs></g></g><defs><clipPath id="stataeusde__circleClip"><circle cx="16" cy="16" r="13"/></clipPath></defs></svg>