<svg xmlns="http://www.w3.org/2000/svg" width="32" height="32" fill="none" viewBox="0 0 32 32"><path fill="currentColor" fill-rule="evenodd" d="m31.951 17.257-1.994-.155a14 14 0 0 0 0-2.204l1.994-.155a16 16 0 0 1 0 2.514m-.39-4.994-1.945.466q-.26-1.08-.677-2.087l1.847-.767q.478 1.154.775 2.388M29.644 7.64 27.94 8.686a14 14 0 0 0-1.293-1.778l1.52-1.3a16 16 0 0 1 1.477 2.031m-3.253-3.806-1.3 1.52a14 14 0 0 0-1.777-1.293l1.047-1.704q1.076.661 2.03 1.477m-4.266-2.619-.767 1.848a14 14 0 0 0-2.087-.678l.466-1.945c.822.196 1.62.457 2.388.775M17.257.05l-.155 1.994a14 14 0 0 0-2.204 0L14.743.049a16 16 0 0 1 2.514 0m-4.994.39.466 1.945q-1.08.26-2.087.678l-.767-1.848A16 16 0 0 1 12.263.44M7.64 2.356 8.686 4.06a14 14 0 0 0-1.778 1.293l-1.3-1.52A16 16 0 0 1 7.64 2.356M3.833 5.609l1.52 1.3A14 14 0 0 0 4.06 8.685L2.356 7.639q.661-1.076 1.477-2.03M1.214 9.875l1.848.767a14 14 0 0 0-.678 2.087l-1.945-.466c.196-.822.457-1.62.775-2.388M.05 14.743a16 16 0 0 0 0 2.514l1.994-.155a14 14 0 0 1 0-2.204zm.39 4.994 1.945-.466q.26 1.08.678 2.087l-1.848.767a16 16 0 0 1-.775-2.388m1.917 4.624 1.704-1.047q.579.941 1.293 1.778l-1.52 1.3a16 16 0 0 1-1.477-2.031m3.253 3.806 1.3-1.52q.835.714 1.777 1.293l-1.047 1.704a16 16 0 0 1-2.03-1.477m4.266 2.619.767-1.848q1.007.42 2.087.678l-.466 1.945a16 16 0 0 1-2.388-.775m4.868 1.165.155-1.994a14 14 0 0 0 2.204 0l.155 1.994a16 16 0 0 1-2.514 0m4.994-.39-.466-1.945q1.08-.26 2.087-.677l.767 1.847a16 16 0 0 1-2.388.775m4.624-1.917-1.047-1.704q.941-.579 1.778-1.293l1.3 1.52a16 16 0 0 1-2.031 1.477m3.806-3.253-1.52-1.3a14 14 0 0 0 1.293-1.777l1.704 1.047q-.661 1.076-1.477 2.03m2.619-4.266-1.848-.767q.42-1.007.678-2.087l1.945.466a16 16 0 0 1-.775 2.388" clip-rule="evenodd"/><g clip-path="url(#9ta32__circleClip)"><g style="transform:scale(.8125);transform-origin:50% 50%"><g fill="currentColor" clip-path="url(#9ta32__l63qq__clip0_292_8)"><path d="M11.293 10.4C9.813 9.507 9.64 7.187 9.64 7.173c-.04.174-.893 3.147 1.653 3.227m-.613 1.387c.16-.28.027-.48-.107-.587a.1.1 0 0 1-.04-.04c-.266-.133-1.893-.747-3.52-1.307 1.414.934 2.987 1.854 3.254 1.987.2.08.333.107.413-.04zm3.28 1.266L12.827 15s1.053-.48 1.453-1.093c.333-.52-.32-.854-.32-.854"/><path d="M14 18.853c-.347.04-.827.107-.987.214.28-.44.68-.654 1.067-.76.32-.934 1.027-2.854 1.173-2.987.094-.067.307-.133.68-.24.227-.04.52-.133.574-.173.08-.134.96-2.227 1.026-2.387-.026-.16-.466-1.267-.92-2.333-1.106.813-2.306.586-2.306.586s.853-.24 1.72-1.533c.853-1.293.04-3.053.04-3.053s-2.987 4.493-3.36 4.586c-.374.094-.627-.373-.627-.373s-.787 2.053-1 2.8.04 1.44.24 1.787c.227.346.68 1.226.04 2.12.093-.387-.307-1.014-.587-1.374-.106.96-.386 3.254-.48 3.627-.04.267-.2.547-.466 1.053-.134.267-.387.72-.454.934.08.386.414 1.333.627 1.613.307.107.747.227 1.12.28.173 0 .387-.08.693-.373.574-.52.934-.814 1.054-1.374.106-.546.066-1.4.32-1.64.24-.24.76-.346 1.173-.24-.333 0-.693.16-.693.16s.626-.106.866.347.04.72-.346.987c-.334.213-1.294 1.226-1.614 1.653h.654c.266 0 .44-.04.52-.133.213-.227.506-.467.76-.694.266-.24.626-.573.72-.68.173-.266.28-.586.24-.933v-.04c-.24-.933-1.174-1.44-1.48-1.413zm1.867-11.36s.2.867-.307 1.467c-.64.72-1.173.693-1.16.693zM10.36 21.867c-.28.026-.387-.32-.32-.52.067-.174.787-1.44.787-1.44l-.174.866s.347-.04.347.347c0 .307-.347.72-.627.747zm2.293-6.454c-.133.507-1.24.28-.826-1.306 0 0 .2.773.386.693.2-.067 2.427-3.56 2.427-3.56s-.28.92-.48 1.373c.773.16.987 1.054.573 1.534-.413.453-1.466 1.106-2.08 1.266"/><path d="M14.893 7.28c.307-.413.787-1.067 1.24-1.613.134.28.28.626.334.813 1.506-.573 3.6-.867 6.853-.267-1.44-.72-2.947-1.093-4.453-1.106-.574 0-1.094.04-1.574.133-1.706.307-3.106 1.533-3.586 3.16 0 0 .346-.547 1.173-1.12zM13.8 5.053c-.16.067-3.453 1.134-1.573 4 0 0-.387-2.813 1.573-4"/><path d="M16 0C7.16 0 0 7.16 0 16s7.16 16 16 16 16-7.16 16-16S24.84 0 16 0m8.733 27.093c.2-.746.347-1.84.347-1.84s-1.987 3.36-6.067 3.934h-.026c.746-.68 1.2-1.267 1.2-1.267s-1.307.893-3.774.893c-1.16 0-2.573-.2-4.253-.786.547.133 1.093.2 1.653.2 3.667 0 6.64-2.747 6.64-6.16 0-1.92-.933-3.64-2.453-4.774 0 0-.76.987-1.173 1.534-.334.453-.614.92-.547 1.44a2.02 2.02 0 0 1-.413 1.546c-.267.307-1.094.96-1.574 1.44-.32.307-.786.374-1.133.374-.16 0-.28-.027-.387-.027h-.066c-.267 0-.374.067-.747.387-.08.08-.28.133-.507.133-.613 0-1.533-.28-1.893-.413-.507-.2-1.067-1.96-1.12-2.387-.04-.413.88-1.813.96-2.2s.48-3.6.52-3.973c.04-.374.027-.627-.28-1.134-.213-.373-.213-.746 0-1.533-1.013-.653-5.587-4.04-5.84-4.227-.133-.106-.08-.173-.08-.173s.04-.067.2-.04c.107.013 3.013 1.053 5.04 1.787-.827-2.574.933-4.134.933-4.134s.28 1.12.587 1.88c1.2-3.6 4.613-3.28 4.613-3.28l-.853 1.36c.107-.066 1.947-1.173 4.653-1.173 1.96 0 4.387.587 6.947 2.6a32 32 0 0 0-2.227-.173s7.36 2.906 6.48 11.906c-.28-.346-.826-1.013-.866-1.066.026.173.933 5.28-4.494 9.36z"/><path d="M25.747 14.76c.106.2 2.786 5.147-.027 10.56.44-.44.8-.893 1.133-1.333 1.88-2.627 1.614-6.227-.546-8.627-.174-.2-.374-.413-.574-.613zm-8.094-5.773c-.146.24-.306.453-.453.626.32.814 1.173 2.934 1.173 3.04 0 .134-.413 1.2-.466 1.24-.04.027-.547.067-.747.067-.213.52-.44 1.027-.48 1.093-.067.08-.267.16-.68.267-.227.067-.547.147-.587.2-.106.133-.693 1.68-1.093 2.773.52-.093.987.014 1.093.067.854-1.613 1.534-2.493 1.707-2.493.173-.014 2.253.28 3.053-1.654.787-1.92-.346-3.56-.386-3.626.04.026 1.786.826 2.226 3.453a8.45 8.45 0 0 1 1.787 4.347c0 .106.173.266.28.386.2.2.387.387.387.587 0 .52-.04 1.053-.134 1.547-.04.173-.266.306-.48.413-.133.08-.32.2-.346.267-.48 1.72-1.574 3.253-2.987 4.346 3.013-1.44 5.093-4.52 5.093-8.053 0-4.6-3.493-8.4-7.973-8.88z"/><path d="M26.64 9.867c-1.6-1.68-3.933-2.467-6.253-2.134-.88.107-1.747.28-2.427.507q-.16.02-.32.08h.04c.173-.027 3.36-.173 6.333 1.787 3.08 2.026 4.467 4.28 5.454 6.92-.04-2.8-.987-5.2-2.787-7.12zM13.707 21c.213-.2.52-.267.52-.547 0-.306-.414-.373-.587-.32-.173.04-.213.32-.24.48s0 .627-.2.92c.04-.04.347-.373.507-.52zm9.64.52c.04-.173.24-.28.453-.387.16-.08.347-.2.373-.266a10 10 0 0 0 .134-1.507c0-.107-.174-.28-.334-.413-.173-.174-.346-.347-.373-.52-.16-1.414-.68-2.8-1.533-3.934.066.787.04 1.747-.174 2.854 1.574 2.773.587 6.266-1.44 8.386a8.16 8.16 0 0 0 2.88-4.213z"/></g><defs><clipPath id="9ta32__l63qq__clip0_292_8"><path fill="#fff" d="M0 0h32v32H0z"/></clipPath></defs></g></g><defs><clipPath id="9ta32__circleClip"><circle cx="16" cy="16" r="13"/></clipPath></defs></svg>