<svg xmlns="http://www.w3.org/2000/svg" width="32" height="32" fill="none" viewBox="0 0 32 32"><path fill="currentColor" fill-rule="evenodd" d="m31.951 17.257-1.994-.155a14 14 0 0 0 0-2.204l1.994-.155a16 16 0 0 1 0 2.514m-.39-4.994-1.945.466q-.26-1.08-.677-2.087l1.847-.767q.478 1.154.775 2.388M29.644 7.64 27.94 8.686a14 14 0 0 0-1.293-1.778l1.52-1.3a16 16 0 0 1 1.477 2.031m-3.253-3.806-1.3 1.52a14 14 0 0 0-1.777-1.293l1.047-1.704q1.076.661 2.03 1.477m-4.266-2.619-.767 1.848a14 14 0 0 0-2.087-.678l.466-1.945c.822.196 1.62.457 2.388.775M17.257.05l-.155 1.994a14 14 0 0 0-2.204 0L14.743.049a16 16 0 0 1 2.514 0m-4.994.39.466 1.945q-1.08.26-2.087.678l-.767-1.848A16 16 0 0 1 12.263.44M7.64 2.356 8.686 4.06a14 14 0 0 0-1.778 1.293l-1.3-1.52A16 16 0 0 1 7.64 2.356M3.833 5.609l1.52 1.3A14 14 0 0 0 4.06 8.685L2.356 7.639q.661-1.076 1.477-2.03M1.214 9.875l1.848.767a14 14 0 0 0-.678 2.087l-1.945-.466c.196-.822.457-1.62.775-2.388M.05 14.743a16 16 0 0 0 0 2.514l1.994-.155a14 14 0 0 1 0-2.204zm.39 4.994 1.945-.466q.26 1.08.678 2.087l-1.848.767a16 16 0 0 1-.775-2.388m1.917 4.624 1.704-1.047q.579.941 1.293 1.778l-1.52 1.3a16 16 0 0 1-1.477-2.031m3.253 3.806 1.3-1.52q.835.714 1.777 1.293l-1.047 1.704a16 16 0 0 1-2.03-1.477m4.266 2.619.767-1.848q1.007.42 2.087.678l-.466 1.945a16 16 0 0 1-2.388-.775m4.868 1.165.155-1.994a14 14 0 0 0 2.204 0l.155 1.994a16 16 0 0 1-2.514 0m4.994-.39-.466-1.945q1.08-.26 2.087-.677l.767 1.847a16 16 0 0 1-2.388.775m4.624-1.917-1.047-1.704q.941-.579 1.778-1.293l1.3 1.52a16 16 0 0 1-2.031 1.477m3.806-3.253-1.52-1.3a14 14 0 0 0 1.293-1.777l1.704 1.047q-.661 1.076-1.477 2.03m2.619-4.266-1.848-.767q.42-1.007.678-2.087l1.945.466a16 16 0 0 1-.775 2.388" clip-rule="evenodd"/><g clip-path="url(#7avc4__circleClip)"><g fill="currentColor" style="transform:scale(.8125);transform-origin:50% 50%"><path d="m15.92 10.91-.87 3.5c.99.25 4.05 1.25 4.54-.73.52-2.07-2.68-2.53-3.67-2.78zm-1.31 5.28-.96 3.86c1.19.3 4.86 1.47 5.4-.71.57-2.27-3.25-2.86-4.44-3.16z"/><path d="M19.87.48C11.3-1.66 2.62 3.56.48 12.13s3.08 17.25 11.65 19.39 17.25-3.08 19.39-11.65S28.44 2.62 19.87.48m3.19 13.24c-.23 1.56-1.09 2.31-2.24 2.58 1.58.82 2.38 2.08 1.61 4.26-.95 2.71-3.2 2.94-6.19 2.37l-.73 2.91-1.76-.44.72-2.87c-.46-.11-.92-.23-1.4-.36l-.72 2.89-1.75-.44.73-2.92c-.41-.1-.83-.22-1.25-.32l-2.28-.57.87-2.01s1.29.34 1.28.32c.5.12.72-.2.8-.42l1.15-4.6c.06.02.13.03.19.05a1 1 0 0 0-.18-.06l.82-3.29c.02-.37-.11-.84-.82-1.02.03-.02-1.28-.32-1.28-.32l.47-1.87 2.42.6c.36.1.74.19 1.12.27l.72-2.88 1.75.44-.7 2.83 1.41.33.7-2.81 1.76.44-.72 2.88c2.22.76 3.84 1.91 3.52 4.04z"/></g></g><defs><clipPath id="7avc4__circleClip"><circle cx="16" cy="16" r="13"/></clipPath></defs></svg>