<svg xmlns="http://www.w3.org/2000/svg" width="32" height="32" fill="none" viewBox="0 0 32 32"><path fill="currentColor" fill-rule="evenodd" d="m31.951 17.257-1.994-.155a14 14 0 0 0 0-2.204l1.994-.155a16 16 0 0 1 0 2.514m-.39-4.994-1.945.466q-.26-1.08-.677-2.087l1.847-.767q.478 1.154.775 2.388M29.644 7.64 27.94 8.686a14 14 0 0 0-1.293-1.778l1.52-1.3a16 16 0 0 1 1.477 2.031m-3.253-3.806-1.3 1.52a14 14 0 0 0-1.777-1.293l1.047-1.704q1.076.661 2.03 1.477m-4.266-2.619-.767 1.848a14 14 0 0 0-2.087-.678l.466-1.945c.822.196 1.62.457 2.388.775M17.257.05l-.155 1.994a14 14 0 0 0-2.204 0L14.743.049a16 16 0 0 1 2.514 0m-4.994.39.466 1.945q-1.08.26-2.087.678l-.767-1.848A16 16 0 0 1 12.263.44M7.64 2.356 8.686 4.06a14 14 0 0 0-1.778 1.293l-1.3-1.52A16 16 0 0 1 7.64 2.356M3.833 5.609l1.52 1.3A14 14 0 0 0 4.06 8.685L2.356 7.639q.661-1.076 1.477-2.03M1.214 9.875l1.848.767a14 14 0 0 0-.678 2.087l-1.945-.466c.196-.822.457-1.62.775-2.388M.05 14.743a16 16 0 0 0 0 2.514l1.994-.155a14 14 0 0 1 0-2.204zm.39 4.994 1.945-.466q.26 1.08.678 2.087l-1.848.767a16 16 0 0 1-.775-2.388m1.917 4.624 1.704-1.047q.579.941 1.293 1.778l-1.52 1.3a16 16 0 0 1-1.477-2.031m3.253 3.806 1.3-1.52q.835.714 1.777 1.293l-1.047 1.704a16 16 0 0 1-2.03-1.477m4.266 2.619.767-1.848q1.007.42 2.087.678l-.466 1.945a16 16 0 0 1-2.388-.775m4.868 1.165.155-1.994a14 14 0 0 0 2.204 0l.155 1.994a16 16 0 0 1-2.514 0m4.994-.39-.466-1.945q1.08-.26 2.087-.677l.767 1.847a16 16 0 0 1-2.388.775m4.624-1.917-1.047-1.704q.941-.579 1.778-1.293l1.3 1.52a16 16 0 0 1-2.031 1.477m3.806-3.253-1.52-1.3a14 14 0 0 0 1.293-1.777l1.704 1.047q-.661 1.076-1.477 2.03m2.619-4.266-1.848-.767q.42-1.007.678-2.087l1.945.466a16 16 0 0 1-.775 2.388" clip-rule="evenodd"/><g clip-path="url(#fraxshare__circleClip)"><g style="transform:scale(.8125);transform-origin:50% 50%"><path fill="currentColor" d="M30.739 9.774a16.1 16.1 0 0 0-3.426-5.087 15.8 15.8 0 0 0-5.087-3.425A15.9 15.9 0 0 0 16 0c-2.164 0-4.256.42-6.226 1.262a16.1 16.1 0 0 0-5.087 3.425 15.8 15.8 0 0 0-3.425 5.087A15.9 15.9 0 0 0 0 16c0 2.164.42 4.256 1.262 6.226a16.1 16.1 0 0 0 3.425 5.087 15.8 15.8 0 0 0 5.087 3.425A15.9 15.9 0 0 0 16 32c2.164 0 4.256-.42 6.226-1.262a16.1 16.1 0 0 0 5.087-3.425 15.8 15.8 0 0 0 3.425-5.087A15.9 15.9 0 0 0 32 16c0-2.164-.42-4.256-1.262-6.226m-8.678 3.098h-3.148c0-1.887-1.877-2.175-2.995-2.175-1.887 0-2.903.944-2.903 1.62 0 .493 0 1.109 3.467 2.175 1.928.595 3.108 1.118 3.959 1.764 1.149.872 1.733 2.02 1.733 3.416a4.1 4.1 0 0 1-.553 2.03l2.41 2.41-2.226 2.227-2.543-2.544c-.913.43-1.98.646-3.129.646-1.24 0-2.359-.236-3.292-.697l-2.585 2.584-2.225-2.225 2.533-2.534a5.3 5.3 0 0 1-.585-2.451h3.15c0 1.887 1.876 2.174 2.994 2.174 1.887 0 2.903-.943 2.903-1.62 0-.492 0-1.108-3.467-2.175-1.928-.594-3.108-1.117-3.959-1.764-1.149-.872-1.733-2.02-1.733-3.415 0-.708.194-1.395.553-2.02l-2.4-2.4 2.226-2.226 2.534 2.533c.923-.43 1.979-.656 3.138-.656 1.241 0 2.359.236 3.292.697l2.575-2.574 2.225 2.225-2.523 2.524c.38.728.575 1.559.575 2.45"/></g></g><defs><clipPath id="fraxshare__circleClip"><circle cx="16" cy="16" r="13"/></clipPath></defs></svg>