<svg width="32" height="32" fill="none" viewBox="0 0 32 32" xmlns="http://www.w3.org/2000/svg"><path fill="currentColor" fill-rule="evenodd" d="m31.951 17.257-1.994-.155a14 14 0 0 0 0-2.204l1.994-.155a16 16 0 0 1 0 2.514m-.39-4.994-1.945.466q-.26-1.08-.677-2.087l1.847-.767q.478 1.154.775 2.388M29.644 7.64 27.94 8.686a14 14 0 0 0-1.293-1.778l1.52-1.3a16 16 0 0 1 1.477 2.031m-3.253-3.806-1.3 1.52a14 14 0 0 0-1.777-1.293l1.047-1.704q1.076.661 2.03 1.477m-4.266-2.619-.767 1.848a14 14 0 0 0-2.087-.678l.466-1.945c.822.196 1.62.457 2.388.775M17.257.05l-.155 1.994a14 14 0 0 0-2.204 0L14.743.049a16 16 0 0 1 2.514 0m-4.994.39.466 1.945q-1.08.26-2.087.678l-.767-1.848A16 16 0 0 1 12.263.44M7.64 2.356 8.686 4.06a14 14 0 0 0-1.778 1.293l-1.3-1.52A16 16 0 0 1 7.64 2.356M3.833 5.609l1.52 1.3A14 14 0 0 0 4.06 8.685L2.356 7.639q.661-1.076 1.477-2.03M1.214 9.875l1.848.767a14 14 0 0 0-.678 2.087l-1.945-.466c.196-.822.457-1.62.775-2.388M.05 14.743a16 16 0 0 0 0 2.514l1.994-.155a14 14 0 0 1 0-2.204zm.39 4.994 1.945-.466q.26 1.08.678 2.087l-1.848.767a16 16 0 0 1-.775-2.388m1.917 4.624 1.704-1.047q.579.941 1.293 1.778l-1.52 1.3a16 16 0 0 1-1.477-2.031m3.253 3.806 1.3-1.52q.835.714 1.777 1.293l-1.047 1.704a16 16 0 0 1-2.03-1.477m4.266 2.619.767-1.848q1.007.42 2.087.678l-.466 1.945a16 16 0 0 1-2.388-.775m4.868 1.165.155-1.994a14 14 0 0 0 2.204 0l.155 1.994a16 16 0 0 1-2.514 0m4.994-.39-.466-1.945q1.08-.26 2.087-.677l.767 1.847a16 16 0 0 1-2.388.775m4.624-1.917-1.047-1.704q.941-.579 1.778-1.293l1.3 1.52a16 16 0 0 1-2.031 1.477m3.806-3.253-1.52-1.3a14 14 0 0 0 1.293-1.777l1.704 1.047q-.661 1.076-1.477 2.03m2.619-4.266-1.848-.767q.42-1.007.678-2.087l1.945.466a16 16 0 0 1-.775 2.388" clip-rule="evenodd"/><g clip-path="url(#statasyrupusdc__circleClip)"><g style="transform:scale(.8125);transform-origin:50% 50%"><g clip-path="url(#statasyrupusdc__syrupusdc__clip0_3022_3)"><g clip-path="url(#statasyrupusdc__syrupusdc__clip1_3022_3)"><path fill="currentColor" d="M16 0C7.13 0 0 7.13 0 16s7.13 16 16 16 16-7.13 16-16S24.87 0 16 0m-3 27.07c0 .13 0 .2-.07.27-.07.27-.33.4-.6.27-3.73-1.2-6.6-4.07-7.8-7.8-2-6.33 1.47-13.07 7.8-15.07.07-.07.2-.07.27-.07.27.07.4.27.4.53v.93c0 .33-.13.53-.4.67-2.73 1-4.93 3.13-5.93 5.93-1.93 5.13.73 10.93 5.93 12.8.2.13.4.4.4.6zm4.07-3.4c-.07.33-.27.53-.53.53h-1c-.33-.07-.53-.27-.53-.53v-1.6c-2.2-.33-3.27-1.53-3.53-3.2v-.07c0-.27.2-.47.47-.47h1.13c.2 0 .4.13.47.4.2 1 .8 1.73 2.53 1.73 1.27 0 2.2-.73 2.2-1.8s-.6-1.47-2.47-1.8c-2.8-.33-4.13-1.2-4.13-3.4 0-1.67 1.27-3 3.27-3.27V8.66c.07-.33.27-.53.53-.53h1c.33.07.53.27.53.53v1.6c1.53.13 2.73 1.27 3 2.73v.07c0 .27-.2.47-.47.47h-1.07c-.2 0-.4-.13-.47-.33-.33-1-1-1.4-2.2-1.4-1.33 0-2 .6-2 1.53s.4 1.47 2.4 1.73c2.8.33 4.2 1.13 4.2 3.47 0 1.8-1.33 3.2-3.33 3.53zm2.6 4c-.07.07-.2.07-.27.07-.27-.07-.4-.27-.4-.53v-.93c0-.33.13-.53.4-.67 2.73-1 4.93-3.13 5.93-5.93 1.93-5.13-.73-10.93-5.93-12.8-.2-.13-.4-.4-.4-.67v-.93c0-.13 0-.2.07-.27.07-.27.33-.4.6-.27 3.67 1.2 6.6 4.07 7.8 7.87 2 6.33-1.47 13.07-7.8 15.07z"/></g></g><defs><clipPath id="statasyrupusdc__syrupusdc__clip0_3022_3"><path fill="#fff" d="M0 0h32v32H0z"/></clipPath><clipPath id="statasyrupusdc__syrupusdc__clip1_3022_3"><path fill="#fff" d="M0 0h32v32H0z"/></clipPath></defs></g></g><defs><clipPath id="statasyrupusdc__circleClip"><circle cx="16" cy="16" r="13"/></clipPath></defs></svg>