<svg width="32" height="32" fill="none" viewBox="0 0 32 32" xmlns="http://www.w3.org/2000/svg"><path fill="currentColor" fill-rule="evenodd" d="m31.951 17.257-1.994-.155a14 14 0 0 0 0-2.204l1.994-.155a16 16 0 0 1 0 2.514m-.39-4.994-1.945.466q-.26-1.08-.677-2.087l1.847-.767q.478 1.154.775 2.388M29.644 7.64 27.94 8.686a14 14 0 0 0-1.293-1.778l1.52-1.3a16 16 0 0 1 1.477 2.031m-3.253-3.806-1.3 1.52a14 14 0 0 0-1.777-1.293l1.047-1.704q1.076.661 2.03 1.477m-4.266-2.619-.767 1.848a14 14 0 0 0-2.087-.678l.466-1.945c.822.196 1.62.457 2.388.775M17.257.05l-.155 1.994a14 14 0 0 0-2.204 0L14.743.049a16 16 0 0 1 2.514 0m-4.994.39.466 1.945q-1.08.26-2.087.678l-.767-1.848A16 16 0 0 1 12.263.44M7.64 2.356 8.686 4.06a14 14 0 0 0-1.778 1.293l-1.3-1.52A16 16 0 0 1 7.64 2.356M3.833 5.609l1.52 1.3A14 14 0 0 0 4.06 8.685L2.356 7.639q.661-1.076 1.477-2.03M1.214 9.875l1.848.767a14 14 0 0 0-.678 2.087l-1.945-.466c.196-.822.457-1.62.775-2.388M.05 14.743a16 16 0 0 0 0 2.514l1.994-.155a14 14 0 0 1 0-2.204zm.39 4.994 1.945-.466q.26 1.08.678 2.087l-1.848.767a16 16 0 0 1-.775-2.388m1.917 4.624 1.704-1.047q.579.941 1.293 1.778l-1.52 1.3a16 16 0 0 1-1.477-2.031m3.253 3.806 1.3-1.52q.835.714 1.777 1.293l-1.047 1.704a16 16 0 0 1-2.03-1.477m4.266 2.619.767-1.848q1.007.42 2.087.678l-.466 1.945a16 16 0 0 1-2.388-.775m4.868 1.165.155-1.994a14 14 0 0 0 2.204 0l.155 1.994a16 16 0 0 1-2.514 0m4.994-.39-.466-1.945q1.08-.26 2.087-.677l.767 1.847a16 16 0 0 1-2.388.775m4.624-1.917-1.047-1.704q.941-.579 1.778-1.293l1.3 1.52a16 16 0 0 1-2.031 1.477m3.806-3.253-1.52-1.3a14 14 0 0 0 1.293-1.777l1.704 1.047q-.661 1.076-1.477 2.03m2.619-4.266-1.848-.767q.42-1.007.678-2.087l1.945.466a16 16 0 0 1-.775 2.388" clip-rule="evenodd"/><g clip-path="url(#stataghst__circleClip)"><g style="transform:scale(.8125);transform-origin:50% 50%"><g clip-path="url(#stataghst__aavegotchighst__clip0_294_3374)"><path fill="currentColor" d="M31.17 9.84h-.82V6.56h-1.64V4.92h-1.64V3.28h-1.64V1.64h-3.28V0H9.84v1.64H6.56v1.64H4.92v1.64H3.28v1.64H1.64v3.28H0v12.31h1.64v3.28h1.64v1.64h1.64v1.64h1.64v1.64h3.28v1.64h12.31v-1.64h3.28v-1.64h1.64v-1.64h1.64v-1.64h1.64v-3.28h1.64V9.84zM9.46 14.56H4.94v4.52h3.39v-1.69H6.07v-1.13h3.39v2.82H8.33v1.13H4.94v-1.13H3.81v-4.52h1.13v-1.13h4.52zm6.21 5.65h-1.13v-2.82h-2.82v2.82h-1.13v-6.78h1.13v2.82h2.82v-2.82h1.13zm6.21-5.65h-3.95v1.69h2.82v1.13h1.13v1.69h-1.13v1.13h-.57v1.13h-1.13V20.2h-2.26v-1.13h3.95v-1.69h-2.82v-1.13h-1.13v-1.69h1.13v-1.13h1.13V12.3h1.13v1.13h1.69v1.13zm6.78 0H26.4v5.65h-1.13v-5.65h-2.26v-1.13h5.65z"/></g><defs><clipPath id="stataghst__aavegotchighst__clip0_294_3374"><path fill="#fff" d="M0 0h32v32H0z"/></clipPath></defs></g></g><defs><clipPath id="stataghst__circleClip"><circle cx="16" cy="16" r="13"/></clipPath></defs></svg>