<svg xmlns="http://www.w3.org/2000/svg" width="32" height="32" fill="none" viewBox="0 0 32 32"><path fill="currentColor" fill-rule="evenodd" d="m31.951 17.257-1.994-.155a14 14 0 0 0 0-2.204l1.994-.155a16 16 0 0 1 0 2.514m-.39-4.994-1.945.466q-.26-1.08-.677-2.087l1.847-.767q.478 1.154.775 2.388M29.644 7.64 27.94 8.686a14 14 0 0 0-1.293-1.778l1.52-1.3a16 16 0 0 1 1.477 2.031m-3.253-3.806-1.3 1.52a14 14 0 0 0-1.777-1.293l1.047-1.704q1.076.661 2.03 1.477m-4.266-2.619-.767 1.848a14 14 0 0 0-2.087-.678l.466-1.945c.822.196 1.62.457 2.388.775M17.257.05l-.155 1.994a14 14 0 0 0-2.204 0L14.743.049a16 16 0 0 1 2.514 0m-4.994.39.466 1.945q-1.08.26-2.087.678l-.767-1.848A16 16 0 0 1 12.263.44M7.64 2.356 8.686 4.06a14 14 0 0 0-1.778 1.293l-1.3-1.52A16 16 0 0 1 7.64 2.356M3.833 5.609l1.52 1.3A14 14 0 0 0 4.06 8.685L2.356 7.639q.661-1.076 1.477-2.03M1.214 9.875l1.848.767a14 14 0 0 0-.678 2.087l-1.945-.466c.196-.822.457-1.62.775-2.388M.05 14.743a16 16 0 0 0 0 2.514l1.994-.155a14 14 0 0 1 0-2.204zm.39 4.994 1.945-.466q.26 1.08.678 2.087l-1.848.767a16 16 0 0 1-.775-2.388m1.917 4.624 1.704-1.047q.579.941 1.293 1.778l-1.52 1.3a16 16 0 0 1-1.477-2.031m3.253 3.806 1.3-1.52q.835.714 1.777 1.293l-1.047 1.704a16 16 0 0 1-2.03-1.477m4.266 2.619.767-1.848q1.007.42 2.087.678l-.466 1.945a16 16 0 0 1-2.388-.775m4.868 1.165.155-1.994a14 14 0 0 0 2.204 0l.155 1.994a16 16 0 0 1-2.514 0m4.994-.39-.466-1.945q1.08-.26 2.087-.677l.767 1.847a16 16 0 0 1-2.388.775m4.624-1.917-1.047-1.704q.941-.579 1.778-1.293l1.3 1.52a16 16 0 0 1-2.031 1.477m3.806-3.253-1.52-1.3a14 14 0 0 0 1.293-1.777l1.704 1.047q-.661 1.076-1.477 2.03m2.619-4.266-1.848-.767q.42-1.007.678-2.087l1.945.466a16 16 0 0 1-.775 2.388" clip-rule="evenodd"/><g clip-path="url(#sh46f__circleClip)"><g style="transform:scale(.8125);transform-origin:50% 50%"><g clip-path="url(#sh46f__xprw8k__clip0_298_273)"><path fill="currentColor" d="M16 0C7.16 0 0 7.16 0 16s7.16 16 16 16 16-7.16 16-16S24.84 0 16 0m.48 4.06 7.3 4.18v1.6l-7.3-4.11zm7.22 5.92-4.23 2.43-1.78 1.01-.03.03c-.02.04 0 .09.03.11l4.49 2.4-1.37.73-5.79-3.28 5.8-3.41.03-.03v-.02c.02-.04 0-.09-.03-.11l-1.41-.82-2.95-1.7s-.06-.01-.08 0l-4.37 2.53-1.12-.48-.36-.16 5.87-3.32 7.3 4.1zm-2.85 12.07s.04-.04.04-.07v-5.16l1.41-.74.05 6.75-5.79 3.31v-1.57l4.29-2.53zm-3.07-1.88-7.36-4.24.03-6.59.38.16 1.11.5.03 5.29s.02.06.04.07l5.77 3.22zm-2.83-6.91.02-1.59 4.41-2.48 1.23.72zm-5.9-4.94 7.28-4.29V5.7l-6.01 3.43c-.01 0-.03.02-.03.04v.01s-.01.01-.01.02v6.73l-1.2.89-.03-8.51zm.05 13.65 4.28-2.45 1.38.76-5.65 3.35v-1.66zm7.33 5.97-7.26-4.15 5.82-3.44.03-.03c.02-.04 0-.09-.03-.11l-1.56-.85-4.27-2.38 1.21-.88 7.3 4.23-4.32 2.45-1.49.85-.03.03c-.02.04 0 .09.03.11l.03.02 4.53 2.58s.03.01.04.01l.01-.01h.06l5.91-3.41.94.44.37.17-7.32 4.36zm-.05-1.79-4.33-2.45 1.33-.76 3 1.65zm6.13-3.32-.05-6.88s-.01-.05-.04-.07l-4.52-2.4 1.61-.91 4.3 2.71.03 8.17z"/></g><defs><clipPath id="sh46f__xprw8k__clip0_298_273"><path fill="#fff" d="M0 0h32v32H0z"/></clipPath></defs></g></g><defs><clipPath id="sh46f__circleClip"><circle cx="16" cy="16" r="13"/></clipPath></defs></svg>