<svg xmlns="http://www.w3.org/2000/svg" width="32" height="32" fill="none" viewBox="0 0 32 32"><path fill="currentColor" fill-rule="evenodd" d="m31.951 17.257-1.994-.155a14 14 0 0 0 0-2.204l1.994-.155a16 16 0 0 1 0 2.514m-.39-4.994-1.945.466q-.26-1.08-.677-2.087l1.847-.767q.478 1.154.775 2.388M29.644 7.64 27.94 8.686a14 14 0 0 0-1.293-1.778l1.52-1.3a16 16 0 0 1 1.477 2.031m-3.253-3.806-1.3 1.52a14 14 0 0 0-1.777-1.293l1.047-1.704q1.076.661 2.03 1.477m-4.266-2.619-.767 1.848a14 14 0 0 0-2.087-.678l.466-1.945c.822.196 1.62.457 2.388.775M17.257.05l-.155 1.994a14 14 0 0 0-2.204 0L14.743.049a16 16 0 0 1 2.514 0m-4.994.39.466 1.945q-1.08.26-2.087.678l-.767-1.848A16 16 0 0 1 12.263.44M7.64 2.356 8.686 4.06a14 14 0 0 0-1.778 1.293l-1.3-1.52A16 16 0 0 1 7.64 2.356M3.833 5.609l1.52 1.3A14 14 0 0 0 4.06 8.685L2.356 7.639q.661-1.076 1.477-2.03M1.214 9.875l1.848.767a14 14 0 0 0-.678 2.087l-1.945-.466c.196-.822.457-1.62.775-2.388M.05 14.743a16 16 0 0 0 0 2.514l1.994-.155a14 14 0 0 1 0-2.204zm.39 4.994 1.945-.466q.26 1.08.678 2.087l-1.848.767a16 16 0 0 1-.775-2.388m1.917 4.624 1.704-1.047q.579.941 1.293 1.778l-1.52 1.3a16 16 0 0 1-1.477-2.031m3.253 3.806 1.3-1.52q.835.714 1.777 1.293l-1.047 1.704a16 16 0 0 1-2.03-1.477m4.266 2.619.767-1.848q1.007.42 2.087.678l-.466 1.945a16 16 0 0 1-2.388-.775m4.868 1.165.155-1.994a14 14 0 0 0 2.204 0l.155 1.994a16 16 0 0 1-2.514 0m4.994-.39-.466-1.945q1.08-.26 2.087-.677l.767 1.847a16 16 0 0 1-2.388.775m4.624-1.917-1.047-1.704q.941-.579 1.778-1.293l1.3 1.52a16 16 0 0 1-2.031 1.477m3.806-3.253-1.52-1.3a14 14 0 0 0 1.293-1.777l1.704 1.047q-.661 1.076-1.477 2.03m2.619-4.266-1.848-.767q.42-1.007.678-2.087l1.945.466a16 16 0 0 1-.775 2.388" clip-rule="evenodd"/><g clip-path="url(#t1w69g__circleClip)"><g style="transform:scale(.8125);transform-origin:50% 50%"><g clip-path="url(#t1w69g__firgg__clip0_298_474)"><path fill="currentColor" d="M16 0C7.16 0 0 7.16 0 16s7.16 16 16 16 16-7.16 16-16S24.84 0 16 0M8.29 8.17c1.62-1.58 3.55-2.59 5.78-2.99.43-.08.87-.1 1.3-.16.05 0 .1-.02.15-.03h.94l.56.06c1.58.15 3.05.62 4.42 1.4.02.01.04.03.07.05l-6.72 4.82c-.09-.08-.17-.16-.26-.25-.47-.46-.95-.92-1.41-1.38-.08-.07-.13-.08-.23-.03a7.2 7.2 0 0 0-2.77 2.42l-.1.15-2.47-3.29c.25-.26.48-.53.73-.77zM5.22 18.18c-.54-2.69-.1-5.22 1.23-7.64l4.99 6.55-1.01 1.03c-.25.26-.5.52-.76.77-.07.07-.08.13-.03.22a7.2 7.2 0 0 0 2.42 2.77c.03.02.07.04.1.07 0 0 0 .01.03.05l-3.26 2.45c-1.95-1.68-3.21-3.75-3.72-6.26zm19.12 4.98c-1.78 2.03-4 3.27-6.67 3.7-.34.05-.68.07-1.02.11-.04 0-.09.02-.13.03h-1.03c-.27-.03-.54-.05-.81-.08-1.45-.17-2.85-.64-4.12-1.36-.02-.01-.04-.03-.07-.05 2.21-1.65 4.4-3.29 6.61-4.94l.67.65c.37.36.74.72 1.1 1.09.09.09.15.09.26.04 1.1-.55 2.04-1.37 2.73-2.39l.11-.16s.06.07.08.1c.77 1.02 1.53 2.04 2.3 3.06.07.09.06.14-.01.22zm1.21-1.75-4.92-6.5.92-.95c.26-.27.51-.53.77-.79.08-.08.08-.14.03-.24a7.1 7.1 0 0 0-2.45-2.8c-.04-.03-.07-.05-.14-.1l3.28-2.46c1.86 1.59 3.09 3.55 3.66 5.91.71 2.95.08 5.87-1.15 7.93"/></g><defs><clipPath id="t1w69g__firgg__clip0_298_474"><path fill="#fff" d="M0 0h32v32H0z"/></clipPath></defs></g></g><defs><clipPath id="t1w69g__circleClip"><circle cx="16" cy="16" r="13"/></clipPath></defs></svg>