<svg width="32" height="32" fill="none" viewBox="0 0 32 32" xmlns="http://www.w3.org/2000/svg"><path fill="currentColor" fill-rule="evenodd" d="m31.951 17.257-1.994-.155a14 14 0 0 0 0-2.204l1.994-.155a16 16 0 0 1 0 2.514m-.39-4.994-1.945.466q-.26-1.08-.677-2.087l1.847-.767q.478 1.154.775 2.388M29.644 7.64 27.94 8.686a14 14 0 0 0-1.293-1.778l1.52-1.3a16 16 0 0 1 1.477 2.031m-3.253-3.806-1.3 1.52a14 14 0 0 0-1.777-1.293l1.047-1.704q1.076.661 2.03 1.477m-4.266-2.619-.767 1.848a14 14 0 0 0-2.087-.678l.466-1.945c.822.196 1.62.457 2.388.775M17.257.05l-.155 1.994a14 14 0 0 0-2.204 0L14.743.049a16 16 0 0 1 2.514 0m-4.994.39.466 1.945q-1.08.26-2.087.678l-.767-1.848A16 16 0 0 1 12.263.44M7.64 2.356 8.686 4.06a14 14 0 0 0-1.778 1.293l-1.3-1.52A16 16 0 0 1 7.64 2.356M3.833 5.609l1.52 1.3A14 14 0 0 0 4.06 8.685L2.356 7.639q.661-1.076 1.477-2.03M1.214 9.875l1.848.767a14 14 0 0 0-.678 2.087l-1.945-.466c.196-.822.457-1.62.775-2.388M.05 14.743a16 16 0 0 0 0 2.514l1.994-.155a14 14 0 0 1 0-2.204zm.39 4.994 1.945-.466q.26 1.08.678 2.087l-1.848.767a16 16 0 0 1-.775-2.388m1.917 4.624 1.704-1.047q.579.941 1.293 1.778l-1.52 1.3a16 16 0 0 1-1.477-2.031m3.253 3.806 1.3-1.52q.835.714 1.777 1.293l-1.047 1.704a16 16 0 0 1-2.03-1.477m4.266 2.619.767-1.848q1.007.42 2.087.678l-.466 1.945a16 16 0 0 1-2.388-.775m4.868 1.165.155-1.994a14 14 0 0 0 2.204 0l.155 1.994a16 16 0 0 1-2.514 0m4.994-.39-.466-1.945q1.08-.26 2.087-.677l.767 1.847a16 16 0 0 1-2.388.775m4.624-1.917-1.047-1.704q.941-.579 1.778-1.293l1.3 1.52a16 16 0 0 1-2.031 1.477m3.806-3.253-1.52-1.3a14 14 0 0 0 1.293-1.777l1.704 1.047q-.661 1.076-1.477 2.03m2.619-4.266-1.848-.767q.42-1.007.678-2.087l1.945.466a16 16 0 0 1-.775 2.388" clip-rule="evenodd"/><g clip-path="url(#statacbbtc__circleClip)"><g fill="currentColor" style="transform:scale(.8125);transform-origin:50% 50%"><path d="m15.94 13.52-.43 1.71c.48.12 1.97.61 2.21-.36.25-1.01-1.3-1.23-1.79-1.35zm-.64 2.57-.47 1.88c.58.14 2.37.72 2.63-.34.28-1.11-1.58-1.39-2.16-1.54"/><path d="M17.87 8.43a7.794 7.794 0 0 0-9.45 5.68 7.794 7.794 0 0 0 5.68 9.45 7.794 7.794 0 0 0 9.45-5.68 7.794 7.794 0 0 0-5.68-9.45m1.55 6.46c-.11.76-.53 1.13-1.09 1.26.77.4 1.16 1.01.79 2.08-.46 1.32-1.56 1.43-3.02 1.16l-.35 1.42-.86-.21.35-1.4c-.22-.06-.45-.11-.68-.18l-.35 1.41-.85-.21.35-1.42c-.2-.05-.4-.11-.61-.16l-1.11-.28.42-.98s.63.17.62.16c.24.06.35-.1.39-.2l.56-2.24s.06.02.09.02c-.03-.01-.07-.02-.09-.03l.4-1.6c.01-.18-.05-.41-.4-.5.01 0-.62-.15-.62-.15l.23-.91 1.18.29c.18.05.36.09.55.13l.35-1.41.86.21-.34 1.38c.23.05.46.11.69.16l.34-1.37.86.21-.35 1.41c1.08.37 1.87.93 1.72 1.97z"/><path d="M16 0C7.16 0 0 7.16 0 16s7.16 16 16 16 16-7.16 16-16S24.84 0 16 0m7.69 16c0 .32-.03.63-.06.94h3.58C26.73 22.71 21.9 27.25 16 27.25 9.79 27.25 4.75 22.21 4.75 16S9.79 4.75 16 4.75s10.73 4.54 11.21 10.31h-3.58c.04.31.06.62.06.94"/></g></g><defs><clipPath id="statacbbtc__circleClip"><circle cx="16" cy="16" r="13"/></clipPath></defs></svg>