<svg width="32" height="32" fill="none" viewBox="0 0 32 32" xmlns="http://www.w3.org/2000/svg"><path fill="currentColor" fill-rule="evenodd" d="m31.951 17.257-1.994-.155a14 14 0 0 0 0-2.204l1.994-.155a16 16 0 0 1 0 2.514m-.39-4.994-1.945.466q-.26-1.08-.677-2.087l1.847-.767q.478 1.154.775 2.388M29.644 7.64 27.94 8.686a14 14 0 0 0-1.293-1.778l1.52-1.3a16 16 0 0 1 1.477 2.031m-3.253-3.806-1.3 1.52a14 14 0 0 0-1.777-1.293l1.047-1.704q1.076.661 2.03 1.477m-4.266-2.619-.767 1.848a14 14 0 0 0-2.087-.678l.466-1.945c.822.196 1.62.457 2.388.775M17.257.05l-.155 1.994a14 14 0 0 0-2.204 0L14.743.049a16 16 0 0 1 2.514 0m-4.994.39.466 1.945q-1.08.26-2.087.678l-.767-1.848A16 16 0 0 1 12.263.44M7.64 2.356 8.686 4.06a14 14 0 0 0-1.778 1.293l-1.3-1.52A16 16 0 0 1 7.64 2.356M3.833 5.609l1.52 1.3A14 14 0 0 0 4.06 8.685L2.356 7.639q.661-1.076 1.477-2.03M1.214 9.875l1.848.767a14 14 0 0 0-.678 2.087l-1.945-.466c.196-.822.457-1.62.775-2.388M.05 14.743a16 16 0 0 0 0 2.514l1.994-.155a14 14 0 0 1 0-2.204zm.39 4.994 1.945-.466q.26 1.08.678 2.087l-1.848.767a16 16 0 0 1-.775-2.388m1.917 4.624 1.704-1.047q.579.941 1.293 1.778l-1.52 1.3a16 16 0 0 1-1.477-2.031m3.253 3.806 1.3-1.52q.835.714 1.777 1.293l-1.047 1.704a16 16 0 0 1-2.03-1.477m4.266 2.619.767-1.848q1.007.42 2.087.678l-.466 1.945a16 16 0 0 1-2.388-.775m4.868 1.165.155-1.994a14 14 0 0 0 2.204 0l.155 1.994a16 16 0 0 1-2.514 0m4.994-.39-.466-1.945q1.08-.26 2.087-.677l.767 1.847a16 16 0 0 1-2.388.775m4.624-1.917-1.047-1.704q.941-.579 1.778-1.293l1.3 1.52a16 16 0 0 1-2.031 1.477m3.806-3.253-1.52-1.3a14 14 0 0 0 1.293-1.777l1.704 1.047q-.661 1.076-1.477 2.03m2.619-4.266-1.848-.767q.42-1.007.678-2.087l1.945.466a16 16 0 0 1-.775 2.388" clip-rule="evenodd"/><g clip-path="url(#statarlusd__circleClip)"><g style="transform:scale(.8125);transform-origin:50% 50%"><path fill="currentColor" d="M16 0C7.16 0 0 7.16 0 16s7.16 16 16 16 16-7.16 16-16S24.84 0 16 0m6.96 23.82c-.36.63-.88 1.15-1.51 1.51s-1.34.55-2.06.55-1.44-.19-2.06-.55c-.63-.36-1.15-.88-1.51-1.51s-.55-1.34-.55-2.06c0-.8.28-1.54.65-2.22.22-.38.27-.82.16-1.24a1.65 1.65 0 0 0-.75-1c-1.06-.61-1.9.07-2.24.61-.41.66-.91 1.27-1.6 1.67a4.13 4.13 0 0 1-4.12 0c-.63-.36-1.15-.88-1.51-1.51s-.55-1.34-.55-2.06.19-1.44.55-2.06c.36-.63.88-1.15 1.51-1.51s1.34-.55 2.06-.55 1.44.19 2.06.55c.69.4 1.19 1.01 1.6 1.67.22.37.57.65.99.76s.86.06 1.24-.15c1.05-.6.89-1.67.59-2.24-.36-.68-.65-1.42-.65-2.22 0-.72.19-1.44.55-2.06.36-.63.88-1.15 1.51-1.51s1.34-.55 2.06-.55 1.44.19 2.06.55c.63.36 1.15.88 1.51 1.51s.55 1.34.55 2.06-.19 1.44-.55 2.06-.88 1.15-1.51 1.51c-.7.4-1.48.52-2.26.55-.43 0-.84.18-1.15.49s-.48.72-.48 1.15c0 1.2.97 1.62 1.63 1.64.78.03 1.57.14 2.26.55.63.35 1.15.87 1.51 1.5s.55 1.34.55 2.06-.19 1.44-.55 2.06z"/></g></g><defs><clipPath id="statarlusd__circleClip"><circle cx="16" cy="16" r="13"/></clipPath></defs></svg>