<svg xmlns="http://www.w3.org/2000/svg" fill="none" viewBox="0 0 32 32"><path fill="currentColor" fill-rule="evenodd" d="m31.951 17.257-1.994-.155a14 14 0 0 0 0-2.204l1.994-.155a16 16 0 0 1 0 2.514m-.39-4.994-1.945.466q-.26-1.08-.677-2.087l1.847-.767q.478 1.154.775 2.388M29.644 7.64 27.94 8.686a14 14 0 0 0-1.293-1.778l1.52-1.3a16 16 0 0 1 1.477 2.031m-3.253-3.806-1.3 1.52a14 14 0 0 0-1.777-1.293l1.047-1.704q1.076.661 2.03 1.477m-4.266-2.619-.767 1.848a14 14 0 0 0-2.087-.678l.466-1.945c.822.196 1.62.457 2.388.775M17.257.05l-.155 1.994a14 14 0 0 0-2.204 0L14.743.049a16 16 0 0 1 2.514 0m-4.994.39.466 1.945q-1.08.26-2.087.678l-.767-1.848A16 16 0 0 1 12.263.44M7.64 2.356 8.686 4.06a14 14 0 0 0-1.778 1.293l-1.3-1.52A16 16 0 0 1 7.64 2.356M3.833 5.609l1.52 1.3A14 14 0 0 0 4.06 8.685L2.356 7.639q.661-1.076 1.477-2.03M1.214 9.875l1.848.767a14 14 0 0 0-.678 2.087l-1.945-.466c.196-.822.457-1.62.775-2.388M.05 14.743a16 16 0 0 0 0 2.514l1.994-.155a14 14 0 0 1 0-2.204zm.39 4.994 1.945-.466q.26 1.08.678 2.087l-1.848.767a16 16 0 0 1-.775-2.388m1.917 4.624 1.704-1.047q.579.941 1.293 1.778l-1.52 1.3a16 16 0 0 1-1.477-2.031m3.253 3.806 1.3-1.52q.835.714 1.777 1.293l-1.047 1.704a16 16 0 0 1-2.03-1.477m4.266 2.619.767-1.848q1.007.42 2.087.678l-.466 1.945a16 16 0 0 1-2.388-.775m4.868 1.165.155-1.994a14 14 0 0 0 2.204 0l.155 1.994a16 16 0 0 1-2.514 0m4.994-.39-.466-1.945q1.08-.26 2.087-.677l.767 1.847a16 16 0 0 1-2.388.775m4.624-1.917-1.047-1.704q.941-.579 1.778-1.293l1.3 1.52a16 16 0 0 1-2.031 1.477m3.806-3.253-1.52-1.3a14 14 0 0 0 1.293-1.777l1.704 1.047q-.661 1.076-1.477 2.03m2.619-4.266-1.848-.767q.42-1.007.678-2.087l1.945.466a16 16 0 0 1-.775 2.388" clip-rule="evenodd"/><g clip-path="url(#statapyusd__circleClip)"><g style="transform:scale(.8125);transform-origin:50% 50%"><g fill="currentColor" clip-path="url(#statapyusd__paypalusd__clip0_298_734)"><path d="M18.66 8.26h-5.25l-.28 1.81 5.4.02c1.51 0 2.76 1.25 2.76 2.76 0 1.52-1.24 2.76-2.76 2.76h-6.29l-1.23 7.93h3.1l.81-5.06c.11-.62.64-1.08 1.27-1.08h2.38c2.51 0 4.61-1.96 4.69-4.46.06-2.57-2.02-4.69-4.59-4.69z"/><path d="M19.47 12.85c0-.52-.42-.94-.94-.94l-5.7-.02-.3 1.91h6.01c.52 0 .94-.42.94-.94z"/><path d="M16 0C7.16 0 0 7.16 0 16s7.16 16 16 16 16-7.16 16-16S24.84 0 16 0m2.64 19.25h-1.98l-.81 5.04c-.11.62-.64 1.08-1.27 1.08h-4.23c-.07 0-.13 0-.2-.02-.7-.11-1.18-.76-1.07-1.46l.43-2.81.87-5.5H8.77c-.49 0-.91-.42-.91-.91s.41-.91.91-.91h1.89l.02-.13.28-1.76H9.35a.944.944 0 0 1-.91-.93c0-.51.41-.91.91-.91h1.89v-.02l.4-2.55c.09-.62.64-1.08 1.27-1.08h5.63c3.51 0 6.46 2.78 6.52 6.31.06 3.59-2.85 6.54-6.42 6.54z"/></g><defs><clipPath id="statapyusd__paypalusd__clip0_298_734"><path fill="#fff" d="M0 0h32v32H0z"/></clipPath></defs></g></g><defs><clipPath id="statapyusd__circleClip"><circle cx="16" cy="16" r="13"/></clipPath></defs></svg>