<svg xmlns="http://www.w3.org/2000/svg" width="32" height="32" fill="none" viewBox="0 0 32 32"><path fill="currentColor" fill-rule="evenodd" d="m31.951 17.257-1.994-.155a14 14 0 0 0 0-2.204l1.994-.155a16 16 0 0 1 0 2.514m-.39-4.994-1.945.466q-.26-1.08-.677-2.087l1.847-.767q.478 1.154.775 2.388M29.644 7.64 27.94 8.686a14 14 0 0 0-1.293-1.778l1.52-1.3a16 16 0 0 1 1.477 2.031m-3.253-3.806-1.3 1.52a14 14 0 0 0-1.777-1.293l1.047-1.704q1.076.661 2.03 1.477m-4.266-2.619-.767 1.848a14 14 0 0 0-2.087-.678l.466-1.945c.822.196 1.62.457 2.388.775M17.257.05l-.155 1.994a14 14 0 0 0-2.204 0L14.743.049a16 16 0 0 1 2.514 0m-4.994.39.466 1.945q-1.08.26-2.087.678l-.767-1.848A16 16 0 0 1 12.263.44M7.64 2.356 8.686 4.06a14 14 0 0 0-1.778 1.293l-1.3-1.52A16 16 0 0 1 7.64 2.356M3.833 5.609l1.52 1.3A14 14 0 0 0 4.06 8.685L2.356 7.639q.661-1.076 1.477-2.03M1.214 9.875l1.848.767a14 14 0 0 0-.678 2.087l-1.945-.466c.196-.822.457-1.62.775-2.388M.05 14.743a16 16 0 0 0 0 2.514l1.994-.155a14 14 0 0 1 0-2.204zm.39 4.994 1.945-.466q.26 1.08.678 2.087l-1.848.767a16 16 0 0 1-.775-2.388m1.917 4.624 1.704-1.047q.579.941 1.293 1.778l-1.52 1.3a16 16 0 0 1-1.477-2.031m3.253 3.806 1.3-1.52q.835.714 1.777 1.293l-1.047 1.704a16 16 0 0 1-2.03-1.477m4.266 2.619.767-1.848q1.007.42 2.087.678l-.466 1.945a16 16 0 0 1-2.388-.775m4.868 1.165.155-1.994a14 14 0 0 0 2.204 0l.155 1.994a16 16 0 0 1-2.514 0m4.994-.39-.466-1.945q1.08-.26 2.087-.677l.767 1.847a16 16 0 0 1-2.388.775m4.624-1.917-1.047-1.704q.941-.579 1.778-1.293l1.3 1.52a16 16 0 0 1-2.031 1.477m3.806-3.253-1.52-1.3a14 14 0 0 0 1.293-1.777l1.704 1.047q-.661 1.076-1.477 2.03m2.619-4.266-1.848-.767q.42-1.007.678-2.087l1.945.466a16 16 0 0 1-.775 2.388" clip-rule="evenodd"/><g clip-path="url(#harmony__circleClip)"><g style="transform:scale(.8125);transform-origin:50% 50%"><g fill="currentColor" clip-path="url(#harmony__clip0_298_374)"><path d="M7.14 21.01v1.21c0 1.55 1.21 2.76 2.75 2.76s2.75-1.21 2.75-2.76l.07-4.91c-1.14.2-2.21.47-3.22.94-1.48.61-2.35 1.68-2.35 2.76m5.5-11.17c0-1.55-1.21-2.76-2.75-2.76S7.14 8.36 7.14 9.84v7.54c.47-.4 1.01-.67 1.54-.94 1.27-.54 2.62-.94 3.96-1.14zm12.21 1.21V9.84c0-1.55-1.21-2.76-2.75-2.76s-2.75 1.21-2.75 2.76v4.98c1.14-.2 2.21-.47 3.22-.94 1.48-.67 2.35-1.68 2.28-2.83m-5.43 11.17c0 1.55 1.21 2.76 2.75 2.76s2.75-1.21 2.75-2.76v-7.54c-.47.4-1.01.67-1.54.94-1.27.54-2.62.94-3.96 1.14z"/><path d="M16 0C7.16 0 0 7.16 0 16s7.16 16 16 16 16-7.16 16-16S24.84 0 16 0m10.8 22.15c0 2.49-2.01 4.51-4.56 4.57-2.62.07-4.69-2.02-4.76-4.57V16.9c-.47.07-.94.07-1.48.07s-1.01.07-1.48.07v5.18c0 2.49-2.01 4.51-4.56 4.57-2.62.07-4.7-2.02-4.76-4.57V9.84c.07-2.49 2.08-4.57 4.56-4.57 2.62-.07 4.76 2.02 4.76 4.57v5.32c.47-.07.94-.07 1.48-.07s1.01-.07 1.48-.07V9.84c.07-2.56 2.15-4.64 4.7-4.64s4.63 2.09 4.63 4.64v12.31z"/></g><defs><clipPath id="harmony__clip0_298_374"><path fill="#fff" d="M0 0h32v32H0z"/></clipPath></defs></g></g><defs><clipPath id="harmony__circleClip"><circle cx="16" cy="16" r="13"/></clipPath></defs></svg>