<svg xmlns="http://www.w3.org/2000/svg" width="32" height="32" fill="none" viewBox="0 0 32 32"><path fill="currentColor" fill-rule="evenodd" d="m31.951 17.257-1.994-.155a14 14 0 0 0 0-2.204l1.994-.155a16 16 0 0 1 0 2.514m-.39-4.994-1.945.466q-.26-1.08-.677-2.087l1.847-.767q.478 1.154.775 2.388M29.644 7.64 27.94 8.686a14 14 0 0 0-1.293-1.778l1.52-1.3a16 16 0 0 1 1.477 2.031m-3.253-3.806-1.3 1.52a14 14 0 0 0-1.777-1.293l1.047-1.704q1.076.661 2.03 1.477m-4.266-2.619-.767 1.848a14 14 0 0 0-2.087-.678l.466-1.945c.822.196 1.62.457 2.388.775M17.257.05l-.155 1.994a14 14 0 0 0-2.204 0L14.743.049a16 16 0 0 1 2.514 0m-4.994.39.466 1.945q-1.08.26-2.087.678l-.767-1.848A16 16 0 0 1 12.263.44M7.64 2.356 8.686 4.06a14 14 0 0 0-1.778 1.293l-1.3-1.52A16 16 0 0 1 7.64 2.356M3.833 5.609l1.52 1.3A14 14 0 0 0 4.06 8.685L2.356 7.639q.661-1.076 1.477-2.03M1.214 9.875l1.848.767a14 14 0 0 0-.678 2.087l-1.945-.466c.196-.822.457-1.62.775-2.388M.05 14.743a16 16 0 0 0 0 2.514l1.994-.155a14 14 0 0 1 0-2.204zm.39 4.994 1.945-.466q.26 1.08.678 2.087l-1.848.767a16 16 0 0 1-.775-2.388m1.917 4.624 1.704-1.047q.579.941 1.293 1.778l-1.52 1.3a16 16 0 0 1-1.477-2.031m3.253 3.806 1.3-1.52q.835.714 1.777 1.293l-1.047 1.704a16 16 0 0 1-2.03-1.477m4.266 2.619.767-1.848q1.007.42 2.087.678l-.466 1.945a16 16 0 0 1-2.388-.775m4.868 1.165.155-1.994a14 14 0 0 0 2.204 0l.155 1.994a16 16 0 0 1-2.514 0m4.994-.39-.466-1.945q1.08-.26 2.087-.677l.767 1.847a16 16 0 0 1-2.388.775m4.624-1.917-1.047-1.704q.941-.579 1.778-1.293l1.3 1.52a16 16 0 0 1-2.031 1.477m3.806-3.253-1.52-1.3a14 14 0 0 0 1.293-1.777l1.704 1.047q-.661 1.076-1.477 2.03m2.619-4.266-1.848-.767q.42-1.007.678-2.087l1.945.466a16 16 0 0 1-.775 2.388" clip-rule="evenodd"/><g clip-path="url(#ncqi9__circleClip)"><g fill="currentColor" style="transform:scale(.8125);transform-origin:50% 50%"><path d="M31.368 20.534A15.99 15.99 0 0 1 18.851 31.84v-4.565a7.5 7.5 0 0 0 3.962-3.49c.57-1.084.87-2.298.86-3.532 0-4.032-2.911-5.647-5.633-6.851l-1.38-.612c-1.481-.662-2.602-1.254-2.602-2.267 0-1.394 1.22-2.147 2.361-2.147 1.221 0 1.912.452 2.642 1.726l.57.983 3.652-2.348-.48-.882a7.12 7.12 0 0 0-3.952-3.411V.25c.35.06.7.14 1.06.23.03 0 .07.02.11.02s.08.02.12.03h.03c.1.02.19.05.29.08 8.487 2.48 13.369 11.389 10.898 19.895z"/><path d="M19.201 20.484c0 1.836-1.66 2.98-3.192 2.98-1.84 0-2.891-1.525-3.092-2.94l-.17-1.224-4.412 1.244.2.993c.63 3.12 2.752 5.357 5.643 6.04V32c-.78-.09-1.56-.24-2.321-.451-.11-.02-.21-.06-.32-.09A16.04 16.04 0 0 1 0 16.05V.632C0 .281.28 0 .63 0h13.548v4.414a6.5 6.5 0 0 0-3.772 2.929 6.14 6.14 0 0 0-.81 3.11v.09c.04 3.601 2.681 5.106 5.172 6.24l1.251.541.1.05c1.981.903 3.092 1.505 3.092 3.11z"/></g></g><defs><clipPath id="ncqi9__circleClip"><circle cx="16" cy="16" r="13"/></clipPath></defs></svg>