<svg xmlns="http://www.w3.org/2000/svg" width="32" height="32" fill="none" viewBox="0 0 32 32"><path fill="currentColor" fill-rule="evenodd" d="m31.951 17.257-1.994-.155a14 14 0 0 0 0-2.204l1.994-.155a16 16 0 0 1 0 2.514m-.39-4.994-1.945.466q-.26-1.08-.677-2.087l1.847-.767q.478 1.154.775 2.388M29.644 7.64 27.94 8.686a14 14 0 0 0-1.293-1.778l1.52-1.3a16 16 0 0 1 1.477 2.031m-3.253-3.806-1.3 1.52a14 14 0 0 0-1.777-1.293l1.047-1.704q1.076.661 2.03 1.477m-4.266-2.619-.767 1.848a14 14 0 0 0-2.087-.678l.466-1.945c.822.196 1.62.457 2.388.775M17.257.05l-.155 1.994a14 14 0 0 0-2.204 0L14.743.049a16 16 0 0 1 2.514 0m-4.994.39.466 1.945q-1.08.26-2.087.678l-.767-1.848A16 16 0 0 1 12.263.44M7.64 2.356 8.686 4.06a14 14 0 0 0-1.778 1.293l-1.3-1.52A16 16 0 0 1 7.64 2.356M3.833 5.609l1.52 1.3A14 14 0 0 0 4.06 8.685L2.356 7.639q.661-1.076 1.477-2.03M1.214 9.875l1.848.767a14 14 0 0 0-.678 2.087l-1.945-.466c.196-.822.457-1.62.775-2.388M.05 14.743a16 16 0 0 0 0 2.514l1.994-.155a14 14 0 0 1 0-2.204zm.39 4.994 1.945-.466q.26 1.08.678 2.087l-1.848.767a16 16 0 0 1-.775-2.388m1.917 4.624 1.704-1.047q.579.941 1.293 1.778l-1.52 1.3a16 16 0 0 1-1.477-2.031m3.253 3.806 1.3-1.52q.835.714 1.777 1.293l-1.047 1.704a16 16 0 0 1-2.03-1.477m4.266 2.619.767-1.848q1.007.42 2.087.678l-.466 1.945a16 16 0 0 1-2.388-.775m4.868 1.165.155-1.994a14 14 0 0 0 2.204 0l.155 1.994a16 16 0 0 1-2.514 0m4.994-.39-.466-1.945q1.08-.26 2.087-.677l.767 1.847a16 16 0 0 1-2.388.775m4.624-1.917-1.047-1.704q.941-.579 1.778-1.293l1.3 1.52a16 16 0 0 1-2.031 1.477m3.806-3.253-1.52-1.3a14 14 0 0 0 1.293-1.777l1.704 1.047q-.661 1.076-1.477 2.03m2.619-4.266-1.848-.767q.42-1.007.678-2.087l1.945.466a16 16 0 0 1-.775 2.388" clip-rule="evenodd"/><g clip-path="url(#4klhj__circleClip)"><g style="transform:scale(.8125);transform-origin:50% 50%"><g clip-path="url(#4klhj__1cn9fj__clip0_298_429)"><path fill="currentColor" d="M16 0C7.16 0 0 7.16 0 16s7.16 16 16 16 16-7.16 16-16S24.84 0 16 0m-3.83 19.95s-.03.01-.05.02c-.03.02-.06.03-.09.04-.04.02-.09.03-.13.04-.03 0-.05.01-.08.01-.05 0-.1.01-.15 0h-.08c-.05 0-.09-.01-.14-.03-.03 0-.06-.02-.09-.03-.02 0-.04 0-.06-.02a.94.94 0 0 1-.43-.43l-2.25-4.57a.92.92 0 0 1-.05-.69l.56-1.7c.04-.11.06-.18.1-.24.03-.05.06-.09.12-.12l8.76-5.42c.08-.05.17-.08.26-.1h.01c.07-.02.14-.02.21-.02h.07c.06 0 .12.02.18.04.03 0 .07.02.1.03.05.02.09.04.13.07.04.02.08.05.11.08.01.01.03.02.05.03.22.22.35.54.25.9l-.51 1.87c-.03.09-.07.18-.12.26l-6.39 9.68c-.07.11-.17.19-.27.26zm11.11-2.2-.56 1.7c-.04.11-.06.18-.1.24-.03.05-.06.09-.12.12l-8.76 5.42c-.08.05-.17.08-.26.1-.07.02-.14.02-.21.02h-.07c-.06 0-.12-.02-.18-.04-.03 0-.07-.02-.1-.03a.5.5 0 0 1-.13-.07.4.4 0 0 1-.11-.08.2.2 0 0 0-.05-.03.9.9 0 0 1-.25-.9l.51-1.87c.03-.09.07-.18.12-.26l6.39-9.68c.07-.11.17-.19.27-.26 0 0 .03-.03.05-.04.03-.02.06-.03.09-.04.04-.02.09-.03.13-.04.03 0 .05-.01.08-.01.05 0 .1-.01.15 0h.08c.05 0 .09.01.14.03.03 0 .06.02.09.03.02 0 .04 0 .06.02.18.09.33.23.43.43l2.25 4.57c.11.21.12.46.05.69z"/></g><defs><clipPath id="4klhj__1cn9fj__clip0_298_429"><path fill="#fff" d="M0 0h32v32H0z"/></clipPath></defs></g></g><defs><clipPath id="4klhj__circleClip"><circle cx="16" cy="16" r="13"/></clipPath></defs></svg>