<svg width="32" height="32" fill="none" viewBox="0 0 32 32" xmlns="http://www.w3.org/2000/svg"><path fill="currentColor" fill-rule="evenodd" d="m31.951 17.257-1.994-.155a14 14 0 0 0 0-2.204l1.994-.155a16 16 0 0 1 0 2.514m-.39-4.994-1.945.466q-.26-1.08-.677-2.087l1.847-.767q.478 1.154.775 2.388M29.644 7.64 27.94 8.686a14 14 0 0 0-1.293-1.778l1.52-1.3a16 16 0 0 1 1.477 2.031m-3.253-3.806-1.3 1.52a14 14 0 0 0-1.777-1.293l1.047-1.704q1.076.661 2.03 1.477m-4.266-2.619-.767 1.848a14 14 0 0 0-2.087-.678l.466-1.945c.822.196 1.62.457 2.388.775M17.257.05l-.155 1.994a14 14 0 0 0-2.204 0L14.743.049a16 16 0 0 1 2.514 0m-4.994.39.466 1.945q-1.08.26-2.087.678l-.767-1.848A16 16 0 0 1 12.263.44M7.64 2.356 8.686 4.06a14 14 0 0 0-1.778 1.293l-1.3-1.52A16 16 0 0 1 7.64 2.356M3.833 5.609l1.52 1.3A14 14 0 0 0 4.06 8.685L2.356 7.639q.661-1.076 1.477-2.03M1.214 9.875l1.848.767a14 14 0 0 0-.678 2.087l-1.945-.466c.196-.822.457-1.62.775-2.388M.05 14.743a16 16 0 0 0 0 2.514l1.994-.155a14 14 0 0 1 0-2.204zm.39 4.994 1.945-.466q.26 1.08.678 2.087l-1.848.767a16 16 0 0 1-.775-2.388m1.917 4.624 1.704-1.047q.579.941 1.293 1.778l-1.52 1.3a16 16 0 0 1-1.477-2.031m3.253 3.806 1.3-1.52q.835.714 1.777 1.293l-1.047 1.704a16 16 0 0 1-2.03-1.477m4.266 2.619.767-1.848q1.007.42 2.087.678l-.466 1.945a16 16 0 0 1-2.388-.775m4.868 1.165.155-1.994a14 14 0 0 0 2.204 0l.155 1.994a16 16 0 0 1-2.514 0m4.994-.39-.466-1.945q1.08-.26 2.087-.677l.767 1.847a16 16 0 0 1-2.388.775m4.624-1.917-1.047-1.704q.941-.579 1.778-1.293l1.3 1.52a16 16 0 0 1-2.031 1.477m3.806-3.253-1.52-1.3a14 14 0 0 0 1.293-1.777l1.704 1.047q-.661 1.076-1.477 2.03m2.619-4.266-1.848-.767q.42-1.007.678-2.087l1.945.466a16 16 0 0 1-.775 2.388" clip-rule="evenodd"/><g clip-path="url(#statasusde__circleClip)"><g style="transform:scale(.8125);transform-origin:50% 50%"><path fill="#fff" d="M16 32.35c8.837 0 16-7.164 16-16s-7.163-16-16-16-16 7.163-16 16 7.163 16 16 16"/><path fill="#000" d="M19.53 16.32c-.26-.14-1.51-.5-2.33-.69-.41-.09-.83-.18-1.24-.26-1.24-.25-2.18-.41-2.64-.7-.62-.39-.7-1.23-.7-1.44v-1.12c0-.49.17-.89.51-1.23.35-.34.75-.51 1.24-.51h3.17c.49 0 .89.17 1.23.51q.51.51.51 1.23v.73h1.55v-.59c0-.89-.33-1.67-.97-2.32s-1.43-.98-2.33-.98h-.75V6.8h-1.54v2.15h-.88c-.91 0-1.69.33-2.33.97s-.97 1.42-.97 2.33v.89c0 1.06.59 2.2 1.55 2.79.47.29 1.12.42 2.02.6.38.08.82.16 1.31.27.43.08.72.15.92.19.19.04.46.11.83.21q.525.135.78.27c.17.09.37.19.58.32.19.12.32.25.4.39s.12.31.12.48v1.66c0 .51-.18.93-.54 1.3s-.79.54-1.3.54h-3.36c-.51 0-.93-.18-1.29-.54s-.54-.79-.54-1.3v-.93h-1.55v.79c0 .92.33 1.73.99 2.39s1.46 1 2.39 1h.87v2.3h1.55v-2.3h.94c.92 0 1.72-.33 2.39-.99s1-1.46 1-2.39v-1.43c0-1.06-.5-1.81-1.61-2.44z"/><path fill="#000" d="M13.44 28.18C7.99 27 3.9 22.14 3.9 16.35S7.99 5.7 13.44 4.52V3.24c-6.15 1.2-10.8 6.61-10.8 13.11s4.64 11.92 10.8 13.11zm5.12-24.95v1.28c5.45 1.18 9.54 6.04 9.54 11.83s-4.09 10.65-9.54 11.83v1.28c6.15-1.2 10.8-6.61 10.8-13.11S24.72 4.42 18.56 3.23"/></g></g><defs><clipPath id="statasusde__circleClip"><circle cx="16" cy="16" r="13"/></clipPath></defs></svg>