<svg xmlns="http://www.w3.org/2000/svg" width="32" height="32" fill="none" viewBox="0 0 32 32"><path fill="currentColor" fill-rule="evenodd" d="m31.951 17.257-1.994-.155a14 14 0 0 0 0-2.204l1.994-.155a16 16 0 0 1 0 2.514m-.39-4.994-1.945.466q-.26-1.08-.677-2.087l1.847-.767q.478 1.154.775 2.388M29.644 7.64 27.94 8.686a14 14 0 0 0-1.293-1.778l1.52-1.3a16 16 0 0 1 1.477 2.031m-3.253-3.806-1.3 1.52a14 14 0 0 0-1.777-1.293l1.047-1.704q1.076.661 2.03 1.477m-4.266-2.619-.767 1.848a14 14 0 0 0-2.087-.678l.466-1.945c.822.196 1.62.457 2.388.775M17.257.05l-.155 1.994a14 14 0 0 0-2.204 0L14.743.049a16 16 0 0 1 2.514 0m-4.994.39.466 1.945q-1.08.26-2.087.678l-.767-1.848A16 16 0 0 1 12.263.44M7.64 2.356 8.686 4.06a14 14 0 0 0-1.778 1.293l-1.3-1.52A16 16 0 0 1 7.64 2.356M3.833 5.609l1.52 1.3A14 14 0 0 0 4.06 8.685L2.356 7.639q.661-1.076 1.477-2.03M1.214 9.875l1.848.767a14 14 0 0 0-.678 2.087l-1.945-.466c.196-.822.457-1.62.775-2.388M.05 14.743a16 16 0 0 0 0 2.514l1.994-.155a14 14 0 0 1 0-2.204zm.39 4.994 1.945-.466q.26 1.08.678 2.087l-1.848.767a16 16 0 0 1-.775-2.388m1.917 4.624 1.704-1.047q.579.941 1.293 1.778l-1.52 1.3a16 16 0 0 1-1.477-2.031m3.253 3.806 1.3-1.52q.835.714 1.777 1.293l-1.047 1.704a16 16 0 0 1-2.03-1.477m4.266 2.619.767-1.848q1.007.42 2.087.678l-.466 1.945a16 16 0 0 1-2.388-.775m4.868 1.165.155-1.994a14 14 0 0 0 2.204 0l.155 1.994a16 16 0 0 1-2.514 0m4.994-.39-.466-1.945q1.08-.26 2.087-.677l.767 1.847a16 16 0 0 1-2.388.775m4.624-1.917-1.047-1.704q.941-.579 1.778-1.293l1.3 1.52a16 16 0 0 1-2.031 1.477m3.806-3.253-1.52-1.3a14 14 0 0 0 1.293-1.777l1.704 1.047q-.661 1.076-1.477 2.03m2.619-4.266-1.848-.767q.42-1.007.678-2.087l1.945.466a16 16 0 0 1-.775 2.388" clip-rule="evenodd"/><g clip-path="url(#y3l3f__circleClip)"><g fill="currentColor" style="transform:scale(.8125);transform-origin:50% 50%"><path d="M16 0C7.16 0 0 7.16 0 16s7.16 16 16 16 16-7.16 16-16S24.84 0 16 0m10.84 21.2c0 .66-.35 1.28-.93 1.61l-9 5.2c-.29.17-.61.25-.93.25-.33 0-.65-.09-.93-.25l-7.39-4.26-1.61-.93a1.86 1.86 0 0 1-.93-1.61V10.82c0-.66.35-1.28.93-1.61l9-5.2c.29-.17.61-.25.93-.25.33 0 .65.09.93.25l9 5.2c.57.33.93.94.93 1.61v10.39z"/><path d="M16.15 5.31a.33.33 0 0 0-.17-.04c-.06 0-.12.02-.17.05l-9 5.2c-.1.06-.17.17-.17.29v10.4c0 .12.06.23.17.29l1.38.8 4.36-11.96a.41.41 0 0 1 .38-.27h2.28c.14 0 .24.14.19.27l-4.86 13.32.94.54 5.06-13.87a.41.41 0 0 1 .38-.27h2.28s.05 0 .07.01a.2.2 0 0 1 .12.26l-5.55 15.22 1.96 1.13c.05.03.11.04.17.04s.12-.01.17-.04l1.97-1.14-1.51-4.15a.45.45 0 0 1 0-.28l1.19-3.25c.06-.18.32-.18.38 0l2.3 6.32.94-.54-2.81-7.72a.45.45 0 0 1 0-.28l1.19-3.25c.06-.18.32-.18.38 0 0 0 2.8 7.68 3.61 9.88l1.37-.79c.1-.06.17-.17.17-.29V10.8c0-.12-.06-.23-.17-.29z"/></g></g><defs><clipPath id="y3l3f__circleClip"><circle cx="16" cy="16" r="13"/></clipPath></defs></svg>