<svg width="32" height="32" fill="none" viewBox="0 0 32 32" xmlns="http://www.w3.org/2000/svg"><path fill="currentColor" d="M11.35 2.79c1.46-.51 3.02-.81 4.65-.81s3.22.3 4.68.82L21.83.04C21.7.02 21.56 0 21.42 0H10.58c-.12 0-.25.02-.37.04zM3.36 9.96c1.38-2.88 3.71-5.22 6.59-6.6L8.81.6c-.1.08-.21.15-.3.25L.85 8.52c-.09.09-.17.2-.24.3zM30.02 16c0 1.65-.3 3.23-.82 4.7l2.76 1.15c.02-.14.04-.28.04-.42V10.59c0-.11-.02-.22-.03-.33l-2.74 1.13c.51 1.45.8 3 .8 4.62zM23.21.63l-1.14 2.75c2.88 1.39 5.21 3.72 6.58 6.61l2.76-1.14c-.08-.11-.17-.23-.27-.33L23.48.85C23.4.77 23.3.7 23.21.63M1.98 16c0-1.63.29-3.19.81-4.65L.04 10.21c-.02.12-.04.24-.04.37v10.84c0 .13.02.26.04.38l2.75-1.14c-.52-1.46-.81-3.03-.81-4.67zM28.62 22.08a14.07 14.07 0 0 1-6.59 6.56l1.14 2.76c.11-.08.22-.16.32-.26l7.67-7.67c.08-.08.14-.17.21-.26l-2.74-1.14zM20.63 29.22c-1.45.51-3.01.8-4.63.8s-3.2-.3-4.66-.81l-1.14 2.75c.13.02.25.04.39.04h10.84c.12 0 .23-.02.35-.03l-1.13-2.75zM8.81 31.38l1.14-2.75c-2.87-1.38-5.2-3.7-6.58-6.57L.62 23.2c.08.1.15.2.24.29l7.67 7.67c.09.09.19.16.29.24z"/><g clip-path="url(#stkarb__circleClip)"><g fill="currentColor" style="transform:scale(.8125);transform-origin:50% 50%"><path d="M16 0C7.16 0 0 7.16 0 16s7.16 16 16 16 16-7.16 16-16S24.84 0 16 0m10.84 21.2c0 .66-.35 1.28-.93 1.61l-9 5.2c-.29.17-.61.25-.93.25-.33 0-.65-.09-.93-.25l-7.39-4.26-1.61-.93a1.86 1.86 0 0 1-.93-1.61V10.82c0-.66.35-1.28.93-1.61l9-5.2c.29-.17.61-.25.93-.25.33 0 .65.09.93.25l9 5.2c.57.33.93.94.93 1.61v10.39z"/><path d="M16.15 5.31a.33.33 0 0 0-.17-.04c-.06 0-.12.02-.17.05l-9 5.2c-.1.06-.17.17-.17.29v10.4c0 .12.06.23.17.29l1.38.8 4.36-11.96a.41.41 0 0 1 .38-.27h2.28c.14 0 .24.14.19.27l-4.86 13.32.94.54 5.06-13.87a.41.41 0 0 1 .38-.27h2.28s.05 0 .07.01a.2.2 0 0 1 .12.26l-5.55 15.22 1.96 1.13c.05.03.11.04.17.04s.12-.01.17-.04l1.97-1.14-1.51-4.15a.45.45 0 0 1 0-.28l1.19-3.25c.06-.18.32-.18.38 0l2.3 6.32.94-.54-2.81-7.72a.45.45 0 0 1 0-.28l1.19-3.25c.06-.18.32-.18.38 0 0 0 2.8 7.68 3.61 9.88l1.37-.79c.1-.06.17-.17.17-.29V10.8c0-.12-.06-.23-.17-.29z"/></g></g><defs><clipPath id="stkarb__circleClip"><circle cx="16" cy="16" r="13"/></clipPath></defs></svg>