<svg width="32" height="32" fill="none" viewBox="0 0 32 32" xmlns="http://www.w3.org/2000/svg"><path fill="currentColor" fill-rule="evenodd" d="m19.916.486-.413 1.41a14.4 14.4 0 0 0-3.515-.43c-1.215 0-2.34.146-3.45.413L12.133.478C5.175 2.21 0 8.512 0 16.004c0 1.506.21 2.956.6 4.333l1.457-.356a14.44 14.44 0 0 0 3.483 6.017l-1.053 1.094c2.916 3.02 6.998 4.9 11.509 4.9s8.569-1.871 11.485-4.876L26.42 26a14.5 14.5 0 0 0 3.482-6.002l1.482.364A16 16 0 0 0 32 15.988C32 8.512 26.849 2.219 19.908.47zm-3.896 29.02c-7.46 0-13.501-6.043-13.501-13.502S8.56 2.503 16.02 2.503c7.46 0 13.502 6.042 13.502 13.501 0 7.46-6.042 13.501-13.502 13.501" clip-rule="evenodd"/><g clip-path="url(#stkarb__circleClip)"><g fill="currentColor" style="transform:scale(.8125);transform-origin:50% 50%"><path d="M16 0C7.16 0 0 7.16 0 16s7.16 16 16 16 16-7.16 16-16S24.84 0 16 0m10.84 21.2c0 .66-.35 1.28-.93 1.61l-9 5.2c-.29.17-.61.25-.93.25-.33 0-.65-.09-.93-.25l-7.39-4.26-1.61-.93a1.86 1.86 0 0 1-.93-1.61V10.82c0-.66.35-1.28.93-1.61l9-5.2c.29-.17.61-.25.93-.25.33 0 .65.09.93.25l9 5.2c.57.33.93.94.93 1.61v10.39z"/><path d="M16.15 5.31a.33.33 0 0 0-.17-.04c-.06 0-.12.02-.17.05l-9 5.2c-.1.06-.17.17-.17.29v10.4c0 .12.06.23.17.29l1.38.8 4.36-11.96a.41.41 0 0 1 .38-.27h2.28c.14 0 .24.14.19.27l-4.86 13.32.94.54 5.06-13.87a.41.41 0 0 1 .38-.27h2.28s.05 0 .07.01a.2.2 0 0 1 .12.26l-5.55 15.22 1.96 1.13c.05.03.11.04.17.04s.12-.01.17-.04l1.97-1.14-1.51-4.15a.45.45 0 0 1 0-.28l1.19-3.25c.06-.18.32-.18.38 0l2.3 6.32.94-.54-2.81-7.72a.45.45 0 0 1 0-.28l1.19-3.25c.06-.18.32-.18.38 0 0 0 2.8 7.68 3.61 9.88l1.37-.79c.1-.06.17-.17.17-.29V10.8c0-.12-.06-.23-.17-.29z"/></g></g><defs><clipPath id="stkarb__circleClip"><circle cx="16" cy="16" r="13"/></clipPath></defs></svg>