<svg width="32" height="32" fill="none" viewBox="0 0 32 32" xmlns="http://www.w3.org/2000/svg"><path fill="currentColor" d="M11.35 2.79c1.46-.51 3.02-.81 4.65-.81s3.22.3 4.68.82L21.83.04C21.7.02 21.56 0 21.42 0H10.58c-.12 0-.25.02-.37.04zM3.36 9.96c1.38-2.88 3.71-5.22 6.59-6.6L8.81.6c-.1.08-.21.15-.3.25L.85 8.52c-.09.09-.17.2-.24.3zM30.02 16c0 1.65-.3 3.23-.82 4.7l2.76 1.15c.02-.14.04-.28.04-.42V10.59c0-.11-.02-.22-.03-.33l-2.74 1.13c.51 1.45.8 3 .8 4.62zM23.21.63l-1.14 2.75c2.88 1.39 5.21 3.72 6.58 6.61l2.76-1.14c-.08-.11-.17-.23-.27-.33L23.48.85C23.4.77 23.3.7 23.21.63M1.98 16c0-1.63.29-3.19.81-4.65L.04 10.21c-.02.12-.04.24-.04.37v10.84c0 .13.02.26.04.38l2.75-1.14c-.52-1.46-.81-3.03-.81-4.67zM28.62 22.08a14.07 14.07 0 0 1-6.59 6.56l1.14 2.76c.11-.08.22-.16.32-.26l7.67-7.67c.08-.08.14-.17.21-.26l-2.74-1.14zM20.63 29.22c-1.45.51-3.01.8-4.63.8s-3.2-.3-4.66-.81l-1.14 2.75c.13.02.25.04.39.04h10.84c.12 0 .23-.02.35-.03l-1.13-2.75zM8.81 31.38l1.14-2.75c-2.87-1.38-5.2-3.7-6.58-6.57L.62 23.2c.08.1.15.2.24.29l7.67 7.67c.09.09.19.16.29.24z"/><g clip-path="url(#stkcbeth__circleClip)"><g fill="currentColor" style="transform:scale(.8125);transform-origin:50% 50%"><path d="M15.89.12C7.11.12 0 7.23 0 16.01S7.11 31.9 15.89 31.9s15.89-7.11 15.89-15.89S24.67.12 15.89.12m0 30.9c-8.29 0-15-6.72-15-15s6.72-15 15-15 15 6.72 15 15-6.72 15-15 15"/><path d="M15.89 2.51c-7.46 0-13.5 6.05-13.5 13.5s6.05 13.5 13.5 13.5 13.5-6.05 13.5-13.5-6.05-13.5-13.5-13.5m0 24.4-6.71-9.6 6.71 4.02 6.72-3.95zm0-6.89-6.7-4.01 6.7-11.32 6.72 11.34-6.72 4.01z"/></g></g><defs><clipPath id="stkcbeth__circleClip"><circle cx="16" cy="16" r="13"/></clipPath></defs></svg>