<svg width="32" height="32" fill="none" viewBox="0 0 32 32" xmlns="http://www.w3.org/2000/svg"><path fill="currentColor" fill-rule="evenodd" d="m19.916.486-.413 1.41a14.4 14.4 0 0 0-3.515-.43c-1.215 0-2.34.146-3.45.413L12.133.478C5.175 2.21 0 8.512 0 16.004c0 1.506.21 2.956.6 4.333l1.457-.356a14.44 14.44 0 0 0 3.483 6.017l-1.053 1.094c2.916 3.02 6.998 4.9 11.509 4.9s8.569-1.871 11.485-4.876L26.42 26a14.5 14.5 0 0 0 3.482-6.002l1.482.364A16 16 0 0 0 32 15.988C32 8.512 26.849 2.219 19.908.47zm-3.896 29.02c-7.46 0-13.501-6.043-13.501-13.502S8.56 2.503 16.02 2.503c7.46 0 13.502 6.042 13.502 13.501 0 7.46-6.042 13.501-13.502 13.501" clip-rule="evenodd"/><g clip-path="url(#stkcbeth__circleClip)"><g fill="currentColor" style="transform:scale(.8125);transform-origin:50% 50%"><path d="M15.89.12C7.11.12 0 7.23 0 16.01S7.11 31.9 15.89 31.9s15.89-7.11 15.89-15.89S24.67.12 15.89.12m0 30.9c-8.29 0-15-6.72-15-15s6.72-15 15-15 15 6.72 15 15-6.72 15-15 15"/><path d="M15.89 2.51c-7.46 0-13.5 6.05-13.5 13.5s6.05 13.5 13.5 13.5 13.5-6.05 13.5-13.5-6.05-13.5-13.5-13.5m0 24.4-6.71-9.6 6.71 4.02 6.72-3.95zm0-6.89-6.7-4.01 6.7-11.32 6.72 11.34-6.72 4.01z"/></g></g><defs><clipPath id="stkcbeth__circleClip"><circle cx="16" cy="16" r="13"/></clipPath></defs></svg>