<svg width="32" height="32" fill="none" viewBox="0 0 32 32" xmlns="http://www.w3.org/2000/svg"><path fill="currentColor" d="M11.35 2.79c1.46-.51 3.02-.81 4.65-.81s3.22.3 4.68.82L21.83.04C21.7.02 21.56 0 21.42 0H10.58c-.12 0-.25.02-.37.04zM3.36 9.96c1.38-2.88 3.71-5.22 6.59-6.6L8.81.6c-.1.08-.21.15-.3.25L.85 8.52c-.09.09-.17.2-.24.3zM30.02 16c0 1.65-.3 3.23-.82 4.7l2.76 1.15c.02-.14.04-.28.04-.42V10.59c0-.11-.02-.22-.03-.33l-2.74 1.13c.51 1.45.8 3 .8 4.62zM23.21.63l-1.14 2.75c2.88 1.39 5.21 3.72 6.58 6.61l2.76-1.14c-.08-.11-.17-.23-.27-.33L23.48.85C23.4.77 23.3.7 23.21.63M1.98 16c0-1.63.29-3.19.81-4.65L.04 10.21c-.02.12-.04.24-.04.37v10.84c0 .13.02.26.04.38l2.75-1.14c-.52-1.46-.81-3.03-.81-4.67zM28.62 22.08a14.07 14.07 0 0 1-6.59 6.56l1.14 2.76c.11-.08.22-.16.32-.26l7.67-7.67c.08-.08.14-.17.21-.26l-2.74-1.14zM20.63 29.22c-1.45.51-3.01.8-4.63.8s-3.2-.3-4.66-.81l-1.14 2.75c.13.02.25.04.39.04h10.84c.12 0 .23-.02.35-.03l-1.13-2.75zM8.81 31.38l1.14-2.75c-2.87-1.38-5.2-3.7-6.58-6.57L.62 23.2c.08.1.15.2.24.29l7.67 7.67c.09.09.19.16.29.24z"/><g clip-path="url(#stkgho__circleClip)"><g style="transform:scale(.8125);transform-origin:50% 50%"><path fill="currentColor" d="M16 28.43c-6.82 0-12.35-5.63-12.35-12.58S9.18 3.27 16 3.27c6.17 0 11.43 4.62 12.35 10.64H25c-.87-4.24-4.54-7.32-9-7.32-5.11 0-9.19 4.06-9.19 9.26s4.08 9.19 9.19 9.19c4.62 0 8.32-3.26 9-7.74h3.35v8.84c2.27-2.76 3.66-6.28 3.66-10.14 0-8.84-7.16-16-16-16S0 7.16 0 16s7.16 16 16 16c3.45 0 6.64-1.1 9.25-2.96v-5.69s-.09-.02-.13-.04c-1.84 3.13-4.83 5.12-9.12 5.12m-3.28-11.92c-1.44 0-2.6-1.17-2.6-2.6s1.17-2.6 2.6-2.6 2.6 1.17 2.6 2.6-1.17 2.6-2.6 2.6m6.57 0c-1.44 0-2.6-1.17-2.6-2.6s1.17-2.6 2.6-2.6 2.6 1.17 2.6 2.6-1.17 2.6-2.6 2.6"/></g></g><defs><clipPath id="stkgho__circleClip"><circle cx="16" cy="16" r="13"/></clipPath></defs></svg>