<svg width="32" height="32" fill="none" viewBox="0 0 32 32" xmlns="http://www.w3.org/2000/svg"><path fill="currentColor" fill-rule="evenodd" d="m19.916.486-.413 1.41a14.4 14.4 0 0 0-3.515-.43c-1.215 0-2.34.146-3.45.413L12.133.478C5.175 2.21 0 8.512 0 16.004c0 1.506.21 2.956.6 4.333l1.457-.356a14.44 14.44 0 0 0 3.483 6.017l-1.053 1.094c2.916 3.02 6.998 4.9 11.509 4.9s8.569-1.871 11.485-4.876L26.42 26a14.5 14.5 0 0 0 3.482-6.002l1.482.364A16 16 0 0 0 32 15.988C32 8.512 26.849 2.219 19.908.47zm-3.896 29.02c-7.46 0-13.501-6.043-13.501-13.502S8.56 2.503 16.02 2.503c7.46 0 13.502 6.042 13.502 13.501 0 7.46-6.042 13.501-13.502 13.501" clip-rule="evenodd"/><g clip-path="url(#stkscr__circleClip)"><g fill="currentColor" style="transform:scale(.8125);transform-origin:50% 50%"><path d="M4.41 11.896C3.252 10.82 2.44 9.425 2.44 7.773v-.176c.096-2.822 2.458-5.094 5.332-5.177h18.3c.477.024.86.352.86.832v15.203c.417.07.62.13 1.025.27.322.117.763.363.763.363V3.252a2.643 2.643 0 0 0-2.66-2.6H7.76C3.813.71.64 3.884.64 7.773c0 2.26 1.05 4.193 2.767 5.552.12.094.227.211.537.211.537 0 .919-.422.895-.879-.012-.386-.18-.526-.43-.76"/><path d="M25.597 19.45h-14.35c-.967.012-1.742.773-1.742 1.722v2.027c.024.937.835 1.733 1.801 1.733h1.063v-1.733h-1.063v-1.98h.585c1.813 0 3.149 1.651 3.149 3.42 0 1.57-1.455 3.573-3.889 3.408-2.158-.14-3.328-2.026-3.328-3.408V7.47c0-.773-.644-1.406-1.431-1.406H4.96V7.82h1.062v16.83c-.06 3.421 2.481 5.143 5.13 5.143l14.457.046c2.911 0 5.274-2.318 5.274-5.188s-2.375-5.2-5.286-5.2m3.484 5.306c-.06 1.84-1.599 3.315-3.484 3.315l-10.056-.035a5.13 5.13 0 0 0 1.288-3.385c0-2.026-1.228-3.42-1.228-3.42H25.61c1.92 0 3.483 1.534 3.483 3.42zM21.73 8.136H10.91V6.38h10.82c.489 0 .895.386.895.878 0 .48-.394.878-.895.878"/><path d="M21.73 16.405H10.91v-1.757h10.82c.489 0 .895.387.895.878 0 .48-.394.88-.895.88m1.908-4.134H10.91v-1.757h12.717c.489 0 .895.386.895.878.011.48-.395.879-.884.879"/></g></g><defs><clipPath id="stkscr__circleClip"><circle cx="16" cy="16" r="13"/></clipPath></defs></svg>