<svg width="32" height="32" fill="none" viewBox="0 0 32 32" xmlns="http://www.w3.org/2000/svg"><path fill="#213147" d="M11.35 2.79c1.46-.51 3.02-.81 4.65-.81s3.22.3 4.68.82L21.83.04C21.7.02 21.56 0 21.42 0H10.58c-.12 0-.25.02-.37.04zM3.36 9.96c1.38-2.88 3.71-5.22 6.59-6.6L8.81.6c-.1.08-.21.15-.3.25L.85 8.52c-.09.09-.17.2-.24.3zM31.5 10.98v10.13l-1.68-.7c.46-1.45.7-2.93.7-4.41s-.23-2.91-.67-4.34zm.47-.73-2.74 1.13c.51 1.45.8 3 .8 4.62s-.3 3.23-.82 4.7l2.76 1.15c.02-.14.04-.28.04-.42V10.59c0-.11-.02-.22-.03-.33zM23.21.63l-1.14 2.75c2.88 1.39 5.21 3.72 6.58 6.61l2.76-1.14c-.08-.11-.17-.23-.27-.33L23.48.85C23.4.77 23.3.7 23.21.63M1.98 16c0-1.63.29-3.19.81-4.65L.04 10.21c-.02.12-.04.24-.04.37v10.84c0 .13.02.26.04.38l2.75-1.14c-.52-1.46-.81-3.03-.81-4.67zM28.85 22.72l1.66.69-7.15 7.15-.69-1.68a14.6 14.6 0 0 0 6.19-6.16m-.24-.64a14.07 14.07 0 0 1-6.59 6.56l1.14 2.76c.11-.08.22-.16.32-.26l7.67-7.67c.08-.08.14-.17.21-.26l-2.74-1.14zM11.62 29.83c1.44.46 2.91.69 4.38.69s2.92-.23 4.35-.68l.68 1.66H10.92l.69-1.67m-.27-.62-1.14 2.75c.13.02.25.04.39.04h10.84c.12 0 .23-.02.35-.03l-1.13-2.75c-1.45.51-3.01.8-4.63.8s-3.2-.3-4.66-.81zM3.13 22.7c1.37 2.63 3.54 4.8 6.18 6.17l-.69 1.67-7.15-7.15 1.67-.69m.23-.64L.62 23.2c.08.1.15.2.24.29l7.67 7.67c.09.09.19.16.29.24l1.14-2.75c-2.87-1.38-5.2-3.7-6.58-6.57z"/><g clip-path="url(#stkusdt__circleClip)"><g style="transform:scale(.8125);transform-origin:50% 50%"><g fill="currentColor" fill-rule="evenodd" clip-path="url(#stkusdt__tetherusdt__clip0_298_871)" clip-rule="evenodd"><path d="M17.92 14.07v2.64c-.11.01-.72.06-1.93.06-1.01 0-1.73-.04-1.99-.06v-2.64c-3.89.17-6.79.85-6.79 1.66s2.9 1.49 6.79 1.66c.25 0 .96.04 1.97.04 1.27 0 1.83-.03 1.94-.04 3.88-.17 6.77-.84 6.77-1.65s-2.89-1.48-6.77-1.66z"/><path d="M16 0C7.16 0 0 7.16 0 16s7.16 16 16 16 16-7.16 16-16S24.84 0 16 0m1.92 18.03v7.58h-3.91v-7.58c-4.4-.2-7.71-1.07-7.71-2.12s3.31-1.92 7.71-2.12v-2.36H8.6V7.82h14.74v3.61h-5.41v2.37c4.39.2 7.69 1.07 7.69 2.12s-3.3 1.91-7.69 2.12z"/></g><defs><clipPath id="stkusdt__tetherusdt__clip0_298_871"><path fill="#fff" d="M0 0h32v32H0z"/></clipPath></defs></g></g><defs><clipPath id="stkusdt__circleClip"><circle cx="16" cy="16" r="13"/></clipPath></defs></svg>