<svg width="32" height="32" fill="none" viewBox="0 0 32 32" xmlns="http://www.w3.org/2000/svg"><path fill="currentColor" fill-rule="evenodd" d="m19.916.486-.413 1.41a14.4 14.4 0 0 0-3.515-.43c-1.215 0-2.34.146-3.45.413L12.133.478C5.175 2.21 0 8.512 0 16.004c0 1.506.21 2.956.6 4.333l1.457-.356a14.44 14.44 0 0 0 3.483 6.017l-1.053 1.094c2.916 3.02 6.998 4.9 11.509 4.9s8.569-1.871 11.485-4.876L26.42 26a14.5 14.5 0 0 0 3.482-6.002l1.482.364A16 16 0 0 0 32 15.988C32 8.512 26.849 2.219 19.908.47zm-3.896 29.02c-7.46 0-13.501-6.043-13.501-13.502S8.56 2.503 16.02 2.503c7.46 0 13.502 6.042 13.502 13.501 0 7.46-6.042 13.501-13.502 13.501" clip-rule="evenodd"/><g clip-path="url(#stkusdt__circleClip)"><g style="transform:scale(.8125);transform-origin:50% 50%"><g fill="currentColor" fill-rule="evenodd" clip-path="url(#stkusdt__tetherusdt__clip0_298_871)" clip-rule="evenodd"><path d="M17.92 14.07v2.64c-.11.01-.72.06-1.93.06-1.01 0-1.73-.04-1.99-.06v-2.64c-3.89.17-6.79.85-6.79 1.66s2.9 1.49 6.79 1.66c.25 0 .96.04 1.97.04 1.27 0 1.83-.03 1.94-.04 3.88-.17 6.77-.84 6.77-1.65s-2.89-1.48-6.77-1.66z"/><path d="M16 0C7.16 0 0 7.16 0 16s7.16 16 16 16 16-7.16 16-16S24.84 0 16 0m1.92 18.03v7.58h-3.91v-7.58c-4.4-.2-7.71-1.07-7.71-2.12s3.31-1.92 7.71-2.12v-2.36H8.6V7.82h14.74v3.61h-5.41v2.37c4.39.2 7.69 1.07 7.69 2.12s-3.3 1.91-7.69 2.12z"/></g><defs><clipPath id="stkusdt__tetherusdt__clip0_298_871"><path fill="#fff" d="M0 0h32v32H0z"/></clipPath></defs></g></g><defs><clipPath id="stkusdt__circleClip"><circle cx="16" cy="16" r="13"/></clipPath></defs></svg>