<svg width="32" height="32" fill="none" viewBox="0 0 32 32" xmlns="http://www.w3.org/2000/svg"><path fill="currentColor" d="M11.35 2.79c1.46-.51 3.02-.81 4.65-.81s3.22.3 4.68.82L21.83.04C21.7.02 21.56 0 21.42 0H10.58c-.12 0-.25.02-.37.04zM3.36 9.96c1.38-2.88 3.71-5.22 6.59-6.6L8.81.6c-.1.08-.21.15-.3.25L.85 8.52c-.09.09-.17.2-.24.3zM30.02 16c0 1.65-.3 3.23-.82 4.7l2.76 1.15c.02-.14.04-.28.04-.42V10.59c0-.11-.02-.22-.03-.33l-2.74 1.13c.51 1.45.8 3 .8 4.62zM23.21.63l-1.14 2.75c2.88 1.39 5.21 3.72 6.58 6.61l2.76-1.14c-.08-.11-.17-.23-.27-.33L23.48.85C23.4.77 23.3.7 23.21.63M1.98 16c0-1.63.29-3.19.81-4.65L.04 10.21c-.02.12-.04.24-.04.37v10.84c0 .13.02.26.04.38l2.75-1.14c-.52-1.46-.81-3.03-.81-4.67zM28.62 22.08a14.07 14.07 0 0 1-6.59 6.56l1.14 2.76c.11-.08.22-.16.32-.26l7.67-7.67c.08-.08.14-.17.21-.26l-2.74-1.14zM20.63 29.22c-1.45.51-3.01.8-4.63.8s-3.2-.3-4.66-.81l-1.14 2.75c.13.02.25.04.39.04h10.84c.12 0 .23-.02.35-.03l-1.13-2.75zM8.81 31.38l1.14-2.75c-2.87-1.38-5.2-3.7-6.58-6.57L.62 23.2c.08.1.15.2.24.29l7.67 7.67c.09.09.19.16.29.24z"/><g clip-path="url(#stkwbtc__circleClip)"><g style="transform:scale(.8125);transform-origin:50% 50%"><g fill="currentColor" clip-path="url(#stkwbtc__wrappedbtc__clip0_298_909)"><path d="M16 0C7.16 0 0 7.16 0 16s7.16 16 16 16 16-7.16 16-16S24.84 0 16 0m.12 31.13C7.77 31.13 1 24.36 1 16 1 7.65 7.77.88 16.13.88 24.48.88 31.25 7.65 31.25 16s-6.77 15.12-15.12 15.13z"/><path d="M16.13 2.06h-.02c-7.7 0-13.93 6.25-13.93 13.95s6.25 13.93 13.95 13.93c7.69 0 13.92-6.24 13.93-13.93 0-7.7-6.23-13.94-13.93-13.94zm8.76 4.41-.83.83a11.754 11.754 0 0 0-15.87 0l-.85-.83a12.947 12.947 0 0 1 17.55 0m-9.78 15.68v2.55h-1.55v-2.58h-3.11l.29-1.85s1.15.02 1.12 0c.15.01.29-.04.4-.13.11-.1.18-.23.19-.38V12.8a.794.794 0 0 0-.88-.68c.02-.02-1.12 0-1.12 0v-1.65h3.14V7.93h1.53v2.48h1.24V7.93h1.55v2.52c2 .19 3.58.8 3.76 2.64.13 1.34-.43 2.16-1.33 2.6 1.48.35 2.4 1.23 2.22 3.2-.23 2.45-2.05 3.09-4.66 3.25v2.55h-1.55v-2.53h-1.24zM6.59 7.25l.83.83c-4.1 4.49-4.1 11.37 0 15.86l-.83.86a12.947 12.947 0 0 1 0-17.55m.76 18.28.83-.83a11.754 11.754 0 0 0 15.87 0l.85.83a12.947 12.947 0 0 1-17.55 0m18.31-.77-.83-.83a11.754 11.754 0 0 0 0-15.87l.83-.83v-.02a12.947 12.947 0 0 1 0 17.55"/><path d="M18.78 13.77c0-1.83-2.75-1.56-3.62-1.56v3.1c.87 0 3.62.21 3.62-1.54m.72 4.8c0-2.01-3.29-1.7-4.34-1.71v3.41c1.05 0 4.34.22 4.34-1.7"/></g><defs><clipPath id="stkwbtc__wrappedbtc__clip0_298_909"><path fill="#fff" d="M0 0h32v32H0z"/></clipPath></defs></g></g><defs><clipPath id="stkwbtc__circleClip"><circle cx="16" cy="16" r="13"/></clipPath></defs></svg>