<svg width="32" height="32" fill="none" viewBox="0 0 32 32" xmlns="http://www.w3.org/2000/svg"><g fill="currentColor" clip-path="url(#ethenastakedusde__clip0_2491_156)"><path d="m16 23.97 3.14-5.44h-6.28zM16 7.91l-3.14 5.44h6.28z"/><path d="M16-.06c-8.82 0-16 7.18-16 16s7.18 16 16 16 16-7.18 16-16-7.18-16-16-16m0 5.05 4.82 8.36h2.81v1.31H8.36v-1.31h2.81l4.82-8.36zm-2.56 24.08C7.26 27.88 2.6 22.45 2.6 15.92S7.27 3.96 13.44 2.77v1.25c-5.49 1.17-9.61 6.05-9.61 11.89s4.12 10.72 9.61 11.89zM16 26.89l-4.82-8.36H8.37v-1.31h15.27v1.31h-2.81l-4.82 8.36zm2.56 2.17V27.8c5.48-1.18 9.59-6.05 9.59-11.89S24.04 5.2 18.56 4.02V2.76c6.16 1.2 10.82 6.63 10.82 13.14s-4.65 11.94-10.82 13.14z"/></g><defs><clipPath id="ethenastakedusde__clip0_2491_156"><path fill="#fff" d="M0 0h32v32H0z"/></clipPath></defs></svg>