<svg width="32" height="32" fill="none" viewBox="0 0 32 32" xmlns="http://www.w3.org/2000/svg"><path fill="currentColor" d="M11.79 10.02c0-.97.42-1.88.99-2.58-1.51.46-2.72 1.97-2.72 3.85 0 5.6 10.6 4.86 10.6 10.32 0 .97-.37 2-.86 2.46 1.4-.39 2.56-1.95 2.56-3.72 0-5.9-10.57-4.81-10.57-10.34z"/><path fill="currentColor" d="M16 0C7.16 0 0 7.16 0 16s7.16 16 16 16 16-7.16 16-16S24.84 0 16 0m.03 26.84c-5.27 0-8.24-3.09-8.43-6.64h2.28c.16 2.65 2.88 4.53 5.58 4.53 2.16 0 3.02-1.17 3.02-2.56 0-4.48-10.66-3.53-10.66-10.8 0-3.81 3.48-6.5 8.11-6.5s7.97 2.51 8.2 6.11h-2.25c-.19-2.23-2.81-3.97-5.04-3.97-2 0-2.86 1.34-2.86 2.48 0 4.09 10.66 3.7 10.66 10.75 0 3.72-3.34 6.6-8.6 6.6z"/></svg>