<svg xmlns="http://www.w3.org/2000/svg" viewBox="0 0 1025 1024"><defs><linearGradient id="qkjsz__a" x1="0%" x2="100%" y1="100%" y2="0%"><stop offset="0%" stop-color="currentColor"/><stop offset="100%" stop-color="currentColor"/></linearGradient></defs><g fill="none" fill-rule="evenodd"><rect width="1024" height="1024" fill="url(#qkjsz__a)" rx="192"/><g fill="#FFF" fill-rule="nonzero"><path d="m873.739 511.885-78.081 82.858c-10.617 11.266-28.357 11.793-39.623 1.176a28 28 0 0 1-3.25-3.648l-81.649-109.54c-8.13-10.906-7.255-26.075 2.074-35.975l78.081-82.857c10.617-11.267 28.357-11.793 39.624-1.176a28 28 0 0 1 3.25 3.648l81.648 109.54c8.13 10.906 7.255 26.075-2.074 35.974"/><path d="m728.491 666.368-78.08 82.857c-10.618 11.267-28.358 11.793-39.624 1.176a28 28 0 0 1-3.25-3.648L410.22 482.033c-8.13-10.907-7.255-26.076 2.074-35.975l78.081-82.858c10.617-11.266 28.357-11.793 39.624-1.176a28 28 0 0 1 3.25 3.648l197.316 264.72c8.13 10.907 7.255 26.076-2.074 35.976" opacity=".75"/><path d="m728.346 666.173-78.081 82.857c-10.617 11.267-28.357 11.793-39.623 1.176a28 28 0 0 1-3.25-3.648l-95.705-128.397 117.121-124.286L730.42 630.198c8.13 10.906 7.255 26.075-2.074 35.975"/><path d="M270.683 365.94 468 630.66c8.13 10.907 7.255 26.076-2.075 35.976l-78.08 82.857c-10.618 11.267-28.358 11.793-39.624 1.176a28 28 0 0 1-3.25-3.648l-197.317-264.72c-8.13-10.907-7.255-26.076 2.075-35.976l78.08-82.857c10.618-11.267 28.358-11.793 39.624-1.176a28 28 0 0 1 3.25 3.648" opacity=".5"/><path d="M366.569 494.58 468.18 630.903c8.13 10.907 7.255 26.076-2.074 35.976l-78.081 82.857c-10.617 11.267-28.357 11.793-39.624 1.176a28 28 0 0 1-3.25-3.648l-95.705-128.397z" opacity=".5"/></g></g></svg>