<svg xmlns="http://www.w3.org/2000/svg" width="33" height="33" fill="none"><path fill="currentColor" d="M7.06 15c.01-.06.03-.11.04-.17l-1.17-.58c-.04.48-.06.96-.03 1.44l1 .46c.03-.38.08-.77.16-1.15M6.06 16.97c.04.21.08.43.14.64.02.08.03.12.05.24v.02c.03.15.09.3.16.43.09.2.28.56.5.96.09.16.19.31.29.46-.2-.77-.31-1.57-.33-2.39l-.8-.37zM7.09 10.46c-.46.84-.79 1.74-.99 2.66l1.3.65c1.65-5.04 6.84-8.17 12.17-7.11.32.06.63.15.93.24-.09-.07-.18-.14-.27-.2-4.67-2.59-10.55-.9-13.13 3.77z"/><path fill="currentColor" d="M16.51.12c-8.84 0-16 7.16-16 16s7.16 16 16 16 16-7.16 16-16-7.16-16-16-16m.98 27.59c-3.03 0-5.75-1.27-7.69-3.3-.86-.58-1.73-1.55-2.59-2.81-.41-.6-.79-1.23-1.14-1.86-.23-.42-.43-.8-.53-1.01-.11-.21-.18-.43-.23-.66v-.03c-.02-.09-.03-.12-.04-.18-1.51-5.68 1.87-11.5 7.55-13.01 2.67-.71 5.5-.35 7.91.99l.04.03c1.05.73 2.16 1.7 3.33 2.88 3.02 2.4 4.63 6.36 3.83 10.4-.99 4.97-5.36 8.56-10.43 8.56z"/><path fill="currentColor" d="M24.31 10.25c-3.77-3.77-9.89-3.77-13.66 0-.45.45-.85.94-1.2 1.46-2.96 4.43-1.77 10.43 2.66 13.39a9.7 9.7 0 0 0 5.37 1.63c3.91 0 7.43-2.35 8.92-5.96a9.66 9.66 0 0 0-2.09-10.52m-10.58 8.89h-.93l-.78-2.23-.77 2.23h-.93l-1.29-3.89h1.13l.67 2.24.75-2.25h.92l.75 2.25.67-2.24h1.11l-1.29 3.89zm4.85-.03h-3.14v-3.87h3.11v.91H16.5v.59h1.86v.84H16.5v.61h2.08v.92m3.73-2.93h-1.16v2.93h-1.07v-2.93h-1.16v-.94h3.39zm3.98 2.93h-1.07v-1.47h-1.38v1.47h-1.07v-3.87h1.07v1.45h1.38v-1.45h1.07z"/></svg>