<svg width="32" height="32" fill="none" viewBox="0 0 32 32" xmlns="http://www.w3.org/2000/svg"><g fill="currentColor" clip-path="url(#wrappeds__clip0_2323_1938)"><path fill-rule="evenodd" d="M31 16c0-7.732-6.268-14-14-14S3 8.268 3 16s6.268 14 14 14 14-6.268 14-14M17 0c8.837 0 16 7.163 16 16s-7.163 16-16 16S1 24.837 1 16 8.163 0 17 0" clip-rule="evenodd"/><path d="M19.449 18.911c-4.536 1.36-8.289 3.346-10.638 5.671l-.103.104c.624.59 1.31 1.118 2.05 1.567l.159-.195a30 30 0 0 1 2.045-2.25 30.2 30.2 0 0 1 6.49-4.9zM4.999 16.895a11.9 11.9 0 0 0 2.498 6.46l.065-.064c1.454-1.433 3.347-2.736 5.631-3.871 2.002-.996 4.3-1.85 6.777-2.525zM14.23 6.923c4.059 4.04 9.167 6.71 14.769 7.723C28.323 8.658 23.22 4 17.02 4c-1.637 0-3.197.326-4.623.914a30 30 0 0 0 1.833 2.01M8.811 7.417c2.35 2.328 6.102 4.31 10.638 5.674a30.2 30.2 0 0 1-6.49-4.898 30 30 0 0 1-2.045-2.252l-.159-.194a12 12 0 0 0-2.047 1.567zM14.23 25.077a29 29 0 0 0-1.833 2.008c1.423.588 2.986.915 4.623.915 6.2 0 11.303-4.658 11.98-10.649-5.601 1.013-10.709 3.684-14.767 7.723zM13.193 12.58c-2.284-1.135-4.177-2.438-5.63-3.871l-.066-.065A11.9 11.9 0 0 0 5 15.104h14.968c-2.476-.673-4.772-1.528-6.776-2.526z"/></g><defs><clipPath id="wrappeds__clip0_2323_1938"><path fill="#fff" d="M0 0h32v32H0z"/></clipPath></defs></svg>